M48
; DRILL file {KiCad 6.0.9-8da3e8f707~116~ubuntu20.04.1} date fr. 04. nov. 2022 kl. 12.27 +0100
; FORMAT={-:-/ absolute / metric / decimal}
; #@! TF.CreationDate,2022-11-04T12:27:45+01:00
; #@! TF.GenerationSoftware,Kicad,Pcbnew,6.0.9-8da3e8f707~116~ubuntu20.04.1
; #@! TF.FileFunction,NonPlated,1,2,NPTH
FMAT,2
METRIC
; #@! TA.AperFunction,NonPlated,NPTH,ComponentDrill
T1C1.500
; #@! TA.AperFunction,NonPlated,NPTH,ComponentDrill
T2C1.700
; #@! TA.AperFunction,NonPlated,NPTH,ComponentDrill
T3C1.800
; #@! TA.AperFunction,NonPlated,NPTH,ComponentDrill
T4C4.000
%
G90
G05
T1
X77.53Y-48.075
X77.53Y-52.925
T2
X83.101Y-239.04
X85.58Y-74.28
X85.72Y-102.8
X90.68Y-164.46
X90.68Y-174.62
X90.88Y-131.06
X90.88Y-141.22
X91.801Y-206.44
X91.899Y-233.96
X95.74Y-74.28
X95.88Y-102.8
X100.599Y-201.36
X103.601Y-227.24
X109.58Y-102.88
X109.58Y-126.68
X109.58Y-150.48
X109.58Y-174.28
X112.399Y-222.16
X114.38Y-74.28
X119.74Y-102.88
X119.74Y-126.68
X119.74Y-150.48
X119.74Y-174.28
X124.301Y-215.24
X124.54Y-74.28
X133.099Y-210.16
X133.18Y-174.28
X133.38Y-102.88
X133.38Y-126.68
X133.38Y-150.68
X142.78Y-74.28
X143.34Y-174.28
X143.54Y-102.88
X143.54Y-126.68
X143.54Y-150.68
X152.94Y-74.28
X157.18Y-100.68
X157.18Y-124.48
X157.18Y-148.28
X157.18Y-172.08
X157.18Y-195.88
X167.34Y-100.68
X167.34Y-124.48
X167.34Y-148.28
X167.34Y-172.08
X167.34Y-195.88
X171.38Y-74.28
X180.78Y-121.88
X180.98Y-98.08
X180.98Y-145.88
X180.98Y-169.48
X180.98Y-193.48
X181.54Y-74.28
X190.94Y-121.88
X191.14Y-98.08
X191.14Y-145.88
X191.14Y-169.48
X191.14Y-193.48
X199.98Y-74.28
X204.78Y-100.68
X204.78Y-124.48
X204.78Y-148.28
X204.78Y-172.08
X204.78Y-195.88
X210.14Y-74.28
X214.94Y-100.68
X214.94Y-124.48
X214.94Y-148.28
X214.94Y-172.08
X214.94Y-195.88
X228.58Y-74.28
X228.58Y-105.28
X228.58Y-129.28
X228.58Y-153.08
X228.58Y-176.88
X228.58Y-200.68
X238.74Y-74.28
X238.74Y-105.28
X238.74Y-129.28
X238.74Y-153.08
X238.74Y-176.88
X238.74Y-200.68
X252.38Y-200.68
X256.93Y-78.005
X256.93Y-101.805
X256.99Y-125.685
X256.99Y-149.485
X257.12Y-74.28
X262.54Y-200.68
X267.09Y-78.005
X267.09Y-101.805
X267.15Y-125.685
X267.15Y-149.485
X267.28Y-74.28
T3
X74.5Y-47.775
X74.5Y-53.225
T4
X87.5Y-236.5
X90.66Y-74.28
X90.68Y-169.54
X90.8Y-102.8
X90.88Y-136.14
X96.2Y-203.9
X108.0Y-224.7
X114.66Y-102.88
X114.66Y-126.68
X114.66Y-150.48
X114.66Y-174.28
X119.46Y-74.28
X128.7Y-212.7
X138.26Y-174.28
X138.46Y-102.88
X138.46Y-126.68
X138.46Y-150.68
X147.86Y-74.28
X162.26Y-100.68
X162.26Y-124.48
X162.26Y-148.28
X162.26Y-172.08
X162.26Y-195.88
X176.46Y-74.28
X185.86Y-121.88
X186.06Y-98.08
X186.06Y-145.88
X186.06Y-169.48
X186.06Y-193.48
X205.06Y-74.28
X209.86Y-100.68
X209.86Y-124.48
X209.86Y-148.28
X209.86Y-172.08
X209.86Y-195.88
X233.66Y-74.28
X233.66Y-105.28
X233.66Y-129.28
X233.66Y-153.08
X233.66Y-176.88
X233.66Y-200.68
X257.46Y-200.68
X262.01Y-78.005
X262.01Y-101.805
X262.07Y-125.685
X262.07Y-149.485
X262.2Y-74.28
T0
M30
