%TF.GenerationSoftware,KiCad,Pcbnew,6.0.9-8da3e8f707~116~ubuntu20.04.1*%
%TF.CreationDate,2022-11-04T12:27:43+01:00*%
%TF.ProjectId,98keys-right,39386b65-7973-42d7-9269-6768742e6b69,rev?*%
%TF.SameCoordinates,Original*%
%TF.FileFunction,Drillmap*%
%TF.FilePolarity,Positive*%
%FSLAX45Y45*%
G04 Gerber Fmt 4.5, Leading zero omitted, Abs format (unit mm)*
G04 Created by KiCad (PCBNEW 6.0.9-8da3e8f707~116~ubuntu20.04.1) date 2022-11-04 12:27:43*
%MOMM*%
%LPD*%
G01*
G04 APERTURE LIST*
%ADD10C,0.100000*%
%ADD11C,0.200000*%
%ADD12C,0.040000*%
%ADD13C,0.070000*%
%ADD14C,0.075000*%
%ADD15C,0.080000*%
%ADD16C,0.102000*%
%ADD17C,0.110000*%
%ADD18C,0.150000*%
%ADD19C,0.430000*%
G04 APERTURE END LIST*
D10*
X6600000Y-2300000D02*
X29100000Y-2300000D01*
X29100000Y-2300000D02*
X29100000Y-25400000D01*
X29100000Y-25400000D02*
X6600000Y-25400000D01*
X6600000Y-25400000D02*
X6600000Y-2300000D01*
D11*
D12*
X7580000Y-6780000D02*
X7620000Y-6820000D01*
X7620000Y-6780000D02*
X7580000Y-6820000D01*
X8276080Y-14170000D02*
X8316080Y-14210000D01*
X8316080Y-14170000D02*
X8276080Y-14210000D01*
X8530000Y-15830000D02*
X8570000Y-15870000D01*
X8570000Y-15830000D02*
X8530000Y-15870000D01*
X8541720Y-5292000D02*
X8581720Y-5332000D01*
X8581720Y-5292000D02*
X8541720Y-5332000D01*
X9388630Y-7798910D02*
X9428630Y-7838910D01*
X9428630Y-7798910D02*
X9388630Y-7838910D01*
X10421500Y-6609410D02*
X10461500Y-6649410D01*
X10461500Y-6609410D02*
X10421500Y-6649410D01*
X10591330Y-12544450D02*
X10631330Y-12584450D01*
X10631330Y-12544450D02*
X10591330Y-12584450D01*
X10888390Y-8332510D02*
X10928390Y-8372510D01*
X10928390Y-8332510D02*
X10888390Y-8372510D01*
X10910900Y-7004980D02*
X10950900Y-7044980D01*
X10950900Y-7004980D02*
X10910900Y-7044980D01*
X10930000Y-9130000D02*
X10970000Y-9170000D01*
X10970000Y-9130000D02*
X10930000Y-9170000D01*
X11038500Y-3193000D02*
X11078500Y-3233000D01*
X11078500Y-3193000D02*
X11038500Y-3233000D01*
X11180000Y-6530000D02*
X11220000Y-6570000D01*
X11220000Y-6530000D02*
X11180000Y-6570000D01*
X11731120Y-4685110D02*
X11771120Y-4725110D01*
X11771120Y-4685110D02*
X11731120Y-4725110D01*
X12014350Y-10026550D02*
X12054350Y-10066550D01*
X12054350Y-10026550D02*
X12014350Y-10066550D01*
X12380000Y-8230000D02*
X12420000Y-8270000D01*
X12420000Y-8230000D02*
X12380000Y-8270000D01*
X12431510Y-10800200D02*
X12471510Y-10840200D01*
X12471510Y-10800200D02*
X12431510Y-10840200D01*
X12530000Y-6280000D02*
X12570000Y-6320000D01*
X12570000Y-6280000D02*
X12530000Y-6320000D01*
X12735450Y-8050000D02*
X12775450Y-8090000D01*
X12775450Y-8050000D02*
X12735450Y-8090000D01*
X12780000Y-5230000D02*
X12820000Y-5270000D01*
X12820000Y-5230000D02*
X12780000Y-5270000D01*
X13056900Y-6584980D02*
X13096900Y-6624980D01*
X13096900Y-6584980D02*
X13056900Y-6624980D01*
X13106080Y-6140240D02*
X13146080Y-6180240D01*
X13146080Y-6140240D02*
X13106080Y-6180240D01*
X13297780Y-7253380D02*
X13337780Y-7293380D01*
X13337780Y-7253380D02*
X13297780Y-7293380D01*
X13703030Y-7348890D02*
X13743030Y-7388890D01*
X13743030Y-7348890D02*
X13703030Y-7388890D01*
X16130000Y-7530000D02*
X16170000Y-7570000D01*
X16170000Y-7530000D02*
X16130000Y-7570000D01*
D13*
X8035000Y-6853000D02*
G75*
G03*
X8035000Y-6853000I-35000J0D01*
G01*
X8035000Y-7361000D02*
G75*
G03*
X8035000Y-7361000I-35000J0D01*
G01*
X8035000Y-7742000D02*
G75*
G03*
X8035000Y-7742000I-35000J0D01*
G01*
X8035000Y-8250000D02*
G75*
G03*
X8035000Y-8250000I-35000J0D01*
G01*
X8803000Y-2746000D02*
G75*
G03*
X8803000Y-2746000I-35000J0D01*
G01*
X8803000Y-3254000D02*
G75*
G03*
X8803000Y-3254000I-35000J0D01*
G01*
X9819000Y-2746000D02*
G75*
G03*
X9819000Y-2746000I-35000J0D01*
G01*
X9819000Y-3254000D02*
G75*
G03*
X9819000Y-3254000I-35000J0D01*
G01*
X10835000Y-2746000D02*
G75*
G03*
X10835000Y-2746000I-35000J0D01*
G01*
X10835000Y-3254000D02*
G75*
G03*
X10835000Y-3254000I-35000J0D01*
G01*
X11851000Y-2746000D02*
G75*
G03*
X11851000Y-2746000I-35000J0D01*
G01*
X11851000Y-3254000D02*
G75*
G03*
X11851000Y-3254000I-35000J0D01*
G01*
D14*
X8260000Y-2835500D02*
X8260000Y-2910500D01*
X8222500Y-2873000D02*
X8297500Y-2873000D01*
X8260000Y-3089500D02*
X8260000Y-3164500D01*
X8222500Y-3127000D02*
X8297500Y-3127000D01*
X9276000Y-2835500D02*
X9276000Y-2910500D01*
X9238500Y-2873000D02*
X9313500Y-2873000D01*
X9276000Y-3089500D02*
X9276000Y-3164500D01*
X9238500Y-3127000D02*
X9313500Y-3127000D01*
X10292000Y-2835500D02*
X10292000Y-2910500D01*
X10254500Y-2873000D02*
X10329500Y-2873000D01*
X10292000Y-3089500D02*
X10292000Y-3164500D01*
X10254500Y-3127000D02*
X10329500Y-3127000D01*
X11308000Y-2835500D02*
X11308000Y-2910500D01*
X11270500Y-2873000D02*
X11345500Y-2873000D01*
X11308000Y-3089500D02*
X11308000Y-3164500D01*
X11270500Y-3127000D02*
X11345500Y-3127000D01*
D15*
X7887374Y-22948744D02*
X7887374Y-22892175D01*
X7830805Y-22892175D01*
X7830805Y-22948744D01*
X7887374Y-22948744D01*
X8547286Y-22567744D02*
X8547286Y-22511175D01*
X8490717Y-22511175D01*
X8490717Y-22567744D01*
X8547286Y-22567744D01*
X8688285Y-8528245D02*
X8688285Y-8471676D01*
X8631716Y-8471676D01*
X8631716Y-8528245D01*
X8688285Y-8528245D01*
X8708285Y-11388244D02*
X8708285Y-11331675D01*
X8651716Y-11331675D01*
X8651716Y-11388244D01*
X8708285Y-11388244D01*
X8728285Y-15188244D02*
X8728285Y-15131675D01*
X8671716Y-15131675D01*
X8671716Y-15188244D01*
X8728285Y-15188244D01*
X8728285Y-18528245D02*
X8728285Y-18471676D01*
X8671716Y-18471676D01*
X8671716Y-18528245D01*
X8728285Y-18528245D01*
X9450285Y-8528245D02*
X9450285Y-8471676D01*
X9393716Y-8471676D01*
X9393716Y-8528245D01*
X9450285Y-8528245D01*
X9470285Y-11388244D02*
X9470285Y-11331675D01*
X9413716Y-11331675D01*
X9413716Y-11388244D01*
X9470285Y-11388244D01*
X9490285Y-15188244D02*
X9490285Y-15131675D01*
X9433716Y-15131675D01*
X9433716Y-15188244D01*
X9490285Y-15188244D01*
X9490285Y-18528245D02*
X9490285Y-18471676D01*
X9433716Y-18471676D01*
X9433716Y-18528245D01*
X9490285Y-18528245D01*
X9848375Y-21559245D02*
X9848375Y-21502676D01*
X9791806Y-21502676D01*
X9791806Y-21559245D01*
X9848375Y-21559245D01*
X10508286Y-21178245D02*
X10508286Y-21121676D01*
X10451717Y-21121676D01*
X10451717Y-21178245D01*
X10508286Y-21178245D01*
X11008375Y-23639244D02*
X11008375Y-23582675D01*
X10951806Y-23582675D01*
X10951806Y-23639244D01*
X11008375Y-23639244D01*
X11108285Y-16168244D02*
X11108285Y-16111675D01*
X11051716Y-16111675D01*
X11051716Y-16168244D01*
X11108285Y-16168244D01*
X11108285Y-18528245D02*
X11108285Y-18471676D01*
X11051716Y-18471676D01*
X11051716Y-18528245D01*
X11108285Y-18528245D01*
X11128285Y-11408244D02*
X11128285Y-11351675D01*
X11071716Y-11351675D01*
X11071716Y-11408244D01*
X11128285Y-11408244D01*
X11128285Y-13788244D02*
X11128285Y-13731675D01*
X11071716Y-13731675D01*
X11071716Y-13788244D01*
X11128285Y-13788244D01*
X11588284Y-8548245D02*
X11588284Y-8491676D01*
X11531715Y-8491676D01*
X11531715Y-8548245D01*
X11588284Y-8548245D01*
X11668286Y-23258244D02*
X11668286Y-23201675D01*
X11611717Y-23201675D01*
X11611717Y-23258244D01*
X11668286Y-23258244D01*
X11870284Y-16168244D02*
X11870284Y-16111675D01*
X11813715Y-16111675D01*
X11813715Y-16168244D01*
X11870284Y-16168244D01*
X11870284Y-18528245D02*
X11870284Y-18471676D01*
X11813715Y-18471676D01*
X11813715Y-18528245D01*
X11870284Y-18528245D01*
X11890284Y-11408244D02*
X11890284Y-11351675D01*
X11833715Y-11351675D01*
X11833715Y-11408244D01*
X11890284Y-11408244D01*
X11890284Y-13788244D02*
X11890284Y-13731675D01*
X11833715Y-13731675D01*
X11833715Y-13788244D01*
X11890284Y-13788244D01*
X12047284Y-20567745D02*
X12047284Y-20511176D01*
X11990715Y-20511176D01*
X11990715Y-20567745D01*
X12047284Y-20567745D01*
X12350284Y-8548245D02*
X12350284Y-8491676D01*
X12293715Y-8491676D01*
X12293715Y-8548245D01*
X12350284Y-8548245D01*
X12707196Y-20186745D02*
X12707196Y-20130176D01*
X12650627Y-20130176D01*
X12650627Y-20186745D01*
X12707196Y-20186745D01*
X13448284Y-18528245D02*
X13448284Y-18471676D01*
X13391715Y-18471676D01*
X13391715Y-18528245D01*
X13448284Y-18528245D01*
X13488284Y-11388244D02*
X13488284Y-11331675D01*
X13431715Y-11331675D01*
X13431715Y-11388244D01*
X13488284Y-11388244D01*
X13488284Y-13788244D02*
X13488284Y-13731675D01*
X13431715Y-13731675D01*
X13431715Y-13788244D01*
X13488284Y-13788244D01*
X13488284Y-16168244D02*
X13488284Y-16111675D01*
X13431715Y-16111675D01*
X13431715Y-16168244D01*
X13488284Y-16168244D01*
X14210284Y-18528245D02*
X14210284Y-18471676D01*
X14153715Y-18471676D01*
X14153715Y-18528245D01*
X14210284Y-18528245D01*
X14250284Y-11388244D02*
X14250284Y-11331675D01*
X14193715Y-11331675D01*
X14193715Y-11388244D01*
X14250284Y-11388244D01*
X14250284Y-13788244D02*
X14250284Y-13731675D01*
X14193715Y-13731675D01*
X14193715Y-13788244D01*
X14250284Y-13788244D01*
X14250284Y-16168244D02*
X14250284Y-16111675D01*
X14193715Y-16111675D01*
X14193715Y-16168244D01*
X14250284Y-16168244D01*
X14408284Y-8548245D02*
X14408284Y-8491676D01*
X14351715Y-8491676D01*
X14351715Y-8548245D01*
X14408284Y-8548245D01*
X15170284Y-8548245D02*
X15170284Y-8491676D01*
X15113715Y-8491676D01*
X15113715Y-8548245D01*
X15170284Y-8548245D01*
X15848284Y-13548244D02*
X15848284Y-13491675D01*
X15791715Y-13491675D01*
X15791715Y-13548244D01*
X15848284Y-13548244D01*
X15848284Y-18308245D02*
X15848284Y-18251676D01*
X15791715Y-18251676D01*
X15791715Y-18308245D01*
X15848284Y-18308245D01*
X15868284Y-11188244D02*
X15868284Y-11131676D01*
X15811715Y-11131676D01*
X15811715Y-11188244D01*
X15868284Y-11188244D01*
X15868284Y-15948244D02*
X15868284Y-15891675D01*
X15811715Y-15891675D01*
X15811715Y-15948244D01*
X15868284Y-15948244D01*
X15888284Y-20688245D02*
X15888284Y-20631676D01*
X15831715Y-20631676D01*
X15831715Y-20688245D01*
X15888284Y-20688245D01*
X16610284Y-13548244D02*
X16610284Y-13491675D01*
X16553715Y-13491675D01*
X16553715Y-13548244D01*
X16610284Y-13548244D01*
X16610284Y-18308245D02*
X16610284Y-18251676D01*
X16553715Y-18251676D01*
X16553715Y-18308245D01*
X16610284Y-18308245D01*
X16630284Y-11188244D02*
X16630284Y-11131676D01*
X16573715Y-11131676D01*
X16573715Y-11188244D01*
X16630284Y-11188244D01*
X16630284Y-15948244D02*
X16630284Y-15891675D01*
X16573715Y-15891675D01*
X16573715Y-15948244D01*
X16630284Y-15948244D01*
X16650284Y-20688245D02*
X16650284Y-20631676D01*
X16593715Y-20631676D01*
X16593715Y-20688245D01*
X16650284Y-20688245D01*
X17308285Y-8548245D02*
X17308285Y-8491676D01*
X17251716Y-8491676D01*
X17251716Y-8548245D01*
X17308285Y-8548245D01*
X18070285Y-8548245D02*
X18070285Y-8491676D01*
X18013716Y-8491676D01*
X18013716Y-8548245D01*
X18070285Y-8548245D01*
X18208285Y-20468245D02*
X18208285Y-20411676D01*
X18151716Y-20411676D01*
X18151716Y-20468245D01*
X18208285Y-20468245D01*
X18228285Y-13308244D02*
X18228285Y-13251675D01*
X18171716Y-13251675D01*
X18171716Y-13308244D01*
X18228285Y-13308244D01*
X18228285Y-15688244D02*
X18228285Y-15631675D01*
X18171716Y-15631675D01*
X18171716Y-15688244D01*
X18228285Y-15688244D01*
X18248285Y-18048245D02*
X18248285Y-17991676D01*
X18191716Y-17991676D01*
X18191716Y-18048245D01*
X18248285Y-18048245D01*
X18268285Y-10908245D02*
X18268285Y-10851676D01*
X18211716Y-10851676D01*
X18211716Y-10908245D01*
X18268285Y-10908245D01*
X18970285Y-20468245D02*
X18970285Y-20411676D01*
X18913716Y-20411676D01*
X18913716Y-20468245D01*
X18970285Y-20468245D01*
X18990285Y-13308244D02*
X18990285Y-13251675D01*
X18933716Y-13251675D01*
X18933716Y-13308244D01*
X18990285Y-13308244D01*
X18990285Y-15688244D02*
X18990285Y-15631675D01*
X18933716Y-15631675D01*
X18933716Y-15688244D01*
X18990285Y-15688244D01*
X19010285Y-18048245D02*
X19010285Y-17991676D01*
X18953716Y-17991676D01*
X18953716Y-18048245D01*
X19010285Y-18048245D01*
X19030285Y-10908245D02*
X19030285Y-10851676D01*
X18973716Y-10851676D01*
X18973716Y-10908245D01*
X19030285Y-10908245D01*
X20126285Y-8528245D02*
X20126285Y-8471676D01*
X20069716Y-8471676D01*
X20069716Y-8528245D01*
X20126285Y-8528245D01*
X20606285Y-18308245D02*
X20606285Y-18251676D01*
X20549716Y-18251676D01*
X20549716Y-18308245D01*
X20606285Y-18308245D01*
X20628285Y-11188244D02*
X20628285Y-11131676D01*
X20571716Y-11131676D01*
X20571716Y-11188244D01*
X20628285Y-11188244D01*
X20628285Y-13548244D02*
X20628285Y-13491675D01*
X20571716Y-13491675D01*
X20571716Y-13548244D01*
X20628285Y-13548244D01*
X20628285Y-15948244D02*
X20628285Y-15891675D01*
X20571716Y-15891675D01*
X20571716Y-15948244D01*
X20628285Y-15948244D01*
X20628285Y-20688245D02*
X20628285Y-20631676D01*
X20571716Y-20631676D01*
X20571716Y-20688245D01*
X20628285Y-20688245D01*
X20888285Y-8528245D02*
X20888285Y-8471676D01*
X20831716Y-8471676D01*
X20831716Y-8528245D01*
X20888285Y-8528245D01*
X21368285Y-18308245D02*
X21368285Y-18251676D01*
X21311716Y-18251676D01*
X21311716Y-18308245D01*
X21368285Y-18308245D01*
X21390285Y-11188244D02*
X21390285Y-11131676D01*
X21333716Y-11131676D01*
X21333716Y-11188244D01*
X21390285Y-11188244D01*
X21390285Y-13548244D02*
X21390285Y-13491675D01*
X21333716Y-13491675D01*
X21333716Y-13548244D01*
X21390285Y-13548244D01*
X21390285Y-15948244D02*
X21390285Y-15891675D01*
X21333716Y-15891675D01*
X21333716Y-15948244D01*
X21390285Y-15948244D01*
X21390285Y-20688245D02*
X21390285Y-20631676D01*
X21333716Y-20631676D01*
X21333716Y-20688245D01*
X21390285Y-20688245D01*
X22966284Y-21168245D02*
X22966284Y-21111676D01*
X22909715Y-21111676D01*
X22909715Y-21168245D01*
X22966284Y-21168245D01*
X22968284Y-16428244D02*
X22968284Y-16371675D01*
X22911715Y-16371675D01*
X22911715Y-16428244D01*
X22968284Y-16428244D01*
X22986284Y-8548245D02*
X22986284Y-8491676D01*
X22929715Y-8491676D01*
X22929715Y-8548245D01*
X22986284Y-8548245D01*
X22988284Y-11648244D02*
X22988284Y-11591675D01*
X22931715Y-11591675D01*
X22931715Y-11648244D01*
X22988284Y-11648244D01*
X22988284Y-14048244D02*
X22988284Y-13991675D01*
X22931715Y-13991675D01*
X22931715Y-14048244D01*
X22988284Y-14048244D01*
X22988284Y-18788245D02*
X22988284Y-18731676D01*
X22931715Y-18731676D01*
X22931715Y-18788245D01*
X22988284Y-18788245D01*
X23728284Y-21168245D02*
X23728284Y-21111676D01*
X23671715Y-21111676D01*
X23671715Y-21168245D01*
X23728284Y-21168245D01*
X23730284Y-16428244D02*
X23730284Y-16371675D01*
X23673715Y-16371675D01*
X23673715Y-16428244D01*
X23730284Y-16428244D01*
X23748284Y-8548245D02*
X23748284Y-8491676D01*
X23691715Y-8491676D01*
X23691715Y-8548245D01*
X23748284Y-8548245D01*
X23750284Y-11648244D02*
X23750284Y-11591675D01*
X23693715Y-11591675D01*
X23693715Y-11648244D01*
X23750284Y-11648244D01*
X23750284Y-14048244D02*
X23750284Y-13991675D01*
X23693715Y-13991675D01*
X23693715Y-14048244D01*
X23750284Y-14048244D01*
X23750284Y-18788245D02*
X23750284Y-18731676D01*
X23693715Y-18731676D01*
X23693715Y-18788245D01*
X23750284Y-18788245D01*
X25408284Y-21188245D02*
X25408284Y-21131676D01*
X25351715Y-21131676D01*
X25351715Y-21188245D01*
X25408284Y-21188245D01*
X25866284Y-8548245D02*
X25866284Y-8491676D01*
X25809715Y-8491676D01*
X25809715Y-8548245D01*
X25866284Y-8548245D01*
X25888284Y-11668244D02*
X25888284Y-11611675D01*
X25831715Y-11611675D01*
X25831715Y-11668244D01*
X25888284Y-11668244D01*
X25888284Y-14028244D02*
X25888284Y-13971675D01*
X25831715Y-13971675D01*
X25831715Y-14028244D01*
X25888284Y-14028244D01*
X25888284Y-16428244D02*
X25888284Y-16371675D01*
X25831715Y-16371675D01*
X25831715Y-16428244D01*
X25888284Y-16428244D01*
X25888284Y-18808245D02*
X25888284Y-18751676D01*
X25831715Y-18751676D01*
X25831715Y-18808245D01*
X25888284Y-18808245D01*
X26170284Y-21188245D02*
X26170284Y-21131676D01*
X26113715Y-21131676D01*
X26113715Y-21188245D01*
X26170284Y-21188245D01*
X26628284Y-8548245D02*
X26628284Y-8491676D01*
X26571715Y-8491676D01*
X26571715Y-8548245D01*
X26628284Y-8548245D01*
X26650284Y-11668244D02*
X26650284Y-11611675D01*
X26593715Y-11611675D01*
X26593715Y-11668244D01*
X26650284Y-11668244D01*
X26650284Y-14028244D02*
X26650284Y-13971675D01*
X26593715Y-13971675D01*
X26593715Y-14028244D01*
X26650284Y-14028244D01*
X26650284Y-16428244D02*
X26650284Y-16371675D01*
X26593715Y-16371675D01*
X26593715Y-16428244D01*
X26650284Y-16428244D01*
X26650284Y-18808245D02*
X26650284Y-18751676D01*
X26593715Y-18751676D01*
X26593715Y-18808245D01*
X26650284Y-18808245D01*
D10*
X7365000Y-7284000D02*
X7415000Y-7234000D01*
X7365000Y-7184000D01*
X7315000Y-7234000D01*
X7365000Y-7284000D01*
X7365000Y-7538000D02*
X7415000Y-7488000D01*
X7365000Y-7438000D01*
X7315000Y-7488000D01*
X7365000Y-7538000D01*
X7365000Y-7792000D02*
X7415000Y-7742000D01*
X7365000Y-7692000D01*
X7315000Y-7742000D01*
X7365000Y-7792000D01*
X7365000Y-8046000D02*
X7415000Y-7996000D01*
X7365000Y-7946000D01*
X7315000Y-7996000D01*
X7365000Y-8046000D01*
D16*
X7386000Y-4110000D02*
X7488000Y-4212000D01*
X7488000Y-4110000D02*
X7386000Y-4212000D01*
X7488000Y-4161000D02*
G75*
G03*
X7488000Y-4161000I-51000J0D01*
G01*
X7386000Y-5888000D02*
X7488000Y-5990000D01*
X7488000Y-5888000D02*
X7386000Y-5990000D01*
X7488000Y-5939000D02*
G75*
G03*
X7488000Y-5939000I-51000J0D01*
G01*
X7640000Y-4110000D02*
X7742000Y-4212000D01*
X7742000Y-4110000D02*
X7640000Y-4212000D01*
X7742000Y-4161000D02*
G75*
G03*
X7742000Y-4161000I-51000J0D01*
G01*
X7640000Y-5888000D02*
X7742000Y-5990000D01*
X7742000Y-5888000D02*
X7640000Y-5990000D01*
X7742000Y-5939000D02*
G75*
G03*
X7742000Y-5939000I-51000J0D01*
G01*
X7894000Y-4110000D02*
X7996000Y-4212000D01*
X7996000Y-4110000D02*
X7894000Y-4212000D01*
X7996000Y-4161000D02*
G75*
G03*
X7996000Y-4161000I-51000J0D01*
G01*
X7894000Y-5888000D02*
X7996000Y-5990000D01*
X7996000Y-5888000D02*
X7894000Y-5990000D01*
X7996000Y-5939000D02*
G75*
G03*
X7996000Y-5939000I-51000J0D01*
G01*
X8148000Y-4110000D02*
X8250000Y-4212000D01*
X8250000Y-4110000D02*
X8148000Y-4212000D01*
X8250000Y-4161000D02*
G75*
G03*
X8250000Y-4161000I-51000J0D01*
G01*
X8148000Y-5888000D02*
X8250000Y-5990000D01*
X8250000Y-5888000D02*
X8148000Y-5990000D01*
X8250000Y-5939000D02*
G75*
G03*
X8250000Y-5939000I-51000J0D01*
G01*
X8402000Y-4110000D02*
X8504000Y-4212000D01*
X8504000Y-4110000D02*
X8402000Y-4212000D01*
X8504000Y-4161000D02*
G75*
G03*
X8504000Y-4161000I-51000J0D01*
G01*
X8402000Y-5888000D02*
X8504000Y-5990000D01*
X8504000Y-5888000D02*
X8402000Y-5990000D01*
X8504000Y-5939000D02*
G75*
G03*
X8504000Y-5939000I-51000J0D01*
G01*
X8656000Y-4110000D02*
X8758000Y-4212000D01*
X8758000Y-4110000D02*
X8656000Y-4212000D01*
X8758000Y-4161000D02*
G75*
G03*
X8758000Y-4161000I-51000J0D01*
G01*
X8656000Y-5888000D02*
X8758000Y-5990000D01*
X8758000Y-5888000D02*
X8656000Y-5990000D01*
X8758000Y-5939000D02*
G75*
G03*
X8758000Y-5939000I-51000J0D01*
G01*
X8910000Y-4110000D02*
X9012000Y-4212000D01*
X9012000Y-4110000D02*
X8910000Y-4212000D01*
X9012000Y-4161000D02*
G75*
G03*
X9012000Y-4161000I-51000J0D01*
G01*
X8910000Y-5888000D02*
X9012000Y-5990000D01*
X9012000Y-5888000D02*
X8910000Y-5990000D01*
X9012000Y-5939000D02*
G75*
G03*
X9012000Y-5939000I-51000J0D01*
G01*
X9164000Y-4110000D02*
X9266000Y-4212000D01*
X9266000Y-4110000D02*
X9164000Y-4212000D01*
X9266000Y-4161000D02*
G75*
G03*
X9266000Y-4161000I-51000J0D01*
G01*
X9164000Y-5888000D02*
X9266000Y-5990000D01*
X9266000Y-5888000D02*
X9164000Y-5990000D01*
X9266000Y-5939000D02*
G75*
G03*
X9266000Y-5939000I-51000J0D01*
G01*
X9418000Y-4110000D02*
X9520000Y-4212000D01*
X9520000Y-4110000D02*
X9418000Y-4212000D01*
X9520000Y-4161000D02*
G75*
G03*
X9520000Y-4161000I-51000J0D01*
G01*
X9418000Y-5888000D02*
X9520000Y-5990000D01*
X9520000Y-5888000D02*
X9418000Y-5990000D01*
X9520000Y-5939000D02*
G75*
G03*
X9520000Y-5939000I-51000J0D01*
G01*
X9672000Y-4110000D02*
X9774000Y-4212000D01*
X9774000Y-4110000D02*
X9672000Y-4212000D01*
X9774000Y-4161000D02*
G75*
G03*
X9774000Y-4161000I-51000J0D01*
G01*
X9672000Y-5888000D02*
X9774000Y-5990000D01*
X9774000Y-5888000D02*
X9672000Y-5990000D01*
X9774000Y-5939000D02*
G75*
G03*
X9774000Y-5939000I-51000J0D01*
G01*
X9926000Y-4110000D02*
X10028000Y-4212000D01*
X10028000Y-4110000D02*
X9926000Y-4212000D01*
X10028000Y-4161000D02*
G75*
G03*
X10028000Y-4161000I-51000J0D01*
G01*
X9926000Y-5888000D02*
X10028000Y-5990000D01*
X10028000Y-5888000D02*
X9926000Y-5990000D01*
X10028000Y-5939000D02*
G75*
G03*
X10028000Y-5939000I-51000J0D01*
G01*
X10180000Y-4110000D02*
X10282000Y-4212000D01*
X10282000Y-4110000D02*
X10180000Y-4212000D01*
X10282000Y-4161000D02*
G75*
G03*
X10282000Y-4161000I-51000J0D01*
G01*
X10180000Y-5888000D02*
X10282000Y-5990000D01*
X10282000Y-5888000D02*
X10180000Y-5990000D01*
X10282000Y-5939000D02*
G75*
G03*
X10282000Y-5939000I-51000J0D01*
G01*
X10434000Y-4110000D02*
X10536000Y-4212000D01*
X10536000Y-4110000D02*
X10434000Y-4212000D01*
X10536000Y-4161000D02*
G75*
G03*
X10536000Y-4161000I-51000J0D01*
G01*
X10434000Y-5888000D02*
X10536000Y-5990000D01*
X10536000Y-5888000D02*
X10434000Y-5990000D01*
X10536000Y-5939000D02*
G75*
G03*
X10536000Y-5939000I-51000J0D01*
G01*
X10688000Y-4110000D02*
X10790000Y-4212000D01*
X10790000Y-4110000D02*
X10688000Y-4212000D01*
X10790000Y-4161000D02*
G75*
G03*
X10790000Y-4161000I-51000J0D01*
G01*
X10688000Y-5888000D02*
X10790000Y-5990000D01*
X10790000Y-5888000D02*
X10688000Y-5990000D01*
X10790000Y-5939000D02*
G75*
G03*
X10790000Y-5939000I-51000J0D01*
G01*
X10942000Y-4110000D02*
X11044000Y-4212000D01*
X11044000Y-4110000D02*
X10942000Y-4212000D01*
X11044000Y-4161000D02*
G75*
G03*
X11044000Y-4161000I-51000J0D01*
G01*
X10942000Y-5888000D02*
X11044000Y-5990000D01*
X11044000Y-5888000D02*
X10942000Y-5990000D01*
X11044000Y-5939000D02*
G75*
G03*
X11044000Y-5939000I-51000J0D01*
G01*
X11196000Y-4110000D02*
X11298000Y-4212000D01*
X11298000Y-4110000D02*
X11196000Y-4212000D01*
X11298000Y-4161000D02*
G75*
G03*
X11298000Y-4161000I-51000J0D01*
G01*
X11196000Y-5888000D02*
X11298000Y-5990000D01*
X11298000Y-5888000D02*
X11196000Y-5990000D01*
X11298000Y-5939000D02*
G75*
G03*
X11298000Y-5939000I-51000J0D01*
G01*
X11450000Y-4110000D02*
X11552000Y-4212000D01*
X11552000Y-4110000D02*
X11450000Y-4212000D01*
X11552000Y-4161000D02*
G75*
G03*
X11552000Y-4161000I-51000J0D01*
G01*
X11450000Y-5888000D02*
X11552000Y-5990000D01*
X11552000Y-5888000D02*
X11450000Y-5990000D01*
X11552000Y-5939000D02*
G75*
G03*
X11552000Y-5939000I-51000J0D01*
G01*
X11704000Y-4110000D02*
X11806000Y-4212000D01*
X11806000Y-4110000D02*
X11704000Y-4212000D01*
X11806000Y-4161000D02*
G75*
G03*
X11806000Y-4161000I-51000J0D01*
G01*
X11704000Y-5888000D02*
X11806000Y-5990000D01*
X11806000Y-5888000D02*
X11704000Y-5990000D01*
X11806000Y-5939000D02*
G75*
G03*
X11806000Y-5939000I-51000J0D01*
G01*
X11958000Y-4110000D02*
X12060000Y-4212000D01*
X12060000Y-4110000D02*
X11958000Y-4212000D01*
X12060000Y-4161000D02*
G75*
G03*
X12060000Y-4161000I-51000J0D01*
G01*
X11958000Y-5888000D02*
X12060000Y-5990000D01*
X12060000Y-5888000D02*
X11958000Y-5990000D01*
X12060000Y-5939000D02*
G75*
G03*
X12060000Y-5939000I-51000J0D01*
G01*
X12189000Y-4745000D02*
X12291000Y-4847000D01*
X12291000Y-4745000D02*
X12189000Y-4847000D01*
X12291000Y-4796000D02*
G75*
G03*
X12291000Y-4796000I-51000J0D01*
G01*
X12189000Y-4999000D02*
X12291000Y-5101000D01*
X12291000Y-4999000D02*
X12189000Y-5101000D01*
X12291000Y-5050000D02*
G75*
G03*
X12291000Y-5050000I-51000J0D01*
G01*
X12189000Y-5253000D02*
X12291000Y-5355000D01*
X12291000Y-5253000D02*
X12189000Y-5355000D01*
X12291000Y-5304000D02*
G75*
G03*
X12291000Y-5304000I-51000J0D01*
G01*
X12212000Y-4110000D02*
X12314000Y-4212000D01*
X12314000Y-4110000D02*
X12212000Y-4212000D01*
X12314000Y-4161000D02*
G75*
G03*
X12314000Y-4161000I-51000J0D01*
G01*
X12212000Y-5888000D02*
X12314000Y-5990000D01*
X12314000Y-5888000D02*
X12212000Y-5990000D01*
X12314000Y-5939000D02*
G75*
G03*
X12314000Y-5939000I-51000J0D01*
G01*
D17*
X13390000Y-4670630D02*
X13500000Y-4780630D01*
X13500000Y-4670630D02*
X13390000Y-4780630D01*
X13445000Y-4670630D02*
X13445000Y-4780630D01*
X13390000Y-4725630D02*
X13500000Y-4725630D01*
X13390000Y-5170630D02*
X13500000Y-5280630D01*
X13500000Y-5170630D02*
X13390000Y-5280630D01*
X13445000Y-5170630D02*
X13445000Y-5280630D01*
X13390000Y-5225630D02*
X13500000Y-5225630D01*
X13890000Y-4670630D02*
X14000000Y-4780630D01*
X14000000Y-4670630D02*
X13890000Y-4780630D01*
X13945000Y-4670630D02*
X13945000Y-4780630D01*
X13890000Y-4725630D02*
X14000000Y-4725630D01*
X13890000Y-5170630D02*
X14000000Y-5280630D01*
X14000000Y-5170630D02*
X13890000Y-5280630D01*
X13945000Y-5170630D02*
X13945000Y-5280630D01*
X13890000Y-5225630D02*
X14000000Y-5225630D01*
D18*
X8218044Y-23545530D02*
X8368044Y-23695530D01*
X8368044Y-23545530D02*
X8218044Y-23695530D01*
X8346077Y-23673564D02*
X8346077Y-23567497D01*
X8240010Y-23567497D01*
X8240010Y-23673564D01*
X8346077Y-23673564D01*
X8485000Y-16624960D02*
X8635000Y-16774960D01*
X8635000Y-16624960D02*
X8485000Y-16774960D01*
X8613034Y-16752993D02*
X8613034Y-16646926D01*
X8506967Y-16646926D01*
X8506967Y-16752993D01*
X8613034Y-16752993D01*
X8505000Y-13284960D02*
X8655000Y-13434960D01*
X8655000Y-13284960D02*
X8505000Y-13434960D01*
X8633034Y-13412993D02*
X8633034Y-13306926D01*
X8526967Y-13306926D01*
X8526967Y-13412993D01*
X8633034Y-13412993D01*
X8610000Y-7098960D02*
X8760000Y-7248960D01*
X8760000Y-7098960D02*
X8610000Y-7248960D01*
X8738034Y-7226993D02*
X8738034Y-7120926D01*
X8631967Y-7120926D01*
X8631967Y-7226993D01*
X8738034Y-7226993D01*
X8624000Y-9950960D02*
X8774000Y-10100960D01*
X8774000Y-9950960D02*
X8624000Y-10100960D01*
X8752034Y-10078994D02*
X8752034Y-9972927D01*
X8645967Y-9972927D01*
X8645967Y-10078994D01*
X8752034Y-10078994D01*
X8640970Y-23008060D02*
X8790970Y-23158060D01*
X8790970Y-23008060D02*
X8640970Y-23158060D01*
X8769004Y-23136093D02*
X8769004Y-23030026D01*
X8662937Y-23030026D01*
X8662937Y-23136093D01*
X8769004Y-23136093D01*
X8739000Y-17259960D02*
X8889000Y-17409960D01*
X8889000Y-17259960D02*
X8739000Y-17409960D01*
X8867034Y-17387994D02*
X8867034Y-17281927D01*
X8760967Y-17281927D01*
X8760967Y-17387994D01*
X8867034Y-17387994D01*
X8759000Y-13919960D02*
X8909000Y-14069960D01*
X8909000Y-13919960D02*
X8759000Y-14069960D01*
X8887034Y-14047993D02*
X8887034Y-13941926D01*
X8780967Y-13941926D01*
X8780967Y-14047993D01*
X8887034Y-14047993D01*
X9088044Y-20285531D02*
X9238044Y-20435531D01*
X9238044Y-20285531D02*
X9088044Y-20435531D01*
X9216077Y-20413564D02*
X9216077Y-20307497D01*
X9110010Y-20307497D01*
X9110010Y-20413564D01*
X9216077Y-20413564D01*
X9245000Y-6844960D02*
X9395000Y-6994960D01*
X9395000Y-6844960D02*
X9245000Y-6994960D01*
X9373034Y-6972993D02*
X9373034Y-6866926D01*
X9266967Y-6866926D01*
X9266967Y-6972993D01*
X9373034Y-6972993D01*
X9259000Y-9696960D02*
X9409000Y-9846960D01*
X9409000Y-9696960D02*
X9259000Y-9846960D01*
X9387034Y-9824994D02*
X9387034Y-9718927D01*
X9280967Y-9718927D01*
X9280967Y-9824994D01*
X9387034Y-9824994D01*
X9510970Y-19748060D02*
X9660970Y-19898060D01*
X9660970Y-19748060D02*
X9510970Y-19898060D01*
X9639004Y-19876094D02*
X9639004Y-19770027D01*
X9532937Y-19770027D01*
X9532937Y-19876094D01*
X9639004Y-19876094D01*
X10268044Y-22365531D02*
X10418044Y-22515530D01*
X10418044Y-22365531D02*
X10268044Y-22515530D01*
X10396077Y-22493564D02*
X10396077Y-22387497D01*
X10290010Y-22387497D01*
X10290010Y-22493564D01*
X10396077Y-22493564D01*
X10690970Y-21828060D02*
X10840970Y-21978060D01*
X10840970Y-21828060D02*
X10690970Y-21978060D01*
X10819004Y-21956094D02*
X10819004Y-21850027D01*
X10712937Y-21850027D01*
X10712937Y-21956094D01*
X10819004Y-21956094D01*
X11010000Y-9958960D02*
X11160000Y-10108960D01*
X11160000Y-9958960D02*
X11010000Y-10108960D01*
X11138034Y-10086994D02*
X11138034Y-9980927D01*
X11031967Y-9980927D01*
X11031967Y-10086994D01*
X11138034Y-10086994D01*
X11010000Y-12338960D02*
X11160000Y-12488960D01*
X11160000Y-12338960D02*
X11010000Y-12488960D01*
X11138034Y-12466993D02*
X11138034Y-12360926D01*
X11031967Y-12360926D01*
X11031967Y-12466993D01*
X11138034Y-12466993D01*
X11010000Y-14718960D02*
X11160000Y-14868960D01*
X11160000Y-14718960D02*
X11010000Y-14868960D01*
X11138034Y-14846993D02*
X11138034Y-14740926D01*
X11031967Y-14740926D01*
X11031967Y-14846993D01*
X11138034Y-14846993D01*
X11010000Y-17098960D02*
X11160000Y-17248960D01*
X11160000Y-17098960D02*
X11010000Y-17248960D01*
X11138034Y-17226994D02*
X11138034Y-17120927D01*
X11031967Y-17120927D01*
X11031967Y-17226994D01*
X11138034Y-17226994D01*
X11490000Y-7098960D02*
X11640000Y-7248960D01*
X11640000Y-7098960D02*
X11490000Y-7248960D01*
X11618033Y-7226993D02*
X11618033Y-7120926D01*
X11511966Y-7120926D01*
X11511966Y-7226993D01*
X11618033Y-7226993D01*
X11645000Y-9704960D02*
X11795000Y-9854960D01*
X11795000Y-9704960D02*
X11645000Y-9854960D01*
X11773033Y-9832994D02*
X11773033Y-9726927D01*
X11666966Y-9726927D01*
X11666966Y-9832994D01*
X11773033Y-9832994D01*
X11645000Y-12084960D02*
X11795000Y-12234960D01*
X11795000Y-12084960D02*
X11645000Y-12234960D01*
X11773033Y-12212993D02*
X11773033Y-12106926D01*
X11666966Y-12106926D01*
X11666966Y-12212993D01*
X11773033Y-12212993D01*
X11645000Y-14464960D02*
X11795000Y-14614960D01*
X11795000Y-14464960D02*
X11645000Y-14614960D01*
X11773033Y-14592993D02*
X11773033Y-14486926D01*
X11666966Y-14486926D01*
X11666966Y-14592993D01*
X11773033Y-14592993D01*
X11645000Y-16844960D02*
X11795000Y-16994960D01*
X11795000Y-16844960D02*
X11645000Y-16994960D01*
X11773033Y-16972994D02*
X11773033Y-16866927D01*
X11666966Y-16866927D01*
X11666966Y-16972994D01*
X11773033Y-16972994D01*
X12125000Y-6844960D02*
X12275000Y-6994960D01*
X12275000Y-6844960D02*
X12125000Y-6994960D01*
X12253033Y-6972993D02*
X12253033Y-6866926D01*
X12146966Y-6866926D01*
X12146966Y-6972993D01*
X12253033Y-6972993D01*
X12338044Y-21165531D02*
X12488044Y-21315531D01*
X12488044Y-21165531D02*
X12338044Y-21315531D01*
X12466077Y-21293564D02*
X12466077Y-21187497D01*
X12360010Y-21187497D01*
X12360010Y-21293564D01*
X12466077Y-21293564D01*
X12760970Y-20628060D02*
X12910970Y-20778060D01*
X12910970Y-20628060D02*
X12760970Y-20778060D01*
X12889003Y-20756094D02*
X12889003Y-20650027D01*
X12782936Y-20650027D01*
X12782936Y-20756094D01*
X12889003Y-20756094D01*
X13370000Y-17098960D02*
X13520000Y-17248960D01*
X13520000Y-17098960D02*
X13370000Y-17248960D01*
X13498033Y-17226994D02*
X13498033Y-17120927D01*
X13391966Y-17120927D01*
X13391966Y-17226994D01*
X13498033Y-17226994D01*
X13390000Y-9958960D02*
X13540000Y-10108960D01*
X13540000Y-9958960D02*
X13390000Y-10108960D01*
X13518033Y-10086994D02*
X13518033Y-9980927D01*
X13411966Y-9980927D01*
X13411966Y-10086994D01*
X13518033Y-10086994D01*
X13390000Y-12338960D02*
X13540000Y-12488960D01*
X13540000Y-12338960D02*
X13390000Y-12488960D01*
X13518033Y-12466993D02*
X13518033Y-12360926D01*
X13411966Y-12360926D01*
X13411966Y-12466993D01*
X13518033Y-12466993D01*
X13390000Y-14738960D02*
X13540000Y-14888960D01*
X13540000Y-14738960D02*
X13390000Y-14888960D01*
X13518033Y-14866993D02*
X13518033Y-14760926D01*
X13411966Y-14760926D01*
X13411966Y-14866993D01*
X13518033Y-14866993D01*
X14005000Y-16844960D02*
X14155000Y-16994960D01*
X14155000Y-16844960D02*
X14005000Y-16994960D01*
X14133033Y-16972994D02*
X14133033Y-16866927D01*
X14026966Y-16866927D01*
X14026966Y-16972994D01*
X14133033Y-16972994D01*
X14025000Y-9704960D02*
X14175000Y-9854960D01*
X14175000Y-9704960D02*
X14025000Y-9854960D01*
X14153033Y-9832994D02*
X14153033Y-9726927D01*
X14046966Y-9726927D01*
X14046966Y-9832994D01*
X14153033Y-9832994D01*
X14025000Y-12084960D02*
X14175000Y-12234960D01*
X14175000Y-12084960D02*
X14025000Y-12234960D01*
X14153033Y-12212993D02*
X14153033Y-12106926D01*
X14046966Y-12106926D01*
X14046966Y-12212993D01*
X14153033Y-12212993D01*
X14025000Y-14484960D02*
X14175000Y-14634960D01*
X14175000Y-14484960D02*
X14025000Y-14634960D01*
X14153033Y-14612993D02*
X14153033Y-14506926D01*
X14046966Y-14506926D01*
X14046966Y-14612993D01*
X14153033Y-14612993D01*
X14330000Y-7098960D02*
X14480000Y-7248960D01*
X14480000Y-7098960D02*
X14330000Y-7248960D01*
X14458033Y-7226993D02*
X14458033Y-7120926D01*
X14351966Y-7120926D01*
X14351966Y-7226993D01*
X14458033Y-7226993D01*
X14965000Y-6844960D02*
X15115000Y-6994960D01*
X15115000Y-6844960D02*
X14965000Y-6994960D01*
X15093033Y-6972993D02*
X15093033Y-6866926D01*
X14986966Y-6866926D01*
X14986966Y-6972993D01*
X15093033Y-6972993D01*
X15770000Y-9738960D02*
X15920000Y-9888960D01*
X15920000Y-9738960D02*
X15770000Y-9888960D01*
X15898033Y-9866994D02*
X15898033Y-9760927D01*
X15791966Y-9760927D01*
X15791966Y-9866994D01*
X15898033Y-9866994D01*
X15770000Y-12118960D02*
X15920000Y-12268960D01*
X15920000Y-12118960D02*
X15770000Y-12268960D01*
X15898033Y-12246993D02*
X15898033Y-12140926D01*
X15791966Y-12140926D01*
X15791966Y-12246993D01*
X15898033Y-12246993D01*
X15770000Y-14498960D02*
X15920000Y-14648960D01*
X15920000Y-14498960D02*
X15770000Y-14648960D01*
X15898033Y-14626993D02*
X15898033Y-14520926D01*
X15791966Y-14520926D01*
X15791966Y-14626993D01*
X15898033Y-14626993D01*
X15770000Y-16878960D02*
X15920000Y-17028960D01*
X15920000Y-16878960D02*
X15770000Y-17028960D01*
X15898033Y-17006994D02*
X15898033Y-16900927D01*
X15791966Y-16900927D01*
X15791966Y-17006994D01*
X15898033Y-17006994D01*
X15770000Y-19258960D02*
X15920000Y-19408960D01*
X15920000Y-19258960D02*
X15770000Y-19408960D01*
X15898033Y-19386994D02*
X15898033Y-19280927D01*
X15791966Y-19280927D01*
X15791966Y-19386994D01*
X15898033Y-19386994D01*
X16405000Y-9484960D02*
X16555000Y-9634960D01*
X16555000Y-9484960D02*
X16405000Y-9634960D01*
X16533033Y-9612994D02*
X16533033Y-9506927D01*
X16426966Y-9506927D01*
X16426966Y-9612994D01*
X16533033Y-9612994D01*
X16405000Y-11864960D02*
X16555000Y-12014960D01*
X16555000Y-11864960D02*
X16405000Y-12014960D01*
X16533033Y-11992993D02*
X16533033Y-11886926D01*
X16426966Y-11886926D01*
X16426966Y-11992993D01*
X16533033Y-11992993D01*
X16405000Y-14244960D02*
X16555000Y-14394960D01*
X16555000Y-14244960D02*
X16405000Y-14394960D01*
X16533033Y-14372993D02*
X16533033Y-14266926D01*
X16426966Y-14266926D01*
X16426966Y-14372993D01*
X16533033Y-14372993D01*
X16405000Y-16624960D02*
X16555000Y-16774960D01*
X16555000Y-16624960D02*
X16405000Y-16774960D01*
X16533033Y-16752993D02*
X16533033Y-16646926D01*
X16426966Y-16646926D01*
X16426966Y-16752993D01*
X16533033Y-16752993D01*
X16405000Y-19004960D02*
X16555000Y-19154960D01*
X16555000Y-19004960D02*
X16405000Y-19154960D01*
X16533033Y-19132994D02*
X16533033Y-19026927D01*
X16426966Y-19026927D01*
X16426966Y-19132994D01*
X16533033Y-19132994D01*
X17190000Y-7098960D02*
X17340000Y-7248960D01*
X17340000Y-7098960D02*
X17190000Y-7248960D01*
X17318034Y-7226993D02*
X17318034Y-7120926D01*
X17211967Y-7120926D01*
X17211967Y-7226993D01*
X17318034Y-7226993D01*
X17825000Y-6844960D02*
X17975000Y-6994960D01*
X17975000Y-6844960D02*
X17825000Y-6994960D01*
X17953034Y-6972993D02*
X17953034Y-6866926D01*
X17846967Y-6866926D01*
X17846967Y-6972993D01*
X17953034Y-6972993D01*
X18130000Y-11858960D02*
X18280000Y-12008960D01*
X18280000Y-11858960D02*
X18130000Y-12008960D01*
X18258034Y-11986993D02*
X18258034Y-11880926D01*
X18151967Y-11880926D01*
X18151967Y-11986993D01*
X18258034Y-11986993D01*
X18150000Y-9478960D02*
X18300000Y-9628960D01*
X18300000Y-9478960D02*
X18150000Y-9628960D01*
X18278034Y-9606994D02*
X18278034Y-9500927D01*
X18171967Y-9500927D01*
X18171967Y-9606994D01*
X18278034Y-9606994D01*
X18150000Y-14258960D02*
X18300000Y-14408960D01*
X18300000Y-14258960D02*
X18150000Y-14408960D01*
X18278034Y-14386993D02*
X18278034Y-14280926D01*
X18171967Y-14280926D01*
X18171967Y-14386993D01*
X18278034Y-14386993D01*
X18150000Y-16618960D02*
X18300000Y-16768960D01*
X18300000Y-16618960D02*
X18150000Y-16768960D01*
X18278034Y-16746993D02*
X18278034Y-16640926D01*
X18171967Y-16640926D01*
X18171967Y-16746993D01*
X18278034Y-16746993D01*
X18150000Y-19018960D02*
X18300000Y-19168960D01*
X18300000Y-19018960D02*
X18150000Y-19168960D01*
X18278034Y-19146994D02*
X18278034Y-19040927D01*
X18171967Y-19040927D01*
X18171967Y-19146994D01*
X18278034Y-19146994D01*
X18765000Y-11604960D02*
X18915000Y-11754960D01*
X18915000Y-11604960D02*
X18765000Y-11754960D01*
X18893034Y-11732993D02*
X18893034Y-11626926D01*
X18786967Y-11626926D01*
X18786967Y-11732993D01*
X18893034Y-11732993D01*
X18785000Y-9224960D02*
X18935000Y-9374960D01*
X18935000Y-9224960D02*
X18785000Y-9374960D01*
X18913034Y-9352994D02*
X18913034Y-9246927D01*
X18806967Y-9246927D01*
X18806967Y-9352994D01*
X18913034Y-9352994D01*
X18785000Y-14004960D02*
X18935000Y-14154960D01*
X18935000Y-14004960D02*
X18785000Y-14154960D01*
X18913034Y-14132993D02*
X18913034Y-14026926D01*
X18806967Y-14026926D01*
X18806967Y-14132993D01*
X18913034Y-14132993D01*
X18785000Y-16364960D02*
X18935000Y-16514960D01*
X18935000Y-16364960D02*
X18785000Y-16514960D01*
X18913034Y-16492993D02*
X18913034Y-16386926D01*
X18806967Y-16386926D01*
X18806967Y-16492993D01*
X18913034Y-16492993D01*
X18785000Y-18764960D02*
X18935000Y-18914960D01*
X18935000Y-18764960D02*
X18785000Y-18914960D01*
X18913034Y-18892994D02*
X18913034Y-18786927D01*
X18806967Y-18786927D01*
X18806967Y-18892994D01*
X18913034Y-18892994D01*
X20050000Y-7098960D02*
X20200000Y-7248960D01*
X20200000Y-7098960D02*
X20050000Y-7248960D01*
X20178034Y-7226993D02*
X20178034Y-7120926D01*
X20071967Y-7120926D01*
X20071967Y-7226993D01*
X20178034Y-7226993D01*
X20530000Y-9738960D02*
X20680000Y-9888960D01*
X20680000Y-9738960D02*
X20530000Y-9888960D01*
X20658034Y-9866994D02*
X20658034Y-9760927D01*
X20551967Y-9760927D01*
X20551967Y-9866994D01*
X20658034Y-9866994D01*
X20530000Y-12118960D02*
X20680000Y-12268960D01*
X20680000Y-12118960D02*
X20530000Y-12268960D01*
X20658034Y-12246993D02*
X20658034Y-12140926D01*
X20551967Y-12140926D01*
X20551967Y-12246993D01*
X20658034Y-12246993D01*
X20530000Y-14498960D02*
X20680000Y-14648960D01*
X20680000Y-14498960D02*
X20530000Y-14648960D01*
X20658034Y-14626993D02*
X20658034Y-14520926D01*
X20551967Y-14520926D01*
X20551967Y-14626993D01*
X20658034Y-14626993D01*
X20530000Y-16878960D02*
X20680000Y-17028960D01*
X20680000Y-16878960D02*
X20530000Y-17028960D01*
X20658034Y-17006994D02*
X20658034Y-16900927D01*
X20551967Y-16900927D01*
X20551967Y-17006994D01*
X20658034Y-17006994D01*
X20530000Y-19258960D02*
X20680000Y-19408960D01*
X20680000Y-19258960D02*
X20530000Y-19408960D01*
X20658034Y-19386994D02*
X20658034Y-19280927D01*
X20551967Y-19280927D01*
X20551967Y-19386994D01*
X20658034Y-19386994D01*
X20685000Y-6844960D02*
X20835000Y-6994960D01*
X20835000Y-6844960D02*
X20685000Y-6994960D01*
X20813034Y-6972993D02*
X20813034Y-6866926D01*
X20706967Y-6866926D01*
X20706967Y-6972993D01*
X20813034Y-6972993D01*
X21165000Y-9484960D02*
X21315000Y-9634960D01*
X21315000Y-9484960D02*
X21165000Y-9634960D01*
X21293034Y-9612994D02*
X21293034Y-9506927D01*
X21186967Y-9506927D01*
X21186967Y-9612994D01*
X21293034Y-9612994D01*
X21165000Y-11864960D02*
X21315000Y-12014960D01*
X21315000Y-11864960D02*
X21165000Y-12014960D01*
X21293034Y-11992993D02*
X21293034Y-11886926D01*
X21186967Y-11886926D01*
X21186967Y-11992993D01*
X21293034Y-11992993D01*
X21165000Y-14244960D02*
X21315000Y-14394960D01*
X21315000Y-14244960D02*
X21165000Y-14394960D01*
X21293034Y-14372993D02*
X21293034Y-14266926D01*
X21186967Y-14266926D01*
X21186967Y-14372993D01*
X21293034Y-14372993D01*
X21165000Y-16624960D02*
X21315000Y-16774960D01*
X21315000Y-16624960D02*
X21165000Y-16774960D01*
X21293034Y-16752993D02*
X21293034Y-16646926D01*
X21186967Y-16646926D01*
X21186967Y-16752993D01*
X21293034Y-16752993D01*
X21165000Y-19004960D02*
X21315000Y-19154960D01*
X21315000Y-19004960D02*
X21165000Y-19154960D01*
X21293034Y-19132994D02*
X21293034Y-19026927D01*
X21186967Y-19026927D01*
X21186967Y-19132994D01*
X21293034Y-19132994D01*
X22910000Y-7098960D02*
X23060000Y-7248960D01*
X23060000Y-7098960D02*
X22910000Y-7248960D01*
X23038033Y-7226993D02*
X23038033Y-7120926D01*
X22931966Y-7120926D01*
X22931966Y-7226993D01*
X23038033Y-7226993D01*
X22910000Y-10198960D02*
X23060000Y-10348960D01*
X23060000Y-10198960D02*
X22910000Y-10348960D01*
X23038033Y-10326994D02*
X23038033Y-10220927D01*
X22931966Y-10220927D01*
X22931966Y-10326994D01*
X23038033Y-10326994D01*
X22910000Y-12598960D02*
X23060000Y-12748960D01*
X23060000Y-12598960D02*
X22910000Y-12748960D01*
X23038033Y-12726993D02*
X23038033Y-12620926D01*
X22931966Y-12620926D01*
X22931966Y-12726993D01*
X23038033Y-12726993D01*
X22910000Y-14978960D02*
X23060000Y-15128960D01*
X23060000Y-14978960D02*
X22910000Y-15128960D01*
X23038033Y-15106993D02*
X23038033Y-15000926D01*
X22931966Y-15000926D01*
X22931966Y-15106993D01*
X23038033Y-15106993D01*
X22910000Y-17358960D02*
X23060000Y-17508960D01*
X23060000Y-17358960D02*
X22910000Y-17508960D01*
X23038033Y-17486994D02*
X23038033Y-17380927D01*
X22931966Y-17380927D01*
X22931966Y-17486994D01*
X23038033Y-17486994D01*
X22910000Y-19738960D02*
X23060000Y-19888960D01*
X23060000Y-19738960D02*
X22910000Y-19888960D01*
X23038033Y-19866994D02*
X23038033Y-19760927D01*
X22931966Y-19760927D01*
X22931966Y-19866994D01*
X23038033Y-19866994D01*
X23545000Y-6844960D02*
X23695000Y-6994960D01*
X23695000Y-6844960D02*
X23545000Y-6994960D01*
X23673033Y-6972993D02*
X23673033Y-6866926D01*
X23566966Y-6866926D01*
X23566966Y-6972993D01*
X23673033Y-6972993D01*
X23545000Y-9944960D02*
X23695000Y-10094960D01*
X23695000Y-9944960D02*
X23545000Y-10094960D01*
X23673033Y-10072994D02*
X23673033Y-9966927D01*
X23566966Y-9966927D01*
X23566966Y-10072994D01*
X23673033Y-10072994D01*
X23545000Y-12344960D02*
X23695000Y-12494960D01*
X23695000Y-12344960D02*
X23545000Y-12494960D01*
X23673033Y-12472993D02*
X23673033Y-12366926D01*
X23566966Y-12366926D01*
X23566966Y-12472993D01*
X23673033Y-12472993D01*
X23545000Y-14724960D02*
X23695000Y-14874960D01*
X23695000Y-14724960D02*
X23545000Y-14874960D01*
X23673033Y-14852993D02*
X23673033Y-14746926D01*
X23566966Y-14746926D01*
X23566966Y-14852993D01*
X23673033Y-14852993D01*
X23545000Y-17104960D02*
X23695000Y-17254960D01*
X23695000Y-17104960D02*
X23545000Y-17254960D01*
X23673033Y-17232994D02*
X23673033Y-17126927D01*
X23566966Y-17126927D01*
X23566966Y-17232994D01*
X23673033Y-17232994D01*
X23545000Y-19484960D02*
X23695000Y-19634960D01*
X23695000Y-19484960D02*
X23545000Y-19634960D01*
X23673033Y-19612994D02*
X23673033Y-19506927D01*
X23566966Y-19506927D01*
X23566966Y-19612994D01*
X23673033Y-19612994D01*
X25290000Y-19738960D02*
X25440000Y-19888960D01*
X25440000Y-19738960D02*
X25290000Y-19888960D01*
X25418033Y-19866994D02*
X25418033Y-19760927D01*
X25311966Y-19760927D01*
X25311966Y-19866994D01*
X25418033Y-19866994D01*
X25745000Y-7471500D02*
X25895000Y-7621500D01*
X25895000Y-7471500D02*
X25745000Y-7621500D01*
X25873033Y-7599533D02*
X25873033Y-7493466D01*
X25766966Y-7493466D01*
X25766966Y-7599533D01*
X25873033Y-7599533D01*
X25745000Y-9851500D02*
X25895000Y-10001500D01*
X25895000Y-9851500D02*
X25745000Y-10001500D01*
X25873033Y-9979534D02*
X25873033Y-9873467D01*
X25766966Y-9873467D01*
X25766966Y-9979534D01*
X25873033Y-9979534D01*
X25751000Y-12239500D02*
X25901000Y-12389500D01*
X25901000Y-12239500D02*
X25751000Y-12389500D01*
X25879033Y-12367533D02*
X25879033Y-12261466D01*
X25772966Y-12261466D01*
X25772966Y-12367533D01*
X25879033Y-12367533D01*
X25751000Y-14619500D02*
X25901000Y-14769500D01*
X25901000Y-14619500D02*
X25751000Y-14769500D01*
X25879033Y-14747533D02*
X25879033Y-14641466D01*
X25772966Y-14641466D01*
X25772966Y-14747533D01*
X25879033Y-14747533D01*
X25764000Y-7098960D02*
X25914000Y-7248960D01*
X25914000Y-7098960D02*
X25764000Y-7248960D01*
X25892033Y-7226993D02*
X25892033Y-7120926D01*
X25785966Y-7120926D01*
X25785966Y-7226993D01*
X25892033Y-7226993D01*
X25925000Y-19484960D02*
X26075000Y-19634960D01*
X26075000Y-19484960D02*
X25925000Y-19634960D01*
X26053033Y-19612994D02*
X26053033Y-19506927D01*
X25946966Y-19506927D01*
X25946966Y-19612994D01*
X26053033Y-19612994D01*
X26380000Y-7217500D02*
X26530000Y-7367500D01*
X26530000Y-7217500D02*
X26380000Y-7367500D01*
X26508033Y-7345533D02*
X26508033Y-7239466D01*
X26401966Y-7239466D01*
X26401966Y-7345533D01*
X26508033Y-7345533D01*
X26380000Y-9597500D02*
X26530000Y-9747500D01*
X26530000Y-9597500D02*
X26380000Y-9747500D01*
X26508033Y-9725534D02*
X26508033Y-9619467D01*
X26401966Y-9619467D01*
X26401966Y-9725534D01*
X26508033Y-9725534D01*
X26386000Y-11985500D02*
X26536000Y-12135500D01*
X26536000Y-11985500D02*
X26386000Y-12135500D01*
X26514033Y-12113533D02*
X26514033Y-12007466D01*
X26407966Y-12007466D01*
X26407966Y-12113533D01*
X26514033Y-12113533D01*
X26386000Y-14365500D02*
X26536000Y-14515500D01*
X26536000Y-14365500D02*
X26386000Y-14515500D01*
X26514033Y-14493533D02*
X26514033Y-14387466D01*
X26407966Y-14387466D01*
X26407966Y-14493533D01*
X26514033Y-14493533D01*
X26399000Y-6844960D02*
X26549000Y-6994960D01*
X26549000Y-6844960D02*
X26399000Y-6994960D01*
X26527033Y-6972993D02*
X26527033Y-6866926D01*
X26420966Y-6866926D01*
X26420966Y-6972993D01*
X26527033Y-6972993D01*
D19*
X7146000Y-13595500D02*
X7576000Y-14025500D01*
X7576000Y-13595500D02*
X7146000Y-14025500D01*
X7361000Y-14025500D02*
X7576000Y-13810500D01*
X7361000Y-13595500D01*
X7146000Y-13810500D01*
X7361000Y-14025500D01*
X7146000Y-24395500D02*
X7576000Y-24825500D01*
X7576000Y-24395500D02*
X7146000Y-24825500D01*
X7361000Y-24825500D02*
X7576000Y-24610500D01*
X7361000Y-24395500D01*
X7146000Y-24610500D01*
X7361000Y-24825500D01*
X7196000Y-2795500D02*
X7626000Y-3225500D01*
X7626000Y-2795500D02*
X7196000Y-3225500D01*
X7411000Y-3225500D02*
X7626000Y-3010500D01*
X7411000Y-2795500D01*
X7196000Y-3010500D01*
X7411000Y-3225500D01*
X17646000Y-24395500D02*
X18076000Y-24825500D01*
X18076000Y-24395500D02*
X17646000Y-24825500D01*
X17861000Y-24825500D02*
X18076000Y-24610500D01*
X17861000Y-24395500D01*
X17646000Y-24610500D01*
X17861000Y-24825500D01*
X17696000Y-2795500D02*
X18126000Y-3225500D01*
X18126000Y-2795500D02*
X17696000Y-3225500D01*
X17911000Y-3225500D02*
X18126000Y-3010500D01*
X17911000Y-2795500D01*
X17696000Y-3010500D01*
X17911000Y-3225500D01*
X28146000Y-2795500D02*
X28576000Y-3225500D01*
X28576000Y-2795500D02*
X28146000Y-3225500D01*
X28361000Y-3225500D02*
X28576000Y-3010500D01*
X28361000Y-2795500D01*
X28146000Y-3010500D01*
X28361000Y-3225500D01*
X28146000Y-13595500D02*
X28576000Y-14025500D01*
X28576000Y-13595500D02*
X28146000Y-14025500D01*
X28361000Y-14025500D02*
X28576000Y-13810500D01*
X28361000Y-13595500D01*
X28146000Y-13810500D01*
X28361000Y-14025500D01*
X28146000Y-24395500D02*
X28576000Y-24825500D01*
X28576000Y-24395500D02*
X28146000Y-24825500D01*
X28361000Y-24825500D02*
X28576000Y-24610500D01*
X28361000Y-24395500D01*
X28146000Y-24610500D01*
X28361000Y-24825500D01*
D11*
X6852619Y-25715476D02*
X6852619Y-25515476D01*
X6900238Y-25515476D01*
X6928809Y-25525000D01*
X6947857Y-25544048D01*
X6957381Y-25563095D01*
X6966905Y-25601190D01*
X6966905Y-25629762D01*
X6957381Y-25667857D01*
X6947857Y-25686905D01*
X6928809Y-25705952D01*
X6900238Y-25715476D01*
X6852619Y-25715476D01*
X7052619Y-25715476D02*
X7052619Y-25582143D01*
X7052619Y-25620238D02*
X7062143Y-25601190D01*
X7071667Y-25591667D01*
X7090714Y-25582143D01*
X7109762Y-25582143D01*
X7176428Y-25715476D02*
X7176428Y-25582143D01*
X7176428Y-25515476D02*
X7166905Y-25525000D01*
X7176428Y-25534524D01*
X7185952Y-25525000D01*
X7176428Y-25515476D01*
X7176428Y-25534524D01*
X7300238Y-25715476D02*
X7281190Y-25705952D01*
X7271667Y-25686905D01*
X7271667Y-25515476D01*
X7405000Y-25715476D02*
X7385952Y-25705952D01*
X7376428Y-25686905D01*
X7376428Y-25515476D01*
X7633571Y-25715476D02*
X7633571Y-25515476D01*
X7700238Y-25658333D01*
X7766905Y-25515476D01*
X7766905Y-25715476D01*
X7947857Y-25715476D02*
X7947857Y-25610714D01*
X7938333Y-25591667D01*
X7919286Y-25582143D01*
X7881190Y-25582143D01*
X7862143Y-25591667D01*
X7947857Y-25705952D02*
X7928809Y-25715476D01*
X7881190Y-25715476D01*
X7862143Y-25705952D01*
X7852619Y-25686905D01*
X7852619Y-25667857D01*
X7862143Y-25648809D01*
X7881190Y-25639286D01*
X7928809Y-25639286D01*
X7947857Y-25629762D01*
X8043095Y-25582143D02*
X8043095Y-25782143D01*
X8043095Y-25591667D02*
X8062143Y-25582143D01*
X8100238Y-25582143D01*
X8119286Y-25591667D01*
X8128809Y-25601190D01*
X8138333Y-25620238D01*
X8138333Y-25677381D01*
X8128809Y-25696428D01*
X8119286Y-25705952D01*
X8100238Y-25715476D01*
X8062143Y-25715476D01*
X8043095Y-25705952D01*
X8224048Y-25696428D02*
X8233571Y-25705952D01*
X8224048Y-25715476D01*
X8214524Y-25705952D01*
X8224048Y-25696428D01*
X8224048Y-25715476D01*
X8224048Y-25591667D02*
X8233571Y-25601190D01*
X8224048Y-25610714D01*
X8214524Y-25601190D01*
X8224048Y-25591667D01*
X8224048Y-25610714D01*
D12*
X6555000Y-26025000D02*
X6595000Y-26065000D01*
X6595000Y-26025000D02*
X6555000Y-26065000D01*
D11*
X6890714Y-25935476D02*
X6909762Y-25935476D01*
X6928809Y-25945000D01*
X6938333Y-25954524D01*
X6947857Y-25973571D01*
X6957381Y-26011667D01*
X6957381Y-26059286D01*
X6947857Y-26097381D01*
X6938333Y-26116428D01*
X6928809Y-26125952D01*
X6909762Y-26135476D01*
X6890714Y-26135476D01*
X6871667Y-26125952D01*
X6862143Y-26116428D01*
X6852619Y-26097381D01*
X6843095Y-26059286D01*
X6843095Y-26011667D01*
X6852619Y-25973571D01*
X6862143Y-25954524D01*
X6871667Y-25945000D01*
X6890714Y-25935476D01*
X7043095Y-26116428D02*
X7052619Y-26125952D01*
X7043095Y-26135476D01*
X7033571Y-26125952D01*
X7043095Y-26116428D01*
X7043095Y-26135476D01*
X7224048Y-26002143D02*
X7224048Y-26135476D01*
X7176428Y-25925952D02*
X7128809Y-26068809D01*
X7252619Y-26068809D01*
X7366905Y-25935476D02*
X7385952Y-25935476D01*
X7405000Y-25945000D01*
X7414524Y-25954524D01*
X7424048Y-25973571D01*
X7433571Y-26011667D01*
X7433571Y-26059286D01*
X7424048Y-26097381D01*
X7414524Y-26116428D01*
X7405000Y-26125952D01*
X7385952Y-26135476D01*
X7366905Y-26135476D01*
X7347857Y-26125952D01*
X7338333Y-26116428D01*
X7328809Y-26097381D01*
X7319286Y-26059286D01*
X7319286Y-26011667D01*
X7328809Y-25973571D01*
X7338333Y-25954524D01*
X7347857Y-25945000D01*
X7366905Y-25935476D01*
X7557381Y-25935476D02*
X7576428Y-25935476D01*
X7595476Y-25945000D01*
X7605000Y-25954524D01*
X7614524Y-25973571D01*
X7624048Y-26011667D01*
X7624048Y-26059286D01*
X7614524Y-26097381D01*
X7605000Y-26116428D01*
X7595476Y-26125952D01*
X7576428Y-26135476D01*
X7557381Y-26135476D01*
X7538333Y-26125952D01*
X7528809Y-26116428D01*
X7519286Y-26097381D01*
X7509762Y-26059286D01*
X7509762Y-26011667D01*
X7519286Y-25973571D01*
X7528809Y-25954524D01*
X7538333Y-25945000D01*
X7557381Y-25935476D01*
X7709762Y-26135476D02*
X7709762Y-26002143D01*
X7709762Y-26021190D02*
X7719286Y-26011667D01*
X7738333Y-26002143D01*
X7766905Y-26002143D01*
X7785952Y-26011667D01*
X7795476Y-26030714D01*
X7795476Y-26135476D01*
X7795476Y-26030714D02*
X7805000Y-26011667D01*
X7824048Y-26002143D01*
X7852619Y-26002143D01*
X7871667Y-26011667D01*
X7881190Y-26030714D01*
X7881190Y-26135476D01*
X7976428Y-26135476D02*
X7976428Y-26002143D01*
X7976428Y-26021190D02*
X7985952Y-26011667D01*
X8005000Y-26002143D01*
X8033571Y-26002143D01*
X8052619Y-26011667D01*
X8062143Y-26030714D01*
X8062143Y-26135476D01*
X8062143Y-26030714D02*
X8071667Y-26011667D01*
X8090714Y-26002143D01*
X8119286Y-26002143D01*
X8138333Y-26011667D01*
X8147857Y-26030714D01*
X8147857Y-26135476D01*
X8538333Y-25925952D02*
X8366905Y-26183095D01*
X8795476Y-25935476D02*
X8814524Y-25935476D01*
X8833571Y-25945000D01*
X8843095Y-25954524D01*
X8852619Y-25973571D01*
X8862143Y-26011667D01*
X8862143Y-26059286D01*
X8852619Y-26097381D01*
X8843095Y-26116428D01*
X8833571Y-26125952D01*
X8814524Y-26135476D01*
X8795476Y-26135476D01*
X8776429Y-26125952D01*
X8766905Y-26116428D01*
X8757381Y-26097381D01*
X8747857Y-26059286D01*
X8747857Y-26011667D01*
X8757381Y-25973571D01*
X8766905Y-25954524D01*
X8776429Y-25945000D01*
X8795476Y-25935476D01*
X8947857Y-26116428D02*
X8957381Y-26125952D01*
X8947857Y-26135476D01*
X8938333Y-26125952D01*
X8947857Y-26116428D01*
X8947857Y-26135476D01*
X9081190Y-25935476D02*
X9100238Y-25935476D01*
X9119286Y-25945000D01*
X9128810Y-25954524D01*
X9138333Y-25973571D01*
X9147857Y-26011667D01*
X9147857Y-26059286D01*
X9138333Y-26097381D01*
X9128810Y-26116428D01*
X9119286Y-26125952D01*
X9100238Y-26135476D01*
X9081190Y-26135476D01*
X9062143Y-26125952D01*
X9052619Y-26116428D01*
X9043095Y-26097381D01*
X9033571Y-26059286D01*
X9033571Y-26011667D01*
X9043095Y-25973571D01*
X9052619Y-25954524D01*
X9062143Y-25945000D01*
X9081190Y-25935476D01*
X9338333Y-26135476D02*
X9224048Y-26135476D01*
X9281190Y-26135476D02*
X9281190Y-25935476D01*
X9262143Y-25964048D01*
X9243095Y-25983095D01*
X9224048Y-25992619D01*
X9519286Y-25935476D02*
X9424048Y-25935476D01*
X9414524Y-26030714D01*
X9424048Y-26021190D01*
X9443095Y-26011667D01*
X9490714Y-26011667D01*
X9509762Y-26021190D01*
X9519286Y-26030714D01*
X9528810Y-26049762D01*
X9528810Y-26097381D01*
X9519286Y-26116428D01*
X9509762Y-26125952D01*
X9490714Y-26135476D01*
X9443095Y-26135476D01*
X9424048Y-26125952D01*
X9414524Y-26116428D01*
X9595476Y-25935476D02*
X9728810Y-25935476D01*
X9643095Y-26135476D01*
X9795476Y-25935476D02*
X9795476Y-25973571D01*
X9871667Y-25935476D02*
X9871667Y-25973571D01*
X10166905Y-26211667D02*
X10157381Y-26202143D01*
X10138333Y-26173571D01*
X10128810Y-26154524D01*
X10119286Y-26125952D01*
X10109762Y-26078333D01*
X10109762Y-26040238D01*
X10119286Y-25992619D01*
X10128810Y-25964048D01*
X10138333Y-25945000D01*
X10157381Y-25916428D01*
X10166905Y-25906905D01*
X10233571Y-25954524D02*
X10243095Y-25945000D01*
X10262143Y-25935476D01*
X10309762Y-25935476D01*
X10328810Y-25945000D01*
X10338333Y-25954524D01*
X10347857Y-25973571D01*
X10347857Y-25992619D01*
X10338333Y-26021190D01*
X10224048Y-26135476D01*
X10347857Y-26135476D01*
X10519286Y-26002143D02*
X10519286Y-26135476D01*
X10471667Y-25925952D02*
X10424048Y-26068809D01*
X10547857Y-26068809D01*
X10776429Y-26135476D02*
X10776429Y-25935476D01*
X10862143Y-26135476D02*
X10862143Y-26030714D01*
X10852619Y-26011667D01*
X10833571Y-26002143D01*
X10805000Y-26002143D01*
X10785952Y-26011667D01*
X10776429Y-26021190D01*
X10985952Y-26135476D02*
X10966905Y-26125952D01*
X10957381Y-26116428D01*
X10947857Y-26097381D01*
X10947857Y-26040238D01*
X10957381Y-26021190D01*
X10966905Y-26011667D01*
X10985952Y-26002143D01*
X11014524Y-26002143D01*
X11033571Y-26011667D01*
X11043095Y-26021190D01*
X11052619Y-26040238D01*
X11052619Y-26097381D01*
X11043095Y-26116428D01*
X11033571Y-26125952D01*
X11014524Y-26135476D01*
X10985952Y-26135476D01*
X11166905Y-26135476D02*
X11147857Y-26125952D01*
X11138333Y-26106905D01*
X11138333Y-25935476D01*
X11319286Y-26125952D02*
X11300238Y-26135476D01*
X11262143Y-26135476D01*
X11243095Y-26125952D01*
X11233571Y-26106905D01*
X11233571Y-26030714D01*
X11243095Y-26011667D01*
X11262143Y-26002143D01*
X11300238Y-26002143D01*
X11319286Y-26011667D01*
X11328809Y-26030714D01*
X11328809Y-26049762D01*
X11233571Y-26068809D01*
X11405000Y-26125952D02*
X11424048Y-26135476D01*
X11462143Y-26135476D01*
X11481190Y-26125952D01*
X11490714Y-26106905D01*
X11490714Y-26097381D01*
X11481190Y-26078333D01*
X11462143Y-26068809D01*
X11433571Y-26068809D01*
X11414524Y-26059286D01*
X11405000Y-26040238D01*
X11405000Y-26030714D01*
X11414524Y-26011667D01*
X11433571Y-26002143D01*
X11462143Y-26002143D01*
X11481190Y-26011667D01*
X11557381Y-26211667D02*
X11566905Y-26202143D01*
X11585952Y-26173571D01*
X11595476Y-26154524D01*
X11605000Y-26125952D01*
X11614524Y-26078333D01*
X11614524Y-26040238D01*
X11605000Y-25992619D01*
X11595476Y-25964048D01*
X11585952Y-25945000D01*
X11566905Y-25916428D01*
X11557381Y-25906905D01*
D13*
X6595000Y-26309000D02*
G75*
G03*
X6595000Y-26309000I-35000J0D01*
G01*
D11*
X6890714Y-26199476D02*
X6909762Y-26199476D01*
X6928809Y-26209000D01*
X6938333Y-26218524D01*
X6947857Y-26237571D01*
X6957381Y-26275667D01*
X6957381Y-26323286D01*
X6947857Y-26361381D01*
X6938333Y-26380428D01*
X6928809Y-26389952D01*
X6909762Y-26399476D01*
X6890714Y-26399476D01*
X6871667Y-26389952D01*
X6862143Y-26380428D01*
X6852619Y-26361381D01*
X6843095Y-26323286D01*
X6843095Y-26275667D01*
X6852619Y-26237571D01*
X6862143Y-26218524D01*
X6871667Y-26209000D01*
X6890714Y-26199476D01*
X7043095Y-26380428D02*
X7052619Y-26389952D01*
X7043095Y-26399476D01*
X7033571Y-26389952D01*
X7043095Y-26380428D01*
X7043095Y-26399476D01*
X7119286Y-26199476D02*
X7252619Y-26199476D01*
X7166905Y-26399476D01*
X7366905Y-26199476D02*
X7385952Y-26199476D01*
X7405000Y-26209000D01*
X7414524Y-26218524D01*
X7424048Y-26237571D01*
X7433571Y-26275667D01*
X7433571Y-26323286D01*
X7424048Y-26361381D01*
X7414524Y-26380428D01*
X7405000Y-26389952D01*
X7385952Y-26399476D01*
X7366905Y-26399476D01*
X7347857Y-26389952D01*
X7338333Y-26380428D01*
X7328809Y-26361381D01*
X7319286Y-26323286D01*
X7319286Y-26275667D01*
X7328809Y-26237571D01*
X7338333Y-26218524D01*
X7347857Y-26209000D01*
X7366905Y-26199476D01*
X7557381Y-26199476D02*
X7576428Y-26199476D01*
X7595476Y-26209000D01*
X7605000Y-26218524D01*
X7614524Y-26237571D01*
X7624048Y-26275667D01*
X7624048Y-26323286D01*
X7614524Y-26361381D01*
X7605000Y-26380428D01*
X7595476Y-26389952D01*
X7576428Y-26399476D01*
X7557381Y-26399476D01*
X7538333Y-26389952D01*
X7528809Y-26380428D01*
X7519286Y-26361381D01*
X7509762Y-26323286D01*
X7509762Y-26275667D01*
X7519286Y-26237571D01*
X7528809Y-26218524D01*
X7538333Y-26209000D01*
X7557381Y-26199476D01*
X7709762Y-26399476D02*
X7709762Y-26266143D01*
X7709762Y-26285190D02*
X7719286Y-26275667D01*
X7738333Y-26266143D01*
X7766905Y-26266143D01*
X7785952Y-26275667D01*
X7795476Y-26294714D01*
X7795476Y-26399476D01*
X7795476Y-26294714D02*
X7805000Y-26275667D01*
X7824048Y-26266143D01*
X7852619Y-26266143D01*
X7871667Y-26275667D01*
X7881190Y-26294714D01*
X7881190Y-26399476D01*
X7976428Y-26399476D02*
X7976428Y-26266143D01*
X7976428Y-26285190D02*
X7985952Y-26275667D01*
X8005000Y-26266143D01*
X8033571Y-26266143D01*
X8052619Y-26275667D01*
X8062143Y-26294714D01*
X8062143Y-26399476D01*
X8062143Y-26294714D02*
X8071667Y-26275667D01*
X8090714Y-26266143D01*
X8119286Y-26266143D01*
X8138333Y-26275667D01*
X8147857Y-26294714D01*
X8147857Y-26399476D01*
X8538333Y-26189952D02*
X8366905Y-26447095D01*
X8795476Y-26199476D02*
X8814524Y-26199476D01*
X8833571Y-26209000D01*
X8843095Y-26218524D01*
X8852619Y-26237571D01*
X8862143Y-26275667D01*
X8862143Y-26323286D01*
X8852619Y-26361381D01*
X8843095Y-26380428D01*
X8833571Y-26389952D01*
X8814524Y-26399476D01*
X8795476Y-26399476D01*
X8776429Y-26389952D01*
X8766905Y-26380428D01*
X8757381Y-26361381D01*
X8747857Y-26323286D01*
X8747857Y-26275667D01*
X8757381Y-26237571D01*
X8766905Y-26218524D01*
X8776429Y-26209000D01*
X8795476Y-26199476D01*
X8947857Y-26380428D02*
X8957381Y-26389952D01*
X8947857Y-26399476D01*
X8938333Y-26389952D01*
X8947857Y-26380428D01*
X8947857Y-26399476D01*
X9081190Y-26199476D02*
X9100238Y-26199476D01*
X9119286Y-26209000D01*
X9128810Y-26218524D01*
X9138333Y-26237571D01*
X9147857Y-26275667D01*
X9147857Y-26323286D01*
X9138333Y-26361381D01*
X9128810Y-26380428D01*
X9119286Y-26389952D01*
X9100238Y-26399476D01*
X9081190Y-26399476D01*
X9062143Y-26389952D01*
X9052619Y-26380428D01*
X9043095Y-26361381D01*
X9033571Y-26323286D01*
X9033571Y-26275667D01*
X9043095Y-26237571D01*
X9052619Y-26218524D01*
X9062143Y-26209000D01*
X9081190Y-26199476D01*
X9224048Y-26218524D02*
X9233571Y-26209000D01*
X9252619Y-26199476D01*
X9300238Y-26199476D01*
X9319286Y-26209000D01*
X9328810Y-26218524D01*
X9338333Y-26237571D01*
X9338333Y-26256619D01*
X9328810Y-26285190D01*
X9214524Y-26399476D01*
X9338333Y-26399476D01*
X9405000Y-26199476D02*
X9538333Y-26199476D01*
X9452619Y-26399476D01*
X9700238Y-26199476D02*
X9662143Y-26199476D01*
X9643095Y-26209000D01*
X9633571Y-26218524D01*
X9614524Y-26247095D01*
X9605000Y-26285190D01*
X9605000Y-26361381D01*
X9614524Y-26380428D01*
X9624048Y-26389952D01*
X9643095Y-26399476D01*
X9681190Y-26399476D01*
X9700238Y-26389952D01*
X9709762Y-26380428D01*
X9719286Y-26361381D01*
X9719286Y-26313762D01*
X9709762Y-26294714D01*
X9700238Y-26285190D01*
X9681190Y-26275667D01*
X9643095Y-26275667D01*
X9624048Y-26285190D01*
X9614524Y-26294714D01*
X9605000Y-26313762D01*
X9795476Y-26199476D02*
X9795476Y-26237571D01*
X9871667Y-26199476D02*
X9871667Y-26237571D01*
X10166905Y-26475667D02*
X10157381Y-26466143D01*
X10138333Y-26437571D01*
X10128810Y-26418524D01*
X10119286Y-26389952D01*
X10109762Y-26342333D01*
X10109762Y-26304238D01*
X10119286Y-26256619D01*
X10128810Y-26228048D01*
X10138333Y-26209000D01*
X10157381Y-26180428D01*
X10166905Y-26170905D01*
X10347857Y-26399476D02*
X10233571Y-26399476D01*
X10290714Y-26399476D02*
X10290714Y-26199476D01*
X10271667Y-26228048D01*
X10252619Y-26247095D01*
X10233571Y-26256619D01*
X10424048Y-26218524D02*
X10433571Y-26209000D01*
X10452619Y-26199476D01*
X10500238Y-26199476D01*
X10519286Y-26209000D01*
X10528810Y-26218524D01*
X10538333Y-26237571D01*
X10538333Y-26256619D01*
X10528810Y-26285190D01*
X10414524Y-26399476D01*
X10538333Y-26399476D01*
X10776429Y-26399476D02*
X10776429Y-26199476D01*
X10862143Y-26399476D02*
X10862143Y-26294714D01*
X10852619Y-26275667D01*
X10833571Y-26266143D01*
X10805000Y-26266143D01*
X10785952Y-26275667D01*
X10776429Y-26285190D01*
X10985952Y-26399476D02*
X10966905Y-26389952D01*
X10957381Y-26380428D01*
X10947857Y-26361381D01*
X10947857Y-26304238D01*
X10957381Y-26285190D01*
X10966905Y-26275667D01*
X10985952Y-26266143D01*
X11014524Y-26266143D01*
X11033571Y-26275667D01*
X11043095Y-26285190D01*
X11052619Y-26304238D01*
X11052619Y-26361381D01*
X11043095Y-26380428D01*
X11033571Y-26389952D01*
X11014524Y-26399476D01*
X10985952Y-26399476D01*
X11166905Y-26399476D02*
X11147857Y-26389952D01*
X11138333Y-26370905D01*
X11138333Y-26199476D01*
X11319286Y-26389952D02*
X11300238Y-26399476D01*
X11262143Y-26399476D01*
X11243095Y-26389952D01*
X11233571Y-26370905D01*
X11233571Y-26294714D01*
X11243095Y-26275667D01*
X11262143Y-26266143D01*
X11300238Y-26266143D01*
X11319286Y-26275667D01*
X11328809Y-26294714D01*
X11328809Y-26313762D01*
X11233571Y-26332809D01*
X11405000Y-26389952D02*
X11424048Y-26399476D01*
X11462143Y-26399476D01*
X11481190Y-26389952D01*
X11490714Y-26370905D01*
X11490714Y-26361381D01*
X11481190Y-26342333D01*
X11462143Y-26332809D01*
X11433571Y-26332809D01*
X11414524Y-26323286D01*
X11405000Y-26304238D01*
X11405000Y-26294714D01*
X11414524Y-26275667D01*
X11433571Y-26266143D01*
X11462143Y-26266143D01*
X11481190Y-26275667D01*
X11557381Y-26475667D02*
X11566905Y-26466143D01*
X11585952Y-26437571D01*
X11595476Y-26418524D01*
X11605000Y-26389952D01*
X11614524Y-26342333D01*
X11614524Y-26304238D01*
X11605000Y-26256619D01*
X11595476Y-26228048D01*
X11585952Y-26209000D01*
X11566905Y-26180428D01*
X11557381Y-26170905D01*
D14*
X6557500Y-26535500D02*
X6557500Y-26610500D01*
X6520000Y-26573000D02*
X6595000Y-26573000D01*
D11*
X6890714Y-26463476D02*
X6909762Y-26463476D01*
X6928809Y-26473000D01*
X6938333Y-26482524D01*
X6947857Y-26501571D01*
X6957381Y-26539667D01*
X6957381Y-26587286D01*
X6947857Y-26625381D01*
X6938333Y-26644428D01*
X6928809Y-26653952D01*
X6909762Y-26663476D01*
X6890714Y-26663476D01*
X6871667Y-26653952D01*
X6862143Y-26644428D01*
X6852619Y-26625381D01*
X6843095Y-26587286D01*
X6843095Y-26539667D01*
X6852619Y-26501571D01*
X6862143Y-26482524D01*
X6871667Y-26473000D01*
X6890714Y-26463476D01*
X7043095Y-26644428D02*
X7052619Y-26653952D01*
X7043095Y-26663476D01*
X7033571Y-26653952D01*
X7043095Y-26644428D01*
X7043095Y-26663476D01*
X7119286Y-26463476D02*
X7252619Y-26463476D01*
X7166905Y-26663476D01*
X7424048Y-26463476D02*
X7328809Y-26463476D01*
X7319286Y-26558714D01*
X7328809Y-26549190D01*
X7347857Y-26539667D01*
X7395476Y-26539667D01*
X7414524Y-26549190D01*
X7424048Y-26558714D01*
X7433571Y-26577762D01*
X7433571Y-26625381D01*
X7424048Y-26644428D01*
X7414524Y-26653952D01*
X7395476Y-26663476D01*
X7347857Y-26663476D01*
X7328809Y-26653952D01*
X7319286Y-26644428D01*
X7557381Y-26463476D02*
X7576428Y-26463476D01*
X7595476Y-26473000D01*
X7605000Y-26482524D01*
X7614524Y-26501571D01*
X7624048Y-26539667D01*
X7624048Y-26587286D01*
X7614524Y-26625381D01*
X7605000Y-26644428D01*
X7595476Y-26653952D01*
X7576428Y-26663476D01*
X7557381Y-26663476D01*
X7538333Y-26653952D01*
X7528809Y-26644428D01*
X7519286Y-26625381D01*
X7509762Y-26587286D01*
X7509762Y-26539667D01*
X7519286Y-26501571D01*
X7528809Y-26482524D01*
X7538333Y-26473000D01*
X7557381Y-26463476D01*
X7709762Y-26663476D02*
X7709762Y-26530143D01*
X7709762Y-26549190D02*
X7719286Y-26539667D01*
X7738333Y-26530143D01*
X7766905Y-26530143D01*
X7785952Y-26539667D01*
X7795476Y-26558714D01*
X7795476Y-26663476D01*
X7795476Y-26558714D02*
X7805000Y-26539667D01*
X7824048Y-26530143D01*
X7852619Y-26530143D01*
X7871667Y-26539667D01*
X7881190Y-26558714D01*
X7881190Y-26663476D01*
X7976428Y-26663476D02*
X7976428Y-26530143D01*
X7976428Y-26549190D02*
X7985952Y-26539667D01*
X8005000Y-26530143D01*
X8033571Y-26530143D01*
X8052619Y-26539667D01*
X8062143Y-26558714D01*
X8062143Y-26663476D01*
X8062143Y-26558714D02*
X8071667Y-26539667D01*
X8090714Y-26530143D01*
X8119286Y-26530143D01*
X8138333Y-26539667D01*
X8147857Y-26558714D01*
X8147857Y-26663476D01*
X8538333Y-26453952D02*
X8366905Y-26711095D01*
X8795476Y-26463476D02*
X8814524Y-26463476D01*
X8833571Y-26473000D01*
X8843095Y-26482524D01*
X8852619Y-26501571D01*
X8862143Y-26539667D01*
X8862143Y-26587286D01*
X8852619Y-26625381D01*
X8843095Y-26644428D01*
X8833571Y-26653952D01*
X8814524Y-26663476D01*
X8795476Y-26663476D01*
X8776429Y-26653952D01*
X8766905Y-26644428D01*
X8757381Y-26625381D01*
X8747857Y-26587286D01*
X8747857Y-26539667D01*
X8757381Y-26501571D01*
X8766905Y-26482524D01*
X8776429Y-26473000D01*
X8795476Y-26463476D01*
X8947857Y-26644428D02*
X8957381Y-26653952D01*
X8947857Y-26663476D01*
X8938333Y-26653952D01*
X8947857Y-26644428D01*
X8947857Y-26663476D01*
X9081190Y-26463476D02*
X9100238Y-26463476D01*
X9119286Y-26473000D01*
X9128810Y-26482524D01*
X9138333Y-26501571D01*
X9147857Y-26539667D01*
X9147857Y-26587286D01*
X9138333Y-26625381D01*
X9128810Y-26644428D01*
X9119286Y-26653952D01*
X9100238Y-26663476D01*
X9081190Y-26663476D01*
X9062143Y-26653952D01*
X9052619Y-26644428D01*
X9043095Y-26625381D01*
X9033571Y-26587286D01*
X9033571Y-26539667D01*
X9043095Y-26501571D01*
X9052619Y-26482524D01*
X9062143Y-26473000D01*
X9081190Y-26463476D01*
X9224048Y-26482524D02*
X9233571Y-26473000D01*
X9252619Y-26463476D01*
X9300238Y-26463476D01*
X9319286Y-26473000D01*
X9328810Y-26482524D01*
X9338333Y-26501571D01*
X9338333Y-26520619D01*
X9328810Y-26549190D01*
X9214524Y-26663476D01*
X9338333Y-26663476D01*
X9433571Y-26663476D02*
X9471667Y-26663476D01*
X9490714Y-26653952D01*
X9500238Y-26644428D01*
X9519286Y-26615857D01*
X9528810Y-26577762D01*
X9528810Y-26501571D01*
X9519286Y-26482524D01*
X9509762Y-26473000D01*
X9490714Y-26463476D01*
X9452619Y-26463476D01*
X9433571Y-26473000D01*
X9424048Y-26482524D01*
X9414524Y-26501571D01*
X9414524Y-26549190D01*
X9424048Y-26568238D01*
X9433571Y-26577762D01*
X9452619Y-26587286D01*
X9490714Y-26587286D01*
X9509762Y-26577762D01*
X9519286Y-26568238D01*
X9528810Y-26549190D01*
X9709762Y-26463476D02*
X9614524Y-26463476D01*
X9605000Y-26558714D01*
X9614524Y-26549190D01*
X9633571Y-26539667D01*
X9681190Y-26539667D01*
X9700238Y-26549190D01*
X9709762Y-26558714D01*
X9719286Y-26577762D01*
X9719286Y-26625381D01*
X9709762Y-26644428D01*
X9700238Y-26653952D01*
X9681190Y-26663476D01*
X9633571Y-26663476D01*
X9614524Y-26653952D01*
X9605000Y-26644428D01*
X9795476Y-26463476D02*
X9795476Y-26501571D01*
X9871667Y-26463476D02*
X9871667Y-26501571D01*
X10166905Y-26739667D02*
X10157381Y-26730143D01*
X10138333Y-26701571D01*
X10128810Y-26682524D01*
X10119286Y-26653952D01*
X10109762Y-26606333D01*
X10109762Y-26568238D01*
X10119286Y-26520619D01*
X10128810Y-26492048D01*
X10138333Y-26473000D01*
X10157381Y-26444428D01*
X10166905Y-26434905D01*
X10271667Y-26549190D02*
X10252619Y-26539667D01*
X10243095Y-26530143D01*
X10233571Y-26511095D01*
X10233571Y-26501571D01*
X10243095Y-26482524D01*
X10252619Y-26473000D01*
X10271667Y-26463476D01*
X10309762Y-26463476D01*
X10328810Y-26473000D01*
X10338333Y-26482524D01*
X10347857Y-26501571D01*
X10347857Y-26511095D01*
X10338333Y-26530143D01*
X10328810Y-26539667D01*
X10309762Y-26549190D01*
X10271667Y-26549190D01*
X10252619Y-26558714D01*
X10243095Y-26568238D01*
X10233571Y-26587286D01*
X10233571Y-26625381D01*
X10243095Y-26644428D01*
X10252619Y-26653952D01*
X10271667Y-26663476D01*
X10309762Y-26663476D01*
X10328810Y-26653952D01*
X10338333Y-26644428D01*
X10347857Y-26625381D01*
X10347857Y-26587286D01*
X10338333Y-26568238D01*
X10328810Y-26558714D01*
X10309762Y-26549190D01*
X10585952Y-26663476D02*
X10585952Y-26463476D01*
X10671667Y-26663476D02*
X10671667Y-26558714D01*
X10662143Y-26539667D01*
X10643095Y-26530143D01*
X10614524Y-26530143D01*
X10595476Y-26539667D01*
X10585952Y-26549190D01*
X10795476Y-26663476D02*
X10776429Y-26653952D01*
X10766905Y-26644428D01*
X10757381Y-26625381D01*
X10757381Y-26568238D01*
X10766905Y-26549190D01*
X10776429Y-26539667D01*
X10795476Y-26530143D01*
X10824048Y-26530143D01*
X10843095Y-26539667D01*
X10852619Y-26549190D01*
X10862143Y-26568238D01*
X10862143Y-26625381D01*
X10852619Y-26644428D01*
X10843095Y-26653952D01*
X10824048Y-26663476D01*
X10795476Y-26663476D01*
X10976429Y-26663476D02*
X10957381Y-26653952D01*
X10947857Y-26634905D01*
X10947857Y-26463476D01*
X11128810Y-26653952D02*
X11109762Y-26663476D01*
X11071667Y-26663476D01*
X11052619Y-26653952D01*
X11043095Y-26634905D01*
X11043095Y-26558714D01*
X11052619Y-26539667D01*
X11071667Y-26530143D01*
X11109762Y-26530143D01*
X11128810Y-26539667D01*
X11138333Y-26558714D01*
X11138333Y-26577762D01*
X11043095Y-26596809D01*
X11214524Y-26653952D02*
X11233571Y-26663476D01*
X11271667Y-26663476D01*
X11290714Y-26653952D01*
X11300238Y-26634905D01*
X11300238Y-26625381D01*
X11290714Y-26606333D01*
X11271667Y-26596809D01*
X11243095Y-26596809D01*
X11224048Y-26587286D01*
X11214524Y-26568238D01*
X11214524Y-26558714D01*
X11224048Y-26539667D01*
X11243095Y-26530143D01*
X11271667Y-26530143D01*
X11290714Y-26539667D01*
X11366905Y-26739667D02*
X11376428Y-26730143D01*
X11395476Y-26701571D01*
X11405000Y-26682524D01*
X11414524Y-26653952D01*
X11424048Y-26606333D01*
X11424048Y-26568238D01*
X11414524Y-26520619D01*
X11405000Y-26492048D01*
X11395476Y-26473000D01*
X11376428Y-26444428D01*
X11366905Y-26434905D01*
D15*
X6583284Y-26865284D02*
X6583284Y-26808715D01*
X6526715Y-26808715D01*
X6526715Y-26865284D01*
X6583284Y-26865284D01*
D11*
X6890714Y-26727476D02*
X6909762Y-26727476D01*
X6928809Y-26737000D01*
X6938333Y-26746524D01*
X6947857Y-26765571D01*
X6957381Y-26803667D01*
X6957381Y-26851286D01*
X6947857Y-26889381D01*
X6938333Y-26908428D01*
X6928809Y-26917952D01*
X6909762Y-26927476D01*
X6890714Y-26927476D01*
X6871667Y-26917952D01*
X6862143Y-26908428D01*
X6852619Y-26889381D01*
X6843095Y-26851286D01*
X6843095Y-26803667D01*
X6852619Y-26765571D01*
X6862143Y-26746524D01*
X6871667Y-26737000D01*
X6890714Y-26727476D01*
X7043095Y-26908428D02*
X7052619Y-26917952D01*
X7043095Y-26927476D01*
X7033571Y-26917952D01*
X7043095Y-26908428D01*
X7043095Y-26927476D01*
X7166905Y-26813190D02*
X7147857Y-26803667D01*
X7138333Y-26794143D01*
X7128809Y-26775095D01*
X7128809Y-26765571D01*
X7138333Y-26746524D01*
X7147857Y-26737000D01*
X7166905Y-26727476D01*
X7205000Y-26727476D01*
X7224048Y-26737000D01*
X7233571Y-26746524D01*
X7243095Y-26765571D01*
X7243095Y-26775095D01*
X7233571Y-26794143D01*
X7224048Y-26803667D01*
X7205000Y-26813190D01*
X7166905Y-26813190D01*
X7147857Y-26822714D01*
X7138333Y-26832238D01*
X7128809Y-26851286D01*
X7128809Y-26889381D01*
X7138333Y-26908428D01*
X7147857Y-26917952D01*
X7166905Y-26927476D01*
X7205000Y-26927476D01*
X7224048Y-26917952D01*
X7233571Y-26908428D01*
X7243095Y-26889381D01*
X7243095Y-26851286D01*
X7233571Y-26832238D01*
X7224048Y-26822714D01*
X7205000Y-26813190D01*
X7366905Y-26727476D02*
X7385952Y-26727476D01*
X7405000Y-26737000D01*
X7414524Y-26746524D01*
X7424048Y-26765571D01*
X7433571Y-26803667D01*
X7433571Y-26851286D01*
X7424048Y-26889381D01*
X7414524Y-26908428D01*
X7405000Y-26917952D01*
X7385952Y-26927476D01*
X7366905Y-26927476D01*
X7347857Y-26917952D01*
X7338333Y-26908428D01*
X7328809Y-26889381D01*
X7319286Y-26851286D01*
X7319286Y-26803667D01*
X7328809Y-26765571D01*
X7338333Y-26746524D01*
X7347857Y-26737000D01*
X7366905Y-26727476D01*
X7557381Y-26727476D02*
X7576428Y-26727476D01*
X7595476Y-26737000D01*
X7605000Y-26746524D01*
X7614524Y-26765571D01*
X7624048Y-26803667D01*
X7624048Y-26851286D01*
X7614524Y-26889381D01*
X7605000Y-26908428D01*
X7595476Y-26917952D01*
X7576428Y-26927476D01*
X7557381Y-26927476D01*
X7538333Y-26917952D01*
X7528809Y-26908428D01*
X7519286Y-26889381D01*
X7509762Y-26851286D01*
X7509762Y-26803667D01*
X7519286Y-26765571D01*
X7528809Y-26746524D01*
X7538333Y-26737000D01*
X7557381Y-26727476D01*
X7709762Y-26927476D02*
X7709762Y-26794143D01*
X7709762Y-26813190D02*
X7719286Y-26803667D01*
X7738333Y-26794143D01*
X7766905Y-26794143D01*
X7785952Y-26803667D01*
X7795476Y-26822714D01*
X7795476Y-26927476D01*
X7795476Y-26822714D02*
X7805000Y-26803667D01*
X7824048Y-26794143D01*
X7852619Y-26794143D01*
X7871667Y-26803667D01*
X7881190Y-26822714D01*
X7881190Y-26927476D01*
X7976428Y-26927476D02*
X7976428Y-26794143D01*
X7976428Y-26813190D02*
X7985952Y-26803667D01*
X8005000Y-26794143D01*
X8033571Y-26794143D01*
X8052619Y-26803667D01*
X8062143Y-26822714D01*
X8062143Y-26927476D01*
X8062143Y-26822714D02*
X8071667Y-26803667D01*
X8090714Y-26794143D01*
X8119286Y-26794143D01*
X8138333Y-26803667D01*
X8147857Y-26822714D01*
X8147857Y-26927476D01*
X8538333Y-26717952D02*
X8366905Y-26975095D01*
X8795476Y-26727476D02*
X8814524Y-26727476D01*
X8833571Y-26737000D01*
X8843095Y-26746524D01*
X8852619Y-26765571D01*
X8862143Y-26803667D01*
X8862143Y-26851286D01*
X8852619Y-26889381D01*
X8843095Y-26908428D01*
X8833571Y-26917952D01*
X8814524Y-26927476D01*
X8795476Y-26927476D01*
X8776429Y-26917952D01*
X8766905Y-26908428D01*
X8757381Y-26889381D01*
X8747857Y-26851286D01*
X8747857Y-26803667D01*
X8757381Y-26765571D01*
X8766905Y-26746524D01*
X8776429Y-26737000D01*
X8795476Y-26727476D01*
X8947857Y-26908428D02*
X8957381Y-26917952D01*
X8947857Y-26927476D01*
X8938333Y-26917952D01*
X8947857Y-26908428D01*
X8947857Y-26927476D01*
X9081190Y-26727476D02*
X9100238Y-26727476D01*
X9119286Y-26737000D01*
X9128810Y-26746524D01*
X9138333Y-26765571D01*
X9147857Y-26803667D01*
X9147857Y-26851286D01*
X9138333Y-26889381D01*
X9128810Y-26908428D01*
X9119286Y-26917952D01*
X9100238Y-26927476D01*
X9081190Y-26927476D01*
X9062143Y-26917952D01*
X9052619Y-26908428D01*
X9043095Y-26889381D01*
X9033571Y-26851286D01*
X9033571Y-26803667D01*
X9043095Y-26765571D01*
X9052619Y-26746524D01*
X9062143Y-26737000D01*
X9081190Y-26727476D01*
X9214524Y-26727476D02*
X9338333Y-26727476D01*
X9271667Y-26803667D01*
X9300238Y-26803667D01*
X9319286Y-26813190D01*
X9328810Y-26822714D01*
X9338333Y-26841762D01*
X9338333Y-26889381D01*
X9328810Y-26908428D01*
X9319286Y-26917952D01*
X9300238Y-26927476D01*
X9243095Y-26927476D01*
X9224048Y-26917952D01*
X9214524Y-26908428D01*
X9528810Y-26927476D02*
X9414524Y-26927476D01*
X9471667Y-26927476D02*
X9471667Y-26727476D01*
X9452619Y-26756048D01*
X9433571Y-26775095D01*
X9414524Y-26784619D01*
X9709762Y-26727476D02*
X9614524Y-26727476D01*
X9605000Y-26822714D01*
X9614524Y-26813190D01*
X9633571Y-26803667D01*
X9681190Y-26803667D01*
X9700238Y-26813190D01*
X9709762Y-26822714D01*
X9719286Y-26841762D01*
X9719286Y-26889381D01*
X9709762Y-26908428D01*
X9700238Y-26917952D01*
X9681190Y-26927476D01*
X9633571Y-26927476D01*
X9614524Y-26917952D01*
X9605000Y-26908428D01*
X9795476Y-26727476D02*
X9795476Y-26765571D01*
X9871667Y-26727476D02*
X9871667Y-26765571D01*
X10166905Y-27003667D02*
X10157381Y-26994143D01*
X10138333Y-26965571D01*
X10128810Y-26946524D01*
X10119286Y-26917952D01*
X10109762Y-26870333D01*
X10109762Y-26832238D01*
X10119286Y-26784619D01*
X10128810Y-26756048D01*
X10138333Y-26737000D01*
X10157381Y-26708428D01*
X10166905Y-26698905D01*
X10252619Y-26927476D02*
X10290714Y-26927476D01*
X10309762Y-26917952D01*
X10319286Y-26908428D01*
X10338333Y-26879857D01*
X10347857Y-26841762D01*
X10347857Y-26765571D01*
X10338333Y-26746524D01*
X10328810Y-26737000D01*
X10309762Y-26727476D01*
X10271667Y-26727476D01*
X10252619Y-26737000D01*
X10243095Y-26746524D01*
X10233571Y-26765571D01*
X10233571Y-26813190D01*
X10243095Y-26832238D01*
X10252619Y-26841762D01*
X10271667Y-26851286D01*
X10309762Y-26851286D01*
X10328810Y-26841762D01*
X10338333Y-26832238D01*
X10347857Y-26813190D01*
X10519286Y-26794143D02*
X10519286Y-26927476D01*
X10471667Y-26717952D02*
X10424048Y-26860809D01*
X10547857Y-26860809D01*
X10776429Y-26927476D02*
X10776429Y-26727476D01*
X10862143Y-26927476D02*
X10862143Y-26822714D01*
X10852619Y-26803667D01*
X10833571Y-26794143D01*
X10805000Y-26794143D01*
X10785952Y-26803667D01*
X10776429Y-26813190D01*
X10985952Y-26927476D02*
X10966905Y-26917952D01*
X10957381Y-26908428D01*
X10947857Y-26889381D01*
X10947857Y-26832238D01*
X10957381Y-26813190D01*
X10966905Y-26803667D01*
X10985952Y-26794143D01*
X11014524Y-26794143D01*
X11033571Y-26803667D01*
X11043095Y-26813190D01*
X11052619Y-26832238D01*
X11052619Y-26889381D01*
X11043095Y-26908428D01*
X11033571Y-26917952D01*
X11014524Y-26927476D01*
X10985952Y-26927476D01*
X11166905Y-26927476D02*
X11147857Y-26917952D01*
X11138333Y-26898905D01*
X11138333Y-26727476D01*
X11319286Y-26917952D02*
X11300238Y-26927476D01*
X11262143Y-26927476D01*
X11243095Y-26917952D01*
X11233571Y-26898905D01*
X11233571Y-26822714D01*
X11243095Y-26803667D01*
X11262143Y-26794143D01*
X11300238Y-26794143D01*
X11319286Y-26803667D01*
X11328809Y-26822714D01*
X11328809Y-26841762D01*
X11233571Y-26860809D01*
X11405000Y-26917952D02*
X11424048Y-26927476D01*
X11462143Y-26927476D01*
X11481190Y-26917952D01*
X11490714Y-26898905D01*
X11490714Y-26889381D01*
X11481190Y-26870333D01*
X11462143Y-26860809D01*
X11433571Y-26860809D01*
X11414524Y-26851286D01*
X11405000Y-26832238D01*
X11405000Y-26822714D01*
X11414524Y-26803667D01*
X11433571Y-26794143D01*
X11462143Y-26794143D01*
X11481190Y-26803667D01*
X11557381Y-27003667D02*
X11566905Y-26994143D01*
X11585952Y-26965571D01*
X11595476Y-26946524D01*
X11605000Y-26917952D01*
X11614524Y-26870333D01*
X11614524Y-26832238D01*
X11605000Y-26784619D01*
X11595476Y-26756048D01*
X11585952Y-26737000D01*
X11566905Y-26708428D01*
X11557381Y-26698905D01*
D10*
X6545000Y-27151000D02*
X6595000Y-27101000D01*
X6545000Y-27051000D01*
X6495000Y-27101000D01*
X6545000Y-27151000D01*
D11*
X6957381Y-27191476D02*
X6843095Y-27191476D01*
X6900238Y-27191476D02*
X6900238Y-26991476D01*
X6881190Y-27020048D01*
X6862143Y-27039095D01*
X6843095Y-27048619D01*
X7043095Y-27172428D02*
X7052619Y-27181952D01*
X7043095Y-27191476D01*
X7033571Y-27181952D01*
X7043095Y-27172428D01*
X7043095Y-27191476D01*
X7176428Y-26991476D02*
X7195476Y-26991476D01*
X7214524Y-27001000D01*
X7224048Y-27010524D01*
X7233571Y-27029571D01*
X7243095Y-27067667D01*
X7243095Y-27115286D01*
X7233571Y-27153381D01*
X7224048Y-27172428D01*
X7214524Y-27181952D01*
X7195476Y-27191476D01*
X7176428Y-27191476D01*
X7157381Y-27181952D01*
X7147857Y-27172428D01*
X7138333Y-27153381D01*
X7128809Y-27115286D01*
X7128809Y-27067667D01*
X7138333Y-27029571D01*
X7147857Y-27010524D01*
X7157381Y-27001000D01*
X7176428Y-26991476D01*
X7366905Y-26991476D02*
X7385952Y-26991476D01*
X7405000Y-27001000D01*
X7414524Y-27010524D01*
X7424048Y-27029571D01*
X7433571Y-27067667D01*
X7433571Y-27115286D01*
X7424048Y-27153381D01*
X7414524Y-27172428D01*
X7405000Y-27181952D01*
X7385952Y-27191476D01*
X7366905Y-27191476D01*
X7347857Y-27181952D01*
X7338333Y-27172428D01*
X7328809Y-27153381D01*
X7319286Y-27115286D01*
X7319286Y-27067667D01*
X7328809Y-27029571D01*
X7338333Y-27010524D01*
X7347857Y-27001000D01*
X7366905Y-26991476D01*
X7557381Y-26991476D02*
X7576428Y-26991476D01*
X7595476Y-27001000D01*
X7605000Y-27010524D01*
X7614524Y-27029571D01*
X7624048Y-27067667D01*
X7624048Y-27115286D01*
X7614524Y-27153381D01*
X7605000Y-27172428D01*
X7595476Y-27181952D01*
X7576428Y-27191476D01*
X7557381Y-27191476D01*
X7538333Y-27181952D01*
X7528809Y-27172428D01*
X7519286Y-27153381D01*
X7509762Y-27115286D01*
X7509762Y-27067667D01*
X7519286Y-27029571D01*
X7528809Y-27010524D01*
X7538333Y-27001000D01*
X7557381Y-26991476D01*
X7709762Y-27191476D02*
X7709762Y-27058143D01*
X7709762Y-27077190D02*
X7719286Y-27067667D01*
X7738333Y-27058143D01*
X7766905Y-27058143D01*
X7785952Y-27067667D01*
X7795476Y-27086714D01*
X7795476Y-27191476D01*
X7795476Y-27086714D02*
X7805000Y-27067667D01*
X7824048Y-27058143D01*
X7852619Y-27058143D01*
X7871667Y-27067667D01*
X7881190Y-27086714D01*
X7881190Y-27191476D01*
X7976428Y-27191476D02*
X7976428Y-27058143D01*
X7976428Y-27077190D02*
X7985952Y-27067667D01*
X8005000Y-27058143D01*
X8033571Y-27058143D01*
X8052619Y-27067667D01*
X8062143Y-27086714D01*
X8062143Y-27191476D01*
X8062143Y-27086714D02*
X8071667Y-27067667D01*
X8090714Y-27058143D01*
X8119286Y-27058143D01*
X8138333Y-27067667D01*
X8147857Y-27086714D01*
X8147857Y-27191476D01*
X8538333Y-26981952D02*
X8366905Y-27239095D01*
X8795476Y-26991476D02*
X8814524Y-26991476D01*
X8833571Y-27001000D01*
X8843095Y-27010524D01*
X8852619Y-27029571D01*
X8862143Y-27067667D01*
X8862143Y-27115286D01*
X8852619Y-27153381D01*
X8843095Y-27172428D01*
X8833571Y-27181952D01*
X8814524Y-27191476D01*
X8795476Y-27191476D01*
X8776429Y-27181952D01*
X8766905Y-27172428D01*
X8757381Y-27153381D01*
X8747857Y-27115286D01*
X8747857Y-27067667D01*
X8757381Y-27029571D01*
X8766905Y-27010524D01*
X8776429Y-27001000D01*
X8795476Y-26991476D01*
X8947857Y-27172428D02*
X8957381Y-27181952D01*
X8947857Y-27191476D01*
X8938333Y-27181952D01*
X8947857Y-27172428D01*
X8947857Y-27191476D01*
X9081190Y-26991476D02*
X9100238Y-26991476D01*
X9119286Y-27001000D01*
X9128810Y-27010524D01*
X9138333Y-27029571D01*
X9147857Y-27067667D01*
X9147857Y-27115286D01*
X9138333Y-27153381D01*
X9128810Y-27172428D01*
X9119286Y-27181952D01*
X9100238Y-27191476D01*
X9081190Y-27191476D01*
X9062143Y-27181952D01*
X9052619Y-27172428D01*
X9043095Y-27153381D01*
X9033571Y-27115286D01*
X9033571Y-27067667D01*
X9043095Y-27029571D01*
X9052619Y-27010524D01*
X9062143Y-27001000D01*
X9081190Y-26991476D01*
X9214524Y-26991476D02*
X9338333Y-26991476D01*
X9271667Y-27067667D01*
X9300238Y-27067667D01*
X9319286Y-27077190D01*
X9328810Y-27086714D01*
X9338333Y-27105762D01*
X9338333Y-27153381D01*
X9328810Y-27172428D01*
X9319286Y-27181952D01*
X9300238Y-27191476D01*
X9243095Y-27191476D01*
X9224048Y-27181952D01*
X9214524Y-27172428D01*
X9433571Y-27191476D02*
X9471667Y-27191476D01*
X9490714Y-27181952D01*
X9500238Y-27172428D01*
X9519286Y-27143857D01*
X9528810Y-27105762D01*
X9528810Y-27029571D01*
X9519286Y-27010524D01*
X9509762Y-27001000D01*
X9490714Y-26991476D01*
X9452619Y-26991476D01*
X9433571Y-27001000D01*
X9424048Y-27010524D01*
X9414524Y-27029571D01*
X9414524Y-27077190D01*
X9424048Y-27096238D01*
X9433571Y-27105762D01*
X9452619Y-27115286D01*
X9490714Y-27115286D01*
X9509762Y-27105762D01*
X9519286Y-27096238D01*
X9528810Y-27077190D01*
X9700238Y-27058143D02*
X9700238Y-27191476D01*
X9652619Y-26981952D02*
X9605000Y-27124809D01*
X9728810Y-27124809D01*
X9795476Y-26991476D02*
X9795476Y-27029571D01*
X9871667Y-26991476D02*
X9871667Y-27029571D01*
X10166905Y-27267667D02*
X10157381Y-27258143D01*
X10138333Y-27229571D01*
X10128810Y-27210524D01*
X10119286Y-27181952D01*
X10109762Y-27134333D01*
X10109762Y-27096238D01*
X10119286Y-27048619D01*
X10128810Y-27020048D01*
X10138333Y-27001000D01*
X10157381Y-26972428D01*
X10166905Y-26962905D01*
X10328810Y-27058143D02*
X10328810Y-27191476D01*
X10281190Y-26981952D02*
X10233571Y-27124809D01*
X10357381Y-27124809D01*
X10585952Y-27191476D02*
X10585952Y-26991476D01*
X10671667Y-27191476D02*
X10671667Y-27086714D01*
X10662143Y-27067667D01*
X10643095Y-27058143D01*
X10614524Y-27058143D01*
X10595476Y-27067667D01*
X10585952Y-27077190D01*
X10795476Y-27191476D02*
X10776429Y-27181952D01*
X10766905Y-27172428D01*
X10757381Y-27153381D01*
X10757381Y-27096238D01*
X10766905Y-27077190D01*
X10776429Y-27067667D01*
X10795476Y-27058143D01*
X10824048Y-27058143D01*
X10843095Y-27067667D01*
X10852619Y-27077190D01*
X10862143Y-27096238D01*
X10862143Y-27153381D01*
X10852619Y-27172428D01*
X10843095Y-27181952D01*
X10824048Y-27191476D01*
X10795476Y-27191476D01*
X10976429Y-27191476D02*
X10957381Y-27181952D01*
X10947857Y-27162905D01*
X10947857Y-26991476D01*
X11128810Y-27181952D02*
X11109762Y-27191476D01*
X11071667Y-27191476D01*
X11052619Y-27181952D01*
X11043095Y-27162905D01*
X11043095Y-27086714D01*
X11052619Y-27067667D01*
X11071667Y-27058143D01*
X11109762Y-27058143D01*
X11128810Y-27067667D01*
X11138333Y-27086714D01*
X11138333Y-27105762D01*
X11043095Y-27124809D01*
X11214524Y-27181952D02*
X11233571Y-27191476D01*
X11271667Y-27191476D01*
X11290714Y-27181952D01*
X11300238Y-27162905D01*
X11300238Y-27153381D01*
X11290714Y-27134333D01*
X11271667Y-27124809D01*
X11243095Y-27124809D01*
X11224048Y-27115286D01*
X11214524Y-27096238D01*
X11214524Y-27086714D01*
X11224048Y-27067667D01*
X11243095Y-27058143D01*
X11271667Y-27058143D01*
X11290714Y-27067667D01*
X11366905Y-27267667D02*
X11376428Y-27258143D01*
X11395476Y-27229571D01*
X11405000Y-27210524D01*
X11414524Y-27181952D01*
X11424048Y-27134333D01*
X11424048Y-27096238D01*
X11414524Y-27048619D01*
X11405000Y-27020048D01*
X11395476Y-27001000D01*
X11376428Y-26972428D01*
X11366905Y-26962905D01*
D16*
X6493000Y-27314000D02*
X6595000Y-27416000D01*
X6595000Y-27314000D02*
X6493000Y-27416000D01*
X6595000Y-27365000D02*
G75*
G03*
X6595000Y-27365000I-51000J0D01*
G01*
D11*
X6957381Y-27455476D02*
X6843095Y-27455476D01*
X6900238Y-27455476D02*
X6900238Y-27255476D01*
X6881190Y-27284048D01*
X6862143Y-27303095D01*
X6843095Y-27312619D01*
X7043095Y-27436428D02*
X7052619Y-27445952D01*
X7043095Y-27455476D01*
X7033571Y-27445952D01*
X7043095Y-27436428D01*
X7043095Y-27455476D01*
X7176428Y-27255476D02*
X7195476Y-27255476D01*
X7214524Y-27265000D01*
X7224048Y-27274524D01*
X7233571Y-27293571D01*
X7243095Y-27331667D01*
X7243095Y-27379286D01*
X7233571Y-27417381D01*
X7224048Y-27436428D01*
X7214524Y-27445952D01*
X7195476Y-27455476D01*
X7176428Y-27455476D01*
X7157381Y-27445952D01*
X7147857Y-27436428D01*
X7138333Y-27417381D01*
X7128809Y-27379286D01*
X7128809Y-27331667D01*
X7138333Y-27293571D01*
X7147857Y-27274524D01*
X7157381Y-27265000D01*
X7176428Y-27255476D01*
X7319286Y-27274524D02*
X7328809Y-27265000D01*
X7347857Y-27255476D01*
X7395476Y-27255476D01*
X7414524Y-27265000D01*
X7424048Y-27274524D01*
X7433571Y-27293571D01*
X7433571Y-27312619D01*
X7424048Y-27341190D01*
X7309762Y-27455476D01*
X7433571Y-27455476D01*
X7557381Y-27255476D02*
X7576428Y-27255476D01*
X7595476Y-27265000D01*
X7605000Y-27274524D01*
X7614524Y-27293571D01*
X7624048Y-27331667D01*
X7624048Y-27379286D01*
X7614524Y-27417381D01*
X7605000Y-27436428D01*
X7595476Y-27445952D01*
X7576428Y-27455476D01*
X7557381Y-27455476D01*
X7538333Y-27445952D01*
X7528809Y-27436428D01*
X7519286Y-27417381D01*
X7509762Y-27379286D01*
X7509762Y-27331667D01*
X7519286Y-27293571D01*
X7528809Y-27274524D01*
X7538333Y-27265000D01*
X7557381Y-27255476D01*
X7709762Y-27455476D02*
X7709762Y-27322143D01*
X7709762Y-27341190D02*
X7719286Y-27331667D01*
X7738333Y-27322143D01*
X7766905Y-27322143D01*
X7785952Y-27331667D01*
X7795476Y-27350714D01*
X7795476Y-27455476D01*
X7795476Y-27350714D02*
X7805000Y-27331667D01*
X7824048Y-27322143D01*
X7852619Y-27322143D01*
X7871667Y-27331667D01*
X7881190Y-27350714D01*
X7881190Y-27455476D01*
X7976428Y-27455476D02*
X7976428Y-27322143D01*
X7976428Y-27341190D02*
X7985952Y-27331667D01*
X8005000Y-27322143D01*
X8033571Y-27322143D01*
X8052619Y-27331667D01*
X8062143Y-27350714D01*
X8062143Y-27455476D01*
X8062143Y-27350714D02*
X8071667Y-27331667D01*
X8090714Y-27322143D01*
X8119286Y-27322143D01*
X8138333Y-27331667D01*
X8147857Y-27350714D01*
X8147857Y-27455476D01*
X8538333Y-27245952D02*
X8366905Y-27503095D01*
X8795476Y-27255476D02*
X8814524Y-27255476D01*
X8833571Y-27265000D01*
X8843095Y-27274524D01*
X8852619Y-27293571D01*
X8862143Y-27331667D01*
X8862143Y-27379286D01*
X8852619Y-27417381D01*
X8843095Y-27436428D01*
X8833571Y-27445952D01*
X8814524Y-27455476D01*
X8795476Y-27455476D01*
X8776429Y-27445952D01*
X8766905Y-27436428D01*
X8757381Y-27417381D01*
X8747857Y-27379286D01*
X8747857Y-27331667D01*
X8757381Y-27293571D01*
X8766905Y-27274524D01*
X8776429Y-27265000D01*
X8795476Y-27255476D01*
X8947857Y-27436428D02*
X8957381Y-27445952D01*
X8947857Y-27455476D01*
X8938333Y-27445952D01*
X8947857Y-27436428D01*
X8947857Y-27455476D01*
X9081190Y-27255476D02*
X9100238Y-27255476D01*
X9119286Y-27265000D01*
X9128810Y-27274524D01*
X9138333Y-27293571D01*
X9147857Y-27331667D01*
X9147857Y-27379286D01*
X9138333Y-27417381D01*
X9128810Y-27436428D01*
X9119286Y-27445952D01*
X9100238Y-27455476D01*
X9081190Y-27455476D01*
X9062143Y-27445952D01*
X9052619Y-27436428D01*
X9043095Y-27417381D01*
X9033571Y-27379286D01*
X9033571Y-27331667D01*
X9043095Y-27293571D01*
X9052619Y-27274524D01*
X9062143Y-27265000D01*
X9081190Y-27255476D01*
X9319286Y-27322143D02*
X9319286Y-27455476D01*
X9271667Y-27245952D02*
X9224048Y-27388809D01*
X9347857Y-27388809D01*
X9462143Y-27255476D02*
X9481190Y-27255476D01*
X9500238Y-27265000D01*
X9509762Y-27274524D01*
X9519286Y-27293571D01*
X9528810Y-27331667D01*
X9528810Y-27379286D01*
X9519286Y-27417381D01*
X9509762Y-27436428D01*
X9500238Y-27445952D01*
X9481190Y-27455476D01*
X9462143Y-27455476D01*
X9443095Y-27445952D01*
X9433571Y-27436428D01*
X9424048Y-27417381D01*
X9414524Y-27379286D01*
X9414524Y-27331667D01*
X9424048Y-27293571D01*
X9433571Y-27274524D01*
X9443095Y-27265000D01*
X9462143Y-27255476D01*
X9605000Y-27274524D02*
X9614524Y-27265000D01*
X9633571Y-27255476D01*
X9681190Y-27255476D01*
X9700238Y-27265000D01*
X9709762Y-27274524D01*
X9719286Y-27293571D01*
X9719286Y-27312619D01*
X9709762Y-27341190D01*
X9595476Y-27455476D01*
X9719286Y-27455476D01*
X9795476Y-27255476D02*
X9795476Y-27293571D01*
X9871667Y-27255476D02*
X9871667Y-27293571D01*
X10166905Y-27531667D02*
X10157381Y-27522143D01*
X10138333Y-27493571D01*
X10128810Y-27474524D01*
X10119286Y-27445952D01*
X10109762Y-27398333D01*
X10109762Y-27360238D01*
X10119286Y-27312619D01*
X10128810Y-27284048D01*
X10138333Y-27265000D01*
X10157381Y-27236428D01*
X10166905Y-27226905D01*
X10328810Y-27322143D02*
X10328810Y-27455476D01*
X10281190Y-27245952D02*
X10233571Y-27388809D01*
X10357381Y-27388809D01*
X10414524Y-27255476D02*
X10538333Y-27255476D01*
X10471667Y-27331667D01*
X10500238Y-27331667D01*
X10519286Y-27341190D01*
X10528810Y-27350714D01*
X10538333Y-27369762D01*
X10538333Y-27417381D01*
X10528810Y-27436428D01*
X10519286Y-27445952D01*
X10500238Y-27455476D01*
X10443095Y-27455476D01*
X10424048Y-27445952D01*
X10414524Y-27436428D01*
X10776429Y-27455476D02*
X10776429Y-27255476D01*
X10862143Y-27455476D02*
X10862143Y-27350714D01*
X10852619Y-27331667D01*
X10833571Y-27322143D01*
X10805000Y-27322143D01*
X10785952Y-27331667D01*
X10776429Y-27341190D01*
X10985952Y-27455476D02*
X10966905Y-27445952D01*
X10957381Y-27436428D01*
X10947857Y-27417381D01*
X10947857Y-27360238D01*
X10957381Y-27341190D01*
X10966905Y-27331667D01*
X10985952Y-27322143D01*
X11014524Y-27322143D01*
X11033571Y-27331667D01*
X11043095Y-27341190D01*
X11052619Y-27360238D01*
X11052619Y-27417381D01*
X11043095Y-27436428D01*
X11033571Y-27445952D01*
X11014524Y-27455476D01*
X10985952Y-27455476D01*
X11166905Y-27455476D02*
X11147857Y-27445952D01*
X11138333Y-27426905D01*
X11138333Y-27255476D01*
X11319286Y-27445952D02*
X11300238Y-27455476D01*
X11262143Y-27455476D01*
X11243095Y-27445952D01*
X11233571Y-27426905D01*
X11233571Y-27350714D01*
X11243095Y-27331667D01*
X11262143Y-27322143D01*
X11300238Y-27322143D01*
X11319286Y-27331667D01*
X11328809Y-27350714D01*
X11328809Y-27369762D01*
X11233571Y-27388809D01*
X11405000Y-27445952D02*
X11424048Y-27455476D01*
X11462143Y-27455476D01*
X11481190Y-27445952D01*
X11490714Y-27426905D01*
X11490714Y-27417381D01*
X11481190Y-27398333D01*
X11462143Y-27388809D01*
X11433571Y-27388809D01*
X11414524Y-27379286D01*
X11405000Y-27360238D01*
X11405000Y-27350714D01*
X11414524Y-27331667D01*
X11433571Y-27322143D01*
X11462143Y-27322143D01*
X11481190Y-27331667D01*
X11557381Y-27531667D02*
X11566905Y-27522143D01*
X11585952Y-27493571D01*
X11595476Y-27474524D01*
X11605000Y-27445952D01*
X11614524Y-27398333D01*
X11614524Y-27360238D01*
X11605000Y-27312619D01*
X11595476Y-27284048D01*
X11585952Y-27265000D01*
X11566905Y-27236428D01*
X11557381Y-27226905D01*
D17*
X6485000Y-27574000D02*
X6595000Y-27684000D01*
X6595000Y-27574000D02*
X6485000Y-27684000D01*
X6540000Y-27574000D02*
X6540000Y-27684000D01*
X6485000Y-27629000D02*
X6595000Y-27629000D01*
D11*
X6957381Y-27719476D02*
X6843095Y-27719476D01*
X6900238Y-27719476D02*
X6900238Y-27519476D01*
X6881190Y-27548048D01*
X6862143Y-27567095D01*
X6843095Y-27576619D01*
X7043095Y-27700428D02*
X7052619Y-27709952D01*
X7043095Y-27719476D01*
X7033571Y-27709952D01*
X7043095Y-27700428D01*
X7043095Y-27719476D01*
X7243095Y-27719476D02*
X7128809Y-27719476D01*
X7185952Y-27719476D02*
X7185952Y-27519476D01*
X7166905Y-27548048D01*
X7147857Y-27567095D01*
X7128809Y-27576619D01*
X7366905Y-27519476D02*
X7385952Y-27519476D01*
X7405000Y-27529000D01*
X7414524Y-27538524D01*
X7424048Y-27557571D01*
X7433571Y-27595667D01*
X7433571Y-27643286D01*
X7424048Y-27681381D01*
X7414524Y-27700428D01*
X7405000Y-27709952D01*
X7385952Y-27719476D01*
X7366905Y-27719476D01*
X7347857Y-27709952D01*
X7338333Y-27700428D01*
X7328809Y-27681381D01*
X7319286Y-27643286D01*
X7319286Y-27595667D01*
X7328809Y-27557571D01*
X7338333Y-27538524D01*
X7347857Y-27529000D01*
X7366905Y-27519476D01*
X7557381Y-27519476D02*
X7576428Y-27519476D01*
X7595476Y-27529000D01*
X7605000Y-27538524D01*
X7614524Y-27557571D01*
X7624048Y-27595667D01*
X7624048Y-27643286D01*
X7614524Y-27681381D01*
X7605000Y-27700428D01*
X7595476Y-27709952D01*
X7576428Y-27719476D01*
X7557381Y-27719476D01*
X7538333Y-27709952D01*
X7528809Y-27700428D01*
X7519286Y-27681381D01*
X7509762Y-27643286D01*
X7509762Y-27595667D01*
X7519286Y-27557571D01*
X7528809Y-27538524D01*
X7538333Y-27529000D01*
X7557381Y-27519476D01*
X7709762Y-27719476D02*
X7709762Y-27586143D01*
X7709762Y-27605190D02*
X7719286Y-27595667D01*
X7738333Y-27586143D01*
X7766905Y-27586143D01*
X7785952Y-27595667D01*
X7795476Y-27614714D01*
X7795476Y-27719476D01*
X7795476Y-27614714D02*
X7805000Y-27595667D01*
X7824048Y-27586143D01*
X7852619Y-27586143D01*
X7871667Y-27595667D01*
X7881190Y-27614714D01*
X7881190Y-27719476D01*
X7976428Y-27719476D02*
X7976428Y-27586143D01*
X7976428Y-27605190D02*
X7985952Y-27595667D01*
X8005000Y-27586143D01*
X8033571Y-27586143D01*
X8052619Y-27595667D01*
X8062143Y-27614714D01*
X8062143Y-27719476D01*
X8062143Y-27614714D02*
X8071667Y-27595667D01*
X8090714Y-27586143D01*
X8119286Y-27586143D01*
X8138333Y-27595667D01*
X8147857Y-27614714D01*
X8147857Y-27719476D01*
X8538333Y-27509952D02*
X8366905Y-27767095D01*
X8795476Y-27519476D02*
X8814524Y-27519476D01*
X8833571Y-27529000D01*
X8843095Y-27538524D01*
X8852619Y-27557571D01*
X8862143Y-27595667D01*
X8862143Y-27643286D01*
X8852619Y-27681381D01*
X8843095Y-27700428D01*
X8833571Y-27709952D01*
X8814524Y-27719476D01*
X8795476Y-27719476D01*
X8776429Y-27709952D01*
X8766905Y-27700428D01*
X8757381Y-27681381D01*
X8747857Y-27643286D01*
X8747857Y-27595667D01*
X8757381Y-27557571D01*
X8766905Y-27538524D01*
X8776429Y-27529000D01*
X8795476Y-27519476D01*
X8947857Y-27700428D02*
X8957381Y-27709952D01*
X8947857Y-27719476D01*
X8938333Y-27709952D01*
X8947857Y-27700428D01*
X8947857Y-27719476D01*
X9081190Y-27519476D02*
X9100238Y-27519476D01*
X9119286Y-27529000D01*
X9128810Y-27538524D01*
X9138333Y-27557571D01*
X9147857Y-27595667D01*
X9147857Y-27643286D01*
X9138333Y-27681381D01*
X9128810Y-27700428D01*
X9119286Y-27709952D01*
X9100238Y-27719476D01*
X9081190Y-27719476D01*
X9062143Y-27709952D01*
X9052619Y-27700428D01*
X9043095Y-27681381D01*
X9033571Y-27643286D01*
X9033571Y-27595667D01*
X9043095Y-27557571D01*
X9052619Y-27538524D01*
X9062143Y-27529000D01*
X9081190Y-27519476D01*
X9319286Y-27586143D02*
X9319286Y-27719476D01*
X9271667Y-27509952D02*
X9224048Y-27652809D01*
X9347857Y-27652809D01*
X9405000Y-27519476D02*
X9528810Y-27519476D01*
X9462143Y-27595667D01*
X9490714Y-27595667D01*
X9509762Y-27605190D01*
X9519286Y-27614714D01*
X9528810Y-27633762D01*
X9528810Y-27681381D01*
X9519286Y-27700428D01*
X9509762Y-27709952D01*
X9490714Y-27719476D01*
X9433571Y-27719476D01*
X9414524Y-27709952D01*
X9405000Y-27700428D01*
X9595476Y-27519476D02*
X9719286Y-27519476D01*
X9652619Y-27595667D01*
X9681190Y-27595667D01*
X9700238Y-27605190D01*
X9709762Y-27614714D01*
X9719286Y-27633762D01*
X9719286Y-27681381D01*
X9709762Y-27700428D01*
X9700238Y-27709952D01*
X9681190Y-27719476D01*
X9624048Y-27719476D01*
X9605000Y-27709952D01*
X9595476Y-27700428D01*
X9795476Y-27519476D02*
X9795476Y-27557571D01*
X9871667Y-27519476D02*
X9871667Y-27557571D01*
X10166905Y-27795667D02*
X10157381Y-27786143D01*
X10138333Y-27757571D01*
X10128810Y-27738524D01*
X10119286Y-27709952D01*
X10109762Y-27662333D01*
X10109762Y-27624238D01*
X10119286Y-27576619D01*
X10128810Y-27548048D01*
X10138333Y-27529000D01*
X10157381Y-27500428D01*
X10166905Y-27490905D01*
X10328810Y-27586143D02*
X10328810Y-27719476D01*
X10281190Y-27509952D02*
X10233571Y-27652809D01*
X10357381Y-27652809D01*
X10585952Y-27719476D02*
X10585952Y-27519476D01*
X10671667Y-27719476D02*
X10671667Y-27614714D01*
X10662143Y-27595667D01*
X10643095Y-27586143D01*
X10614524Y-27586143D01*
X10595476Y-27595667D01*
X10585952Y-27605190D01*
X10795476Y-27719476D02*
X10776429Y-27709952D01*
X10766905Y-27700428D01*
X10757381Y-27681381D01*
X10757381Y-27624238D01*
X10766905Y-27605190D01*
X10776429Y-27595667D01*
X10795476Y-27586143D01*
X10824048Y-27586143D01*
X10843095Y-27595667D01*
X10852619Y-27605190D01*
X10862143Y-27624238D01*
X10862143Y-27681381D01*
X10852619Y-27700428D01*
X10843095Y-27709952D01*
X10824048Y-27719476D01*
X10795476Y-27719476D01*
X10976429Y-27719476D02*
X10957381Y-27709952D01*
X10947857Y-27690905D01*
X10947857Y-27519476D01*
X11128810Y-27709952D02*
X11109762Y-27719476D01*
X11071667Y-27719476D01*
X11052619Y-27709952D01*
X11043095Y-27690905D01*
X11043095Y-27614714D01*
X11052619Y-27595667D01*
X11071667Y-27586143D01*
X11109762Y-27586143D01*
X11128810Y-27595667D01*
X11138333Y-27614714D01*
X11138333Y-27633762D01*
X11043095Y-27652809D01*
X11214524Y-27709952D02*
X11233571Y-27719476D01*
X11271667Y-27719476D01*
X11290714Y-27709952D01*
X11300238Y-27690905D01*
X11300238Y-27681381D01*
X11290714Y-27662333D01*
X11271667Y-27652809D01*
X11243095Y-27652809D01*
X11224048Y-27643286D01*
X11214524Y-27624238D01*
X11214524Y-27614714D01*
X11224048Y-27595667D01*
X11243095Y-27586143D01*
X11271667Y-27586143D01*
X11290714Y-27595667D01*
X11366905Y-27795667D02*
X11376428Y-27786143D01*
X11395476Y-27757571D01*
X11405000Y-27738524D01*
X11414524Y-27709952D01*
X11424048Y-27662333D01*
X11424048Y-27624238D01*
X11414524Y-27576619D01*
X11405000Y-27548048D01*
X11395476Y-27529000D01*
X11376428Y-27500428D01*
X11366905Y-27490905D01*
D18*
X6445000Y-27818000D02*
X6595000Y-27968000D01*
X6595000Y-27818000D02*
X6445000Y-27968000D01*
X6573033Y-27946033D02*
X6573033Y-27839966D01*
X6466966Y-27839966D01*
X6466966Y-27946033D01*
X6573033Y-27946033D01*
D11*
X6957381Y-27983476D02*
X6843095Y-27983476D01*
X6900238Y-27983476D02*
X6900238Y-27783476D01*
X6881190Y-27812048D01*
X6862143Y-27831095D01*
X6843095Y-27840619D01*
X7043095Y-27964428D02*
X7052619Y-27973952D01*
X7043095Y-27983476D01*
X7033571Y-27973952D01*
X7043095Y-27964428D01*
X7043095Y-27983476D01*
X7233571Y-27783476D02*
X7138333Y-27783476D01*
X7128809Y-27878714D01*
X7138333Y-27869190D01*
X7157381Y-27859667D01*
X7205000Y-27859667D01*
X7224048Y-27869190D01*
X7233571Y-27878714D01*
X7243095Y-27897762D01*
X7243095Y-27945381D01*
X7233571Y-27964428D01*
X7224048Y-27973952D01*
X7205000Y-27983476D01*
X7157381Y-27983476D01*
X7138333Y-27973952D01*
X7128809Y-27964428D01*
X7366905Y-27783476D02*
X7385952Y-27783476D01*
X7405000Y-27793000D01*
X7414524Y-27802524D01*
X7424048Y-27821571D01*
X7433571Y-27859667D01*
X7433571Y-27907286D01*
X7424048Y-27945381D01*
X7414524Y-27964428D01*
X7405000Y-27973952D01*
X7385952Y-27983476D01*
X7366905Y-27983476D01*
X7347857Y-27973952D01*
X7338333Y-27964428D01*
X7328809Y-27945381D01*
X7319286Y-27907286D01*
X7319286Y-27859667D01*
X7328809Y-27821571D01*
X7338333Y-27802524D01*
X7347857Y-27793000D01*
X7366905Y-27783476D01*
X7557381Y-27783476D02*
X7576428Y-27783476D01*
X7595476Y-27793000D01*
X7605000Y-27802524D01*
X7614524Y-27821571D01*
X7624048Y-27859667D01*
X7624048Y-27907286D01*
X7614524Y-27945381D01*
X7605000Y-27964428D01*
X7595476Y-27973952D01*
X7576428Y-27983476D01*
X7557381Y-27983476D01*
X7538333Y-27973952D01*
X7528809Y-27964428D01*
X7519286Y-27945381D01*
X7509762Y-27907286D01*
X7509762Y-27859667D01*
X7519286Y-27821571D01*
X7528809Y-27802524D01*
X7538333Y-27793000D01*
X7557381Y-27783476D01*
X7709762Y-27983476D02*
X7709762Y-27850143D01*
X7709762Y-27869190D02*
X7719286Y-27859667D01*
X7738333Y-27850143D01*
X7766905Y-27850143D01*
X7785952Y-27859667D01*
X7795476Y-27878714D01*
X7795476Y-27983476D01*
X7795476Y-27878714D02*
X7805000Y-27859667D01*
X7824048Y-27850143D01*
X7852619Y-27850143D01*
X7871667Y-27859667D01*
X7881190Y-27878714D01*
X7881190Y-27983476D01*
X7976428Y-27983476D02*
X7976428Y-27850143D01*
X7976428Y-27869190D02*
X7985952Y-27859667D01*
X8005000Y-27850143D01*
X8033571Y-27850143D01*
X8052619Y-27859667D01*
X8062143Y-27878714D01*
X8062143Y-27983476D01*
X8062143Y-27878714D02*
X8071667Y-27859667D01*
X8090714Y-27850143D01*
X8119286Y-27850143D01*
X8138333Y-27859667D01*
X8147857Y-27878714D01*
X8147857Y-27983476D01*
X8538333Y-27773952D02*
X8366905Y-28031095D01*
X8795476Y-27783476D02*
X8814524Y-27783476D01*
X8833571Y-27793000D01*
X8843095Y-27802524D01*
X8852619Y-27821571D01*
X8862143Y-27859667D01*
X8862143Y-27907286D01*
X8852619Y-27945381D01*
X8843095Y-27964428D01*
X8833571Y-27973952D01*
X8814524Y-27983476D01*
X8795476Y-27983476D01*
X8776429Y-27973952D01*
X8766905Y-27964428D01*
X8757381Y-27945381D01*
X8747857Y-27907286D01*
X8747857Y-27859667D01*
X8757381Y-27821571D01*
X8766905Y-27802524D01*
X8776429Y-27793000D01*
X8795476Y-27783476D01*
X8947857Y-27964428D02*
X8957381Y-27973952D01*
X8947857Y-27983476D01*
X8938333Y-27973952D01*
X8947857Y-27964428D01*
X8947857Y-27983476D01*
X9081190Y-27783476D02*
X9100238Y-27783476D01*
X9119286Y-27793000D01*
X9128810Y-27802524D01*
X9138333Y-27821571D01*
X9147857Y-27859667D01*
X9147857Y-27907286D01*
X9138333Y-27945381D01*
X9128810Y-27964428D01*
X9119286Y-27973952D01*
X9100238Y-27983476D01*
X9081190Y-27983476D01*
X9062143Y-27973952D01*
X9052619Y-27964428D01*
X9043095Y-27945381D01*
X9033571Y-27907286D01*
X9033571Y-27859667D01*
X9043095Y-27821571D01*
X9052619Y-27802524D01*
X9062143Y-27793000D01*
X9081190Y-27783476D01*
X9328810Y-27783476D02*
X9233571Y-27783476D01*
X9224048Y-27878714D01*
X9233571Y-27869190D01*
X9252619Y-27859667D01*
X9300238Y-27859667D01*
X9319286Y-27869190D01*
X9328810Y-27878714D01*
X9338333Y-27897762D01*
X9338333Y-27945381D01*
X9328810Y-27964428D01*
X9319286Y-27973952D01*
X9300238Y-27983476D01*
X9252619Y-27983476D01*
X9233571Y-27973952D01*
X9224048Y-27964428D01*
X9433571Y-27983476D02*
X9471667Y-27983476D01*
X9490714Y-27973952D01*
X9500238Y-27964428D01*
X9519286Y-27935857D01*
X9528810Y-27897762D01*
X9528810Y-27821571D01*
X9519286Y-27802524D01*
X9509762Y-27793000D01*
X9490714Y-27783476D01*
X9452619Y-27783476D01*
X9433571Y-27793000D01*
X9424048Y-27802524D01*
X9414524Y-27821571D01*
X9414524Y-27869190D01*
X9424048Y-27888238D01*
X9433571Y-27897762D01*
X9452619Y-27907286D01*
X9490714Y-27907286D01*
X9509762Y-27897762D01*
X9519286Y-27888238D01*
X9528810Y-27869190D01*
X9719286Y-27983476D02*
X9605000Y-27983476D01*
X9662143Y-27983476D02*
X9662143Y-27783476D01*
X9643095Y-27812048D01*
X9624048Y-27831095D01*
X9605000Y-27840619D01*
X9795476Y-27783476D02*
X9795476Y-27821571D01*
X9871667Y-27783476D02*
X9871667Y-27821571D01*
X10166905Y-28059667D02*
X10157381Y-28050143D01*
X10138333Y-28021571D01*
X10128810Y-28002524D01*
X10119286Y-27973952D01*
X10109762Y-27926333D01*
X10109762Y-27888238D01*
X10119286Y-27840619D01*
X10128810Y-27812048D01*
X10138333Y-27793000D01*
X10157381Y-27764428D01*
X10166905Y-27754905D01*
X10252619Y-27983476D02*
X10290714Y-27983476D01*
X10309762Y-27973952D01*
X10319286Y-27964428D01*
X10338333Y-27935857D01*
X10347857Y-27897762D01*
X10347857Y-27821571D01*
X10338333Y-27802524D01*
X10328810Y-27793000D01*
X10309762Y-27783476D01*
X10271667Y-27783476D01*
X10252619Y-27793000D01*
X10243095Y-27802524D01*
X10233571Y-27821571D01*
X10233571Y-27869190D01*
X10243095Y-27888238D01*
X10252619Y-27897762D01*
X10271667Y-27907286D01*
X10309762Y-27907286D01*
X10328810Y-27897762D01*
X10338333Y-27888238D01*
X10347857Y-27869190D01*
X10519286Y-27850143D02*
X10519286Y-27983476D01*
X10471667Y-27773952D02*
X10424048Y-27916809D01*
X10547857Y-27916809D01*
X10776429Y-27983476D02*
X10776429Y-27783476D01*
X10862143Y-27983476D02*
X10862143Y-27878714D01*
X10852619Y-27859667D01*
X10833571Y-27850143D01*
X10805000Y-27850143D01*
X10785952Y-27859667D01*
X10776429Y-27869190D01*
X10985952Y-27983476D02*
X10966905Y-27973952D01*
X10957381Y-27964428D01*
X10947857Y-27945381D01*
X10947857Y-27888238D01*
X10957381Y-27869190D01*
X10966905Y-27859667D01*
X10985952Y-27850143D01*
X11014524Y-27850143D01*
X11033571Y-27859667D01*
X11043095Y-27869190D01*
X11052619Y-27888238D01*
X11052619Y-27945381D01*
X11043095Y-27964428D01*
X11033571Y-27973952D01*
X11014524Y-27983476D01*
X10985952Y-27983476D01*
X11166905Y-27983476D02*
X11147857Y-27973952D01*
X11138333Y-27954905D01*
X11138333Y-27783476D01*
X11319286Y-27973952D02*
X11300238Y-27983476D01*
X11262143Y-27983476D01*
X11243095Y-27973952D01*
X11233571Y-27954905D01*
X11233571Y-27878714D01*
X11243095Y-27859667D01*
X11262143Y-27850143D01*
X11300238Y-27850143D01*
X11319286Y-27859667D01*
X11328809Y-27878714D01*
X11328809Y-27897762D01*
X11233571Y-27916809D01*
X11405000Y-27973952D02*
X11424048Y-27983476D01*
X11462143Y-27983476D01*
X11481190Y-27973952D01*
X11490714Y-27954905D01*
X11490714Y-27945381D01*
X11481190Y-27926333D01*
X11462143Y-27916809D01*
X11433571Y-27916809D01*
X11414524Y-27907286D01*
X11405000Y-27888238D01*
X11405000Y-27878714D01*
X11414524Y-27859667D01*
X11433571Y-27850143D01*
X11462143Y-27850143D01*
X11481190Y-27859667D01*
X11557381Y-28059667D02*
X11566905Y-28050143D01*
X11585952Y-28021571D01*
X11595476Y-28002524D01*
X11605000Y-27973952D01*
X11614524Y-27926333D01*
X11614524Y-27888238D01*
X11605000Y-27840619D01*
X11595476Y-27812048D01*
X11585952Y-27793000D01*
X11566905Y-27764428D01*
X11557381Y-27754905D01*
X6395000Y-28063000D02*
X6595000Y-28263000D01*
X6595000Y-28063000D02*
X6395000Y-28263000D01*
X6495000Y-28263000D02*
X6595000Y-28163000D01*
X6495000Y-28063000D01*
X6395000Y-28163000D01*
X6495000Y-28263000D01*
X6938333Y-28120143D02*
X6938333Y-28253476D01*
X6890714Y-28043952D02*
X6843095Y-28186809D01*
X6966905Y-28186809D01*
X7043095Y-28234428D02*
X7052619Y-28243952D01*
X7043095Y-28253476D01*
X7033571Y-28243952D01*
X7043095Y-28234428D01*
X7043095Y-28253476D01*
X7119286Y-28053476D02*
X7243095Y-28053476D01*
X7176428Y-28129667D01*
X7205000Y-28129667D01*
X7224048Y-28139190D01*
X7233571Y-28148714D01*
X7243095Y-28167762D01*
X7243095Y-28215381D01*
X7233571Y-28234428D01*
X7224048Y-28243952D01*
X7205000Y-28253476D01*
X7147857Y-28253476D01*
X7128809Y-28243952D01*
X7119286Y-28234428D01*
X7366905Y-28053476D02*
X7385952Y-28053476D01*
X7405000Y-28063000D01*
X7414524Y-28072524D01*
X7424048Y-28091571D01*
X7433571Y-28129667D01*
X7433571Y-28177286D01*
X7424048Y-28215381D01*
X7414524Y-28234428D01*
X7405000Y-28243952D01*
X7385952Y-28253476D01*
X7366905Y-28253476D01*
X7347857Y-28243952D01*
X7338333Y-28234428D01*
X7328809Y-28215381D01*
X7319286Y-28177286D01*
X7319286Y-28129667D01*
X7328809Y-28091571D01*
X7338333Y-28072524D01*
X7347857Y-28063000D01*
X7366905Y-28053476D01*
X7557381Y-28053476D02*
X7576428Y-28053476D01*
X7595476Y-28063000D01*
X7605000Y-28072524D01*
X7614524Y-28091571D01*
X7624048Y-28129667D01*
X7624048Y-28177286D01*
X7614524Y-28215381D01*
X7605000Y-28234428D01*
X7595476Y-28243952D01*
X7576428Y-28253476D01*
X7557381Y-28253476D01*
X7538333Y-28243952D01*
X7528809Y-28234428D01*
X7519286Y-28215381D01*
X7509762Y-28177286D01*
X7509762Y-28129667D01*
X7519286Y-28091571D01*
X7528809Y-28072524D01*
X7538333Y-28063000D01*
X7557381Y-28053476D01*
X7709762Y-28253476D02*
X7709762Y-28120143D01*
X7709762Y-28139190D02*
X7719286Y-28129667D01*
X7738333Y-28120143D01*
X7766905Y-28120143D01*
X7785952Y-28129667D01*
X7795476Y-28148714D01*
X7795476Y-28253476D01*
X7795476Y-28148714D02*
X7805000Y-28129667D01*
X7824048Y-28120143D01*
X7852619Y-28120143D01*
X7871667Y-28129667D01*
X7881190Y-28148714D01*
X7881190Y-28253476D01*
X7976428Y-28253476D02*
X7976428Y-28120143D01*
X7976428Y-28139190D02*
X7985952Y-28129667D01*
X8005000Y-28120143D01*
X8033571Y-28120143D01*
X8052619Y-28129667D01*
X8062143Y-28148714D01*
X8062143Y-28253476D01*
X8062143Y-28148714D02*
X8071667Y-28129667D01*
X8090714Y-28120143D01*
X8119286Y-28120143D01*
X8138333Y-28129667D01*
X8147857Y-28148714D01*
X8147857Y-28253476D01*
X8538333Y-28043952D02*
X8366905Y-28301095D01*
X8795476Y-28053476D02*
X8814524Y-28053476D01*
X8833571Y-28063000D01*
X8843095Y-28072524D01*
X8852619Y-28091571D01*
X8862143Y-28129667D01*
X8862143Y-28177286D01*
X8852619Y-28215381D01*
X8843095Y-28234428D01*
X8833571Y-28243952D01*
X8814524Y-28253476D01*
X8795476Y-28253476D01*
X8776429Y-28243952D01*
X8766905Y-28234428D01*
X8757381Y-28215381D01*
X8747857Y-28177286D01*
X8747857Y-28129667D01*
X8757381Y-28091571D01*
X8766905Y-28072524D01*
X8776429Y-28063000D01*
X8795476Y-28053476D01*
X8947857Y-28234428D02*
X8957381Y-28243952D01*
X8947857Y-28253476D01*
X8938333Y-28243952D01*
X8947857Y-28234428D01*
X8947857Y-28253476D01*
X9147857Y-28253476D02*
X9033571Y-28253476D01*
X9090714Y-28253476D02*
X9090714Y-28053476D01*
X9071667Y-28082048D01*
X9052619Y-28101095D01*
X9033571Y-28110619D01*
X9319286Y-28053476D02*
X9281190Y-28053476D01*
X9262143Y-28063000D01*
X9252619Y-28072524D01*
X9233571Y-28101095D01*
X9224048Y-28139190D01*
X9224048Y-28215381D01*
X9233571Y-28234428D01*
X9243095Y-28243952D01*
X9262143Y-28253476D01*
X9300238Y-28253476D01*
X9319286Y-28243952D01*
X9328810Y-28234428D01*
X9338333Y-28215381D01*
X9338333Y-28167762D01*
X9328810Y-28148714D01*
X9319286Y-28139190D01*
X9300238Y-28129667D01*
X9262143Y-28129667D01*
X9243095Y-28139190D01*
X9233571Y-28148714D01*
X9224048Y-28167762D01*
X9433571Y-28253476D02*
X9471667Y-28253476D01*
X9490714Y-28243952D01*
X9500238Y-28234428D01*
X9519286Y-28205857D01*
X9528810Y-28167762D01*
X9528810Y-28091571D01*
X9519286Y-28072524D01*
X9509762Y-28063000D01*
X9490714Y-28053476D01*
X9452619Y-28053476D01*
X9433571Y-28063000D01*
X9424048Y-28072524D01*
X9414524Y-28091571D01*
X9414524Y-28139190D01*
X9424048Y-28158238D01*
X9433571Y-28167762D01*
X9452619Y-28177286D01*
X9490714Y-28177286D01*
X9509762Y-28167762D01*
X9519286Y-28158238D01*
X9528810Y-28139190D01*
X9595476Y-28053476D02*
X9719286Y-28053476D01*
X9652619Y-28129667D01*
X9681190Y-28129667D01*
X9700238Y-28139190D01*
X9709762Y-28148714D01*
X9719286Y-28167762D01*
X9719286Y-28215381D01*
X9709762Y-28234428D01*
X9700238Y-28243952D01*
X9681190Y-28253476D01*
X9624048Y-28253476D01*
X9605000Y-28243952D01*
X9595476Y-28234428D01*
X9795476Y-28053476D02*
X9795476Y-28091571D01*
X9871667Y-28053476D02*
X9871667Y-28091571D01*
X10166905Y-28329667D02*
X10157381Y-28320143D01*
X10138333Y-28291571D01*
X10128810Y-28272524D01*
X10119286Y-28243952D01*
X10109762Y-28196333D01*
X10109762Y-28158238D01*
X10119286Y-28110619D01*
X10128810Y-28082048D01*
X10138333Y-28063000D01*
X10157381Y-28034428D01*
X10166905Y-28024905D01*
X10271667Y-28139190D02*
X10252619Y-28129667D01*
X10243095Y-28120143D01*
X10233571Y-28101095D01*
X10233571Y-28091571D01*
X10243095Y-28072524D01*
X10252619Y-28063000D01*
X10271667Y-28053476D01*
X10309762Y-28053476D01*
X10328810Y-28063000D01*
X10338333Y-28072524D01*
X10347857Y-28091571D01*
X10347857Y-28101095D01*
X10338333Y-28120143D01*
X10328810Y-28129667D01*
X10309762Y-28139190D01*
X10271667Y-28139190D01*
X10252619Y-28148714D01*
X10243095Y-28158238D01*
X10233571Y-28177286D01*
X10233571Y-28215381D01*
X10243095Y-28234428D01*
X10252619Y-28243952D01*
X10271667Y-28253476D01*
X10309762Y-28253476D01*
X10328810Y-28243952D01*
X10338333Y-28234428D01*
X10347857Y-28215381D01*
X10347857Y-28177286D01*
X10338333Y-28158238D01*
X10328810Y-28148714D01*
X10309762Y-28139190D01*
X10585952Y-28253476D02*
X10585952Y-28053476D01*
X10671667Y-28253476D02*
X10671667Y-28148714D01*
X10662143Y-28129667D01*
X10643095Y-28120143D01*
X10614524Y-28120143D01*
X10595476Y-28129667D01*
X10585952Y-28139190D01*
X10795476Y-28253476D02*
X10776429Y-28243952D01*
X10766905Y-28234428D01*
X10757381Y-28215381D01*
X10757381Y-28158238D01*
X10766905Y-28139190D01*
X10776429Y-28129667D01*
X10795476Y-28120143D01*
X10824048Y-28120143D01*
X10843095Y-28129667D01*
X10852619Y-28139190D01*
X10862143Y-28158238D01*
X10862143Y-28215381D01*
X10852619Y-28234428D01*
X10843095Y-28243952D01*
X10824048Y-28253476D01*
X10795476Y-28253476D01*
X10976429Y-28253476D02*
X10957381Y-28243952D01*
X10947857Y-28224905D01*
X10947857Y-28053476D01*
X11128810Y-28243952D02*
X11109762Y-28253476D01*
X11071667Y-28253476D01*
X11052619Y-28243952D01*
X11043095Y-28224905D01*
X11043095Y-28148714D01*
X11052619Y-28129667D01*
X11071667Y-28120143D01*
X11109762Y-28120143D01*
X11128810Y-28129667D01*
X11138333Y-28148714D01*
X11138333Y-28167762D01*
X11043095Y-28186809D01*
X11214524Y-28243952D02*
X11233571Y-28253476D01*
X11271667Y-28253476D01*
X11290714Y-28243952D01*
X11300238Y-28224905D01*
X11300238Y-28215381D01*
X11290714Y-28196333D01*
X11271667Y-28186809D01*
X11243095Y-28186809D01*
X11224048Y-28177286D01*
X11214524Y-28158238D01*
X11214524Y-28148714D01*
X11224048Y-28129667D01*
X11243095Y-28120143D01*
X11271667Y-28120143D01*
X11290714Y-28129667D01*
X11366905Y-28329667D02*
X11376428Y-28320143D01*
X11395476Y-28291571D01*
X11405000Y-28272524D01*
X11414524Y-28243952D01*
X11424048Y-28196333D01*
X11424048Y-28158238D01*
X11414524Y-28110619D01*
X11405000Y-28082048D01*
X11395476Y-28063000D01*
X11376428Y-28034428D01*
X11366905Y-28024905D01*
M02*
