%TF.GenerationSoftware,KiCad,Pcbnew,6.0.9-8da3e8f707~116~ubuntu20.04.1*%
%TF.CreationDate,2022-11-05T14:21:36+01:00*%
%TF.ProjectId,98keys-right,39386b65-7973-42d7-9269-6768742e6b69,rev?*%
%TF.SameCoordinates,Original*%
%TF.FileFunction,Drillmap*%
%TF.FilePolarity,Positive*%
%FSLAX45Y45*%
G04 Gerber Fmt 4.5, Leading zero omitted, Abs format (unit mm)*
G04 Created by KiCad (PCBNEW 6.0.9-8da3e8f707~116~ubuntu20.04.1) date 2022-11-05 14:21:36*
%MOMM*%
%LPD*%
G01*
G04 APERTURE LIST*
%ADD10C,0.100000*%
%ADD11C,0.200000*%
%ADD12C,0.120000*%
%ADD13C,0.150000*%
%ADD14C,0.170000*%
%ADD15C,0.180000*%
%ADD16C,0.400000*%
G04 APERTURE END LIST*
D10*
X29125000Y-2300000D02*
X14325000Y-2300000D01*
X29100000Y-25275000D02*
X29125000Y-2300000D01*
X6650000Y-25300000D02*
X29100000Y-25275000D01*
X6700000Y-2300000D02*
X6650000Y-25300000D01*
X13025000Y-2300000D02*
X6700000Y-2300000D01*
D11*
D12*
X13615000Y-2530000D02*
X13735000Y-2650000D01*
X13735000Y-2530000D02*
X13615000Y-2650000D01*
X13615000Y-3190000D02*
X13735000Y-3310000D01*
X13735000Y-3190000D02*
X13615000Y-3310000D01*
D13*
X7828000Y-4807500D02*
G75*
G03*
X7828000Y-4807500I-75000J0D01*
G01*
X7828000Y-5292500D02*
G75*
G03*
X7828000Y-5292500I-75000J0D01*
G01*
D14*
X8310059Y-23819001D02*
X8310059Y-23989001D01*
X8225059Y-23904001D02*
X8395059Y-23904001D01*
X8558000Y-7342960D02*
X8558000Y-7512960D01*
X8473000Y-7427960D02*
X8643000Y-7427960D01*
X8572000Y-10194960D02*
X8572000Y-10364960D01*
X8487000Y-10279960D02*
X8657000Y-10279960D01*
X9068000Y-16360960D02*
X9068000Y-16530960D01*
X8983000Y-16445960D02*
X9153000Y-16445960D01*
X9068000Y-17376960D02*
X9068000Y-17546960D01*
X8983000Y-17461960D02*
X9153000Y-17461960D01*
X9088000Y-13020960D02*
X9088000Y-13190960D01*
X9003000Y-13105960D02*
X9173000Y-13105960D01*
X9088000Y-14036960D02*
X9088000Y-14206960D01*
X9003000Y-14121960D02*
X9173000Y-14121960D01*
X9180059Y-20559001D02*
X9180059Y-20729001D01*
X9095059Y-20644001D02*
X9265059Y-20644001D01*
X9189941Y-23311001D02*
X9189941Y-23481001D01*
X9104941Y-23396001D02*
X9274941Y-23396001D01*
X9574000Y-7342960D02*
X9574000Y-7512960D01*
X9489000Y-7427960D02*
X9659000Y-7427960D01*
X9588000Y-10194960D02*
X9588000Y-10364960D01*
X9503000Y-10279960D02*
X9673000Y-10279960D01*
X10059941Y-20051001D02*
X10059941Y-20221001D01*
X9974941Y-20136001D02*
X10144941Y-20136001D01*
X10360059Y-22639001D02*
X10360059Y-22809001D01*
X10275059Y-22724001D02*
X10445059Y-22724001D01*
X10958000Y-10202960D02*
X10958000Y-10372960D01*
X10873000Y-10287960D02*
X11043000Y-10287960D01*
X10958000Y-12582960D02*
X10958000Y-12752960D01*
X10873000Y-12667960D02*
X11043000Y-12667960D01*
X10958000Y-14962960D02*
X10958000Y-15132960D01*
X10873000Y-15047960D02*
X11043000Y-15047960D01*
X10958000Y-17342960D02*
X10958000Y-17512960D01*
X10873000Y-17427960D02*
X11043000Y-17427960D01*
X11239940Y-22131001D02*
X11239940Y-22301001D01*
X11154941Y-22216001D02*
X11324940Y-22216001D01*
X11438000Y-7342960D02*
X11438000Y-7512960D01*
X11353000Y-7427960D02*
X11523000Y-7427960D01*
X11974000Y-10202960D02*
X11974000Y-10372960D01*
X11889000Y-10287960D02*
X12059000Y-10287960D01*
X11974000Y-12582960D02*
X11974000Y-12752960D01*
X11889000Y-12667960D02*
X12059000Y-12667960D01*
X11974000Y-14962960D02*
X11974000Y-15132960D01*
X11889000Y-15047960D02*
X12059000Y-15047960D01*
X11974000Y-17342960D02*
X11974000Y-17512960D01*
X11889000Y-17427960D02*
X12059000Y-17427960D01*
X12430059Y-21439001D02*
X12430059Y-21609001D01*
X12345059Y-21524001D02*
X12515059Y-21524001D01*
X12454000Y-7342960D02*
X12454000Y-7512960D01*
X12369000Y-7427960D02*
X12539000Y-7427960D01*
X13309940Y-20931001D02*
X13309940Y-21101001D01*
X13224940Y-21016001D02*
X13394940Y-21016001D01*
X13318000Y-17342960D02*
X13318000Y-17512960D01*
X13233000Y-17427960D02*
X13403000Y-17427960D01*
X13338000Y-10202960D02*
X13338000Y-10372960D01*
X13253000Y-10287960D02*
X13423000Y-10287960D01*
X13338000Y-12582960D02*
X13338000Y-12752960D01*
X13253000Y-12667960D02*
X13423000Y-12667960D01*
X13338000Y-14982960D02*
X13338000Y-15152960D01*
X13253000Y-15067960D02*
X13423000Y-15067960D01*
X14278000Y-7342960D02*
X14278000Y-7512960D01*
X14193000Y-7427960D02*
X14363000Y-7427960D01*
X14334000Y-17342960D02*
X14334000Y-17512960D01*
X14249000Y-17427960D02*
X14419000Y-17427960D01*
X14354000Y-10202960D02*
X14354000Y-10372960D01*
X14269000Y-10287960D02*
X14439000Y-10287960D01*
X14354000Y-12582960D02*
X14354000Y-12752960D01*
X14269000Y-12667960D02*
X14439000Y-12667960D01*
X14354000Y-14982960D02*
X14354000Y-15152960D01*
X14269000Y-15067960D02*
X14439000Y-15067960D01*
X15294000Y-7342960D02*
X15294000Y-7512960D01*
X15209000Y-7427960D02*
X15379000Y-7427960D01*
X15718000Y-9982960D02*
X15718000Y-10152960D01*
X15633000Y-10067960D02*
X15803000Y-10067960D01*
X15718000Y-12362960D02*
X15718000Y-12532960D01*
X15633000Y-12447960D02*
X15803000Y-12447960D01*
X15718000Y-14742960D02*
X15718000Y-14912960D01*
X15633000Y-14827960D02*
X15803000Y-14827960D01*
X15718000Y-17122960D02*
X15718000Y-17292960D01*
X15633000Y-17207960D02*
X15803000Y-17207960D01*
X15718000Y-19502960D02*
X15718000Y-19672960D01*
X15633000Y-19587960D02*
X15803000Y-19587960D01*
X16734000Y-9982960D02*
X16734000Y-10152960D01*
X16649000Y-10067960D02*
X16819000Y-10067960D01*
X16734000Y-12362960D02*
X16734000Y-12532960D01*
X16649000Y-12447960D02*
X16819000Y-12447960D01*
X16734000Y-14742960D02*
X16734000Y-14912960D01*
X16649000Y-14827960D02*
X16819000Y-14827960D01*
X16734000Y-17122960D02*
X16734000Y-17292960D01*
X16649000Y-17207960D02*
X16819000Y-17207960D01*
X16734000Y-19502960D02*
X16734000Y-19672960D01*
X16649000Y-19587960D02*
X16819000Y-19587960D01*
X17138000Y-7342960D02*
X17138000Y-7512960D01*
X17053000Y-7427960D02*
X17223000Y-7427960D01*
X18078000Y-12102960D02*
X18078000Y-12272960D01*
X17993000Y-12187960D02*
X18163000Y-12187960D01*
X18098000Y-9722960D02*
X18098000Y-9892960D01*
X18013000Y-9807960D02*
X18183000Y-9807960D01*
X18098000Y-14502960D02*
X18098000Y-14672960D01*
X18013000Y-14587960D02*
X18183000Y-14587960D01*
X18098000Y-16862960D02*
X18098000Y-17032960D01*
X18013000Y-16947960D02*
X18183000Y-16947960D01*
X18098000Y-19262960D02*
X18098000Y-19432960D01*
X18013000Y-19347960D02*
X18183000Y-19347960D01*
X18154000Y-7342960D02*
X18154000Y-7512960D01*
X18069000Y-7427960D02*
X18239000Y-7427960D01*
X19094000Y-12102960D02*
X19094000Y-12272960D01*
X19009000Y-12187960D02*
X19179000Y-12187960D01*
X19114000Y-9722960D02*
X19114000Y-9892960D01*
X19029000Y-9807960D02*
X19199000Y-9807960D01*
X19114000Y-14502960D02*
X19114000Y-14672960D01*
X19029000Y-14587960D02*
X19199000Y-14587960D01*
X19114000Y-16862960D02*
X19114000Y-17032960D01*
X19029000Y-16947960D02*
X19199000Y-16947960D01*
X19114000Y-19262960D02*
X19114000Y-19432960D01*
X19029000Y-19347960D02*
X19199000Y-19347960D01*
X19998000Y-7342960D02*
X19998000Y-7512960D01*
X19913000Y-7427960D02*
X20083000Y-7427960D01*
X20478000Y-9982960D02*
X20478000Y-10152960D01*
X20393000Y-10067960D02*
X20563000Y-10067960D01*
X20478000Y-12362960D02*
X20478000Y-12532960D01*
X20393000Y-12447960D02*
X20563000Y-12447960D01*
X20478000Y-14742960D02*
X20478000Y-14912960D01*
X20393000Y-14827960D02*
X20563000Y-14827960D01*
X20478000Y-17122960D02*
X20478000Y-17292960D01*
X20393000Y-17207960D02*
X20563000Y-17207960D01*
X20478000Y-19502960D02*
X20478000Y-19672960D01*
X20393000Y-19587960D02*
X20563000Y-19587960D01*
X21014000Y-7342960D02*
X21014000Y-7512960D01*
X20929000Y-7427960D02*
X21099000Y-7427960D01*
X21494000Y-9982960D02*
X21494000Y-10152960D01*
X21409000Y-10067960D02*
X21579000Y-10067960D01*
X21494000Y-12362960D02*
X21494000Y-12532960D01*
X21409000Y-12447960D02*
X21579000Y-12447960D01*
X21494000Y-14742960D02*
X21494000Y-14912960D01*
X21409000Y-14827960D02*
X21579000Y-14827960D01*
X21494000Y-17122960D02*
X21494000Y-17292960D01*
X21409000Y-17207960D02*
X21579000Y-17207960D01*
X21494000Y-19502960D02*
X21494000Y-19672960D01*
X21409000Y-19587960D02*
X21579000Y-19587960D01*
X22858000Y-7342960D02*
X22858000Y-7512960D01*
X22773000Y-7427960D02*
X22943000Y-7427960D01*
X22858000Y-10442960D02*
X22858000Y-10612960D01*
X22773000Y-10527960D02*
X22943000Y-10527960D01*
X22858000Y-12842960D02*
X22858000Y-13012960D01*
X22773000Y-12927960D02*
X22943000Y-12927960D01*
X22858000Y-15222960D02*
X22858000Y-15392960D01*
X22773000Y-15307960D02*
X22943000Y-15307960D01*
X22858000Y-17602960D02*
X22858000Y-17772960D01*
X22773000Y-17687960D02*
X22943000Y-17687960D01*
X22858000Y-19982960D02*
X22858000Y-20152960D01*
X22773000Y-20067960D02*
X22943000Y-20067960D01*
X23874000Y-7342960D02*
X23874000Y-7512960D01*
X23789000Y-7427960D02*
X23959000Y-7427960D01*
X23874000Y-10442960D02*
X23874000Y-10612960D01*
X23789000Y-10527960D02*
X23959000Y-10527960D01*
X23874000Y-12842960D02*
X23874000Y-13012960D01*
X23789000Y-12927960D02*
X23959000Y-12927960D01*
X23874000Y-15222960D02*
X23874000Y-15392960D01*
X23789000Y-15307960D02*
X23959000Y-15307960D01*
X23874000Y-17602960D02*
X23874000Y-17772960D01*
X23789000Y-17687960D02*
X23959000Y-17687960D01*
X23874000Y-19982960D02*
X23874000Y-20152960D01*
X23789000Y-20067960D02*
X23959000Y-20067960D01*
X25238000Y-19982960D02*
X25238000Y-20152960D01*
X25153000Y-20067960D02*
X25323000Y-20067960D01*
X25686000Y-10417000D02*
X25686000Y-10587000D01*
X25601000Y-10502000D02*
X25771000Y-10502000D01*
X25686000Y-12797000D02*
X25686000Y-12967000D01*
X25601000Y-12882000D02*
X25771000Y-12882000D01*
X25692000Y-15185000D02*
X25692000Y-15355000D01*
X25607000Y-15270000D02*
X25777000Y-15270000D01*
X25692000Y-17565000D02*
X25692000Y-17735000D01*
X25607000Y-17650000D02*
X25777000Y-17650000D01*
X25712000Y-7342960D02*
X25712000Y-7512960D01*
X25627000Y-7427960D02*
X25797000Y-7427960D01*
X26254000Y-19982960D02*
X26254000Y-20152960D01*
X26169000Y-20067960D02*
X26339000Y-20067960D01*
X26702000Y-10417000D02*
X26702000Y-10587000D01*
X26617000Y-10502000D02*
X26787000Y-10502000D01*
X26702000Y-12797000D02*
X26702000Y-12967000D01*
X26617000Y-12882000D02*
X26787000Y-12882000D01*
X26708000Y-15185000D02*
X26708000Y-15355000D01*
X26623000Y-15270000D02*
X26793000Y-15270000D01*
X26708000Y-17565000D02*
X26708000Y-17735000D01*
X26623000Y-17650000D02*
X26793000Y-17650000D01*
X26728000Y-7342960D02*
X26728000Y-7512960D01*
X26643000Y-7427960D02*
X26813000Y-7427960D01*
D15*
X7513640Y-4841140D02*
X7513640Y-4713860D01*
X7386360Y-4713860D01*
X7386360Y-4841140D01*
X7513640Y-4841140D01*
X7513640Y-5386140D02*
X7513640Y-5258860D01*
X7386360Y-5258860D01*
X7386360Y-5386140D01*
X7513640Y-5386140D01*
D16*
X8750000Y-23850001D02*
X8950000Y-23650001D01*
X8750000Y-23450001D01*
X8550000Y-23650001D01*
X8750000Y-23850001D01*
X9066000Y-7627960D02*
X9266000Y-7427960D01*
X9066000Y-7227960D01*
X8866000Y-7427960D01*
X9066000Y-7627960D01*
X9068000Y-17153960D02*
X9268000Y-16953960D01*
X9068000Y-16753960D01*
X8868000Y-16953960D01*
X9068000Y-17153960D01*
X9080000Y-10479960D02*
X9280000Y-10279960D01*
X9080000Y-10079960D01*
X8880000Y-10279960D01*
X9080000Y-10479960D01*
X9088000Y-13813960D02*
X9288000Y-13613960D01*
X9088000Y-13413960D01*
X8888000Y-13613960D01*
X9088000Y-13813960D01*
X9620000Y-20590001D02*
X9820000Y-20390001D01*
X9620000Y-20190001D01*
X9420000Y-20390001D01*
X9620000Y-20590001D01*
X10800000Y-22670001D02*
X11000000Y-22470001D01*
X10800000Y-22270001D01*
X10600000Y-22470001D01*
X10800000Y-22670001D01*
X11466000Y-10487960D02*
X11666000Y-10287960D01*
X11466000Y-10087960D01*
X11266000Y-10287960D01*
X11466000Y-10487960D01*
X11466000Y-12867960D02*
X11666000Y-12667960D01*
X11466000Y-12467960D01*
X11266000Y-12667960D01*
X11466000Y-12867960D01*
X11466000Y-15247960D02*
X11666000Y-15047960D01*
X11466000Y-14847960D01*
X11266000Y-15047960D01*
X11466000Y-15247960D01*
X11466000Y-17627960D02*
X11666000Y-17427960D01*
X11466000Y-17227960D01*
X11266000Y-17427960D01*
X11466000Y-17627960D01*
X11946000Y-7627960D02*
X12146000Y-7427960D01*
X11946000Y-7227960D01*
X11746000Y-7427960D01*
X11946000Y-7627960D01*
X12869999Y-21470001D02*
X13069999Y-21270001D01*
X12869999Y-21070001D01*
X12669999Y-21270001D01*
X12869999Y-21470001D01*
X13826000Y-17627960D02*
X14026000Y-17427960D01*
X13826000Y-17227960D01*
X13626000Y-17427960D01*
X13826000Y-17627960D01*
X13846000Y-10487960D02*
X14046000Y-10287960D01*
X13846000Y-10087960D01*
X13646000Y-10287960D01*
X13846000Y-10487960D01*
X13846000Y-12867960D02*
X14046000Y-12667960D01*
X13846000Y-12467960D01*
X13646000Y-12667960D01*
X13846000Y-12867960D01*
X13846000Y-15267960D02*
X14046000Y-15067960D01*
X13846000Y-14867960D01*
X13646000Y-15067960D01*
X13846000Y-15267960D01*
X14786000Y-7627960D02*
X14986000Y-7427960D01*
X14786000Y-7227960D01*
X14586000Y-7427960D01*
X14786000Y-7627960D01*
X16226000Y-10267960D02*
X16426000Y-10067960D01*
X16226000Y-9867960D01*
X16026000Y-10067960D01*
X16226000Y-10267960D01*
X16226000Y-12647960D02*
X16426000Y-12447960D01*
X16226000Y-12247960D01*
X16026000Y-12447960D01*
X16226000Y-12647960D01*
X16226000Y-15027960D02*
X16426000Y-14827960D01*
X16226000Y-14627960D01*
X16026000Y-14827960D01*
X16226000Y-15027960D01*
X16226000Y-17407960D02*
X16426000Y-17207960D01*
X16226000Y-17007960D01*
X16026000Y-17207960D01*
X16226000Y-17407960D01*
X16226000Y-19787960D02*
X16426000Y-19587960D01*
X16226000Y-19387960D01*
X16026000Y-19587960D01*
X16226000Y-19787960D01*
X17646000Y-7627960D02*
X17846000Y-7427960D01*
X17646000Y-7227960D01*
X17446000Y-7427960D01*
X17646000Y-7627960D01*
X18586000Y-12387960D02*
X18786000Y-12187960D01*
X18586000Y-11987960D01*
X18386000Y-12187960D01*
X18586000Y-12387960D01*
X18606000Y-10007960D02*
X18806000Y-9807960D01*
X18606000Y-9607960D01*
X18406000Y-9807960D01*
X18606000Y-10007960D01*
X18606000Y-14787960D02*
X18806000Y-14587960D01*
X18606000Y-14387960D01*
X18406000Y-14587960D01*
X18606000Y-14787960D01*
X18606000Y-17147960D02*
X18806000Y-16947960D01*
X18606000Y-16747960D01*
X18406000Y-16947960D01*
X18606000Y-17147960D01*
X18606000Y-19547960D02*
X18806000Y-19347960D01*
X18606000Y-19147960D01*
X18406000Y-19347960D01*
X18606000Y-19547960D01*
X20506000Y-7627960D02*
X20706000Y-7427960D01*
X20506000Y-7227960D01*
X20306000Y-7427960D01*
X20506000Y-7627960D01*
X20986000Y-10267960D02*
X21186000Y-10067960D01*
X20986000Y-9867960D01*
X20786000Y-10067960D01*
X20986000Y-10267960D01*
X20986000Y-12647960D02*
X21186000Y-12447960D01*
X20986000Y-12247960D01*
X20786000Y-12447960D01*
X20986000Y-12647960D01*
X20986000Y-15027960D02*
X21186000Y-14827960D01*
X20986000Y-14627960D01*
X20786000Y-14827960D01*
X20986000Y-15027960D01*
X20986000Y-17407960D02*
X21186000Y-17207960D01*
X20986000Y-17007960D01*
X20786000Y-17207960D01*
X20986000Y-17407960D01*
X20986000Y-19787960D02*
X21186000Y-19587960D01*
X20986000Y-19387960D01*
X20786000Y-19587960D01*
X20986000Y-19787960D01*
X23366000Y-7627960D02*
X23566000Y-7427960D01*
X23366000Y-7227960D01*
X23166000Y-7427960D01*
X23366000Y-7627960D01*
X23366000Y-10727960D02*
X23566000Y-10527960D01*
X23366000Y-10327960D01*
X23166000Y-10527960D01*
X23366000Y-10727960D01*
X23366000Y-13127960D02*
X23566000Y-12927960D01*
X23366000Y-12727960D01*
X23166000Y-12927960D01*
X23366000Y-13127960D01*
X23366000Y-15507960D02*
X23566000Y-15307960D01*
X23366000Y-15107960D01*
X23166000Y-15307960D01*
X23366000Y-15507960D01*
X23366000Y-17887960D02*
X23566000Y-17687960D01*
X23366000Y-17487960D01*
X23166000Y-17687960D01*
X23366000Y-17887960D01*
X23366000Y-20267960D02*
X23566000Y-20067960D01*
X23366000Y-19867960D01*
X23166000Y-20067960D01*
X23366000Y-20267960D01*
X25746000Y-20267960D02*
X25946000Y-20067960D01*
X25746000Y-19867960D01*
X25546000Y-20067960D01*
X25746000Y-20267960D01*
X26194000Y-10702000D02*
X26394000Y-10502000D01*
X26194000Y-10302000D01*
X25994000Y-10502000D01*
X26194000Y-10702000D01*
X26194000Y-13082000D02*
X26394000Y-12882000D01*
X26194000Y-12682000D01*
X25994000Y-12882000D01*
X26194000Y-13082000D01*
X26200000Y-15470000D02*
X26400000Y-15270000D01*
X26200000Y-15070000D01*
X26000000Y-15270000D01*
X26200000Y-15470000D01*
X26200000Y-17850000D02*
X26400000Y-17650000D01*
X26200000Y-17450000D01*
X26000000Y-17650000D01*
X26200000Y-17850000D01*
X26220000Y-7627960D02*
X26420000Y-7427960D01*
X26220000Y-7227960D01*
X26020000Y-7427960D01*
X26220000Y-7627960D01*
D11*
X6902619Y-25615476D02*
X6902619Y-25415476D01*
X6950238Y-25415476D01*
X6978809Y-25425000D01*
X6997857Y-25444048D01*
X7007381Y-25463095D01*
X7016905Y-25501190D01*
X7016905Y-25529762D01*
X7007381Y-25567857D01*
X6997857Y-25586905D01*
X6978809Y-25605952D01*
X6950238Y-25615476D01*
X6902619Y-25615476D01*
X7102619Y-25615476D02*
X7102619Y-25482143D01*
X7102619Y-25520238D02*
X7112143Y-25501190D01*
X7121667Y-25491667D01*
X7140714Y-25482143D01*
X7159762Y-25482143D01*
X7226428Y-25615476D02*
X7226428Y-25482143D01*
X7226428Y-25415476D02*
X7216905Y-25425000D01*
X7226428Y-25434524D01*
X7235952Y-25425000D01*
X7226428Y-25415476D01*
X7226428Y-25434524D01*
X7350238Y-25615476D02*
X7331190Y-25605952D01*
X7321667Y-25586905D01*
X7321667Y-25415476D01*
X7455000Y-25615476D02*
X7435952Y-25605952D01*
X7426428Y-25586905D01*
X7426428Y-25415476D01*
X7683571Y-25615476D02*
X7683571Y-25415476D01*
X7750238Y-25558333D01*
X7816905Y-25415476D01*
X7816905Y-25615476D01*
X7997857Y-25615476D02*
X7997857Y-25510714D01*
X7988333Y-25491667D01*
X7969286Y-25482143D01*
X7931190Y-25482143D01*
X7912143Y-25491667D01*
X7997857Y-25605952D02*
X7978809Y-25615476D01*
X7931190Y-25615476D01*
X7912143Y-25605952D01*
X7902619Y-25586905D01*
X7902619Y-25567857D01*
X7912143Y-25548809D01*
X7931190Y-25539286D01*
X7978809Y-25539286D01*
X7997857Y-25529762D01*
X8093095Y-25482143D02*
X8093095Y-25682143D01*
X8093095Y-25491667D02*
X8112143Y-25482143D01*
X8150238Y-25482143D01*
X8169286Y-25491667D01*
X8178809Y-25501190D01*
X8188333Y-25520238D01*
X8188333Y-25577381D01*
X8178809Y-25596428D01*
X8169286Y-25605952D01*
X8150238Y-25615476D01*
X8112143Y-25615476D01*
X8093095Y-25605952D01*
X8274048Y-25596428D02*
X8283571Y-25605952D01*
X8274048Y-25615476D01*
X8264524Y-25605952D01*
X8274048Y-25596428D01*
X8274048Y-25615476D01*
X8274048Y-25491667D02*
X8283571Y-25501190D01*
X8274048Y-25510714D01*
X8264524Y-25501190D01*
X8274048Y-25491667D01*
X8274048Y-25510714D01*
D12*
X6525000Y-25885000D02*
X6645000Y-26005000D01*
X6645000Y-25885000D02*
X6525000Y-26005000D01*
D11*
X7007381Y-26035476D02*
X6893095Y-26035476D01*
X6950238Y-26035476D02*
X6950238Y-25835476D01*
X6931190Y-25864048D01*
X6912143Y-25883095D01*
X6893095Y-25892619D01*
X7093095Y-26016428D02*
X7102619Y-26025952D01*
X7093095Y-26035476D01*
X7083571Y-26025952D01*
X7093095Y-26016428D01*
X7093095Y-26035476D01*
X7178809Y-25854524D02*
X7188333Y-25845000D01*
X7207381Y-25835476D01*
X7255000Y-25835476D01*
X7274048Y-25845000D01*
X7283571Y-25854524D01*
X7293095Y-25873571D01*
X7293095Y-25892619D01*
X7283571Y-25921190D01*
X7169286Y-26035476D01*
X7293095Y-26035476D01*
X7416905Y-25835476D02*
X7435952Y-25835476D01*
X7455000Y-25845000D01*
X7464524Y-25854524D01*
X7474048Y-25873571D01*
X7483571Y-25911667D01*
X7483571Y-25959286D01*
X7474048Y-25997381D01*
X7464524Y-26016428D01*
X7455000Y-26025952D01*
X7435952Y-26035476D01*
X7416905Y-26035476D01*
X7397857Y-26025952D01*
X7388333Y-26016428D01*
X7378809Y-25997381D01*
X7369286Y-25959286D01*
X7369286Y-25911667D01*
X7378809Y-25873571D01*
X7388333Y-25854524D01*
X7397857Y-25845000D01*
X7416905Y-25835476D01*
X7607381Y-25835476D02*
X7626428Y-25835476D01*
X7645476Y-25845000D01*
X7655000Y-25854524D01*
X7664524Y-25873571D01*
X7674048Y-25911667D01*
X7674048Y-25959286D01*
X7664524Y-25997381D01*
X7655000Y-26016428D01*
X7645476Y-26025952D01*
X7626428Y-26035476D01*
X7607381Y-26035476D01*
X7588333Y-26025952D01*
X7578809Y-26016428D01*
X7569286Y-25997381D01*
X7559762Y-25959286D01*
X7559762Y-25911667D01*
X7569286Y-25873571D01*
X7578809Y-25854524D01*
X7588333Y-25845000D01*
X7607381Y-25835476D01*
X7759762Y-26035476D02*
X7759762Y-25902143D01*
X7759762Y-25921190D02*
X7769286Y-25911667D01*
X7788333Y-25902143D01*
X7816905Y-25902143D01*
X7835952Y-25911667D01*
X7845476Y-25930714D01*
X7845476Y-26035476D01*
X7845476Y-25930714D02*
X7855000Y-25911667D01*
X7874048Y-25902143D01*
X7902619Y-25902143D01*
X7921667Y-25911667D01*
X7931190Y-25930714D01*
X7931190Y-26035476D01*
X8026428Y-26035476D02*
X8026428Y-25902143D01*
X8026428Y-25921190D02*
X8035952Y-25911667D01*
X8055000Y-25902143D01*
X8083571Y-25902143D01*
X8102619Y-25911667D01*
X8112143Y-25930714D01*
X8112143Y-26035476D01*
X8112143Y-25930714D02*
X8121667Y-25911667D01*
X8140714Y-25902143D01*
X8169286Y-25902143D01*
X8188333Y-25911667D01*
X8197857Y-25930714D01*
X8197857Y-26035476D01*
X8588333Y-25825952D02*
X8416905Y-26083095D01*
X8845476Y-25835476D02*
X8864524Y-25835476D01*
X8883571Y-25845000D01*
X8893095Y-25854524D01*
X8902619Y-25873571D01*
X8912143Y-25911667D01*
X8912143Y-25959286D01*
X8902619Y-25997381D01*
X8893095Y-26016428D01*
X8883571Y-26025952D01*
X8864524Y-26035476D01*
X8845476Y-26035476D01*
X8826429Y-26025952D01*
X8816905Y-26016428D01*
X8807381Y-25997381D01*
X8797857Y-25959286D01*
X8797857Y-25911667D01*
X8807381Y-25873571D01*
X8816905Y-25854524D01*
X8826429Y-25845000D01*
X8845476Y-25835476D01*
X8997857Y-26016428D02*
X9007381Y-26025952D01*
X8997857Y-26035476D01*
X8988333Y-26025952D01*
X8997857Y-26016428D01*
X8997857Y-26035476D01*
X9131190Y-25835476D02*
X9150238Y-25835476D01*
X9169286Y-25845000D01*
X9178810Y-25854524D01*
X9188333Y-25873571D01*
X9197857Y-25911667D01*
X9197857Y-25959286D01*
X9188333Y-25997381D01*
X9178810Y-26016428D01*
X9169286Y-26025952D01*
X9150238Y-26035476D01*
X9131190Y-26035476D01*
X9112143Y-26025952D01*
X9102619Y-26016428D01*
X9093095Y-25997381D01*
X9083571Y-25959286D01*
X9083571Y-25911667D01*
X9093095Y-25873571D01*
X9102619Y-25854524D01*
X9112143Y-25845000D01*
X9131190Y-25835476D01*
X9369286Y-25902143D02*
X9369286Y-26035476D01*
X9321667Y-25825952D02*
X9274048Y-25968809D01*
X9397857Y-25968809D01*
X9455000Y-25835476D02*
X9588333Y-25835476D01*
X9502619Y-26035476D01*
X9655000Y-25854524D02*
X9664524Y-25845000D01*
X9683571Y-25835476D01*
X9731190Y-25835476D01*
X9750238Y-25845000D01*
X9759762Y-25854524D01*
X9769286Y-25873571D01*
X9769286Y-25892619D01*
X9759762Y-25921190D01*
X9645476Y-26035476D01*
X9769286Y-26035476D01*
X9845476Y-25835476D02*
X9845476Y-25873571D01*
X9921667Y-25835476D02*
X9921667Y-25873571D01*
X10216905Y-26111667D02*
X10207381Y-26102143D01*
X10188333Y-26073571D01*
X10178810Y-26054524D01*
X10169286Y-26025952D01*
X10159762Y-25978333D01*
X10159762Y-25940238D01*
X10169286Y-25892619D01*
X10178810Y-25864048D01*
X10188333Y-25845000D01*
X10207381Y-25816428D01*
X10216905Y-25806905D01*
X10283571Y-25854524D02*
X10293095Y-25845000D01*
X10312143Y-25835476D01*
X10359762Y-25835476D01*
X10378810Y-25845000D01*
X10388333Y-25854524D01*
X10397857Y-25873571D01*
X10397857Y-25892619D01*
X10388333Y-25921190D01*
X10274048Y-26035476D01*
X10397857Y-26035476D01*
X10635952Y-26035476D02*
X10635952Y-25835476D01*
X10721667Y-26035476D02*
X10721667Y-25930714D01*
X10712143Y-25911667D01*
X10693095Y-25902143D01*
X10664524Y-25902143D01*
X10645476Y-25911667D01*
X10635952Y-25921190D01*
X10845476Y-26035476D02*
X10826429Y-26025952D01*
X10816905Y-26016428D01*
X10807381Y-25997381D01*
X10807381Y-25940238D01*
X10816905Y-25921190D01*
X10826429Y-25911667D01*
X10845476Y-25902143D01*
X10874048Y-25902143D01*
X10893095Y-25911667D01*
X10902619Y-25921190D01*
X10912143Y-25940238D01*
X10912143Y-25997381D01*
X10902619Y-26016428D01*
X10893095Y-26025952D01*
X10874048Y-26035476D01*
X10845476Y-26035476D01*
X11026429Y-26035476D02*
X11007381Y-26025952D01*
X10997857Y-26006905D01*
X10997857Y-25835476D01*
X11178810Y-26025952D02*
X11159762Y-26035476D01*
X11121667Y-26035476D01*
X11102619Y-26025952D01*
X11093095Y-26006905D01*
X11093095Y-25930714D01*
X11102619Y-25911667D01*
X11121667Y-25902143D01*
X11159762Y-25902143D01*
X11178810Y-25911667D01*
X11188333Y-25930714D01*
X11188333Y-25949762D01*
X11093095Y-25968809D01*
X11264524Y-26025952D02*
X11283571Y-26035476D01*
X11321667Y-26035476D01*
X11340714Y-26025952D01*
X11350238Y-26006905D01*
X11350238Y-25997381D01*
X11340714Y-25978333D01*
X11321667Y-25968809D01*
X11293095Y-25968809D01*
X11274048Y-25959286D01*
X11264524Y-25940238D01*
X11264524Y-25930714D01*
X11274048Y-25911667D01*
X11293095Y-25902143D01*
X11321667Y-25902143D01*
X11340714Y-25911667D01*
X11416905Y-26111667D02*
X11426428Y-26102143D01*
X11445476Y-26073571D01*
X11455000Y-26054524D01*
X11464524Y-26025952D01*
X11474048Y-25978333D01*
X11474048Y-25940238D01*
X11464524Y-25892619D01*
X11455000Y-25864048D01*
X11445476Y-25845000D01*
X11426428Y-25816428D01*
X11416905Y-25806905D01*
X11778809Y-26111667D02*
X11769286Y-26102143D01*
X11750238Y-26073571D01*
X11740714Y-26054524D01*
X11731190Y-26025952D01*
X11721667Y-25978333D01*
X11721667Y-25940238D01*
X11731190Y-25892619D01*
X11740714Y-25864048D01*
X11750238Y-25845000D01*
X11769286Y-25816428D01*
X11778809Y-25806905D01*
X11855000Y-25902143D02*
X11855000Y-26035476D01*
X11855000Y-25921190D02*
X11864524Y-25911667D01*
X11883571Y-25902143D01*
X11912143Y-25902143D01*
X11931190Y-25911667D01*
X11940714Y-25930714D01*
X11940714Y-26035476D01*
X12064524Y-26035476D02*
X12045476Y-26025952D01*
X12035952Y-26016428D01*
X12026428Y-25997381D01*
X12026428Y-25940238D01*
X12035952Y-25921190D01*
X12045476Y-25911667D01*
X12064524Y-25902143D01*
X12093095Y-25902143D01*
X12112143Y-25911667D01*
X12121667Y-25921190D01*
X12131190Y-25940238D01*
X12131190Y-25997381D01*
X12121667Y-26016428D01*
X12112143Y-26025952D01*
X12093095Y-26035476D01*
X12064524Y-26035476D01*
X12188333Y-25902143D02*
X12264524Y-25902143D01*
X12216905Y-25835476D02*
X12216905Y-26006905D01*
X12226428Y-26025952D01*
X12245476Y-26035476D01*
X12264524Y-26035476D01*
X12483571Y-25902143D02*
X12483571Y-26102143D01*
X12483571Y-25911667D02*
X12502619Y-25902143D01*
X12540714Y-25902143D01*
X12559762Y-25911667D01*
X12569286Y-25921190D01*
X12578809Y-25940238D01*
X12578809Y-25997381D01*
X12569286Y-26016428D01*
X12559762Y-26025952D01*
X12540714Y-26035476D01*
X12502619Y-26035476D01*
X12483571Y-26025952D01*
X12693095Y-26035476D02*
X12674048Y-26025952D01*
X12664524Y-26006905D01*
X12664524Y-25835476D01*
X12855000Y-26035476D02*
X12855000Y-25930714D01*
X12845476Y-25911667D01*
X12826428Y-25902143D01*
X12788333Y-25902143D01*
X12769286Y-25911667D01*
X12855000Y-26025952D02*
X12835952Y-26035476D01*
X12788333Y-26035476D01*
X12769286Y-26025952D01*
X12759762Y-26006905D01*
X12759762Y-25987857D01*
X12769286Y-25968809D01*
X12788333Y-25959286D01*
X12835952Y-25959286D01*
X12855000Y-25949762D01*
X12921667Y-25902143D02*
X12997857Y-25902143D01*
X12950238Y-25835476D02*
X12950238Y-26006905D01*
X12959762Y-26025952D01*
X12978809Y-26035476D01*
X12997857Y-26035476D01*
X13140714Y-26025952D02*
X13121667Y-26035476D01*
X13083571Y-26035476D01*
X13064524Y-26025952D01*
X13055000Y-26006905D01*
X13055000Y-25930714D01*
X13064524Y-25911667D01*
X13083571Y-25902143D01*
X13121667Y-25902143D01*
X13140714Y-25911667D01*
X13150238Y-25930714D01*
X13150238Y-25949762D01*
X13055000Y-25968809D01*
X13321667Y-26035476D02*
X13321667Y-25835476D01*
X13321667Y-26025952D02*
X13302619Y-26035476D01*
X13264524Y-26035476D01*
X13245476Y-26025952D01*
X13235952Y-26016428D01*
X13226428Y-25997381D01*
X13226428Y-25940238D01*
X13235952Y-25921190D01*
X13245476Y-25911667D01*
X13264524Y-25902143D01*
X13302619Y-25902143D01*
X13321667Y-25911667D01*
X13397857Y-26111667D02*
X13407381Y-26102143D01*
X13426428Y-26073571D01*
X13435952Y-26054524D01*
X13445476Y-26025952D01*
X13455000Y-25978333D01*
X13455000Y-25940238D01*
X13445476Y-25892619D01*
X13435952Y-25864048D01*
X13426428Y-25845000D01*
X13407381Y-25816428D01*
X13397857Y-25806905D01*
D13*
X6645000Y-26209000D02*
G75*
G03*
X6645000Y-26209000I-75000J0D01*
G01*
D11*
X7007381Y-26299476D02*
X6893095Y-26299476D01*
X6950238Y-26299476D02*
X6950238Y-26099476D01*
X6931190Y-26128048D01*
X6912143Y-26147095D01*
X6893095Y-26156619D01*
X7093095Y-26280428D02*
X7102619Y-26289952D01*
X7093095Y-26299476D01*
X7083571Y-26289952D01*
X7093095Y-26280428D01*
X7093095Y-26299476D01*
X7283571Y-26099476D02*
X7188333Y-26099476D01*
X7178809Y-26194714D01*
X7188333Y-26185190D01*
X7207381Y-26175667D01*
X7255000Y-26175667D01*
X7274048Y-26185190D01*
X7283571Y-26194714D01*
X7293095Y-26213762D01*
X7293095Y-26261381D01*
X7283571Y-26280428D01*
X7274048Y-26289952D01*
X7255000Y-26299476D01*
X7207381Y-26299476D01*
X7188333Y-26289952D01*
X7178809Y-26280428D01*
X7416905Y-26099476D02*
X7435952Y-26099476D01*
X7455000Y-26109000D01*
X7464524Y-26118524D01*
X7474048Y-26137571D01*
X7483571Y-26175667D01*
X7483571Y-26223286D01*
X7474048Y-26261381D01*
X7464524Y-26280428D01*
X7455000Y-26289952D01*
X7435952Y-26299476D01*
X7416905Y-26299476D01*
X7397857Y-26289952D01*
X7388333Y-26280428D01*
X7378809Y-26261381D01*
X7369286Y-26223286D01*
X7369286Y-26175667D01*
X7378809Y-26137571D01*
X7388333Y-26118524D01*
X7397857Y-26109000D01*
X7416905Y-26099476D01*
X7607381Y-26099476D02*
X7626428Y-26099476D01*
X7645476Y-26109000D01*
X7655000Y-26118524D01*
X7664524Y-26137571D01*
X7674048Y-26175667D01*
X7674048Y-26223286D01*
X7664524Y-26261381D01*
X7655000Y-26280428D01*
X7645476Y-26289952D01*
X7626428Y-26299476D01*
X7607381Y-26299476D01*
X7588333Y-26289952D01*
X7578809Y-26280428D01*
X7569286Y-26261381D01*
X7559762Y-26223286D01*
X7559762Y-26175667D01*
X7569286Y-26137571D01*
X7578809Y-26118524D01*
X7588333Y-26109000D01*
X7607381Y-26099476D01*
X7759762Y-26299476D02*
X7759762Y-26166143D01*
X7759762Y-26185190D02*
X7769286Y-26175667D01*
X7788333Y-26166143D01*
X7816905Y-26166143D01*
X7835952Y-26175667D01*
X7845476Y-26194714D01*
X7845476Y-26299476D01*
X7845476Y-26194714D02*
X7855000Y-26175667D01*
X7874048Y-26166143D01*
X7902619Y-26166143D01*
X7921667Y-26175667D01*
X7931190Y-26194714D01*
X7931190Y-26299476D01*
X8026428Y-26299476D02*
X8026428Y-26166143D01*
X8026428Y-26185190D02*
X8035952Y-26175667D01*
X8055000Y-26166143D01*
X8083571Y-26166143D01*
X8102619Y-26175667D01*
X8112143Y-26194714D01*
X8112143Y-26299476D01*
X8112143Y-26194714D02*
X8121667Y-26175667D01*
X8140714Y-26166143D01*
X8169286Y-26166143D01*
X8188333Y-26175667D01*
X8197857Y-26194714D01*
X8197857Y-26299476D01*
X8588333Y-26089952D02*
X8416905Y-26347095D01*
X8845476Y-26099476D02*
X8864524Y-26099476D01*
X8883571Y-26109000D01*
X8893095Y-26118524D01*
X8902619Y-26137571D01*
X8912143Y-26175667D01*
X8912143Y-26223286D01*
X8902619Y-26261381D01*
X8893095Y-26280428D01*
X8883571Y-26289952D01*
X8864524Y-26299476D01*
X8845476Y-26299476D01*
X8826429Y-26289952D01*
X8816905Y-26280428D01*
X8807381Y-26261381D01*
X8797857Y-26223286D01*
X8797857Y-26175667D01*
X8807381Y-26137571D01*
X8816905Y-26118524D01*
X8826429Y-26109000D01*
X8845476Y-26099476D01*
X8997857Y-26280428D02*
X9007381Y-26289952D01*
X8997857Y-26299476D01*
X8988333Y-26289952D01*
X8997857Y-26280428D01*
X8997857Y-26299476D01*
X9131190Y-26099476D02*
X9150238Y-26099476D01*
X9169286Y-26109000D01*
X9178810Y-26118524D01*
X9188333Y-26137571D01*
X9197857Y-26175667D01*
X9197857Y-26223286D01*
X9188333Y-26261381D01*
X9178810Y-26280428D01*
X9169286Y-26289952D01*
X9150238Y-26299476D01*
X9131190Y-26299476D01*
X9112143Y-26289952D01*
X9102619Y-26280428D01*
X9093095Y-26261381D01*
X9083571Y-26223286D01*
X9083571Y-26175667D01*
X9093095Y-26137571D01*
X9102619Y-26118524D01*
X9112143Y-26109000D01*
X9131190Y-26099476D01*
X9378810Y-26099476D02*
X9283571Y-26099476D01*
X9274048Y-26194714D01*
X9283571Y-26185190D01*
X9302619Y-26175667D01*
X9350238Y-26175667D01*
X9369286Y-26185190D01*
X9378810Y-26194714D01*
X9388333Y-26213762D01*
X9388333Y-26261381D01*
X9378810Y-26280428D01*
X9369286Y-26289952D01*
X9350238Y-26299476D01*
X9302619Y-26299476D01*
X9283571Y-26289952D01*
X9274048Y-26280428D01*
X9483571Y-26299476D02*
X9521667Y-26299476D01*
X9540714Y-26289952D01*
X9550238Y-26280428D01*
X9569286Y-26251857D01*
X9578810Y-26213762D01*
X9578810Y-26137571D01*
X9569286Y-26118524D01*
X9559762Y-26109000D01*
X9540714Y-26099476D01*
X9502619Y-26099476D01*
X9483571Y-26109000D01*
X9474048Y-26118524D01*
X9464524Y-26137571D01*
X9464524Y-26185190D01*
X9474048Y-26204238D01*
X9483571Y-26213762D01*
X9502619Y-26223286D01*
X9540714Y-26223286D01*
X9559762Y-26213762D01*
X9569286Y-26204238D01*
X9578810Y-26185190D01*
X9769286Y-26299476D02*
X9655000Y-26299476D01*
X9712143Y-26299476D02*
X9712143Y-26099476D01*
X9693095Y-26128048D01*
X9674048Y-26147095D01*
X9655000Y-26156619D01*
X9845476Y-26099476D02*
X9845476Y-26137571D01*
X9921667Y-26099476D02*
X9921667Y-26137571D01*
X10216905Y-26375667D02*
X10207381Y-26366143D01*
X10188333Y-26337571D01*
X10178810Y-26318524D01*
X10169286Y-26289952D01*
X10159762Y-26242333D01*
X10159762Y-26204238D01*
X10169286Y-26156619D01*
X10178810Y-26128048D01*
X10188333Y-26109000D01*
X10207381Y-26080428D01*
X10216905Y-26070905D01*
X10283571Y-26118524D02*
X10293095Y-26109000D01*
X10312143Y-26099476D01*
X10359762Y-26099476D01*
X10378810Y-26109000D01*
X10388333Y-26118524D01*
X10397857Y-26137571D01*
X10397857Y-26156619D01*
X10388333Y-26185190D01*
X10274048Y-26299476D01*
X10397857Y-26299476D01*
X10635952Y-26299476D02*
X10635952Y-26099476D01*
X10721667Y-26299476D02*
X10721667Y-26194714D01*
X10712143Y-26175667D01*
X10693095Y-26166143D01*
X10664524Y-26166143D01*
X10645476Y-26175667D01*
X10635952Y-26185190D01*
X10845476Y-26299476D02*
X10826429Y-26289952D01*
X10816905Y-26280428D01*
X10807381Y-26261381D01*
X10807381Y-26204238D01*
X10816905Y-26185190D01*
X10826429Y-26175667D01*
X10845476Y-26166143D01*
X10874048Y-26166143D01*
X10893095Y-26175667D01*
X10902619Y-26185190D01*
X10912143Y-26204238D01*
X10912143Y-26261381D01*
X10902619Y-26280428D01*
X10893095Y-26289952D01*
X10874048Y-26299476D01*
X10845476Y-26299476D01*
X11026429Y-26299476D02*
X11007381Y-26289952D01*
X10997857Y-26270905D01*
X10997857Y-26099476D01*
X11178810Y-26289952D02*
X11159762Y-26299476D01*
X11121667Y-26299476D01*
X11102619Y-26289952D01*
X11093095Y-26270905D01*
X11093095Y-26194714D01*
X11102619Y-26175667D01*
X11121667Y-26166143D01*
X11159762Y-26166143D01*
X11178810Y-26175667D01*
X11188333Y-26194714D01*
X11188333Y-26213762D01*
X11093095Y-26232809D01*
X11264524Y-26289952D02*
X11283571Y-26299476D01*
X11321667Y-26299476D01*
X11340714Y-26289952D01*
X11350238Y-26270905D01*
X11350238Y-26261381D01*
X11340714Y-26242333D01*
X11321667Y-26232809D01*
X11293095Y-26232809D01*
X11274048Y-26223286D01*
X11264524Y-26204238D01*
X11264524Y-26194714D01*
X11274048Y-26175667D01*
X11293095Y-26166143D01*
X11321667Y-26166143D01*
X11340714Y-26175667D01*
X11416905Y-26375667D02*
X11426428Y-26366143D01*
X11445476Y-26337571D01*
X11455000Y-26318524D01*
X11464524Y-26289952D01*
X11474048Y-26242333D01*
X11474048Y-26204238D01*
X11464524Y-26156619D01*
X11455000Y-26128048D01*
X11445476Y-26109000D01*
X11426428Y-26080428D01*
X11416905Y-26070905D01*
X11778809Y-26375667D02*
X11769286Y-26366143D01*
X11750238Y-26337571D01*
X11740714Y-26318524D01*
X11731190Y-26289952D01*
X11721667Y-26242333D01*
X11721667Y-26204238D01*
X11731190Y-26156619D01*
X11740714Y-26128048D01*
X11750238Y-26109000D01*
X11769286Y-26080428D01*
X11778809Y-26070905D01*
X11855000Y-26166143D02*
X11855000Y-26299476D01*
X11855000Y-26185190D02*
X11864524Y-26175667D01*
X11883571Y-26166143D01*
X11912143Y-26166143D01*
X11931190Y-26175667D01*
X11940714Y-26194714D01*
X11940714Y-26299476D01*
X12064524Y-26299476D02*
X12045476Y-26289952D01*
X12035952Y-26280428D01*
X12026428Y-26261381D01*
X12026428Y-26204238D01*
X12035952Y-26185190D01*
X12045476Y-26175667D01*
X12064524Y-26166143D01*
X12093095Y-26166143D01*
X12112143Y-26175667D01*
X12121667Y-26185190D01*
X12131190Y-26204238D01*
X12131190Y-26261381D01*
X12121667Y-26280428D01*
X12112143Y-26289952D01*
X12093095Y-26299476D01*
X12064524Y-26299476D01*
X12188333Y-26166143D02*
X12264524Y-26166143D01*
X12216905Y-26099476D02*
X12216905Y-26270905D01*
X12226428Y-26289952D01*
X12245476Y-26299476D01*
X12264524Y-26299476D01*
X12483571Y-26166143D02*
X12483571Y-26366143D01*
X12483571Y-26175667D02*
X12502619Y-26166143D01*
X12540714Y-26166143D01*
X12559762Y-26175667D01*
X12569286Y-26185190D01*
X12578809Y-26204238D01*
X12578809Y-26261381D01*
X12569286Y-26280428D01*
X12559762Y-26289952D01*
X12540714Y-26299476D01*
X12502619Y-26299476D01*
X12483571Y-26289952D01*
X12693095Y-26299476D02*
X12674048Y-26289952D01*
X12664524Y-26270905D01*
X12664524Y-26099476D01*
X12855000Y-26299476D02*
X12855000Y-26194714D01*
X12845476Y-26175667D01*
X12826428Y-26166143D01*
X12788333Y-26166143D01*
X12769286Y-26175667D01*
X12855000Y-26289952D02*
X12835952Y-26299476D01*
X12788333Y-26299476D01*
X12769286Y-26289952D01*
X12759762Y-26270905D01*
X12759762Y-26251857D01*
X12769286Y-26232809D01*
X12788333Y-26223286D01*
X12835952Y-26223286D01*
X12855000Y-26213762D01*
X12921667Y-26166143D02*
X12997857Y-26166143D01*
X12950238Y-26099476D02*
X12950238Y-26270905D01*
X12959762Y-26289952D01*
X12978809Y-26299476D01*
X12997857Y-26299476D01*
X13140714Y-26289952D02*
X13121667Y-26299476D01*
X13083571Y-26299476D01*
X13064524Y-26289952D01*
X13055000Y-26270905D01*
X13055000Y-26194714D01*
X13064524Y-26175667D01*
X13083571Y-26166143D01*
X13121667Y-26166143D01*
X13140714Y-26175667D01*
X13150238Y-26194714D01*
X13150238Y-26213762D01*
X13055000Y-26232809D01*
X13321667Y-26299476D02*
X13321667Y-26099476D01*
X13321667Y-26289952D02*
X13302619Y-26299476D01*
X13264524Y-26299476D01*
X13245476Y-26289952D01*
X13235952Y-26280428D01*
X13226428Y-26261381D01*
X13226428Y-26204238D01*
X13235952Y-26185190D01*
X13245476Y-26175667D01*
X13264524Y-26166143D01*
X13302619Y-26166143D01*
X13321667Y-26175667D01*
X13397857Y-26375667D02*
X13407381Y-26366143D01*
X13426428Y-26337571D01*
X13435952Y-26318524D01*
X13445476Y-26289952D01*
X13455000Y-26242333D01*
X13455000Y-26204238D01*
X13445476Y-26156619D01*
X13435952Y-26128048D01*
X13426428Y-26109000D01*
X13407381Y-26080428D01*
X13397857Y-26070905D01*
D14*
X6560000Y-26394000D02*
X6560000Y-26564000D01*
X6475000Y-26479000D02*
X6645000Y-26479000D01*
D11*
X7007381Y-26569476D02*
X6893095Y-26569476D01*
X6950238Y-26569476D02*
X6950238Y-26369476D01*
X6931190Y-26398048D01*
X6912143Y-26417095D01*
X6893095Y-26426619D01*
X7093095Y-26550428D02*
X7102619Y-26559952D01*
X7093095Y-26569476D01*
X7083571Y-26559952D01*
X7093095Y-26550428D01*
X7093095Y-26569476D01*
X7169286Y-26369476D02*
X7302619Y-26369476D01*
X7216905Y-26569476D01*
X7416905Y-26369476D02*
X7435952Y-26369476D01*
X7455000Y-26379000D01*
X7464524Y-26388524D01*
X7474048Y-26407571D01*
X7483571Y-26445667D01*
X7483571Y-26493286D01*
X7474048Y-26531381D01*
X7464524Y-26550428D01*
X7455000Y-26559952D01*
X7435952Y-26569476D01*
X7416905Y-26569476D01*
X7397857Y-26559952D01*
X7388333Y-26550428D01*
X7378809Y-26531381D01*
X7369286Y-26493286D01*
X7369286Y-26445667D01*
X7378809Y-26407571D01*
X7388333Y-26388524D01*
X7397857Y-26379000D01*
X7416905Y-26369476D01*
X7607381Y-26369476D02*
X7626428Y-26369476D01*
X7645476Y-26379000D01*
X7655000Y-26388524D01*
X7664524Y-26407571D01*
X7674048Y-26445667D01*
X7674048Y-26493286D01*
X7664524Y-26531381D01*
X7655000Y-26550428D01*
X7645476Y-26559952D01*
X7626428Y-26569476D01*
X7607381Y-26569476D01*
X7588333Y-26559952D01*
X7578809Y-26550428D01*
X7569286Y-26531381D01*
X7559762Y-26493286D01*
X7559762Y-26445667D01*
X7569286Y-26407571D01*
X7578809Y-26388524D01*
X7588333Y-26379000D01*
X7607381Y-26369476D01*
X7759762Y-26569476D02*
X7759762Y-26436143D01*
X7759762Y-26455190D02*
X7769286Y-26445667D01*
X7788333Y-26436143D01*
X7816905Y-26436143D01*
X7835952Y-26445667D01*
X7845476Y-26464714D01*
X7845476Y-26569476D01*
X7845476Y-26464714D02*
X7855000Y-26445667D01*
X7874048Y-26436143D01*
X7902619Y-26436143D01*
X7921667Y-26445667D01*
X7931190Y-26464714D01*
X7931190Y-26569476D01*
X8026428Y-26569476D02*
X8026428Y-26436143D01*
X8026428Y-26455190D02*
X8035952Y-26445667D01*
X8055000Y-26436143D01*
X8083571Y-26436143D01*
X8102619Y-26445667D01*
X8112143Y-26464714D01*
X8112143Y-26569476D01*
X8112143Y-26464714D02*
X8121667Y-26445667D01*
X8140714Y-26436143D01*
X8169286Y-26436143D01*
X8188333Y-26445667D01*
X8197857Y-26464714D01*
X8197857Y-26569476D01*
X8588333Y-26359952D02*
X8416905Y-26617095D01*
X8845476Y-26369476D02*
X8864524Y-26369476D01*
X8883571Y-26379000D01*
X8893095Y-26388524D01*
X8902619Y-26407571D01*
X8912143Y-26445667D01*
X8912143Y-26493286D01*
X8902619Y-26531381D01*
X8893095Y-26550428D01*
X8883571Y-26559952D01*
X8864524Y-26569476D01*
X8845476Y-26569476D01*
X8826429Y-26559952D01*
X8816905Y-26550428D01*
X8807381Y-26531381D01*
X8797857Y-26493286D01*
X8797857Y-26445667D01*
X8807381Y-26407571D01*
X8816905Y-26388524D01*
X8826429Y-26379000D01*
X8845476Y-26369476D01*
X8997857Y-26550428D02*
X9007381Y-26559952D01*
X8997857Y-26569476D01*
X8988333Y-26559952D01*
X8997857Y-26550428D01*
X8997857Y-26569476D01*
X9131190Y-26369476D02*
X9150238Y-26369476D01*
X9169286Y-26379000D01*
X9178810Y-26388524D01*
X9188333Y-26407571D01*
X9197857Y-26445667D01*
X9197857Y-26493286D01*
X9188333Y-26531381D01*
X9178810Y-26550428D01*
X9169286Y-26559952D01*
X9150238Y-26569476D01*
X9131190Y-26569476D01*
X9112143Y-26559952D01*
X9102619Y-26550428D01*
X9093095Y-26531381D01*
X9083571Y-26493286D01*
X9083571Y-26445667D01*
X9093095Y-26407571D01*
X9102619Y-26388524D01*
X9112143Y-26379000D01*
X9131190Y-26369476D01*
X9369286Y-26369476D02*
X9331190Y-26369476D01*
X9312143Y-26379000D01*
X9302619Y-26388524D01*
X9283571Y-26417095D01*
X9274048Y-26455190D01*
X9274048Y-26531381D01*
X9283571Y-26550428D01*
X9293095Y-26559952D01*
X9312143Y-26569476D01*
X9350238Y-26569476D01*
X9369286Y-26559952D01*
X9378810Y-26550428D01*
X9388333Y-26531381D01*
X9388333Y-26483762D01*
X9378810Y-26464714D01*
X9369286Y-26455190D01*
X9350238Y-26445667D01*
X9312143Y-26445667D01*
X9293095Y-26455190D01*
X9283571Y-26464714D01*
X9274048Y-26483762D01*
X9559762Y-26369476D02*
X9521667Y-26369476D01*
X9502619Y-26379000D01*
X9493095Y-26388524D01*
X9474048Y-26417095D01*
X9464524Y-26455190D01*
X9464524Y-26531381D01*
X9474048Y-26550428D01*
X9483571Y-26559952D01*
X9502619Y-26569476D01*
X9540714Y-26569476D01*
X9559762Y-26559952D01*
X9569286Y-26550428D01*
X9578810Y-26531381D01*
X9578810Y-26483762D01*
X9569286Y-26464714D01*
X9559762Y-26455190D01*
X9540714Y-26445667D01*
X9502619Y-26445667D01*
X9483571Y-26455190D01*
X9474048Y-26464714D01*
X9464524Y-26483762D01*
X9674048Y-26569476D02*
X9712143Y-26569476D01*
X9731190Y-26559952D01*
X9740714Y-26550428D01*
X9759762Y-26521857D01*
X9769286Y-26483762D01*
X9769286Y-26407571D01*
X9759762Y-26388524D01*
X9750238Y-26379000D01*
X9731190Y-26369476D01*
X9693095Y-26369476D01*
X9674048Y-26379000D01*
X9664524Y-26388524D01*
X9655000Y-26407571D01*
X9655000Y-26455190D01*
X9664524Y-26474238D01*
X9674048Y-26483762D01*
X9693095Y-26493286D01*
X9731190Y-26493286D01*
X9750238Y-26483762D01*
X9759762Y-26474238D01*
X9769286Y-26455190D01*
X9845476Y-26369476D02*
X9845476Y-26407571D01*
X9921667Y-26369476D02*
X9921667Y-26407571D01*
X10216905Y-26645667D02*
X10207381Y-26636143D01*
X10188333Y-26607571D01*
X10178810Y-26588524D01*
X10169286Y-26559952D01*
X10159762Y-26512333D01*
X10159762Y-26474238D01*
X10169286Y-26426619D01*
X10178810Y-26398048D01*
X10188333Y-26379000D01*
X10207381Y-26350428D01*
X10216905Y-26340905D01*
X10302619Y-26569476D02*
X10340714Y-26569476D01*
X10359762Y-26559952D01*
X10369286Y-26550428D01*
X10388333Y-26521857D01*
X10397857Y-26483762D01*
X10397857Y-26407571D01*
X10388333Y-26388524D01*
X10378810Y-26379000D01*
X10359762Y-26369476D01*
X10321667Y-26369476D01*
X10302619Y-26379000D01*
X10293095Y-26388524D01*
X10283571Y-26407571D01*
X10283571Y-26455190D01*
X10293095Y-26474238D01*
X10302619Y-26483762D01*
X10321667Y-26493286D01*
X10359762Y-26493286D01*
X10378810Y-26483762D01*
X10388333Y-26474238D01*
X10397857Y-26455190D01*
X10569286Y-26436143D02*
X10569286Y-26569476D01*
X10521667Y-26359952D02*
X10474048Y-26502809D01*
X10597857Y-26502809D01*
X10826429Y-26569476D02*
X10826429Y-26369476D01*
X10912143Y-26569476D02*
X10912143Y-26464714D01*
X10902619Y-26445667D01*
X10883571Y-26436143D01*
X10855000Y-26436143D01*
X10835952Y-26445667D01*
X10826429Y-26455190D01*
X11035952Y-26569476D02*
X11016905Y-26559952D01*
X11007381Y-26550428D01*
X10997857Y-26531381D01*
X10997857Y-26474238D01*
X11007381Y-26455190D01*
X11016905Y-26445667D01*
X11035952Y-26436143D01*
X11064524Y-26436143D01*
X11083571Y-26445667D01*
X11093095Y-26455190D01*
X11102619Y-26474238D01*
X11102619Y-26531381D01*
X11093095Y-26550428D01*
X11083571Y-26559952D01*
X11064524Y-26569476D01*
X11035952Y-26569476D01*
X11216905Y-26569476D02*
X11197857Y-26559952D01*
X11188333Y-26540905D01*
X11188333Y-26369476D01*
X11369286Y-26559952D02*
X11350238Y-26569476D01*
X11312143Y-26569476D01*
X11293095Y-26559952D01*
X11283571Y-26540905D01*
X11283571Y-26464714D01*
X11293095Y-26445667D01*
X11312143Y-26436143D01*
X11350238Y-26436143D01*
X11369286Y-26445667D01*
X11378809Y-26464714D01*
X11378809Y-26483762D01*
X11283571Y-26502809D01*
X11455000Y-26559952D02*
X11474048Y-26569476D01*
X11512143Y-26569476D01*
X11531190Y-26559952D01*
X11540714Y-26540905D01*
X11540714Y-26531381D01*
X11531190Y-26512333D01*
X11512143Y-26502809D01*
X11483571Y-26502809D01*
X11464524Y-26493286D01*
X11455000Y-26474238D01*
X11455000Y-26464714D01*
X11464524Y-26445667D01*
X11483571Y-26436143D01*
X11512143Y-26436143D01*
X11531190Y-26445667D01*
X11607381Y-26645667D02*
X11616905Y-26636143D01*
X11635952Y-26607571D01*
X11645476Y-26588524D01*
X11655000Y-26559952D01*
X11664524Y-26512333D01*
X11664524Y-26474238D01*
X11655000Y-26426619D01*
X11645476Y-26398048D01*
X11635952Y-26379000D01*
X11616905Y-26350428D01*
X11607381Y-26340905D01*
X11969286Y-26645667D02*
X11959762Y-26636143D01*
X11940714Y-26607571D01*
X11931190Y-26588524D01*
X11921667Y-26559952D01*
X11912143Y-26512333D01*
X11912143Y-26474238D01*
X11921667Y-26426619D01*
X11931190Y-26398048D01*
X11940714Y-26379000D01*
X11959762Y-26350428D01*
X11969286Y-26340905D01*
X12045476Y-26436143D02*
X12045476Y-26569476D01*
X12045476Y-26455190D02*
X12055000Y-26445667D01*
X12074048Y-26436143D01*
X12102619Y-26436143D01*
X12121667Y-26445667D01*
X12131190Y-26464714D01*
X12131190Y-26569476D01*
X12255000Y-26569476D02*
X12235952Y-26559952D01*
X12226428Y-26550428D01*
X12216905Y-26531381D01*
X12216905Y-26474238D01*
X12226428Y-26455190D01*
X12235952Y-26445667D01*
X12255000Y-26436143D01*
X12283571Y-26436143D01*
X12302619Y-26445667D01*
X12312143Y-26455190D01*
X12321667Y-26474238D01*
X12321667Y-26531381D01*
X12312143Y-26550428D01*
X12302619Y-26559952D01*
X12283571Y-26569476D01*
X12255000Y-26569476D01*
X12378809Y-26436143D02*
X12455000Y-26436143D01*
X12407381Y-26369476D02*
X12407381Y-26540905D01*
X12416905Y-26559952D01*
X12435952Y-26569476D01*
X12455000Y-26569476D01*
X12674048Y-26436143D02*
X12674048Y-26636143D01*
X12674048Y-26445667D02*
X12693095Y-26436143D01*
X12731190Y-26436143D01*
X12750238Y-26445667D01*
X12759762Y-26455190D01*
X12769286Y-26474238D01*
X12769286Y-26531381D01*
X12759762Y-26550428D01*
X12750238Y-26559952D01*
X12731190Y-26569476D01*
X12693095Y-26569476D01*
X12674048Y-26559952D01*
X12883571Y-26569476D02*
X12864524Y-26559952D01*
X12855000Y-26540905D01*
X12855000Y-26369476D01*
X13045476Y-26569476D02*
X13045476Y-26464714D01*
X13035952Y-26445667D01*
X13016905Y-26436143D01*
X12978809Y-26436143D01*
X12959762Y-26445667D01*
X13045476Y-26559952D02*
X13026428Y-26569476D01*
X12978809Y-26569476D01*
X12959762Y-26559952D01*
X12950238Y-26540905D01*
X12950238Y-26521857D01*
X12959762Y-26502809D01*
X12978809Y-26493286D01*
X13026428Y-26493286D01*
X13045476Y-26483762D01*
X13112143Y-26436143D02*
X13188333Y-26436143D01*
X13140714Y-26369476D02*
X13140714Y-26540905D01*
X13150238Y-26559952D01*
X13169286Y-26569476D01*
X13188333Y-26569476D01*
X13331190Y-26559952D02*
X13312143Y-26569476D01*
X13274048Y-26569476D01*
X13255000Y-26559952D01*
X13245476Y-26540905D01*
X13245476Y-26464714D01*
X13255000Y-26445667D01*
X13274048Y-26436143D01*
X13312143Y-26436143D01*
X13331190Y-26445667D01*
X13340714Y-26464714D01*
X13340714Y-26483762D01*
X13245476Y-26502809D01*
X13512143Y-26569476D02*
X13512143Y-26369476D01*
X13512143Y-26559952D02*
X13493095Y-26569476D01*
X13455000Y-26569476D01*
X13435952Y-26559952D01*
X13426428Y-26550428D01*
X13416905Y-26531381D01*
X13416905Y-26474238D01*
X13426428Y-26455190D01*
X13435952Y-26445667D01*
X13455000Y-26436143D01*
X13493095Y-26436143D01*
X13512143Y-26445667D01*
X13588333Y-26645667D02*
X13597857Y-26636143D01*
X13616905Y-26607571D01*
X13626428Y-26588524D01*
X13635952Y-26559952D01*
X13645476Y-26512333D01*
X13645476Y-26474238D01*
X13635952Y-26426619D01*
X13626428Y-26398048D01*
X13616905Y-26379000D01*
X13597857Y-26350428D01*
X13588333Y-26340905D01*
D15*
X6618640Y-26832640D02*
X6618640Y-26705360D01*
X6491360Y-26705360D01*
X6491360Y-26832640D01*
X6618640Y-26832640D01*
D11*
X7007381Y-26859476D02*
X6893095Y-26859476D01*
X6950238Y-26859476D02*
X6950238Y-26659476D01*
X6931190Y-26688048D01*
X6912143Y-26707095D01*
X6893095Y-26716619D01*
X7093095Y-26840428D02*
X7102619Y-26849952D01*
X7093095Y-26859476D01*
X7083571Y-26849952D01*
X7093095Y-26840428D01*
X7093095Y-26859476D01*
X7216905Y-26745190D02*
X7197857Y-26735667D01*
X7188333Y-26726143D01*
X7178809Y-26707095D01*
X7178809Y-26697571D01*
X7188333Y-26678524D01*
X7197857Y-26669000D01*
X7216905Y-26659476D01*
X7255000Y-26659476D01*
X7274048Y-26669000D01*
X7283571Y-26678524D01*
X7293095Y-26697571D01*
X7293095Y-26707095D01*
X7283571Y-26726143D01*
X7274048Y-26735667D01*
X7255000Y-26745190D01*
X7216905Y-26745190D01*
X7197857Y-26754714D01*
X7188333Y-26764238D01*
X7178809Y-26783286D01*
X7178809Y-26821381D01*
X7188333Y-26840428D01*
X7197857Y-26849952D01*
X7216905Y-26859476D01*
X7255000Y-26859476D01*
X7274048Y-26849952D01*
X7283571Y-26840428D01*
X7293095Y-26821381D01*
X7293095Y-26783286D01*
X7283571Y-26764238D01*
X7274048Y-26754714D01*
X7255000Y-26745190D01*
X7416905Y-26659476D02*
X7435952Y-26659476D01*
X7455000Y-26669000D01*
X7464524Y-26678524D01*
X7474048Y-26697571D01*
X7483571Y-26735667D01*
X7483571Y-26783286D01*
X7474048Y-26821381D01*
X7464524Y-26840428D01*
X7455000Y-26849952D01*
X7435952Y-26859476D01*
X7416905Y-26859476D01*
X7397857Y-26849952D01*
X7388333Y-26840428D01*
X7378809Y-26821381D01*
X7369286Y-26783286D01*
X7369286Y-26735667D01*
X7378809Y-26697571D01*
X7388333Y-26678524D01*
X7397857Y-26669000D01*
X7416905Y-26659476D01*
X7607381Y-26659476D02*
X7626428Y-26659476D01*
X7645476Y-26669000D01*
X7655000Y-26678524D01*
X7664524Y-26697571D01*
X7674048Y-26735667D01*
X7674048Y-26783286D01*
X7664524Y-26821381D01*
X7655000Y-26840428D01*
X7645476Y-26849952D01*
X7626428Y-26859476D01*
X7607381Y-26859476D01*
X7588333Y-26849952D01*
X7578809Y-26840428D01*
X7569286Y-26821381D01*
X7559762Y-26783286D01*
X7559762Y-26735667D01*
X7569286Y-26697571D01*
X7578809Y-26678524D01*
X7588333Y-26669000D01*
X7607381Y-26659476D01*
X7759762Y-26859476D02*
X7759762Y-26726143D01*
X7759762Y-26745190D02*
X7769286Y-26735667D01*
X7788333Y-26726143D01*
X7816905Y-26726143D01*
X7835952Y-26735667D01*
X7845476Y-26754714D01*
X7845476Y-26859476D01*
X7845476Y-26754714D02*
X7855000Y-26735667D01*
X7874048Y-26726143D01*
X7902619Y-26726143D01*
X7921667Y-26735667D01*
X7931190Y-26754714D01*
X7931190Y-26859476D01*
X8026428Y-26859476D02*
X8026428Y-26726143D01*
X8026428Y-26745190D02*
X8035952Y-26735667D01*
X8055000Y-26726143D01*
X8083571Y-26726143D01*
X8102619Y-26735667D01*
X8112143Y-26754714D01*
X8112143Y-26859476D01*
X8112143Y-26754714D02*
X8121667Y-26735667D01*
X8140714Y-26726143D01*
X8169286Y-26726143D01*
X8188333Y-26735667D01*
X8197857Y-26754714D01*
X8197857Y-26859476D01*
X8588333Y-26649952D02*
X8416905Y-26907095D01*
X8845476Y-26659476D02*
X8864524Y-26659476D01*
X8883571Y-26669000D01*
X8893095Y-26678524D01*
X8902619Y-26697571D01*
X8912143Y-26735667D01*
X8912143Y-26783286D01*
X8902619Y-26821381D01*
X8893095Y-26840428D01*
X8883571Y-26849952D01*
X8864524Y-26859476D01*
X8845476Y-26859476D01*
X8826429Y-26849952D01*
X8816905Y-26840428D01*
X8807381Y-26821381D01*
X8797857Y-26783286D01*
X8797857Y-26735667D01*
X8807381Y-26697571D01*
X8816905Y-26678524D01*
X8826429Y-26669000D01*
X8845476Y-26659476D01*
X8997857Y-26840428D02*
X9007381Y-26849952D01*
X8997857Y-26859476D01*
X8988333Y-26849952D01*
X8997857Y-26840428D01*
X8997857Y-26859476D01*
X9131190Y-26659476D02*
X9150238Y-26659476D01*
X9169286Y-26669000D01*
X9178810Y-26678524D01*
X9188333Y-26697571D01*
X9197857Y-26735667D01*
X9197857Y-26783286D01*
X9188333Y-26821381D01*
X9178810Y-26840428D01*
X9169286Y-26849952D01*
X9150238Y-26859476D01*
X9131190Y-26859476D01*
X9112143Y-26849952D01*
X9102619Y-26840428D01*
X9093095Y-26821381D01*
X9083571Y-26783286D01*
X9083571Y-26735667D01*
X9093095Y-26697571D01*
X9102619Y-26678524D01*
X9112143Y-26669000D01*
X9131190Y-26659476D01*
X9264524Y-26659476D02*
X9397857Y-26659476D01*
X9312143Y-26859476D01*
X9512143Y-26659476D02*
X9531190Y-26659476D01*
X9550238Y-26669000D01*
X9559762Y-26678524D01*
X9569286Y-26697571D01*
X9578810Y-26735667D01*
X9578810Y-26783286D01*
X9569286Y-26821381D01*
X9559762Y-26840428D01*
X9550238Y-26849952D01*
X9531190Y-26859476D01*
X9512143Y-26859476D01*
X9493095Y-26849952D01*
X9483571Y-26840428D01*
X9474048Y-26821381D01*
X9464524Y-26783286D01*
X9464524Y-26735667D01*
X9474048Y-26697571D01*
X9483571Y-26678524D01*
X9493095Y-26669000D01*
X9512143Y-26659476D01*
X9674048Y-26859476D02*
X9712143Y-26859476D01*
X9731190Y-26849952D01*
X9740714Y-26840428D01*
X9759762Y-26811857D01*
X9769286Y-26773762D01*
X9769286Y-26697571D01*
X9759762Y-26678524D01*
X9750238Y-26669000D01*
X9731190Y-26659476D01*
X9693095Y-26659476D01*
X9674048Y-26669000D01*
X9664524Y-26678524D01*
X9655000Y-26697571D01*
X9655000Y-26745190D01*
X9664524Y-26764238D01*
X9674048Y-26773762D01*
X9693095Y-26783286D01*
X9731190Y-26783286D01*
X9750238Y-26773762D01*
X9759762Y-26764238D01*
X9769286Y-26745190D01*
X9845476Y-26659476D02*
X9845476Y-26697571D01*
X9921667Y-26659476D02*
X9921667Y-26697571D01*
X10216905Y-26935667D02*
X10207381Y-26926143D01*
X10188333Y-26897571D01*
X10178810Y-26878524D01*
X10169286Y-26849952D01*
X10159762Y-26802333D01*
X10159762Y-26764238D01*
X10169286Y-26716619D01*
X10178810Y-26688048D01*
X10188333Y-26669000D01*
X10207381Y-26640428D01*
X10216905Y-26630905D01*
X10283571Y-26678524D02*
X10293095Y-26669000D01*
X10312143Y-26659476D01*
X10359762Y-26659476D01*
X10378810Y-26669000D01*
X10388333Y-26678524D01*
X10397857Y-26697571D01*
X10397857Y-26716619D01*
X10388333Y-26745190D01*
X10274048Y-26859476D01*
X10397857Y-26859476D01*
X10635952Y-26859476D02*
X10635952Y-26659476D01*
X10721667Y-26859476D02*
X10721667Y-26754714D01*
X10712143Y-26735667D01*
X10693095Y-26726143D01*
X10664524Y-26726143D01*
X10645476Y-26735667D01*
X10635952Y-26745190D01*
X10845476Y-26859476D02*
X10826429Y-26849952D01*
X10816905Y-26840428D01*
X10807381Y-26821381D01*
X10807381Y-26764238D01*
X10816905Y-26745190D01*
X10826429Y-26735667D01*
X10845476Y-26726143D01*
X10874048Y-26726143D01*
X10893095Y-26735667D01*
X10902619Y-26745190D01*
X10912143Y-26764238D01*
X10912143Y-26821381D01*
X10902619Y-26840428D01*
X10893095Y-26849952D01*
X10874048Y-26859476D01*
X10845476Y-26859476D01*
X11026429Y-26859476D02*
X11007381Y-26849952D01*
X10997857Y-26830905D01*
X10997857Y-26659476D01*
X11178810Y-26849952D02*
X11159762Y-26859476D01*
X11121667Y-26859476D01*
X11102619Y-26849952D01*
X11093095Y-26830905D01*
X11093095Y-26754714D01*
X11102619Y-26735667D01*
X11121667Y-26726143D01*
X11159762Y-26726143D01*
X11178810Y-26735667D01*
X11188333Y-26754714D01*
X11188333Y-26773762D01*
X11093095Y-26792809D01*
X11264524Y-26849952D02*
X11283571Y-26859476D01*
X11321667Y-26859476D01*
X11340714Y-26849952D01*
X11350238Y-26830905D01*
X11350238Y-26821381D01*
X11340714Y-26802333D01*
X11321667Y-26792809D01*
X11293095Y-26792809D01*
X11274048Y-26783286D01*
X11264524Y-26764238D01*
X11264524Y-26754714D01*
X11274048Y-26735667D01*
X11293095Y-26726143D01*
X11321667Y-26726143D01*
X11340714Y-26735667D01*
X11416905Y-26935667D02*
X11426428Y-26926143D01*
X11445476Y-26897571D01*
X11455000Y-26878524D01*
X11464524Y-26849952D01*
X11474048Y-26802333D01*
X11474048Y-26764238D01*
X11464524Y-26716619D01*
X11455000Y-26688048D01*
X11445476Y-26669000D01*
X11426428Y-26640428D01*
X11416905Y-26630905D01*
X11778809Y-26935667D02*
X11769286Y-26926143D01*
X11750238Y-26897571D01*
X11740714Y-26878524D01*
X11731190Y-26849952D01*
X11721667Y-26802333D01*
X11721667Y-26764238D01*
X11731190Y-26716619D01*
X11740714Y-26688048D01*
X11750238Y-26669000D01*
X11769286Y-26640428D01*
X11778809Y-26630905D01*
X11855000Y-26726143D02*
X11855000Y-26859476D01*
X11855000Y-26745190D02*
X11864524Y-26735667D01*
X11883571Y-26726143D01*
X11912143Y-26726143D01*
X11931190Y-26735667D01*
X11940714Y-26754714D01*
X11940714Y-26859476D01*
X12064524Y-26859476D02*
X12045476Y-26849952D01*
X12035952Y-26840428D01*
X12026428Y-26821381D01*
X12026428Y-26764238D01*
X12035952Y-26745190D01*
X12045476Y-26735667D01*
X12064524Y-26726143D01*
X12093095Y-26726143D01*
X12112143Y-26735667D01*
X12121667Y-26745190D01*
X12131190Y-26764238D01*
X12131190Y-26821381D01*
X12121667Y-26840428D01*
X12112143Y-26849952D01*
X12093095Y-26859476D01*
X12064524Y-26859476D01*
X12188333Y-26726143D02*
X12264524Y-26726143D01*
X12216905Y-26659476D02*
X12216905Y-26830905D01*
X12226428Y-26849952D01*
X12245476Y-26859476D01*
X12264524Y-26859476D01*
X12483571Y-26726143D02*
X12483571Y-26926143D01*
X12483571Y-26735667D02*
X12502619Y-26726143D01*
X12540714Y-26726143D01*
X12559762Y-26735667D01*
X12569286Y-26745190D01*
X12578809Y-26764238D01*
X12578809Y-26821381D01*
X12569286Y-26840428D01*
X12559762Y-26849952D01*
X12540714Y-26859476D01*
X12502619Y-26859476D01*
X12483571Y-26849952D01*
X12693095Y-26859476D02*
X12674048Y-26849952D01*
X12664524Y-26830905D01*
X12664524Y-26659476D01*
X12855000Y-26859476D02*
X12855000Y-26754714D01*
X12845476Y-26735667D01*
X12826428Y-26726143D01*
X12788333Y-26726143D01*
X12769286Y-26735667D01*
X12855000Y-26849952D02*
X12835952Y-26859476D01*
X12788333Y-26859476D01*
X12769286Y-26849952D01*
X12759762Y-26830905D01*
X12759762Y-26811857D01*
X12769286Y-26792809D01*
X12788333Y-26783286D01*
X12835952Y-26783286D01*
X12855000Y-26773762D01*
X12921667Y-26726143D02*
X12997857Y-26726143D01*
X12950238Y-26659476D02*
X12950238Y-26830905D01*
X12959762Y-26849952D01*
X12978809Y-26859476D01*
X12997857Y-26859476D01*
X13140714Y-26849952D02*
X13121667Y-26859476D01*
X13083571Y-26859476D01*
X13064524Y-26849952D01*
X13055000Y-26830905D01*
X13055000Y-26754714D01*
X13064524Y-26735667D01*
X13083571Y-26726143D01*
X13121667Y-26726143D01*
X13140714Y-26735667D01*
X13150238Y-26754714D01*
X13150238Y-26773762D01*
X13055000Y-26792809D01*
X13321667Y-26859476D02*
X13321667Y-26659476D01*
X13321667Y-26849952D02*
X13302619Y-26859476D01*
X13264524Y-26859476D01*
X13245476Y-26849952D01*
X13235952Y-26840428D01*
X13226428Y-26821381D01*
X13226428Y-26764238D01*
X13235952Y-26745190D01*
X13245476Y-26735667D01*
X13264524Y-26726143D01*
X13302619Y-26726143D01*
X13321667Y-26735667D01*
X13397857Y-26935667D02*
X13407381Y-26926143D01*
X13426428Y-26897571D01*
X13435952Y-26878524D01*
X13445476Y-26849952D01*
X13455000Y-26802333D01*
X13455000Y-26764238D01*
X13445476Y-26716619D01*
X13435952Y-26688048D01*
X13426428Y-26669000D01*
X13407381Y-26640428D01*
X13397857Y-26630905D01*
X6545000Y-27169000D02*
X6645000Y-27069000D01*
X6545000Y-26969000D01*
X6445000Y-27069000D01*
X6545000Y-27169000D01*
X6988333Y-27026143D02*
X6988333Y-27159476D01*
X6940714Y-26949952D02*
X6893095Y-27092809D01*
X7016905Y-27092809D01*
X7093095Y-27140428D02*
X7102619Y-27149952D01*
X7093095Y-27159476D01*
X7083571Y-27149952D01*
X7093095Y-27140428D01*
X7093095Y-27159476D01*
X7226428Y-26959476D02*
X7245476Y-26959476D01*
X7264524Y-26969000D01*
X7274048Y-26978524D01*
X7283571Y-26997571D01*
X7293095Y-27035667D01*
X7293095Y-27083286D01*
X7283571Y-27121381D01*
X7274048Y-27140428D01*
X7264524Y-27149952D01*
X7245476Y-27159476D01*
X7226428Y-27159476D01*
X7207381Y-27149952D01*
X7197857Y-27140428D01*
X7188333Y-27121381D01*
X7178809Y-27083286D01*
X7178809Y-27035667D01*
X7188333Y-26997571D01*
X7197857Y-26978524D01*
X7207381Y-26969000D01*
X7226428Y-26959476D01*
X7416905Y-26959476D02*
X7435952Y-26959476D01*
X7455000Y-26969000D01*
X7464524Y-26978524D01*
X7474048Y-26997571D01*
X7483571Y-27035667D01*
X7483571Y-27083286D01*
X7474048Y-27121381D01*
X7464524Y-27140428D01*
X7455000Y-27149952D01*
X7435952Y-27159476D01*
X7416905Y-27159476D01*
X7397857Y-27149952D01*
X7388333Y-27140428D01*
X7378809Y-27121381D01*
X7369286Y-27083286D01*
X7369286Y-27035667D01*
X7378809Y-26997571D01*
X7388333Y-26978524D01*
X7397857Y-26969000D01*
X7416905Y-26959476D01*
X7607381Y-26959476D02*
X7626428Y-26959476D01*
X7645476Y-26969000D01*
X7655000Y-26978524D01*
X7664524Y-26997571D01*
X7674048Y-27035667D01*
X7674048Y-27083286D01*
X7664524Y-27121381D01*
X7655000Y-27140428D01*
X7645476Y-27149952D01*
X7626428Y-27159476D01*
X7607381Y-27159476D01*
X7588333Y-27149952D01*
X7578809Y-27140428D01*
X7569286Y-27121381D01*
X7559762Y-27083286D01*
X7559762Y-27035667D01*
X7569286Y-26997571D01*
X7578809Y-26978524D01*
X7588333Y-26969000D01*
X7607381Y-26959476D01*
X7759762Y-27159476D02*
X7759762Y-27026143D01*
X7759762Y-27045190D02*
X7769286Y-27035667D01*
X7788333Y-27026143D01*
X7816905Y-27026143D01*
X7835952Y-27035667D01*
X7845476Y-27054714D01*
X7845476Y-27159476D01*
X7845476Y-27054714D02*
X7855000Y-27035667D01*
X7874048Y-27026143D01*
X7902619Y-27026143D01*
X7921667Y-27035667D01*
X7931190Y-27054714D01*
X7931190Y-27159476D01*
X8026428Y-27159476D02*
X8026428Y-27026143D01*
X8026428Y-27045190D02*
X8035952Y-27035667D01*
X8055000Y-27026143D01*
X8083571Y-27026143D01*
X8102619Y-27035667D01*
X8112143Y-27054714D01*
X8112143Y-27159476D01*
X8112143Y-27054714D02*
X8121667Y-27035667D01*
X8140714Y-27026143D01*
X8169286Y-27026143D01*
X8188333Y-27035667D01*
X8197857Y-27054714D01*
X8197857Y-27159476D01*
X8588333Y-26949952D02*
X8416905Y-27207095D01*
X8845476Y-26959476D02*
X8864524Y-26959476D01*
X8883571Y-26969000D01*
X8893095Y-26978524D01*
X8902619Y-26997571D01*
X8912143Y-27035667D01*
X8912143Y-27083286D01*
X8902619Y-27121381D01*
X8893095Y-27140428D01*
X8883571Y-27149952D01*
X8864524Y-27159476D01*
X8845476Y-27159476D01*
X8826429Y-27149952D01*
X8816905Y-27140428D01*
X8807381Y-27121381D01*
X8797857Y-27083286D01*
X8797857Y-27035667D01*
X8807381Y-26997571D01*
X8816905Y-26978524D01*
X8826429Y-26969000D01*
X8845476Y-26959476D01*
X8997857Y-27140428D02*
X9007381Y-27149952D01*
X8997857Y-27159476D01*
X8988333Y-27149952D01*
X8997857Y-27140428D01*
X8997857Y-27159476D01*
X9197857Y-27159476D02*
X9083571Y-27159476D01*
X9140714Y-27159476D02*
X9140714Y-26959476D01*
X9121667Y-26988048D01*
X9102619Y-27007095D01*
X9083571Y-27016619D01*
X9378810Y-26959476D02*
X9283571Y-26959476D01*
X9274048Y-27054714D01*
X9283571Y-27045190D01*
X9302619Y-27035667D01*
X9350238Y-27035667D01*
X9369286Y-27045190D01*
X9378810Y-27054714D01*
X9388333Y-27073762D01*
X9388333Y-27121381D01*
X9378810Y-27140428D01*
X9369286Y-27149952D01*
X9350238Y-27159476D01*
X9302619Y-27159476D01*
X9283571Y-27149952D01*
X9274048Y-27140428D01*
X9455000Y-26959476D02*
X9588333Y-26959476D01*
X9502619Y-27159476D01*
X9759762Y-26959476D02*
X9664524Y-26959476D01*
X9655000Y-27054714D01*
X9664524Y-27045190D01*
X9683571Y-27035667D01*
X9731190Y-27035667D01*
X9750238Y-27045190D01*
X9759762Y-27054714D01*
X9769286Y-27073762D01*
X9769286Y-27121381D01*
X9759762Y-27140428D01*
X9750238Y-27149952D01*
X9731190Y-27159476D01*
X9683571Y-27159476D01*
X9664524Y-27149952D01*
X9655000Y-27140428D01*
X9845476Y-26959476D02*
X9845476Y-26997571D01*
X9921667Y-26959476D02*
X9921667Y-26997571D01*
X10216905Y-27235667D02*
X10207381Y-27226143D01*
X10188333Y-27197571D01*
X10178810Y-27178524D01*
X10169286Y-27149952D01*
X10159762Y-27102333D01*
X10159762Y-27064238D01*
X10169286Y-27016619D01*
X10178810Y-26988048D01*
X10188333Y-26969000D01*
X10207381Y-26940428D01*
X10216905Y-26930905D01*
X10378810Y-27026143D02*
X10378810Y-27159476D01*
X10331190Y-26949952D02*
X10283571Y-27092809D01*
X10407381Y-27092809D01*
X10464524Y-26959476D02*
X10597857Y-26959476D01*
X10512143Y-27159476D01*
X10826429Y-27159476D02*
X10826429Y-26959476D01*
X10912143Y-27159476D02*
X10912143Y-27054714D01*
X10902619Y-27035667D01*
X10883571Y-27026143D01*
X10855000Y-27026143D01*
X10835952Y-27035667D01*
X10826429Y-27045190D01*
X11035952Y-27159476D02*
X11016905Y-27149952D01*
X11007381Y-27140428D01*
X10997857Y-27121381D01*
X10997857Y-27064238D01*
X11007381Y-27045190D01*
X11016905Y-27035667D01*
X11035952Y-27026143D01*
X11064524Y-27026143D01*
X11083571Y-27035667D01*
X11093095Y-27045190D01*
X11102619Y-27064238D01*
X11102619Y-27121381D01*
X11093095Y-27140428D01*
X11083571Y-27149952D01*
X11064524Y-27159476D01*
X11035952Y-27159476D01*
X11216905Y-27159476D02*
X11197857Y-27149952D01*
X11188333Y-27130905D01*
X11188333Y-26959476D01*
X11369286Y-27149952D02*
X11350238Y-27159476D01*
X11312143Y-27159476D01*
X11293095Y-27149952D01*
X11283571Y-27130905D01*
X11283571Y-27054714D01*
X11293095Y-27035667D01*
X11312143Y-27026143D01*
X11350238Y-27026143D01*
X11369286Y-27035667D01*
X11378809Y-27054714D01*
X11378809Y-27073762D01*
X11283571Y-27092809D01*
X11455000Y-27149952D02*
X11474048Y-27159476D01*
X11512143Y-27159476D01*
X11531190Y-27149952D01*
X11540714Y-27130905D01*
X11540714Y-27121381D01*
X11531190Y-27102333D01*
X11512143Y-27092809D01*
X11483571Y-27092809D01*
X11464524Y-27083286D01*
X11455000Y-27064238D01*
X11455000Y-27054714D01*
X11464524Y-27035667D01*
X11483571Y-27026143D01*
X11512143Y-27026143D01*
X11531190Y-27035667D01*
X11607381Y-27235667D02*
X11616905Y-27226143D01*
X11635952Y-27197571D01*
X11645476Y-27178524D01*
X11655000Y-27149952D01*
X11664524Y-27102333D01*
X11664524Y-27064238D01*
X11655000Y-27016619D01*
X11645476Y-26988048D01*
X11635952Y-26969000D01*
X11616905Y-26940428D01*
X11607381Y-26930905D01*
X11969286Y-27235667D02*
X11959762Y-27226143D01*
X11940714Y-27197571D01*
X11931190Y-27178524D01*
X11921667Y-27149952D01*
X11912143Y-27102333D01*
X11912143Y-27064238D01*
X11921667Y-27016619D01*
X11931190Y-26988048D01*
X11940714Y-26969000D01*
X11959762Y-26940428D01*
X11969286Y-26930905D01*
X12045476Y-27026143D02*
X12045476Y-27159476D01*
X12045476Y-27045190D02*
X12055000Y-27035667D01*
X12074048Y-27026143D01*
X12102619Y-27026143D01*
X12121667Y-27035667D01*
X12131190Y-27054714D01*
X12131190Y-27159476D01*
X12255000Y-27159476D02*
X12235952Y-27149952D01*
X12226428Y-27140428D01*
X12216905Y-27121381D01*
X12216905Y-27064238D01*
X12226428Y-27045190D01*
X12235952Y-27035667D01*
X12255000Y-27026143D01*
X12283571Y-27026143D01*
X12302619Y-27035667D01*
X12312143Y-27045190D01*
X12321667Y-27064238D01*
X12321667Y-27121381D01*
X12312143Y-27140428D01*
X12302619Y-27149952D01*
X12283571Y-27159476D01*
X12255000Y-27159476D01*
X12378809Y-27026143D02*
X12455000Y-27026143D01*
X12407381Y-26959476D02*
X12407381Y-27130905D01*
X12416905Y-27149952D01*
X12435952Y-27159476D01*
X12455000Y-27159476D01*
X12674048Y-27026143D02*
X12674048Y-27226143D01*
X12674048Y-27035667D02*
X12693095Y-27026143D01*
X12731190Y-27026143D01*
X12750238Y-27035667D01*
X12759762Y-27045190D01*
X12769286Y-27064238D01*
X12769286Y-27121381D01*
X12759762Y-27140428D01*
X12750238Y-27149952D01*
X12731190Y-27159476D01*
X12693095Y-27159476D01*
X12674048Y-27149952D01*
X12883571Y-27159476D02*
X12864524Y-27149952D01*
X12855000Y-27130905D01*
X12855000Y-26959476D01*
X13045476Y-27159476D02*
X13045476Y-27054714D01*
X13035952Y-27035667D01*
X13016905Y-27026143D01*
X12978809Y-27026143D01*
X12959762Y-27035667D01*
X13045476Y-27149952D02*
X13026428Y-27159476D01*
X12978809Y-27159476D01*
X12959762Y-27149952D01*
X12950238Y-27130905D01*
X12950238Y-27111857D01*
X12959762Y-27092809D01*
X12978809Y-27083286D01*
X13026428Y-27083286D01*
X13045476Y-27073762D01*
X13112143Y-27026143D02*
X13188333Y-27026143D01*
X13140714Y-26959476D02*
X13140714Y-27130905D01*
X13150238Y-27149952D01*
X13169286Y-27159476D01*
X13188333Y-27159476D01*
X13331190Y-27149952D02*
X13312143Y-27159476D01*
X13274048Y-27159476D01*
X13255000Y-27149952D01*
X13245476Y-27130905D01*
X13245476Y-27054714D01*
X13255000Y-27035667D01*
X13274048Y-27026143D01*
X13312143Y-27026143D01*
X13331190Y-27035667D01*
X13340714Y-27054714D01*
X13340714Y-27073762D01*
X13245476Y-27092809D01*
X13512143Y-27159476D02*
X13512143Y-26959476D01*
X13512143Y-27149952D02*
X13493095Y-27159476D01*
X13455000Y-27159476D01*
X13435952Y-27149952D01*
X13426428Y-27140428D01*
X13416905Y-27121381D01*
X13416905Y-27064238D01*
X13426428Y-27045190D01*
X13435952Y-27035667D01*
X13455000Y-27026143D01*
X13493095Y-27026143D01*
X13512143Y-27035667D01*
X13588333Y-27235667D02*
X13597857Y-27226143D01*
X13616905Y-27197571D01*
X13626428Y-27178524D01*
X13635952Y-27149952D01*
X13645476Y-27102333D01*
X13645476Y-27064238D01*
X13635952Y-27016619D01*
X13626428Y-26988048D01*
X13616905Y-26969000D01*
X13597857Y-26940428D01*
X13588333Y-26930905D01*
M02*
