M48
; DRILL file {KiCad 6.0.9-8da3e8f707~116~ubuntu20.04.1} date fr. 04. nov. 2022 kl. 12.27 +0100
; FORMAT={-:-/ absolute / metric / decimal}
; #@! TF.CreationDate,2022-11-04T12:27:45+01:00
; #@! TF.GenerationSoftware,Kicad,Pcbnew,6.0.9-8da3e8f707~116~ubuntu20.04.1
; #@! TF.FileFunction,Plated,1,2,PTH
FMAT,2
METRIC
; #@! TA.AperFunction,Plated,PTH,ViaDrill
T1C0.400
; #@! TA.AperFunction,Plated,PTH,ComponentDrill
T2C0.700
; #@! TA.AperFunction,Plated,PTH,ComponentDrill
T3C0.750
; #@! TA.AperFunction,Plated,PTH,ComponentDrill
T4C0.800
; #@! TA.AperFunction,Plated,PTH,ComponentDrill
T5C1.000
; #@! TA.AperFunction,Plated,PTH,ComponentDrill
T6C1.020
; #@! TA.AperFunction,Plated,PTH,ComponentDrill
T7C1.100
; #@! TA.AperFunction,Plated,PTH,ComponentDrill
T8C1.500
; #@! TA.AperFunction,Plated,PTH,ComponentDrill
T9C4.300
%
G90
G05
T1
X76.0Y-68.0
X82.961Y-141.9
X85.5Y-158.5
X85.617Y-53.12
X94.086Y-78.189
X104.415Y-66.294
X106.113Y-125.644
X109.084Y-83.525
X109.309Y-70.25
X109.5Y-91.5
X110.585Y-32.13
X112.0Y-65.5
X117.511Y-47.051
X120.343Y-100.465
X124.0Y-82.5
X124.515Y-108.202
X125.5Y-63.0
X127.554Y-80.7
X128.0Y-52.5
X130.769Y-66.05
X131.261Y-61.602
X133.178Y-72.734
X137.23Y-73.689
X161.5Y-75.5
T2
X80.0Y-68.53
X80.0Y-73.61
X80.0Y-77.42
X80.0Y-82.5
X87.68Y-27.46
X87.68Y-32.54
X97.84Y-27.46
X97.84Y-32.54
X108.0Y-27.46
X108.0Y-32.54
X118.16Y-27.46
X118.16Y-32.54
T3
X82.6Y-28.73
X82.6Y-31.27
X92.76Y-28.73
X92.76Y-31.27
X102.92Y-28.73
X102.92Y-31.27
X113.08Y-28.73
X113.08Y-31.27
T4
X78.591Y-229.205
X85.19Y-225.395
X86.6Y-85.0
X86.8Y-113.6
X87.0Y-151.6
X87.0Y-185.0
X94.22Y-85.0
X94.42Y-113.6
X94.62Y-151.6
X94.62Y-185.0
X98.201Y-215.31
X104.8Y-211.5
X109.801Y-236.11
X110.8Y-161.4
X110.8Y-185.0
X111.0Y-113.8
X111.0Y-137.6
X115.6Y-85.2
X116.4Y-232.3
X118.42Y-161.4
X118.42Y-185.0
X118.62Y-113.8
X118.62Y-137.6
X120.19Y-205.395
X123.22Y-85.2
X126.789Y-201.585
X134.2Y-185.0
X134.6Y-113.6
X134.6Y-137.6
X134.6Y-161.4
X141.82Y-185.0
X142.22Y-113.6
X142.22Y-137.6
X142.22Y-161.4
X143.8Y-85.2
X151.42Y-85.2
X158.2Y-135.2
X158.2Y-182.8
X158.4Y-111.6
X158.4Y-159.2
X158.6Y-206.6
X165.82Y-135.2
X165.82Y-182.8
X166.02Y-111.6
X166.02Y-159.2
X166.22Y-206.6
X172.8Y-85.2
X180.42Y-85.2
X181.8Y-204.4
X182.0Y-132.8
X182.0Y-156.6
X182.2Y-180.2
X182.4Y-108.8
X189.42Y-204.4
X189.62Y-132.8
X189.62Y-156.6
X189.82Y-180.2
X190.02Y-108.8
X200.98Y-85.0
X205.78Y-182.8
X206.0Y-111.6
X206.0Y-135.2
X206.0Y-159.2
X206.0Y-206.6
X208.6Y-85.0
X213.4Y-182.8
X213.62Y-111.6
X213.62Y-135.2
X213.62Y-159.2
X213.62Y-206.6
X229.38Y-211.4
X229.4Y-164.0
X229.58Y-85.2
X229.6Y-116.2
X229.6Y-140.2
X229.6Y-187.6
X237.0Y-211.4
X237.02Y-164.0
X237.2Y-85.2
X237.22Y-116.2
X237.22Y-140.2
X237.22Y-187.6
X253.8Y-211.6
X258.38Y-85.2
X258.6Y-116.4
X258.6Y-140.0
X258.6Y-164.0
X258.6Y-187.8
X261.42Y-211.6
X266.0Y-85.2
X266.22Y-116.4
X266.22Y-140.0
X266.22Y-164.0
X266.22Y-187.8
T5
X73.65Y-72.34
X73.65Y-74.88
X73.65Y-77.42
X73.65Y-79.96
T6
X74.37Y-41.61
X74.37Y-59.39
X76.91Y-41.61
X76.91Y-59.39
X79.45Y-41.61
X79.45Y-59.39
X81.99Y-41.61
X81.99Y-59.39
X84.53Y-41.61
X84.53Y-59.39
X87.07Y-41.61
X87.07Y-59.39
X89.61Y-41.61
X89.61Y-59.39
X92.15Y-41.61
X92.15Y-59.39
X94.69Y-41.61
X94.69Y-59.39
X97.23Y-41.61
X97.23Y-59.39
X99.77Y-41.61
X99.77Y-59.39
X102.31Y-41.61
X102.31Y-59.39
X104.85Y-41.61
X104.85Y-59.39
X107.39Y-41.61
X107.39Y-59.39
X109.93Y-41.61
X109.93Y-59.39
X112.47Y-41.61
X112.47Y-59.39
X115.01Y-41.61
X115.01Y-59.39
X117.55Y-41.61
X117.55Y-59.39
X120.09Y-41.61
X120.09Y-59.39
X122.4Y-47.96
X122.4Y-50.5
X122.4Y-53.04
X122.63Y-41.61
X122.63Y-59.39
T7
X134.45Y-47.256
X134.45Y-52.256
X139.45Y-47.256
X139.45Y-52.256
T8
X82.93Y-236.205
X85.6Y-167.0
X85.8Y-133.6
X86.85Y-71.74
X86.99Y-100.26
X87.16Y-230.831
X88.14Y-173.35
X88.34Y-139.95
X91.63Y-203.605
X93.2Y-69.2
X93.34Y-97.72
X95.86Y-198.231
X103.43Y-224.405
X107.66Y-219.031
X110.85Y-100.34
X110.85Y-124.14
X110.85Y-147.94
X110.85Y-171.74
X115.65Y-71.74
X117.2Y-97.8
X117.2Y-121.6
X117.2Y-145.4
X117.2Y-169.2
X122.0Y-69.2
X124.13Y-212.405
X128.36Y-207.031
X134.45Y-171.74
X134.65Y-100.34
X134.65Y-124.14
X134.65Y-148.14
X140.8Y-169.2
X141.0Y-97.8
X141.0Y-121.6
X141.0Y-145.6
X144.05Y-71.74
X150.4Y-69.2
X158.45Y-98.14
X158.45Y-121.94
X158.45Y-145.74
X158.45Y-169.54
X158.45Y-193.34
X164.8Y-95.6
X164.8Y-119.4
X164.8Y-143.2
X164.8Y-167.0
X164.8Y-190.8
X172.65Y-71.74
X179.0Y-69.2
X182.05Y-119.34
X182.25Y-95.54
X182.25Y-143.34
X182.25Y-166.94
X182.25Y-190.94
X188.4Y-116.8
X188.6Y-93.0
X188.6Y-140.8
X188.6Y-164.4
X188.6Y-188.4
X201.25Y-71.74
X206.05Y-98.14
X206.05Y-121.94
X206.05Y-145.74
X206.05Y-169.54
X206.05Y-193.34
X207.6Y-69.2
X212.4Y-95.6
X212.4Y-119.4
X212.4Y-143.2
X212.4Y-167.0
X212.4Y-190.8
X229.85Y-71.74
X229.85Y-102.74
X229.85Y-126.74
X229.85Y-150.54
X229.85Y-174.34
X229.85Y-198.14
X236.2Y-69.2
X236.2Y-100.2
X236.2Y-124.2
X236.2Y-148.0
X236.2Y-171.8
X236.2Y-195.6
X253.65Y-198.14
X258.2Y-75.465
X258.2Y-99.265
X258.26Y-123.145
X258.26Y-146.945
X258.39Y-71.74
X260.0Y-195.6
X264.55Y-72.925
X264.55Y-96.725
X264.61Y-120.605
X264.61Y-144.405
X264.74Y-69.2
T9
X73.61Y-138.105
X73.61Y-246.105
X74.11Y-30.105
X178.61Y-246.105
X179.11Y-30.105
X283.61Y-30.105
X283.61Y-138.105
X283.61Y-246.105
T0
M30
