%TF.GenerationSoftware,KiCad,Pcbnew,6.0.9-8da3e8f707~116~ubuntu20.04.1*%
%TF.CreationDate,2022-11-04T12:27:48+01:00*%
%TF.ProjectId,98keys-right,39386b65-7973-42d7-9269-6768742e6b69,rev?*%
%TF.SameCoordinates,Original*%
%TF.FileFunction,Soldermask,Top*%
%TF.FilePolarity,Negative*%
%FSLAX46Y46*%
G04 Gerber Fmt 4.6, Leading zero omitted, Abs format (unit mm)*
G04 Created by KiCad (PCBNEW 6.0.9-8da3e8f707~116~ubuntu20.04.1) date 2022-11-04 12:27:48*
%MOMM*%
%LPD*%
G01*
G04 APERTURE LIST*
G04 Aperture macros list*
%AMHorizOval*
0 Thick line with rounded ends*
0 $1 width*
0 $2 $3 position (X,Y) of the first rounded end (center of the circle)*
0 $4 $5 position (X,Y) of the second rounded end (center of the circle)*
0 Add line between two ends*
20,1,$1,$2,$3,$4,$5,0*
0 Add two circle primitives to create the rounded ends*
1,1,$1,$2,$3*
1,1,$1,$4,$5*%
%AMRotRect*
0 Rectangle, with rotation*
0 The origin of the aperture is its center*
0 $1 length*
0 $2 width*
0 $3 Rotation angle, in degrees counterclockwise*
0 Add horizontal line*
21,1,$1,$2,0,0,$3*%
G04 Aperture macros list end*
%ADD10R,1.600000X1.600000*%
%ADD11O,1.600000X1.600000*%
%ADD12RotRect,1.600000X1.600000X30.000000*%
%ADD13HorizOval,1.600000X0.000000X0.000000X0.000000X0.000000X0*%
%ADD14HorizOval,1.600000X0.000000X0.000000X0.000000X0.000000X0*%
%ADD15C,4.000000*%
%ADD16C,1.700000*%
%ADD17C,2.200000*%
%ADD18C,7.500000*%
%ADD19C,2.000000*%
%ADD20R,1.500000X1.500000*%
%ADD21O,1.500000X1.500000*%
%ADD22C,1.400000*%
%ADD23O,1.400000X1.400000*%
%ADD24O,1.800000X1.800000*%
%ADD25R,1.700000X3.500000*%
%ADD26O,1.700000X1.700000*%
%ADD27R,1.700000X1.700000*%
%ADD28R,3.500000X1.700000*%
G04 APERTURE END LIST*
D10*
%TO.C,D1*%
X258380000Y-85199600D03*
D11*
X266000000Y-85199600D03*
%TD*%
D10*
%TO.C,D2*%
X258600000Y-116399600D03*
D11*
X266220000Y-116399600D03*
%TD*%
D10*
%TO.C,D3*%
X258600000Y-139999600D03*
D11*
X266220000Y-139999600D03*
%TD*%
D10*
%TO.C,D4*%
X258600000Y-163999600D03*
D11*
X266220000Y-163999600D03*
%TD*%
D10*
%TO.C,D5*%
X258600000Y-187799600D03*
D11*
X266220000Y-187799600D03*
%TD*%
D10*
%TO.C,D6*%
X253800000Y-211599600D03*
D11*
X261420000Y-211599600D03*
%TD*%
D10*
%TO.C,D7*%
X229580000Y-85199600D03*
D11*
X237200000Y-85199600D03*
%TD*%
D10*
%TO.C,D8*%
X229600000Y-116199600D03*
D11*
X237220000Y-116199600D03*
%TD*%
D10*
%TO.C,D9*%
X229600000Y-140199600D03*
D11*
X237220000Y-140199600D03*
%TD*%
D10*
%TO.C,D10*%
X229400000Y-163999600D03*
D11*
X237020000Y-163999600D03*
%TD*%
D10*
%TO.C,D11*%
X229600000Y-187599600D03*
D11*
X237220000Y-187599600D03*
%TD*%
D10*
%TO.C,D12*%
X229380000Y-211399600D03*
D11*
X237000000Y-211399600D03*
%TD*%
D10*
%TO.C,D14*%
X200980000Y-84999600D03*
D11*
X208600000Y-84999600D03*
%TD*%
D10*
%TO.C,D15*%
X206000000Y-111599600D03*
D11*
X213620000Y-111599600D03*
%TD*%
D10*
%TO.C,D16*%
X206000000Y-135199600D03*
D11*
X213620000Y-135199600D03*
%TD*%
D10*
%TO.C,D17*%
X205780000Y-182799600D03*
D11*
X213400000Y-182799600D03*
%TD*%
D10*
%TO.C,D18*%
X206000000Y-159199600D03*
D11*
X213620000Y-159199600D03*
%TD*%
D10*
%TO.C,D19*%
X206000000Y-206599600D03*
D11*
X213620000Y-206599600D03*
%TD*%
D10*
%TO.C,D20*%
X172800000Y-85199600D03*
D11*
X180420000Y-85199600D03*
%TD*%
D10*
%TO.C,D21*%
X182400000Y-108799600D03*
D11*
X190020000Y-108799600D03*
%TD*%
D10*
%TO.C,D22*%
X182000000Y-132799600D03*
D11*
X189620000Y-132799600D03*
%TD*%
D10*
%TO.C,D23*%
X182000000Y-156599600D03*
D11*
X189620000Y-156599600D03*
%TD*%
D10*
%TO.C,D24*%
X182200000Y-180199600D03*
D11*
X189820000Y-180199600D03*
%TD*%
D10*
%TO.C,D25*%
X181800000Y-204399600D03*
D11*
X189420000Y-204399600D03*
%TD*%
D10*
%TO.C,D26*%
X143800000Y-85199600D03*
D11*
X151420000Y-85199600D03*
%TD*%
D10*
%TO.C,D27*%
X158200000Y-135199600D03*
D11*
X165820000Y-135199600D03*
%TD*%
D10*
%TO.C,D28*%
X158400000Y-111599600D03*
D11*
X166020000Y-111599600D03*
%TD*%
D10*
%TO.C,D29*%
X158400000Y-159199600D03*
D11*
X166020000Y-159199600D03*
%TD*%
D10*
%TO.C,D30*%
X158200000Y-182799600D03*
D11*
X165820000Y-182799600D03*
%TD*%
D10*
%TO.C,D31*%
X158600000Y-206599600D03*
D11*
X166220000Y-206599600D03*
%TD*%
D10*
%TO.C,D32*%
X115600000Y-85199600D03*
D11*
X123220000Y-85199600D03*
%TD*%
D10*
%TO.C,D33*%
X134600000Y-113599600D03*
D11*
X142220000Y-113599600D03*
%TD*%
D10*
%TO.C,D34*%
X134600000Y-137599600D03*
D11*
X142220000Y-137599600D03*
%TD*%
D10*
%TO.C,D35*%
X134600000Y-161399600D03*
D11*
X142220000Y-161399600D03*
%TD*%
D10*
%TO.C,D36*%
X134200000Y-184999600D03*
D11*
X141820000Y-184999600D03*
%TD*%
D10*
%TO.C,D37*%
X86600000Y-84999600D03*
D11*
X94220000Y-84999600D03*
%TD*%
D10*
%TO.C,D38*%
X111000000Y-113799600D03*
D11*
X118620000Y-113799600D03*
%TD*%
D10*
%TO.C,D39*%
X110800000Y-184999600D03*
D11*
X118420000Y-184999600D03*
%TD*%
D10*
%TO.C,D40*%
X111000000Y-137599600D03*
D11*
X118620000Y-137599600D03*
%TD*%
D10*
%TO.C,D41*%
X110800000Y-161399600D03*
D11*
X118420000Y-161399600D03*
%TD*%
D10*
%TO.C,D42*%
X86800000Y-113599600D03*
D11*
X94420000Y-113599600D03*
%TD*%
D10*
%TO.C,D43*%
X87000000Y-151599600D03*
D11*
X94620000Y-151599600D03*
%TD*%
D10*
%TO.C,D44*%
X87000000Y-184999600D03*
D11*
X94620000Y-184999600D03*
%TD*%
D12*
%TO.C,D45*%
X78590900Y-229204600D03*
D13*
X85190014Y-225394600D03*
%TD*%
D12*
%TO.C,D46*%
X98200900Y-215309600D03*
D14*
X104800014Y-211499600D03*
%TD*%
D12*
%TO.C,D47*%
X109800900Y-236109600D03*
D13*
X116400014Y-232299600D03*
%TD*%
D12*
%TO.C,D48*%
X120190000Y-205394600D03*
D13*
X126789114Y-201584600D03*
%TD*%
D15*
%TO.C,SW1*%
X262200000Y-74279600D03*
D16*
X267280000Y-74279600D03*
X257120000Y-74279600D03*
D17*
X264740000Y-69199600D03*
X258390000Y-71739600D03*
%TD*%
D16*
%TO.C,SW2*%
X256930000Y-78005000D03*
D15*
X262010000Y-78005000D03*
D16*
X267090000Y-78005000D03*
D17*
X264550000Y-72925000D03*
X258200000Y-75465000D03*
%TD*%
D16*
%TO.C,SW3*%
X267090000Y-101805000D03*
X256930000Y-101805000D03*
D15*
X262010000Y-101805000D03*
D17*
X264550000Y-96725000D03*
X258200000Y-99265000D03*
%TD*%
D15*
%TO.C,SW4*%
X262070000Y-149485000D03*
D16*
X256990000Y-149485000D03*
X267150000Y-149485000D03*
D17*
X264610000Y-144405000D03*
X258260000Y-146945000D03*
%TD*%
D16*
%TO.C,SW5*%
X267150000Y-125685000D03*
X256990000Y-125685000D03*
D15*
X262070000Y-125685000D03*
D17*
X264610000Y-120605000D03*
X258260000Y-123145000D03*
%TD*%
D16*
%TO.C,SW6*%
X252380000Y-200679600D03*
X262540000Y-200679600D03*
D15*
X257460000Y-200679600D03*
D17*
X260000000Y-195599600D03*
X253650000Y-198139600D03*
%TD*%
D16*
%TO.C,SW7*%
X228580000Y-74279600D03*
X238740000Y-74279600D03*
D15*
X233660000Y-74279600D03*
D17*
X236200000Y-69199600D03*
X229850000Y-71739600D03*
%TD*%
D15*
%TO.C,SW8*%
X233660000Y-105279600D03*
D16*
X228580000Y-105279600D03*
X238740000Y-105279600D03*
D17*
X236200000Y-100199600D03*
X229850000Y-102739600D03*
%TD*%
D16*
%TO.C,SW9*%
X238740000Y-129279600D03*
X228580000Y-129279600D03*
D15*
X233660000Y-129279600D03*
D17*
X236200000Y-124199600D03*
X229850000Y-126739600D03*
%TD*%
D16*
%TO.C,SW10*%
X238740000Y-176879600D03*
X228580000Y-176879600D03*
D15*
X233660000Y-176879600D03*
D17*
X236200000Y-171799600D03*
X229850000Y-174339600D03*
%TD*%
D16*
%TO.C,SW11*%
X228580000Y-153079600D03*
D15*
X233660000Y-153079600D03*
D16*
X238740000Y-153079600D03*
D17*
X236200000Y-147999600D03*
X229850000Y-150539600D03*
%TD*%
D15*
%TO.C,SW12*%
X233660000Y-200679600D03*
D16*
X228580000Y-200679600D03*
X238740000Y-200679600D03*
D17*
X236200000Y-195599600D03*
X229850000Y-198139600D03*
%TD*%
D15*
%TO.C,SW13*%
X205060000Y-74279600D03*
D16*
X199980000Y-74279600D03*
X210140000Y-74279600D03*
D17*
X207600000Y-69199600D03*
X201250000Y-71739600D03*
%TD*%
D15*
%TO.C,SW14*%
X209860000Y-100679600D03*
D16*
X214940000Y-100679600D03*
X204780000Y-100679600D03*
D17*
X212400000Y-95599600D03*
X206050000Y-98139600D03*
%TD*%
D16*
%TO.C,SW15*%
X204780000Y-124479600D03*
X214940000Y-124479600D03*
D15*
X209860000Y-124479600D03*
D17*
X212400000Y-119399600D03*
X206050000Y-121939600D03*
%TD*%
D16*
%TO.C,SW16*%
X214940000Y-172079600D03*
D15*
X209860000Y-172079600D03*
D16*
X204780000Y-172079600D03*
D17*
X212400000Y-166999600D03*
X206050000Y-169539600D03*
%TD*%
D16*
%TO.C,SW17*%
X204780000Y-148279600D03*
D15*
X209860000Y-148279600D03*
D16*
X214940000Y-148279600D03*
D17*
X212400000Y-143199600D03*
X206050000Y-145739600D03*
%TD*%
D16*
%TO.C,SW18*%
X214940000Y-195879600D03*
D15*
X209860000Y-195879600D03*
D16*
X204780000Y-195879600D03*
D17*
X212400000Y-190799600D03*
X206050000Y-193339600D03*
%TD*%
D16*
%TO.C,SW19*%
X171380000Y-74279600D03*
X181540000Y-74279600D03*
D15*
X176460000Y-74279600D03*
D17*
X179000000Y-69199600D03*
X172650000Y-71739600D03*
%TD*%
D15*
%TO.C,SW20*%
X186060000Y-98079600D03*
D16*
X180980000Y-98079600D03*
X191140000Y-98079600D03*
D17*
X188600000Y-92999600D03*
X182250000Y-95539600D03*
%TD*%
D16*
%TO.C,SW21*%
X190940000Y-121879600D03*
D15*
X185860000Y-121879600D03*
D16*
X180780000Y-121879600D03*
D17*
X188400000Y-116799600D03*
X182050000Y-119339600D03*
%TD*%
D16*
%TO.C,SW22*%
X180980000Y-169479600D03*
D15*
X186060000Y-169479600D03*
D16*
X191140000Y-169479600D03*
D17*
X188600000Y-164399600D03*
X182250000Y-166939600D03*
%TD*%
D15*
%TO.C,SW23*%
X186060000Y-145879600D03*
D16*
X191140000Y-145879600D03*
X180980000Y-145879600D03*
D17*
X188600000Y-140799600D03*
X182250000Y-143339600D03*
%TD*%
D15*
%TO.C,SW24*%
X186060000Y-193479600D03*
D16*
X180980000Y-193479600D03*
X191140000Y-193479600D03*
D17*
X188600000Y-188399600D03*
X182250000Y-190939600D03*
%TD*%
D15*
%TO.C,SW25*%
X147860000Y-74279600D03*
D16*
X142780000Y-74279600D03*
X152940000Y-74279600D03*
D17*
X150400000Y-69199600D03*
X144050000Y-71739600D03*
%TD*%
D16*
%TO.C,SW26*%
X157180000Y-100679600D03*
D15*
X162260000Y-100679600D03*
D16*
X167340000Y-100679600D03*
D17*
X164800000Y-95599600D03*
X158450000Y-98139600D03*
%TD*%
D15*
%TO.C,SW27*%
X162260000Y-124479600D03*
D16*
X157180000Y-124479600D03*
X167340000Y-124479600D03*
D17*
X164800000Y-119399600D03*
X158450000Y-121939600D03*
%TD*%
D16*
%TO.C,SW28*%
X157180000Y-172079600D03*
D15*
X162260000Y-172079600D03*
D16*
X167340000Y-172079600D03*
D17*
X164800000Y-166999600D03*
X158450000Y-169539600D03*
%TD*%
D16*
%TO.C,SW29*%
X167340000Y-148279600D03*
D15*
X162260000Y-148279600D03*
D16*
X157180000Y-148279600D03*
D17*
X164800000Y-143199600D03*
X158450000Y-145739600D03*
%TD*%
D16*
%TO.C,SW30*%
X167340000Y-195879600D03*
X157180000Y-195879600D03*
D15*
X162260000Y-195879600D03*
D17*
X164800000Y-190799600D03*
X158450000Y-193339600D03*
%TD*%
D16*
%TO.C,SW31*%
X124540000Y-74279600D03*
D15*
X119460000Y-74279600D03*
D16*
X114380000Y-74279600D03*
D17*
X122000000Y-69199600D03*
X115650000Y-71739600D03*
%TD*%
D16*
%TO.C,SW32*%
X143540000Y-102879600D03*
X133380000Y-102879600D03*
D15*
X138460000Y-102879600D03*
D17*
X141000000Y-97799600D03*
X134650000Y-100339600D03*
%TD*%
D15*
%TO.C,SW33*%
X138460000Y-126679600D03*
D16*
X143540000Y-126679600D03*
X133380000Y-126679600D03*
D17*
X141000000Y-121599600D03*
X134650000Y-124139600D03*
%TD*%
D16*
%TO.C,SW34*%
X143340000Y-174279600D03*
X133180000Y-174279600D03*
D15*
X138260000Y-174279600D03*
D17*
X140800000Y-169199600D03*
X134450000Y-171739600D03*
%TD*%
D15*
%TO.C,SW35*%
X138460000Y-150679600D03*
D16*
X133380000Y-150679600D03*
X143540000Y-150679600D03*
D17*
X141000000Y-145599600D03*
X134650000Y-148139600D03*
%TD*%
D16*
%TO.C,SW36*%
X95740000Y-74279600D03*
X85580000Y-74279600D03*
D15*
X90660000Y-74279600D03*
D17*
X93200000Y-69199600D03*
X86850000Y-71739600D03*
%TD*%
D16*
%TO.C,SW37*%
X109580000Y-102879600D03*
D15*
X114660000Y-102879600D03*
D16*
X119740000Y-102879600D03*
D17*
X117200000Y-97799600D03*
X110850000Y-100339600D03*
%TD*%
D16*
%TO.C,SW38*%
X109580000Y-126679600D03*
D15*
X114660000Y-126679600D03*
D16*
X119740000Y-126679600D03*
D17*
X117200000Y-121599600D03*
X110850000Y-124139600D03*
%TD*%
D15*
%TO.C,SW39*%
X114660000Y-174279600D03*
D16*
X109580000Y-174279600D03*
X119740000Y-174279600D03*
D17*
X117200000Y-169199600D03*
X110850000Y-171739600D03*
%TD*%
D16*
%TO.C,SW40*%
X119740000Y-150479600D03*
D15*
X114660000Y-150479600D03*
D16*
X109580000Y-150479600D03*
D17*
X117200000Y-145399600D03*
X110850000Y-147939600D03*
%TD*%
D16*
%TO.C,SW41*%
X95880000Y-102799600D03*
X85720000Y-102799600D03*
D15*
X90800000Y-102799600D03*
D17*
X93340000Y-97719600D03*
X86990000Y-100259600D03*
%TD*%
D15*
%TO.C,SW42*%
X90880000Y-136139600D03*
D16*
X90880000Y-131059600D03*
X90880000Y-141219600D03*
D17*
X85800000Y-133599600D03*
X88340000Y-139949600D03*
%TD*%
D15*
%TO.C,SW43*%
X90680000Y-169539600D03*
D16*
X90680000Y-174619600D03*
X90680000Y-164459600D03*
D17*
X85600000Y-166999600D03*
X88140000Y-173349600D03*
%TD*%
D16*
%TO.C,SW44*%
X83100586Y-239040009D03*
D15*
X87499995Y-236500009D03*
D16*
X91899405Y-233960009D03*
D17*
X87159700Y-230830600D03*
X82930439Y-236205305D03*
%TD*%
D16*
%TO.C,SW45*%
X91800586Y-206440009D03*
D15*
X96199995Y-203900009D03*
D16*
X100599405Y-201360009D03*
D17*
X95859700Y-198230600D03*
X91630439Y-203605305D03*
%TD*%
D16*
%TO.C,SW46*%
X112399405Y-222160009D03*
D15*
X107999995Y-224700009D03*
D16*
X103600586Y-227240009D03*
D17*
X107659700Y-219030600D03*
X103430439Y-224405305D03*
%TD*%
D15*
%TO.C,SW47*%
X128699995Y-212700009D03*
D16*
X133099405Y-210160009D03*
X124300586Y-215240009D03*
D17*
X128359700Y-207030600D03*
X124130439Y-212405305D03*
%TD*%
D18*
%TO.C,H1*%
X74110000Y-30105000D03*
%TD*%
%TO.C,H2*%
X283610000Y-246105000D03*
%TD*%
%TO.C,H3*%
X179110000Y-30105000D03*
%TD*%
%TO.C,H4*%
X283610000Y-138105000D03*
%TD*%
%TO.C,H5*%
X283610000Y-30105000D03*
%TD*%
%TO.C,H6*%
X178610000Y-246105000D03*
%TD*%
%TO.C,H7*%
X73610000Y-138105000D03*
%TD*%
%TO.C,H8*%
X73610000Y-246105000D03*
%TD*%
D19*
%TO.C,SW48*%
X134450000Y-47256300D03*
X139450000Y-47256300D03*
X134450000Y-52256300D03*
X139450000Y-52256300D03*
%TD*%
D20*
%TO.C,D50*%
X102920000Y-31270000D03*
D21*
X102920000Y-28730000D03*
%TD*%
D20*
%TO.C,D51*%
X92760000Y-31270000D03*
D21*
X92760000Y-28730000D03*
%TD*%
D22*
%TO.C,R6*%
X108000000Y-32540000D03*
D23*
X108000000Y-27460000D03*
%TD*%
D21*
%TO.C,U1*%
X77530000Y-48075000D03*
X77530000Y-52925000D03*
D24*
X74500000Y-53225000D03*
X74500000Y-47775000D03*
D25*
X74370000Y-60290000D03*
D26*
X74370000Y-59390000D03*
D25*
X76910000Y-60290000D03*
D26*
X76910000Y-59390000D03*
D25*
X79450000Y-60290000D03*
D27*
X79450000Y-59390000D03*
D25*
X81990000Y-60290000D03*
D26*
X81990000Y-59390000D03*
X84530000Y-59390000D03*
D25*
X84530000Y-60290000D03*
D26*
X87070000Y-59390000D03*
D25*
X87070000Y-60290000D03*
D26*
X89610000Y-59390000D03*
D25*
X89610000Y-60290000D03*
X92150000Y-60290000D03*
D27*
X92150000Y-59390000D03*
D25*
X94690000Y-60290000D03*
D26*
X94690000Y-59390000D03*
D25*
X97230000Y-60290000D03*
D26*
X97230000Y-59390000D03*
D25*
X99770000Y-60290000D03*
D26*
X99770000Y-59390000D03*
X102310000Y-59390000D03*
D25*
X102310000Y-60290000D03*
X104850000Y-60290000D03*
D27*
X104850000Y-59390000D03*
D26*
X107390000Y-59390000D03*
D25*
X107390000Y-60290000D03*
X109930000Y-60290000D03*
D26*
X109930000Y-59390000D03*
X112470000Y-59390000D03*
D25*
X112470000Y-60290000D03*
X115010000Y-60290000D03*
D26*
X115010000Y-59390000D03*
D27*
X117550000Y-59390000D03*
D25*
X117550000Y-60290000D03*
X120090000Y-60290000D03*
D26*
X120090000Y-59390000D03*
D25*
X122630000Y-60290000D03*
D26*
X122630000Y-59390000D03*
D25*
X122630000Y-40710000D03*
D26*
X122630000Y-41610000D03*
D25*
X120090000Y-40710000D03*
D26*
X120090000Y-41610000D03*
D25*
X117550000Y-40710000D03*
D27*
X117550000Y-41610000D03*
D26*
X115010000Y-41610000D03*
D25*
X115010000Y-40710000D03*
D26*
X112470000Y-41610000D03*
D25*
X112470000Y-40710000D03*
X109930000Y-40710000D03*
D26*
X109930000Y-41610000D03*
D25*
X107390000Y-40710000D03*
D26*
X107390000Y-41610000D03*
D27*
X104850000Y-41610000D03*
D25*
X104850000Y-40710000D03*
D26*
X102310000Y-41610000D03*
D25*
X102310000Y-40710000D03*
X99770000Y-40710000D03*
D26*
X99770000Y-41610000D03*
D25*
X97230000Y-40710000D03*
D26*
X97230000Y-41610000D03*
X94690000Y-41610000D03*
D25*
X94690000Y-40710000D03*
X92150000Y-40710000D03*
D27*
X92150000Y-41610000D03*
D26*
X89610000Y-41610000D03*
D25*
X89610000Y-40710000D03*
X87070000Y-40710000D03*
D26*
X87070000Y-41610000D03*
D25*
X84530000Y-40710000D03*
D26*
X84530000Y-41610000D03*
X81990000Y-41610000D03*
D25*
X81990000Y-40710000D03*
X79450000Y-40710000D03*
D27*
X79450000Y-41610000D03*
D26*
X76910000Y-41610000D03*
D25*
X76910000Y-40710000D03*
X74370000Y-40710000D03*
D26*
X74370000Y-41610000D03*
D28*
X123300000Y-53040000D03*
D26*
X122400000Y-53040000D03*
D28*
X123300000Y-50500000D03*
D27*
X122400000Y-50500000D03*
D26*
X122400000Y-47960000D03*
D28*
X123300000Y-47960000D03*
%TD*%
D22*
%TO.C,R3*%
X87680000Y-32540000D03*
D23*
X87680000Y-27460000D03*
%TD*%
D22*
%TO.C,R5*%
X97840000Y-32540000D03*
D23*
X97840000Y-27460000D03*
%TD*%
D22*
%TO.C,R4*%
X118160000Y-32540000D03*
D23*
X118160000Y-27460000D03*
%TD*%
D22*
%TO.C,R1*%
X80000000Y-68530000D03*
D23*
X80000000Y-73610000D03*
%TD*%
D20*
%TO.C,D13*%
X82600000Y-31270000D03*
D21*
X82600000Y-28730000D03*
%TD*%
D22*
%TO.C,R2*%
X80000000Y-82500000D03*
D23*
X80000000Y-77420000D03*
%TD*%
D20*
%TO.C,D49*%
X113080000Y-31270000D03*
D21*
X113080000Y-28730000D03*
%TD*%
D27*
%TO.C,J1*%
X73650000Y-79960000D03*
D26*
X73650000Y-77420000D03*
X73650000Y-74880000D03*
X73650000Y-72340000D03*
%TD*%
M02*
