%TF.GenerationSoftware,KiCad,Pcbnew,6.0.9-8da3e8f707~116~ubuntu20.04.1*%
%TF.CreationDate,2022-11-04T11:59:02+01:00*%
%TF.ProjectId,98keys-left,39386b65-7973-42d6-9c65-66742e6b6963,rev?*%
%TF.SameCoordinates,Original*%
%TF.FileFunction,Drillmap*%
%TF.FilePolarity,Positive*%
%FSLAX45Y45*%
G04 Gerber Fmt 4.5, Leading zero omitted, Abs format (unit mm)*
G04 Created by KiCad (PCBNEW 6.0.9-8da3e8f707~116~ubuntu20.04.1) date 2022-11-04 11:59:02*
%MOMM*%
%LPD*%
G01*
G04 APERTURE LIST*
%ADD10C,0.200000*%
%ADD11C,0.040000*%
%ADD12C,0.070000*%
%ADD13C,0.080000*%
%ADD14C,0.090000*%
%ADD15C,0.100000*%
%ADD16C,0.102000*%
%ADD17C,0.110000*%
%ADD18C,0.150000*%
%ADD19C,0.430000*%
G04 APERTURE END LIST*
D10*
X24559900Y-26942493D02*
X24558400Y-26981768D01*
X2087941Y-4607000D02*
X2107096Y-4572700D01*
X2306498Y-27388014D02*
X2272185Y-27368859D01*
X2208795Y-27322695D02*
X2179994Y-27296099D01*
X2129006Y-27236430D02*
X2107096Y-27203770D01*
X24464400Y-4540100D02*
X24486200Y-4572700D01*
X24384600Y-27322695D02*
X24353700Y-27347086D01*
X24321100Y-27368859D02*
X24286900Y-27388014D01*
X2057900Y-27096971D02*
X2047289Y-27059213D01*
X2071542Y-27133904D02*
X2057900Y-27096971D01*
X2208795Y-4453700D02*
X2239663Y-4429500D01*
X2129006Y-4540100D02*
X2153260Y-4509300D01*
X24521700Y-4642700D02*
X24535300Y-4679400D01*
X24099100Y-27441068D02*
X24059800Y-27442584D01*
X2378983Y-27418055D02*
X2342189Y-27404550D01*
X2035024Y-26981768D02*
X2033508Y-26942493D01*
X24138100Y-4340200D02*
X24176500Y-4347800D01*
X24176500Y-27428666D02*
X24138100Y-27436383D01*
X24286900Y-27388014D02*
X24251200Y-27404550D01*
X24321100Y-4407600D02*
X24353700Y-4429500D01*
X24251200Y-4372000D02*
X24286900Y-4388400D01*
X2039710Y-27020768D02*
X2035024Y-26981768D01*
X2239663Y-27347086D02*
X2208795Y-27322695D01*
X2153260Y-4509300D02*
X2179994Y-4480500D01*
X24440000Y-27267160D02*
X24413400Y-27296099D01*
X2533598Y-4334000D02*
X24059800Y-4334000D01*
X24521700Y-27133904D02*
X24505300Y-27169595D01*
X24440000Y-4509300D02*
X24464400Y-4540100D01*
X2455190Y-4340200D02*
X2494186Y-4335500D01*
X24138100Y-27436383D02*
X24099100Y-27441068D01*
X24559900Y-4834100D02*
X24559900Y-26942493D01*
X2153260Y-27267160D02*
X2129006Y-27236430D01*
X24486200Y-27203770D02*
X24464400Y-27236430D01*
X2107096Y-4572700D02*
X2129006Y-4540100D01*
X24353700Y-27347086D02*
X24321100Y-27368859D01*
X24558400Y-4794700D02*
X24559900Y-4834100D01*
X2378983Y-4358400D02*
X2416740Y-4347800D01*
X2035024Y-4794700D02*
X2039710Y-4755700D01*
X2057900Y-4679400D02*
X2071542Y-4642700D01*
X2087941Y-27169595D02*
X2071542Y-27133904D01*
X2033508Y-4834100D02*
X2035024Y-4794700D01*
X2179994Y-27296099D02*
X2153260Y-27267160D01*
X24099100Y-4335500D02*
X24138100Y-4340200D01*
X24251200Y-27404550D02*
X24214400Y-27418055D01*
X2416740Y-4347800D02*
X2455190Y-4340200D01*
X24413400Y-27296099D02*
X24384600Y-27322695D01*
X24546100Y-4717200D02*
X24553700Y-4755700D01*
X2494186Y-27441068D02*
X2455190Y-27436383D01*
X2179994Y-4480500D02*
X2208795Y-4453700D01*
X24353700Y-4429500D02*
X24384600Y-4453700D01*
X24505300Y-27169595D02*
X24486200Y-27203770D01*
X2039710Y-4755700D02*
X2047289Y-4717200D01*
X2033508Y-26942493D02*
X2033508Y-4834100D01*
X2071542Y-4642700D02*
X2087941Y-4607000D01*
X2494186Y-4335500D02*
X2533598Y-4334000D01*
X2047289Y-4717200D02*
X2057900Y-4679400D01*
X24286900Y-4388400D02*
X24321100Y-4407600D01*
X2047289Y-27059213D02*
X2039710Y-27020768D01*
X2107096Y-27203770D02*
X2087941Y-27169595D01*
X24535300Y-4679400D02*
X24546100Y-4717200D01*
X2306498Y-4388400D02*
X2342189Y-4372000D01*
X2239663Y-4429500D02*
X2272185Y-4407600D01*
X24553700Y-4755700D02*
X24558400Y-4794700D01*
X24214400Y-27418055D02*
X24176500Y-27428666D01*
X24214400Y-4358400D02*
X24251200Y-4372000D01*
X2455190Y-27436383D02*
X2416740Y-27428666D01*
X2272185Y-4407600D02*
X2306498Y-4388400D01*
X24535300Y-27096971D02*
X24521700Y-27133904D01*
X2272185Y-27368859D02*
X2239663Y-27347086D01*
X24413400Y-4480500D02*
X24440000Y-4509300D01*
X24464400Y-27236430D02*
X24440000Y-27267160D01*
X24176500Y-4347800D02*
X24214400Y-4358400D01*
X24486200Y-4572700D02*
X24505300Y-4607000D01*
X24059800Y-4334000D02*
X24099100Y-4335500D01*
X2533598Y-27442584D02*
X2494186Y-27441068D01*
X2416740Y-27428666D02*
X2378983Y-27418055D01*
X24558400Y-26981768D02*
X24553700Y-27020768D01*
X24546100Y-27059213D02*
X24535300Y-27096971D01*
X24059800Y-27442584D02*
X2533598Y-27442584D01*
X24505300Y-4607000D02*
X24521700Y-4642700D01*
X2342189Y-4372000D02*
X2378983Y-4358400D01*
X2342189Y-27404550D02*
X2306498Y-27388014D01*
X24553700Y-27020768D02*
X24546100Y-27059213D01*
X24384600Y-4453700D02*
X24413400Y-4480500D01*
D11*
X15104970Y-5690900D02*
X15144970Y-5730900D01*
X15144970Y-5690900D02*
X15104970Y-5730900D01*
X16093570Y-6607270D02*
X16133570Y-6647270D01*
X16133570Y-6607270D02*
X16093570Y-6647270D01*
X16107390Y-6935210D02*
X16147390Y-6975210D01*
X16147390Y-6935210D02*
X16107390Y-6975210D01*
X16230610Y-6490980D02*
X16270610Y-6530980D01*
X16270610Y-6490980D02*
X16230610Y-6530980D01*
X16323710Y-5187970D02*
X16363710Y-5227970D01*
X16363710Y-5187970D02*
X16323710Y-5227970D01*
X16950450Y-8790970D02*
X16990450Y-8830970D01*
X16990450Y-8790970D02*
X16950450Y-8830970D01*
X17417510Y-6088120D02*
X17457510Y-6128120D01*
X17457510Y-6088120D02*
X17417510Y-6128120D01*
X17656660Y-7687290D02*
X17696660Y-7727290D01*
X17696660Y-7687290D02*
X17656660Y-7727290D01*
X18207000Y-9498260D02*
X18247000Y-9538260D01*
X18247000Y-9498260D02*
X18207000Y-9538260D01*
X18761190Y-10086070D02*
X18801190Y-10126070D01*
X18801190Y-10086070D02*
X18761190Y-10126070D01*
X19964660Y-7027560D02*
X20004660Y-7067560D01*
X20004660Y-7027560D02*
X19964660Y-7067560D01*
X21198670Y-11303370D02*
X21238670Y-11343370D01*
X21238670Y-11303370D02*
X21198670Y-11343370D01*
X21923980Y-4547650D02*
X21963980Y-4587650D01*
X21963980Y-4547650D02*
X21923980Y-4587650D01*
X22374230Y-6697010D02*
X22414230Y-6737010D01*
X22414230Y-6697010D02*
X22374230Y-6737010D01*
X22433670Y-5690900D02*
X22473670Y-5730900D01*
X22473670Y-5690900D02*
X22433670Y-5730900D01*
X23980000Y-7180000D02*
X24020000Y-7220000D01*
X24020000Y-7180000D02*
X23980000Y-7220000D01*
X24002730Y-8040100D02*
X24042730Y-8080100D01*
X24042730Y-8040100D02*
X24002730Y-8080100D01*
X24373300Y-13129320D02*
X24413300Y-13169320D01*
X24413300Y-13129320D02*
X24373300Y-13169320D01*
D12*
X19343000Y-5300000D02*
G75*
G03*
X19343000Y-5300000I-35000J0D01*
G01*
X19851000Y-5300000D02*
G75*
G03*
X19851000Y-5300000I-35000J0D01*
G01*
X20335000Y-5300000D02*
G75*
G03*
X20335000Y-5300000I-35000J0D01*
G01*
X20843000Y-5300000D02*
G75*
G03*
X20843000Y-5300000I-35000J0D01*
G01*
X21335000Y-5300000D02*
G75*
G03*
X21335000Y-5300000I-35000J0D01*
G01*
X21843000Y-5300000D02*
G75*
G03*
X21843000Y-5300000I-35000J0D01*
G01*
X22335000Y-5300000D02*
G75*
G03*
X22335000Y-5300000I-35000J0D01*
G01*
X22843000Y-5300000D02*
G75*
G03*
X22843000Y-5300000I-35000J0D01*
G01*
X23435000Y-8900000D02*
G75*
G03*
X23435000Y-8900000I-35000J0D01*
G01*
X23435000Y-9408000D02*
G75*
G03*
X23435000Y-9408000I-35000J0D01*
G01*
X23435000Y-9800000D02*
G75*
G03*
X23435000Y-9800000I-35000J0D01*
G01*
X23435000Y-10308000D02*
G75*
G03*
X23435000Y-10308000I-35000J0D01*
G01*
D13*
X3820000Y-9206000D02*
X3820000Y-9286000D01*
X3780000Y-9246000D02*
X3860000Y-9246000D01*
X3820000Y-9968000D02*
X3820000Y-10048000D01*
X3780000Y-10008000D02*
X3860000Y-10008000D01*
X4350000Y-21828000D02*
X4350000Y-21908000D01*
X4310000Y-21868000D02*
X4390000Y-21868000D01*
X4350000Y-22590000D02*
X4350000Y-22670000D01*
X4310000Y-22630000D02*
X4390000Y-22630000D01*
X4538000Y-20888000D02*
X4538000Y-20968000D01*
X4498000Y-20928000D02*
X4578000Y-20928000D01*
X4558000Y-13768000D02*
X4558000Y-13848000D01*
X4518000Y-13808000D02*
X4598000Y-13808000D01*
X4558000Y-18508000D02*
X4558000Y-18588000D01*
X4518000Y-18548000D02*
X4598000Y-18548000D01*
X4578000Y-16128000D02*
X4578000Y-16208000D01*
X4538000Y-16168000D02*
X4618000Y-16168000D01*
X5300000Y-20888000D02*
X5300000Y-20968000D01*
X5260000Y-20928000D02*
X5340000Y-20928000D01*
X5320000Y-13768000D02*
X5320000Y-13848000D01*
X5280000Y-13808000D02*
X5360000Y-13808000D01*
X5320000Y-18508000D02*
X5320000Y-18588000D01*
X5280000Y-18548000D02*
X5360000Y-18548000D01*
X5340000Y-16128000D02*
X5340000Y-16208000D01*
X5300000Y-16168000D02*
X5380000Y-16168000D01*
X6680000Y-9186000D02*
X6680000Y-9266000D01*
X6640000Y-9226000D02*
X6720000Y-9226000D01*
X6680000Y-9948000D02*
X6680000Y-10028000D01*
X6640000Y-9988000D02*
X6720000Y-9988000D01*
X6700000Y-12306000D02*
X6700000Y-12386000D01*
X6660000Y-12346000D02*
X6740000Y-12346000D01*
X6700000Y-13068000D02*
X6700000Y-13148000D01*
X6660000Y-13108000D02*
X6740000Y-13108000D01*
X6700000Y-17066000D02*
X6700000Y-17146000D01*
X6660000Y-17106000D02*
X6740000Y-17106000D01*
X6700000Y-17828000D02*
X6700000Y-17908000D01*
X6660000Y-17868000D02*
X6740000Y-17868000D01*
X6700000Y-21866000D02*
X6700000Y-21946000D01*
X6660000Y-21906000D02*
X6740000Y-21906000D01*
X6700000Y-22628000D02*
X6700000Y-22708000D01*
X6660000Y-22668000D02*
X6740000Y-22668000D01*
X6720000Y-14668000D02*
X6720000Y-14748000D01*
X6680000Y-14708000D02*
X6760000Y-14708000D01*
X6720000Y-15430000D02*
X6720000Y-15510000D01*
X6680000Y-15470000D02*
X6760000Y-15470000D01*
X6720000Y-19426000D02*
X6720000Y-19506000D01*
X6680000Y-19466000D02*
X6760000Y-19466000D01*
X6720000Y-20188000D02*
X6720000Y-20268000D01*
X6680000Y-20228000D02*
X6760000Y-20228000D01*
X9100000Y-11826000D02*
X9100000Y-11906000D01*
X9060000Y-11866000D02*
X9140000Y-11866000D01*
X9100000Y-12588000D02*
X9100000Y-12668000D01*
X9060000Y-12628000D02*
X9140000Y-12628000D01*
X9100000Y-14206000D02*
X9100000Y-14286000D01*
X9060000Y-14246000D02*
X9140000Y-14246000D01*
X9100000Y-14968000D02*
X9100000Y-15048000D01*
X9060000Y-15008000D02*
X9140000Y-15008000D01*
X9100000Y-18946000D02*
X9100000Y-19026000D01*
X9060000Y-18986000D02*
X9140000Y-18986000D01*
X9100000Y-19708000D02*
X9100000Y-19788000D01*
X9060000Y-19748000D02*
X9140000Y-19748000D01*
X9100000Y-21346000D02*
X9100000Y-21426000D01*
X9060000Y-21386000D02*
X9140000Y-21386000D01*
X9100000Y-22108000D02*
X9100000Y-22188000D01*
X9060000Y-22148000D02*
X9140000Y-22148000D01*
X9120000Y-16668000D02*
X9120000Y-16748000D01*
X9080000Y-16708000D02*
X9160000Y-16708000D01*
X9120000Y-17430000D02*
X9120000Y-17510000D01*
X9080000Y-17470000D02*
X9160000Y-17470000D01*
X9540000Y-9186000D02*
X9540000Y-9266000D01*
X9500000Y-9226000D02*
X9580000Y-9226000D01*
X9540000Y-9948000D02*
X9540000Y-10028000D01*
X9500000Y-9988000D02*
X9580000Y-9988000D01*
X11480000Y-11568000D02*
X11480000Y-11648000D01*
X11440000Y-11608000D02*
X11520000Y-11608000D01*
X11480000Y-12330000D02*
X11480000Y-12410000D01*
X11440000Y-12370000D02*
X11520000Y-12370000D01*
X11480000Y-13946000D02*
X11480000Y-14026000D01*
X11440000Y-13986000D02*
X11520000Y-13986000D01*
X11480000Y-14708000D02*
X11480000Y-14788000D01*
X11440000Y-14748000D02*
X11520000Y-14748000D01*
X11480000Y-16326000D02*
X11480000Y-16406000D01*
X11440000Y-16366000D02*
X11520000Y-16366000D01*
X11480000Y-17088000D02*
X11480000Y-17168000D01*
X11440000Y-17128000D02*
X11520000Y-17128000D01*
X11480000Y-18706000D02*
X11480000Y-18786000D01*
X11440000Y-18746000D02*
X11520000Y-18746000D01*
X11480000Y-19468000D02*
X11480000Y-19548000D01*
X11440000Y-19508000D02*
X11520000Y-19508000D01*
X11480000Y-21106000D02*
X11480000Y-21186000D01*
X11440000Y-21146000D02*
X11520000Y-21146000D01*
X11480000Y-21868000D02*
X11480000Y-21948000D01*
X11440000Y-21908000D02*
X11520000Y-21908000D01*
X12400000Y-9186000D02*
X12400000Y-9266000D01*
X12360000Y-9226000D02*
X12440000Y-9226000D01*
X12400000Y-9948000D02*
X12400000Y-10028000D01*
X12360000Y-9988000D02*
X12440000Y-9988000D01*
X13840000Y-16566000D02*
X13840000Y-16646000D01*
X13800000Y-16606000D02*
X13880000Y-16606000D01*
X13840000Y-17328000D02*
X13840000Y-17408000D01*
X13800000Y-17368000D02*
X13880000Y-17368000D01*
X13860000Y-11806000D02*
X13860000Y-11886000D01*
X13820000Y-11846000D02*
X13900000Y-11846000D01*
X13860000Y-12568000D02*
X13860000Y-12648000D01*
X13820000Y-12608000D02*
X13900000Y-12608000D01*
X13860000Y-14186000D02*
X13860000Y-14266000D01*
X13820000Y-14226000D02*
X13900000Y-14226000D01*
X13860000Y-14948000D02*
X13860000Y-15028000D01*
X13820000Y-14988000D02*
X13900000Y-14988000D01*
X13860000Y-21348000D02*
X13860000Y-21428000D01*
X13820000Y-21388000D02*
X13900000Y-21388000D01*
X13860000Y-22110000D02*
X13860000Y-22190000D01*
X13820000Y-22150000D02*
X13900000Y-22150000D01*
X13920000Y-18906000D02*
X13920000Y-18986000D01*
X13880000Y-18946000D02*
X13960000Y-18946000D01*
X13920000Y-19668000D02*
X13920000Y-19748000D01*
X13880000Y-19708000D02*
X13960000Y-19708000D01*
X15260000Y-9206000D02*
X15260000Y-9286000D01*
X15220000Y-9246000D02*
X15300000Y-9246000D01*
X15260000Y-9968000D02*
X15260000Y-10048000D01*
X15220000Y-10008000D02*
X15300000Y-10008000D01*
X16240000Y-12046000D02*
X16240000Y-12126000D01*
X16200000Y-12086000D02*
X16280000Y-12086000D01*
X16240000Y-12808000D02*
X16240000Y-12888000D01*
X16200000Y-12848000D02*
X16280000Y-12848000D01*
X16240000Y-16806000D02*
X16240000Y-16886000D01*
X16200000Y-16846000D02*
X16280000Y-16846000D01*
X16240000Y-17568000D02*
X16240000Y-17648000D01*
X16200000Y-17608000D02*
X16280000Y-17608000D01*
X16240000Y-19186000D02*
X16240000Y-19266000D01*
X16200000Y-19226000D02*
X16280000Y-19226000D01*
X16240000Y-19948000D02*
X16240000Y-20028000D01*
X16200000Y-19988000D02*
X16280000Y-19988000D01*
X16250000Y-14416000D02*
X16250000Y-14496000D01*
X16210000Y-14456000D02*
X16290000Y-14456000D01*
X16250000Y-15178000D02*
X16250000Y-15258000D01*
X16210000Y-15218000D02*
X16290000Y-15218000D01*
X18140000Y-9206000D02*
X18140000Y-9286000D01*
X18100000Y-9246000D02*
X18180000Y-9246000D01*
X18140000Y-9968000D02*
X18140000Y-10048000D01*
X18100000Y-10008000D02*
X18180000Y-10008000D01*
X18540089Y-22047000D02*
X18540089Y-22127000D01*
X18500089Y-22087000D02*
X18580089Y-22087000D01*
X18600000Y-14426000D02*
X18600000Y-14506000D01*
X18560000Y-14466000D02*
X18640000Y-14466000D01*
X18600000Y-15188000D02*
X18600000Y-15268000D01*
X18560000Y-15228000D02*
X18640000Y-15228000D01*
X18620000Y-12046000D02*
X18620000Y-12126000D01*
X18580000Y-12086000D02*
X18660000Y-12086000D01*
X18620000Y-12808000D02*
X18620000Y-12888000D01*
X18580000Y-12848000D02*
X18660000Y-12848000D01*
X18620000Y-16808000D02*
X18620000Y-16888000D01*
X18580000Y-16848000D02*
X18660000Y-16848000D01*
X18620000Y-17570000D02*
X18620000Y-17650000D01*
X18580000Y-17610000D02*
X18660000Y-17610000D01*
X18620000Y-19186000D02*
X18620000Y-19266000D01*
X18580000Y-19226000D02*
X18660000Y-19226000D01*
X18620000Y-19948000D02*
X18620000Y-20028000D01*
X18580000Y-19988000D02*
X18660000Y-19988000D01*
X19200000Y-22428000D02*
X19200000Y-22508000D01*
X19160000Y-22468000D02*
X19240000Y-22468000D01*
X19409989Y-25328000D02*
X19409989Y-25408000D01*
X19369989Y-25368000D02*
X19449989Y-25368000D01*
X20069900Y-25709000D02*
X20069900Y-25789000D01*
X20029900Y-25749000D02*
X20109900Y-25749000D01*
X20610000Y-23268000D02*
X20610000Y-23348000D01*
X20570000Y-23308000D02*
X20650000Y-23308000D01*
X20980000Y-9206000D02*
X20980000Y-9286000D01*
X20940000Y-9246000D02*
X21020000Y-9246000D01*
X20980000Y-9968000D02*
X20980000Y-10048000D01*
X20940000Y-10008000D02*
X21020000Y-10008000D01*
X21000000Y-12046000D02*
X21000000Y-12126000D01*
X20960000Y-12086000D02*
X21040000Y-12086000D01*
X21000000Y-12808000D02*
X21000000Y-12888000D01*
X20960000Y-12848000D02*
X21040000Y-12848000D01*
X21269911Y-23649000D02*
X21269911Y-23729000D01*
X21229911Y-23689000D02*
X21309911Y-23689000D01*
X21700000Y-20648000D02*
X21700000Y-20728000D01*
X21660000Y-20688000D02*
X21740000Y-20688000D01*
X21720000Y-17308000D02*
X21720000Y-17388000D01*
X21680000Y-17348000D02*
X21760000Y-17348000D01*
X22462000Y-20648000D02*
X22462000Y-20728000D01*
X22422000Y-20688000D02*
X22502000Y-20688000D01*
X22482000Y-17308000D02*
X22482000Y-17388000D01*
X22442000Y-17348000D02*
X22522000Y-17348000D01*
X22740089Y-24447000D02*
X22740089Y-24527000D01*
X22700089Y-24487000D02*
X22780089Y-24487000D01*
X23400000Y-24828000D02*
X23400000Y-24908000D01*
X23360000Y-24868000D02*
X23440000Y-24868000D01*
D14*
X19439820Y-4821820D02*
X19439820Y-4758180D01*
X19376180Y-4758180D01*
X19376180Y-4821820D01*
X19439820Y-4821820D01*
X19693820Y-4821820D02*
X19693820Y-4758180D01*
X19630180Y-4758180D01*
X19630180Y-4821820D01*
X19693820Y-4821820D01*
X20439820Y-4821820D02*
X20439820Y-4758180D01*
X20376180Y-4758180D01*
X20376180Y-4821820D01*
X20439820Y-4821820D01*
X20693820Y-4821820D02*
X20693820Y-4758180D01*
X20630180Y-4758180D01*
X20630180Y-4821820D01*
X20693820Y-4821820D01*
X21439820Y-4821820D02*
X21439820Y-4758180D01*
X21376180Y-4758180D01*
X21376180Y-4821820D01*
X21439820Y-4821820D01*
X21693820Y-4821820D02*
X21693820Y-4758180D01*
X21630180Y-4758180D01*
X21630180Y-4821820D01*
X21693820Y-4821820D01*
X22439820Y-4821820D02*
X22439820Y-4758180D01*
X22376180Y-4758180D01*
X22376180Y-4821820D01*
X22439820Y-4821820D01*
X22693820Y-4821820D02*
X22693820Y-4758180D01*
X22630180Y-4758180D01*
X22630180Y-4821820D01*
X22693820Y-4821820D01*
D15*
X23900000Y-9096000D02*
X23950000Y-9046000D01*
X23900000Y-8996000D01*
X23850000Y-9046000D01*
X23900000Y-9096000D01*
X23900000Y-9350000D02*
X23950000Y-9300000D01*
X23900000Y-9250000D01*
X23850000Y-9300000D01*
X23900000Y-9350000D01*
X23900000Y-9604000D02*
X23950000Y-9554000D01*
X23900000Y-9504000D01*
X23850000Y-9554000D01*
X23900000Y-9604000D01*
X23900000Y-9858000D02*
X23950000Y-9808000D01*
X23900000Y-9758000D01*
X23850000Y-9808000D01*
X23900000Y-9858000D01*
D16*
X18836000Y-6160000D02*
X18938000Y-6262000D01*
X18938000Y-6160000D02*
X18836000Y-6262000D01*
X18938000Y-6211000D02*
G75*
G03*
X18938000Y-6211000I-51000J0D01*
G01*
X18836000Y-7938000D02*
X18938000Y-8040000D01*
X18938000Y-7938000D02*
X18836000Y-8040000D01*
X18938000Y-7989000D02*
G75*
G03*
X18938000Y-7989000I-51000J0D01*
G01*
X18859000Y-6795000D02*
X18961000Y-6897000D01*
X18961000Y-6795000D02*
X18859000Y-6897000D01*
X18961000Y-6846000D02*
G75*
G03*
X18961000Y-6846000I-51000J0D01*
G01*
X18859000Y-7049000D02*
X18961000Y-7151000D01*
X18961000Y-7049000D02*
X18859000Y-7151000D01*
X18961000Y-7100000D02*
G75*
G03*
X18961000Y-7100000I-51000J0D01*
G01*
X18859000Y-7303000D02*
X18961000Y-7405000D01*
X18961000Y-7303000D02*
X18859000Y-7405000D01*
X18961000Y-7354000D02*
G75*
G03*
X18961000Y-7354000I-51000J0D01*
G01*
X19090000Y-6160000D02*
X19192000Y-6262000D01*
X19192000Y-6160000D02*
X19090000Y-6262000D01*
X19192000Y-6211000D02*
G75*
G03*
X19192000Y-6211000I-51000J0D01*
G01*
X19090000Y-7938000D02*
X19192000Y-8040000D01*
X19192000Y-7938000D02*
X19090000Y-8040000D01*
X19192000Y-7989000D02*
G75*
G03*
X19192000Y-7989000I-51000J0D01*
G01*
X19344000Y-6160000D02*
X19446000Y-6262000D01*
X19446000Y-6160000D02*
X19344000Y-6262000D01*
X19446000Y-6211000D02*
G75*
G03*
X19446000Y-6211000I-51000J0D01*
G01*
X19344000Y-7938000D02*
X19446000Y-8040000D01*
X19446000Y-7938000D02*
X19344000Y-8040000D01*
X19446000Y-7989000D02*
G75*
G03*
X19446000Y-7989000I-51000J0D01*
G01*
X19598000Y-6160000D02*
X19700000Y-6262000D01*
X19700000Y-6160000D02*
X19598000Y-6262000D01*
X19700000Y-6211000D02*
G75*
G03*
X19700000Y-6211000I-51000J0D01*
G01*
X19598000Y-7938000D02*
X19700000Y-8040000D01*
X19700000Y-7938000D02*
X19598000Y-8040000D01*
X19700000Y-7989000D02*
G75*
G03*
X19700000Y-7989000I-51000J0D01*
G01*
X19852000Y-6160000D02*
X19954000Y-6262000D01*
X19954000Y-6160000D02*
X19852000Y-6262000D01*
X19954000Y-6211000D02*
G75*
G03*
X19954000Y-6211000I-51000J0D01*
G01*
X19852000Y-7938000D02*
X19954000Y-8040000D01*
X19954000Y-7938000D02*
X19852000Y-8040000D01*
X19954000Y-7989000D02*
G75*
G03*
X19954000Y-7989000I-51000J0D01*
G01*
X20106000Y-6160000D02*
X20208000Y-6262000D01*
X20208000Y-6160000D02*
X20106000Y-6262000D01*
X20208000Y-6211000D02*
G75*
G03*
X20208000Y-6211000I-51000J0D01*
G01*
X20106000Y-7938000D02*
X20208000Y-8040000D01*
X20208000Y-7938000D02*
X20106000Y-8040000D01*
X20208000Y-7989000D02*
G75*
G03*
X20208000Y-7989000I-51000J0D01*
G01*
X20360000Y-6160000D02*
X20462000Y-6262000D01*
X20462000Y-6160000D02*
X20360000Y-6262000D01*
X20462000Y-6211000D02*
G75*
G03*
X20462000Y-6211000I-51000J0D01*
G01*
X20360000Y-7938000D02*
X20462000Y-8040000D01*
X20462000Y-7938000D02*
X20360000Y-8040000D01*
X20462000Y-7989000D02*
G75*
G03*
X20462000Y-7989000I-51000J0D01*
G01*
X20614000Y-6160000D02*
X20716000Y-6262000D01*
X20716000Y-6160000D02*
X20614000Y-6262000D01*
X20716000Y-6211000D02*
G75*
G03*
X20716000Y-6211000I-51000J0D01*
G01*
X20614000Y-7938000D02*
X20716000Y-8040000D01*
X20716000Y-7938000D02*
X20614000Y-8040000D01*
X20716000Y-7989000D02*
G75*
G03*
X20716000Y-7989000I-51000J0D01*
G01*
X20868000Y-6160000D02*
X20970000Y-6262000D01*
X20970000Y-6160000D02*
X20868000Y-6262000D01*
X20970000Y-6211000D02*
G75*
G03*
X20970000Y-6211000I-51000J0D01*
G01*
X20868000Y-7938000D02*
X20970000Y-8040000D01*
X20970000Y-7938000D02*
X20868000Y-8040000D01*
X20970000Y-7989000D02*
G75*
G03*
X20970000Y-7989000I-51000J0D01*
G01*
X21122000Y-6160000D02*
X21224000Y-6262000D01*
X21224000Y-6160000D02*
X21122000Y-6262000D01*
X21224000Y-6211000D02*
G75*
G03*
X21224000Y-6211000I-51000J0D01*
G01*
X21122000Y-7938000D02*
X21224000Y-8040000D01*
X21224000Y-7938000D02*
X21122000Y-8040000D01*
X21224000Y-7989000D02*
G75*
G03*
X21224000Y-7989000I-51000J0D01*
G01*
X21376000Y-6160000D02*
X21478000Y-6262000D01*
X21478000Y-6160000D02*
X21376000Y-6262000D01*
X21478000Y-6211000D02*
G75*
G03*
X21478000Y-6211000I-51000J0D01*
G01*
X21376000Y-7938000D02*
X21478000Y-8040000D01*
X21478000Y-7938000D02*
X21376000Y-8040000D01*
X21478000Y-7989000D02*
G75*
G03*
X21478000Y-7989000I-51000J0D01*
G01*
X21630000Y-6160000D02*
X21732000Y-6262000D01*
X21732000Y-6160000D02*
X21630000Y-6262000D01*
X21732000Y-6211000D02*
G75*
G03*
X21732000Y-6211000I-51000J0D01*
G01*
X21630000Y-7938000D02*
X21732000Y-8040000D01*
X21732000Y-7938000D02*
X21630000Y-8040000D01*
X21732000Y-7989000D02*
G75*
G03*
X21732000Y-7989000I-51000J0D01*
G01*
X21884000Y-6160000D02*
X21986000Y-6262000D01*
X21986000Y-6160000D02*
X21884000Y-6262000D01*
X21986000Y-6211000D02*
G75*
G03*
X21986000Y-6211000I-51000J0D01*
G01*
X21884000Y-7938000D02*
X21986000Y-8040000D01*
X21986000Y-7938000D02*
X21884000Y-8040000D01*
X21986000Y-7989000D02*
G75*
G03*
X21986000Y-7989000I-51000J0D01*
G01*
X22138000Y-6160000D02*
X22240000Y-6262000D01*
X22240000Y-6160000D02*
X22138000Y-6262000D01*
X22240000Y-6211000D02*
G75*
G03*
X22240000Y-6211000I-51000J0D01*
G01*
X22138000Y-7938000D02*
X22240000Y-8040000D01*
X22240000Y-7938000D02*
X22138000Y-8040000D01*
X22240000Y-7989000D02*
G75*
G03*
X22240000Y-7989000I-51000J0D01*
G01*
X22392000Y-6160000D02*
X22494000Y-6262000D01*
X22494000Y-6160000D02*
X22392000Y-6262000D01*
X22494000Y-6211000D02*
G75*
G03*
X22494000Y-6211000I-51000J0D01*
G01*
X22392000Y-7938000D02*
X22494000Y-8040000D01*
X22494000Y-7938000D02*
X22392000Y-8040000D01*
X22494000Y-7989000D02*
G75*
G03*
X22494000Y-7989000I-51000J0D01*
G01*
X22646000Y-6160000D02*
X22748000Y-6262000D01*
X22748000Y-6160000D02*
X22646000Y-6262000D01*
X22748000Y-6211000D02*
G75*
G03*
X22748000Y-6211000I-51000J0D01*
G01*
X22646000Y-7938000D02*
X22748000Y-8040000D01*
X22748000Y-7938000D02*
X22646000Y-8040000D01*
X22748000Y-7989000D02*
G75*
G03*
X22748000Y-7989000I-51000J0D01*
G01*
X22900000Y-6160000D02*
X23002000Y-6262000D01*
X23002000Y-6160000D02*
X22900000Y-6262000D01*
X23002000Y-6211000D02*
G75*
G03*
X23002000Y-6211000I-51000J0D01*
G01*
X22900000Y-7938000D02*
X23002000Y-8040000D01*
X23002000Y-7938000D02*
X22900000Y-8040000D01*
X23002000Y-7989000D02*
G75*
G03*
X23002000Y-7989000I-51000J0D01*
G01*
X23154000Y-6160000D02*
X23256000Y-6262000D01*
X23256000Y-6160000D02*
X23154000Y-6262000D01*
X23256000Y-6211000D02*
G75*
G03*
X23256000Y-6211000I-51000J0D01*
G01*
X23154000Y-7938000D02*
X23256000Y-8040000D01*
X23256000Y-7938000D02*
X23154000Y-8040000D01*
X23256000Y-7989000D02*
G75*
G03*
X23256000Y-7989000I-51000J0D01*
G01*
X23408000Y-6160000D02*
X23510000Y-6262000D01*
X23510000Y-6160000D02*
X23408000Y-6262000D01*
X23510000Y-6211000D02*
G75*
G03*
X23510000Y-6211000I-51000J0D01*
G01*
X23408000Y-7938000D02*
X23510000Y-8040000D01*
X23510000Y-7938000D02*
X23408000Y-8040000D01*
X23510000Y-7989000D02*
G75*
G03*
X23510000Y-7989000I-51000J0D01*
G01*
X23662000Y-6160000D02*
X23764000Y-6262000D01*
X23764000Y-6160000D02*
X23662000Y-6262000D01*
X23764000Y-6211000D02*
G75*
G03*
X23764000Y-6211000I-51000J0D01*
G01*
X23662000Y-7938000D02*
X23764000Y-8040000D01*
X23764000Y-7938000D02*
X23662000Y-8040000D01*
X23764000Y-7989000D02*
G75*
G03*
X23764000Y-7989000I-51000J0D01*
G01*
D17*
X17145000Y-6845000D02*
X17255000Y-6955000D01*
X17255000Y-6845000D02*
X17145000Y-6955000D01*
X17200000Y-6845000D02*
X17200000Y-6955000D01*
X17145000Y-6900000D02*
X17255000Y-6900000D01*
X17145000Y-7345000D02*
X17255000Y-7455000D01*
X17255000Y-7345000D02*
X17145000Y-7455000D01*
X17200000Y-7345000D02*
X17200000Y-7455000D01*
X17145000Y-7400000D02*
X17255000Y-7400000D01*
X17645000Y-6845000D02*
X17755000Y-6955000D01*
X17755000Y-6845000D02*
X17645000Y-6955000D01*
X17700000Y-6845000D02*
X17700000Y-6955000D01*
X17645000Y-6900000D02*
X17755000Y-6900000D01*
X17645000Y-7345000D02*
X17755000Y-7455000D01*
X17755000Y-7345000D02*
X17645000Y-7455000D01*
X17700000Y-7345000D02*
X17700000Y-7455000D01*
X17645000Y-7400000D02*
X17755000Y-7400000D01*
D18*
X4464000Y-9299000D02*
X4614000Y-9449000D01*
X4614000Y-9299000D02*
X4464000Y-9449000D01*
X4592034Y-9427034D02*
X4592034Y-9320967D01*
X4485967Y-9320967D01*
X4485967Y-9427034D01*
X4592034Y-9427034D01*
X4484000Y-12379000D02*
X4634000Y-12529000D01*
X4634000Y-12379000D02*
X4484000Y-12529000D01*
X4612034Y-12507033D02*
X4612034Y-12400966D01*
X4505967Y-12400966D01*
X4505967Y-12507033D01*
X4612034Y-12507033D01*
X4484000Y-14759000D02*
X4634000Y-14909000D01*
X4634000Y-14759000D02*
X4484000Y-14909000D01*
X4612034Y-14887033D02*
X4612034Y-14780966D01*
X4505967Y-14780966D01*
X4505967Y-14887033D01*
X4612034Y-14887033D01*
X4484000Y-17139000D02*
X4634000Y-17289000D01*
X4634000Y-17139000D02*
X4484000Y-17289000D01*
X4612034Y-17267034D02*
X4612034Y-17160967D01*
X4505967Y-17160967D01*
X4505967Y-17267034D01*
X4612034Y-17267034D01*
X4484000Y-19519000D02*
X4634000Y-19669000D01*
X4634000Y-19519000D02*
X4484000Y-19669000D01*
X4612034Y-19647034D02*
X4612034Y-19540967D01*
X4505967Y-19540967D01*
X4505967Y-19647034D01*
X4612034Y-19647034D01*
X4984000Y-21899000D02*
X5134000Y-22049000D01*
X5134000Y-21899000D02*
X4984000Y-22049000D01*
X5112034Y-22027034D02*
X5112034Y-21920967D01*
X5005967Y-21920967D01*
X5005967Y-22027034D01*
X5112034Y-22027034D01*
X5099000Y-9045000D02*
X5249000Y-9195000D01*
X5249000Y-9045000D02*
X5099000Y-9195000D01*
X5227034Y-9173034D02*
X5227034Y-9066967D01*
X5120967Y-9066967D01*
X5120967Y-9173034D01*
X5227034Y-9173034D01*
X5119000Y-12125000D02*
X5269000Y-12275000D01*
X5269000Y-12125000D02*
X5119000Y-12275000D01*
X5247034Y-12253033D02*
X5247034Y-12146966D01*
X5140967Y-12146966D01*
X5140967Y-12253033D01*
X5247034Y-12253033D01*
X5119000Y-14505000D02*
X5269000Y-14655000D01*
X5269000Y-14505000D02*
X5119000Y-14655000D01*
X5247034Y-14633033D02*
X5247034Y-14526966D01*
X5140967Y-14526966D01*
X5140967Y-14633033D01*
X5247034Y-14633033D01*
X5119000Y-16885000D02*
X5269000Y-17035000D01*
X5269000Y-16885000D02*
X5119000Y-17035000D01*
X5247034Y-17013034D02*
X5247034Y-16906967D01*
X5140967Y-16906967D01*
X5140967Y-17013034D01*
X5247034Y-17013034D01*
X5119000Y-19265000D02*
X5269000Y-19415000D01*
X5269000Y-19265000D02*
X5119000Y-19415000D01*
X5247034Y-19393034D02*
X5247034Y-19286967D01*
X5140967Y-19286967D01*
X5140967Y-19393034D01*
X5247034Y-19393034D01*
X5619000Y-21645000D02*
X5769000Y-21795000D01*
X5769000Y-21645000D02*
X5619000Y-21795000D01*
X5747033Y-21773034D02*
X5747033Y-21666967D01*
X5640966Y-21666967D01*
X5640966Y-21773034D01*
X5747033Y-21773034D01*
X7324000Y-9279000D02*
X7474000Y-9429000D01*
X7474000Y-9279000D02*
X7324000Y-9429000D01*
X7452033Y-9407034D02*
X7452033Y-9300967D01*
X7345966Y-9300967D01*
X7345966Y-9407034D01*
X7452033Y-9407034D01*
X7344000Y-12379000D02*
X7494000Y-12529000D01*
X7494000Y-12379000D02*
X7344000Y-12529000D01*
X7472033Y-12507033D02*
X7472033Y-12400966D01*
X7365966Y-12400966D01*
X7365966Y-12507033D01*
X7472033Y-12507033D01*
X7344000Y-14759000D02*
X7494000Y-14909000D01*
X7494000Y-14759000D02*
X7344000Y-14909000D01*
X7472033Y-14887033D02*
X7472033Y-14780966D01*
X7365966Y-14780966D01*
X7365966Y-14887033D01*
X7472033Y-14887033D01*
X7344000Y-17139000D02*
X7494000Y-17289000D01*
X7494000Y-17139000D02*
X7344000Y-17289000D01*
X7472033Y-17267034D02*
X7472033Y-17160967D01*
X7365966Y-17160967D01*
X7365966Y-17267034D01*
X7472033Y-17267034D01*
X7344000Y-19519000D02*
X7494000Y-19669000D01*
X7494000Y-19519000D02*
X7344000Y-19669000D01*
X7472033Y-19647034D02*
X7472033Y-19540967D01*
X7365966Y-19540967D01*
X7365966Y-19647034D01*
X7472033Y-19647034D01*
X7344000Y-21899000D02*
X7494000Y-22049000D01*
X7494000Y-21899000D02*
X7344000Y-22049000D01*
X7472033Y-22027034D02*
X7472033Y-21920967D01*
X7365966Y-21920967D01*
X7365966Y-22027034D01*
X7472033Y-22027034D01*
X7959000Y-9025000D02*
X8109000Y-9175000D01*
X8109000Y-9025000D02*
X7959000Y-9175000D01*
X8087033Y-9153034D02*
X8087033Y-9046967D01*
X7980966Y-9046967D01*
X7980966Y-9153034D01*
X8087033Y-9153034D01*
X7979000Y-12125000D02*
X8129000Y-12275000D01*
X8129000Y-12125000D02*
X7979000Y-12275000D01*
X8107033Y-12253033D02*
X8107033Y-12146966D01*
X8000966Y-12146966D01*
X8000966Y-12253033D01*
X8107033Y-12253033D01*
X7979000Y-14505000D02*
X8129000Y-14655000D01*
X8129000Y-14505000D02*
X7979000Y-14655000D01*
X8107033Y-14633033D02*
X8107033Y-14526966D01*
X8000966Y-14526966D01*
X8000966Y-14633033D01*
X8107033Y-14633033D01*
X7979000Y-16885000D02*
X8129000Y-17035000D01*
X8129000Y-16885000D02*
X7979000Y-17035000D01*
X8107033Y-17013034D02*
X8107033Y-16906967D01*
X8000966Y-16906967D01*
X8000966Y-17013034D01*
X8107033Y-17013034D01*
X7979000Y-19265000D02*
X8129000Y-19415000D01*
X8129000Y-19265000D02*
X7979000Y-19415000D01*
X8107033Y-19393034D02*
X8107033Y-19286967D01*
X8000966Y-19286967D01*
X8000966Y-19393034D01*
X8107033Y-19393034D01*
X7979000Y-21645000D02*
X8129000Y-21795000D01*
X8129000Y-21645000D02*
X7979000Y-21795000D01*
X8107033Y-21773034D02*
X8107033Y-21666967D01*
X8000966Y-21666967D01*
X8000966Y-21773034D01*
X8107033Y-21773034D01*
X9724000Y-11899000D02*
X9874000Y-12049000D01*
X9874000Y-11899000D02*
X9724000Y-12049000D01*
X9852034Y-12027033D02*
X9852034Y-11920966D01*
X9745967Y-11920966D01*
X9745967Y-12027033D01*
X9852034Y-12027033D01*
X9724000Y-14279000D02*
X9874000Y-14429000D01*
X9874000Y-14279000D02*
X9724000Y-14429000D01*
X9852034Y-14407033D02*
X9852034Y-14300966D01*
X9745967Y-14300966D01*
X9745967Y-14407033D01*
X9852034Y-14407033D01*
X9724000Y-16659000D02*
X9874000Y-16809000D01*
X9874000Y-16659000D02*
X9724000Y-16809000D01*
X9852034Y-16787034D02*
X9852034Y-16680966D01*
X9745967Y-16680966D01*
X9745967Y-16787034D01*
X9852034Y-16787034D01*
X9724000Y-19039000D02*
X9874000Y-19189000D01*
X9874000Y-19039000D02*
X9724000Y-19189000D01*
X9852034Y-19167034D02*
X9852034Y-19060967D01*
X9745967Y-19060967D01*
X9745967Y-19167034D01*
X9852034Y-19167034D01*
X9724000Y-21419000D02*
X9874000Y-21569000D01*
X9874000Y-21419000D02*
X9724000Y-21569000D01*
X9852034Y-21547034D02*
X9852034Y-21440967D01*
X9745967Y-21440967D01*
X9745967Y-21547034D01*
X9852034Y-21547034D01*
X10184000Y-9279000D02*
X10334000Y-9429000D01*
X10334000Y-9279000D02*
X10184000Y-9429000D01*
X10312034Y-9407034D02*
X10312034Y-9300967D01*
X10205967Y-9300967D01*
X10205967Y-9407034D01*
X10312034Y-9407034D01*
X10359000Y-11645000D02*
X10509000Y-11795000D01*
X10509000Y-11645000D02*
X10359000Y-11795000D01*
X10487034Y-11773033D02*
X10487034Y-11666966D01*
X10380967Y-11666966D01*
X10380967Y-11773033D01*
X10487034Y-11773033D01*
X10359000Y-14025000D02*
X10509000Y-14175000D01*
X10509000Y-14025000D02*
X10359000Y-14175000D01*
X10487034Y-14153033D02*
X10487034Y-14046966D01*
X10380967Y-14046966D01*
X10380967Y-14153033D01*
X10487034Y-14153033D01*
X10359000Y-16405000D02*
X10509000Y-16555000D01*
X10509000Y-16405000D02*
X10359000Y-16555000D01*
X10487034Y-16533033D02*
X10487034Y-16426966D01*
X10380967Y-16426966D01*
X10380967Y-16533033D01*
X10487034Y-16533033D01*
X10359000Y-18785000D02*
X10509000Y-18935000D01*
X10509000Y-18785000D02*
X10359000Y-18935000D01*
X10487034Y-18913034D02*
X10487034Y-18806967D01*
X10380967Y-18806967D01*
X10380967Y-18913034D01*
X10487034Y-18913034D01*
X10359000Y-21165000D02*
X10509000Y-21315000D01*
X10509000Y-21165000D02*
X10359000Y-21315000D01*
X10487034Y-21293034D02*
X10487034Y-21186967D01*
X10380967Y-21186967D01*
X10380967Y-21293034D01*
X10487034Y-21293034D01*
X10819000Y-9025000D02*
X10969000Y-9175000D01*
X10969000Y-9025000D02*
X10819000Y-9175000D01*
X10947034Y-9153034D02*
X10947034Y-9046967D01*
X10840967Y-9046967D01*
X10840967Y-9153034D01*
X10947034Y-9153034D01*
X12104000Y-11659000D02*
X12254000Y-11809000D01*
X12254000Y-11659000D02*
X12104000Y-11809000D01*
X12232033Y-11787033D02*
X12232033Y-11680966D01*
X12125966Y-11680966D01*
X12125966Y-11787033D01*
X12232033Y-11787033D01*
X12104000Y-14039000D02*
X12254000Y-14189000D01*
X12254000Y-14039000D02*
X12104000Y-14189000D01*
X12232033Y-14167033D02*
X12232033Y-14060966D01*
X12125966Y-14060966D01*
X12125966Y-14167033D01*
X12232033Y-14167033D01*
X12104000Y-16419000D02*
X12254000Y-16569000D01*
X12254000Y-16419000D02*
X12104000Y-16569000D01*
X12232033Y-16547033D02*
X12232033Y-16440966D01*
X12125966Y-16440966D01*
X12125966Y-16547033D01*
X12232033Y-16547033D01*
X12104000Y-18799000D02*
X12254000Y-18949000D01*
X12254000Y-18799000D02*
X12104000Y-18949000D01*
X12232033Y-18927034D02*
X12232033Y-18820967D01*
X12125966Y-18820967D01*
X12125966Y-18927034D01*
X12232033Y-18927034D01*
X12104000Y-21179000D02*
X12254000Y-21329000D01*
X12254000Y-21179000D02*
X12104000Y-21329000D01*
X12232033Y-21307034D02*
X12232033Y-21200967D01*
X12125966Y-21200967D01*
X12125966Y-21307034D01*
X12232033Y-21307034D01*
X12739000Y-11405000D02*
X12889000Y-11555000D01*
X12889000Y-11405000D02*
X12739000Y-11555000D01*
X12867033Y-11533033D02*
X12867033Y-11426966D01*
X12760966Y-11426966D01*
X12760966Y-11533033D01*
X12867033Y-11533033D01*
X12739000Y-13785000D02*
X12889000Y-13935000D01*
X12889000Y-13785000D02*
X12739000Y-13935000D01*
X12867033Y-13913033D02*
X12867033Y-13806966D01*
X12760966Y-13806966D01*
X12760966Y-13913033D01*
X12867033Y-13913033D01*
X12739000Y-16165000D02*
X12889000Y-16315000D01*
X12889000Y-16165000D02*
X12739000Y-16315000D01*
X12867033Y-16293033D02*
X12867033Y-16186966D01*
X12760966Y-16186966D01*
X12760966Y-16293033D01*
X12867033Y-16293033D01*
X12739000Y-18545000D02*
X12889000Y-18695000D01*
X12889000Y-18545000D02*
X12739000Y-18695000D01*
X12867033Y-18673034D02*
X12867033Y-18566967D01*
X12760966Y-18566967D01*
X12760966Y-18673034D01*
X12867033Y-18673034D01*
X12739000Y-20925000D02*
X12889000Y-21075000D01*
X12889000Y-20925000D02*
X12739000Y-21075000D01*
X12867033Y-21053034D02*
X12867033Y-20946967D01*
X12760966Y-20946967D01*
X12760966Y-21053034D01*
X12867033Y-21053034D01*
X13044000Y-9279000D02*
X13194000Y-9429000D01*
X13194000Y-9279000D02*
X13044000Y-9429000D01*
X13172033Y-9407034D02*
X13172033Y-9300967D01*
X13065966Y-9300967D01*
X13065966Y-9407034D01*
X13172033Y-9407034D01*
X13679000Y-9025000D02*
X13829000Y-9175000D01*
X13829000Y-9025000D02*
X13679000Y-9175000D01*
X13807033Y-9153034D02*
X13807033Y-9046967D01*
X13700966Y-9046967D01*
X13700966Y-9153034D01*
X13807033Y-9153034D01*
X14484000Y-11919000D02*
X14634000Y-12069000D01*
X14634000Y-11919000D02*
X14484000Y-12069000D01*
X14612033Y-12047033D02*
X14612033Y-11940966D01*
X14505966Y-11940966D01*
X14505966Y-12047033D01*
X14612033Y-12047033D01*
X14484000Y-14279000D02*
X14634000Y-14429000D01*
X14634000Y-14279000D02*
X14484000Y-14429000D01*
X14612033Y-14407033D02*
X14612033Y-14300966D01*
X14505966Y-14300966D01*
X14505966Y-14407033D01*
X14612033Y-14407033D01*
X14484000Y-16659000D02*
X14634000Y-16809000D01*
X14634000Y-16659000D02*
X14484000Y-16809000D01*
X14612033Y-16787034D02*
X14612033Y-16680966D01*
X14505966Y-16680966D01*
X14505966Y-16787034D01*
X14612033Y-16787034D01*
X14484000Y-21419000D02*
X14634000Y-21569000D01*
X14634000Y-21419000D02*
X14484000Y-21569000D01*
X14612033Y-21547034D02*
X14612033Y-21440967D01*
X14505966Y-21440967D01*
X14505966Y-21547034D01*
X14612033Y-21547034D01*
X14504000Y-19039000D02*
X14654000Y-19189000D01*
X14654000Y-19039000D02*
X14504000Y-19189000D01*
X14632033Y-19167034D02*
X14632033Y-19060967D01*
X14525966Y-19060967D01*
X14525966Y-19167034D01*
X14632033Y-19167034D01*
X15119000Y-11665000D02*
X15269000Y-11815000D01*
X15269000Y-11665000D02*
X15119000Y-11815000D01*
X15247033Y-11793033D02*
X15247033Y-11686966D01*
X15140966Y-11686966D01*
X15140966Y-11793033D01*
X15247033Y-11793033D01*
X15119000Y-14025000D02*
X15269000Y-14175000D01*
X15269000Y-14025000D02*
X15119000Y-14175000D01*
X15247033Y-14153033D02*
X15247033Y-14046966D01*
X15140966Y-14046966D01*
X15140966Y-14153033D01*
X15247033Y-14153033D01*
X15119000Y-16405000D02*
X15269000Y-16555000D01*
X15269000Y-16405000D02*
X15119000Y-16555000D01*
X15247033Y-16533033D02*
X15247033Y-16426966D01*
X15140966Y-16426966D01*
X15140966Y-16533033D01*
X15247033Y-16533033D01*
X15119000Y-21165000D02*
X15269000Y-21315000D01*
X15269000Y-21165000D02*
X15119000Y-21315000D01*
X15247033Y-21293034D02*
X15247033Y-21186967D01*
X15140966Y-21186967D01*
X15140966Y-21293034D01*
X15247033Y-21293034D01*
X15139000Y-18785000D02*
X15289000Y-18935000D01*
X15289000Y-18785000D02*
X15139000Y-18935000D01*
X15267033Y-18913034D02*
X15267033Y-18806967D01*
X15160966Y-18806967D01*
X15160966Y-18913034D01*
X15267033Y-18913034D01*
X15904000Y-9279000D02*
X16054000Y-9429000D01*
X16054000Y-9279000D02*
X15904000Y-9429000D01*
X16032033Y-9407034D02*
X16032033Y-9300967D01*
X15925966Y-9300967D01*
X15925966Y-9407034D01*
X16032033Y-9407034D01*
X16539000Y-9025000D02*
X16689000Y-9175000D01*
X16689000Y-9025000D02*
X16539000Y-9175000D01*
X16667033Y-9153034D02*
X16667033Y-9046967D01*
X16560966Y-9046967D01*
X16560966Y-9153034D01*
X16667033Y-9153034D01*
X16864000Y-12139000D02*
X17014000Y-12289000D01*
X17014000Y-12139000D02*
X16864000Y-12289000D01*
X16992034Y-12267033D02*
X16992034Y-12160966D01*
X16885967Y-12160966D01*
X16885967Y-12267033D01*
X16992034Y-12267033D01*
X16864000Y-14519000D02*
X17014000Y-14669000D01*
X17014000Y-14519000D02*
X16864000Y-14669000D01*
X16992034Y-14647033D02*
X16992034Y-14540966D01*
X16885967Y-14540966D01*
X16885967Y-14647033D01*
X16992034Y-14647033D01*
X16864000Y-16899000D02*
X17014000Y-17049000D01*
X17014000Y-16899000D02*
X16864000Y-17049000D01*
X16992034Y-17027034D02*
X16992034Y-16920967D01*
X16885967Y-16920967D01*
X16885967Y-17027034D01*
X16992034Y-17027034D01*
X16864000Y-19259000D02*
X17014000Y-19409000D01*
X17014000Y-19259000D02*
X16864000Y-19409000D01*
X16992034Y-19387034D02*
X16992034Y-19280967D01*
X16885967Y-19280967D01*
X16885967Y-19387034D01*
X16992034Y-19387034D01*
X17499000Y-11885000D02*
X17649000Y-12035000D01*
X17649000Y-11885000D02*
X17499000Y-12035000D01*
X17627034Y-12013033D02*
X17627034Y-11906966D01*
X17520967Y-11906966D01*
X17520967Y-12013033D01*
X17627034Y-12013033D01*
X17499000Y-14265000D02*
X17649000Y-14415000D01*
X17649000Y-14265000D02*
X17499000Y-14415000D01*
X17627034Y-14393033D02*
X17627034Y-14286966D01*
X17520967Y-14286966D01*
X17520967Y-14393033D01*
X17627034Y-14393033D01*
X17499000Y-16645000D02*
X17649000Y-16795000D01*
X17649000Y-16645000D02*
X17499000Y-16795000D01*
X17627034Y-16773033D02*
X17627034Y-16666966D01*
X17520967Y-16666966D01*
X17520967Y-16773033D01*
X17627034Y-16773033D01*
X17499000Y-19005000D02*
X17649000Y-19155000D01*
X17649000Y-19005000D02*
X17499000Y-19155000D01*
X17627034Y-19133034D02*
X17627034Y-19026967D01*
X17520967Y-19026967D01*
X17520967Y-19133034D01*
X17627034Y-19133034D01*
X17982074Y-22952570D02*
X18132074Y-23102570D01*
X18132074Y-22952570D02*
X17982074Y-23102570D01*
X18110107Y-23080604D02*
X18110107Y-22974537D01*
X18004040Y-22974537D01*
X18004040Y-23080604D01*
X18110107Y-23080604D01*
X18659000Y-23050100D02*
X18809000Y-23200100D01*
X18809000Y-23050100D02*
X18659000Y-23200100D01*
X18787034Y-23178133D02*
X18787034Y-23072066D01*
X18680967Y-23072066D01*
X18680967Y-23178133D01*
X18787034Y-23178133D01*
X18764000Y-9279000D02*
X18914000Y-9429000D01*
X18914000Y-9279000D02*
X18764000Y-9429000D01*
X18892034Y-9407034D02*
X18892034Y-9300967D01*
X18785967Y-9300967D01*
X18785967Y-9407034D01*
X18892034Y-9407034D01*
X19244000Y-12139000D02*
X19394000Y-12289000D01*
X19394000Y-12139000D02*
X19244000Y-12289000D01*
X19372034Y-12267033D02*
X19372034Y-12160966D01*
X19265967Y-12160966D01*
X19265967Y-12267033D01*
X19372034Y-12267033D01*
X19244000Y-14499000D02*
X19394000Y-14649000D01*
X19394000Y-14499000D02*
X19244000Y-14649000D01*
X19372034Y-14627033D02*
X19372034Y-14520966D01*
X19265967Y-14520966D01*
X19265967Y-14627033D01*
X19372034Y-14627033D01*
X19244000Y-16899000D02*
X19394000Y-17049000D01*
X19394000Y-16899000D02*
X19244000Y-17049000D01*
X19372034Y-17027034D02*
X19372034Y-16920967D01*
X19265967Y-16920967D01*
X19265967Y-17027034D01*
X19372034Y-17027034D01*
X19244000Y-19279000D02*
X19394000Y-19429000D01*
X19394000Y-19279000D02*
X19244000Y-19429000D01*
X19372034Y-19407034D02*
X19372034Y-19300967D01*
X19265967Y-19300967D01*
X19265967Y-19407034D01*
X19372034Y-19407034D01*
X19399000Y-9025000D02*
X19549000Y-9175000D01*
X19549000Y-9025000D02*
X19399000Y-9175000D01*
X19527034Y-9153034D02*
X19527034Y-9046967D01*
X19420967Y-9046967D01*
X19420967Y-9153034D01*
X19527034Y-9153034D01*
X19879000Y-11885000D02*
X20029000Y-12035000D01*
X20029000Y-11885000D02*
X19879000Y-12035000D01*
X20007034Y-12013033D02*
X20007034Y-11906966D01*
X19900967Y-11906966D01*
X19900967Y-12013033D01*
X20007034Y-12013033D01*
X19879000Y-14245000D02*
X20029000Y-14395000D01*
X20029000Y-14245000D02*
X19879000Y-14395000D01*
X20007034Y-14373033D02*
X20007034Y-14266966D01*
X19900967Y-14266966D01*
X19900967Y-14373033D01*
X20007034Y-14373033D01*
X19879000Y-16645000D02*
X20029000Y-16795000D01*
X20029000Y-16645000D02*
X19879000Y-16795000D01*
X20007034Y-16773033D02*
X20007034Y-16666966D01*
X19900967Y-16666966D01*
X19900967Y-16773033D01*
X20007034Y-16773033D01*
X19879000Y-19025000D02*
X20029000Y-19175000D01*
X20029000Y-19025000D02*
X19879000Y-19175000D01*
X20007034Y-19153034D02*
X20007034Y-19046967D01*
X19900967Y-19046967D01*
X19900967Y-19153034D01*
X20007034Y-19153034D01*
X20052074Y-24142570D02*
X20202074Y-24292570D01*
X20202074Y-24142570D02*
X20052074Y-24292570D01*
X20180107Y-24270604D02*
X20180107Y-24164537D01*
X20074040Y-24164537D01*
X20074040Y-24270604D01*
X20180107Y-24270604D01*
X20729000Y-24240100D02*
X20879000Y-24390100D01*
X20879000Y-24240100D02*
X20729000Y-24390100D01*
X20857034Y-24368133D02*
X20857034Y-24262066D01*
X20750967Y-24262066D01*
X20750967Y-24368133D01*
X20857034Y-24368133D01*
X21232074Y-22082571D02*
X21382074Y-22232571D01*
X21382074Y-22082571D02*
X21232074Y-22232571D01*
X21360107Y-22210604D02*
X21360107Y-22104537D01*
X21254040Y-22104537D01*
X21254040Y-22210604D01*
X21360107Y-22210604D01*
X21497000Y-15459000D02*
X21647000Y-15609000D01*
X21647000Y-15459000D02*
X21497000Y-15609000D01*
X21625034Y-15587033D02*
X21625034Y-15480966D01*
X21518967Y-15480966D01*
X21518967Y-15587033D01*
X21625034Y-15587033D01*
X21497000Y-18799000D02*
X21647000Y-18949000D01*
X21647000Y-18799000D02*
X21497000Y-18949000D01*
X21625034Y-18927034D02*
X21625034Y-18820967D01*
X21518967Y-18820967D01*
X21518967Y-18927034D01*
X21625034Y-18927034D01*
X21604000Y-9279000D02*
X21754000Y-9429000D01*
X21754000Y-9279000D02*
X21604000Y-9429000D01*
X21732034Y-9407034D02*
X21732034Y-9300967D01*
X21625967Y-9300967D01*
X21625967Y-9407034D01*
X21732034Y-9407034D01*
X21624000Y-12119000D02*
X21774000Y-12269000D01*
X21774000Y-12119000D02*
X21624000Y-12269000D01*
X21752034Y-12247033D02*
X21752034Y-12140966D01*
X21645967Y-12140966D01*
X21645967Y-12247033D01*
X21752034Y-12247033D01*
X21751000Y-16094000D02*
X21901000Y-16244000D01*
X21901000Y-16094000D02*
X21751000Y-16244000D01*
X21879034Y-16222033D02*
X21879034Y-16115966D01*
X21772967Y-16115966D01*
X21772967Y-16222033D01*
X21879034Y-16222033D01*
X21751000Y-19434000D02*
X21901000Y-19584000D01*
X21901000Y-19434000D02*
X21751000Y-19584000D01*
X21879034Y-19562034D02*
X21879034Y-19455967D01*
X21772967Y-19455967D01*
X21772967Y-19562034D01*
X21879034Y-19562034D01*
X21909000Y-22180100D02*
X22059000Y-22330100D01*
X22059000Y-22180100D02*
X21909000Y-22330100D01*
X22037034Y-22308134D02*
X22037034Y-22202067D01*
X21930967Y-22202067D01*
X21930967Y-22308134D01*
X22037034Y-22308134D01*
X22112074Y-25322570D02*
X22262074Y-25472570D01*
X22262074Y-25322570D02*
X22112074Y-25472570D01*
X22240107Y-25450604D02*
X22240107Y-25344537D01*
X22134040Y-25344537D01*
X22134040Y-25450604D01*
X22240107Y-25450604D01*
X22239000Y-9025000D02*
X22389000Y-9175000D01*
X22389000Y-9025000D02*
X22239000Y-9175000D01*
X22367034Y-9153034D02*
X22367034Y-9046967D01*
X22260967Y-9046967D01*
X22260967Y-9153034D01*
X22367034Y-9153034D01*
X22259000Y-11865000D02*
X22409000Y-12015000D01*
X22409000Y-11865000D02*
X22259000Y-12015000D01*
X22387033Y-11993033D02*
X22387033Y-11886966D01*
X22280967Y-11886966D01*
X22280967Y-11993033D01*
X22387033Y-11993033D01*
X22789000Y-25420100D02*
X22939000Y-25570100D01*
X22939000Y-25420100D02*
X22789000Y-25570100D01*
X22917033Y-25548133D02*
X22917033Y-25442066D01*
X22810966Y-25442066D01*
X22810966Y-25548133D01*
X22917033Y-25548133D01*
D19*
X2535000Y-4835000D02*
X2965000Y-5265000D01*
X2965000Y-4835000D02*
X2535000Y-5265000D01*
X2750000Y-5265000D02*
X2965000Y-5050000D01*
X2750000Y-4835000D01*
X2535000Y-5050000D01*
X2750000Y-5265000D01*
X2535000Y-15635000D02*
X2965000Y-16065000D01*
X2965000Y-15635000D02*
X2535000Y-16065000D01*
X2750000Y-16065000D02*
X2965000Y-15850000D01*
X2750000Y-15635000D01*
X2535000Y-15850000D01*
X2750000Y-16065000D01*
X2535000Y-26435000D02*
X2965000Y-26865000D01*
X2965000Y-26435000D02*
X2535000Y-26865000D01*
X2750000Y-26865000D02*
X2965000Y-26650000D01*
X2750000Y-26435000D01*
X2535000Y-26650000D01*
X2750000Y-26865000D01*
X13035000Y-4785000D02*
X13465000Y-5215000D01*
X13465000Y-4785000D02*
X13035000Y-5215000D01*
X13250000Y-5215000D02*
X13465000Y-5000000D01*
X13250000Y-4785000D01*
X13035000Y-5000000D01*
X13250000Y-5215000D01*
X13035000Y-26435000D02*
X13465000Y-26865000D01*
X13465000Y-26435000D02*
X13035000Y-26865000D01*
X13250000Y-26865000D02*
X13465000Y-26650000D01*
X13250000Y-26435000D01*
X13035000Y-26650000D01*
X13250000Y-26865000D01*
X23535000Y-4835000D02*
X23965000Y-5265000D01*
X23965000Y-4835000D02*
X23535000Y-5265000D01*
X23750000Y-5265000D02*
X23965000Y-5050000D01*
X23750000Y-4835000D01*
X23535000Y-5050000D01*
X23750000Y-5265000D01*
X23535000Y-15635000D02*
X23965000Y-16065000D01*
X23965000Y-15635000D02*
X23535000Y-16065000D01*
X23750000Y-16065000D02*
X23965000Y-15850000D01*
X23750000Y-15635000D01*
X23535000Y-15850000D01*
X23750000Y-16065000D01*
X23535000Y-26435000D02*
X23965000Y-26865000D01*
X23965000Y-26435000D02*
X23535000Y-26865000D01*
X23750000Y-26865000D02*
X23965000Y-26650000D01*
X23750000Y-26435000D01*
X23535000Y-26650000D01*
X23750000Y-26865000D01*
D10*
X2281127Y-27763060D02*
X2281127Y-27563060D01*
X2328746Y-27563060D01*
X2357318Y-27572584D01*
X2376366Y-27591632D01*
X2385889Y-27610679D01*
X2395413Y-27648775D01*
X2395413Y-27677346D01*
X2385889Y-27715441D01*
X2376366Y-27734489D01*
X2357318Y-27753537D01*
X2328746Y-27763060D01*
X2281127Y-27763060D01*
X2481127Y-27763060D02*
X2481127Y-27629727D01*
X2481127Y-27667822D02*
X2490651Y-27648775D01*
X2500175Y-27639251D01*
X2519223Y-27629727D01*
X2538270Y-27629727D01*
X2604937Y-27763060D02*
X2604937Y-27629727D01*
X2604937Y-27563060D02*
X2595413Y-27572584D01*
X2604937Y-27582108D01*
X2614461Y-27572584D01*
X2604937Y-27563060D01*
X2604937Y-27582108D01*
X2728746Y-27763060D02*
X2709699Y-27753537D01*
X2700175Y-27734489D01*
X2700175Y-27563060D01*
X2833508Y-27763060D02*
X2814461Y-27753537D01*
X2804937Y-27734489D01*
X2804937Y-27563060D01*
X3062080Y-27763060D02*
X3062080Y-27563060D01*
X3128746Y-27705918D01*
X3195413Y-27563060D01*
X3195413Y-27763060D01*
X3376365Y-27763060D02*
X3376365Y-27658298D01*
X3366842Y-27639251D01*
X3347794Y-27629727D01*
X3309699Y-27629727D01*
X3290651Y-27639251D01*
X3376365Y-27753537D02*
X3357318Y-27763060D01*
X3309699Y-27763060D01*
X3290651Y-27753537D01*
X3281127Y-27734489D01*
X3281127Y-27715441D01*
X3290651Y-27696394D01*
X3309699Y-27686870D01*
X3357318Y-27686870D01*
X3376365Y-27677346D01*
X3471604Y-27629727D02*
X3471604Y-27829727D01*
X3471604Y-27639251D02*
X3490651Y-27629727D01*
X3528746Y-27629727D01*
X3547794Y-27639251D01*
X3557318Y-27648775D01*
X3566842Y-27667822D01*
X3566842Y-27724965D01*
X3557318Y-27744013D01*
X3547794Y-27753537D01*
X3528746Y-27763060D01*
X3490651Y-27763060D01*
X3471604Y-27753537D01*
X3652556Y-27744013D02*
X3662080Y-27753537D01*
X3652556Y-27763060D01*
X3643032Y-27753537D01*
X3652556Y-27744013D01*
X3652556Y-27763060D01*
X3652556Y-27639251D02*
X3662080Y-27648775D01*
X3652556Y-27658298D01*
X3643032Y-27648775D01*
X3652556Y-27639251D01*
X3652556Y-27658298D01*
D11*
X1983508Y-28072584D02*
X2023508Y-28112584D01*
X2023508Y-28072584D02*
X1983508Y-28112584D01*
D10*
X2319223Y-27983060D02*
X2338270Y-27983060D01*
X2357318Y-27992584D01*
X2366842Y-28002108D01*
X2376366Y-28021156D01*
X2385889Y-28059251D01*
X2385889Y-28106870D01*
X2376366Y-28144965D01*
X2366842Y-28164013D01*
X2357318Y-28173537D01*
X2338270Y-28183060D01*
X2319223Y-28183060D01*
X2300175Y-28173537D01*
X2290651Y-28164013D01*
X2281127Y-28144965D01*
X2271604Y-28106870D01*
X2271604Y-28059251D01*
X2281127Y-28021156D01*
X2290651Y-28002108D01*
X2300175Y-27992584D01*
X2319223Y-27983060D01*
X2471604Y-28164013D02*
X2481127Y-28173537D01*
X2471604Y-28183060D01*
X2462080Y-28173537D01*
X2471604Y-28164013D01*
X2471604Y-28183060D01*
X2652556Y-28049727D02*
X2652556Y-28183060D01*
X2604937Y-27973537D02*
X2557318Y-28116394D01*
X2681127Y-28116394D01*
X2795413Y-27983060D02*
X2814461Y-27983060D01*
X2833508Y-27992584D01*
X2843032Y-28002108D01*
X2852556Y-28021156D01*
X2862080Y-28059251D01*
X2862080Y-28106870D01*
X2852556Y-28144965D01*
X2843032Y-28164013D01*
X2833508Y-28173537D01*
X2814461Y-28183060D01*
X2795413Y-28183060D01*
X2776366Y-28173537D01*
X2766842Y-28164013D01*
X2757318Y-28144965D01*
X2747794Y-28106870D01*
X2747794Y-28059251D01*
X2757318Y-28021156D01*
X2766842Y-28002108D01*
X2776366Y-27992584D01*
X2795413Y-27983060D01*
X2985889Y-27983060D02*
X3004937Y-27983060D01*
X3023984Y-27992584D01*
X3033508Y-28002108D01*
X3043032Y-28021156D01*
X3052556Y-28059251D01*
X3052556Y-28106870D01*
X3043032Y-28144965D01*
X3033508Y-28164013D01*
X3023984Y-28173537D01*
X3004937Y-28183060D01*
X2985889Y-28183060D01*
X2966842Y-28173537D01*
X2957318Y-28164013D01*
X2947794Y-28144965D01*
X2938270Y-28106870D01*
X2938270Y-28059251D01*
X2947794Y-28021156D01*
X2957318Y-28002108D01*
X2966842Y-27992584D01*
X2985889Y-27983060D01*
X3138270Y-28183060D02*
X3138270Y-28049727D01*
X3138270Y-28068775D02*
X3147794Y-28059251D01*
X3166842Y-28049727D01*
X3195413Y-28049727D01*
X3214461Y-28059251D01*
X3223984Y-28078298D01*
X3223984Y-28183060D01*
X3223984Y-28078298D02*
X3233508Y-28059251D01*
X3252556Y-28049727D01*
X3281127Y-28049727D01*
X3300175Y-28059251D01*
X3309699Y-28078298D01*
X3309699Y-28183060D01*
X3404937Y-28183060D02*
X3404937Y-28049727D01*
X3404937Y-28068775D02*
X3414461Y-28059251D01*
X3433508Y-28049727D01*
X3462080Y-28049727D01*
X3481127Y-28059251D01*
X3490651Y-28078298D01*
X3490651Y-28183060D01*
X3490651Y-28078298D02*
X3500175Y-28059251D01*
X3519223Y-28049727D01*
X3547794Y-28049727D01*
X3566842Y-28059251D01*
X3576365Y-28078298D01*
X3576365Y-28183060D01*
X3966842Y-27973537D02*
X3795413Y-28230679D01*
X4223985Y-27983060D02*
X4243032Y-27983060D01*
X4262080Y-27992584D01*
X4271604Y-28002108D01*
X4281127Y-28021156D01*
X4290651Y-28059251D01*
X4290651Y-28106870D01*
X4281127Y-28144965D01*
X4271604Y-28164013D01*
X4262080Y-28173537D01*
X4243032Y-28183060D01*
X4223985Y-28183060D01*
X4204937Y-28173537D01*
X4195413Y-28164013D01*
X4185889Y-28144965D01*
X4176365Y-28106870D01*
X4176365Y-28059251D01*
X4185889Y-28021156D01*
X4195413Y-28002108D01*
X4204937Y-27992584D01*
X4223985Y-27983060D01*
X4376366Y-28164013D02*
X4385889Y-28173537D01*
X4376366Y-28183060D01*
X4366842Y-28173537D01*
X4376366Y-28164013D01*
X4376366Y-28183060D01*
X4509699Y-27983060D02*
X4528746Y-27983060D01*
X4547794Y-27992584D01*
X4557318Y-28002108D01*
X4566842Y-28021156D01*
X4576366Y-28059251D01*
X4576366Y-28106870D01*
X4566842Y-28144965D01*
X4557318Y-28164013D01*
X4547794Y-28173537D01*
X4528746Y-28183060D01*
X4509699Y-28183060D01*
X4490651Y-28173537D01*
X4481127Y-28164013D01*
X4471604Y-28144965D01*
X4462080Y-28106870D01*
X4462080Y-28059251D01*
X4471604Y-28021156D01*
X4481127Y-28002108D01*
X4490651Y-27992584D01*
X4509699Y-27983060D01*
X4766842Y-28183060D02*
X4652556Y-28183060D01*
X4709699Y-28183060D02*
X4709699Y-27983060D01*
X4690651Y-28011632D01*
X4671604Y-28030679D01*
X4652556Y-28040203D01*
X4947794Y-27983060D02*
X4852556Y-27983060D01*
X4843032Y-28078298D01*
X4852556Y-28068775D01*
X4871604Y-28059251D01*
X4919223Y-28059251D01*
X4938270Y-28068775D01*
X4947794Y-28078298D01*
X4957318Y-28097346D01*
X4957318Y-28144965D01*
X4947794Y-28164013D01*
X4938270Y-28173537D01*
X4919223Y-28183060D01*
X4871604Y-28183060D01*
X4852556Y-28173537D01*
X4843032Y-28164013D01*
X5023985Y-27983060D02*
X5157318Y-27983060D01*
X5071604Y-28183060D01*
X5223985Y-27983060D02*
X5223985Y-28021156D01*
X5300175Y-27983060D02*
X5300175Y-28021156D01*
X5595413Y-28259251D02*
X5585889Y-28249727D01*
X5566842Y-28221156D01*
X5557318Y-28202108D01*
X5547794Y-28173537D01*
X5538270Y-28125918D01*
X5538270Y-28087822D01*
X5547794Y-28040203D01*
X5557318Y-28011632D01*
X5566842Y-27992584D01*
X5585889Y-27964013D01*
X5595413Y-27954489D01*
X5776365Y-28183060D02*
X5662080Y-28183060D01*
X5719223Y-28183060D02*
X5719223Y-27983060D01*
X5700175Y-28011632D01*
X5681127Y-28030679D01*
X5662080Y-28040203D01*
X5890651Y-28068775D02*
X5871604Y-28059251D01*
X5862080Y-28049727D01*
X5852556Y-28030679D01*
X5852556Y-28021156D01*
X5862080Y-28002108D01*
X5871604Y-27992584D01*
X5890651Y-27983060D01*
X5928746Y-27983060D01*
X5947794Y-27992584D01*
X5957318Y-28002108D01*
X5966842Y-28021156D01*
X5966842Y-28030679D01*
X5957318Y-28049727D01*
X5947794Y-28059251D01*
X5928746Y-28068775D01*
X5890651Y-28068775D01*
X5871604Y-28078298D01*
X5862080Y-28087822D01*
X5852556Y-28106870D01*
X5852556Y-28144965D01*
X5862080Y-28164013D01*
X5871604Y-28173537D01*
X5890651Y-28183060D01*
X5928746Y-28183060D01*
X5947794Y-28173537D01*
X5957318Y-28164013D01*
X5966842Y-28144965D01*
X5966842Y-28106870D01*
X5957318Y-28087822D01*
X5947794Y-28078298D01*
X5928746Y-28068775D01*
X6204937Y-28183060D02*
X6204937Y-27983060D01*
X6290651Y-28183060D02*
X6290651Y-28078298D01*
X6281127Y-28059251D01*
X6262080Y-28049727D01*
X6233508Y-28049727D01*
X6214461Y-28059251D01*
X6204937Y-28068775D01*
X6414461Y-28183060D02*
X6395413Y-28173537D01*
X6385889Y-28164013D01*
X6376365Y-28144965D01*
X6376365Y-28087822D01*
X6385889Y-28068775D01*
X6395413Y-28059251D01*
X6414461Y-28049727D01*
X6443032Y-28049727D01*
X6462080Y-28059251D01*
X6471604Y-28068775D01*
X6481127Y-28087822D01*
X6481127Y-28144965D01*
X6471604Y-28164013D01*
X6462080Y-28173537D01*
X6443032Y-28183060D01*
X6414461Y-28183060D01*
X6595413Y-28183060D02*
X6576365Y-28173537D01*
X6566842Y-28154489D01*
X6566842Y-27983060D01*
X6747794Y-28173537D02*
X6728746Y-28183060D01*
X6690651Y-28183060D01*
X6671604Y-28173537D01*
X6662080Y-28154489D01*
X6662080Y-28078298D01*
X6671604Y-28059251D01*
X6690651Y-28049727D01*
X6728746Y-28049727D01*
X6747794Y-28059251D01*
X6757318Y-28078298D01*
X6757318Y-28097346D01*
X6662080Y-28116394D01*
X6833508Y-28173537D02*
X6852556Y-28183060D01*
X6890651Y-28183060D01*
X6909699Y-28173537D01*
X6919223Y-28154489D01*
X6919223Y-28144965D01*
X6909699Y-28125918D01*
X6890651Y-28116394D01*
X6862080Y-28116394D01*
X6843032Y-28106870D01*
X6833508Y-28087822D01*
X6833508Y-28078298D01*
X6843032Y-28059251D01*
X6862080Y-28049727D01*
X6890651Y-28049727D01*
X6909699Y-28059251D01*
X6985889Y-28259251D02*
X6995413Y-28249727D01*
X7014461Y-28221156D01*
X7023984Y-28202108D01*
X7033508Y-28173537D01*
X7043032Y-28125918D01*
X7043032Y-28087822D01*
X7033508Y-28040203D01*
X7023984Y-28011632D01*
X7014461Y-27992584D01*
X6995413Y-27964013D01*
X6985889Y-27954489D01*
D12*
X2023508Y-28356584D02*
G75*
G03*
X2023508Y-28356584I-35000J0D01*
G01*
D10*
X2319223Y-28247060D02*
X2338270Y-28247060D01*
X2357318Y-28256584D01*
X2366842Y-28266108D01*
X2376366Y-28285156D01*
X2385889Y-28323251D01*
X2385889Y-28370870D01*
X2376366Y-28408965D01*
X2366842Y-28428013D01*
X2357318Y-28437537D01*
X2338270Y-28447060D01*
X2319223Y-28447060D01*
X2300175Y-28437537D01*
X2290651Y-28428013D01*
X2281127Y-28408965D01*
X2271604Y-28370870D01*
X2271604Y-28323251D01*
X2281127Y-28285156D01*
X2290651Y-28266108D01*
X2300175Y-28256584D01*
X2319223Y-28247060D01*
X2471604Y-28428013D02*
X2481127Y-28437537D01*
X2471604Y-28447060D01*
X2462080Y-28437537D01*
X2471604Y-28428013D01*
X2471604Y-28447060D01*
X2547794Y-28247060D02*
X2681127Y-28247060D01*
X2595413Y-28447060D01*
X2795413Y-28247060D02*
X2814461Y-28247060D01*
X2833508Y-28256584D01*
X2843032Y-28266108D01*
X2852556Y-28285156D01*
X2862080Y-28323251D01*
X2862080Y-28370870D01*
X2852556Y-28408965D01*
X2843032Y-28428013D01*
X2833508Y-28437537D01*
X2814461Y-28447060D01*
X2795413Y-28447060D01*
X2776366Y-28437537D01*
X2766842Y-28428013D01*
X2757318Y-28408965D01*
X2747794Y-28370870D01*
X2747794Y-28323251D01*
X2757318Y-28285156D01*
X2766842Y-28266108D01*
X2776366Y-28256584D01*
X2795413Y-28247060D01*
X2985889Y-28247060D02*
X3004937Y-28247060D01*
X3023984Y-28256584D01*
X3033508Y-28266108D01*
X3043032Y-28285156D01*
X3052556Y-28323251D01*
X3052556Y-28370870D01*
X3043032Y-28408965D01*
X3033508Y-28428013D01*
X3023984Y-28437537D01*
X3004937Y-28447060D01*
X2985889Y-28447060D01*
X2966842Y-28437537D01*
X2957318Y-28428013D01*
X2947794Y-28408965D01*
X2938270Y-28370870D01*
X2938270Y-28323251D01*
X2947794Y-28285156D01*
X2957318Y-28266108D01*
X2966842Y-28256584D01*
X2985889Y-28247060D01*
X3138270Y-28447060D02*
X3138270Y-28313727D01*
X3138270Y-28332775D02*
X3147794Y-28323251D01*
X3166842Y-28313727D01*
X3195413Y-28313727D01*
X3214461Y-28323251D01*
X3223984Y-28342298D01*
X3223984Y-28447060D01*
X3223984Y-28342298D02*
X3233508Y-28323251D01*
X3252556Y-28313727D01*
X3281127Y-28313727D01*
X3300175Y-28323251D01*
X3309699Y-28342298D01*
X3309699Y-28447060D01*
X3404937Y-28447060D02*
X3404937Y-28313727D01*
X3404937Y-28332775D02*
X3414461Y-28323251D01*
X3433508Y-28313727D01*
X3462080Y-28313727D01*
X3481127Y-28323251D01*
X3490651Y-28342298D01*
X3490651Y-28447060D01*
X3490651Y-28342298D02*
X3500175Y-28323251D01*
X3519223Y-28313727D01*
X3547794Y-28313727D01*
X3566842Y-28323251D01*
X3576365Y-28342298D01*
X3576365Y-28447060D01*
X3966842Y-28237537D02*
X3795413Y-28494679D01*
X4223985Y-28247060D02*
X4243032Y-28247060D01*
X4262080Y-28256584D01*
X4271604Y-28266108D01*
X4281127Y-28285156D01*
X4290651Y-28323251D01*
X4290651Y-28370870D01*
X4281127Y-28408965D01*
X4271604Y-28428013D01*
X4262080Y-28437537D01*
X4243032Y-28447060D01*
X4223985Y-28447060D01*
X4204937Y-28437537D01*
X4195413Y-28428013D01*
X4185889Y-28408965D01*
X4176365Y-28370870D01*
X4176365Y-28323251D01*
X4185889Y-28285156D01*
X4195413Y-28266108D01*
X4204937Y-28256584D01*
X4223985Y-28247060D01*
X4376366Y-28428013D02*
X4385889Y-28437537D01*
X4376366Y-28447060D01*
X4366842Y-28437537D01*
X4376366Y-28428013D01*
X4376366Y-28447060D01*
X4509699Y-28247060D02*
X4528746Y-28247060D01*
X4547794Y-28256584D01*
X4557318Y-28266108D01*
X4566842Y-28285156D01*
X4576366Y-28323251D01*
X4576366Y-28370870D01*
X4566842Y-28408965D01*
X4557318Y-28428013D01*
X4547794Y-28437537D01*
X4528746Y-28447060D01*
X4509699Y-28447060D01*
X4490651Y-28437537D01*
X4481127Y-28428013D01*
X4471604Y-28408965D01*
X4462080Y-28370870D01*
X4462080Y-28323251D01*
X4471604Y-28285156D01*
X4481127Y-28266108D01*
X4490651Y-28256584D01*
X4509699Y-28247060D01*
X4652556Y-28266108D02*
X4662080Y-28256584D01*
X4681127Y-28247060D01*
X4728746Y-28247060D01*
X4747794Y-28256584D01*
X4757318Y-28266108D01*
X4766842Y-28285156D01*
X4766842Y-28304203D01*
X4757318Y-28332775D01*
X4643032Y-28447060D01*
X4766842Y-28447060D01*
X4833508Y-28247060D02*
X4966842Y-28247060D01*
X4881127Y-28447060D01*
X5128746Y-28247060D02*
X5090651Y-28247060D01*
X5071604Y-28256584D01*
X5062080Y-28266108D01*
X5043032Y-28294679D01*
X5033508Y-28332775D01*
X5033508Y-28408965D01*
X5043032Y-28428013D01*
X5052556Y-28437537D01*
X5071604Y-28447060D01*
X5109699Y-28447060D01*
X5128746Y-28437537D01*
X5138270Y-28428013D01*
X5147794Y-28408965D01*
X5147794Y-28361346D01*
X5138270Y-28342298D01*
X5128746Y-28332775D01*
X5109699Y-28323251D01*
X5071604Y-28323251D01*
X5052556Y-28332775D01*
X5043032Y-28342298D01*
X5033508Y-28361346D01*
X5223985Y-28247060D02*
X5223985Y-28285156D01*
X5300175Y-28247060D02*
X5300175Y-28285156D01*
X5595413Y-28523251D02*
X5585889Y-28513727D01*
X5566842Y-28485156D01*
X5557318Y-28466108D01*
X5547794Y-28437537D01*
X5538270Y-28389918D01*
X5538270Y-28351822D01*
X5547794Y-28304203D01*
X5557318Y-28275632D01*
X5566842Y-28256584D01*
X5585889Y-28228013D01*
X5595413Y-28218489D01*
X5776365Y-28447060D02*
X5662080Y-28447060D01*
X5719223Y-28447060D02*
X5719223Y-28247060D01*
X5700175Y-28275632D01*
X5681127Y-28294679D01*
X5662080Y-28304203D01*
X5852556Y-28266108D02*
X5862080Y-28256584D01*
X5881127Y-28247060D01*
X5928746Y-28247060D01*
X5947794Y-28256584D01*
X5957318Y-28266108D01*
X5966842Y-28285156D01*
X5966842Y-28304203D01*
X5957318Y-28332775D01*
X5843032Y-28447060D01*
X5966842Y-28447060D01*
X6204937Y-28447060D02*
X6204937Y-28247060D01*
X6290651Y-28447060D02*
X6290651Y-28342298D01*
X6281127Y-28323251D01*
X6262080Y-28313727D01*
X6233508Y-28313727D01*
X6214461Y-28323251D01*
X6204937Y-28332775D01*
X6414461Y-28447060D02*
X6395413Y-28437537D01*
X6385889Y-28428013D01*
X6376365Y-28408965D01*
X6376365Y-28351822D01*
X6385889Y-28332775D01*
X6395413Y-28323251D01*
X6414461Y-28313727D01*
X6443032Y-28313727D01*
X6462080Y-28323251D01*
X6471604Y-28332775D01*
X6481127Y-28351822D01*
X6481127Y-28408965D01*
X6471604Y-28428013D01*
X6462080Y-28437537D01*
X6443032Y-28447060D01*
X6414461Y-28447060D01*
X6595413Y-28447060D02*
X6576365Y-28437537D01*
X6566842Y-28418489D01*
X6566842Y-28247060D01*
X6747794Y-28437537D02*
X6728746Y-28447060D01*
X6690651Y-28447060D01*
X6671604Y-28437537D01*
X6662080Y-28418489D01*
X6662080Y-28342298D01*
X6671604Y-28323251D01*
X6690651Y-28313727D01*
X6728746Y-28313727D01*
X6747794Y-28323251D01*
X6757318Y-28342298D01*
X6757318Y-28361346D01*
X6662080Y-28380394D01*
X6833508Y-28437537D02*
X6852556Y-28447060D01*
X6890651Y-28447060D01*
X6909699Y-28437537D01*
X6919223Y-28418489D01*
X6919223Y-28408965D01*
X6909699Y-28389918D01*
X6890651Y-28380394D01*
X6862080Y-28380394D01*
X6843032Y-28370870D01*
X6833508Y-28351822D01*
X6833508Y-28342298D01*
X6843032Y-28323251D01*
X6862080Y-28313727D01*
X6890651Y-28313727D01*
X6909699Y-28323251D01*
X6985889Y-28523251D02*
X6995413Y-28513727D01*
X7014461Y-28485156D01*
X7023984Y-28466108D01*
X7033508Y-28437537D01*
X7043032Y-28389918D01*
X7043032Y-28351822D01*
X7033508Y-28304203D01*
X7023984Y-28275632D01*
X7014461Y-28256584D01*
X6995413Y-28228013D01*
X6985889Y-28218489D01*
D13*
X1983508Y-28580584D02*
X1983508Y-28660584D01*
X1943508Y-28620584D02*
X2023508Y-28620584D01*
D10*
X2319223Y-28511060D02*
X2338270Y-28511060D01*
X2357318Y-28520584D01*
X2366842Y-28530108D01*
X2376366Y-28549156D01*
X2385889Y-28587251D01*
X2385889Y-28634870D01*
X2376366Y-28672965D01*
X2366842Y-28692013D01*
X2357318Y-28701537D01*
X2338270Y-28711060D01*
X2319223Y-28711060D01*
X2300175Y-28701537D01*
X2290651Y-28692013D01*
X2281127Y-28672965D01*
X2271604Y-28634870D01*
X2271604Y-28587251D01*
X2281127Y-28549156D01*
X2290651Y-28530108D01*
X2300175Y-28520584D01*
X2319223Y-28511060D01*
X2471604Y-28692013D02*
X2481127Y-28701537D01*
X2471604Y-28711060D01*
X2462080Y-28701537D01*
X2471604Y-28692013D01*
X2471604Y-28711060D01*
X2595413Y-28596775D02*
X2576366Y-28587251D01*
X2566842Y-28577727D01*
X2557318Y-28558679D01*
X2557318Y-28549156D01*
X2566842Y-28530108D01*
X2576366Y-28520584D01*
X2595413Y-28511060D01*
X2633508Y-28511060D01*
X2652556Y-28520584D01*
X2662080Y-28530108D01*
X2671604Y-28549156D01*
X2671604Y-28558679D01*
X2662080Y-28577727D01*
X2652556Y-28587251D01*
X2633508Y-28596775D01*
X2595413Y-28596775D01*
X2576366Y-28606298D01*
X2566842Y-28615822D01*
X2557318Y-28634870D01*
X2557318Y-28672965D01*
X2566842Y-28692013D01*
X2576366Y-28701537D01*
X2595413Y-28711060D01*
X2633508Y-28711060D01*
X2652556Y-28701537D01*
X2662080Y-28692013D01*
X2671604Y-28672965D01*
X2671604Y-28634870D01*
X2662080Y-28615822D01*
X2652556Y-28606298D01*
X2633508Y-28596775D01*
X2795413Y-28511060D02*
X2814461Y-28511060D01*
X2833508Y-28520584D01*
X2843032Y-28530108D01*
X2852556Y-28549156D01*
X2862080Y-28587251D01*
X2862080Y-28634870D01*
X2852556Y-28672965D01*
X2843032Y-28692013D01*
X2833508Y-28701537D01*
X2814461Y-28711060D01*
X2795413Y-28711060D01*
X2776366Y-28701537D01*
X2766842Y-28692013D01*
X2757318Y-28672965D01*
X2747794Y-28634870D01*
X2747794Y-28587251D01*
X2757318Y-28549156D01*
X2766842Y-28530108D01*
X2776366Y-28520584D01*
X2795413Y-28511060D01*
X2985889Y-28511060D02*
X3004937Y-28511060D01*
X3023984Y-28520584D01*
X3033508Y-28530108D01*
X3043032Y-28549156D01*
X3052556Y-28587251D01*
X3052556Y-28634870D01*
X3043032Y-28672965D01*
X3033508Y-28692013D01*
X3023984Y-28701537D01*
X3004937Y-28711060D01*
X2985889Y-28711060D01*
X2966842Y-28701537D01*
X2957318Y-28692013D01*
X2947794Y-28672965D01*
X2938270Y-28634870D01*
X2938270Y-28587251D01*
X2947794Y-28549156D01*
X2957318Y-28530108D01*
X2966842Y-28520584D01*
X2985889Y-28511060D01*
X3138270Y-28711060D02*
X3138270Y-28577727D01*
X3138270Y-28596775D02*
X3147794Y-28587251D01*
X3166842Y-28577727D01*
X3195413Y-28577727D01*
X3214461Y-28587251D01*
X3223984Y-28606298D01*
X3223984Y-28711060D01*
X3223984Y-28606298D02*
X3233508Y-28587251D01*
X3252556Y-28577727D01*
X3281127Y-28577727D01*
X3300175Y-28587251D01*
X3309699Y-28606298D01*
X3309699Y-28711060D01*
X3404937Y-28711060D02*
X3404937Y-28577727D01*
X3404937Y-28596775D02*
X3414461Y-28587251D01*
X3433508Y-28577727D01*
X3462080Y-28577727D01*
X3481127Y-28587251D01*
X3490651Y-28606298D01*
X3490651Y-28711060D01*
X3490651Y-28606298D02*
X3500175Y-28587251D01*
X3519223Y-28577727D01*
X3547794Y-28577727D01*
X3566842Y-28587251D01*
X3576365Y-28606298D01*
X3576365Y-28711060D01*
X3966842Y-28501537D02*
X3795413Y-28758679D01*
X4223985Y-28511060D02*
X4243032Y-28511060D01*
X4262080Y-28520584D01*
X4271604Y-28530108D01*
X4281127Y-28549156D01*
X4290651Y-28587251D01*
X4290651Y-28634870D01*
X4281127Y-28672965D01*
X4271604Y-28692013D01*
X4262080Y-28701537D01*
X4243032Y-28711060D01*
X4223985Y-28711060D01*
X4204937Y-28701537D01*
X4195413Y-28692013D01*
X4185889Y-28672965D01*
X4176365Y-28634870D01*
X4176365Y-28587251D01*
X4185889Y-28549156D01*
X4195413Y-28530108D01*
X4204937Y-28520584D01*
X4223985Y-28511060D01*
X4376366Y-28692013D02*
X4385889Y-28701537D01*
X4376366Y-28711060D01*
X4366842Y-28701537D01*
X4376366Y-28692013D01*
X4376366Y-28711060D01*
X4509699Y-28511060D02*
X4528746Y-28511060D01*
X4547794Y-28520584D01*
X4557318Y-28530108D01*
X4566842Y-28549156D01*
X4576366Y-28587251D01*
X4576366Y-28634870D01*
X4566842Y-28672965D01*
X4557318Y-28692013D01*
X4547794Y-28701537D01*
X4528746Y-28711060D01*
X4509699Y-28711060D01*
X4490651Y-28701537D01*
X4481127Y-28692013D01*
X4471604Y-28672965D01*
X4462080Y-28634870D01*
X4462080Y-28587251D01*
X4471604Y-28549156D01*
X4481127Y-28530108D01*
X4490651Y-28520584D01*
X4509699Y-28511060D01*
X4643032Y-28511060D02*
X4766842Y-28511060D01*
X4700175Y-28587251D01*
X4728746Y-28587251D01*
X4747794Y-28596775D01*
X4757318Y-28606298D01*
X4766842Y-28625346D01*
X4766842Y-28672965D01*
X4757318Y-28692013D01*
X4747794Y-28701537D01*
X4728746Y-28711060D01*
X4671604Y-28711060D01*
X4652556Y-28701537D01*
X4643032Y-28692013D01*
X4957318Y-28711060D02*
X4843032Y-28711060D01*
X4900175Y-28711060D02*
X4900175Y-28511060D01*
X4881127Y-28539632D01*
X4862080Y-28558679D01*
X4843032Y-28568203D01*
X5138270Y-28511060D02*
X5043032Y-28511060D01*
X5033508Y-28606298D01*
X5043032Y-28596775D01*
X5062080Y-28587251D01*
X5109699Y-28587251D01*
X5128746Y-28596775D01*
X5138270Y-28606298D01*
X5147794Y-28625346D01*
X5147794Y-28672965D01*
X5138270Y-28692013D01*
X5128746Y-28701537D01*
X5109699Y-28711060D01*
X5062080Y-28711060D01*
X5043032Y-28701537D01*
X5033508Y-28692013D01*
X5223985Y-28511060D02*
X5223985Y-28549156D01*
X5300175Y-28511060D02*
X5300175Y-28549156D01*
X5595413Y-28787251D02*
X5585889Y-28777727D01*
X5566842Y-28749156D01*
X5557318Y-28730108D01*
X5547794Y-28701537D01*
X5538270Y-28653918D01*
X5538270Y-28615822D01*
X5547794Y-28568203D01*
X5557318Y-28539632D01*
X5566842Y-28520584D01*
X5585889Y-28492013D01*
X5595413Y-28482489D01*
X5681127Y-28711060D02*
X5719223Y-28711060D01*
X5738270Y-28701537D01*
X5747794Y-28692013D01*
X5766842Y-28663441D01*
X5776365Y-28625346D01*
X5776365Y-28549156D01*
X5766842Y-28530108D01*
X5757318Y-28520584D01*
X5738270Y-28511060D01*
X5700175Y-28511060D01*
X5681127Y-28520584D01*
X5671604Y-28530108D01*
X5662080Y-28549156D01*
X5662080Y-28596775D01*
X5671604Y-28615822D01*
X5681127Y-28625346D01*
X5700175Y-28634870D01*
X5738270Y-28634870D01*
X5757318Y-28625346D01*
X5766842Y-28615822D01*
X5776365Y-28596775D01*
X5947794Y-28577727D02*
X5947794Y-28711060D01*
X5900175Y-28501537D02*
X5852556Y-28644394D01*
X5976365Y-28644394D01*
X6204937Y-28711060D02*
X6204937Y-28511060D01*
X6290651Y-28711060D02*
X6290651Y-28606298D01*
X6281127Y-28587251D01*
X6262080Y-28577727D01*
X6233508Y-28577727D01*
X6214461Y-28587251D01*
X6204937Y-28596775D01*
X6414461Y-28711060D02*
X6395413Y-28701537D01*
X6385889Y-28692013D01*
X6376365Y-28672965D01*
X6376365Y-28615822D01*
X6385889Y-28596775D01*
X6395413Y-28587251D01*
X6414461Y-28577727D01*
X6443032Y-28577727D01*
X6462080Y-28587251D01*
X6471604Y-28596775D01*
X6481127Y-28615822D01*
X6481127Y-28672965D01*
X6471604Y-28692013D01*
X6462080Y-28701537D01*
X6443032Y-28711060D01*
X6414461Y-28711060D01*
X6595413Y-28711060D02*
X6576365Y-28701537D01*
X6566842Y-28682489D01*
X6566842Y-28511060D01*
X6747794Y-28701537D02*
X6728746Y-28711060D01*
X6690651Y-28711060D01*
X6671604Y-28701537D01*
X6662080Y-28682489D01*
X6662080Y-28606298D01*
X6671604Y-28587251D01*
X6690651Y-28577727D01*
X6728746Y-28577727D01*
X6747794Y-28587251D01*
X6757318Y-28606298D01*
X6757318Y-28625346D01*
X6662080Y-28644394D01*
X6833508Y-28701537D02*
X6852556Y-28711060D01*
X6890651Y-28711060D01*
X6909699Y-28701537D01*
X6919223Y-28682489D01*
X6919223Y-28672965D01*
X6909699Y-28653918D01*
X6890651Y-28644394D01*
X6862080Y-28644394D01*
X6843032Y-28634870D01*
X6833508Y-28615822D01*
X6833508Y-28606298D01*
X6843032Y-28587251D01*
X6862080Y-28577727D01*
X6890651Y-28577727D01*
X6909699Y-28587251D01*
X6985889Y-28787251D02*
X6995413Y-28777727D01*
X7014461Y-28749156D01*
X7023984Y-28730108D01*
X7033508Y-28701537D01*
X7043032Y-28653918D01*
X7043032Y-28615822D01*
X7033508Y-28568203D01*
X7023984Y-28539632D01*
X7014461Y-28520584D01*
X6995413Y-28492013D01*
X6985889Y-28482489D01*
D14*
X2010328Y-28916404D02*
X2010328Y-28852764D01*
X1946688Y-28852764D01*
X1946688Y-28916404D01*
X2010328Y-28916404D01*
D10*
X2319223Y-28775060D02*
X2338270Y-28775060D01*
X2357318Y-28784584D01*
X2366842Y-28794108D01*
X2376366Y-28813156D01*
X2385889Y-28851251D01*
X2385889Y-28898870D01*
X2376366Y-28936965D01*
X2366842Y-28956013D01*
X2357318Y-28965537D01*
X2338270Y-28975060D01*
X2319223Y-28975060D01*
X2300175Y-28965537D01*
X2290651Y-28956013D01*
X2281127Y-28936965D01*
X2271604Y-28898870D01*
X2271604Y-28851251D01*
X2281127Y-28813156D01*
X2290651Y-28794108D01*
X2300175Y-28784584D01*
X2319223Y-28775060D01*
X2471604Y-28956013D02*
X2481127Y-28965537D01*
X2471604Y-28975060D01*
X2462080Y-28965537D01*
X2471604Y-28956013D01*
X2471604Y-28975060D01*
X2576366Y-28975060D02*
X2614461Y-28975060D01*
X2633508Y-28965537D01*
X2643032Y-28956013D01*
X2662080Y-28927441D01*
X2671604Y-28889346D01*
X2671604Y-28813156D01*
X2662080Y-28794108D01*
X2652556Y-28784584D01*
X2633508Y-28775060D01*
X2595413Y-28775060D01*
X2576366Y-28784584D01*
X2566842Y-28794108D01*
X2557318Y-28813156D01*
X2557318Y-28860775D01*
X2566842Y-28879822D01*
X2576366Y-28889346D01*
X2595413Y-28898870D01*
X2633508Y-28898870D01*
X2652556Y-28889346D01*
X2662080Y-28879822D01*
X2671604Y-28860775D01*
X2795413Y-28775060D02*
X2814461Y-28775060D01*
X2833508Y-28784584D01*
X2843032Y-28794108D01*
X2852556Y-28813156D01*
X2862080Y-28851251D01*
X2862080Y-28898870D01*
X2852556Y-28936965D01*
X2843032Y-28956013D01*
X2833508Y-28965537D01*
X2814461Y-28975060D01*
X2795413Y-28975060D01*
X2776366Y-28965537D01*
X2766842Y-28956013D01*
X2757318Y-28936965D01*
X2747794Y-28898870D01*
X2747794Y-28851251D01*
X2757318Y-28813156D01*
X2766842Y-28794108D01*
X2776366Y-28784584D01*
X2795413Y-28775060D01*
X2985889Y-28775060D02*
X3004937Y-28775060D01*
X3023984Y-28784584D01*
X3033508Y-28794108D01*
X3043032Y-28813156D01*
X3052556Y-28851251D01*
X3052556Y-28898870D01*
X3043032Y-28936965D01*
X3033508Y-28956013D01*
X3023984Y-28965537D01*
X3004937Y-28975060D01*
X2985889Y-28975060D01*
X2966842Y-28965537D01*
X2957318Y-28956013D01*
X2947794Y-28936965D01*
X2938270Y-28898870D01*
X2938270Y-28851251D01*
X2947794Y-28813156D01*
X2957318Y-28794108D01*
X2966842Y-28784584D01*
X2985889Y-28775060D01*
X3138270Y-28975060D02*
X3138270Y-28841727D01*
X3138270Y-28860775D02*
X3147794Y-28851251D01*
X3166842Y-28841727D01*
X3195413Y-28841727D01*
X3214461Y-28851251D01*
X3223984Y-28870298D01*
X3223984Y-28975060D01*
X3223984Y-28870298D02*
X3233508Y-28851251D01*
X3252556Y-28841727D01*
X3281127Y-28841727D01*
X3300175Y-28851251D01*
X3309699Y-28870298D01*
X3309699Y-28975060D01*
X3404937Y-28975060D02*
X3404937Y-28841727D01*
X3404937Y-28860775D02*
X3414461Y-28851251D01*
X3433508Y-28841727D01*
X3462080Y-28841727D01*
X3481127Y-28851251D01*
X3490651Y-28870298D01*
X3490651Y-28975060D01*
X3490651Y-28870298D02*
X3500175Y-28851251D01*
X3519223Y-28841727D01*
X3547794Y-28841727D01*
X3566842Y-28851251D01*
X3576365Y-28870298D01*
X3576365Y-28975060D01*
X3966842Y-28765537D02*
X3795413Y-29022679D01*
X4223985Y-28775060D02*
X4243032Y-28775060D01*
X4262080Y-28784584D01*
X4271604Y-28794108D01*
X4281127Y-28813156D01*
X4290651Y-28851251D01*
X4290651Y-28898870D01*
X4281127Y-28936965D01*
X4271604Y-28956013D01*
X4262080Y-28965537D01*
X4243032Y-28975060D01*
X4223985Y-28975060D01*
X4204937Y-28965537D01*
X4195413Y-28956013D01*
X4185889Y-28936965D01*
X4176365Y-28898870D01*
X4176365Y-28851251D01*
X4185889Y-28813156D01*
X4195413Y-28794108D01*
X4204937Y-28784584D01*
X4223985Y-28775060D01*
X4376366Y-28956013D02*
X4385889Y-28965537D01*
X4376366Y-28975060D01*
X4366842Y-28965537D01*
X4376366Y-28956013D01*
X4376366Y-28975060D01*
X4509699Y-28775060D02*
X4528746Y-28775060D01*
X4547794Y-28784584D01*
X4557318Y-28794108D01*
X4566842Y-28813156D01*
X4576366Y-28851251D01*
X4576366Y-28898870D01*
X4566842Y-28936965D01*
X4557318Y-28956013D01*
X4547794Y-28965537D01*
X4528746Y-28975060D01*
X4509699Y-28975060D01*
X4490651Y-28965537D01*
X4481127Y-28956013D01*
X4471604Y-28936965D01*
X4462080Y-28898870D01*
X4462080Y-28851251D01*
X4471604Y-28813156D01*
X4481127Y-28794108D01*
X4490651Y-28784584D01*
X4509699Y-28775060D01*
X4643032Y-28775060D02*
X4766842Y-28775060D01*
X4700175Y-28851251D01*
X4728746Y-28851251D01*
X4747794Y-28860775D01*
X4757318Y-28870298D01*
X4766842Y-28889346D01*
X4766842Y-28936965D01*
X4757318Y-28956013D01*
X4747794Y-28965537D01*
X4728746Y-28975060D01*
X4671604Y-28975060D01*
X4652556Y-28965537D01*
X4643032Y-28956013D01*
X4947794Y-28775060D02*
X4852556Y-28775060D01*
X4843032Y-28870298D01*
X4852556Y-28860775D01*
X4871604Y-28851251D01*
X4919223Y-28851251D01*
X4938270Y-28860775D01*
X4947794Y-28870298D01*
X4957318Y-28889346D01*
X4957318Y-28936965D01*
X4947794Y-28956013D01*
X4938270Y-28965537D01*
X4919223Y-28975060D01*
X4871604Y-28975060D01*
X4852556Y-28965537D01*
X4843032Y-28956013D01*
X5128746Y-28841727D02*
X5128746Y-28975060D01*
X5081127Y-28765537D02*
X5033508Y-28908394D01*
X5157318Y-28908394D01*
X5223985Y-28775060D02*
X5223985Y-28813156D01*
X5300175Y-28775060D02*
X5300175Y-28813156D01*
X5595413Y-29051251D02*
X5585889Y-29041727D01*
X5566842Y-29013156D01*
X5557318Y-28994108D01*
X5547794Y-28965537D01*
X5538270Y-28917918D01*
X5538270Y-28879822D01*
X5547794Y-28832203D01*
X5557318Y-28803632D01*
X5566842Y-28784584D01*
X5585889Y-28756013D01*
X5595413Y-28746489D01*
X5700175Y-28860775D02*
X5681127Y-28851251D01*
X5671604Y-28841727D01*
X5662080Y-28822679D01*
X5662080Y-28813156D01*
X5671604Y-28794108D01*
X5681127Y-28784584D01*
X5700175Y-28775060D01*
X5738270Y-28775060D01*
X5757318Y-28784584D01*
X5766842Y-28794108D01*
X5776365Y-28813156D01*
X5776365Y-28822679D01*
X5766842Y-28841727D01*
X5757318Y-28851251D01*
X5738270Y-28860775D01*
X5700175Y-28860775D01*
X5681127Y-28870298D01*
X5671604Y-28879822D01*
X5662080Y-28898870D01*
X5662080Y-28936965D01*
X5671604Y-28956013D01*
X5681127Y-28965537D01*
X5700175Y-28975060D01*
X5738270Y-28975060D01*
X5757318Y-28965537D01*
X5766842Y-28956013D01*
X5776365Y-28936965D01*
X5776365Y-28898870D01*
X5766842Y-28879822D01*
X5757318Y-28870298D01*
X5738270Y-28860775D01*
X6014461Y-28975060D02*
X6014461Y-28775060D01*
X6100175Y-28975060D02*
X6100175Y-28870298D01*
X6090651Y-28851251D01*
X6071604Y-28841727D01*
X6043032Y-28841727D01*
X6023984Y-28851251D01*
X6014461Y-28860775D01*
X6223984Y-28975060D02*
X6204937Y-28965537D01*
X6195413Y-28956013D01*
X6185889Y-28936965D01*
X6185889Y-28879822D01*
X6195413Y-28860775D01*
X6204937Y-28851251D01*
X6223984Y-28841727D01*
X6252556Y-28841727D01*
X6271604Y-28851251D01*
X6281127Y-28860775D01*
X6290651Y-28879822D01*
X6290651Y-28936965D01*
X6281127Y-28956013D01*
X6271604Y-28965537D01*
X6252556Y-28975060D01*
X6223984Y-28975060D01*
X6404937Y-28975060D02*
X6385889Y-28965537D01*
X6376365Y-28946489D01*
X6376365Y-28775060D01*
X6557318Y-28965537D02*
X6538270Y-28975060D01*
X6500175Y-28975060D01*
X6481127Y-28965537D01*
X6471604Y-28946489D01*
X6471604Y-28870298D01*
X6481127Y-28851251D01*
X6500175Y-28841727D01*
X6538270Y-28841727D01*
X6557318Y-28851251D01*
X6566842Y-28870298D01*
X6566842Y-28889346D01*
X6471604Y-28908394D01*
X6643032Y-28965537D02*
X6662080Y-28975060D01*
X6700175Y-28975060D01*
X6719223Y-28965537D01*
X6728746Y-28946489D01*
X6728746Y-28936965D01*
X6719223Y-28917918D01*
X6700175Y-28908394D01*
X6671604Y-28908394D01*
X6652556Y-28898870D01*
X6643032Y-28879822D01*
X6643032Y-28870298D01*
X6652556Y-28851251D01*
X6671604Y-28841727D01*
X6700175Y-28841727D01*
X6719223Y-28851251D01*
X6795413Y-29051251D02*
X6804937Y-29041727D01*
X6823984Y-29013156D01*
X6833508Y-28994108D01*
X6843032Y-28965537D01*
X6852556Y-28917918D01*
X6852556Y-28879822D01*
X6843032Y-28832203D01*
X6833508Y-28803632D01*
X6823984Y-28784584D01*
X6804937Y-28756013D01*
X6795413Y-28746489D01*
D15*
X1973508Y-29198584D02*
X2023508Y-29148584D01*
X1973508Y-29098584D01*
X1923508Y-29148584D01*
X1973508Y-29198584D01*
D10*
X2385889Y-29239060D02*
X2271604Y-29239060D01*
X2328746Y-29239060D02*
X2328746Y-29039060D01*
X2309699Y-29067632D01*
X2290651Y-29086679D01*
X2271604Y-29096203D01*
X2471604Y-29220013D02*
X2481127Y-29229537D01*
X2471604Y-29239060D01*
X2462080Y-29229537D01*
X2471604Y-29220013D01*
X2471604Y-29239060D01*
X2604937Y-29039060D02*
X2623985Y-29039060D01*
X2643032Y-29048584D01*
X2652556Y-29058108D01*
X2662080Y-29077156D01*
X2671604Y-29115251D01*
X2671604Y-29162870D01*
X2662080Y-29200965D01*
X2652556Y-29220013D01*
X2643032Y-29229537D01*
X2623985Y-29239060D01*
X2604937Y-29239060D01*
X2585889Y-29229537D01*
X2576366Y-29220013D01*
X2566842Y-29200965D01*
X2557318Y-29162870D01*
X2557318Y-29115251D01*
X2566842Y-29077156D01*
X2576366Y-29058108D01*
X2585889Y-29048584D01*
X2604937Y-29039060D01*
X2795413Y-29039060D02*
X2814461Y-29039060D01*
X2833508Y-29048584D01*
X2843032Y-29058108D01*
X2852556Y-29077156D01*
X2862080Y-29115251D01*
X2862080Y-29162870D01*
X2852556Y-29200965D01*
X2843032Y-29220013D01*
X2833508Y-29229537D01*
X2814461Y-29239060D01*
X2795413Y-29239060D01*
X2776366Y-29229537D01*
X2766842Y-29220013D01*
X2757318Y-29200965D01*
X2747794Y-29162870D01*
X2747794Y-29115251D01*
X2757318Y-29077156D01*
X2766842Y-29058108D01*
X2776366Y-29048584D01*
X2795413Y-29039060D01*
X2985889Y-29039060D02*
X3004937Y-29039060D01*
X3023984Y-29048584D01*
X3033508Y-29058108D01*
X3043032Y-29077156D01*
X3052556Y-29115251D01*
X3052556Y-29162870D01*
X3043032Y-29200965D01*
X3033508Y-29220013D01*
X3023984Y-29229537D01*
X3004937Y-29239060D01*
X2985889Y-29239060D01*
X2966842Y-29229537D01*
X2957318Y-29220013D01*
X2947794Y-29200965D01*
X2938270Y-29162870D01*
X2938270Y-29115251D01*
X2947794Y-29077156D01*
X2957318Y-29058108D01*
X2966842Y-29048584D01*
X2985889Y-29039060D01*
X3138270Y-29239060D02*
X3138270Y-29105727D01*
X3138270Y-29124775D02*
X3147794Y-29115251D01*
X3166842Y-29105727D01*
X3195413Y-29105727D01*
X3214461Y-29115251D01*
X3223984Y-29134298D01*
X3223984Y-29239060D01*
X3223984Y-29134298D02*
X3233508Y-29115251D01*
X3252556Y-29105727D01*
X3281127Y-29105727D01*
X3300175Y-29115251D01*
X3309699Y-29134298D01*
X3309699Y-29239060D01*
X3404937Y-29239060D02*
X3404937Y-29105727D01*
X3404937Y-29124775D02*
X3414461Y-29115251D01*
X3433508Y-29105727D01*
X3462080Y-29105727D01*
X3481127Y-29115251D01*
X3490651Y-29134298D01*
X3490651Y-29239060D01*
X3490651Y-29134298D02*
X3500175Y-29115251D01*
X3519223Y-29105727D01*
X3547794Y-29105727D01*
X3566842Y-29115251D01*
X3576365Y-29134298D01*
X3576365Y-29239060D01*
X3966842Y-29029537D02*
X3795413Y-29286679D01*
X4223985Y-29039060D02*
X4243032Y-29039060D01*
X4262080Y-29048584D01*
X4271604Y-29058108D01*
X4281127Y-29077156D01*
X4290651Y-29115251D01*
X4290651Y-29162870D01*
X4281127Y-29200965D01*
X4271604Y-29220013D01*
X4262080Y-29229537D01*
X4243032Y-29239060D01*
X4223985Y-29239060D01*
X4204937Y-29229537D01*
X4195413Y-29220013D01*
X4185889Y-29200965D01*
X4176365Y-29162870D01*
X4176365Y-29115251D01*
X4185889Y-29077156D01*
X4195413Y-29058108D01*
X4204937Y-29048584D01*
X4223985Y-29039060D01*
X4376366Y-29220013D02*
X4385889Y-29229537D01*
X4376366Y-29239060D01*
X4366842Y-29229537D01*
X4376366Y-29220013D01*
X4376366Y-29239060D01*
X4509699Y-29039060D02*
X4528746Y-29039060D01*
X4547794Y-29048584D01*
X4557318Y-29058108D01*
X4566842Y-29077156D01*
X4576366Y-29115251D01*
X4576366Y-29162870D01*
X4566842Y-29200965D01*
X4557318Y-29220013D01*
X4547794Y-29229537D01*
X4528746Y-29239060D01*
X4509699Y-29239060D01*
X4490651Y-29229537D01*
X4481127Y-29220013D01*
X4471604Y-29200965D01*
X4462080Y-29162870D01*
X4462080Y-29115251D01*
X4471604Y-29077156D01*
X4481127Y-29058108D01*
X4490651Y-29048584D01*
X4509699Y-29039060D01*
X4643032Y-29039060D02*
X4766842Y-29039060D01*
X4700175Y-29115251D01*
X4728746Y-29115251D01*
X4747794Y-29124775D01*
X4757318Y-29134298D01*
X4766842Y-29153346D01*
X4766842Y-29200965D01*
X4757318Y-29220013D01*
X4747794Y-29229537D01*
X4728746Y-29239060D01*
X4671604Y-29239060D01*
X4652556Y-29229537D01*
X4643032Y-29220013D01*
X4862080Y-29239060D02*
X4900175Y-29239060D01*
X4919223Y-29229537D01*
X4928746Y-29220013D01*
X4947794Y-29191441D01*
X4957318Y-29153346D01*
X4957318Y-29077156D01*
X4947794Y-29058108D01*
X4938270Y-29048584D01*
X4919223Y-29039060D01*
X4881127Y-29039060D01*
X4862080Y-29048584D01*
X4852556Y-29058108D01*
X4843032Y-29077156D01*
X4843032Y-29124775D01*
X4852556Y-29143822D01*
X4862080Y-29153346D01*
X4881127Y-29162870D01*
X4919223Y-29162870D01*
X4938270Y-29153346D01*
X4947794Y-29143822D01*
X4957318Y-29124775D01*
X5128746Y-29105727D02*
X5128746Y-29239060D01*
X5081127Y-29029537D02*
X5033508Y-29172394D01*
X5157318Y-29172394D01*
X5223985Y-29039060D02*
X5223985Y-29077156D01*
X5300175Y-29039060D02*
X5300175Y-29077156D01*
X5595413Y-29315251D02*
X5585889Y-29305727D01*
X5566842Y-29277156D01*
X5557318Y-29258108D01*
X5547794Y-29229537D01*
X5538270Y-29181918D01*
X5538270Y-29143822D01*
X5547794Y-29096203D01*
X5557318Y-29067632D01*
X5566842Y-29048584D01*
X5585889Y-29020013D01*
X5595413Y-29010489D01*
X5757318Y-29105727D02*
X5757318Y-29239060D01*
X5709699Y-29029537D02*
X5662080Y-29172394D01*
X5785889Y-29172394D01*
X6014461Y-29239060D02*
X6014461Y-29039060D01*
X6100175Y-29239060D02*
X6100175Y-29134298D01*
X6090651Y-29115251D01*
X6071604Y-29105727D01*
X6043032Y-29105727D01*
X6023984Y-29115251D01*
X6014461Y-29124775D01*
X6223984Y-29239060D02*
X6204937Y-29229537D01*
X6195413Y-29220013D01*
X6185889Y-29200965D01*
X6185889Y-29143822D01*
X6195413Y-29124775D01*
X6204937Y-29115251D01*
X6223984Y-29105727D01*
X6252556Y-29105727D01*
X6271604Y-29115251D01*
X6281127Y-29124775D01*
X6290651Y-29143822D01*
X6290651Y-29200965D01*
X6281127Y-29220013D01*
X6271604Y-29229537D01*
X6252556Y-29239060D01*
X6223984Y-29239060D01*
X6404937Y-29239060D02*
X6385889Y-29229537D01*
X6376365Y-29210489D01*
X6376365Y-29039060D01*
X6557318Y-29229537D02*
X6538270Y-29239060D01*
X6500175Y-29239060D01*
X6481127Y-29229537D01*
X6471604Y-29210489D01*
X6471604Y-29134298D01*
X6481127Y-29115251D01*
X6500175Y-29105727D01*
X6538270Y-29105727D01*
X6557318Y-29115251D01*
X6566842Y-29134298D01*
X6566842Y-29153346D01*
X6471604Y-29172394D01*
X6643032Y-29229537D02*
X6662080Y-29239060D01*
X6700175Y-29239060D01*
X6719223Y-29229537D01*
X6728746Y-29210489D01*
X6728746Y-29200965D01*
X6719223Y-29181918D01*
X6700175Y-29172394D01*
X6671604Y-29172394D01*
X6652556Y-29162870D01*
X6643032Y-29143822D01*
X6643032Y-29134298D01*
X6652556Y-29115251D01*
X6671604Y-29105727D01*
X6700175Y-29105727D01*
X6719223Y-29115251D01*
X6795413Y-29315251D02*
X6804937Y-29305727D01*
X6823984Y-29277156D01*
X6833508Y-29258108D01*
X6843032Y-29229537D01*
X6852556Y-29181918D01*
X6852556Y-29143822D01*
X6843032Y-29096203D01*
X6833508Y-29067632D01*
X6823984Y-29048584D01*
X6804937Y-29020013D01*
X6795413Y-29010489D01*
D16*
X1921508Y-29361584D02*
X2023508Y-29463584D01*
X2023508Y-29361584D02*
X1921508Y-29463584D01*
X2023508Y-29412584D02*
G75*
G03*
X2023508Y-29412584I-51000J0D01*
G01*
D10*
X2385889Y-29503060D02*
X2271604Y-29503060D01*
X2328746Y-29503060D02*
X2328746Y-29303060D01*
X2309699Y-29331632D01*
X2290651Y-29350679D01*
X2271604Y-29360203D01*
X2471604Y-29484013D02*
X2481127Y-29493537D01*
X2471604Y-29503060D01*
X2462080Y-29493537D01*
X2471604Y-29484013D01*
X2471604Y-29503060D01*
X2604937Y-29303060D02*
X2623985Y-29303060D01*
X2643032Y-29312584D01*
X2652556Y-29322108D01*
X2662080Y-29341156D01*
X2671604Y-29379251D01*
X2671604Y-29426870D01*
X2662080Y-29464965D01*
X2652556Y-29484013D01*
X2643032Y-29493537D01*
X2623985Y-29503060D01*
X2604937Y-29503060D01*
X2585889Y-29493537D01*
X2576366Y-29484013D01*
X2566842Y-29464965D01*
X2557318Y-29426870D01*
X2557318Y-29379251D01*
X2566842Y-29341156D01*
X2576366Y-29322108D01*
X2585889Y-29312584D01*
X2604937Y-29303060D01*
X2747794Y-29322108D02*
X2757318Y-29312584D01*
X2776366Y-29303060D01*
X2823984Y-29303060D01*
X2843032Y-29312584D01*
X2852556Y-29322108D01*
X2862080Y-29341156D01*
X2862080Y-29360203D01*
X2852556Y-29388775D01*
X2738270Y-29503060D01*
X2862080Y-29503060D01*
X2985889Y-29303060D02*
X3004937Y-29303060D01*
X3023984Y-29312584D01*
X3033508Y-29322108D01*
X3043032Y-29341156D01*
X3052556Y-29379251D01*
X3052556Y-29426870D01*
X3043032Y-29464965D01*
X3033508Y-29484013D01*
X3023984Y-29493537D01*
X3004937Y-29503060D01*
X2985889Y-29503060D01*
X2966842Y-29493537D01*
X2957318Y-29484013D01*
X2947794Y-29464965D01*
X2938270Y-29426870D01*
X2938270Y-29379251D01*
X2947794Y-29341156D01*
X2957318Y-29322108D01*
X2966842Y-29312584D01*
X2985889Y-29303060D01*
X3138270Y-29503060D02*
X3138270Y-29369727D01*
X3138270Y-29388775D02*
X3147794Y-29379251D01*
X3166842Y-29369727D01*
X3195413Y-29369727D01*
X3214461Y-29379251D01*
X3223984Y-29398298D01*
X3223984Y-29503060D01*
X3223984Y-29398298D02*
X3233508Y-29379251D01*
X3252556Y-29369727D01*
X3281127Y-29369727D01*
X3300175Y-29379251D01*
X3309699Y-29398298D01*
X3309699Y-29503060D01*
X3404937Y-29503060D02*
X3404937Y-29369727D01*
X3404937Y-29388775D02*
X3414461Y-29379251D01*
X3433508Y-29369727D01*
X3462080Y-29369727D01*
X3481127Y-29379251D01*
X3490651Y-29398298D01*
X3490651Y-29503060D01*
X3490651Y-29398298D02*
X3500175Y-29379251D01*
X3519223Y-29369727D01*
X3547794Y-29369727D01*
X3566842Y-29379251D01*
X3576365Y-29398298D01*
X3576365Y-29503060D01*
X3966842Y-29293537D02*
X3795413Y-29550679D01*
X4223985Y-29303060D02*
X4243032Y-29303060D01*
X4262080Y-29312584D01*
X4271604Y-29322108D01*
X4281127Y-29341156D01*
X4290651Y-29379251D01*
X4290651Y-29426870D01*
X4281127Y-29464965D01*
X4271604Y-29484013D01*
X4262080Y-29493537D01*
X4243032Y-29503060D01*
X4223985Y-29503060D01*
X4204937Y-29493537D01*
X4195413Y-29484013D01*
X4185889Y-29464965D01*
X4176365Y-29426870D01*
X4176365Y-29379251D01*
X4185889Y-29341156D01*
X4195413Y-29322108D01*
X4204937Y-29312584D01*
X4223985Y-29303060D01*
X4376366Y-29484013D02*
X4385889Y-29493537D01*
X4376366Y-29503060D01*
X4366842Y-29493537D01*
X4376366Y-29484013D01*
X4376366Y-29503060D01*
X4509699Y-29303060D02*
X4528746Y-29303060D01*
X4547794Y-29312584D01*
X4557318Y-29322108D01*
X4566842Y-29341156D01*
X4576366Y-29379251D01*
X4576366Y-29426870D01*
X4566842Y-29464965D01*
X4557318Y-29484013D01*
X4547794Y-29493537D01*
X4528746Y-29503060D01*
X4509699Y-29503060D01*
X4490651Y-29493537D01*
X4481127Y-29484013D01*
X4471604Y-29464965D01*
X4462080Y-29426870D01*
X4462080Y-29379251D01*
X4471604Y-29341156D01*
X4481127Y-29322108D01*
X4490651Y-29312584D01*
X4509699Y-29303060D01*
X4747794Y-29369727D02*
X4747794Y-29503060D01*
X4700175Y-29293537D02*
X4652556Y-29436394D01*
X4776366Y-29436394D01*
X4890651Y-29303060D02*
X4909699Y-29303060D01*
X4928746Y-29312584D01*
X4938270Y-29322108D01*
X4947794Y-29341156D01*
X4957318Y-29379251D01*
X4957318Y-29426870D01*
X4947794Y-29464965D01*
X4938270Y-29484013D01*
X4928746Y-29493537D01*
X4909699Y-29503060D01*
X4890651Y-29503060D01*
X4871604Y-29493537D01*
X4862080Y-29484013D01*
X4852556Y-29464965D01*
X4843032Y-29426870D01*
X4843032Y-29379251D01*
X4852556Y-29341156D01*
X4862080Y-29322108D01*
X4871604Y-29312584D01*
X4890651Y-29303060D01*
X5033508Y-29322108D02*
X5043032Y-29312584D01*
X5062080Y-29303060D01*
X5109699Y-29303060D01*
X5128746Y-29312584D01*
X5138270Y-29322108D01*
X5147794Y-29341156D01*
X5147794Y-29360203D01*
X5138270Y-29388775D01*
X5023985Y-29503060D01*
X5147794Y-29503060D01*
X5223985Y-29303060D02*
X5223985Y-29341156D01*
X5300175Y-29303060D02*
X5300175Y-29341156D01*
X5595413Y-29579251D02*
X5585889Y-29569727D01*
X5566842Y-29541156D01*
X5557318Y-29522108D01*
X5547794Y-29493537D01*
X5538270Y-29445918D01*
X5538270Y-29407822D01*
X5547794Y-29360203D01*
X5557318Y-29331632D01*
X5566842Y-29312584D01*
X5585889Y-29284013D01*
X5595413Y-29274489D01*
X5757318Y-29369727D02*
X5757318Y-29503060D01*
X5709699Y-29293537D02*
X5662080Y-29436394D01*
X5785889Y-29436394D01*
X5843032Y-29303060D02*
X5966842Y-29303060D01*
X5900175Y-29379251D01*
X5928746Y-29379251D01*
X5947794Y-29388775D01*
X5957318Y-29398298D01*
X5966842Y-29417346D01*
X5966842Y-29464965D01*
X5957318Y-29484013D01*
X5947794Y-29493537D01*
X5928746Y-29503060D01*
X5871604Y-29503060D01*
X5852556Y-29493537D01*
X5843032Y-29484013D01*
X6204937Y-29503060D02*
X6204937Y-29303060D01*
X6290651Y-29503060D02*
X6290651Y-29398298D01*
X6281127Y-29379251D01*
X6262080Y-29369727D01*
X6233508Y-29369727D01*
X6214461Y-29379251D01*
X6204937Y-29388775D01*
X6414461Y-29503060D02*
X6395413Y-29493537D01*
X6385889Y-29484013D01*
X6376365Y-29464965D01*
X6376365Y-29407822D01*
X6385889Y-29388775D01*
X6395413Y-29379251D01*
X6414461Y-29369727D01*
X6443032Y-29369727D01*
X6462080Y-29379251D01*
X6471604Y-29388775D01*
X6481127Y-29407822D01*
X6481127Y-29464965D01*
X6471604Y-29484013D01*
X6462080Y-29493537D01*
X6443032Y-29503060D01*
X6414461Y-29503060D01*
X6595413Y-29503060D02*
X6576365Y-29493537D01*
X6566842Y-29474489D01*
X6566842Y-29303060D01*
X6747794Y-29493537D02*
X6728746Y-29503060D01*
X6690651Y-29503060D01*
X6671604Y-29493537D01*
X6662080Y-29474489D01*
X6662080Y-29398298D01*
X6671604Y-29379251D01*
X6690651Y-29369727D01*
X6728746Y-29369727D01*
X6747794Y-29379251D01*
X6757318Y-29398298D01*
X6757318Y-29417346D01*
X6662080Y-29436394D01*
X6833508Y-29493537D02*
X6852556Y-29503060D01*
X6890651Y-29503060D01*
X6909699Y-29493537D01*
X6919223Y-29474489D01*
X6919223Y-29464965D01*
X6909699Y-29445918D01*
X6890651Y-29436394D01*
X6862080Y-29436394D01*
X6843032Y-29426870D01*
X6833508Y-29407822D01*
X6833508Y-29398298D01*
X6843032Y-29379251D01*
X6862080Y-29369727D01*
X6890651Y-29369727D01*
X6909699Y-29379251D01*
X6985889Y-29579251D02*
X6995413Y-29569727D01*
X7014461Y-29541156D01*
X7023984Y-29522108D01*
X7033508Y-29493537D01*
X7043032Y-29445918D01*
X7043032Y-29407822D01*
X7033508Y-29360203D01*
X7023984Y-29331632D01*
X7014461Y-29312584D01*
X6995413Y-29284013D01*
X6985889Y-29274489D01*
D17*
X1913508Y-29621584D02*
X2023508Y-29731584D01*
X2023508Y-29621584D02*
X1913508Y-29731584D01*
X1968508Y-29621584D02*
X1968508Y-29731584D01*
X1913508Y-29676584D02*
X2023508Y-29676584D01*
D10*
X2385889Y-29767060D02*
X2271604Y-29767060D01*
X2328746Y-29767060D02*
X2328746Y-29567060D01*
X2309699Y-29595632D01*
X2290651Y-29614679D01*
X2271604Y-29624203D01*
X2471604Y-29748013D02*
X2481127Y-29757537D01*
X2471604Y-29767060D01*
X2462080Y-29757537D01*
X2471604Y-29748013D01*
X2471604Y-29767060D01*
X2671604Y-29767060D02*
X2557318Y-29767060D01*
X2614461Y-29767060D02*
X2614461Y-29567060D01*
X2595413Y-29595632D01*
X2576366Y-29614679D01*
X2557318Y-29624203D01*
X2795413Y-29567060D02*
X2814461Y-29567060D01*
X2833508Y-29576584D01*
X2843032Y-29586108D01*
X2852556Y-29605156D01*
X2862080Y-29643251D01*
X2862080Y-29690870D01*
X2852556Y-29728965D01*
X2843032Y-29748013D01*
X2833508Y-29757537D01*
X2814461Y-29767060D01*
X2795413Y-29767060D01*
X2776366Y-29757537D01*
X2766842Y-29748013D01*
X2757318Y-29728965D01*
X2747794Y-29690870D01*
X2747794Y-29643251D01*
X2757318Y-29605156D01*
X2766842Y-29586108D01*
X2776366Y-29576584D01*
X2795413Y-29567060D01*
X2985889Y-29567060D02*
X3004937Y-29567060D01*
X3023984Y-29576584D01*
X3033508Y-29586108D01*
X3043032Y-29605156D01*
X3052556Y-29643251D01*
X3052556Y-29690870D01*
X3043032Y-29728965D01*
X3033508Y-29748013D01*
X3023984Y-29757537D01*
X3004937Y-29767060D01*
X2985889Y-29767060D01*
X2966842Y-29757537D01*
X2957318Y-29748013D01*
X2947794Y-29728965D01*
X2938270Y-29690870D01*
X2938270Y-29643251D01*
X2947794Y-29605156D01*
X2957318Y-29586108D01*
X2966842Y-29576584D01*
X2985889Y-29567060D01*
X3138270Y-29767060D02*
X3138270Y-29633727D01*
X3138270Y-29652775D02*
X3147794Y-29643251D01*
X3166842Y-29633727D01*
X3195413Y-29633727D01*
X3214461Y-29643251D01*
X3223984Y-29662298D01*
X3223984Y-29767060D01*
X3223984Y-29662298D02*
X3233508Y-29643251D01*
X3252556Y-29633727D01*
X3281127Y-29633727D01*
X3300175Y-29643251D01*
X3309699Y-29662298D01*
X3309699Y-29767060D01*
X3404937Y-29767060D02*
X3404937Y-29633727D01*
X3404937Y-29652775D02*
X3414461Y-29643251D01*
X3433508Y-29633727D01*
X3462080Y-29633727D01*
X3481127Y-29643251D01*
X3490651Y-29662298D01*
X3490651Y-29767060D01*
X3490651Y-29662298D02*
X3500175Y-29643251D01*
X3519223Y-29633727D01*
X3547794Y-29633727D01*
X3566842Y-29643251D01*
X3576365Y-29662298D01*
X3576365Y-29767060D01*
X3966842Y-29557537D02*
X3795413Y-29814679D01*
X4223985Y-29567060D02*
X4243032Y-29567060D01*
X4262080Y-29576584D01*
X4271604Y-29586108D01*
X4281127Y-29605156D01*
X4290651Y-29643251D01*
X4290651Y-29690870D01*
X4281127Y-29728965D01*
X4271604Y-29748013D01*
X4262080Y-29757537D01*
X4243032Y-29767060D01*
X4223985Y-29767060D01*
X4204937Y-29757537D01*
X4195413Y-29748013D01*
X4185889Y-29728965D01*
X4176365Y-29690870D01*
X4176365Y-29643251D01*
X4185889Y-29605156D01*
X4195413Y-29586108D01*
X4204937Y-29576584D01*
X4223985Y-29567060D01*
X4376366Y-29748013D02*
X4385889Y-29757537D01*
X4376366Y-29767060D01*
X4366842Y-29757537D01*
X4376366Y-29748013D01*
X4376366Y-29767060D01*
X4509699Y-29567060D02*
X4528746Y-29567060D01*
X4547794Y-29576584D01*
X4557318Y-29586108D01*
X4566842Y-29605156D01*
X4576366Y-29643251D01*
X4576366Y-29690870D01*
X4566842Y-29728965D01*
X4557318Y-29748013D01*
X4547794Y-29757537D01*
X4528746Y-29767060D01*
X4509699Y-29767060D01*
X4490651Y-29757537D01*
X4481127Y-29748013D01*
X4471604Y-29728965D01*
X4462080Y-29690870D01*
X4462080Y-29643251D01*
X4471604Y-29605156D01*
X4481127Y-29586108D01*
X4490651Y-29576584D01*
X4509699Y-29567060D01*
X4747794Y-29633727D02*
X4747794Y-29767060D01*
X4700175Y-29557537D02*
X4652556Y-29700394D01*
X4776366Y-29700394D01*
X4833508Y-29567060D02*
X4957318Y-29567060D01*
X4890651Y-29643251D01*
X4919223Y-29643251D01*
X4938270Y-29652775D01*
X4947794Y-29662298D01*
X4957318Y-29681346D01*
X4957318Y-29728965D01*
X4947794Y-29748013D01*
X4938270Y-29757537D01*
X4919223Y-29767060D01*
X4862080Y-29767060D01*
X4843032Y-29757537D01*
X4833508Y-29748013D01*
X5023985Y-29567060D02*
X5147794Y-29567060D01*
X5081127Y-29643251D01*
X5109699Y-29643251D01*
X5128746Y-29652775D01*
X5138270Y-29662298D01*
X5147794Y-29681346D01*
X5147794Y-29728965D01*
X5138270Y-29748013D01*
X5128746Y-29757537D01*
X5109699Y-29767060D01*
X5052556Y-29767060D01*
X5033508Y-29757537D01*
X5023985Y-29748013D01*
X5223985Y-29567060D02*
X5223985Y-29605156D01*
X5300175Y-29567060D02*
X5300175Y-29605156D01*
X5595413Y-29843251D02*
X5585889Y-29833727D01*
X5566842Y-29805156D01*
X5557318Y-29786108D01*
X5547794Y-29757537D01*
X5538270Y-29709918D01*
X5538270Y-29671822D01*
X5547794Y-29624203D01*
X5557318Y-29595632D01*
X5566842Y-29576584D01*
X5585889Y-29548013D01*
X5595413Y-29538489D01*
X5757318Y-29633727D02*
X5757318Y-29767060D01*
X5709699Y-29557537D02*
X5662080Y-29700394D01*
X5785889Y-29700394D01*
X6014461Y-29767060D02*
X6014461Y-29567060D01*
X6100175Y-29767060D02*
X6100175Y-29662298D01*
X6090651Y-29643251D01*
X6071604Y-29633727D01*
X6043032Y-29633727D01*
X6023984Y-29643251D01*
X6014461Y-29652775D01*
X6223984Y-29767060D02*
X6204937Y-29757537D01*
X6195413Y-29748013D01*
X6185889Y-29728965D01*
X6185889Y-29671822D01*
X6195413Y-29652775D01*
X6204937Y-29643251D01*
X6223984Y-29633727D01*
X6252556Y-29633727D01*
X6271604Y-29643251D01*
X6281127Y-29652775D01*
X6290651Y-29671822D01*
X6290651Y-29728965D01*
X6281127Y-29748013D01*
X6271604Y-29757537D01*
X6252556Y-29767060D01*
X6223984Y-29767060D01*
X6404937Y-29767060D02*
X6385889Y-29757537D01*
X6376365Y-29738489D01*
X6376365Y-29567060D01*
X6557318Y-29757537D02*
X6538270Y-29767060D01*
X6500175Y-29767060D01*
X6481127Y-29757537D01*
X6471604Y-29738489D01*
X6471604Y-29662298D01*
X6481127Y-29643251D01*
X6500175Y-29633727D01*
X6538270Y-29633727D01*
X6557318Y-29643251D01*
X6566842Y-29662298D01*
X6566842Y-29681346D01*
X6471604Y-29700394D01*
X6643032Y-29757537D02*
X6662080Y-29767060D01*
X6700175Y-29767060D01*
X6719223Y-29757537D01*
X6728746Y-29738489D01*
X6728746Y-29728965D01*
X6719223Y-29709918D01*
X6700175Y-29700394D01*
X6671604Y-29700394D01*
X6652556Y-29690870D01*
X6643032Y-29671822D01*
X6643032Y-29662298D01*
X6652556Y-29643251D01*
X6671604Y-29633727D01*
X6700175Y-29633727D01*
X6719223Y-29643251D01*
X6795413Y-29843251D02*
X6804937Y-29833727D01*
X6823984Y-29805156D01*
X6833508Y-29786108D01*
X6843032Y-29757537D01*
X6852556Y-29709918D01*
X6852556Y-29671822D01*
X6843032Y-29624203D01*
X6833508Y-29595632D01*
X6823984Y-29576584D01*
X6804937Y-29548013D01*
X6795413Y-29538489D01*
D18*
X1873508Y-29865584D02*
X2023508Y-30015584D01*
X2023508Y-29865584D02*
X1873508Y-30015584D01*
X2001542Y-29993618D02*
X2001542Y-29887551D01*
X1895475Y-29887551D01*
X1895475Y-29993618D01*
X2001542Y-29993618D01*
D10*
X2385889Y-30031060D02*
X2271604Y-30031060D01*
X2328746Y-30031060D02*
X2328746Y-29831060D01*
X2309699Y-29859632D01*
X2290651Y-29878679D01*
X2271604Y-29888203D01*
X2471604Y-30012013D02*
X2481127Y-30021537D01*
X2471604Y-30031060D01*
X2462080Y-30021537D01*
X2471604Y-30012013D01*
X2471604Y-30031060D01*
X2662080Y-29831060D02*
X2566842Y-29831060D01*
X2557318Y-29926298D01*
X2566842Y-29916775D01*
X2585889Y-29907251D01*
X2633508Y-29907251D01*
X2652556Y-29916775D01*
X2662080Y-29926298D01*
X2671604Y-29945346D01*
X2671604Y-29992965D01*
X2662080Y-30012013D01*
X2652556Y-30021537D01*
X2633508Y-30031060D01*
X2585889Y-30031060D01*
X2566842Y-30021537D01*
X2557318Y-30012013D01*
X2795413Y-29831060D02*
X2814461Y-29831060D01*
X2833508Y-29840584D01*
X2843032Y-29850108D01*
X2852556Y-29869156D01*
X2862080Y-29907251D01*
X2862080Y-29954870D01*
X2852556Y-29992965D01*
X2843032Y-30012013D01*
X2833508Y-30021537D01*
X2814461Y-30031060D01*
X2795413Y-30031060D01*
X2776366Y-30021537D01*
X2766842Y-30012013D01*
X2757318Y-29992965D01*
X2747794Y-29954870D01*
X2747794Y-29907251D01*
X2757318Y-29869156D01*
X2766842Y-29850108D01*
X2776366Y-29840584D01*
X2795413Y-29831060D01*
X2985889Y-29831060D02*
X3004937Y-29831060D01*
X3023984Y-29840584D01*
X3033508Y-29850108D01*
X3043032Y-29869156D01*
X3052556Y-29907251D01*
X3052556Y-29954870D01*
X3043032Y-29992965D01*
X3033508Y-30012013D01*
X3023984Y-30021537D01*
X3004937Y-30031060D01*
X2985889Y-30031060D01*
X2966842Y-30021537D01*
X2957318Y-30012013D01*
X2947794Y-29992965D01*
X2938270Y-29954870D01*
X2938270Y-29907251D01*
X2947794Y-29869156D01*
X2957318Y-29850108D01*
X2966842Y-29840584D01*
X2985889Y-29831060D01*
X3138270Y-30031060D02*
X3138270Y-29897727D01*
X3138270Y-29916775D02*
X3147794Y-29907251D01*
X3166842Y-29897727D01*
X3195413Y-29897727D01*
X3214461Y-29907251D01*
X3223984Y-29926298D01*
X3223984Y-30031060D01*
X3223984Y-29926298D02*
X3233508Y-29907251D01*
X3252556Y-29897727D01*
X3281127Y-29897727D01*
X3300175Y-29907251D01*
X3309699Y-29926298D01*
X3309699Y-30031060D01*
X3404937Y-30031060D02*
X3404937Y-29897727D01*
X3404937Y-29916775D02*
X3414461Y-29907251D01*
X3433508Y-29897727D01*
X3462080Y-29897727D01*
X3481127Y-29907251D01*
X3490651Y-29926298D01*
X3490651Y-30031060D01*
X3490651Y-29926298D02*
X3500175Y-29907251D01*
X3519223Y-29897727D01*
X3547794Y-29897727D01*
X3566842Y-29907251D01*
X3576365Y-29926298D01*
X3576365Y-30031060D01*
X3966842Y-29821537D02*
X3795413Y-30078679D01*
X4223985Y-29831060D02*
X4243032Y-29831060D01*
X4262080Y-29840584D01*
X4271604Y-29850108D01*
X4281127Y-29869156D01*
X4290651Y-29907251D01*
X4290651Y-29954870D01*
X4281127Y-29992965D01*
X4271604Y-30012013D01*
X4262080Y-30021537D01*
X4243032Y-30031060D01*
X4223985Y-30031060D01*
X4204937Y-30021537D01*
X4195413Y-30012013D01*
X4185889Y-29992965D01*
X4176365Y-29954870D01*
X4176365Y-29907251D01*
X4185889Y-29869156D01*
X4195413Y-29850108D01*
X4204937Y-29840584D01*
X4223985Y-29831060D01*
X4376366Y-30012013D02*
X4385889Y-30021537D01*
X4376366Y-30031060D01*
X4366842Y-30021537D01*
X4376366Y-30012013D01*
X4376366Y-30031060D01*
X4509699Y-29831060D02*
X4528746Y-29831060D01*
X4547794Y-29840584D01*
X4557318Y-29850108D01*
X4566842Y-29869156D01*
X4576366Y-29907251D01*
X4576366Y-29954870D01*
X4566842Y-29992965D01*
X4557318Y-30012013D01*
X4547794Y-30021537D01*
X4528746Y-30031060D01*
X4509699Y-30031060D01*
X4490651Y-30021537D01*
X4481127Y-30012013D01*
X4471604Y-29992965D01*
X4462080Y-29954870D01*
X4462080Y-29907251D01*
X4471604Y-29869156D01*
X4481127Y-29850108D01*
X4490651Y-29840584D01*
X4509699Y-29831060D01*
X4757318Y-29831060D02*
X4662080Y-29831060D01*
X4652556Y-29926298D01*
X4662080Y-29916775D01*
X4681127Y-29907251D01*
X4728746Y-29907251D01*
X4747794Y-29916775D01*
X4757318Y-29926298D01*
X4766842Y-29945346D01*
X4766842Y-29992965D01*
X4757318Y-30012013D01*
X4747794Y-30021537D01*
X4728746Y-30031060D01*
X4681127Y-30031060D01*
X4662080Y-30021537D01*
X4652556Y-30012013D01*
X4862080Y-30031060D02*
X4900175Y-30031060D01*
X4919223Y-30021537D01*
X4928746Y-30012013D01*
X4947794Y-29983441D01*
X4957318Y-29945346D01*
X4957318Y-29869156D01*
X4947794Y-29850108D01*
X4938270Y-29840584D01*
X4919223Y-29831060D01*
X4881127Y-29831060D01*
X4862080Y-29840584D01*
X4852556Y-29850108D01*
X4843032Y-29869156D01*
X4843032Y-29916775D01*
X4852556Y-29935822D01*
X4862080Y-29945346D01*
X4881127Y-29954870D01*
X4919223Y-29954870D01*
X4938270Y-29945346D01*
X4947794Y-29935822D01*
X4957318Y-29916775D01*
X5147794Y-30031060D02*
X5033508Y-30031060D01*
X5090651Y-30031060D02*
X5090651Y-29831060D01*
X5071604Y-29859632D01*
X5052556Y-29878679D01*
X5033508Y-29888203D01*
X5223985Y-29831060D02*
X5223985Y-29869156D01*
X5300175Y-29831060D02*
X5300175Y-29869156D01*
X5595413Y-30107251D02*
X5585889Y-30097727D01*
X5566842Y-30069156D01*
X5557318Y-30050108D01*
X5547794Y-30021537D01*
X5538270Y-29973918D01*
X5538270Y-29935822D01*
X5547794Y-29888203D01*
X5557318Y-29859632D01*
X5566842Y-29840584D01*
X5585889Y-29812013D01*
X5595413Y-29802489D01*
X5681127Y-30031060D02*
X5719223Y-30031060D01*
X5738270Y-30021537D01*
X5747794Y-30012013D01*
X5766842Y-29983441D01*
X5776365Y-29945346D01*
X5776365Y-29869156D01*
X5766842Y-29850108D01*
X5757318Y-29840584D01*
X5738270Y-29831060D01*
X5700175Y-29831060D01*
X5681127Y-29840584D01*
X5671604Y-29850108D01*
X5662080Y-29869156D01*
X5662080Y-29916775D01*
X5671604Y-29935822D01*
X5681127Y-29945346D01*
X5700175Y-29954870D01*
X5738270Y-29954870D01*
X5757318Y-29945346D01*
X5766842Y-29935822D01*
X5776365Y-29916775D01*
X5947794Y-29897727D02*
X5947794Y-30031060D01*
X5900175Y-29821537D02*
X5852556Y-29964394D01*
X5976365Y-29964394D01*
X6204937Y-30031060D02*
X6204937Y-29831060D01*
X6290651Y-30031060D02*
X6290651Y-29926298D01*
X6281127Y-29907251D01*
X6262080Y-29897727D01*
X6233508Y-29897727D01*
X6214461Y-29907251D01*
X6204937Y-29916775D01*
X6414461Y-30031060D02*
X6395413Y-30021537D01*
X6385889Y-30012013D01*
X6376365Y-29992965D01*
X6376365Y-29935822D01*
X6385889Y-29916775D01*
X6395413Y-29907251D01*
X6414461Y-29897727D01*
X6443032Y-29897727D01*
X6462080Y-29907251D01*
X6471604Y-29916775D01*
X6481127Y-29935822D01*
X6481127Y-29992965D01*
X6471604Y-30012013D01*
X6462080Y-30021537D01*
X6443032Y-30031060D01*
X6414461Y-30031060D01*
X6595413Y-30031060D02*
X6576365Y-30021537D01*
X6566842Y-30002489D01*
X6566842Y-29831060D01*
X6747794Y-30021537D02*
X6728746Y-30031060D01*
X6690651Y-30031060D01*
X6671604Y-30021537D01*
X6662080Y-30002489D01*
X6662080Y-29926298D01*
X6671604Y-29907251D01*
X6690651Y-29897727D01*
X6728746Y-29897727D01*
X6747794Y-29907251D01*
X6757318Y-29926298D01*
X6757318Y-29945346D01*
X6662080Y-29964394D01*
X6833508Y-30021537D02*
X6852556Y-30031060D01*
X6890651Y-30031060D01*
X6909699Y-30021537D01*
X6919223Y-30002489D01*
X6919223Y-29992965D01*
X6909699Y-29973918D01*
X6890651Y-29964394D01*
X6862080Y-29964394D01*
X6843032Y-29954870D01*
X6833508Y-29935822D01*
X6833508Y-29926298D01*
X6843032Y-29907251D01*
X6862080Y-29897727D01*
X6890651Y-29897727D01*
X6909699Y-29907251D01*
X6985889Y-30107251D02*
X6995413Y-30097727D01*
X7014461Y-30069156D01*
X7023984Y-30050108D01*
X7033508Y-30021537D01*
X7043032Y-29973918D01*
X7043032Y-29935822D01*
X7033508Y-29888203D01*
X7023984Y-29859632D01*
X7014461Y-29840584D01*
X6995413Y-29812013D01*
X6985889Y-29802489D01*
X1823508Y-30110584D02*
X2023508Y-30310584D01*
X2023508Y-30110584D02*
X1823508Y-30310584D01*
X1923508Y-30310584D02*
X2023508Y-30210584D01*
X1923508Y-30110584D01*
X1823508Y-30210584D01*
X1923508Y-30310584D01*
X2366842Y-30167727D02*
X2366842Y-30301060D01*
X2319223Y-30091537D02*
X2271604Y-30234394D01*
X2395413Y-30234394D01*
X2471604Y-30282013D02*
X2481127Y-30291537D01*
X2471604Y-30301060D01*
X2462080Y-30291537D01*
X2471604Y-30282013D01*
X2471604Y-30301060D01*
X2547794Y-30101060D02*
X2671604Y-30101060D01*
X2604937Y-30177251D01*
X2633508Y-30177251D01*
X2652556Y-30186775D01*
X2662080Y-30196298D01*
X2671604Y-30215346D01*
X2671604Y-30262965D01*
X2662080Y-30282013D01*
X2652556Y-30291537D01*
X2633508Y-30301060D01*
X2576366Y-30301060D01*
X2557318Y-30291537D01*
X2547794Y-30282013D01*
X2795413Y-30101060D02*
X2814461Y-30101060D01*
X2833508Y-30110584D01*
X2843032Y-30120108D01*
X2852556Y-30139156D01*
X2862080Y-30177251D01*
X2862080Y-30224870D01*
X2852556Y-30262965D01*
X2843032Y-30282013D01*
X2833508Y-30291537D01*
X2814461Y-30301060D01*
X2795413Y-30301060D01*
X2776366Y-30291537D01*
X2766842Y-30282013D01*
X2757318Y-30262965D01*
X2747794Y-30224870D01*
X2747794Y-30177251D01*
X2757318Y-30139156D01*
X2766842Y-30120108D01*
X2776366Y-30110584D01*
X2795413Y-30101060D01*
X2985889Y-30101060D02*
X3004937Y-30101060D01*
X3023984Y-30110584D01*
X3033508Y-30120108D01*
X3043032Y-30139156D01*
X3052556Y-30177251D01*
X3052556Y-30224870D01*
X3043032Y-30262965D01*
X3033508Y-30282013D01*
X3023984Y-30291537D01*
X3004937Y-30301060D01*
X2985889Y-30301060D01*
X2966842Y-30291537D01*
X2957318Y-30282013D01*
X2947794Y-30262965D01*
X2938270Y-30224870D01*
X2938270Y-30177251D01*
X2947794Y-30139156D01*
X2957318Y-30120108D01*
X2966842Y-30110584D01*
X2985889Y-30101060D01*
X3138270Y-30301060D02*
X3138270Y-30167727D01*
X3138270Y-30186775D02*
X3147794Y-30177251D01*
X3166842Y-30167727D01*
X3195413Y-30167727D01*
X3214461Y-30177251D01*
X3223984Y-30196298D01*
X3223984Y-30301060D01*
X3223984Y-30196298D02*
X3233508Y-30177251D01*
X3252556Y-30167727D01*
X3281127Y-30167727D01*
X3300175Y-30177251D01*
X3309699Y-30196298D01*
X3309699Y-30301060D01*
X3404937Y-30301060D02*
X3404937Y-30167727D01*
X3404937Y-30186775D02*
X3414461Y-30177251D01*
X3433508Y-30167727D01*
X3462080Y-30167727D01*
X3481127Y-30177251D01*
X3490651Y-30196298D01*
X3490651Y-30301060D01*
X3490651Y-30196298D02*
X3500175Y-30177251D01*
X3519223Y-30167727D01*
X3547794Y-30167727D01*
X3566842Y-30177251D01*
X3576365Y-30196298D01*
X3576365Y-30301060D01*
X3966842Y-30091537D02*
X3795413Y-30348679D01*
X4223985Y-30101060D02*
X4243032Y-30101060D01*
X4262080Y-30110584D01*
X4271604Y-30120108D01*
X4281127Y-30139156D01*
X4290651Y-30177251D01*
X4290651Y-30224870D01*
X4281127Y-30262965D01*
X4271604Y-30282013D01*
X4262080Y-30291537D01*
X4243032Y-30301060D01*
X4223985Y-30301060D01*
X4204937Y-30291537D01*
X4195413Y-30282013D01*
X4185889Y-30262965D01*
X4176365Y-30224870D01*
X4176365Y-30177251D01*
X4185889Y-30139156D01*
X4195413Y-30120108D01*
X4204937Y-30110584D01*
X4223985Y-30101060D01*
X4376366Y-30282013D02*
X4385889Y-30291537D01*
X4376366Y-30301060D01*
X4366842Y-30291537D01*
X4376366Y-30282013D01*
X4376366Y-30301060D01*
X4576366Y-30301060D02*
X4462080Y-30301060D01*
X4519223Y-30301060D02*
X4519223Y-30101060D01*
X4500175Y-30129632D01*
X4481127Y-30148679D01*
X4462080Y-30158203D01*
X4747794Y-30101060D02*
X4709699Y-30101060D01*
X4690651Y-30110584D01*
X4681127Y-30120108D01*
X4662080Y-30148679D01*
X4652556Y-30186775D01*
X4652556Y-30262965D01*
X4662080Y-30282013D01*
X4671604Y-30291537D01*
X4690651Y-30301060D01*
X4728746Y-30301060D01*
X4747794Y-30291537D01*
X4757318Y-30282013D01*
X4766842Y-30262965D01*
X4766842Y-30215346D01*
X4757318Y-30196298D01*
X4747794Y-30186775D01*
X4728746Y-30177251D01*
X4690651Y-30177251D01*
X4671604Y-30186775D01*
X4662080Y-30196298D01*
X4652556Y-30215346D01*
X4862080Y-30301060D02*
X4900175Y-30301060D01*
X4919223Y-30291537D01*
X4928746Y-30282013D01*
X4947794Y-30253441D01*
X4957318Y-30215346D01*
X4957318Y-30139156D01*
X4947794Y-30120108D01*
X4938270Y-30110584D01*
X4919223Y-30101060D01*
X4881127Y-30101060D01*
X4862080Y-30110584D01*
X4852556Y-30120108D01*
X4843032Y-30139156D01*
X4843032Y-30186775D01*
X4852556Y-30205822D01*
X4862080Y-30215346D01*
X4881127Y-30224870D01*
X4919223Y-30224870D01*
X4938270Y-30215346D01*
X4947794Y-30205822D01*
X4957318Y-30186775D01*
X5023985Y-30101060D02*
X5147794Y-30101060D01*
X5081127Y-30177251D01*
X5109699Y-30177251D01*
X5128746Y-30186775D01*
X5138270Y-30196298D01*
X5147794Y-30215346D01*
X5147794Y-30262965D01*
X5138270Y-30282013D01*
X5128746Y-30291537D01*
X5109699Y-30301060D01*
X5052556Y-30301060D01*
X5033508Y-30291537D01*
X5023985Y-30282013D01*
X5223985Y-30101060D02*
X5223985Y-30139156D01*
X5300175Y-30101060D02*
X5300175Y-30139156D01*
X5595413Y-30377251D02*
X5585889Y-30367727D01*
X5566842Y-30339156D01*
X5557318Y-30320108D01*
X5547794Y-30291537D01*
X5538270Y-30243918D01*
X5538270Y-30205822D01*
X5547794Y-30158203D01*
X5557318Y-30129632D01*
X5566842Y-30110584D01*
X5585889Y-30082013D01*
X5595413Y-30072489D01*
X5700175Y-30186775D02*
X5681127Y-30177251D01*
X5671604Y-30167727D01*
X5662080Y-30148679D01*
X5662080Y-30139156D01*
X5671604Y-30120108D01*
X5681127Y-30110584D01*
X5700175Y-30101060D01*
X5738270Y-30101060D01*
X5757318Y-30110584D01*
X5766842Y-30120108D01*
X5776365Y-30139156D01*
X5776365Y-30148679D01*
X5766842Y-30167727D01*
X5757318Y-30177251D01*
X5738270Y-30186775D01*
X5700175Y-30186775D01*
X5681127Y-30196298D01*
X5671604Y-30205822D01*
X5662080Y-30224870D01*
X5662080Y-30262965D01*
X5671604Y-30282013D01*
X5681127Y-30291537D01*
X5700175Y-30301060D01*
X5738270Y-30301060D01*
X5757318Y-30291537D01*
X5766842Y-30282013D01*
X5776365Y-30262965D01*
X5776365Y-30224870D01*
X5766842Y-30205822D01*
X5757318Y-30196298D01*
X5738270Y-30186775D01*
X6014461Y-30301060D02*
X6014461Y-30101060D01*
X6100175Y-30301060D02*
X6100175Y-30196298D01*
X6090651Y-30177251D01*
X6071604Y-30167727D01*
X6043032Y-30167727D01*
X6023984Y-30177251D01*
X6014461Y-30186775D01*
X6223984Y-30301060D02*
X6204937Y-30291537D01*
X6195413Y-30282013D01*
X6185889Y-30262965D01*
X6185889Y-30205822D01*
X6195413Y-30186775D01*
X6204937Y-30177251D01*
X6223984Y-30167727D01*
X6252556Y-30167727D01*
X6271604Y-30177251D01*
X6281127Y-30186775D01*
X6290651Y-30205822D01*
X6290651Y-30262965D01*
X6281127Y-30282013D01*
X6271604Y-30291537D01*
X6252556Y-30301060D01*
X6223984Y-30301060D01*
X6404937Y-30301060D02*
X6385889Y-30291537D01*
X6376365Y-30272489D01*
X6376365Y-30101060D01*
X6557318Y-30291537D02*
X6538270Y-30301060D01*
X6500175Y-30301060D01*
X6481127Y-30291537D01*
X6471604Y-30272489D01*
X6471604Y-30196298D01*
X6481127Y-30177251D01*
X6500175Y-30167727D01*
X6538270Y-30167727D01*
X6557318Y-30177251D01*
X6566842Y-30196298D01*
X6566842Y-30215346D01*
X6471604Y-30234394D01*
X6643032Y-30291537D02*
X6662080Y-30301060D01*
X6700175Y-30301060D01*
X6719223Y-30291537D01*
X6728746Y-30272489D01*
X6728746Y-30262965D01*
X6719223Y-30243918D01*
X6700175Y-30234394D01*
X6671604Y-30234394D01*
X6652556Y-30224870D01*
X6643032Y-30205822D01*
X6643032Y-30196298D01*
X6652556Y-30177251D01*
X6671604Y-30167727D01*
X6700175Y-30167727D01*
X6719223Y-30177251D01*
X6795413Y-30377251D02*
X6804937Y-30367727D01*
X6823984Y-30339156D01*
X6833508Y-30320108D01*
X6843032Y-30291537D01*
X6852556Y-30243918D01*
X6852556Y-30205822D01*
X6843032Y-30158203D01*
X6833508Y-30129632D01*
X6823984Y-30110584D01*
X6804937Y-30082013D01*
X6795413Y-30072489D01*
M02*
