%TF.GenerationSoftware,KiCad,Pcbnew,6.0.9-8da3e8f707~116~ubuntu20.04.1*%
%TF.CreationDate,2022-11-04T11:59:02+01:00*%
%TF.ProjectId,98keys-left,39386b65-7973-42d6-9c65-66742e6b6963,rev?*%
%TF.SameCoordinates,Original*%
%TF.FileFunction,Drillmap*%
%TF.FilePolarity,Positive*%
%FSLAX45Y45*%
G04 Gerber Fmt 4.5, Leading zero omitted, Abs format (unit mm)*
G04 Created by KiCad (PCBNEW 6.0.9-8da3e8f707~116~ubuntu20.04.1) date 2022-11-04 11:59:02*
%MOMM*%
%LPD*%
G01*
G04 APERTURE LIST*
%ADD10C,0.200000*%
%ADD11C,0.150000*%
%ADD12C,0.170000*%
%ADD13C,0.180000*%
%ADD14C,0.400000*%
G04 APERTURE END LIST*
D10*
X24559900Y-26942493D02*
X24558400Y-26981768D01*
X2087941Y-4607000D02*
X2107096Y-4572700D01*
X2306498Y-27388014D02*
X2272185Y-27368859D01*
X2208795Y-27322695D02*
X2179994Y-27296099D01*
X2129006Y-27236430D02*
X2107096Y-27203770D01*
X24464400Y-4540100D02*
X24486200Y-4572700D01*
X24384600Y-27322695D02*
X24353700Y-27347086D01*
X24321100Y-27368859D02*
X24286900Y-27388014D01*
X2057900Y-27096971D02*
X2047289Y-27059213D01*
X2071542Y-27133904D02*
X2057900Y-27096971D01*
X2208795Y-4453700D02*
X2239663Y-4429500D01*
X2129006Y-4540100D02*
X2153260Y-4509300D01*
X24521700Y-4642700D02*
X24535300Y-4679400D01*
X24099100Y-27441068D02*
X24059800Y-27442584D01*
X2378983Y-27418055D02*
X2342189Y-27404550D01*
X2035024Y-26981768D02*
X2033508Y-26942493D01*
X24138100Y-4340200D02*
X24176500Y-4347800D01*
X24176500Y-27428666D02*
X24138100Y-27436383D01*
X24286900Y-27388014D02*
X24251200Y-27404550D01*
X24321100Y-4407600D02*
X24353700Y-4429500D01*
X24251200Y-4372000D02*
X24286900Y-4388400D01*
X2039710Y-27020768D02*
X2035024Y-26981768D01*
X2239663Y-27347086D02*
X2208795Y-27322695D01*
X2153260Y-4509300D02*
X2179994Y-4480500D01*
X24440000Y-27267160D02*
X24413400Y-27296099D01*
X2533598Y-4334000D02*
X24059800Y-4334000D01*
X24521700Y-27133904D02*
X24505300Y-27169595D01*
X24440000Y-4509300D02*
X24464400Y-4540100D01*
X2455190Y-4340200D02*
X2494186Y-4335500D01*
X24138100Y-27436383D02*
X24099100Y-27441068D01*
X24559900Y-4834100D02*
X24559900Y-26942493D01*
X2153260Y-27267160D02*
X2129006Y-27236430D01*
X24486200Y-27203770D02*
X24464400Y-27236430D01*
X2107096Y-4572700D02*
X2129006Y-4540100D01*
X24353700Y-27347086D02*
X24321100Y-27368859D01*
X24558400Y-4794700D02*
X24559900Y-4834100D01*
X2378983Y-4358400D02*
X2416740Y-4347800D01*
X2035024Y-4794700D02*
X2039710Y-4755700D01*
X2057900Y-4679400D02*
X2071542Y-4642700D01*
X2087941Y-27169595D02*
X2071542Y-27133904D01*
X2033508Y-4834100D02*
X2035024Y-4794700D01*
X2179994Y-27296099D02*
X2153260Y-27267160D01*
X24099100Y-4335500D02*
X24138100Y-4340200D01*
X24251200Y-27404550D02*
X24214400Y-27418055D01*
X2416740Y-4347800D02*
X2455190Y-4340200D01*
X24413400Y-27296099D02*
X24384600Y-27322695D01*
X24546100Y-4717200D02*
X24553700Y-4755700D01*
X2494186Y-27441068D02*
X2455190Y-27436383D01*
X2179994Y-4480500D02*
X2208795Y-4453700D01*
X24353700Y-4429500D02*
X24384600Y-4453700D01*
X24505300Y-27169595D02*
X24486200Y-27203770D01*
X2039710Y-4755700D02*
X2047289Y-4717200D01*
X2033508Y-26942493D02*
X2033508Y-4834100D01*
X2071542Y-4642700D02*
X2087941Y-4607000D01*
X2494186Y-4335500D02*
X2533598Y-4334000D01*
X2047289Y-4717200D02*
X2057900Y-4679400D01*
X24286900Y-4388400D02*
X24321100Y-4407600D01*
X2047289Y-27059213D02*
X2039710Y-27020768D01*
X2107096Y-27203770D02*
X2087941Y-27169595D01*
X24535300Y-4679400D02*
X24546100Y-4717200D01*
X2306498Y-4388400D02*
X2342189Y-4372000D01*
X2239663Y-4429500D02*
X2272185Y-4407600D01*
X24553700Y-4755700D02*
X24558400Y-4794700D01*
X24214400Y-27418055D02*
X24176500Y-27428666D01*
X24214400Y-4358400D02*
X24251200Y-4372000D01*
X2455190Y-27436383D02*
X2416740Y-27428666D01*
X2272185Y-4407600D02*
X2306498Y-4388400D01*
X24535300Y-27096971D02*
X24521700Y-27133904D01*
X2272185Y-27368859D02*
X2239663Y-27347086D01*
X24413400Y-4480500D02*
X24440000Y-4509300D01*
X24464400Y-27236430D02*
X24440000Y-27267160D01*
X24176500Y-4347800D02*
X24214400Y-4358400D01*
X24486200Y-4572700D02*
X24505300Y-4607000D01*
X24059800Y-4334000D02*
X24099100Y-4335500D01*
X2533598Y-27442584D02*
X2494186Y-27441068D01*
X2416740Y-27428666D02*
X2378983Y-27418055D01*
X24558400Y-26981768D02*
X24553700Y-27020768D01*
X24546100Y-27059213D02*
X24535300Y-27096971D01*
X24059800Y-27442584D02*
X2533598Y-27442584D01*
X24505300Y-4607000D02*
X24521700Y-4642700D01*
X2342189Y-4372000D02*
X2378983Y-4358400D01*
X2342189Y-27404550D02*
X2306498Y-27388014D01*
X24553700Y-27020768D02*
X24546100Y-27059213D01*
X24384600Y-4453700D02*
X24413400Y-4480500D01*
D11*
X23322000Y-6782500D02*
X23472000Y-6932500D01*
X23472000Y-6782500D02*
X23322000Y-6932500D01*
X23322000Y-7267500D02*
X23472000Y-7417500D01*
X23472000Y-7267500D02*
X23322000Y-7417500D01*
D12*
X4497000Y-9628000D02*
G75*
G03*
X4497000Y-9628000I-85000J0D01*
G01*
X4517000Y-12708000D02*
G75*
G03*
X4517000Y-12708000I-85000J0D01*
G01*
X4517000Y-15088000D02*
G75*
G03*
X4517000Y-15088000I-85000J0D01*
G01*
X4517000Y-17468000D02*
G75*
G03*
X4517000Y-17468000I-85000J0D01*
G01*
X4517000Y-19848000D02*
G75*
G03*
X4517000Y-19848000I-85000J0D01*
G01*
X5017000Y-22228000D02*
G75*
G03*
X5017000Y-22228000I-85000J0D01*
G01*
X5513000Y-9628000D02*
G75*
G03*
X5513000Y-9628000I-85000J0D01*
G01*
X5533000Y-12708000D02*
G75*
G03*
X5533000Y-12708000I-85000J0D01*
G01*
X5533000Y-15088000D02*
G75*
G03*
X5533000Y-15088000I-85000J0D01*
G01*
X5533000Y-17468000D02*
G75*
G03*
X5533000Y-17468000I-85000J0D01*
G01*
X5533000Y-19848000D02*
G75*
G03*
X5533000Y-19848000I-85000J0D01*
G01*
X6033000Y-22228000D02*
G75*
G03*
X6033000Y-22228000I-85000J0D01*
G01*
X7357000Y-9608000D02*
G75*
G03*
X7357000Y-9608000I-85000J0D01*
G01*
X7377000Y-12708000D02*
G75*
G03*
X7377000Y-12708000I-85000J0D01*
G01*
X7377000Y-15088000D02*
G75*
G03*
X7377000Y-15088000I-85000J0D01*
G01*
X7377000Y-17468000D02*
G75*
G03*
X7377000Y-17468000I-85000J0D01*
G01*
X7377000Y-19848000D02*
G75*
G03*
X7377000Y-19848000I-85000J0D01*
G01*
X7377000Y-22228000D02*
G75*
G03*
X7377000Y-22228000I-85000J0D01*
G01*
X8373000Y-9608000D02*
G75*
G03*
X8373000Y-9608000I-85000J0D01*
G01*
X8393000Y-12708000D02*
G75*
G03*
X8393000Y-12708000I-85000J0D01*
G01*
X8393000Y-15088000D02*
G75*
G03*
X8393000Y-15088000I-85000J0D01*
G01*
X8393000Y-17468000D02*
G75*
G03*
X8393000Y-17468000I-85000J0D01*
G01*
X8393000Y-19848000D02*
G75*
G03*
X8393000Y-19848000I-85000J0D01*
G01*
X8393000Y-22228000D02*
G75*
G03*
X8393000Y-22228000I-85000J0D01*
G01*
X9757000Y-12228000D02*
G75*
G03*
X9757000Y-12228000I-85000J0D01*
G01*
X9757000Y-14608000D02*
G75*
G03*
X9757000Y-14608000I-85000J0D01*
G01*
X9757000Y-16988000D02*
G75*
G03*
X9757000Y-16988000I-85000J0D01*
G01*
X9757000Y-19368000D02*
G75*
G03*
X9757000Y-19368000I-85000J0D01*
G01*
X9757000Y-21748000D02*
G75*
G03*
X9757000Y-21748000I-85000J0D01*
G01*
X10217000Y-9608000D02*
G75*
G03*
X10217000Y-9608000I-85000J0D01*
G01*
X10773000Y-12228000D02*
G75*
G03*
X10773000Y-12228000I-85000J0D01*
G01*
X10773000Y-14608000D02*
G75*
G03*
X10773000Y-14608000I-85000J0D01*
G01*
X10773000Y-16988000D02*
G75*
G03*
X10773000Y-16988000I-85000J0D01*
G01*
X10773000Y-19368000D02*
G75*
G03*
X10773000Y-19368000I-85000J0D01*
G01*
X10773000Y-21748000D02*
G75*
G03*
X10773000Y-21748000I-85000J0D01*
G01*
X11233000Y-9608000D02*
G75*
G03*
X11233000Y-9608000I-85000J0D01*
G01*
X12137000Y-11988000D02*
G75*
G03*
X12137000Y-11988000I-85000J0D01*
G01*
X12137000Y-14368000D02*
G75*
G03*
X12137000Y-14368000I-85000J0D01*
G01*
X12137000Y-16748000D02*
G75*
G03*
X12137000Y-16748000I-85000J0D01*
G01*
X12137000Y-19128000D02*
G75*
G03*
X12137000Y-19128000I-85000J0D01*
G01*
X12137000Y-21508000D02*
G75*
G03*
X12137000Y-21508000I-85000J0D01*
G01*
X13077000Y-9608000D02*
G75*
G03*
X13077000Y-9608000I-85000J0D01*
G01*
X13153000Y-11988000D02*
G75*
G03*
X13153000Y-11988000I-85000J0D01*
G01*
X13153000Y-14368000D02*
G75*
G03*
X13153000Y-14368000I-85000J0D01*
G01*
X13153000Y-16748000D02*
G75*
G03*
X13153000Y-16748000I-85000J0D01*
G01*
X13153000Y-19128000D02*
G75*
G03*
X13153000Y-19128000I-85000J0D01*
G01*
X13153000Y-21508000D02*
G75*
G03*
X13153000Y-21508000I-85000J0D01*
G01*
X14093000Y-9608000D02*
G75*
G03*
X14093000Y-9608000I-85000J0D01*
G01*
X14517000Y-12248000D02*
G75*
G03*
X14517000Y-12248000I-85000J0D01*
G01*
X14517000Y-14608000D02*
G75*
G03*
X14517000Y-14608000I-85000J0D01*
G01*
X14517000Y-16988000D02*
G75*
G03*
X14517000Y-16988000I-85000J0D01*
G01*
X14517000Y-21748000D02*
G75*
G03*
X14517000Y-21748000I-85000J0D01*
G01*
X14537000Y-19368000D02*
G75*
G03*
X14537000Y-19368000I-85000J0D01*
G01*
X15533000Y-12248000D02*
G75*
G03*
X15533000Y-12248000I-85000J0D01*
G01*
X15533000Y-14608000D02*
G75*
G03*
X15533000Y-14608000I-85000J0D01*
G01*
X15533000Y-16988000D02*
G75*
G03*
X15533000Y-16988000I-85000J0D01*
G01*
X15533000Y-21748000D02*
G75*
G03*
X15533000Y-21748000I-85000J0D01*
G01*
X15553000Y-19368000D02*
G75*
G03*
X15553000Y-19368000I-85000J0D01*
G01*
X15937000Y-9608000D02*
G75*
G03*
X15937000Y-9608000I-85000J0D01*
G01*
X16897000Y-12468000D02*
G75*
G03*
X16897000Y-12468000I-85000J0D01*
G01*
X16897000Y-14848000D02*
G75*
G03*
X16897000Y-14848000I-85000J0D01*
G01*
X16897000Y-17228000D02*
G75*
G03*
X16897000Y-17228000I-85000J0D01*
G01*
X16897000Y-19588000D02*
G75*
G03*
X16897000Y-19588000I-85000J0D01*
G01*
X16953000Y-9608000D02*
G75*
G03*
X16953000Y-9608000I-85000J0D01*
G01*
X17905089Y-23184041D02*
G75*
G03*
X17905089Y-23184041I-85000J0D01*
G01*
X17913000Y-12468000D02*
G75*
G03*
X17913000Y-12468000I-85000J0D01*
G01*
X17913000Y-14848000D02*
G75*
G03*
X17913000Y-14848000I-85000J0D01*
G01*
X17913000Y-17228000D02*
G75*
G03*
X17913000Y-17228000I-85000J0D01*
G01*
X17913000Y-19588000D02*
G75*
G03*
X17913000Y-19588000I-85000J0D01*
G01*
X18784971Y-23692041D02*
G75*
G03*
X18784971Y-23692041I-85000J0D01*
G01*
X18797000Y-9608000D02*
G75*
G03*
X18797000Y-9608000I-85000J0D01*
G01*
X19277000Y-12468000D02*
G75*
G03*
X19277000Y-12468000I-85000J0D01*
G01*
X19277000Y-14828000D02*
G75*
G03*
X19277000Y-14828000I-85000J0D01*
G01*
X19277000Y-17228000D02*
G75*
G03*
X19277000Y-17228000I-85000J0D01*
G01*
X19277000Y-19608000D02*
G75*
G03*
X19277000Y-19608000I-85000J0D01*
G01*
X19813000Y-9608000D02*
G75*
G03*
X19813000Y-9608000I-85000J0D01*
G01*
X19975089Y-24374041D02*
G75*
G03*
X19975089Y-24374041I-85000J0D01*
G01*
X20293000Y-12468000D02*
G75*
G03*
X20293000Y-12468000I-85000J0D01*
G01*
X20293000Y-14828000D02*
G75*
G03*
X20293000Y-14828000I-85000J0D01*
G01*
X20293000Y-17228000D02*
G75*
G03*
X20293000Y-17228000I-85000J0D01*
G01*
X20293000Y-19608000D02*
G75*
G03*
X20293000Y-19608000I-85000J0D01*
G01*
X20854971Y-24882041D02*
G75*
G03*
X20854971Y-24882041I-85000J0D01*
G01*
X21155089Y-22314041D02*
G75*
G03*
X21155089Y-22314041I-85000J0D01*
G01*
X21637000Y-9608000D02*
G75*
G03*
X21637000Y-9608000I-85000J0D01*
G01*
X21657000Y-12448000D02*
G75*
G03*
X21657000Y-12448000I-85000J0D01*
G01*
X22034971Y-22822041D02*
G75*
G03*
X22034971Y-22822041I-85000J0D01*
G01*
X22035089Y-25554041D02*
G75*
G03*
X22035089Y-25554041I-85000J0D01*
G01*
X22165000Y-15280000D02*
G75*
G03*
X22165000Y-15280000I-85000J0D01*
G01*
X22165000Y-16296000D02*
G75*
G03*
X22165000Y-16296000I-85000J0D01*
G01*
X22165000Y-18620000D02*
G75*
G03*
X22165000Y-18620000I-85000J0D01*
G01*
X22165000Y-19636000D02*
G75*
G03*
X22165000Y-19636000I-85000J0D01*
G01*
X22653000Y-9608000D02*
G75*
G03*
X22653000Y-9608000I-85000J0D01*
G01*
X22673000Y-12448000D02*
G75*
G03*
X22673000Y-12448000I-85000J0D01*
G01*
X22914970Y-26062041D02*
G75*
G03*
X22914970Y-26062041I-85000J0D01*
G01*
D13*
X23700000Y-6737500D02*
X23700000Y-6917500D01*
X23610000Y-6827500D02*
X23790000Y-6827500D01*
X23700000Y-7282500D02*
X23700000Y-7462500D01*
X23610000Y-7372500D02*
X23790000Y-7372500D01*
D14*
X5061423Y-9769423D02*
X5061423Y-9486577D01*
X4778577Y-9486577D01*
X4778577Y-9769423D01*
X5061423Y-9769423D01*
X5081423Y-12849423D02*
X5081423Y-12566577D01*
X4798577Y-12566577D01*
X4798577Y-12849423D01*
X5081423Y-12849423D01*
X5081423Y-15229423D02*
X5081423Y-14946577D01*
X4798577Y-14946577D01*
X4798577Y-15229423D01*
X5081423Y-15229423D01*
X5081423Y-17609423D02*
X5081423Y-17326577D01*
X4798577Y-17326577D01*
X4798577Y-17609423D01*
X5081423Y-17609423D01*
X5081423Y-19989423D02*
X5081423Y-19706577D01*
X4798577Y-19706577D01*
X4798577Y-19989423D01*
X5081423Y-19989423D01*
X5581423Y-22369423D02*
X5581423Y-22086577D01*
X5298577Y-22086577D01*
X5298577Y-22369423D01*
X5581423Y-22369423D01*
X7921423Y-9749423D02*
X7921423Y-9466577D01*
X7638577Y-9466577D01*
X7638577Y-9749423D01*
X7921423Y-9749423D01*
X7941423Y-12849423D02*
X7941423Y-12566577D01*
X7658577Y-12566577D01*
X7658577Y-12849423D01*
X7941423Y-12849423D01*
X7941423Y-15229423D02*
X7941423Y-14946577D01*
X7658577Y-14946577D01*
X7658577Y-15229423D01*
X7941423Y-15229423D01*
X7941423Y-17609423D02*
X7941423Y-17326577D01*
X7658577Y-17326577D01*
X7658577Y-17609423D01*
X7941423Y-17609423D01*
X7941423Y-19989423D02*
X7941423Y-19706577D01*
X7658577Y-19706577D01*
X7658577Y-19989423D01*
X7941423Y-19989423D01*
X7941423Y-22369423D02*
X7941423Y-22086577D01*
X7658577Y-22086577D01*
X7658577Y-22369423D01*
X7941423Y-22369423D01*
X10321423Y-12369423D02*
X10321423Y-12086577D01*
X10038577Y-12086577D01*
X10038577Y-12369423D01*
X10321423Y-12369423D01*
X10321423Y-14749423D02*
X10321423Y-14466577D01*
X10038577Y-14466577D01*
X10038577Y-14749423D01*
X10321423Y-14749423D01*
X10321423Y-17129423D02*
X10321423Y-16846577D01*
X10038577Y-16846577D01*
X10038577Y-17129423D01*
X10321423Y-17129423D01*
X10321423Y-19509423D02*
X10321423Y-19226577D01*
X10038577Y-19226577D01*
X10038577Y-19509423D01*
X10321423Y-19509423D01*
X10321423Y-21889423D02*
X10321423Y-21606577D01*
X10038577Y-21606577D01*
X10038577Y-21889423D01*
X10321423Y-21889423D01*
X10781423Y-9749423D02*
X10781423Y-9466577D01*
X10498577Y-9466577D01*
X10498577Y-9749423D01*
X10781423Y-9749423D01*
X12701423Y-12129423D02*
X12701423Y-11846577D01*
X12418577Y-11846577D01*
X12418577Y-12129423D01*
X12701423Y-12129423D01*
X12701423Y-14509423D02*
X12701423Y-14226577D01*
X12418577Y-14226577D01*
X12418577Y-14509423D01*
X12701423Y-14509423D01*
X12701423Y-16889423D02*
X12701423Y-16606577D01*
X12418577Y-16606577D01*
X12418577Y-16889423D01*
X12701423Y-16889423D01*
X12701423Y-19269423D02*
X12701423Y-18986577D01*
X12418577Y-18986577D01*
X12418577Y-19269423D01*
X12701423Y-19269423D01*
X12701423Y-21649423D02*
X12701423Y-21366577D01*
X12418577Y-21366577D01*
X12418577Y-21649423D01*
X12701423Y-21649423D01*
X13641423Y-9749423D02*
X13641423Y-9466577D01*
X13358577Y-9466577D01*
X13358577Y-9749423D01*
X13641423Y-9749423D01*
X15081423Y-12389423D02*
X15081423Y-12106577D01*
X14798577Y-12106577D01*
X14798577Y-12389423D01*
X15081423Y-12389423D01*
X15081423Y-14749423D02*
X15081423Y-14466577D01*
X14798577Y-14466577D01*
X14798577Y-14749423D01*
X15081423Y-14749423D01*
X15081423Y-17129423D02*
X15081423Y-16846577D01*
X14798577Y-16846577D01*
X14798577Y-17129423D01*
X15081423Y-17129423D01*
X15081423Y-21889423D02*
X15081423Y-21606577D01*
X14798577Y-21606577D01*
X14798577Y-21889423D01*
X15081423Y-21889423D01*
X15101423Y-19509423D02*
X15101423Y-19226577D01*
X14818577Y-19226577D01*
X14818577Y-19509423D01*
X15101423Y-19509423D01*
X16501423Y-9749423D02*
X16501423Y-9466577D01*
X16218577Y-9466577D01*
X16218577Y-9749423D01*
X16501423Y-9749423D01*
X17461423Y-12609423D02*
X17461423Y-12326577D01*
X17178577Y-12326577D01*
X17178577Y-12609423D01*
X17461423Y-12609423D01*
X17461423Y-14989423D02*
X17461423Y-14706577D01*
X17178577Y-14706577D01*
X17178577Y-14989423D01*
X17461423Y-14989423D01*
X17461423Y-17369423D02*
X17461423Y-17086577D01*
X17178577Y-17086577D01*
X17178577Y-17369423D01*
X17461423Y-17369423D01*
X17461423Y-19729423D02*
X17461423Y-19446577D01*
X17178577Y-19446577D01*
X17178577Y-19729423D01*
X17461423Y-19729423D01*
X18401452Y-23579464D02*
X18401452Y-23296618D01*
X18118607Y-23296618D01*
X18118607Y-23579464D01*
X18401452Y-23579464D01*
X19361423Y-9749423D02*
X19361423Y-9466577D01*
X19078577Y-9466577D01*
X19078577Y-9749423D01*
X19361423Y-9749423D01*
X19841423Y-12609423D02*
X19841423Y-12326577D01*
X19558577Y-12326577D01*
X19558577Y-12609423D01*
X19841423Y-12609423D01*
X19841423Y-14969423D02*
X19841423Y-14686577D01*
X19558577Y-14686577D01*
X19558577Y-14969423D01*
X19841423Y-14969423D01*
X19841423Y-17369423D02*
X19841423Y-17086577D01*
X19558577Y-17086577D01*
X19558577Y-17369423D01*
X19841423Y-17369423D01*
X19841423Y-19749423D02*
X19841423Y-19466577D01*
X19558577Y-19466577D01*
X19558577Y-19749423D01*
X19841423Y-19749423D01*
X20471452Y-24769464D02*
X20471452Y-24486618D01*
X20188607Y-24486618D01*
X20188607Y-24769464D01*
X20471452Y-24769464D01*
X21651452Y-22709464D02*
X21651452Y-22426618D01*
X21368607Y-22426618D01*
X21368607Y-22709464D01*
X21651452Y-22709464D01*
X22201423Y-9749423D02*
X22201423Y-9466577D01*
X21918577Y-9466577D01*
X21918577Y-9749423D01*
X22201423Y-9749423D01*
X22221423Y-12589423D02*
X22221423Y-12306577D01*
X21938577Y-12306577D01*
X21938577Y-12589423D01*
X22221423Y-12589423D01*
X22221423Y-15929423D02*
X22221423Y-15646577D01*
X21938577Y-15646577D01*
X21938577Y-15929423D01*
X22221423Y-15929423D01*
X22221423Y-19269423D02*
X22221423Y-18986577D01*
X21938577Y-18986577D01*
X21938577Y-19269423D01*
X22221423Y-19269423D01*
X22531452Y-25949464D02*
X22531452Y-25666618D01*
X22248607Y-25666618D01*
X22248607Y-25949464D01*
X22531452Y-25949464D01*
D10*
X2281127Y-27763060D02*
X2281127Y-27563060D01*
X2328746Y-27563060D01*
X2357318Y-27572584D01*
X2376366Y-27591632D01*
X2385889Y-27610679D01*
X2395413Y-27648775D01*
X2395413Y-27677346D01*
X2385889Y-27715441D01*
X2376366Y-27734489D01*
X2357318Y-27753537D01*
X2328746Y-27763060D01*
X2281127Y-27763060D01*
X2481127Y-27763060D02*
X2481127Y-27629727D01*
X2481127Y-27667822D02*
X2490651Y-27648775D01*
X2500175Y-27639251D01*
X2519223Y-27629727D01*
X2538270Y-27629727D01*
X2604937Y-27763060D02*
X2604937Y-27629727D01*
X2604937Y-27563060D02*
X2595413Y-27572584D01*
X2604937Y-27582108D01*
X2614461Y-27572584D01*
X2604937Y-27563060D01*
X2604937Y-27582108D01*
X2728746Y-27763060D02*
X2709699Y-27753537D01*
X2700175Y-27734489D01*
X2700175Y-27563060D01*
X2833508Y-27763060D02*
X2814461Y-27753537D01*
X2804937Y-27734489D01*
X2804937Y-27563060D01*
X3062080Y-27763060D02*
X3062080Y-27563060D01*
X3128746Y-27705918D01*
X3195413Y-27563060D01*
X3195413Y-27763060D01*
X3376365Y-27763060D02*
X3376365Y-27658298D01*
X3366842Y-27639251D01*
X3347794Y-27629727D01*
X3309699Y-27629727D01*
X3290651Y-27639251D01*
X3376365Y-27753537D02*
X3357318Y-27763060D01*
X3309699Y-27763060D01*
X3290651Y-27753537D01*
X3281127Y-27734489D01*
X3281127Y-27715441D01*
X3290651Y-27696394D01*
X3309699Y-27686870D01*
X3357318Y-27686870D01*
X3376365Y-27677346D01*
X3471604Y-27629727D02*
X3471604Y-27829727D01*
X3471604Y-27639251D02*
X3490651Y-27629727D01*
X3528746Y-27629727D01*
X3547794Y-27639251D01*
X3557318Y-27648775D01*
X3566842Y-27667822D01*
X3566842Y-27724965D01*
X3557318Y-27744013D01*
X3547794Y-27753537D01*
X3528746Y-27763060D01*
X3490651Y-27763060D01*
X3471604Y-27753537D01*
X3652556Y-27744013D02*
X3662080Y-27753537D01*
X3652556Y-27763060D01*
X3643032Y-27753537D01*
X3652556Y-27744013D01*
X3652556Y-27763060D01*
X3652556Y-27639251D02*
X3662080Y-27648775D01*
X3652556Y-27658298D01*
X3643032Y-27648775D01*
X3652556Y-27639251D01*
X3652556Y-27658298D01*
D11*
X1873508Y-28017584D02*
X2023508Y-28167584D01*
X2023508Y-28017584D02*
X1873508Y-28167584D01*
D10*
X2385889Y-28183060D02*
X2271604Y-28183060D01*
X2328746Y-28183060D02*
X2328746Y-27983060D01*
X2309699Y-28011632D01*
X2290651Y-28030679D01*
X2271604Y-28040203D01*
X2471604Y-28164013D02*
X2481127Y-28173537D01*
X2471604Y-28183060D01*
X2462080Y-28173537D01*
X2471604Y-28164013D01*
X2471604Y-28183060D01*
X2662080Y-27983060D02*
X2566842Y-27983060D01*
X2557318Y-28078298D01*
X2566842Y-28068775D01*
X2585889Y-28059251D01*
X2633508Y-28059251D01*
X2652556Y-28068775D01*
X2662080Y-28078298D01*
X2671604Y-28097346D01*
X2671604Y-28144965D01*
X2662080Y-28164013D01*
X2652556Y-28173537D01*
X2633508Y-28183060D01*
X2585889Y-28183060D01*
X2566842Y-28173537D01*
X2557318Y-28164013D01*
X2795413Y-27983060D02*
X2814461Y-27983060D01*
X2833508Y-27992584D01*
X2843032Y-28002108D01*
X2852556Y-28021156D01*
X2862080Y-28059251D01*
X2862080Y-28106870D01*
X2852556Y-28144965D01*
X2843032Y-28164013D01*
X2833508Y-28173537D01*
X2814461Y-28183060D01*
X2795413Y-28183060D01*
X2776366Y-28173537D01*
X2766842Y-28164013D01*
X2757318Y-28144965D01*
X2747794Y-28106870D01*
X2747794Y-28059251D01*
X2757318Y-28021156D01*
X2766842Y-28002108D01*
X2776366Y-27992584D01*
X2795413Y-27983060D01*
X2985889Y-27983060D02*
X3004937Y-27983060D01*
X3023984Y-27992584D01*
X3033508Y-28002108D01*
X3043032Y-28021156D01*
X3052556Y-28059251D01*
X3052556Y-28106870D01*
X3043032Y-28144965D01*
X3033508Y-28164013D01*
X3023984Y-28173537D01*
X3004937Y-28183060D01*
X2985889Y-28183060D01*
X2966842Y-28173537D01*
X2957318Y-28164013D01*
X2947794Y-28144965D01*
X2938270Y-28106870D01*
X2938270Y-28059251D01*
X2947794Y-28021156D01*
X2957318Y-28002108D01*
X2966842Y-27992584D01*
X2985889Y-27983060D01*
X3138270Y-28183060D02*
X3138270Y-28049727D01*
X3138270Y-28068775D02*
X3147794Y-28059251D01*
X3166842Y-28049727D01*
X3195413Y-28049727D01*
X3214461Y-28059251D01*
X3223984Y-28078298D01*
X3223984Y-28183060D01*
X3223984Y-28078298D02*
X3233508Y-28059251D01*
X3252556Y-28049727D01*
X3281127Y-28049727D01*
X3300175Y-28059251D01*
X3309699Y-28078298D01*
X3309699Y-28183060D01*
X3404937Y-28183060D02*
X3404937Y-28049727D01*
X3404937Y-28068775D02*
X3414461Y-28059251D01*
X3433508Y-28049727D01*
X3462080Y-28049727D01*
X3481127Y-28059251D01*
X3490651Y-28078298D01*
X3490651Y-28183060D01*
X3490651Y-28078298D02*
X3500175Y-28059251D01*
X3519223Y-28049727D01*
X3547794Y-28049727D01*
X3566842Y-28059251D01*
X3576365Y-28078298D01*
X3576365Y-28183060D01*
X3966842Y-27973537D02*
X3795413Y-28230679D01*
X4223985Y-27983060D02*
X4243032Y-27983060D01*
X4262080Y-27992584D01*
X4271604Y-28002108D01*
X4281127Y-28021156D01*
X4290651Y-28059251D01*
X4290651Y-28106870D01*
X4281127Y-28144965D01*
X4271604Y-28164013D01*
X4262080Y-28173537D01*
X4243032Y-28183060D01*
X4223985Y-28183060D01*
X4204937Y-28173537D01*
X4195413Y-28164013D01*
X4185889Y-28144965D01*
X4176365Y-28106870D01*
X4176365Y-28059251D01*
X4185889Y-28021156D01*
X4195413Y-28002108D01*
X4204937Y-27992584D01*
X4223985Y-27983060D01*
X4376366Y-28164013D02*
X4385889Y-28173537D01*
X4376366Y-28183060D01*
X4366842Y-28173537D01*
X4376366Y-28164013D01*
X4376366Y-28183060D01*
X4509699Y-27983060D02*
X4528746Y-27983060D01*
X4547794Y-27992584D01*
X4557318Y-28002108D01*
X4566842Y-28021156D01*
X4576366Y-28059251D01*
X4576366Y-28106870D01*
X4566842Y-28144965D01*
X4557318Y-28164013D01*
X4547794Y-28173537D01*
X4528746Y-28183060D01*
X4509699Y-28183060D01*
X4490651Y-28173537D01*
X4481127Y-28164013D01*
X4471604Y-28144965D01*
X4462080Y-28106870D01*
X4462080Y-28059251D01*
X4471604Y-28021156D01*
X4481127Y-28002108D01*
X4490651Y-27992584D01*
X4509699Y-27983060D01*
X4757318Y-27983060D02*
X4662080Y-27983060D01*
X4652556Y-28078298D01*
X4662080Y-28068775D01*
X4681127Y-28059251D01*
X4728746Y-28059251D01*
X4747794Y-28068775D01*
X4757318Y-28078298D01*
X4766842Y-28097346D01*
X4766842Y-28144965D01*
X4757318Y-28164013D01*
X4747794Y-28173537D01*
X4728746Y-28183060D01*
X4681127Y-28183060D01*
X4662080Y-28173537D01*
X4652556Y-28164013D01*
X4862080Y-28183060D02*
X4900175Y-28183060D01*
X4919223Y-28173537D01*
X4928746Y-28164013D01*
X4947794Y-28135441D01*
X4957318Y-28097346D01*
X4957318Y-28021156D01*
X4947794Y-28002108D01*
X4938270Y-27992584D01*
X4919223Y-27983060D01*
X4881127Y-27983060D01*
X4862080Y-27992584D01*
X4852556Y-28002108D01*
X4843032Y-28021156D01*
X4843032Y-28068775D01*
X4852556Y-28087822D01*
X4862080Y-28097346D01*
X4881127Y-28106870D01*
X4919223Y-28106870D01*
X4938270Y-28097346D01*
X4947794Y-28087822D01*
X4957318Y-28068775D01*
X5147794Y-28183060D02*
X5033508Y-28183060D01*
X5090651Y-28183060D02*
X5090651Y-27983060D01*
X5071604Y-28011632D01*
X5052556Y-28030679D01*
X5033508Y-28040203D01*
X5223985Y-27983060D02*
X5223985Y-28021156D01*
X5300175Y-27983060D02*
X5300175Y-28021156D01*
X5595413Y-28259251D02*
X5585889Y-28249727D01*
X5566842Y-28221156D01*
X5557318Y-28202108D01*
X5547794Y-28173537D01*
X5538270Y-28125918D01*
X5538270Y-28087822D01*
X5547794Y-28040203D01*
X5557318Y-28011632D01*
X5566842Y-27992584D01*
X5585889Y-27964013D01*
X5595413Y-27954489D01*
X5662080Y-28002108D02*
X5671604Y-27992584D01*
X5690651Y-27983060D01*
X5738270Y-27983060D01*
X5757318Y-27992584D01*
X5766842Y-28002108D01*
X5776365Y-28021156D01*
X5776365Y-28040203D01*
X5766842Y-28068775D01*
X5652556Y-28183060D01*
X5776365Y-28183060D01*
X6014461Y-28183060D02*
X6014461Y-27983060D01*
X6100175Y-28183060D02*
X6100175Y-28078298D01*
X6090651Y-28059251D01*
X6071604Y-28049727D01*
X6043032Y-28049727D01*
X6023984Y-28059251D01*
X6014461Y-28068775D01*
X6223984Y-28183060D02*
X6204937Y-28173537D01*
X6195413Y-28164013D01*
X6185889Y-28144965D01*
X6185889Y-28087822D01*
X6195413Y-28068775D01*
X6204937Y-28059251D01*
X6223984Y-28049727D01*
X6252556Y-28049727D01*
X6271604Y-28059251D01*
X6281127Y-28068775D01*
X6290651Y-28087822D01*
X6290651Y-28144965D01*
X6281127Y-28164013D01*
X6271604Y-28173537D01*
X6252556Y-28183060D01*
X6223984Y-28183060D01*
X6404937Y-28183060D02*
X6385889Y-28173537D01*
X6376365Y-28154489D01*
X6376365Y-27983060D01*
X6557318Y-28173537D02*
X6538270Y-28183060D01*
X6500175Y-28183060D01*
X6481127Y-28173537D01*
X6471604Y-28154489D01*
X6471604Y-28078298D01*
X6481127Y-28059251D01*
X6500175Y-28049727D01*
X6538270Y-28049727D01*
X6557318Y-28059251D01*
X6566842Y-28078298D01*
X6566842Y-28097346D01*
X6471604Y-28116394D01*
X6643032Y-28173537D02*
X6662080Y-28183060D01*
X6700175Y-28183060D01*
X6719223Y-28173537D01*
X6728746Y-28154489D01*
X6728746Y-28144965D01*
X6719223Y-28125918D01*
X6700175Y-28116394D01*
X6671604Y-28116394D01*
X6652556Y-28106870D01*
X6643032Y-28087822D01*
X6643032Y-28078298D01*
X6652556Y-28059251D01*
X6671604Y-28049727D01*
X6700175Y-28049727D01*
X6719223Y-28059251D01*
X6795413Y-28259251D02*
X6804937Y-28249727D01*
X6823984Y-28221156D01*
X6833508Y-28202108D01*
X6843032Y-28173537D01*
X6852556Y-28125918D01*
X6852556Y-28087822D01*
X6843032Y-28040203D01*
X6833508Y-28011632D01*
X6823984Y-27992584D01*
X6804937Y-27964013D01*
X6795413Y-27954489D01*
X7157318Y-28259251D02*
X7147794Y-28249727D01*
X7128746Y-28221156D01*
X7119223Y-28202108D01*
X7109699Y-28173537D01*
X7100175Y-28125918D01*
X7100175Y-28087822D01*
X7109699Y-28040203D01*
X7119223Y-28011632D01*
X7128746Y-27992584D01*
X7147794Y-27964013D01*
X7157318Y-27954489D01*
X7233508Y-28049727D02*
X7233508Y-28183060D01*
X7233508Y-28068775D02*
X7243032Y-28059251D01*
X7262080Y-28049727D01*
X7290651Y-28049727D01*
X7309699Y-28059251D01*
X7319223Y-28078298D01*
X7319223Y-28183060D01*
X7443032Y-28183060D02*
X7423984Y-28173537D01*
X7414461Y-28164013D01*
X7404937Y-28144965D01*
X7404937Y-28087822D01*
X7414461Y-28068775D01*
X7423984Y-28059251D01*
X7443032Y-28049727D01*
X7471604Y-28049727D01*
X7490651Y-28059251D01*
X7500175Y-28068775D01*
X7509699Y-28087822D01*
X7509699Y-28144965D01*
X7500175Y-28164013D01*
X7490651Y-28173537D01*
X7471604Y-28183060D01*
X7443032Y-28183060D01*
X7566842Y-28049727D02*
X7643032Y-28049727D01*
X7595413Y-27983060D02*
X7595413Y-28154489D01*
X7604937Y-28173537D01*
X7623984Y-28183060D01*
X7643032Y-28183060D01*
X7862080Y-28049727D02*
X7862080Y-28249727D01*
X7862080Y-28059251D02*
X7881127Y-28049727D01*
X7919223Y-28049727D01*
X7938270Y-28059251D01*
X7947794Y-28068775D01*
X7957318Y-28087822D01*
X7957318Y-28144965D01*
X7947794Y-28164013D01*
X7938270Y-28173537D01*
X7919223Y-28183060D01*
X7881127Y-28183060D01*
X7862080Y-28173537D01*
X8071604Y-28183060D02*
X8052556Y-28173537D01*
X8043032Y-28154489D01*
X8043032Y-27983060D01*
X8233508Y-28183060D02*
X8233508Y-28078298D01*
X8223984Y-28059251D01*
X8204937Y-28049727D01*
X8166842Y-28049727D01*
X8147794Y-28059251D01*
X8233508Y-28173537D02*
X8214461Y-28183060D01*
X8166842Y-28183060D01*
X8147794Y-28173537D01*
X8138270Y-28154489D01*
X8138270Y-28135441D01*
X8147794Y-28116394D01*
X8166842Y-28106870D01*
X8214461Y-28106870D01*
X8233508Y-28097346D01*
X8300175Y-28049727D02*
X8376365Y-28049727D01*
X8328746Y-27983060D02*
X8328746Y-28154489D01*
X8338270Y-28173537D01*
X8357318Y-28183060D01*
X8376365Y-28183060D01*
X8519223Y-28173537D02*
X8500175Y-28183060D01*
X8462080Y-28183060D01*
X8443032Y-28173537D01*
X8433508Y-28154489D01*
X8433508Y-28078298D01*
X8443032Y-28059251D01*
X8462080Y-28049727D01*
X8500175Y-28049727D01*
X8519223Y-28059251D01*
X8528746Y-28078298D01*
X8528746Y-28097346D01*
X8433508Y-28116394D01*
X8700175Y-28183060D02*
X8700175Y-27983060D01*
X8700175Y-28173537D02*
X8681127Y-28183060D01*
X8643032Y-28183060D01*
X8623985Y-28173537D01*
X8614461Y-28164013D01*
X8604937Y-28144965D01*
X8604937Y-28087822D01*
X8614461Y-28068775D01*
X8623985Y-28059251D01*
X8643032Y-28049727D01*
X8681127Y-28049727D01*
X8700175Y-28059251D01*
X8776366Y-28259251D02*
X8785889Y-28249727D01*
X8804937Y-28221156D01*
X8814461Y-28202108D01*
X8823985Y-28173537D01*
X8833508Y-28125918D01*
X8833508Y-28087822D01*
X8823985Y-28040203D01*
X8814461Y-28011632D01*
X8804937Y-27992584D01*
X8785889Y-27964013D01*
X8776366Y-27954489D01*
D12*
X2023508Y-28362584D02*
G75*
G03*
X2023508Y-28362584I-85000J0D01*
G01*
D10*
X2385889Y-28453060D02*
X2271604Y-28453060D01*
X2328746Y-28453060D02*
X2328746Y-28253060D01*
X2309699Y-28281632D01*
X2290651Y-28300679D01*
X2271604Y-28310203D01*
X2471604Y-28434013D02*
X2481127Y-28443537D01*
X2471604Y-28453060D01*
X2462080Y-28443537D01*
X2471604Y-28434013D01*
X2471604Y-28453060D01*
X2547794Y-28253060D02*
X2681127Y-28253060D01*
X2595413Y-28453060D01*
X2795413Y-28253060D02*
X2814461Y-28253060D01*
X2833508Y-28262584D01*
X2843032Y-28272108D01*
X2852556Y-28291156D01*
X2862080Y-28329251D01*
X2862080Y-28376870D01*
X2852556Y-28414965D01*
X2843032Y-28434013D01*
X2833508Y-28443537D01*
X2814461Y-28453060D01*
X2795413Y-28453060D01*
X2776366Y-28443537D01*
X2766842Y-28434013D01*
X2757318Y-28414965D01*
X2747794Y-28376870D01*
X2747794Y-28329251D01*
X2757318Y-28291156D01*
X2766842Y-28272108D01*
X2776366Y-28262584D01*
X2795413Y-28253060D01*
X2985889Y-28253060D02*
X3004937Y-28253060D01*
X3023984Y-28262584D01*
X3033508Y-28272108D01*
X3043032Y-28291156D01*
X3052556Y-28329251D01*
X3052556Y-28376870D01*
X3043032Y-28414965D01*
X3033508Y-28434013D01*
X3023984Y-28443537D01*
X3004937Y-28453060D01*
X2985889Y-28453060D01*
X2966842Y-28443537D01*
X2957318Y-28434013D01*
X2947794Y-28414965D01*
X2938270Y-28376870D01*
X2938270Y-28329251D01*
X2947794Y-28291156D01*
X2957318Y-28272108D01*
X2966842Y-28262584D01*
X2985889Y-28253060D01*
X3138270Y-28453060D02*
X3138270Y-28319727D01*
X3138270Y-28338775D02*
X3147794Y-28329251D01*
X3166842Y-28319727D01*
X3195413Y-28319727D01*
X3214461Y-28329251D01*
X3223984Y-28348298D01*
X3223984Y-28453060D01*
X3223984Y-28348298D02*
X3233508Y-28329251D01*
X3252556Y-28319727D01*
X3281127Y-28319727D01*
X3300175Y-28329251D01*
X3309699Y-28348298D01*
X3309699Y-28453060D01*
X3404937Y-28453060D02*
X3404937Y-28319727D01*
X3404937Y-28338775D02*
X3414461Y-28329251D01*
X3433508Y-28319727D01*
X3462080Y-28319727D01*
X3481127Y-28329251D01*
X3490651Y-28348298D01*
X3490651Y-28453060D01*
X3490651Y-28348298D02*
X3500175Y-28329251D01*
X3519223Y-28319727D01*
X3547794Y-28319727D01*
X3566842Y-28329251D01*
X3576365Y-28348298D01*
X3576365Y-28453060D01*
X3966842Y-28243537D02*
X3795413Y-28500679D01*
X4223985Y-28253060D02*
X4243032Y-28253060D01*
X4262080Y-28262584D01*
X4271604Y-28272108D01*
X4281127Y-28291156D01*
X4290651Y-28329251D01*
X4290651Y-28376870D01*
X4281127Y-28414965D01*
X4271604Y-28434013D01*
X4262080Y-28443537D01*
X4243032Y-28453060D01*
X4223985Y-28453060D01*
X4204937Y-28443537D01*
X4195413Y-28434013D01*
X4185889Y-28414965D01*
X4176365Y-28376870D01*
X4176365Y-28329251D01*
X4185889Y-28291156D01*
X4195413Y-28272108D01*
X4204937Y-28262584D01*
X4223985Y-28253060D01*
X4376366Y-28434013D02*
X4385889Y-28443537D01*
X4376366Y-28453060D01*
X4366842Y-28443537D01*
X4376366Y-28434013D01*
X4376366Y-28453060D01*
X4509699Y-28253060D02*
X4528746Y-28253060D01*
X4547794Y-28262584D01*
X4557318Y-28272108D01*
X4566842Y-28291156D01*
X4576366Y-28329251D01*
X4576366Y-28376870D01*
X4566842Y-28414965D01*
X4557318Y-28434013D01*
X4547794Y-28443537D01*
X4528746Y-28453060D01*
X4509699Y-28453060D01*
X4490651Y-28443537D01*
X4481127Y-28434013D01*
X4471604Y-28414965D01*
X4462080Y-28376870D01*
X4462080Y-28329251D01*
X4471604Y-28291156D01*
X4481127Y-28272108D01*
X4490651Y-28262584D01*
X4509699Y-28253060D01*
X4747794Y-28253060D02*
X4709699Y-28253060D01*
X4690651Y-28262584D01*
X4681127Y-28272108D01*
X4662080Y-28300679D01*
X4652556Y-28338775D01*
X4652556Y-28414965D01*
X4662080Y-28434013D01*
X4671604Y-28443537D01*
X4690651Y-28453060D01*
X4728746Y-28453060D01*
X4747794Y-28443537D01*
X4757318Y-28434013D01*
X4766842Y-28414965D01*
X4766842Y-28367346D01*
X4757318Y-28348298D01*
X4747794Y-28338775D01*
X4728746Y-28329251D01*
X4690651Y-28329251D01*
X4671604Y-28338775D01*
X4662080Y-28348298D01*
X4652556Y-28367346D01*
X4938270Y-28253060D02*
X4900175Y-28253060D01*
X4881127Y-28262584D01*
X4871604Y-28272108D01*
X4852556Y-28300679D01*
X4843032Y-28338775D01*
X4843032Y-28414965D01*
X4852556Y-28434013D01*
X4862080Y-28443537D01*
X4881127Y-28453060D01*
X4919223Y-28453060D01*
X4938270Y-28443537D01*
X4947794Y-28434013D01*
X4957318Y-28414965D01*
X4957318Y-28367346D01*
X4947794Y-28348298D01*
X4938270Y-28338775D01*
X4919223Y-28329251D01*
X4881127Y-28329251D01*
X4862080Y-28338775D01*
X4852556Y-28348298D01*
X4843032Y-28367346D01*
X5052556Y-28453060D02*
X5090651Y-28453060D01*
X5109699Y-28443537D01*
X5119223Y-28434013D01*
X5138270Y-28405441D01*
X5147794Y-28367346D01*
X5147794Y-28291156D01*
X5138270Y-28272108D01*
X5128746Y-28262584D01*
X5109699Y-28253060D01*
X5071604Y-28253060D01*
X5052556Y-28262584D01*
X5043032Y-28272108D01*
X5033508Y-28291156D01*
X5033508Y-28338775D01*
X5043032Y-28357822D01*
X5052556Y-28367346D01*
X5071604Y-28376870D01*
X5109699Y-28376870D01*
X5128746Y-28367346D01*
X5138270Y-28357822D01*
X5147794Y-28338775D01*
X5223985Y-28253060D02*
X5223985Y-28291156D01*
X5300175Y-28253060D02*
X5300175Y-28291156D01*
X5595413Y-28529251D02*
X5585889Y-28519727D01*
X5566842Y-28491156D01*
X5557318Y-28472108D01*
X5547794Y-28443537D01*
X5538270Y-28395918D01*
X5538270Y-28357822D01*
X5547794Y-28310203D01*
X5557318Y-28281632D01*
X5566842Y-28262584D01*
X5585889Y-28234013D01*
X5595413Y-28224489D01*
X5681127Y-28453060D02*
X5719223Y-28453060D01*
X5738270Y-28443537D01*
X5747794Y-28434013D01*
X5766842Y-28405441D01*
X5776365Y-28367346D01*
X5776365Y-28291156D01*
X5766842Y-28272108D01*
X5757318Y-28262584D01*
X5738270Y-28253060D01*
X5700175Y-28253060D01*
X5681127Y-28262584D01*
X5671604Y-28272108D01*
X5662080Y-28291156D01*
X5662080Y-28338775D01*
X5671604Y-28357822D01*
X5681127Y-28367346D01*
X5700175Y-28376870D01*
X5738270Y-28376870D01*
X5757318Y-28367346D01*
X5766842Y-28357822D01*
X5776365Y-28338775D01*
X5947794Y-28319727D02*
X5947794Y-28453060D01*
X5900175Y-28243537D02*
X5852556Y-28386394D01*
X5976365Y-28386394D01*
X6204937Y-28453060D02*
X6204937Y-28253060D01*
X6290651Y-28453060D02*
X6290651Y-28348298D01*
X6281127Y-28329251D01*
X6262080Y-28319727D01*
X6233508Y-28319727D01*
X6214461Y-28329251D01*
X6204937Y-28338775D01*
X6414461Y-28453060D02*
X6395413Y-28443537D01*
X6385889Y-28434013D01*
X6376365Y-28414965D01*
X6376365Y-28357822D01*
X6385889Y-28338775D01*
X6395413Y-28329251D01*
X6414461Y-28319727D01*
X6443032Y-28319727D01*
X6462080Y-28329251D01*
X6471604Y-28338775D01*
X6481127Y-28357822D01*
X6481127Y-28414965D01*
X6471604Y-28434013D01*
X6462080Y-28443537D01*
X6443032Y-28453060D01*
X6414461Y-28453060D01*
X6595413Y-28453060D02*
X6576365Y-28443537D01*
X6566842Y-28424489D01*
X6566842Y-28253060D01*
X6747794Y-28443537D02*
X6728746Y-28453060D01*
X6690651Y-28453060D01*
X6671604Y-28443537D01*
X6662080Y-28424489D01*
X6662080Y-28348298D01*
X6671604Y-28329251D01*
X6690651Y-28319727D01*
X6728746Y-28319727D01*
X6747794Y-28329251D01*
X6757318Y-28348298D01*
X6757318Y-28367346D01*
X6662080Y-28386394D01*
X6833508Y-28443537D02*
X6852556Y-28453060D01*
X6890651Y-28453060D01*
X6909699Y-28443537D01*
X6919223Y-28424489D01*
X6919223Y-28414965D01*
X6909699Y-28395918D01*
X6890651Y-28386394D01*
X6862080Y-28386394D01*
X6843032Y-28376870D01*
X6833508Y-28357822D01*
X6833508Y-28348298D01*
X6843032Y-28329251D01*
X6862080Y-28319727D01*
X6890651Y-28319727D01*
X6909699Y-28329251D01*
X6985889Y-28529251D02*
X6995413Y-28519727D01*
X7014461Y-28491156D01*
X7023984Y-28472108D01*
X7033508Y-28443537D01*
X7043032Y-28395918D01*
X7043032Y-28357822D01*
X7033508Y-28310203D01*
X7023984Y-28281632D01*
X7014461Y-28262584D01*
X6995413Y-28234013D01*
X6985889Y-28224489D01*
X7347794Y-28529251D02*
X7338270Y-28519727D01*
X7319223Y-28491156D01*
X7309699Y-28472108D01*
X7300175Y-28443537D01*
X7290651Y-28395918D01*
X7290651Y-28357822D01*
X7300175Y-28310203D01*
X7309699Y-28281632D01*
X7319223Y-28262584D01*
X7338270Y-28234013D01*
X7347794Y-28224489D01*
X7423984Y-28319727D02*
X7423984Y-28453060D01*
X7423984Y-28338775D02*
X7433508Y-28329251D01*
X7452556Y-28319727D01*
X7481127Y-28319727D01*
X7500175Y-28329251D01*
X7509699Y-28348298D01*
X7509699Y-28453060D01*
X7633508Y-28453060D02*
X7614461Y-28443537D01*
X7604937Y-28434013D01*
X7595413Y-28414965D01*
X7595413Y-28357822D01*
X7604937Y-28338775D01*
X7614461Y-28329251D01*
X7633508Y-28319727D01*
X7662080Y-28319727D01*
X7681127Y-28329251D01*
X7690651Y-28338775D01*
X7700175Y-28357822D01*
X7700175Y-28414965D01*
X7690651Y-28434013D01*
X7681127Y-28443537D01*
X7662080Y-28453060D01*
X7633508Y-28453060D01*
X7757318Y-28319727D02*
X7833508Y-28319727D01*
X7785889Y-28253060D02*
X7785889Y-28424489D01*
X7795413Y-28443537D01*
X7814461Y-28453060D01*
X7833508Y-28453060D01*
X8052556Y-28319727D02*
X8052556Y-28519727D01*
X8052556Y-28329251D02*
X8071604Y-28319727D01*
X8109699Y-28319727D01*
X8128746Y-28329251D01*
X8138270Y-28338775D01*
X8147794Y-28357822D01*
X8147794Y-28414965D01*
X8138270Y-28434013D01*
X8128746Y-28443537D01*
X8109699Y-28453060D01*
X8071604Y-28453060D01*
X8052556Y-28443537D01*
X8262080Y-28453060D02*
X8243032Y-28443537D01*
X8233508Y-28424489D01*
X8233508Y-28253060D01*
X8423985Y-28453060D02*
X8423985Y-28348298D01*
X8414461Y-28329251D01*
X8395413Y-28319727D01*
X8357318Y-28319727D01*
X8338270Y-28329251D01*
X8423985Y-28443537D02*
X8404937Y-28453060D01*
X8357318Y-28453060D01*
X8338270Y-28443537D01*
X8328746Y-28424489D01*
X8328746Y-28405441D01*
X8338270Y-28386394D01*
X8357318Y-28376870D01*
X8404937Y-28376870D01*
X8423985Y-28367346D01*
X8490651Y-28319727D02*
X8566842Y-28319727D01*
X8519223Y-28253060D02*
X8519223Y-28424489D01*
X8528746Y-28443537D01*
X8547794Y-28453060D01*
X8566842Y-28453060D01*
X8709699Y-28443537D02*
X8690651Y-28453060D01*
X8652556Y-28453060D01*
X8633508Y-28443537D01*
X8623985Y-28424489D01*
X8623985Y-28348298D01*
X8633508Y-28329251D01*
X8652556Y-28319727D01*
X8690651Y-28319727D01*
X8709699Y-28329251D01*
X8719223Y-28348298D01*
X8719223Y-28367346D01*
X8623985Y-28386394D01*
X8890651Y-28453060D02*
X8890651Y-28253060D01*
X8890651Y-28443537D02*
X8871604Y-28453060D01*
X8833508Y-28453060D01*
X8814461Y-28443537D01*
X8804937Y-28434013D01*
X8795413Y-28414965D01*
X8795413Y-28357822D01*
X8804937Y-28338775D01*
X8814461Y-28329251D01*
X8833508Y-28319727D01*
X8871604Y-28319727D01*
X8890651Y-28329251D01*
X8966842Y-28529251D02*
X8976366Y-28519727D01*
X8995413Y-28491156D01*
X9004937Y-28472108D01*
X9014461Y-28443537D01*
X9023985Y-28395918D01*
X9023985Y-28357822D01*
X9014461Y-28310203D01*
X9004937Y-28281632D01*
X8995413Y-28262584D01*
X8976366Y-28234013D01*
X8966842Y-28224489D01*
D13*
X1933508Y-28562584D02*
X1933508Y-28742584D01*
X1843508Y-28652584D02*
X2023508Y-28652584D01*
D10*
X2385889Y-28743060D02*
X2271604Y-28743060D01*
X2328746Y-28743060D02*
X2328746Y-28543060D01*
X2309699Y-28571632D01*
X2290651Y-28590679D01*
X2271604Y-28600203D01*
X2471604Y-28724013D02*
X2481127Y-28733537D01*
X2471604Y-28743060D01*
X2462080Y-28733537D01*
X2471604Y-28724013D01*
X2471604Y-28743060D01*
X2595413Y-28628775D02*
X2576366Y-28619251D01*
X2566842Y-28609727D01*
X2557318Y-28590679D01*
X2557318Y-28581156D01*
X2566842Y-28562108D01*
X2576366Y-28552584D01*
X2595413Y-28543060D01*
X2633508Y-28543060D01*
X2652556Y-28552584D01*
X2662080Y-28562108D01*
X2671604Y-28581156D01*
X2671604Y-28590679D01*
X2662080Y-28609727D01*
X2652556Y-28619251D01*
X2633508Y-28628775D01*
X2595413Y-28628775D01*
X2576366Y-28638298D01*
X2566842Y-28647822D01*
X2557318Y-28666870D01*
X2557318Y-28704965D01*
X2566842Y-28724013D01*
X2576366Y-28733537D01*
X2595413Y-28743060D01*
X2633508Y-28743060D01*
X2652556Y-28733537D01*
X2662080Y-28724013D01*
X2671604Y-28704965D01*
X2671604Y-28666870D01*
X2662080Y-28647822D01*
X2652556Y-28638298D01*
X2633508Y-28628775D01*
X2795413Y-28543060D02*
X2814461Y-28543060D01*
X2833508Y-28552584D01*
X2843032Y-28562108D01*
X2852556Y-28581156D01*
X2862080Y-28619251D01*
X2862080Y-28666870D01*
X2852556Y-28704965D01*
X2843032Y-28724013D01*
X2833508Y-28733537D01*
X2814461Y-28743060D01*
X2795413Y-28743060D01*
X2776366Y-28733537D01*
X2766842Y-28724013D01*
X2757318Y-28704965D01*
X2747794Y-28666870D01*
X2747794Y-28619251D01*
X2757318Y-28581156D01*
X2766842Y-28562108D01*
X2776366Y-28552584D01*
X2795413Y-28543060D01*
X2985889Y-28543060D02*
X3004937Y-28543060D01*
X3023984Y-28552584D01*
X3033508Y-28562108D01*
X3043032Y-28581156D01*
X3052556Y-28619251D01*
X3052556Y-28666870D01*
X3043032Y-28704965D01*
X3033508Y-28724013D01*
X3023984Y-28733537D01*
X3004937Y-28743060D01*
X2985889Y-28743060D01*
X2966842Y-28733537D01*
X2957318Y-28724013D01*
X2947794Y-28704965D01*
X2938270Y-28666870D01*
X2938270Y-28619251D01*
X2947794Y-28581156D01*
X2957318Y-28562108D01*
X2966842Y-28552584D01*
X2985889Y-28543060D01*
X3138270Y-28743060D02*
X3138270Y-28609727D01*
X3138270Y-28628775D02*
X3147794Y-28619251D01*
X3166842Y-28609727D01*
X3195413Y-28609727D01*
X3214461Y-28619251D01*
X3223984Y-28638298D01*
X3223984Y-28743060D01*
X3223984Y-28638298D02*
X3233508Y-28619251D01*
X3252556Y-28609727D01*
X3281127Y-28609727D01*
X3300175Y-28619251D01*
X3309699Y-28638298D01*
X3309699Y-28743060D01*
X3404937Y-28743060D02*
X3404937Y-28609727D01*
X3404937Y-28628775D02*
X3414461Y-28619251D01*
X3433508Y-28609727D01*
X3462080Y-28609727D01*
X3481127Y-28619251D01*
X3490651Y-28638298D01*
X3490651Y-28743060D01*
X3490651Y-28638298D02*
X3500175Y-28619251D01*
X3519223Y-28609727D01*
X3547794Y-28609727D01*
X3566842Y-28619251D01*
X3576365Y-28638298D01*
X3576365Y-28743060D01*
X3966842Y-28533537D02*
X3795413Y-28790679D01*
X4223985Y-28543060D02*
X4243032Y-28543060D01*
X4262080Y-28552584D01*
X4271604Y-28562108D01*
X4281127Y-28581156D01*
X4290651Y-28619251D01*
X4290651Y-28666870D01*
X4281127Y-28704965D01*
X4271604Y-28724013D01*
X4262080Y-28733537D01*
X4243032Y-28743060D01*
X4223985Y-28743060D01*
X4204937Y-28733537D01*
X4195413Y-28724013D01*
X4185889Y-28704965D01*
X4176365Y-28666870D01*
X4176365Y-28619251D01*
X4185889Y-28581156D01*
X4195413Y-28562108D01*
X4204937Y-28552584D01*
X4223985Y-28543060D01*
X4376366Y-28724013D02*
X4385889Y-28733537D01*
X4376366Y-28743060D01*
X4366842Y-28733537D01*
X4376366Y-28724013D01*
X4376366Y-28743060D01*
X4509699Y-28543060D02*
X4528746Y-28543060D01*
X4547794Y-28552584D01*
X4557318Y-28562108D01*
X4566842Y-28581156D01*
X4576366Y-28619251D01*
X4576366Y-28666870D01*
X4566842Y-28704965D01*
X4557318Y-28724013D01*
X4547794Y-28733537D01*
X4528746Y-28743060D01*
X4509699Y-28743060D01*
X4490651Y-28733537D01*
X4481127Y-28724013D01*
X4471604Y-28704965D01*
X4462080Y-28666870D01*
X4462080Y-28619251D01*
X4471604Y-28581156D01*
X4481127Y-28562108D01*
X4490651Y-28552584D01*
X4509699Y-28543060D01*
X4643032Y-28543060D02*
X4776366Y-28543060D01*
X4690651Y-28743060D01*
X4890651Y-28543060D02*
X4909699Y-28543060D01*
X4928746Y-28552584D01*
X4938270Y-28562108D01*
X4947794Y-28581156D01*
X4957318Y-28619251D01*
X4957318Y-28666870D01*
X4947794Y-28704965D01*
X4938270Y-28724013D01*
X4928746Y-28733537D01*
X4909699Y-28743060D01*
X4890651Y-28743060D01*
X4871604Y-28733537D01*
X4862080Y-28724013D01*
X4852556Y-28704965D01*
X4843032Y-28666870D01*
X4843032Y-28619251D01*
X4852556Y-28581156D01*
X4862080Y-28562108D01*
X4871604Y-28552584D01*
X4890651Y-28543060D01*
X5052556Y-28743060D02*
X5090651Y-28743060D01*
X5109699Y-28733537D01*
X5119223Y-28724013D01*
X5138270Y-28695441D01*
X5147794Y-28657346D01*
X5147794Y-28581156D01*
X5138270Y-28562108D01*
X5128746Y-28552584D01*
X5109699Y-28543060D01*
X5071604Y-28543060D01*
X5052556Y-28552584D01*
X5043032Y-28562108D01*
X5033508Y-28581156D01*
X5033508Y-28628775D01*
X5043032Y-28647822D01*
X5052556Y-28657346D01*
X5071604Y-28666870D01*
X5109699Y-28666870D01*
X5128746Y-28657346D01*
X5138270Y-28647822D01*
X5147794Y-28628775D01*
X5223985Y-28543060D02*
X5223985Y-28581156D01*
X5300175Y-28543060D02*
X5300175Y-28581156D01*
X5595413Y-28819251D02*
X5585889Y-28809727D01*
X5566842Y-28781156D01*
X5557318Y-28762108D01*
X5547794Y-28733537D01*
X5538270Y-28685918D01*
X5538270Y-28647822D01*
X5547794Y-28600203D01*
X5557318Y-28571632D01*
X5566842Y-28552584D01*
X5585889Y-28524013D01*
X5595413Y-28514489D01*
X5662080Y-28562108D02*
X5671604Y-28552584D01*
X5690651Y-28543060D01*
X5738270Y-28543060D01*
X5757318Y-28552584D01*
X5766842Y-28562108D01*
X5776365Y-28581156D01*
X5776365Y-28600203D01*
X5766842Y-28628775D01*
X5652556Y-28743060D01*
X5776365Y-28743060D01*
X6014461Y-28743060D02*
X6014461Y-28543060D01*
X6100175Y-28743060D02*
X6100175Y-28638298D01*
X6090651Y-28619251D01*
X6071604Y-28609727D01*
X6043032Y-28609727D01*
X6023984Y-28619251D01*
X6014461Y-28628775D01*
X6223984Y-28743060D02*
X6204937Y-28733537D01*
X6195413Y-28724013D01*
X6185889Y-28704965D01*
X6185889Y-28647822D01*
X6195413Y-28628775D01*
X6204937Y-28619251D01*
X6223984Y-28609727D01*
X6252556Y-28609727D01*
X6271604Y-28619251D01*
X6281127Y-28628775D01*
X6290651Y-28647822D01*
X6290651Y-28704965D01*
X6281127Y-28724013D01*
X6271604Y-28733537D01*
X6252556Y-28743060D01*
X6223984Y-28743060D01*
X6404937Y-28743060D02*
X6385889Y-28733537D01*
X6376365Y-28714489D01*
X6376365Y-28543060D01*
X6557318Y-28733537D02*
X6538270Y-28743060D01*
X6500175Y-28743060D01*
X6481127Y-28733537D01*
X6471604Y-28714489D01*
X6471604Y-28638298D01*
X6481127Y-28619251D01*
X6500175Y-28609727D01*
X6538270Y-28609727D01*
X6557318Y-28619251D01*
X6566842Y-28638298D01*
X6566842Y-28657346D01*
X6471604Y-28676394D01*
X6643032Y-28733537D02*
X6662080Y-28743060D01*
X6700175Y-28743060D01*
X6719223Y-28733537D01*
X6728746Y-28714489D01*
X6728746Y-28704965D01*
X6719223Y-28685918D01*
X6700175Y-28676394D01*
X6671604Y-28676394D01*
X6652556Y-28666870D01*
X6643032Y-28647822D01*
X6643032Y-28638298D01*
X6652556Y-28619251D01*
X6671604Y-28609727D01*
X6700175Y-28609727D01*
X6719223Y-28619251D01*
X6795413Y-28819251D02*
X6804937Y-28809727D01*
X6823984Y-28781156D01*
X6833508Y-28762108D01*
X6843032Y-28733537D01*
X6852556Y-28685918D01*
X6852556Y-28647822D01*
X6843032Y-28600203D01*
X6833508Y-28571632D01*
X6823984Y-28552584D01*
X6804937Y-28524013D01*
X6795413Y-28514489D01*
X7157318Y-28819251D02*
X7147794Y-28809727D01*
X7128746Y-28781156D01*
X7119223Y-28762108D01*
X7109699Y-28733537D01*
X7100175Y-28685918D01*
X7100175Y-28647822D01*
X7109699Y-28600203D01*
X7119223Y-28571632D01*
X7128746Y-28552584D01*
X7147794Y-28524013D01*
X7157318Y-28514489D01*
X7233508Y-28609727D02*
X7233508Y-28743060D01*
X7233508Y-28628775D02*
X7243032Y-28619251D01*
X7262080Y-28609727D01*
X7290651Y-28609727D01*
X7309699Y-28619251D01*
X7319223Y-28638298D01*
X7319223Y-28743060D01*
X7443032Y-28743060D02*
X7423984Y-28733537D01*
X7414461Y-28724013D01*
X7404937Y-28704965D01*
X7404937Y-28647822D01*
X7414461Y-28628775D01*
X7423984Y-28619251D01*
X7443032Y-28609727D01*
X7471604Y-28609727D01*
X7490651Y-28619251D01*
X7500175Y-28628775D01*
X7509699Y-28647822D01*
X7509699Y-28704965D01*
X7500175Y-28724013D01*
X7490651Y-28733537D01*
X7471604Y-28743060D01*
X7443032Y-28743060D01*
X7566842Y-28609727D02*
X7643032Y-28609727D01*
X7595413Y-28543060D02*
X7595413Y-28714489D01*
X7604937Y-28733537D01*
X7623984Y-28743060D01*
X7643032Y-28743060D01*
X7862080Y-28609727D02*
X7862080Y-28809727D01*
X7862080Y-28619251D02*
X7881127Y-28609727D01*
X7919223Y-28609727D01*
X7938270Y-28619251D01*
X7947794Y-28628775D01*
X7957318Y-28647822D01*
X7957318Y-28704965D01*
X7947794Y-28724013D01*
X7938270Y-28733537D01*
X7919223Y-28743060D01*
X7881127Y-28743060D01*
X7862080Y-28733537D01*
X8071604Y-28743060D02*
X8052556Y-28733537D01*
X8043032Y-28714489D01*
X8043032Y-28543060D01*
X8233508Y-28743060D02*
X8233508Y-28638298D01*
X8223984Y-28619251D01*
X8204937Y-28609727D01*
X8166842Y-28609727D01*
X8147794Y-28619251D01*
X8233508Y-28733537D02*
X8214461Y-28743060D01*
X8166842Y-28743060D01*
X8147794Y-28733537D01*
X8138270Y-28714489D01*
X8138270Y-28695441D01*
X8147794Y-28676394D01*
X8166842Y-28666870D01*
X8214461Y-28666870D01*
X8233508Y-28657346D01*
X8300175Y-28609727D02*
X8376365Y-28609727D01*
X8328746Y-28543060D02*
X8328746Y-28714489D01*
X8338270Y-28733537D01*
X8357318Y-28743060D01*
X8376365Y-28743060D01*
X8519223Y-28733537D02*
X8500175Y-28743060D01*
X8462080Y-28743060D01*
X8443032Y-28733537D01*
X8433508Y-28714489D01*
X8433508Y-28638298D01*
X8443032Y-28619251D01*
X8462080Y-28609727D01*
X8500175Y-28609727D01*
X8519223Y-28619251D01*
X8528746Y-28638298D01*
X8528746Y-28657346D01*
X8433508Y-28676394D01*
X8700175Y-28743060D02*
X8700175Y-28543060D01*
X8700175Y-28733537D02*
X8681127Y-28743060D01*
X8643032Y-28743060D01*
X8623985Y-28733537D01*
X8614461Y-28724013D01*
X8604937Y-28704965D01*
X8604937Y-28647822D01*
X8614461Y-28628775D01*
X8623985Y-28619251D01*
X8643032Y-28609727D01*
X8681127Y-28609727D01*
X8700175Y-28619251D01*
X8776366Y-28819251D02*
X8785889Y-28809727D01*
X8804937Y-28781156D01*
X8814461Y-28762108D01*
X8823985Y-28733537D01*
X8833508Y-28685918D01*
X8833508Y-28647822D01*
X8823985Y-28600203D01*
X8814461Y-28571632D01*
X8804937Y-28552584D01*
X8785889Y-28524013D01*
X8776366Y-28514489D01*
X1994220Y-29023296D02*
X1994220Y-28881873D01*
X1852797Y-28881873D01*
X1852797Y-29023296D01*
X1994220Y-29023296D01*
X2366842Y-28909727D02*
X2366842Y-29043060D01*
X2319223Y-28833537D02*
X2271604Y-28976394D01*
X2395413Y-28976394D01*
X2471604Y-29024013D02*
X2481127Y-29033537D01*
X2471604Y-29043060D01*
X2462080Y-29033537D01*
X2471604Y-29024013D01*
X2471604Y-29043060D01*
X2604937Y-28843060D02*
X2623985Y-28843060D01*
X2643032Y-28852584D01*
X2652556Y-28862108D01*
X2662080Y-28881156D01*
X2671604Y-28919251D01*
X2671604Y-28966870D01*
X2662080Y-29004965D01*
X2652556Y-29024013D01*
X2643032Y-29033537D01*
X2623985Y-29043060D01*
X2604937Y-29043060D01*
X2585889Y-29033537D01*
X2576366Y-29024013D01*
X2566842Y-29004965D01*
X2557318Y-28966870D01*
X2557318Y-28919251D01*
X2566842Y-28881156D01*
X2576366Y-28862108D01*
X2585889Y-28852584D01*
X2604937Y-28843060D01*
X2795413Y-28843060D02*
X2814461Y-28843060D01*
X2833508Y-28852584D01*
X2843032Y-28862108D01*
X2852556Y-28881156D01*
X2862080Y-28919251D01*
X2862080Y-28966870D01*
X2852556Y-29004965D01*
X2843032Y-29024013D01*
X2833508Y-29033537D01*
X2814461Y-29043060D01*
X2795413Y-29043060D01*
X2776366Y-29033537D01*
X2766842Y-29024013D01*
X2757318Y-29004965D01*
X2747794Y-28966870D01*
X2747794Y-28919251D01*
X2757318Y-28881156D01*
X2766842Y-28862108D01*
X2776366Y-28852584D01*
X2795413Y-28843060D01*
X2985889Y-28843060D02*
X3004937Y-28843060D01*
X3023984Y-28852584D01*
X3033508Y-28862108D01*
X3043032Y-28881156D01*
X3052556Y-28919251D01*
X3052556Y-28966870D01*
X3043032Y-29004965D01*
X3033508Y-29024013D01*
X3023984Y-29033537D01*
X3004937Y-29043060D01*
X2985889Y-29043060D01*
X2966842Y-29033537D01*
X2957318Y-29024013D01*
X2947794Y-29004965D01*
X2938270Y-28966870D01*
X2938270Y-28919251D01*
X2947794Y-28881156D01*
X2957318Y-28862108D01*
X2966842Y-28852584D01*
X2985889Y-28843060D01*
X3138270Y-29043060D02*
X3138270Y-28909727D01*
X3138270Y-28928775D02*
X3147794Y-28919251D01*
X3166842Y-28909727D01*
X3195413Y-28909727D01*
X3214461Y-28919251D01*
X3223984Y-28938298D01*
X3223984Y-29043060D01*
X3223984Y-28938298D02*
X3233508Y-28919251D01*
X3252556Y-28909727D01*
X3281127Y-28909727D01*
X3300175Y-28919251D01*
X3309699Y-28938298D01*
X3309699Y-29043060D01*
X3404937Y-29043060D02*
X3404937Y-28909727D01*
X3404937Y-28928775D02*
X3414461Y-28919251D01*
X3433508Y-28909727D01*
X3462080Y-28909727D01*
X3481127Y-28919251D01*
X3490651Y-28938298D01*
X3490651Y-29043060D01*
X3490651Y-28938298D02*
X3500175Y-28919251D01*
X3519223Y-28909727D01*
X3547794Y-28909727D01*
X3566842Y-28919251D01*
X3576365Y-28938298D01*
X3576365Y-29043060D01*
X3966842Y-28833537D02*
X3795413Y-29090679D01*
X4223985Y-28843060D02*
X4243032Y-28843060D01*
X4262080Y-28852584D01*
X4271604Y-28862108D01*
X4281127Y-28881156D01*
X4290651Y-28919251D01*
X4290651Y-28966870D01*
X4281127Y-29004965D01*
X4271604Y-29024013D01*
X4262080Y-29033537D01*
X4243032Y-29043060D01*
X4223985Y-29043060D01*
X4204937Y-29033537D01*
X4195413Y-29024013D01*
X4185889Y-29004965D01*
X4176365Y-28966870D01*
X4176365Y-28919251D01*
X4185889Y-28881156D01*
X4195413Y-28862108D01*
X4204937Y-28852584D01*
X4223985Y-28843060D01*
X4376366Y-29024013D02*
X4385889Y-29033537D01*
X4376366Y-29043060D01*
X4366842Y-29033537D01*
X4376366Y-29024013D01*
X4376366Y-29043060D01*
X4576366Y-29043060D02*
X4462080Y-29043060D01*
X4519223Y-29043060D02*
X4519223Y-28843060D01*
X4500175Y-28871632D01*
X4481127Y-28890679D01*
X4462080Y-28900203D01*
X4757318Y-28843060D02*
X4662080Y-28843060D01*
X4652556Y-28938298D01*
X4662080Y-28928775D01*
X4681127Y-28919251D01*
X4728746Y-28919251D01*
X4747794Y-28928775D01*
X4757318Y-28938298D01*
X4766842Y-28957346D01*
X4766842Y-29004965D01*
X4757318Y-29024013D01*
X4747794Y-29033537D01*
X4728746Y-29043060D01*
X4681127Y-29043060D01*
X4662080Y-29033537D01*
X4652556Y-29024013D01*
X4833508Y-28843060D02*
X4966842Y-28843060D01*
X4881127Y-29043060D01*
X5138270Y-28843060D02*
X5043032Y-28843060D01*
X5033508Y-28938298D01*
X5043032Y-28928775D01*
X5062080Y-28919251D01*
X5109699Y-28919251D01*
X5128746Y-28928775D01*
X5138270Y-28938298D01*
X5147794Y-28957346D01*
X5147794Y-29004965D01*
X5138270Y-29024013D01*
X5128746Y-29033537D01*
X5109699Y-29043060D01*
X5062080Y-29043060D01*
X5043032Y-29033537D01*
X5033508Y-29024013D01*
X5223985Y-28843060D02*
X5223985Y-28881156D01*
X5300175Y-28843060D02*
X5300175Y-28881156D01*
X5595413Y-29119251D02*
X5585889Y-29109727D01*
X5566842Y-29081156D01*
X5557318Y-29062108D01*
X5547794Y-29033537D01*
X5538270Y-28985918D01*
X5538270Y-28947822D01*
X5547794Y-28900203D01*
X5557318Y-28871632D01*
X5566842Y-28852584D01*
X5585889Y-28824013D01*
X5595413Y-28814489D01*
X5757318Y-28909727D02*
X5757318Y-29043060D01*
X5709699Y-28833537D02*
X5662080Y-28976394D01*
X5785889Y-28976394D01*
X5843032Y-28843060D02*
X5976365Y-28843060D01*
X5890651Y-29043060D01*
X6204937Y-29043060D02*
X6204937Y-28843060D01*
X6290651Y-29043060D02*
X6290651Y-28938298D01*
X6281127Y-28919251D01*
X6262080Y-28909727D01*
X6233508Y-28909727D01*
X6214461Y-28919251D01*
X6204937Y-28928775D01*
X6414461Y-29043060D02*
X6395413Y-29033537D01*
X6385889Y-29024013D01*
X6376365Y-29004965D01*
X6376365Y-28947822D01*
X6385889Y-28928775D01*
X6395413Y-28919251D01*
X6414461Y-28909727D01*
X6443032Y-28909727D01*
X6462080Y-28919251D01*
X6471604Y-28928775D01*
X6481127Y-28947822D01*
X6481127Y-29004965D01*
X6471604Y-29024013D01*
X6462080Y-29033537D01*
X6443032Y-29043060D01*
X6414461Y-29043060D01*
X6595413Y-29043060D02*
X6576365Y-29033537D01*
X6566842Y-29014489D01*
X6566842Y-28843060D01*
X6747794Y-29033537D02*
X6728746Y-29043060D01*
X6690651Y-29043060D01*
X6671604Y-29033537D01*
X6662080Y-29014489D01*
X6662080Y-28938298D01*
X6671604Y-28919251D01*
X6690651Y-28909727D01*
X6728746Y-28909727D01*
X6747794Y-28919251D01*
X6757318Y-28938298D01*
X6757318Y-28957346D01*
X6662080Y-28976394D01*
X6833508Y-29033537D02*
X6852556Y-29043060D01*
X6890651Y-29043060D01*
X6909699Y-29033537D01*
X6919223Y-29014489D01*
X6919223Y-29004965D01*
X6909699Y-28985918D01*
X6890651Y-28976394D01*
X6862080Y-28976394D01*
X6843032Y-28966870D01*
X6833508Y-28947822D01*
X6833508Y-28938298D01*
X6843032Y-28919251D01*
X6862080Y-28909727D01*
X6890651Y-28909727D01*
X6909699Y-28919251D01*
X6985889Y-29119251D02*
X6995413Y-29109727D01*
X7014461Y-29081156D01*
X7023984Y-29062108D01*
X7033508Y-29033537D01*
X7043032Y-28985918D01*
X7043032Y-28947822D01*
X7033508Y-28900203D01*
X7023984Y-28871632D01*
X7014461Y-28852584D01*
X6995413Y-28824013D01*
X6985889Y-28814489D01*
X7347794Y-29119251D02*
X7338270Y-29109727D01*
X7319223Y-29081156D01*
X7309699Y-29062108D01*
X7300175Y-29033537D01*
X7290651Y-28985918D01*
X7290651Y-28947822D01*
X7300175Y-28900203D01*
X7309699Y-28871632D01*
X7319223Y-28852584D01*
X7338270Y-28824013D01*
X7347794Y-28814489D01*
X7423984Y-28909727D02*
X7423984Y-29043060D01*
X7423984Y-28928775D02*
X7433508Y-28919251D01*
X7452556Y-28909727D01*
X7481127Y-28909727D01*
X7500175Y-28919251D01*
X7509699Y-28938298D01*
X7509699Y-29043060D01*
X7633508Y-29043060D02*
X7614461Y-29033537D01*
X7604937Y-29024013D01*
X7595413Y-29004965D01*
X7595413Y-28947822D01*
X7604937Y-28928775D01*
X7614461Y-28919251D01*
X7633508Y-28909727D01*
X7662080Y-28909727D01*
X7681127Y-28919251D01*
X7690651Y-28928775D01*
X7700175Y-28947822D01*
X7700175Y-29004965D01*
X7690651Y-29024013D01*
X7681127Y-29033537D01*
X7662080Y-29043060D01*
X7633508Y-29043060D01*
X7757318Y-28909727D02*
X7833508Y-28909727D01*
X7785889Y-28843060D02*
X7785889Y-29014489D01*
X7795413Y-29033537D01*
X7814461Y-29043060D01*
X7833508Y-29043060D01*
X8052556Y-28909727D02*
X8052556Y-29109727D01*
X8052556Y-28919251D02*
X8071604Y-28909727D01*
X8109699Y-28909727D01*
X8128746Y-28919251D01*
X8138270Y-28928775D01*
X8147794Y-28947822D01*
X8147794Y-29004965D01*
X8138270Y-29024013D01*
X8128746Y-29033537D01*
X8109699Y-29043060D01*
X8071604Y-29043060D01*
X8052556Y-29033537D01*
X8262080Y-29043060D02*
X8243032Y-29033537D01*
X8233508Y-29014489D01*
X8233508Y-28843060D01*
X8423985Y-29043060D02*
X8423985Y-28938298D01*
X8414461Y-28919251D01*
X8395413Y-28909727D01*
X8357318Y-28909727D01*
X8338270Y-28919251D01*
X8423985Y-29033537D02*
X8404937Y-29043060D01*
X8357318Y-29043060D01*
X8338270Y-29033537D01*
X8328746Y-29014489D01*
X8328746Y-28995441D01*
X8338270Y-28976394D01*
X8357318Y-28966870D01*
X8404937Y-28966870D01*
X8423985Y-28957346D01*
X8490651Y-28909727D02*
X8566842Y-28909727D01*
X8519223Y-28843060D02*
X8519223Y-29014489D01*
X8528746Y-29033537D01*
X8547794Y-29043060D01*
X8566842Y-29043060D01*
X8709699Y-29033537D02*
X8690651Y-29043060D01*
X8652556Y-29043060D01*
X8633508Y-29033537D01*
X8623985Y-29014489D01*
X8623985Y-28938298D01*
X8633508Y-28919251D01*
X8652556Y-28909727D01*
X8690651Y-28909727D01*
X8709699Y-28919251D01*
X8719223Y-28938298D01*
X8719223Y-28957346D01*
X8623985Y-28976394D01*
X8890651Y-29043060D02*
X8890651Y-28843060D01*
X8890651Y-29033537D02*
X8871604Y-29043060D01*
X8833508Y-29043060D01*
X8814461Y-29033537D01*
X8804937Y-29024013D01*
X8795413Y-29004965D01*
X8795413Y-28947822D01*
X8804937Y-28928775D01*
X8814461Y-28919251D01*
X8833508Y-28909727D01*
X8871604Y-28909727D01*
X8890651Y-28919251D01*
X8966842Y-29119251D02*
X8976366Y-29109727D01*
X8995413Y-29081156D01*
X9004937Y-29062108D01*
X9014461Y-29033537D01*
X9023985Y-28985918D01*
X9023985Y-28947822D01*
X9014461Y-28900203D01*
X9004937Y-28871632D01*
X8995413Y-28852584D01*
X8976366Y-28824013D01*
X8966842Y-28814489D01*
M02*
