%TF.GenerationSoftware,KiCad,Pcbnew,6.0.9-8da3e8f707~116~ubuntu20.04.1*%
%TF.CreationDate,2022-11-04T11:59:08+01:00*%
%TF.ProjectId,98keys-left,39386b65-7973-42d6-9c65-66742e6b6963,rev?*%
%TF.SameCoordinates,Original*%
%TF.FileFunction,Legend,Bot*%
%TF.FilePolarity,Positive*%
%FSLAX46Y46*%
G04 Gerber Fmt 4.6, Leading zero omitted, Abs format (unit mm)*
G04 Created by KiCad (PCBNEW 6.0.9-8da3e8f707~116~ubuntu20.04.1) date 2022-11-04 11:59:08*
%MOMM*%
%LPD*%
G01*
G04 APERTURE LIST*
%ADD10C,0.150000*%
G04 APERTURE END LIST*
D10*
X159742857Y-57957142D02*
X159742857Y-54957142D01*
X158457142Y-57957142D02*
X158457142Y-56385714D01*
X158600000Y-56100000D01*
X158885714Y-55957142D01*
X159314285Y-55957142D01*
X159600000Y-56100000D01*
X159742857Y-56242857D01*
X157457142Y-55957142D02*
X156314285Y-55957142D01*
X157028571Y-54957142D02*
X157028571Y-57528571D01*
X156885714Y-57814285D01*
X156600000Y-57957142D01*
X156314285Y-57957142D01*
X155742857Y-55957142D02*
X154600000Y-55957142D01*
X155314285Y-54957142D02*
X155314285Y-57528571D01*
X155171428Y-57814285D01*
X154885714Y-57957142D01*
X154600000Y-57957142D01*
X153600000Y-55957142D02*
X153600000Y-58957142D01*
X153600000Y-56100000D02*
X153314285Y-55957142D01*
X152742857Y-55957142D01*
X152457142Y-56100000D01*
X152314285Y-56242857D01*
X152171428Y-56528571D01*
X152171428Y-57385714D01*
X152314285Y-57671428D01*
X152457142Y-57814285D01*
X152742857Y-57957142D01*
X153314285Y-57957142D01*
X153600000Y-57814285D01*
X151028571Y-57814285D02*
X150742857Y-57957142D01*
X150171428Y-57957142D01*
X149885714Y-57814285D01*
X149742857Y-57528571D01*
X149742857Y-57385714D01*
X149885714Y-57100000D01*
X150171428Y-56957142D01*
X150600000Y-56957142D01*
X150885714Y-56814285D01*
X151028571Y-56528571D01*
X151028571Y-56385714D01*
X150885714Y-56100000D01*
X150600000Y-55957142D01*
X150171428Y-55957142D01*
X149885714Y-56100000D01*
X148457142Y-57671428D02*
X148314285Y-57814285D01*
X148457142Y-57957142D01*
X148600000Y-57814285D01*
X148457142Y-57671428D01*
X148457142Y-57957142D01*
X148457142Y-56100000D02*
X148314285Y-56242857D01*
X148457142Y-56385714D01*
X148600000Y-56242857D01*
X148457142Y-56100000D01*
X148457142Y-56385714D01*
X144885714Y-54814285D02*
X147457142Y-58671428D01*
X141742857Y-54814285D02*
X144314285Y-58671428D01*
X139457142Y-55957142D02*
X139457142Y-58385714D01*
X139600000Y-58671428D01*
X139742857Y-58814285D01*
X140028571Y-58957142D01*
X140457142Y-58957142D01*
X140742857Y-58814285D01*
X139457142Y-57814285D02*
X139742857Y-57957142D01*
X140314285Y-57957142D01*
X140600000Y-57814285D01*
X140742857Y-57671428D01*
X140885714Y-57385714D01*
X140885714Y-56528571D01*
X140742857Y-56242857D01*
X140600000Y-56100000D01*
X140314285Y-55957142D01*
X139742857Y-55957142D01*
X139457142Y-56100000D01*
X138028571Y-57957142D02*
X138028571Y-55957142D01*
X138028571Y-54957142D02*
X138171428Y-55100000D01*
X138028571Y-55242857D01*
X137885714Y-55100000D01*
X138028571Y-54957142D01*
X138028571Y-55242857D01*
X137028571Y-55957142D02*
X135885714Y-55957142D01*
X136599999Y-54957142D02*
X136599999Y-57528571D01*
X136457142Y-57814285D01*
X136171428Y-57957142D01*
X135885714Y-57957142D01*
X134885714Y-57957142D02*
X134885714Y-54957142D01*
X133599999Y-57957142D02*
X133599999Y-56385714D01*
X133742857Y-56100000D01*
X134028571Y-55957142D01*
X134457142Y-55957142D01*
X134742857Y-56100000D01*
X134885714Y-56242857D01*
X130885714Y-55957142D02*
X130885714Y-57957142D01*
X132171428Y-55957142D02*
X132171428Y-57528571D01*
X132028571Y-57814285D01*
X131742857Y-57957142D01*
X131314285Y-57957142D01*
X131028571Y-57814285D01*
X130885714Y-57671428D01*
X129457142Y-57957142D02*
X129457142Y-54957142D01*
X129457142Y-56100000D02*
X129171428Y-55957142D01*
X128599999Y-55957142D01*
X128314285Y-56100000D01*
X128171428Y-56242857D01*
X128028571Y-56528571D01*
X128028571Y-57385714D01*
X128171428Y-57671428D01*
X128314285Y-57814285D01*
X128599999Y-57957142D01*
X129171428Y-57957142D01*
X129457142Y-57814285D01*
X126742857Y-57671428D02*
X126599999Y-57814285D01*
X126742857Y-57957142D01*
X126885714Y-57814285D01*
X126742857Y-57671428D01*
X126742857Y-57957142D01*
X124028571Y-57814285D02*
X124314285Y-57957142D01*
X124885714Y-57957142D01*
X125171428Y-57814285D01*
X125314285Y-57671428D01*
X125457142Y-57385714D01*
X125457142Y-56528571D01*
X125314285Y-56242857D01*
X125171428Y-56100000D01*
X124885714Y-55957142D01*
X124314285Y-55957142D01*
X124028571Y-56100000D01*
X122314285Y-57957142D02*
X122599999Y-57814285D01*
X122742857Y-57671428D01*
X122885714Y-57385714D01*
X122885714Y-56528571D01*
X122742857Y-56242857D01*
X122599999Y-56100000D01*
X122314285Y-55957142D01*
X121885714Y-55957142D01*
X121599999Y-56100000D01*
X121457142Y-56242857D01*
X121314285Y-56528571D01*
X121314285Y-57385714D01*
X121457142Y-57671428D01*
X121599999Y-57814285D01*
X121885714Y-57957142D01*
X122314285Y-57957142D01*
X120028571Y-57957142D02*
X120028571Y-55957142D01*
X120028571Y-56242857D02*
X119885714Y-56100000D01*
X119599999Y-55957142D01*
X119171428Y-55957142D01*
X118885714Y-56100000D01*
X118742857Y-56385714D01*
X118742857Y-57957142D01*
X118742857Y-56385714D02*
X118599999Y-56100000D01*
X118314285Y-55957142D01*
X117885714Y-55957142D01*
X117599999Y-56100000D01*
X117457142Y-56385714D01*
X117457142Y-57957142D01*
X113885714Y-54814285D02*
X116457142Y-58671428D01*
X113028571Y-57814285D02*
X112599999Y-57957142D01*
X111885714Y-57957142D01*
X111599999Y-57814285D01*
X111457142Y-57671428D01*
X111314285Y-57385714D01*
X111314285Y-57100000D01*
X111457142Y-56814285D01*
X111599999Y-56671428D01*
X111885714Y-56528571D01*
X112457142Y-56385714D01*
X112742857Y-56242857D01*
X112885714Y-56100000D01*
X113028571Y-55814285D01*
X113028571Y-55528571D01*
X112885714Y-55242857D01*
X112742857Y-55100000D01*
X112457142Y-54957142D01*
X111742857Y-54957142D01*
X111314285Y-55100000D01*
X108742857Y-55957142D02*
X108742857Y-57957142D01*
X110028571Y-55957142D02*
X110028571Y-57528571D01*
X109885714Y-57814285D01*
X109599999Y-57957142D01*
X109171428Y-57957142D01*
X108885714Y-57814285D01*
X108742857Y-57671428D01*
X107314285Y-55957142D02*
X107314285Y-58957142D01*
X107314285Y-56100000D02*
X107028571Y-55957142D01*
X106457142Y-55957142D01*
X106171428Y-56100000D01*
X106028571Y-56242857D01*
X105885714Y-56528571D01*
X105885714Y-57385714D01*
X106028571Y-57671428D01*
X106171428Y-57814285D01*
X106457142Y-57957142D01*
X107028571Y-57957142D01*
X107314285Y-57814285D01*
X103457142Y-57814285D02*
X103742857Y-57957142D01*
X104314285Y-57957142D01*
X104599999Y-57814285D01*
X104742857Y-57528571D01*
X104742857Y-56385714D01*
X104599999Y-56100000D01*
X104314285Y-55957142D01*
X103742857Y-55957142D01*
X103457142Y-56100000D01*
X103314285Y-56385714D01*
X103314285Y-56671428D01*
X104742857Y-56957142D01*
X102028571Y-57957142D02*
X102028571Y-55957142D01*
X102028571Y-56528571D02*
X101885714Y-56242857D01*
X101742857Y-56100000D01*
X101457142Y-55957142D01*
X101171428Y-55957142D01*
X100171428Y-57957142D02*
X100171428Y-55957142D01*
X100171428Y-56242857D02*
X100028571Y-56100000D01*
X99742857Y-55957142D01*
X99314285Y-55957142D01*
X99028571Y-56100000D01*
X98885714Y-56385714D01*
X98885714Y-57957142D01*
X98885714Y-56385714D02*
X98742857Y-56100000D01*
X98457142Y-55957142D01*
X98028571Y-55957142D01*
X97742857Y-56100000D01*
X97599999Y-56385714D01*
X97599999Y-57957142D01*
X94885714Y-57957142D02*
X94885714Y-56385714D01*
X95028571Y-56100000D01*
X95314285Y-55957142D01*
X95885714Y-55957142D01*
X96171428Y-56100000D01*
X94885714Y-57814285D02*
X95171428Y-57957142D01*
X95885714Y-57957142D01*
X96171428Y-57814285D01*
X96314285Y-57528571D01*
X96314285Y-57242857D01*
X96171428Y-56957142D01*
X95885714Y-56814285D01*
X95171428Y-56814285D01*
X94885714Y-56671428D01*
X92171428Y-55957142D02*
X92171428Y-58385714D01*
X92314285Y-58671428D01*
X92457142Y-58814285D01*
X92742857Y-58957142D01*
X93171428Y-58957142D01*
X93457142Y-58814285D01*
X92171428Y-57814285D02*
X92457142Y-57957142D01*
X93028571Y-57957142D01*
X93314285Y-57814285D01*
X93457142Y-57671428D01*
X93599999Y-57385714D01*
X93599999Y-56528571D01*
X93457142Y-56242857D01*
X93314285Y-56100000D01*
X93028571Y-55957142D01*
X92457142Y-55957142D01*
X92171428Y-56100000D01*
X90742857Y-55957142D02*
X90742857Y-57957142D01*
X90742857Y-56242857D02*
X90599999Y-56100000D01*
X90314285Y-55957142D01*
X89885714Y-55957142D01*
X89599999Y-56100000D01*
X89457142Y-56385714D01*
X89457142Y-57957142D01*
X86742857Y-55957142D02*
X86742857Y-57957142D01*
X88028571Y-55957142D02*
X88028571Y-57528571D01*
X87885714Y-57814285D01*
X87599999Y-57957142D01*
X87171428Y-57957142D01*
X86885714Y-57814285D01*
X86742857Y-57671428D01*
X85314285Y-57957142D02*
X85314285Y-55957142D01*
X85314285Y-56242857D02*
X85171428Y-56100000D01*
X84885714Y-55957142D01*
X84457142Y-55957142D01*
X84171428Y-56100000D01*
X84028571Y-56385714D01*
X84028571Y-57957142D01*
X84028571Y-56385714D02*
X83885714Y-56100000D01*
X83599999Y-55957142D01*
X83171428Y-55957142D01*
X82885714Y-56100000D01*
X82742857Y-56385714D01*
X82742857Y-57957142D01*
X79171428Y-54814285D02*
X81742857Y-58671428D01*
X78028571Y-57957142D02*
X77457142Y-57957142D01*
X77171428Y-57814285D01*
X77028571Y-57671428D01*
X76742857Y-57242857D01*
X76599999Y-56671428D01*
X76599999Y-55528571D01*
X76742857Y-55242857D01*
X76885714Y-55100000D01*
X77171428Y-54957142D01*
X77742857Y-54957142D01*
X78028571Y-55100000D01*
X78171428Y-55242857D01*
X78314285Y-55528571D01*
X78314285Y-56242857D01*
X78171428Y-56528571D01*
X78028571Y-56671428D01*
X77742857Y-56814285D01*
X77171428Y-56814285D01*
X76885714Y-56671428D01*
X76742857Y-56528571D01*
X76599999Y-56242857D01*
X74885714Y-56242857D02*
X75171428Y-56100000D01*
X75314285Y-55957142D01*
X75457142Y-55671428D01*
X75457142Y-55528571D01*
X75314285Y-55242857D01*
X75171428Y-55100000D01*
X74885714Y-54957142D01*
X74314285Y-54957142D01*
X74028571Y-55100000D01*
X73885714Y-55242857D01*
X73742857Y-55528571D01*
X73742857Y-55671428D01*
X73885714Y-55957142D01*
X74028571Y-56100000D01*
X74314285Y-56242857D01*
X74885714Y-56242857D01*
X75171428Y-56385714D01*
X75314285Y-56528571D01*
X75457142Y-56814285D01*
X75457142Y-57385714D01*
X75314285Y-57671428D01*
X75171428Y-57814285D01*
X74885714Y-57957142D01*
X74314285Y-57957142D01*
X74028571Y-57814285D01*
X73885714Y-57671428D01*
X73742857Y-57385714D01*
X73742857Y-56814285D01*
X73885714Y-56528571D01*
X74028571Y-56385714D01*
X74314285Y-56242857D01*
X72457142Y-57957142D02*
X72457142Y-54957142D01*
X72171428Y-56814285D02*
X71314285Y-57957142D01*
X71314285Y-55957142D02*
X72457142Y-57100000D01*
X68885714Y-57814285D02*
X69171428Y-57957142D01*
X69742857Y-57957142D01*
X70028571Y-57814285D01*
X70171428Y-57528571D01*
X70171428Y-56385714D01*
X70028571Y-56100000D01*
X69742857Y-55957142D01*
X69171428Y-55957142D01*
X68885714Y-56100000D01*
X68742857Y-56385714D01*
X68742857Y-56671428D01*
X70171428Y-56957142D01*
X67742857Y-55957142D02*
X67028571Y-57957142D01*
X66314285Y-55957142D02*
X67028571Y-57957142D01*
X67314285Y-58671428D01*
X67457142Y-58814285D01*
X67742857Y-58957142D01*
X65314285Y-57814285D02*
X65028571Y-57957142D01*
X64457142Y-57957142D01*
X64171428Y-57814285D01*
X64028571Y-57528571D01*
X64028571Y-57385714D01*
X64171428Y-57100000D01*
X64457142Y-56957142D01*
X64885714Y-56957142D01*
X65171428Y-56814285D01*
X65314285Y-56528571D01*
X65314285Y-56385714D01*
X65171428Y-56100000D01*
X64885714Y-55957142D01*
X64457142Y-55957142D01*
X64171428Y-56100000D01*
X62742857Y-56814285D02*
X60457142Y-56814285D01*
X57885714Y-57814285D02*
X58171428Y-57957142D01*
X58742857Y-57957142D01*
X59028571Y-57814285D01*
X59171428Y-57528571D01*
X59171428Y-56385714D01*
X59028571Y-56100000D01*
X58742857Y-55957142D01*
X58171428Y-55957142D01*
X57885714Y-56100000D01*
X57742857Y-56385714D01*
X57742857Y-56671428D01*
X59171428Y-56957142D01*
X56457142Y-57957142D02*
X56457142Y-55957142D01*
X56457142Y-56528571D02*
X56314285Y-56242857D01*
X56171428Y-56100000D01*
X55885714Y-55957142D01*
X55599999Y-55957142D01*
X53314285Y-55957142D02*
X53314285Y-58385714D01*
X53457142Y-58671428D01*
X53599999Y-58814285D01*
X53885714Y-58957142D01*
X54314285Y-58957142D01*
X54599999Y-58814285D01*
X53314285Y-57814285D02*
X53599999Y-57957142D01*
X54171428Y-57957142D01*
X54457142Y-57814285D01*
X54599999Y-57671428D01*
X54742857Y-57385714D01*
X54742857Y-56528571D01*
X54599999Y-56242857D01*
X54457142Y-56100000D01*
X54171428Y-55957142D01*
X53599999Y-55957142D01*
X53314285Y-56100000D01*
X51457142Y-57957142D02*
X51742857Y-57814285D01*
X51885714Y-57671428D01*
X52028571Y-57385714D01*
X52028571Y-56528571D01*
X51885714Y-56242857D01*
X51742857Y-56100000D01*
X51457142Y-55957142D01*
X51028571Y-55957142D01*
X50742857Y-56100000D01*
X50599999Y-56242857D01*
X50457142Y-56528571D01*
X50457142Y-57385714D01*
X50599999Y-57671428D01*
X50742857Y-57814285D01*
X51028571Y-57957142D01*
X51457142Y-57957142D01*
X47028571Y-54814285D02*
X49599999Y-58671428D01*
M02*
