M48
; DRILL file {KiCad 6.0.9-8da3e8f707~116~ubuntu20.04.1} date fr. 04. nov. 2022 kl. 11.59 +0100
; FORMAT={-:-/ absolute / metric / decimal}
; #@! TF.CreationDate,2022-11-04T11:59:03+01:00
; #@! TF.GenerationSoftware,Kicad,Pcbnew,6.0.9-8da3e8f707~116~ubuntu20.04.1
; #@! TF.FileFunction,NonPlated,1,2,NPTH
FMAT,2
METRIC
; #@! TA.AperFunction,NonPlated,NPTH,ComponentDrill
T1C1.500
; #@! TA.AperFunction,NonPlated,NPTH,ComponentDrill
T2C1.700
; #@! TA.AperFunction,NonPlated,NPTH,ComponentDrill
T3C1.800
; #@! TA.AperFunction,NonPlated,NPTH,ComponentDrill
T4C4.000
%
G90
G05
T1
X233.97Y-68.575
X233.97Y-73.425
T2
X44.12Y-96.28
X44.32Y-127.08
X44.32Y-150.88
X44.32Y-174.68
X44.32Y-198.48
X49.32Y-222.28
X54.28Y-96.28
X54.48Y-127.08
X54.48Y-150.88
X54.48Y-174.68
X54.48Y-198.48
X59.48Y-222.28
X72.72Y-96.08
X72.92Y-127.08
X72.92Y-150.88
X72.92Y-174.68
X72.92Y-198.48
X72.92Y-222.28
X82.88Y-96.08
X83.08Y-127.08
X83.08Y-150.88
X83.08Y-174.68
X83.08Y-198.48
X83.08Y-222.28
X96.72Y-122.28
X96.72Y-146.08
X96.72Y-169.88
X96.72Y-193.68
X96.72Y-217.48
X101.32Y-96.08
X106.88Y-122.28
X106.88Y-146.08
X106.88Y-169.88
X106.88Y-193.68
X106.88Y-217.48
X111.48Y-96.08
X120.52Y-119.88
X120.52Y-143.68
X120.52Y-167.48
X120.52Y-191.28
X120.52Y-215.08
X129.92Y-96.08
X130.68Y-119.88
X130.68Y-143.68
X130.68Y-167.48
X130.68Y-191.28
X130.68Y-215.08
X140.08Y-96.08
X144.32Y-122.48
X144.32Y-146.08
X144.32Y-169.88
X144.32Y-217.48
X144.52Y-193.68
X154.48Y-122.48
X154.48Y-146.08
X154.48Y-169.88
X154.48Y-217.48
X154.68Y-193.68
X158.52Y-96.08
X168.12Y-124.68
X168.12Y-148.48
X168.12Y-172.28
X168.12Y-195.88
X168.68Y-96.08
X178.201Y-231.84
X178.28Y-124.68
X178.28Y-148.48
X178.28Y-172.28
X178.28Y-195.88
X187.0Y-236.92
X187.12Y-96.08
X191.92Y-124.68
X191.92Y-148.28
X191.92Y-172.28
X191.92Y-196.08
X197.28Y-96.08
X198.901Y-243.74
X202.08Y-124.68
X202.08Y-148.28
X202.08Y-172.28
X202.08Y-196.08
X207.7Y-248.82
X210.701Y-223.14
X215.52Y-96.08
X215.72Y-124.48
X219.5Y-228.22
X219.501Y-255.54
X220.8Y-152.8
X220.8Y-162.96
X220.8Y-186.2
X220.8Y-196.36
X225.68Y-96.08
X225.88Y-124.48
X228.3Y-260.62
T3
X237.0Y-68.275
X237.0Y-73.725
T4
X49.2Y-96.28
X49.4Y-127.08
X49.4Y-150.88
X49.4Y-174.68
X49.4Y-198.48
X54.4Y-222.28
X77.8Y-96.08
X78.0Y-127.08
X78.0Y-150.88
X78.0Y-174.68
X78.0Y-198.48
X78.0Y-222.28
X101.8Y-122.28
X101.8Y-146.08
X101.8Y-169.88
X101.8Y-193.68
X101.8Y-217.48
X106.4Y-96.08
X125.6Y-119.88
X125.6Y-143.68
X125.6Y-167.48
X125.6Y-191.28
X125.6Y-215.08
X135.0Y-96.08
X149.4Y-122.48
X149.4Y-146.08
X149.4Y-169.88
X149.4Y-217.48
X149.6Y-193.68
X163.6Y-96.08
X173.2Y-124.68
X173.2Y-148.48
X173.2Y-172.28
X173.2Y-195.88
X182.6Y-234.38
X192.2Y-96.08
X197.0Y-124.68
X197.0Y-148.28
X197.0Y-172.28
X197.0Y-196.08
X203.3Y-246.28
X215.1Y-225.68
X220.6Y-96.08
X220.8Y-124.48
X220.8Y-157.88
X220.8Y-191.28
X223.9Y-258.08
T0
M30
