%TF.GenerationSoftware,KiCad,Pcbnew,6.0.9-8da3e8f707~116~ubuntu20.04.1*%
%TF.CreationDate,2022-11-05T13:47:39+01:00*%
%TF.ProjectId,98keys-left,39386b65-7973-42d6-9c65-66742e6b6963,rev?*%
%TF.SameCoordinates,Original*%
%TF.FileFunction,Soldermask,Top*%
%TF.FilePolarity,Negative*%
%FSLAX46Y46*%
G04 Gerber Fmt 4.6, Leading zero omitted, Abs format (unit mm)*
G04 Created by KiCad (PCBNEW 6.0.9-8da3e8f707~116~ubuntu20.04.1) date 2022-11-05 13:47:39*
%MOMM*%
%LPD*%
G01*
G04 APERTURE LIST*
G04 Aperture macros list*
%AMHorizOval*
0 Thick line with rounded ends*
0 $1 width*
0 $2 $3 position (X,Y) of the first rounded end (center of the circle)*
0 $4 $5 position (X,Y) of the second rounded end (center of the circle)*
0 Add line between two ends*
20,1,$1,$2,$3,$4,$5,0*
0 Add two circle primitives to create the rounded ends*
1,1,$1,$2,$3*
1,1,$1,$4,$5*%
%AMRotRect*
0 Rectangle, with rotation*
0 The origin of the aperture is its center*
0 $1 length*
0 $2 width*
0 $3 Rotation angle, in degrees counterclockwise*
0 Add horizontal line*
21,1,$1,$2,0,0,$3*%
G04 Aperture macros list end*
%ADD10C,1.200000*%
%ADD11C,1.400000*%
%ADD12O,1.400000X1.400000*%
%ADD13R,1.600000X1.600000*%
%ADD14O,1.600000X1.600000*%
%ADD15RotRect,1.600000X1.600000X150.000000*%
%ADD16HorizOval,1.600000X0.000000X0.000000X0.000000X0.000000X0*%
%ADD17RotRect,1.600000X1.600000X330.000000*%
%ADD18HorizOval,1.600000X0.000000X0.000000X0.000000X0.000000X0*%
%ADD19C,1.700000*%
%ADD20C,4.000000*%
%ADD21C,2.200000*%
%ADD22C,7.500000*%
%ADD23R,1.800000X1.800000*%
%ADD24O,1.800000X1.800000*%
%ADD25R,3.500000X1.700000*%
%ADD26O,1.700000X1.700000*%
%ADD27R,1.700000X1.700000*%
%ADD28R,1.700000X3.500000*%
%ADD29O,1.500000X1.500000*%
%ADD30C,2.000000*%
G04 APERTURE END LIST*
D10*
%TO.C,J1*%
X153900000Y-56049000D03*
X151000000Y-47949000D03*
X157100000Y-56049000D03*
X151900000Y-52949000D03*
X160000000Y-47949000D03*
%TD*%
D11*
%TO.C,R6*%
X147000000Y-51460000D03*
D12*
X147000000Y-46380000D03*
%TD*%
D11*
%TO.C,R5*%
X164000000Y-46500000D03*
D12*
X164000000Y-51580000D03*
%TD*%
D13*
%TO.C,D1*%
X38200000Y-100080000D03*
D14*
X38200000Y-92460000D03*
%TD*%
D13*
%TO.C,D2*%
X53200000Y-138080000D03*
D14*
X45580000Y-138080000D03*
%TD*%
D13*
%TO.C,D3*%
X53400000Y-161680000D03*
D14*
X45780000Y-161680000D03*
%TD*%
D13*
%TO.C,D4*%
X53200000Y-185480000D03*
D14*
X45580000Y-185480000D03*
%TD*%
D13*
%TO.C,D5*%
X53000000Y-209280000D03*
D14*
X45380000Y-209280000D03*
%TD*%
D13*
%TO.C,D6*%
X43500000Y-226300000D03*
D14*
X43500000Y-218680000D03*
%TD*%
D13*
%TO.C,D7*%
X66800000Y-99880000D03*
D14*
X66800000Y-92260000D03*
%TD*%
D13*
%TO.C,D8*%
X67000000Y-131080000D03*
D14*
X67000000Y-123460000D03*
%TD*%
D13*
%TO.C,D9*%
X67200000Y-154700000D03*
D14*
X67200000Y-147080000D03*
%TD*%
D13*
%TO.C,D10*%
X67000000Y-178680000D03*
D14*
X67000000Y-171060000D03*
%TD*%
D13*
%TO.C,D11*%
X67200000Y-202280000D03*
D14*
X67200000Y-194660000D03*
%TD*%
D13*
%TO.C,D12*%
X67000000Y-226680000D03*
D14*
X67000000Y-219060000D03*
%TD*%
D13*
%TO.C,D14*%
X95400000Y-99880000D03*
D14*
X95400000Y-92260000D03*
%TD*%
D13*
%TO.C,D15*%
X91000000Y-126280000D03*
D14*
X91000000Y-118660000D03*
%TD*%
D13*
%TO.C,D16*%
X91000000Y-150080000D03*
D14*
X91000000Y-142460000D03*
%TD*%
D13*
%TO.C,D17*%
X91000000Y-197480000D03*
D14*
X91000000Y-189860000D03*
%TD*%
D13*
%TO.C,D18*%
X91200000Y-174700000D03*
D14*
X91200000Y-167080000D03*
%TD*%
D13*
%TO.C,D19*%
X91000000Y-221480000D03*
D14*
X91000000Y-213860000D03*
%TD*%
D13*
%TO.C,D20*%
X124000000Y-99880000D03*
D14*
X124000000Y-92260000D03*
%TD*%
D13*
%TO.C,D21*%
X114800000Y-123700000D03*
D14*
X114800000Y-116080000D03*
%TD*%
D13*
%TO.C,D22*%
X114800000Y-147480000D03*
D14*
X114800000Y-139860000D03*
%TD*%
D13*
%TO.C,D23*%
X114800000Y-171280000D03*
D14*
X114800000Y-163660000D03*
%TD*%
D13*
%TO.C,D24*%
X114800000Y-195080000D03*
D14*
X114800000Y-187460000D03*
%TD*%
D13*
%TO.C,D25*%
X114800000Y-219080000D03*
D14*
X114800000Y-211460000D03*
%TD*%
D13*
%TO.C,D26*%
X152600000Y-100080000D03*
D14*
X152600000Y-92460000D03*
%TD*%
D13*
%TO.C,D27*%
X138600000Y-149880000D03*
D14*
X138600000Y-142260000D03*
%TD*%
D13*
%TO.C,D28*%
X138600000Y-126080000D03*
D14*
X138600000Y-118460000D03*
%TD*%
D13*
%TO.C,D29*%
X138400000Y-173680000D03*
D14*
X138400000Y-166060000D03*
%TD*%
D13*
%TO.C,D30*%
X139200000Y-197080000D03*
D14*
X139200000Y-189460000D03*
%TD*%
D13*
%TO.C,D31*%
X138600000Y-221500000D03*
D14*
X138600000Y-213880000D03*
%TD*%
D13*
%TO.C,D32*%
X181400000Y-100080000D03*
D14*
X181400000Y-92460000D03*
%TD*%
D13*
%TO.C,D33*%
X162400000Y-128480000D03*
D14*
X162400000Y-120860000D03*
%TD*%
D13*
%TO.C,D34*%
X162500000Y-152180000D03*
D14*
X162500000Y-144560000D03*
%TD*%
D13*
%TO.C,D35*%
X162400000Y-176080000D03*
D14*
X162400000Y-168460000D03*
%TD*%
D13*
%TO.C,D36*%
X162400000Y-199880000D03*
D14*
X162400000Y-192260000D03*
%TD*%
D13*
%TO.C,D37*%
X209800000Y-100080000D03*
D14*
X209800000Y-92460000D03*
%TD*%
D13*
%TO.C,D38*%
X186200000Y-128480000D03*
D14*
X186200000Y-120860000D03*
%TD*%
D13*
%TO.C,D39*%
X186200000Y-199880000D03*
D14*
X186200000Y-192260000D03*
%TD*%
D13*
%TO.C,D40*%
X186000000Y-152280000D03*
D14*
X186000000Y-144660000D03*
%TD*%
D13*
%TO.C,D41*%
X186200000Y-176100000D03*
D14*
X186200000Y-168480000D03*
%TD*%
D13*
%TO.C,D42*%
X210000000Y-128480000D03*
D14*
X210000000Y-120860000D03*
%TD*%
D13*
%TO.C,D43*%
X217200000Y-173480000D03*
D14*
X224820000Y-173480000D03*
%TD*%
D13*
%TO.C,D44*%
X224620000Y-206880000D03*
D14*
X217000000Y-206880000D03*
%TD*%
D15*
%TO.C,D45*%
X192000000Y-224680000D03*
D16*
X185400886Y-220870000D03*
%TD*%
D17*
%TO.C,D46*%
X206100000Y-233080000D03*
D18*
X212699114Y-236890000D03*
%TD*%
D15*
%TO.C,D47*%
X200699000Y-257490000D03*
D16*
X194099886Y-253680000D03*
%TD*%
D15*
%TO.C,D48*%
X234000000Y-248680000D03*
D16*
X227400886Y-244870000D03*
%TD*%
D11*
%TO.C,R1*%
X193080000Y-53000000D03*
D12*
X198160000Y-53000000D03*
%TD*%
D11*
%TO.C,R2*%
X203000000Y-53000000D03*
D12*
X208080000Y-53000000D03*
%TD*%
D11*
%TO.C,R3*%
X223000000Y-53000000D03*
D12*
X228080000Y-53000000D03*
%TD*%
D19*
%TO.C,SW1*%
X54280000Y-96280000D03*
D20*
X49200000Y-96280000D03*
D19*
X44120000Y-96280000D03*
D21*
X51740000Y-91200000D03*
X45390000Y-93740000D03*
%TD*%
D19*
%TO.C,SW2*%
X44320000Y-127080000D03*
X54480000Y-127080000D03*
D20*
X49400000Y-127080000D03*
D21*
X51940000Y-122000000D03*
X45590000Y-124540000D03*
%TD*%
D19*
%TO.C,SW3*%
X54480000Y-150880000D03*
D20*
X49400000Y-150880000D03*
D19*
X44320000Y-150880000D03*
D21*
X51940000Y-145800000D03*
X45590000Y-148340000D03*
%TD*%
D20*
%TO.C,SW4*%
X49400000Y-198480000D03*
D19*
X44320000Y-198480000D03*
X54480000Y-198480000D03*
D21*
X51940000Y-193400000D03*
X45590000Y-195940000D03*
%TD*%
D19*
%TO.C,SW5*%
X44320000Y-174680000D03*
D20*
X49400000Y-174680000D03*
D19*
X54480000Y-174680000D03*
D21*
X51940000Y-169600000D03*
X45590000Y-172140000D03*
%TD*%
D20*
%TO.C,SW6*%
X54400000Y-222280000D03*
D19*
X59480000Y-222280000D03*
X49320000Y-222280000D03*
D21*
X56940000Y-217200000D03*
X50590000Y-219740000D03*
%TD*%
D20*
%TO.C,SW7*%
X77800000Y-96080000D03*
D19*
X72720000Y-96080000D03*
X82880000Y-96080000D03*
D21*
X80340000Y-91000000D03*
X73990000Y-93540000D03*
%TD*%
D19*
%TO.C,SW8*%
X83080000Y-127080000D03*
X72920000Y-127080000D03*
D20*
X78000000Y-127080000D03*
D21*
X80540000Y-122000000D03*
X74190000Y-124540000D03*
%TD*%
D20*
%TO.C,SW9*%
X78000000Y-150880000D03*
D19*
X83080000Y-150880000D03*
X72920000Y-150880000D03*
D21*
X80540000Y-145800000D03*
X74190000Y-148340000D03*
%TD*%
D20*
%TO.C,SW10*%
X78000000Y-198480000D03*
D19*
X72920000Y-198480000D03*
X83080000Y-198480000D03*
D21*
X80540000Y-193400000D03*
X74190000Y-195940000D03*
%TD*%
D19*
%TO.C,SW11*%
X83080000Y-174680000D03*
D20*
X78000000Y-174680000D03*
D19*
X72920000Y-174680000D03*
D21*
X80540000Y-169600000D03*
X74190000Y-172140000D03*
%TD*%
D19*
%TO.C,SW12*%
X72920000Y-222280000D03*
X83080000Y-222280000D03*
D20*
X78000000Y-222280000D03*
D21*
X80540000Y-217200000D03*
X74190000Y-219740000D03*
%TD*%
D19*
%TO.C,SW13*%
X111480000Y-96080000D03*
X101320000Y-96080000D03*
D20*
X106400000Y-96080000D03*
D21*
X108940000Y-91000000D03*
X102590000Y-93540000D03*
%TD*%
D20*
%TO.C,SW14*%
X101800000Y-122280000D03*
D19*
X106880000Y-122280000D03*
X96720000Y-122280000D03*
D21*
X104340000Y-117200000D03*
X97990000Y-119740000D03*
%TD*%
D19*
%TO.C,SW15*%
X106880000Y-146080000D03*
X96720000Y-146080000D03*
D20*
X101800000Y-146080000D03*
D21*
X104340000Y-141000000D03*
X97990000Y-143540000D03*
%TD*%
D20*
%TO.C,SW16*%
X101800000Y-193680000D03*
D19*
X106880000Y-193680000D03*
X96720000Y-193680000D03*
D21*
X104340000Y-188600000D03*
X97990000Y-191140000D03*
%TD*%
D19*
%TO.C,SW17*%
X96720000Y-169880000D03*
X106880000Y-169880000D03*
D20*
X101800000Y-169880000D03*
D21*
X104340000Y-164800000D03*
X97990000Y-167340000D03*
%TD*%
D19*
%TO.C,SW18*%
X96720000Y-217480000D03*
X106880000Y-217480000D03*
D20*
X101800000Y-217480000D03*
D21*
X104340000Y-212400000D03*
X97990000Y-214940000D03*
%TD*%
D19*
%TO.C,SW19*%
X129920000Y-96080000D03*
X140080000Y-96080000D03*
D20*
X135000000Y-96080000D03*
D21*
X137540000Y-91000000D03*
X131190000Y-93540000D03*
%TD*%
D20*
%TO.C,SW20*%
X125600000Y-119880000D03*
D19*
X130680000Y-119880000D03*
X120520000Y-119880000D03*
D21*
X128140000Y-114800000D03*
X121790000Y-117340000D03*
%TD*%
D20*
%TO.C,SW21*%
X125600000Y-143680000D03*
D19*
X120520000Y-143680000D03*
X130680000Y-143680000D03*
D21*
X128140000Y-138600000D03*
X121790000Y-141140000D03*
%TD*%
D19*
%TO.C,SW22*%
X120520000Y-191280000D03*
D20*
X125600000Y-191280000D03*
D19*
X130680000Y-191280000D03*
D21*
X128140000Y-186200000D03*
X121790000Y-188740000D03*
%TD*%
D19*
%TO.C,SW23*%
X130680000Y-167480000D03*
X120520000Y-167480000D03*
D20*
X125600000Y-167480000D03*
D21*
X128140000Y-162400000D03*
X121790000Y-164940000D03*
%TD*%
D19*
%TO.C,SW24*%
X120520000Y-215080000D03*
D20*
X125600000Y-215080000D03*
D19*
X130680000Y-215080000D03*
D21*
X128140000Y-210000000D03*
X121790000Y-212540000D03*
%TD*%
D20*
%TO.C,SW25*%
X163600000Y-96080000D03*
D19*
X168680000Y-96080000D03*
X158520000Y-96080000D03*
D21*
X166140000Y-91000000D03*
X159790000Y-93540000D03*
%TD*%
D19*
%TO.C,SW26*%
X144320000Y-122480000D03*
D20*
X149400000Y-122480000D03*
D19*
X154480000Y-122480000D03*
D21*
X151940000Y-117400000D03*
X145590000Y-119940000D03*
%TD*%
D19*
%TO.C,SW27*%
X144320000Y-146080000D03*
D20*
X149400000Y-146080000D03*
D19*
X154480000Y-146080000D03*
D21*
X151940000Y-141000000D03*
X145590000Y-143540000D03*
%TD*%
D19*
%TO.C,SW28*%
X144520000Y-193680000D03*
X154680000Y-193680000D03*
D20*
X149600000Y-193680000D03*
D21*
X152140000Y-188600000D03*
X145790000Y-191140000D03*
%TD*%
D20*
%TO.C,SW29*%
X149400000Y-169880000D03*
D19*
X144320000Y-169880000D03*
X154480000Y-169880000D03*
D21*
X151940000Y-164800000D03*
X145590000Y-167340000D03*
%TD*%
D19*
%TO.C,SW30*%
X144320000Y-217480000D03*
X154480000Y-217480000D03*
D20*
X149400000Y-217480000D03*
D21*
X151940000Y-212400000D03*
X145590000Y-214940000D03*
%TD*%
D20*
%TO.C,SW31*%
X192200000Y-96080000D03*
D19*
X197280000Y-96080000D03*
X187120000Y-96080000D03*
D21*
X194740000Y-91000000D03*
X188390000Y-93540000D03*
%TD*%
D19*
%TO.C,SW32*%
X168120000Y-124680000D03*
D20*
X173200000Y-124680000D03*
D19*
X178280000Y-124680000D03*
D21*
X175740000Y-119600000D03*
X169390000Y-122140000D03*
%TD*%
D19*
%TO.C,SW33*%
X178280000Y-148480000D03*
D20*
X173200000Y-148480000D03*
D19*
X168120000Y-148480000D03*
D21*
X175740000Y-143400000D03*
X169390000Y-145940000D03*
%TD*%
D19*
%TO.C,SW34*%
X178280000Y-195880000D03*
X168120000Y-195880000D03*
D20*
X173200000Y-195880000D03*
D21*
X175740000Y-190800000D03*
X169390000Y-193340000D03*
%TD*%
D19*
%TO.C,SW35*%
X168120000Y-172280000D03*
X178280000Y-172280000D03*
D20*
X173200000Y-172280000D03*
D21*
X175740000Y-167200000D03*
X169390000Y-169740000D03*
%TD*%
D19*
%TO.C,SW36*%
X225680000Y-96080000D03*
D20*
X220600000Y-96080000D03*
D19*
X215520000Y-96080000D03*
D21*
X223140000Y-91000000D03*
X216790000Y-93540000D03*
%TD*%
D19*
%TO.C,SW37*%
X191920000Y-124680000D03*
X202080000Y-124680000D03*
D20*
X197000000Y-124680000D03*
D21*
X199540000Y-119600000D03*
X193190000Y-122140000D03*
%TD*%
D20*
%TO.C,SW38*%
X197000000Y-148280000D03*
D19*
X202080000Y-148280000D03*
X191920000Y-148280000D03*
D21*
X199540000Y-143200000D03*
X193190000Y-145740000D03*
%TD*%
D19*
%TO.C,SW39*%
X202080000Y-196080000D03*
X191920000Y-196080000D03*
D20*
X197000000Y-196080000D03*
D21*
X199540000Y-191000000D03*
X193190000Y-193540000D03*
%TD*%
D20*
%TO.C,SW40*%
X197000000Y-172280000D03*
D19*
X191920000Y-172280000D03*
X202080000Y-172280000D03*
D21*
X199540000Y-167200000D03*
X193190000Y-169740000D03*
%TD*%
D20*
%TO.C,SW41*%
X220800000Y-124480000D03*
D19*
X225880000Y-124480000D03*
X215720000Y-124480000D03*
D21*
X223340000Y-119400000D03*
X216990000Y-121940000D03*
%TD*%
D19*
%TO.C,SW42*%
X220800000Y-162960000D03*
D20*
X220800000Y-157880000D03*
D19*
X220800000Y-152800000D03*
D21*
X215720000Y-155340000D03*
X218260000Y-161690000D03*
%TD*%
D19*
%TO.C,SW43*%
X220800000Y-196360000D03*
D20*
X220800000Y-191280000D03*
D19*
X220800000Y-186200000D03*
D21*
X215720000Y-188740000D03*
X218260000Y-195090000D03*
%TD*%
D20*
%TO.C,SW44*%
X182600295Y-234380409D03*
D19*
X186999705Y-236920409D03*
X178200886Y-231840409D03*
D21*
X187340000Y-231251000D03*
X180570739Y-230275705D03*
%TD*%
D19*
%TO.C,SW45*%
X210700886Y-223140409D03*
X219499705Y-228220409D03*
D20*
X215100295Y-225680409D03*
D21*
X219840000Y-222551000D03*
X213070739Y-221575705D03*
%TD*%
D19*
%TO.C,SW46*%
X198900886Y-243740409D03*
D20*
X203300295Y-246280409D03*
D19*
X207699705Y-248820409D03*
D21*
X208040000Y-243151000D03*
X201270739Y-242175705D03*
%TD*%
D19*
%TO.C,SW47*%
X228299705Y-260620409D03*
D20*
X223900295Y-258080409D03*
D19*
X219500886Y-255540409D03*
D21*
X228640000Y-254951000D03*
X221870739Y-253975705D03*
%TD*%
D22*
%TO.C,H1*%
X27500000Y-50500000D03*
%TD*%
%TO.C,H2*%
X132500000Y-50000000D03*
%TD*%
%TO.C,H3*%
X237500000Y-50500000D03*
%TD*%
%TO.C,H4*%
X27500000Y-158500000D03*
%TD*%
%TO.C,H5*%
X237500000Y-158500000D03*
%TD*%
%TO.C,H6*%
X27500000Y-266500000D03*
%TD*%
%TO.C,H7*%
X132500000Y-266500000D03*
%TD*%
%TO.C,H8*%
X237500000Y-266500000D03*
%TD*%
D23*
%TO.C,D13*%
X194080000Y-47900000D03*
D24*
X196620000Y-47900000D03*
%TD*%
D23*
%TO.C,D49*%
X204080000Y-47900000D03*
D24*
X206620000Y-47900000D03*
%TD*%
D23*
%TO.C,D50*%
X214080000Y-47900000D03*
D24*
X216620000Y-47900000D03*
%TD*%
D23*
%TO.C,D51*%
X224080000Y-47900000D03*
D24*
X226620000Y-47900000D03*
%TD*%
D11*
%TO.C,R4*%
X213000000Y-53000000D03*
D12*
X218080000Y-53000000D03*
%TD*%
D25*
%TO.C,U1*%
X188200000Y-73540000D03*
D26*
X189100000Y-73540000D03*
D27*
X189100000Y-71000000D03*
D25*
X188200000Y-71000000D03*
D26*
X189100000Y-68460000D03*
D25*
X188200000Y-68460000D03*
D26*
X237130000Y-79890000D03*
D28*
X237130000Y-80790000D03*
X234590000Y-80790000D03*
D26*
X234590000Y-79890000D03*
D27*
X232050000Y-79890000D03*
D28*
X232050000Y-80790000D03*
D26*
X229510000Y-79890000D03*
D28*
X229510000Y-80790000D03*
X226970000Y-80790000D03*
D26*
X226970000Y-79890000D03*
D28*
X224430000Y-80790000D03*
D26*
X224430000Y-79890000D03*
D28*
X221890000Y-80790000D03*
D26*
X221890000Y-79890000D03*
D28*
X219350000Y-80790000D03*
D27*
X219350000Y-79890000D03*
D28*
X216810000Y-80790000D03*
D26*
X216810000Y-79890000D03*
X214270000Y-79890000D03*
D28*
X214270000Y-80790000D03*
X211730000Y-80790000D03*
D26*
X211730000Y-79890000D03*
D28*
X209190000Y-80790000D03*
D26*
X209190000Y-79890000D03*
D27*
X206650000Y-79890000D03*
D28*
X206650000Y-80790000D03*
D26*
X204110000Y-79890000D03*
D28*
X204110000Y-80790000D03*
D26*
X201570000Y-79890000D03*
D28*
X201570000Y-80790000D03*
D26*
X199030000Y-79890000D03*
D28*
X199030000Y-80790000D03*
D26*
X196490000Y-79890000D03*
D28*
X196490000Y-80790000D03*
X193950000Y-80790000D03*
D27*
X193950000Y-79890000D03*
D26*
X191410000Y-79890000D03*
D28*
X191410000Y-80790000D03*
X188870000Y-80790000D03*
D26*
X188870000Y-79890000D03*
X188870000Y-62110000D03*
D28*
X188870000Y-61210000D03*
D26*
X191410000Y-62110000D03*
D28*
X191410000Y-61210000D03*
X193950000Y-61210000D03*
D27*
X193950000Y-62110000D03*
D26*
X196490000Y-62110000D03*
D28*
X196490000Y-61210000D03*
D26*
X199030000Y-62110000D03*
D28*
X199030000Y-61210000D03*
D26*
X201570000Y-62110000D03*
D28*
X201570000Y-61210000D03*
D26*
X204110000Y-62110000D03*
D28*
X204110000Y-61210000D03*
D27*
X206650000Y-62110000D03*
D28*
X206650000Y-61210000D03*
D26*
X209190000Y-62110000D03*
D28*
X209190000Y-61210000D03*
X211730000Y-61210000D03*
D26*
X211730000Y-62110000D03*
D28*
X214270000Y-61210000D03*
D26*
X214270000Y-62110000D03*
X216810000Y-62110000D03*
D28*
X216810000Y-61210000D03*
X219350000Y-61210000D03*
D27*
X219350000Y-62110000D03*
D26*
X221890000Y-62110000D03*
D28*
X221890000Y-61210000D03*
D26*
X224430000Y-62110000D03*
D28*
X224430000Y-61210000D03*
X226970000Y-61210000D03*
D26*
X226970000Y-62110000D03*
D28*
X229510000Y-61210000D03*
D26*
X229510000Y-62110000D03*
D28*
X232050000Y-61210000D03*
D27*
X232050000Y-62110000D03*
D26*
X234590000Y-62110000D03*
D28*
X234590000Y-61210000D03*
X237130000Y-61210000D03*
D26*
X237130000Y-62110000D03*
D24*
X237000000Y-73725000D03*
X237000000Y-68275000D03*
D29*
X233970000Y-68575000D03*
X233970000Y-73425000D03*
%TD*%
D30*
%TO.C,SW48*%
X177000000Y-74000000D03*
X172000000Y-74000000D03*
X177000000Y-69000000D03*
X172000000Y-69000000D03*
%TD*%
M02*
