%TF.GenerationSoftware,KiCad,Pcbnew,5.1.6-c6e7f7d~87~ubuntu20.04.1*%
%TF.CreationDate,2020-09-08T11:45:58+02:00*%
%TF.ProjectId,pcb-flat-right,7063622d-666c-4617-942d-72696768742e,rev?*%
%TF.SameCoordinates,Original*%
%TF.FileFunction,Legend,Bot*%
%TF.FilePolarity,Positive*%
%FSLAX46Y46*%
G04 Gerber Fmt 4.6, Leading zero omitted, Abs format (unit mm)*
G04 Created by KiCad (PCBNEW 5.1.6-c6e7f7d~87~ubuntu20.04.1) date 2020-09-08 11:45:58*
%MOMM*%
%LPD*%
G01*
G04 APERTURE LIST*
%ADD10C,0.010000*%
%ADD11C,0.120000*%
%ADD12C,0.150000*%
G04 APERTURE END LIST*
D10*
%TO.C,REF\u002A\u002A*%
G36*
X209820808Y-228965166D02*
G01*
X209733015Y-229008540D01*
X209624751Y-229084122D01*
X209545845Y-229166542D01*
X209491805Y-229270037D01*
X209458141Y-229408843D01*
X209440363Y-229597194D01*
X209433980Y-229849328D01*
X209433607Y-229957724D01*
X209434696Y-230195287D01*
X209439222Y-230365068D01*
X209449068Y-230482550D01*
X209466118Y-230563215D01*
X209492259Y-230622545D01*
X209519458Y-230663020D01*
X209693080Y-230835225D01*
X209897538Y-230938806D01*
X210118104Y-230969960D01*
X210340046Y-230924885D01*
X210410360Y-230893009D01*
X210578689Y-230805271D01*
X210578689Y-232180172D01*
X210455838Y-232116643D01*
X210293967Y-232067491D01*
X210095005Y-232054900D01*
X209896328Y-232078147D01*
X209746290Y-232130370D01*
X209621841Y-232229826D01*
X209515508Y-232372143D01*
X209507513Y-232386755D01*
X209473793Y-232455582D01*
X209449166Y-232524956D01*
X209432214Y-232608996D01*
X209421519Y-232721816D01*
X209415662Y-232877533D01*
X209413227Y-233090265D01*
X209412787Y-233329664D01*
X209412787Y-234093443D01*
X209870820Y-234093443D01*
X209870820Y-232685108D01*
X209998933Y-232577308D01*
X210132018Y-232491079D01*
X210258048Y-232475401D01*
X210384778Y-232515747D01*
X210452317Y-232555254D01*
X210502586Y-232611527D01*
X210538338Y-232696572D01*
X210562328Y-232822394D01*
X210577311Y-233000998D01*
X210586040Y-233244391D01*
X210589114Y-233406394D01*
X210599508Y-234072623D01*
X210818115Y-234085209D01*
X211036721Y-234097795D01*
X211036721Y-229963464D01*
X210578689Y-229963464D01*
X210567011Y-230193953D01*
X210527662Y-230353950D01*
X210454166Y-230453497D01*
X210340049Y-230502639D01*
X210224754Y-230512459D01*
X210094238Y-230501175D01*
X210007617Y-230456764D01*
X209953451Y-230398081D01*
X209910810Y-230334962D01*
X209885426Y-230264645D01*
X209874131Y-230166123D01*
X209873760Y-230018387D01*
X209877560Y-229894683D01*
X209886288Y-229708328D01*
X209899280Y-229585982D01*
X209921159Y-229508377D01*
X209956546Y-229456245D01*
X209989941Y-229426111D01*
X210129475Y-229360399D01*
X210294619Y-229349787D01*
X210389446Y-229372423D01*
X210483334Y-229452881D01*
X210545526Y-229609392D01*
X210575669Y-229840852D01*
X210578689Y-229963464D01*
X211036721Y-229963464D01*
X211036721Y-228930164D01*
X210807705Y-228930164D01*
X210670206Y-228935602D01*
X210599267Y-228954909D01*
X210578697Y-228992576D01*
X210578689Y-228993692D01*
X210569145Y-229030581D01*
X210527051Y-229026393D01*
X210443361Y-228985859D01*
X210248354Y-228923850D01*
X210028954Y-228917332D01*
X209820808Y-228965166D01*
G37*
X209820808Y-228965166D02*
X209733015Y-229008540D01*
X209624751Y-229084122D01*
X209545845Y-229166542D01*
X209491805Y-229270037D01*
X209458141Y-229408843D01*
X209440363Y-229597194D01*
X209433980Y-229849328D01*
X209433607Y-229957724D01*
X209434696Y-230195287D01*
X209439222Y-230365068D01*
X209449068Y-230482550D01*
X209466118Y-230563215D01*
X209492259Y-230622545D01*
X209519458Y-230663020D01*
X209693080Y-230835225D01*
X209897538Y-230938806D01*
X210118104Y-230969960D01*
X210340046Y-230924885D01*
X210410360Y-230893009D01*
X210578689Y-230805271D01*
X210578689Y-232180172D01*
X210455838Y-232116643D01*
X210293967Y-232067491D01*
X210095005Y-232054900D01*
X209896328Y-232078147D01*
X209746290Y-232130370D01*
X209621841Y-232229826D01*
X209515508Y-232372143D01*
X209507513Y-232386755D01*
X209473793Y-232455582D01*
X209449166Y-232524956D01*
X209432214Y-232608996D01*
X209421519Y-232721816D01*
X209415662Y-232877533D01*
X209413227Y-233090265D01*
X209412787Y-233329664D01*
X209412787Y-234093443D01*
X209870820Y-234093443D01*
X209870820Y-232685108D01*
X209998933Y-232577308D01*
X210132018Y-232491079D01*
X210258048Y-232475401D01*
X210384778Y-232515747D01*
X210452317Y-232555254D01*
X210502586Y-232611527D01*
X210538338Y-232696572D01*
X210562328Y-232822394D01*
X210577311Y-233000998D01*
X210586040Y-233244391D01*
X210589114Y-233406394D01*
X210599508Y-234072623D01*
X210818115Y-234085209D01*
X211036721Y-234097795D01*
X211036721Y-229963464D01*
X210578689Y-229963464D01*
X210567011Y-230193953D01*
X210527662Y-230353950D01*
X210454166Y-230453497D01*
X210340049Y-230502639D01*
X210224754Y-230512459D01*
X210094238Y-230501175D01*
X210007617Y-230456764D01*
X209953451Y-230398081D01*
X209910810Y-230334962D01*
X209885426Y-230264645D01*
X209874131Y-230166123D01*
X209873760Y-230018387D01*
X209877560Y-229894683D01*
X209886288Y-229708328D01*
X209899280Y-229585982D01*
X209921159Y-229508377D01*
X209956546Y-229456245D01*
X209989941Y-229426111D01*
X210129475Y-229360399D01*
X210294619Y-229349787D01*
X210389446Y-229372423D01*
X210483334Y-229452881D01*
X210545526Y-229609392D01*
X210575669Y-229840852D01*
X210578689Y-229963464D01*
X211036721Y-229963464D01*
X211036721Y-228930164D01*
X210807705Y-228930164D01*
X210670206Y-228935602D01*
X210599267Y-228954909D01*
X210578697Y-228992576D01*
X210578689Y-228993692D01*
X210569145Y-229030581D01*
X210527051Y-229026393D01*
X210443361Y-228985859D01*
X210248354Y-228923850D01*
X210028954Y-228917332D01*
X209820808Y-228965166D01*
G36*
X208083779Y-232069247D02*
G01*
X207887889Y-232121514D01*
X207738767Y-232216253D01*
X207633535Y-232340338D01*
X207600821Y-232393296D01*
X207576669Y-232448768D01*
X207559784Y-232519730D01*
X207548873Y-232619154D01*
X207542640Y-232760016D01*
X207539791Y-232955289D01*
X207539032Y-233217948D01*
X207539016Y-233287633D01*
X207539016Y-234093443D01*
X207738885Y-234093443D01*
X207866370Y-234084515D01*
X207960634Y-234061896D01*
X207984251Y-234047946D01*
X208048815Y-234023870D01*
X208114759Y-234047946D01*
X208223332Y-234078003D01*
X208381042Y-234090100D01*
X208555844Y-234084851D01*
X208715693Y-234062869D01*
X208809016Y-234034663D01*
X208989609Y-233918731D01*
X209102470Y-233757847D01*
X209153209Y-233543936D01*
X209153680Y-233538443D01*
X209149227Y-233443547D01*
X208746557Y-233443547D01*
X208711354Y-233551484D01*
X208654014Y-233612229D01*
X208538913Y-233658172D01*
X208386986Y-233676512D01*
X208232061Y-233667485D01*
X208107964Y-233631332D01*
X208073197Y-233608137D01*
X208012444Y-233500960D01*
X207997049Y-233379120D01*
X207997049Y-233219017D01*
X208227403Y-233219017D01*
X208446241Y-233235863D01*
X208612137Y-233283593D01*
X208715338Y-233357986D01*
X208746557Y-233443547D01*
X209149227Y-233443547D01*
X209142713Y-233304731D01*
X209065631Y-233119946D01*
X208920714Y-232980206D01*
X208900683Y-232967495D01*
X208814610Y-232926105D01*
X208708073Y-232901041D01*
X208559141Y-232888858D01*
X208382213Y-232886057D01*
X207997049Y-232885902D01*
X207997049Y-232724443D01*
X208013387Y-232599168D01*
X208055078Y-232515241D01*
X208059959Y-232510773D01*
X208152736Y-232474059D01*
X208292784Y-232459828D01*
X208447555Y-232466821D01*
X208584499Y-232493780D01*
X208665759Y-232534212D01*
X208709790Y-232566601D01*
X208756285Y-232572784D01*
X208820451Y-232546248D01*
X208917495Y-232480479D01*
X209062626Y-232368963D01*
X209075947Y-232358516D01*
X209069121Y-232319862D01*
X209012178Y-232255572D01*
X208925630Y-232184131D01*
X208829992Y-232124021D01*
X208799944Y-232109827D01*
X208690341Y-232081503D01*
X208529735Y-232061300D01*
X208350302Y-232053196D01*
X208341911Y-232053180D01*
X208083779Y-232069247D01*
G37*
X208083779Y-232069247D02*
X207887889Y-232121514D01*
X207738767Y-232216253D01*
X207633535Y-232340338D01*
X207600821Y-232393296D01*
X207576669Y-232448768D01*
X207559784Y-232519730D01*
X207548873Y-232619154D01*
X207542640Y-232760016D01*
X207539791Y-232955289D01*
X207539032Y-233217948D01*
X207539016Y-233287633D01*
X207539016Y-234093443D01*
X207738885Y-234093443D01*
X207866370Y-234084515D01*
X207960634Y-234061896D01*
X207984251Y-234047946D01*
X208048815Y-234023870D01*
X208114759Y-234047946D01*
X208223332Y-234078003D01*
X208381042Y-234090100D01*
X208555844Y-234084851D01*
X208715693Y-234062869D01*
X208809016Y-234034663D01*
X208989609Y-233918731D01*
X209102470Y-233757847D01*
X209153209Y-233543936D01*
X209153680Y-233538443D01*
X209149227Y-233443547D01*
X208746557Y-233443547D01*
X208711354Y-233551484D01*
X208654014Y-233612229D01*
X208538913Y-233658172D01*
X208386986Y-233676512D01*
X208232061Y-233667485D01*
X208107964Y-233631332D01*
X208073197Y-233608137D01*
X208012444Y-233500960D01*
X207997049Y-233379120D01*
X207997049Y-233219017D01*
X208227403Y-233219017D01*
X208446241Y-233235863D01*
X208612137Y-233283593D01*
X208715338Y-233357986D01*
X208746557Y-233443547D01*
X209149227Y-233443547D01*
X209142713Y-233304731D01*
X209065631Y-233119946D01*
X208920714Y-232980206D01*
X208900683Y-232967495D01*
X208814610Y-232926105D01*
X208708073Y-232901041D01*
X208559141Y-232888858D01*
X208382213Y-232886057D01*
X207997049Y-232885902D01*
X207997049Y-232724443D01*
X208013387Y-232599168D01*
X208055078Y-232515241D01*
X208059959Y-232510773D01*
X208152736Y-232474059D01*
X208292784Y-232459828D01*
X208447555Y-232466821D01*
X208584499Y-232493780D01*
X208665759Y-232534212D01*
X208709790Y-232566601D01*
X208756285Y-232572784D01*
X208820451Y-232546248D01*
X208917495Y-232480479D01*
X209062626Y-232368963D01*
X209075947Y-232358516D01*
X209069121Y-232319862D01*
X209012178Y-232255572D01*
X208925630Y-232184131D01*
X208829992Y-232124021D01*
X208799944Y-232109827D01*
X208690341Y-232081503D01*
X208529735Y-232061300D01*
X208350302Y-232053196D01*
X208341911Y-232053180D01*
X208083779Y-232069247D01*
G36*
X206789475Y-232057540D02*
G01*
X206727163Y-232076218D01*
X206707075Y-232117255D01*
X206706230Y-232135782D01*
X206702625Y-232187383D01*
X206677800Y-232195484D01*
X206610737Y-232160108D01*
X206570902Y-232135937D01*
X206445227Y-232084175D01*
X206295123Y-232058581D01*
X206137737Y-232056613D01*
X205990214Y-232075729D01*
X205869700Y-232113387D01*
X205793340Y-232167044D01*
X205778281Y-232234158D01*
X205785881Y-232252333D01*
X205841282Y-232327777D01*
X205927190Y-232420568D01*
X205942728Y-232435568D01*
X206024612Y-232504540D01*
X206095263Y-232526825D01*
X206194068Y-232511272D01*
X206233652Y-232500938D01*
X206356828Y-232476116D01*
X206443436Y-232487278D01*
X206516576Y-232526646D01*
X206583574Y-232579479D01*
X206632918Y-232645924D01*
X206667209Y-232738652D01*
X206689048Y-232870334D01*
X206701034Y-233053641D01*
X206705769Y-233301246D01*
X206706230Y-233450744D01*
X206706230Y-234093443D01*
X207122623Y-234093443D01*
X207122623Y-232053115D01*
X206914426Y-232053115D01*
X206789475Y-232057540D01*
G37*
X206789475Y-232057540D02*
X206727163Y-232076218D01*
X206707075Y-232117255D01*
X206706230Y-232135782D01*
X206702625Y-232187383D01*
X206677800Y-232195484D01*
X206610737Y-232160108D01*
X206570902Y-232135937D01*
X206445227Y-232084175D01*
X206295123Y-232058581D01*
X206137737Y-232056613D01*
X205990214Y-232075729D01*
X205869700Y-232113387D01*
X205793340Y-232167044D01*
X205778281Y-232234158D01*
X205785881Y-232252333D01*
X205841282Y-232327777D01*
X205927190Y-232420568D01*
X205942728Y-232435568D01*
X206024612Y-232504540D01*
X206095263Y-232526825D01*
X206194068Y-232511272D01*
X206233652Y-232500938D01*
X206356828Y-232476116D01*
X206443436Y-232487278D01*
X206516576Y-232526646D01*
X206583574Y-232579479D01*
X206632918Y-232645924D01*
X206667209Y-232738652D01*
X206689048Y-232870334D01*
X206701034Y-233053641D01*
X206705769Y-233301246D01*
X206706230Y-233450744D01*
X206706230Y-234093443D01*
X207122623Y-234093443D01*
X207122623Y-232053115D01*
X206914426Y-232053115D01*
X206789475Y-232057540D01*
G36*
X204166230Y-234093443D02*
G01*
X204395246Y-234093443D01*
X204528175Y-234089546D01*
X204597405Y-234073407D01*
X204622332Y-234038354D01*
X204624262Y-234014653D01*
X204628466Y-233967123D01*
X204654974Y-233958008D01*
X204724633Y-233987308D01*
X204778804Y-234014653D01*
X204986777Y-234079451D01*
X205212853Y-234083201D01*
X205396655Y-234034873D01*
X205567813Y-233918118D01*
X205698284Y-233745781D01*
X205769727Y-233542506D01*
X205771546Y-233531141D01*
X205782161Y-233407136D01*
X205787440Y-233229117D01*
X205787016Y-233094480D01*
X205332172Y-233094480D01*
X205321635Y-233273428D01*
X205297666Y-233420924D01*
X205265217Y-233504217D01*
X205142456Y-233618041D01*
X204996701Y-233658845D01*
X204846393Y-233625848D01*
X204717951Y-233527422D01*
X204669308Y-233461224D01*
X204640866Y-233382231D01*
X204627544Y-233266926D01*
X204624262Y-233093736D01*
X204630135Y-232922229D01*
X204645647Y-232771540D01*
X204667638Y-232670698D01*
X204671303Y-232661659D01*
X204759988Y-232554195D01*
X204889428Y-232495195D01*
X205034257Y-232485669D01*
X205169109Y-232526626D01*
X205268617Y-232619076D01*
X205278940Y-232637473D01*
X205311250Y-232749646D01*
X205328852Y-232910934D01*
X205332172Y-233094480D01*
X205787016Y-233094480D01*
X205786800Y-233026212D01*
X205783806Y-232917010D01*
X205763442Y-232646856D01*
X205721117Y-232444024D01*
X205650706Y-232294077D01*
X205546088Y-232182579D01*
X205444521Y-232117127D01*
X205302616Y-232071117D01*
X205126121Y-232055336D01*
X204945393Y-232068190D01*
X204790787Y-232108081D01*
X204709101Y-232155801D01*
X204624262Y-232232579D01*
X204624262Y-231261967D01*
X204166230Y-231261967D01*
X204166230Y-234093443D01*
G37*
X204166230Y-234093443D02*
X204395246Y-234093443D01*
X204528175Y-234089546D01*
X204597405Y-234073407D01*
X204622332Y-234038354D01*
X204624262Y-234014653D01*
X204628466Y-233967123D01*
X204654974Y-233958008D01*
X204724633Y-233987308D01*
X204778804Y-234014653D01*
X204986777Y-234079451D01*
X205212853Y-234083201D01*
X205396655Y-234034873D01*
X205567813Y-233918118D01*
X205698284Y-233745781D01*
X205769727Y-233542506D01*
X205771546Y-233531141D01*
X205782161Y-233407136D01*
X205787440Y-233229117D01*
X205787016Y-233094480D01*
X205332172Y-233094480D01*
X205321635Y-233273428D01*
X205297666Y-233420924D01*
X205265217Y-233504217D01*
X205142456Y-233618041D01*
X204996701Y-233658845D01*
X204846393Y-233625848D01*
X204717951Y-233527422D01*
X204669308Y-233461224D01*
X204640866Y-233382231D01*
X204627544Y-233266926D01*
X204624262Y-233093736D01*
X204630135Y-232922229D01*
X204645647Y-232771540D01*
X204667638Y-232670698D01*
X204671303Y-232661659D01*
X204759988Y-232554195D01*
X204889428Y-232495195D01*
X205034257Y-232485669D01*
X205169109Y-232526626D01*
X205268617Y-232619076D01*
X205278940Y-232637473D01*
X205311250Y-232749646D01*
X205328852Y-232910934D01*
X205332172Y-233094480D01*
X205787016Y-233094480D01*
X205786800Y-233026212D01*
X205783806Y-232917010D01*
X205763442Y-232646856D01*
X205721117Y-232444024D01*
X205650706Y-232294077D01*
X205546088Y-232182579D01*
X205444521Y-232117127D01*
X205302616Y-232071117D01*
X205126121Y-232055336D01*
X204945393Y-232068190D01*
X204790787Y-232108081D01*
X204709101Y-232155801D01*
X204624262Y-232232579D01*
X204624262Y-231261967D01*
X204166230Y-231261967D01*
X204166230Y-234093443D01*
G36*
X202403058Y-232073935D02*
G01*
X202187752Y-232719344D01*
X201972445Y-233364754D01*
X201904936Y-233135738D01*
X201864309Y-232994204D01*
X201810867Y-232802936D01*
X201753158Y-232592693D01*
X201722645Y-232479918D01*
X201607864Y-232053115D01*
X201134313Y-232053115D01*
X201275861Y-232500738D01*
X201345567Y-232720903D01*
X201429777Y-232986471D01*
X201517719Y-233263492D01*
X201596228Y-233510492D01*
X201775048Y-234072623D01*
X201968118Y-234085185D01*
X202161189Y-234097746D01*
X202265882Y-233752070D01*
X202330447Y-233537335D01*
X202400908Y-233300604D01*
X202462489Y-233091526D01*
X202464919Y-233083205D01*
X202510915Y-232941537D01*
X202551497Y-232844874D01*
X202579920Y-232808321D01*
X202585761Y-232812549D01*
X202606262Y-232869217D01*
X202645215Y-232990605D01*
X202697878Y-233161448D01*
X202759509Y-233366482D01*
X202792857Y-233479262D01*
X202973454Y-234093443D01*
X203356733Y-234093443D01*
X203663133Y-233125328D01*
X203749209Y-232853759D01*
X203827620Y-232607138D01*
X203894661Y-232397048D01*
X203946631Y-232235076D01*
X203979826Y-232132808D01*
X203989916Y-232102928D01*
X203981928Y-232072334D01*
X203919208Y-232058935D01*
X203788685Y-232060275D01*
X203768253Y-232061288D01*
X203526208Y-232073935D01*
X203367683Y-232656885D01*
X203309415Y-232869486D01*
X203257345Y-233056377D01*
X203216056Y-233201331D01*
X203190134Y-233288120D01*
X203185344Y-233302269D01*
X203165496Y-233285998D01*
X203125470Y-233201697D01*
X203069862Y-233060842D01*
X203003269Y-232874911D01*
X202946976Y-232706956D01*
X202732422Y-232049209D01*
X202403058Y-232073935D01*
G37*
X202403058Y-232073935D02*
X202187752Y-232719344D01*
X201972445Y-233364754D01*
X201904936Y-233135738D01*
X201864309Y-232994204D01*
X201810867Y-232802936D01*
X201753158Y-232592693D01*
X201722645Y-232479918D01*
X201607864Y-232053115D01*
X201134313Y-232053115D01*
X201275861Y-232500738D01*
X201345567Y-232720903D01*
X201429777Y-232986471D01*
X201517719Y-233263492D01*
X201596228Y-233510492D01*
X201775048Y-234072623D01*
X201968118Y-234085185D01*
X202161189Y-234097746D01*
X202265882Y-233752070D01*
X202330447Y-233537335D01*
X202400908Y-233300604D01*
X202462489Y-233091526D01*
X202464919Y-233083205D01*
X202510915Y-232941537D01*
X202551497Y-232844874D01*
X202579920Y-232808321D01*
X202585761Y-232812549D01*
X202606262Y-232869217D01*
X202645215Y-232990605D01*
X202697878Y-233161448D01*
X202759509Y-233366482D01*
X202792857Y-233479262D01*
X202973454Y-234093443D01*
X203356733Y-234093443D01*
X203663133Y-233125328D01*
X203749209Y-232853759D01*
X203827620Y-232607138D01*
X203894661Y-232397048D01*
X203946631Y-232235076D01*
X203979826Y-232132808D01*
X203989916Y-232102928D01*
X203981928Y-232072334D01*
X203919208Y-232058935D01*
X203788685Y-232060275D01*
X203768253Y-232061288D01*
X203526208Y-232073935D01*
X203367683Y-232656885D01*
X203309415Y-232869486D01*
X203257345Y-233056377D01*
X203216056Y-233201331D01*
X203190134Y-233288120D01*
X203185344Y-233302269D01*
X203165496Y-233285998D01*
X203125470Y-233201697D01*
X203069862Y-233060842D01*
X203003269Y-232874911D01*
X202946976Y-232706956D01*
X202732422Y-232049209D01*
X202403058Y-232073935D01*
G36*
X200061330Y-232065480D02*
G01*
X199885821Y-232108109D01*
X199835088Y-232130693D01*
X199736746Y-232189847D01*
X199661273Y-232256472D01*
X199605429Y-232342135D01*
X199565974Y-232458405D01*
X199539668Y-232616848D01*
X199523271Y-232829034D01*
X199513543Y-233106529D01*
X199509849Y-233291885D01*
X199496255Y-234093443D01*
X199728456Y-234093443D01*
X199869323Y-234087536D01*
X199941898Y-234067350D01*
X199960656Y-234033453D01*
X199970559Y-233996799D01*
X200014834Y-234003807D01*
X200075164Y-234033197D01*
X200226197Y-234078246D01*
X200420307Y-234090385D01*
X200624469Y-234070529D01*
X200805660Y-234019592D01*
X200821911Y-234012522D01*
X200987509Y-233896188D01*
X201096676Y-233734467D01*
X201146909Y-233545430D01*
X201143072Y-233477515D01*
X200733237Y-233477515D01*
X200697125Y-233568914D01*
X200590058Y-233634411D01*
X200417316Y-233669563D01*
X200325000Y-233674231D01*
X200171150Y-233662282D01*
X200068885Y-233615844D01*
X200043934Y-233593771D01*
X199976339Y-233473681D01*
X199960656Y-233364754D01*
X199960656Y-233219017D01*
X200163648Y-233219017D01*
X200399613Y-233231043D01*
X200565119Y-233268871D01*
X200669695Y-233335121D01*
X200693109Y-233364656D01*
X200733237Y-233477515D01*
X201143072Y-233477515D01*
X201135705Y-233347148D01*
X201060560Y-233157692D01*
X200958032Y-233029656D01*
X200895935Y-232974302D01*
X200835145Y-232937924D01*
X200756048Y-232915744D01*
X200639029Y-232902982D01*
X200464473Y-232894857D01*
X200395237Y-232892521D01*
X199960656Y-232878321D01*
X199961293Y-232746784D01*
X199978124Y-232608519D01*
X200038974Y-232524917D01*
X200161905Y-232471507D01*
X200165203Y-232470555D01*
X200339496Y-232449555D01*
X200510048Y-232476985D01*
X200636800Y-232543689D01*
X200687658Y-232576625D01*
X200742435Y-232572068D01*
X200826728Y-232524349D01*
X200876227Y-232490671D01*
X200973045Y-232418716D01*
X201033018Y-232364779D01*
X201042641Y-232349337D01*
X201003015Y-232269424D01*
X200885936Y-232173989D01*
X200835082Y-232141789D01*
X200688887Y-232086332D01*
X200491863Y-232054913D01*
X200273011Y-232047855D01*
X200061330Y-232065480D01*
G37*
X200061330Y-232065480D02*
X199885821Y-232108109D01*
X199835088Y-232130693D01*
X199736746Y-232189847D01*
X199661273Y-232256472D01*
X199605429Y-232342135D01*
X199565974Y-232458405D01*
X199539668Y-232616848D01*
X199523271Y-232829034D01*
X199513543Y-233106529D01*
X199509849Y-233291885D01*
X199496255Y-234093443D01*
X199728456Y-234093443D01*
X199869323Y-234087536D01*
X199941898Y-234067350D01*
X199960656Y-234033453D01*
X199970559Y-233996799D01*
X200014834Y-234003807D01*
X200075164Y-234033197D01*
X200226197Y-234078246D01*
X200420307Y-234090385D01*
X200624469Y-234070529D01*
X200805660Y-234019592D01*
X200821911Y-234012522D01*
X200987509Y-233896188D01*
X201096676Y-233734467D01*
X201146909Y-233545430D01*
X201143072Y-233477515D01*
X200733237Y-233477515D01*
X200697125Y-233568914D01*
X200590058Y-233634411D01*
X200417316Y-233669563D01*
X200325000Y-233674231D01*
X200171150Y-233662282D01*
X200068885Y-233615844D01*
X200043934Y-233593771D01*
X199976339Y-233473681D01*
X199960656Y-233364754D01*
X199960656Y-233219017D01*
X200163648Y-233219017D01*
X200399613Y-233231043D01*
X200565119Y-233268871D01*
X200669695Y-233335121D01*
X200693109Y-233364656D01*
X200733237Y-233477515D01*
X201143072Y-233477515D01*
X201135705Y-233347148D01*
X201060560Y-233157692D01*
X200958032Y-233029656D01*
X200895935Y-232974302D01*
X200835145Y-232937924D01*
X200756048Y-232915744D01*
X200639029Y-232902982D01*
X200464473Y-232894857D01*
X200395237Y-232892521D01*
X199960656Y-232878321D01*
X199961293Y-232746784D01*
X199978124Y-232608519D01*
X200038974Y-232524917D01*
X200161905Y-232471507D01*
X200165203Y-232470555D01*
X200339496Y-232449555D01*
X200510048Y-232476985D01*
X200636800Y-232543689D01*
X200687658Y-232576625D01*
X200742435Y-232572068D01*
X200826728Y-232524349D01*
X200876227Y-232490671D01*
X200973045Y-232418716D01*
X201033018Y-232364779D01*
X201042641Y-232349337D01*
X201003015Y-232269424D01*
X200885936Y-232173989D01*
X200835082Y-232141789D01*
X200688887Y-232086332D01*
X200491863Y-232054913D01*
X200273011Y-232047855D01*
X200061330Y-232065480D01*
G36*
X198084893Y-232052460D02*
G01*
X197924818Y-232084017D01*
X197833688Y-232130743D01*
X197737821Y-232208370D01*
X197874213Y-232380579D01*
X197958306Y-232484867D01*
X198015408Y-232535746D01*
X198072156Y-232543519D01*
X198155189Y-232518488D01*
X198194167Y-232504327D01*
X198353074Y-232483433D01*
X198498601Y-232528220D01*
X198605440Y-232629399D01*
X198622795Y-232661659D01*
X198641697Y-232747115D01*
X198656284Y-232904606D01*
X198665874Y-233122969D01*
X198669781Y-233391038D01*
X198669836Y-233429172D01*
X198669836Y-234093443D01*
X199127869Y-234093443D01*
X199127869Y-232053115D01*
X198898852Y-232053115D01*
X198766801Y-232056563D01*
X198698008Y-232071907D01*
X198672570Y-232106648D01*
X198669836Y-232139416D01*
X198669836Y-232225717D01*
X198560122Y-232139416D01*
X198434320Y-232080538D01*
X198265319Y-232051426D01*
X198084893Y-232052460D01*
G37*
X198084893Y-232052460D02*
X197924818Y-232084017D01*
X197833688Y-232130743D01*
X197737821Y-232208370D01*
X197874213Y-232380579D01*
X197958306Y-232484867D01*
X198015408Y-232535746D01*
X198072156Y-232543519D01*
X198155189Y-232518488D01*
X198194167Y-232504327D01*
X198353074Y-232483433D01*
X198498601Y-232528220D01*
X198605440Y-232629399D01*
X198622795Y-232661659D01*
X198641697Y-232747115D01*
X198656284Y-232904606D01*
X198665874Y-233122969D01*
X198669781Y-233391038D01*
X198669836Y-233429172D01*
X198669836Y-234093443D01*
X199127869Y-234093443D01*
X199127869Y-232053115D01*
X198898852Y-232053115D01*
X198766801Y-232056563D01*
X198698008Y-232071907D01*
X198672570Y-232106648D01*
X198669836Y-232139416D01*
X198669836Y-232225717D01*
X198560122Y-232139416D01*
X198434320Y-232080538D01*
X198265319Y-232051426D01*
X198084893Y-232052460D01*
G36*
X196769158Y-232063999D02*
G01*
X196570124Y-232115746D01*
X196403439Y-232222544D01*
X196322731Y-232302326D01*
X196190432Y-232490931D01*
X196114610Y-232709720D01*
X196088562Y-232978668D01*
X196088429Y-233000410D01*
X196088197Y-233219017D01*
X197346405Y-233219017D01*
X197319585Y-233333525D01*
X197271159Y-233437232D01*
X197186404Y-233545290D01*
X197168677Y-233562541D01*
X197016320Y-233655904D01*
X196842576Y-233671738D01*
X196642589Y-233610313D01*
X196608689Y-233593771D01*
X196504712Y-233543484D01*
X196435069Y-233514834D01*
X196422917Y-233512184D01*
X196380499Y-233537913D01*
X196299601Y-233600861D01*
X196258535Y-233635259D01*
X196173440Y-233714276D01*
X196145497Y-233766451D01*
X196164890Y-233814446D01*
X196175257Y-233827570D01*
X196245469Y-233885008D01*
X196361326Y-233954813D01*
X196442131Y-233995564D01*
X196671499Y-234067362D01*
X196925436Y-234090625D01*
X197165926Y-234063059D01*
X197233279Y-234043321D01*
X197441738Y-233931612D01*
X197596254Y-233759721D01*
X197697722Y-233525979D01*
X197747035Y-233228716D01*
X197752449Y-233073279D01*
X197736641Y-232846973D01*
X197337377Y-232846973D01*
X197298760Y-232863702D01*
X197194958Y-232876829D01*
X197044044Y-232884575D01*
X196941803Y-232885902D01*
X196757899Y-232884623D01*
X196641826Y-232878638D01*
X196578148Y-232864724D01*
X196551433Y-232839655D01*
X196546230Y-232803280D01*
X196581927Y-232691229D01*
X196671804Y-232580488D01*
X196790034Y-232495489D01*
X196908310Y-232460718D01*
X197068956Y-232491563D01*
X197208022Y-232580732D01*
X197304443Y-232709263D01*
X197337377Y-232846973D01*
X197736641Y-232846973D01*
X197729428Y-232743733D01*
X197658376Y-232481175D01*
X197537790Y-232283525D01*
X197366166Y-232148702D01*
X197142002Y-232074626D01*
X197020562Y-232060360D01*
X196769158Y-232063999D01*
G37*
X196769158Y-232063999D02*
X196570124Y-232115746D01*
X196403439Y-232222544D01*
X196322731Y-232302326D01*
X196190432Y-232490931D01*
X196114610Y-232709720D01*
X196088562Y-232978668D01*
X196088429Y-233000410D01*
X196088197Y-233219017D01*
X197346405Y-233219017D01*
X197319585Y-233333525D01*
X197271159Y-233437232D01*
X197186404Y-233545290D01*
X197168677Y-233562541D01*
X197016320Y-233655904D01*
X196842576Y-233671738D01*
X196642589Y-233610313D01*
X196608689Y-233593771D01*
X196504712Y-233543484D01*
X196435069Y-233514834D01*
X196422917Y-233512184D01*
X196380499Y-233537913D01*
X196299601Y-233600861D01*
X196258535Y-233635259D01*
X196173440Y-233714276D01*
X196145497Y-233766451D01*
X196164890Y-233814446D01*
X196175257Y-233827570D01*
X196245469Y-233885008D01*
X196361326Y-233954813D01*
X196442131Y-233995564D01*
X196671499Y-234067362D01*
X196925436Y-234090625D01*
X197165926Y-234063059D01*
X197233279Y-234043321D01*
X197441738Y-233931612D01*
X197596254Y-233759721D01*
X197697722Y-233525979D01*
X197747035Y-233228716D01*
X197752449Y-233073279D01*
X197736641Y-232846973D01*
X197337377Y-232846973D01*
X197298760Y-232863702D01*
X197194958Y-232876829D01*
X197044044Y-232884575D01*
X196941803Y-232885902D01*
X196757899Y-232884623D01*
X196641826Y-232878638D01*
X196578148Y-232864724D01*
X196551433Y-232839655D01*
X196546230Y-232803280D01*
X196581927Y-232691229D01*
X196671804Y-232580488D01*
X196790034Y-232495489D01*
X196908310Y-232460718D01*
X197068956Y-232491563D01*
X197208022Y-232580732D01*
X197304443Y-232709263D01*
X197337377Y-232846973D01*
X197736641Y-232846973D01*
X197729428Y-232743733D01*
X197658376Y-232481175D01*
X197537790Y-232283525D01*
X197366166Y-232148702D01*
X197142002Y-232074626D01*
X197020562Y-232060360D01*
X196769158Y-232063999D01*
G36*
X211905390Y-228951802D02*
G01*
X211687553Y-229048108D01*
X211522184Y-229208919D01*
X211409043Y-229434482D01*
X211347888Y-229725042D01*
X211343505Y-229770408D01*
X211340070Y-230090256D01*
X211384602Y-230370614D01*
X211474391Y-230597847D01*
X211522471Y-230670941D01*
X211689945Y-230825643D01*
X211903232Y-230925838D01*
X212141846Y-230967418D01*
X212385303Y-230946272D01*
X212570370Y-230881145D01*
X212729521Y-230771393D01*
X212859596Y-230627496D01*
X212861846Y-230624130D01*
X212914670Y-230535314D01*
X212948999Y-230446005D01*
X212969788Y-230333294D01*
X212981991Y-230174273D01*
X212987367Y-230043868D01*
X212989605Y-229925611D01*
X212573294Y-229925611D01*
X212569225Y-230043335D01*
X212554455Y-230200049D01*
X212528398Y-230300621D01*
X212481407Y-230372173D01*
X212437397Y-230413971D01*
X212281377Y-230501484D01*
X212118131Y-230513179D01*
X211966096Y-230450212D01*
X211890080Y-230379653D01*
X211835303Y-230308550D01*
X211803263Y-230240512D01*
X211789200Y-230151967D01*
X211788358Y-230019339D01*
X211792691Y-229897195D01*
X211802011Y-229722710D01*
X211816788Y-229609538D01*
X211843420Y-229535721D01*
X211888309Y-229479298D01*
X211923880Y-229447050D01*
X212072671Y-229362340D01*
X212233187Y-229358117D01*
X212367780Y-229408292D01*
X212482600Y-229513075D01*
X212551004Y-229685198D01*
X212573294Y-229925611D01*
X212989605Y-229925611D01*
X212992276Y-229784548D01*
X212983893Y-229590610D01*
X212958772Y-229444745D01*
X212913468Y-229329641D01*
X212844536Y-229227986D01*
X212818978Y-229197802D01*
X212659175Y-229047412D01*
X212487769Y-228959566D01*
X212278151Y-228922762D01*
X212175936Y-228919754D01*
X211905390Y-228951802D01*
G37*
X211905390Y-228951802D02*
X211687553Y-229048108D01*
X211522184Y-229208919D01*
X211409043Y-229434482D01*
X211347888Y-229725042D01*
X211343505Y-229770408D01*
X211340070Y-230090256D01*
X211384602Y-230370614D01*
X211474391Y-230597847D01*
X211522471Y-230670941D01*
X211689945Y-230825643D01*
X211903232Y-230925838D01*
X212141846Y-230967418D01*
X212385303Y-230946272D01*
X212570370Y-230881145D01*
X212729521Y-230771393D01*
X212859596Y-230627496D01*
X212861846Y-230624130D01*
X212914670Y-230535314D01*
X212948999Y-230446005D01*
X212969788Y-230333294D01*
X212981991Y-230174273D01*
X212987367Y-230043868D01*
X212989605Y-229925611D01*
X212573294Y-229925611D01*
X212569225Y-230043335D01*
X212554455Y-230200049D01*
X212528398Y-230300621D01*
X212481407Y-230372173D01*
X212437397Y-230413971D01*
X212281377Y-230501484D01*
X212118131Y-230513179D01*
X211966096Y-230450212D01*
X211890080Y-230379653D01*
X211835303Y-230308550D01*
X211803263Y-230240512D01*
X211789200Y-230151967D01*
X211788358Y-230019339D01*
X211792691Y-229897195D01*
X211802011Y-229722710D01*
X211816788Y-229609538D01*
X211843420Y-229535721D01*
X211888309Y-229479298D01*
X211923880Y-229447050D01*
X212072671Y-229362340D01*
X212233187Y-229358117D01*
X212367780Y-229408292D01*
X212482600Y-229513075D01*
X212551004Y-229685198D01*
X212573294Y-229925611D01*
X212989605Y-229925611D01*
X212992276Y-229784548D01*
X212983893Y-229590610D01*
X212958772Y-229444745D01*
X212913468Y-229329641D01*
X212844536Y-229227986D01*
X212818978Y-229197802D01*
X212659175Y-229047412D01*
X212487769Y-228959566D01*
X212278151Y-228922762D01*
X212175936Y-228919754D01*
X211905390Y-228951802D01*
G36*
X207992675Y-228976526D02*
G01*
X207951181Y-228996061D01*
X207807566Y-229101263D01*
X207671764Y-229254793D01*
X207570362Y-229423845D01*
X207541520Y-229501567D01*
X207515206Y-229640398D01*
X207499515Y-229808177D01*
X207497609Y-229877459D01*
X207497377Y-230096066D01*
X208755585Y-230096066D01*
X208728766Y-230210574D01*
X208662934Y-230346004D01*
X208547839Y-230463046D01*
X208410913Y-230538442D01*
X208323658Y-230554098D01*
X208205328Y-230535099D01*
X208064149Y-230487446D01*
X208016189Y-230465521D01*
X207838829Y-230376944D01*
X207687470Y-230492391D01*
X207600131Y-230570474D01*
X207553658Y-230634922D01*
X207551305Y-230653837D01*
X207592822Y-230699681D01*
X207683810Y-230769349D01*
X207766395Y-230823700D01*
X207989249Y-230921405D01*
X208239087Y-230965628D01*
X208486710Y-230954130D01*
X208684098Y-230894029D01*
X208887576Y-230765284D01*
X209032179Y-230595774D01*
X209122639Y-230376462D01*
X209163689Y-230098309D01*
X209167329Y-229971034D01*
X209152761Y-229679375D01*
X209150972Y-229670891D01*
X208734059Y-229670891D01*
X208722577Y-229698242D01*
X208675384Y-229713324D01*
X208578049Y-229719788D01*
X208416136Y-229721285D01*
X208353790Y-229721312D01*
X208164103Y-229719052D01*
X208043811Y-229710844D01*
X207979116Y-229694550D01*
X207956220Y-229668027D01*
X207955410Y-229659510D01*
X207981540Y-229591825D01*
X208046937Y-229497005D01*
X208075052Y-229463805D01*
X208179426Y-229369906D01*
X208288225Y-229332988D01*
X208346843Y-229329902D01*
X208505426Y-229368493D01*
X208638413Y-229472155D01*
X208722772Y-229622717D01*
X208724267Y-229627623D01*
X208734059Y-229670891D01*
X209150972Y-229670891D01*
X209104316Y-229449722D01*
X209017045Y-229265983D01*
X208910311Y-229135557D01*
X208712980Y-228994131D01*
X208481015Y-228918556D01*
X208234288Y-228911724D01*
X207992675Y-228976526D01*
G37*
X207992675Y-228976526D02*
X207951181Y-228996061D01*
X207807566Y-229101263D01*
X207671764Y-229254793D01*
X207570362Y-229423845D01*
X207541520Y-229501567D01*
X207515206Y-229640398D01*
X207499515Y-229808177D01*
X207497609Y-229877459D01*
X207497377Y-230096066D01*
X208755585Y-230096066D01*
X208728766Y-230210574D01*
X208662934Y-230346004D01*
X208547839Y-230463046D01*
X208410913Y-230538442D01*
X208323658Y-230554098D01*
X208205328Y-230535099D01*
X208064149Y-230487446D01*
X208016189Y-230465521D01*
X207838829Y-230376944D01*
X207687470Y-230492391D01*
X207600131Y-230570474D01*
X207553658Y-230634922D01*
X207551305Y-230653837D01*
X207592822Y-230699681D01*
X207683810Y-230769349D01*
X207766395Y-230823700D01*
X207989249Y-230921405D01*
X208239087Y-230965628D01*
X208486710Y-230954130D01*
X208684098Y-230894029D01*
X208887576Y-230765284D01*
X209032179Y-230595774D01*
X209122639Y-230376462D01*
X209163689Y-230098309D01*
X209167329Y-229971034D01*
X209152761Y-229679375D01*
X209150972Y-229670891D01*
X208734059Y-229670891D01*
X208722577Y-229698242D01*
X208675384Y-229713324D01*
X208578049Y-229719788D01*
X208416136Y-229721285D01*
X208353790Y-229721312D01*
X208164103Y-229719052D01*
X208043811Y-229710844D01*
X207979116Y-229694550D01*
X207956220Y-229668027D01*
X207955410Y-229659510D01*
X207981540Y-229591825D01*
X208046937Y-229497005D01*
X208075052Y-229463805D01*
X208179426Y-229369906D01*
X208288225Y-229332988D01*
X208346843Y-229329902D01*
X208505426Y-229368493D01*
X208638413Y-229472155D01*
X208722772Y-229622717D01*
X208724267Y-229627623D01*
X208734059Y-229670891D01*
X209150972Y-229670891D01*
X209104316Y-229449722D01*
X209017045Y-229265983D01*
X208910311Y-229135557D01*
X208712980Y-228994131D01*
X208481015Y-228918556D01*
X208234288Y-228911724D01*
X207992675Y-228976526D01*
G36*
X203453582Y-228923003D02*
G01*
X203295900Y-228952907D01*
X203132315Y-229015452D01*
X203114836Y-229023426D01*
X202990783Y-229088656D01*
X202904871Y-229149274D01*
X202877102Y-229188106D01*
X202903547Y-229251437D01*
X202967780Y-229344881D01*
X202996292Y-229379762D01*
X203113789Y-229517066D01*
X203265268Y-229427691D01*
X203409430Y-229368152D01*
X203576000Y-229336326D01*
X203735738Y-229334316D01*
X203859406Y-229364221D01*
X203889084Y-229382886D01*
X203945602Y-229468466D01*
X203952471Y-229567049D01*
X203910180Y-229644062D01*
X203885164Y-229658998D01*
X203810204Y-229677547D01*
X203678439Y-229699348D01*
X203516009Y-229720180D01*
X203486044Y-229723447D01*
X203225160Y-229768575D01*
X203035945Y-229845230D01*
X202910457Y-229960491D01*
X202840757Y-230121435D01*
X202819044Y-230318015D01*
X202849039Y-230541473D01*
X202946441Y-230716949D01*
X203111639Y-230844758D01*
X203345023Y-230925218D01*
X203604098Y-230956962D01*
X203815367Y-230956580D01*
X203986735Y-230927749D01*
X204103770Y-230887944D01*
X204251650Y-230818587D01*
X204388313Y-230738097D01*
X204436885Y-230702670D01*
X204561803Y-230600705D01*
X204260491Y-230295813D01*
X204089204Y-230409165D01*
X203917406Y-230494300D01*
X203733952Y-230538830D01*
X203557603Y-230543528D01*
X203407119Y-230509170D01*
X203301260Y-230436529D01*
X203267079Y-230375238D01*
X203272206Y-230276941D01*
X203357143Y-230201773D01*
X203521657Y-230149866D01*
X203701899Y-230125875D01*
X203979291Y-230080104D01*
X204185365Y-229993748D01*
X204322878Y-229864280D01*
X204394587Y-229689172D01*
X204404521Y-229481565D01*
X204355452Y-229264714D01*
X204243580Y-229100805D01*
X204067903Y-228989088D01*
X203827419Y-228928814D01*
X203649257Y-228916999D01*
X203453582Y-228923003D01*
G37*
X203453582Y-228923003D02*
X203295900Y-228952907D01*
X203132315Y-229015452D01*
X203114836Y-229023426D01*
X202990783Y-229088656D01*
X202904871Y-229149274D01*
X202877102Y-229188106D01*
X202903547Y-229251437D01*
X202967780Y-229344881D01*
X202996292Y-229379762D01*
X203113789Y-229517066D01*
X203265268Y-229427691D01*
X203409430Y-229368152D01*
X203576000Y-229336326D01*
X203735738Y-229334316D01*
X203859406Y-229364221D01*
X203889084Y-229382886D01*
X203945602Y-229468466D01*
X203952471Y-229567049D01*
X203910180Y-229644062D01*
X203885164Y-229658998D01*
X203810204Y-229677547D01*
X203678439Y-229699348D01*
X203516009Y-229720180D01*
X203486044Y-229723447D01*
X203225160Y-229768575D01*
X203035945Y-229845230D01*
X202910457Y-229960491D01*
X202840757Y-230121435D01*
X202819044Y-230318015D01*
X202849039Y-230541473D01*
X202946441Y-230716949D01*
X203111639Y-230844758D01*
X203345023Y-230925218D01*
X203604098Y-230956962D01*
X203815367Y-230956580D01*
X203986735Y-230927749D01*
X204103770Y-230887944D01*
X204251650Y-230818587D01*
X204388313Y-230738097D01*
X204436885Y-230702670D01*
X204561803Y-230600705D01*
X204260491Y-230295813D01*
X204089204Y-230409165D01*
X203917406Y-230494300D01*
X203733952Y-230538830D01*
X203557603Y-230543528D01*
X203407119Y-230509170D01*
X203301260Y-230436529D01*
X203267079Y-230375238D01*
X203272206Y-230276941D01*
X203357143Y-230201773D01*
X203521657Y-230149866D01*
X203701899Y-230125875D01*
X203979291Y-230080104D01*
X204185365Y-229993748D01*
X204322878Y-229864280D01*
X204394587Y-229689172D01*
X204404521Y-229481565D01*
X204355452Y-229264714D01*
X204243580Y-229100805D01*
X204067903Y-228989088D01*
X203827419Y-228928814D01*
X203649257Y-228916999D01*
X203453582Y-228923003D01*
G36*
X201477479Y-228954805D02*
G01*
X201266864Y-229069505D01*
X201102085Y-229250574D01*
X201024446Y-229397838D01*
X200991114Y-229527907D01*
X200969517Y-229713333D01*
X200960261Y-229926939D01*
X200963955Y-230141550D01*
X200981206Y-230329991D01*
X201001357Y-230430637D01*
X201069333Y-230568323D01*
X201187058Y-230714566D01*
X201328935Y-230842452D01*
X201469368Y-230925063D01*
X201472793Y-230926373D01*
X201647055Y-230962472D01*
X201853573Y-230963365D01*
X202049826Y-230930501D01*
X202125604Y-230904161D01*
X202320779Y-230793484D01*
X202460562Y-230648478D01*
X202552401Y-230456503D01*
X202603746Y-230204920D01*
X202615363Y-230073142D01*
X202613881Y-229907553D01*
X202167541Y-229907553D01*
X202152506Y-230149177D01*
X202109228Y-230333303D01*
X202040449Y-230450949D01*
X201991450Y-230484590D01*
X201865907Y-230508050D01*
X201716682Y-230501104D01*
X201587667Y-230467345D01*
X201553834Y-230448772D01*
X201464572Y-230340599D01*
X201405655Y-230175051D01*
X201380576Y-229973581D01*
X201392826Y-229757646D01*
X201420204Y-229627690D01*
X201498809Y-229477191D01*
X201622896Y-229383114D01*
X201772339Y-229350587D01*
X201927013Y-229384738D01*
X202045826Y-229468273D01*
X202108265Y-229537193D01*
X202144707Y-229605126D01*
X202162077Y-229697064D01*
X202167301Y-229837999D01*
X202167541Y-229907553D01*
X202613881Y-229907553D01*
X202612215Y-229721495D01*
X202554944Y-229433134D01*
X202443543Y-229208049D01*
X202278007Y-229046230D01*
X202058330Y-228947666D01*
X202011158Y-228936236D01*
X201727664Y-228909406D01*
X201477479Y-228954805D01*
G37*
X201477479Y-228954805D02*
X201266864Y-229069505D01*
X201102085Y-229250574D01*
X201024446Y-229397838D01*
X200991114Y-229527907D01*
X200969517Y-229713333D01*
X200960261Y-229926939D01*
X200963955Y-230141550D01*
X200981206Y-230329991D01*
X201001357Y-230430637D01*
X201069333Y-230568323D01*
X201187058Y-230714566D01*
X201328935Y-230842452D01*
X201469368Y-230925063D01*
X201472793Y-230926373D01*
X201647055Y-230962472D01*
X201853573Y-230963365D01*
X202049826Y-230930501D01*
X202125604Y-230904161D01*
X202320779Y-230793484D01*
X202460562Y-230648478D01*
X202552401Y-230456503D01*
X202603746Y-230204920D01*
X202615363Y-230073142D01*
X202613881Y-229907553D01*
X202167541Y-229907553D01*
X202152506Y-230149177D01*
X202109228Y-230333303D01*
X202040449Y-230450949D01*
X201991450Y-230484590D01*
X201865907Y-230508050D01*
X201716682Y-230501104D01*
X201587667Y-230467345D01*
X201553834Y-230448772D01*
X201464572Y-230340599D01*
X201405655Y-230175051D01*
X201380576Y-229973581D01*
X201392826Y-229757646D01*
X201420204Y-229627690D01*
X201498809Y-229477191D01*
X201622896Y-229383114D01*
X201772339Y-229350587D01*
X201927013Y-229384738D01*
X202045826Y-229468273D01*
X202108265Y-229537193D01*
X202144707Y-229605126D01*
X202162077Y-229697064D01*
X202167301Y-229837999D01*
X202167541Y-229907553D01*
X202613881Y-229907553D01*
X202612215Y-229721495D01*
X202554944Y-229433134D01*
X202443543Y-229208049D01*
X202278007Y-229046230D01*
X202058330Y-228947666D01*
X202011158Y-228936236D01*
X201727664Y-228909406D01*
X201477479Y-228954805D01*
G36*
X200210492Y-229578311D02*
G01*
X200206556Y-229883698D01*
X200192177Y-230115660D01*
X200163496Y-230283786D01*
X200116652Y-230397671D01*
X200047789Y-230466905D01*
X199953046Y-230501080D01*
X199835738Y-230509811D01*
X199712877Y-230500028D01*
X199619556Y-230464287D01*
X199551916Y-230392995D01*
X199506099Y-230276561D01*
X199478245Y-230105391D01*
X199464496Y-229869896D01*
X199460984Y-229578311D01*
X199460984Y-228930164D01*
X199002951Y-228930164D01*
X199002951Y-230928853D01*
X199231967Y-230928853D01*
X199370029Y-230923258D01*
X199441122Y-230903611D01*
X199460984Y-230866313D01*
X199472946Y-230833094D01*
X199520553Y-230840121D01*
X199616515Y-230887132D01*
X199836452Y-230959654D01*
X200069726Y-230954516D01*
X200293245Y-230875766D01*
X200399687Y-230813558D01*
X200480878Y-230746204D01*
X200540192Y-230661928D01*
X200581004Y-230548957D01*
X200606688Y-230395515D01*
X200620619Y-230189827D01*
X200626171Y-229920118D01*
X200626885Y-229711551D01*
X200626885Y-228930164D01*
X200210492Y-228930164D01*
X200210492Y-229578311D01*
G37*
X200210492Y-229578311D02*
X200206556Y-229883698D01*
X200192177Y-230115660D01*
X200163496Y-230283786D01*
X200116652Y-230397671D01*
X200047789Y-230466905D01*
X199953046Y-230501080D01*
X199835738Y-230509811D01*
X199712877Y-230500028D01*
X199619556Y-230464287D01*
X199551916Y-230392995D01*
X199506099Y-230276561D01*
X199478245Y-230105391D01*
X199464496Y-229869896D01*
X199460984Y-229578311D01*
X199460984Y-228930164D01*
X199002951Y-228930164D01*
X199002951Y-230928853D01*
X199231967Y-230928853D01*
X199370029Y-230923258D01*
X199441122Y-230903611D01*
X199460984Y-230866313D01*
X199472946Y-230833094D01*
X199520553Y-230840121D01*
X199616515Y-230887132D01*
X199836452Y-230959654D01*
X200069726Y-230954516D01*
X200293245Y-230875766D01*
X200399687Y-230813558D01*
X200480878Y-230746204D01*
X200540192Y-230661928D01*
X200581004Y-230548957D01*
X200606688Y-230395515D01*
X200620619Y-230189827D01*
X200626171Y-229920118D01*
X200626885Y-229711551D01*
X200626885Y-228930164D01*
X200210492Y-228930164D01*
X200210492Y-229578311D01*
G36*
X196157712Y-228947602D02*
G01*
X195916457Y-229050090D01*
X195840469Y-229099981D01*
X195743352Y-229176651D01*
X195682388Y-229236936D01*
X195671803Y-229256571D01*
X195701692Y-229300142D01*
X195778181Y-229374077D01*
X195839418Y-229425679D01*
X196007033Y-229560378D01*
X196139386Y-229449010D01*
X196241664Y-229377113D01*
X196341390Y-229352296D01*
X196455525Y-229358357D01*
X196636766Y-229403418D01*
X196761525Y-229496949D01*
X196837342Y-229648154D01*
X196871760Y-229866236D01*
X196871769Y-229866373D01*
X196868792Y-230110124D01*
X196822533Y-230288966D01*
X196730258Y-230410730D01*
X196667350Y-230451964D01*
X196500283Y-230503311D01*
X196321838Y-230503342D01*
X196166585Y-230453522D01*
X196129836Y-230429180D01*
X196037670Y-230367004D01*
X195965613Y-230356813D01*
X195887898Y-230403092D01*
X195801982Y-230486212D01*
X195665989Y-230626521D01*
X195816977Y-230750978D01*
X196050260Y-230891443D01*
X196313327Y-230960666D01*
X196588240Y-230955653D01*
X196768784Y-230909755D01*
X196979806Y-230796249D01*
X197148574Y-230617685D01*
X197225247Y-230491639D01*
X197287346Y-230310791D01*
X197318419Y-230081745D01*
X197318658Y-229833510D01*
X197288257Y-229595093D01*
X197227408Y-229395503D01*
X197217824Y-229375039D01*
X197075898Y-229174341D01*
X196883741Y-229028217D01*
X196656536Y-228939698D01*
X196409465Y-228911815D01*
X196157712Y-228947602D01*
G37*
X196157712Y-228947602D02*
X195916457Y-229050090D01*
X195840469Y-229099981D01*
X195743352Y-229176651D01*
X195682388Y-229236936D01*
X195671803Y-229256571D01*
X195701692Y-229300142D01*
X195778181Y-229374077D01*
X195839418Y-229425679D01*
X196007033Y-229560378D01*
X196139386Y-229449010D01*
X196241664Y-229377113D01*
X196341390Y-229352296D01*
X196455525Y-229358357D01*
X196636766Y-229403418D01*
X196761525Y-229496949D01*
X196837342Y-229648154D01*
X196871760Y-229866236D01*
X196871769Y-229866373D01*
X196868792Y-230110124D01*
X196822533Y-230288966D01*
X196730258Y-230410730D01*
X196667350Y-230451964D01*
X196500283Y-230503311D01*
X196321838Y-230503342D01*
X196166585Y-230453522D01*
X196129836Y-230429180D01*
X196037670Y-230367004D01*
X195965613Y-230356813D01*
X195887898Y-230403092D01*
X195801982Y-230486212D01*
X195665989Y-230626521D01*
X195816977Y-230750978D01*
X196050260Y-230891443D01*
X196313327Y-230960666D01*
X196588240Y-230955653D01*
X196768784Y-230909755D01*
X196979806Y-230796249D01*
X197148574Y-230617685D01*
X197225247Y-230491639D01*
X197287346Y-230310791D01*
X197318419Y-230081745D01*
X197318658Y-229833510D01*
X197288257Y-229595093D01*
X197227408Y-229395503D01*
X197217824Y-229375039D01*
X197075898Y-229174341D01*
X196883741Y-229028217D01*
X196656536Y-228939698D01*
X196409465Y-228911815D01*
X196157712Y-228947602D01*
G36*
X194632208Y-228923019D02*
G01*
X194525586Y-228948922D01*
X194321170Y-229043772D01*
X194146375Y-229188633D01*
X194025403Y-229362320D01*
X194008783Y-229401317D01*
X193985984Y-229503465D01*
X193970025Y-229654573D01*
X193964590Y-229807301D01*
X193964590Y-230096066D01*
X194568361Y-230096066D01*
X194817381Y-230097007D01*
X194992811Y-230102723D01*
X195104335Y-230117550D01*
X195161640Y-230145827D01*
X195174412Y-230191890D01*
X195152338Y-230260077D01*
X195112795Y-230339863D01*
X195002491Y-230473017D01*
X194849208Y-230539355D01*
X194661859Y-230537194D01*
X194449637Y-230464991D01*
X194266227Y-230375883D01*
X194114038Y-230496220D01*
X193961849Y-230616558D01*
X194105026Y-230748843D01*
X194296172Y-230873832D01*
X194531247Y-230949189D01*
X194784102Y-230970278D01*
X195028587Y-230932460D01*
X195068033Y-230919628D01*
X195282910Y-230807414D01*
X195442750Y-230640118D01*
X195550920Y-230412748D01*
X195610790Y-230120308D01*
X195611487Y-230114040D01*
X195616848Y-229795332D01*
X195595177Y-229681632D01*
X195172131Y-229681632D01*
X195133278Y-229699116D01*
X195027795Y-229712508D01*
X194872293Y-229720155D01*
X194773751Y-229721312D01*
X194589987Y-229720588D01*
X194475086Y-229715983D01*
X194414634Y-229703848D01*
X194394217Y-229680530D01*
X194399419Y-229642382D01*
X194403783Y-229627623D01*
X194478276Y-229488944D01*
X194595434Y-229377179D01*
X194698827Y-229328066D01*
X194836184Y-229331032D01*
X194975371Y-229392278D01*
X195092126Y-229493683D01*
X195162190Y-229617122D01*
X195172131Y-229681632D01*
X195595177Y-229681632D01*
X195563421Y-229515020D01*
X195457428Y-229279780D01*
X195305089Y-229096284D01*
X195112626Y-228971209D01*
X194886258Y-228911229D01*
X194632208Y-228923019D01*
G37*
X194632208Y-228923019D02*
X194525586Y-228948922D01*
X194321170Y-229043772D01*
X194146375Y-229188633D01*
X194025403Y-229362320D01*
X194008783Y-229401317D01*
X193985984Y-229503465D01*
X193970025Y-229654573D01*
X193964590Y-229807301D01*
X193964590Y-230096066D01*
X194568361Y-230096066D01*
X194817381Y-230097007D01*
X194992811Y-230102723D01*
X195104335Y-230117550D01*
X195161640Y-230145827D01*
X195174412Y-230191890D01*
X195152338Y-230260077D01*
X195112795Y-230339863D01*
X195002491Y-230473017D01*
X194849208Y-230539355D01*
X194661859Y-230537194D01*
X194449637Y-230464991D01*
X194266227Y-230375883D01*
X194114038Y-230496220D01*
X193961849Y-230616558D01*
X194105026Y-230748843D01*
X194296172Y-230873832D01*
X194531247Y-230949189D01*
X194784102Y-230970278D01*
X195028587Y-230932460D01*
X195068033Y-230919628D01*
X195282910Y-230807414D01*
X195442750Y-230640118D01*
X195550920Y-230412748D01*
X195610790Y-230120308D01*
X195611487Y-230114040D01*
X195616848Y-229795332D01*
X195595177Y-229681632D01*
X195172131Y-229681632D01*
X195133278Y-229699116D01*
X195027795Y-229712508D01*
X194872293Y-229720155D01*
X194773751Y-229721312D01*
X194589987Y-229720588D01*
X194475086Y-229715983D01*
X194414634Y-229703848D01*
X194394217Y-229680530D01*
X194399419Y-229642382D01*
X194403783Y-229627623D01*
X194478276Y-229488944D01*
X194595434Y-229377179D01*
X194698827Y-229328066D01*
X194836184Y-229331032D01*
X194975371Y-229392278D01*
X195092126Y-229493683D01*
X195162190Y-229617122D01*
X195172131Y-229681632D01*
X195595177Y-229681632D01*
X195563421Y-229515020D01*
X195457428Y-229279780D01*
X195305089Y-229096284D01*
X195112626Y-228971209D01*
X194886258Y-228911229D01*
X194632208Y-228923019D01*
G36*
X205996892Y-228964563D02*
G01*
X205893260Y-229014062D01*
X205792894Y-229085561D01*
X205716432Y-229167853D01*
X205660738Y-229272811D01*
X205622677Y-229412313D01*
X205599115Y-229598233D01*
X205586915Y-229842448D01*
X205582944Y-230156833D01*
X205582882Y-230189754D01*
X205581967Y-230928853D01*
X206040000Y-230928853D01*
X206040000Y-230247481D01*
X206040326Y-229995050D01*
X206042581Y-229812093D01*
X206048681Y-229684807D01*
X206060541Y-229599386D01*
X206080076Y-229542026D01*
X206109203Y-229498924D01*
X206149776Y-229456334D01*
X206291731Y-229364824D01*
X206446694Y-229347843D01*
X206594323Y-229405701D01*
X206645663Y-229448763D01*
X206683353Y-229489249D01*
X206710413Y-229532607D01*
X206728603Y-229592463D01*
X206739684Y-229682441D01*
X206745414Y-229816168D01*
X206747556Y-230007270D01*
X206747869Y-230239911D01*
X206747869Y-230928853D01*
X207205902Y-230928853D01*
X207205902Y-228930164D01*
X206976885Y-228930164D01*
X206839386Y-228935602D01*
X206768447Y-228954909D01*
X206747878Y-228992576D01*
X206747869Y-228993692D01*
X206738325Y-229030581D01*
X206696233Y-229026395D01*
X206612541Y-228985861D01*
X206422727Y-228926224D01*
X206205599Y-228919591D01*
X205996892Y-228964563D01*
G37*
X205996892Y-228964563D02*
X205893260Y-229014062D01*
X205792894Y-229085561D01*
X205716432Y-229167853D01*
X205660738Y-229272811D01*
X205622677Y-229412313D01*
X205599115Y-229598233D01*
X205586915Y-229842448D01*
X205582944Y-230156833D01*
X205582882Y-230189754D01*
X205581967Y-230928853D01*
X206040000Y-230928853D01*
X206040000Y-230247481D01*
X206040326Y-229995050D01*
X206042581Y-229812093D01*
X206048681Y-229684807D01*
X206060541Y-229599386D01*
X206080076Y-229542026D01*
X206109203Y-229498924D01*
X206149776Y-229456334D01*
X206291731Y-229364824D01*
X206446694Y-229347843D01*
X206594323Y-229405701D01*
X206645663Y-229448763D01*
X206683353Y-229489249D01*
X206710413Y-229532607D01*
X206728603Y-229592463D01*
X206739684Y-229682441D01*
X206745414Y-229816168D01*
X206747556Y-230007270D01*
X206747869Y-230239911D01*
X206747869Y-230928853D01*
X207205902Y-230928853D01*
X207205902Y-228930164D01*
X206976885Y-228930164D01*
X206839386Y-228935602D01*
X206768447Y-228954909D01*
X206747878Y-228992576D01*
X206747869Y-228993692D01*
X206738325Y-229030581D01*
X206696233Y-229026395D01*
X206612541Y-228985861D01*
X206422727Y-228926224D01*
X206205599Y-228919591D01*
X205996892Y-228964563D01*
G36*
X197541131Y-228928231D02*
G01*
X197397908Y-228971989D01*
X197305694Y-229027280D01*
X197275656Y-229071004D01*
X197283924Y-229122834D01*
X197337573Y-229204259D01*
X197382937Y-229261927D01*
X197476454Y-229366182D01*
X197546713Y-229410045D01*
X197606607Y-229407182D01*
X197784280Y-229361967D01*
X197914766Y-229364020D01*
X198020727Y-229415261D01*
X198056300Y-229445252D01*
X198170164Y-229550778D01*
X198170164Y-230928853D01*
X198628197Y-230928853D01*
X198628197Y-228930164D01*
X198399180Y-228930164D01*
X198261682Y-228935602D01*
X198190742Y-228954909D01*
X198170173Y-228992576D01*
X198170164Y-228993692D01*
X198160450Y-229033146D01*
X198116522Y-229028000D01*
X198055656Y-228999536D01*
X197929946Y-228946569D01*
X197827866Y-228914703D01*
X197696520Y-228906533D01*
X197541131Y-228928231D01*
G37*
X197541131Y-228928231D02*
X197397908Y-228971989D01*
X197305694Y-229027280D01*
X197275656Y-229071004D01*
X197283924Y-229122834D01*
X197337573Y-229204259D01*
X197382937Y-229261927D01*
X197476454Y-229366182D01*
X197546713Y-229410045D01*
X197606607Y-229407182D01*
X197784280Y-229361967D01*
X197914766Y-229364020D01*
X198020727Y-229415261D01*
X198056300Y-229445252D01*
X198170164Y-229550778D01*
X198170164Y-230928853D01*
X198628197Y-230928853D01*
X198628197Y-228930164D01*
X198399180Y-228930164D01*
X198261682Y-228935602D01*
X198190742Y-228954909D01*
X198170173Y-228992576D01*
X198170164Y-228993692D01*
X198160450Y-229033146D01*
X198116522Y-229028000D01*
X198055656Y-228999536D01*
X197929946Y-228946569D01*
X197827866Y-228914703D01*
X197696520Y-228906533D01*
X197541131Y-228928231D01*
G36*
X202251695Y-215125960D02*
G01*
X202063443Y-216124542D01*
X201368817Y-216410889D01*
X200674192Y-216697237D01*
X199840872Y-216130586D01*
X199607499Y-215972811D01*
X199396543Y-215831939D01*
X199217847Y-215714401D01*
X199081256Y-215626629D01*
X198996614Y-215575055D01*
X198973563Y-215563935D01*
X198932037Y-215592535D01*
X198843302Y-215671604D01*
X198717303Y-215791041D01*
X198563986Y-215940744D01*
X198393298Y-216110615D01*
X198215186Y-216290551D01*
X198039594Y-216470454D01*
X197876470Y-216640222D01*
X197735759Y-216789754D01*
X197627408Y-216908952D01*
X197561363Y-216987713D01*
X197545574Y-217014072D01*
X197568297Y-217062666D01*
X197632001Y-217169126D01*
X197729987Y-217323039D01*
X197855559Y-217513991D01*
X198002018Y-217731569D01*
X198086885Y-217855671D01*
X198241574Y-218082279D01*
X198379030Y-218286770D01*
X198492586Y-218458965D01*
X198575572Y-218588685D01*
X198621322Y-218665751D01*
X198628197Y-218681947D01*
X198612612Y-218727975D01*
X198570132Y-218835250D01*
X198507165Y-218988687D01*
X198430121Y-219173206D01*
X198345410Y-219373721D01*
X198259442Y-219575152D01*
X198178627Y-219762415D01*
X198109373Y-219920428D01*
X198058092Y-220034107D01*
X198031191Y-220088370D01*
X198029604Y-220090506D01*
X197987365Y-220100867D01*
X197874874Y-220123982D01*
X197703791Y-220157579D01*
X197485777Y-220199385D01*
X197232491Y-220247127D01*
X197084712Y-220274659D01*
X196814062Y-220326190D01*
X196569603Y-220375225D01*
X196363700Y-220419081D01*
X196208723Y-220455074D01*
X196117038Y-220480521D01*
X196098607Y-220488595D01*
X196080555Y-220543242D01*
X196065990Y-220666662D01*
X196054902Y-220844423D01*
X196047281Y-221062091D01*
X196043116Y-221305235D01*
X196042398Y-221559423D01*
X196045118Y-221810220D01*
X196051265Y-222043196D01*
X196060829Y-222243918D01*
X196073801Y-222397954D01*
X196090171Y-222490870D01*
X196099989Y-222510213D01*
X196158677Y-222533398D01*
X196283034Y-222566544D01*
X196456610Y-222605758D01*
X196662958Y-222647145D01*
X196734989Y-222660534D01*
X197082281Y-222724147D01*
X197356617Y-222775378D01*
X197567061Y-222816261D01*
X197722678Y-222848834D01*
X197832533Y-222875132D01*
X197905689Y-222897192D01*
X197951213Y-222917049D01*
X197978167Y-222936741D01*
X197981939Y-222940632D01*
X198019585Y-223003324D01*
X198077014Y-223125331D01*
X198148492Y-223291712D01*
X198228285Y-223487529D01*
X198310657Y-223697840D01*
X198389875Y-223907708D01*
X198460204Y-224102191D01*
X198515911Y-224266350D01*
X198551259Y-224385245D01*
X198560516Y-224443936D01*
X198559744Y-224445992D01*
X198528380Y-224493964D01*
X198457226Y-224599516D01*
X198353760Y-224751660D01*
X198225460Y-224939410D01*
X198079801Y-225151780D01*
X198038320Y-225212130D01*
X197890413Y-225430929D01*
X197760261Y-225630562D01*
X197654955Y-225799565D01*
X197581584Y-225926475D01*
X197547237Y-225999829D01*
X197545574Y-226008841D01*
X197574431Y-226056207D01*
X197654169Y-226150042D01*
X197774538Y-226280261D01*
X197925287Y-226436779D01*
X198096164Y-226609510D01*
X198276921Y-226788371D01*
X198457306Y-226963276D01*
X198627068Y-227124140D01*
X198775958Y-227260878D01*
X198893724Y-227363407D01*
X198970117Y-227421640D01*
X198991250Y-227431148D01*
X199040440Y-227408754D01*
X199141153Y-227348356D01*
X199276983Y-227260129D01*
X199381490Y-227189115D01*
X199570851Y-227058811D01*
X199795101Y-226905384D01*
X200020036Y-226752201D01*
X200140968Y-226670218D01*
X200550296Y-226393353D01*
X200893898Y-226579136D01*
X201050435Y-226660523D01*
X201183546Y-226723784D01*
X201273611Y-226759865D01*
X201296537Y-226764885D01*
X201324105Y-226727817D01*
X201378492Y-226623069D01*
X201455637Y-226460303D01*
X201551482Y-226249181D01*
X201661966Y-225999365D01*
X201783029Y-225720517D01*
X201910611Y-225422299D01*
X202040653Y-225114374D01*
X202169094Y-224806404D01*
X202291874Y-224508050D01*
X202404933Y-224228975D01*
X202504212Y-223978841D01*
X202585651Y-223767310D01*
X202645189Y-223604043D01*
X202678766Y-223498705D01*
X202684166Y-223462527D01*
X202641366Y-223416381D01*
X202547656Y-223341472D01*
X202422627Y-223253364D01*
X202412133Y-223246394D01*
X202088980Y-222987721D01*
X201828413Y-222685938D01*
X201632690Y-222350695D01*
X201504068Y-221991642D01*
X201444805Y-221618426D01*
X201457161Y-221240700D01*
X201543393Y-220868111D01*
X201705759Y-220510310D01*
X201753528Y-220432027D01*
X202001991Y-220115919D01*
X202295519Y-219862079D01*
X202623953Y-219671827D01*
X202977135Y-219546485D01*
X203344905Y-219487372D01*
X203717103Y-219495807D01*
X204083571Y-219573112D01*
X204434149Y-219720606D01*
X204758677Y-219939610D01*
X204859064Y-220028498D01*
X205114551Y-220306744D01*
X205300722Y-220599656D01*
X205428430Y-220927986D01*
X205499556Y-221253133D01*
X205517114Y-221618702D01*
X205458566Y-221986086D01*
X205329858Y-222342866D01*
X205136938Y-222676626D01*
X204885752Y-222974947D01*
X204582248Y-223225411D01*
X204542360Y-223251813D01*
X204415991Y-223338272D01*
X204319927Y-223413184D01*
X204274000Y-223461015D01*
X204273332Y-223462527D01*
X204283192Y-223514267D01*
X204322278Y-223631696D01*
X204386528Y-223805154D01*
X204471880Y-224024979D01*
X204574273Y-224281513D01*
X204689646Y-224565096D01*
X204813937Y-224866067D01*
X204943084Y-225174767D01*
X205073026Y-225481536D01*
X205199702Y-225776714D01*
X205319049Y-226050640D01*
X205427006Y-226293656D01*
X205519512Y-226496101D01*
X205592504Y-226648315D01*
X205641923Y-226740638D01*
X205661823Y-226764885D01*
X205722634Y-226746004D01*
X205836418Y-226695364D01*
X205983555Y-226622017D01*
X206064462Y-226579136D01*
X206408065Y-226393353D01*
X206817393Y-226670218D01*
X207026346Y-226812054D01*
X207255113Y-226968141D01*
X207469491Y-227115109D01*
X207576871Y-227189115D01*
X207727898Y-227290531D01*
X207855782Y-227370898D01*
X207943842Y-227420041D01*
X207972445Y-227430429D01*
X208014076Y-227402405D01*
X208106211Y-227324172D01*
X208239918Y-227203852D01*
X208406265Y-227049568D01*
X208596320Y-226869443D01*
X208716521Y-226753790D01*
X208926815Y-226547167D01*
X209108556Y-226362358D01*
X209254397Y-226207270D01*
X209356991Y-226089807D01*
X209408991Y-226017875D01*
X209413980Y-226003278D01*
X209390829Y-225947753D01*
X209326854Y-225835484D01*
X209229153Y-225677837D01*
X209104820Y-225486179D01*
X208960954Y-225271876D01*
X208920041Y-225212130D01*
X208770967Y-224994982D01*
X208637225Y-224799475D01*
X208526291Y-224636599D01*
X208445644Y-224517337D01*
X208402759Y-224452678D01*
X208398617Y-224445992D01*
X208404812Y-224394462D01*
X208437700Y-224281166D01*
X208491545Y-224121042D01*
X208560613Y-223929032D01*
X208639169Y-223720074D01*
X208721480Y-223509109D01*
X208801811Y-223311076D01*
X208874428Y-223140916D01*
X208933595Y-223013567D01*
X208973580Y-222943971D01*
X208976422Y-222940632D01*
X209000873Y-222920742D01*
X209042169Y-222901073D01*
X209109377Y-222879589D01*
X209211559Y-222854253D01*
X209357781Y-222823029D01*
X209557107Y-222783882D01*
X209818603Y-222734775D01*
X210151331Y-222673672D01*
X210223372Y-222660534D01*
X210436885Y-222619282D01*
X210623022Y-222578926D01*
X210765334Y-222543361D01*
X210847371Y-222516480D01*
X210858372Y-222510213D01*
X210876498Y-222454654D01*
X210891233Y-222330495D01*
X210902564Y-222152169D01*
X210910484Y-221934109D01*
X210914981Y-221690746D01*
X210916046Y-221436514D01*
X210913670Y-221185845D01*
X210907841Y-220953171D01*
X210898551Y-220752924D01*
X210885789Y-220599538D01*
X210869546Y-220507444D01*
X210859754Y-220488595D01*
X210805239Y-220469582D01*
X210681104Y-220438650D01*
X210499715Y-220398482D01*
X210273440Y-220351762D01*
X210014647Y-220301173D01*
X209873649Y-220274659D01*
X209606127Y-220224650D01*
X209367562Y-220179346D01*
X209169614Y-220141021D01*
X209023943Y-220111947D01*
X208942209Y-220094397D01*
X208928757Y-220090506D01*
X208906021Y-220046638D01*
X208857960Y-219940976D01*
X208790981Y-219788613D01*
X208711490Y-219604646D01*
X208625892Y-219404170D01*
X208540595Y-219202281D01*
X208462005Y-219014073D01*
X208396527Y-218854642D01*
X208350569Y-218739084D01*
X208330537Y-218682494D01*
X208330164Y-218680021D01*
X208352874Y-218635379D01*
X208416541Y-218532647D01*
X208514475Y-218382037D01*
X208639983Y-218193757D01*
X208786374Y-217978018D01*
X208871475Y-217854098D01*
X209026545Y-217626883D01*
X209164275Y-217420595D01*
X209277947Y-217245671D01*
X209360839Y-217112545D01*
X209406231Y-217031653D01*
X209412787Y-217013520D01*
X209384605Y-216971312D01*
X209306696Y-216881191D01*
X209189010Y-216753254D01*
X209041500Y-216597596D01*
X208874119Y-216424315D01*
X208696819Y-216243507D01*
X208519552Y-216065267D01*
X208352270Y-215899693D01*
X208204925Y-215756880D01*
X208087470Y-215646925D01*
X208009857Y-215579924D01*
X207983892Y-215563935D01*
X207941616Y-215586419D01*
X207840499Y-215649585D01*
X207690373Y-215747003D01*
X207501070Y-215872243D01*
X207282421Y-216018875D01*
X207117489Y-216130586D01*
X206284169Y-216697237D01*
X205589544Y-216410889D01*
X204894918Y-216124542D01*
X204706666Y-215125960D01*
X204518413Y-214127377D01*
X202439948Y-214127377D01*
X202251695Y-215125960D01*
G37*
X202251695Y-215125960D02*
X202063443Y-216124542D01*
X201368817Y-216410889D01*
X200674192Y-216697237D01*
X199840872Y-216130586D01*
X199607499Y-215972811D01*
X199396543Y-215831939D01*
X199217847Y-215714401D01*
X199081256Y-215626629D01*
X198996614Y-215575055D01*
X198973563Y-215563935D01*
X198932037Y-215592535D01*
X198843302Y-215671604D01*
X198717303Y-215791041D01*
X198563986Y-215940744D01*
X198393298Y-216110615D01*
X198215186Y-216290551D01*
X198039594Y-216470454D01*
X197876470Y-216640222D01*
X197735759Y-216789754D01*
X197627408Y-216908952D01*
X197561363Y-216987713D01*
X197545574Y-217014072D01*
X197568297Y-217062666D01*
X197632001Y-217169126D01*
X197729987Y-217323039D01*
X197855559Y-217513991D01*
X198002018Y-217731569D01*
X198086885Y-217855671D01*
X198241574Y-218082279D01*
X198379030Y-218286770D01*
X198492586Y-218458965D01*
X198575572Y-218588685D01*
X198621322Y-218665751D01*
X198628197Y-218681947D01*
X198612612Y-218727975D01*
X198570132Y-218835250D01*
X198507165Y-218988687D01*
X198430121Y-219173206D01*
X198345410Y-219373721D01*
X198259442Y-219575152D01*
X198178627Y-219762415D01*
X198109373Y-219920428D01*
X198058092Y-220034107D01*
X198031191Y-220088370D01*
X198029604Y-220090506D01*
X197987365Y-220100867D01*
X197874874Y-220123982D01*
X197703791Y-220157579D01*
X197485777Y-220199385D01*
X197232491Y-220247127D01*
X197084712Y-220274659D01*
X196814062Y-220326190D01*
X196569603Y-220375225D01*
X196363700Y-220419081D01*
X196208723Y-220455074D01*
X196117038Y-220480521D01*
X196098607Y-220488595D01*
X196080555Y-220543242D01*
X196065990Y-220666662D01*
X196054902Y-220844423D01*
X196047281Y-221062091D01*
X196043116Y-221305235D01*
X196042398Y-221559423D01*
X196045118Y-221810220D01*
X196051265Y-222043196D01*
X196060829Y-222243918D01*
X196073801Y-222397954D01*
X196090171Y-222490870D01*
X196099989Y-222510213D01*
X196158677Y-222533398D01*
X196283034Y-222566544D01*
X196456610Y-222605758D01*
X196662958Y-222647145D01*
X196734989Y-222660534D01*
X197082281Y-222724147D01*
X197356617Y-222775378D01*
X197567061Y-222816261D01*
X197722678Y-222848834D01*
X197832533Y-222875132D01*
X197905689Y-222897192D01*
X197951213Y-222917049D01*
X197978167Y-222936741D01*
X197981939Y-222940632D01*
X198019585Y-223003324D01*
X198077014Y-223125331D01*
X198148492Y-223291712D01*
X198228285Y-223487529D01*
X198310657Y-223697840D01*
X198389875Y-223907708D01*
X198460204Y-224102191D01*
X198515911Y-224266350D01*
X198551259Y-224385245D01*
X198560516Y-224443936D01*
X198559744Y-224445992D01*
X198528380Y-224493964D01*
X198457226Y-224599516D01*
X198353760Y-224751660D01*
X198225460Y-224939410D01*
X198079801Y-225151780D01*
X198038320Y-225212130D01*
X197890413Y-225430929D01*
X197760261Y-225630562D01*
X197654955Y-225799565D01*
X197581584Y-225926475D01*
X197547237Y-225999829D01*
X197545574Y-226008841D01*
X197574431Y-226056207D01*
X197654169Y-226150042D01*
X197774538Y-226280261D01*
X197925287Y-226436779D01*
X198096164Y-226609510D01*
X198276921Y-226788371D01*
X198457306Y-226963276D01*
X198627068Y-227124140D01*
X198775958Y-227260878D01*
X198893724Y-227363407D01*
X198970117Y-227421640D01*
X198991250Y-227431148D01*
X199040440Y-227408754D01*
X199141153Y-227348356D01*
X199276983Y-227260129D01*
X199381490Y-227189115D01*
X199570851Y-227058811D01*
X199795101Y-226905384D01*
X200020036Y-226752201D01*
X200140968Y-226670218D01*
X200550296Y-226393353D01*
X200893898Y-226579136D01*
X201050435Y-226660523D01*
X201183546Y-226723784D01*
X201273611Y-226759865D01*
X201296537Y-226764885D01*
X201324105Y-226727817D01*
X201378492Y-226623069D01*
X201455637Y-226460303D01*
X201551482Y-226249181D01*
X201661966Y-225999365D01*
X201783029Y-225720517D01*
X201910611Y-225422299D01*
X202040653Y-225114374D01*
X202169094Y-224806404D01*
X202291874Y-224508050D01*
X202404933Y-224228975D01*
X202504212Y-223978841D01*
X202585651Y-223767310D01*
X202645189Y-223604043D01*
X202678766Y-223498705D01*
X202684166Y-223462527D01*
X202641366Y-223416381D01*
X202547656Y-223341472D01*
X202422627Y-223253364D01*
X202412133Y-223246394D01*
X202088980Y-222987721D01*
X201828413Y-222685938D01*
X201632690Y-222350695D01*
X201504068Y-221991642D01*
X201444805Y-221618426D01*
X201457161Y-221240700D01*
X201543393Y-220868111D01*
X201705759Y-220510310D01*
X201753528Y-220432027D01*
X202001991Y-220115919D01*
X202295519Y-219862079D01*
X202623953Y-219671827D01*
X202977135Y-219546485D01*
X203344905Y-219487372D01*
X203717103Y-219495807D01*
X204083571Y-219573112D01*
X204434149Y-219720606D01*
X204758677Y-219939610D01*
X204859064Y-220028498D01*
X205114551Y-220306744D01*
X205300722Y-220599656D01*
X205428430Y-220927986D01*
X205499556Y-221253133D01*
X205517114Y-221618702D01*
X205458566Y-221986086D01*
X205329858Y-222342866D01*
X205136938Y-222676626D01*
X204885752Y-222974947D01*
X204582248Y-223225411D01*
X204542360Y-223251813D01*
X204415991Y-223338272D01*
X204319927Y-223413184D01*
X204274000Y-223461015D01*
X204273332Y-223462527D01*
X204283192Y-223514267D01*
X204322278Y-223631696D01*
X204386528Y-223805154D01*
X204471880Y-224024979D01*
X204574273Y-224281513D01*
X204689646Y-224565096D01*
X204813937Y-224866067D01*
X204943084Y-225174767D01*
X205073026Y-225481536D01*
X205199702Y-225776714D01*
X205319049Y-226050640D01*
X205427006Y-226293656D01*
X205519512Y-226496101D01*
X205592504Y-226648315D01*
X205641923Y-226740638D01*
X205661823Y-226764885D01*
X205722634Y-226746004D01*
X205836418Y-226695364D01*
X205983555Y-226622017D01*
X206064462Y-226579136D01*
X206408065Y-226393353D01*
X206817393Y-226670218D01*
X207026346Y-226812054D01*
X207255113Y-226968141D01*
X207469491Y-227115109D01*
X207576871Y-227189115D01*
X207727898Y-227290531D01*
X207855782Y-227370898D01*
X207943842Y-227420041D01*
X207972445Y-227430429D01*
X208014076Y-227402405D01*
X208106211Y-227324172D01*
X208239918Y-227203852D01*
X208406265Y-227049568D01*
X208596320Y-226869443D01*
X208716521Y-226753790D01*
X208926815Y-226547167D01*
X209108556Y-226362358D01*
X209254397Y-226207270D01*
X209356991Y-226089807D01*
X209408991Y-226017875D01*
X209413980Y-226003278D01*
X209390829Y-225947753D01*
X209326854Y-225835484D01*
X209229153Y-225677837D01*
X209104820Y-225486179D01*
X208960954Y-225271876D01*
X208920041Y-225212130D01*
X208770967Y-224994982D01*
X208637225Y-224799475D01*
X208526291Y-224636599D01*
X208445644Y-224517337D01*
X208402759Y-224452678D01*
X208398617Y-224445992D01*
X208404812Y-224394462D01*
X208437700Y-224281166D01*
X208491545Y-224121042D01*
X208560613Y-223929032D01*
X208639169Y-223720074D01*
X208721480Y-223509109D01*
X208801811Y-223311076D01*
X208874428Y-223140916D01*
X208933595Y-223013567D01*
X208973580Y-222943971D01*
X208976422Y-222940632D01*
X209000873Y-222920742D01*
X209042169Y-222901073D01*
X209109377Y-222879589D01*
X209211559Y-222854253D01*
X209357781Y-222823029D01*
X209557107Y-222783882D01*
X209818603Y-222734775D01*
X210151331Y-222673672D01*
X210223372Y-222660534D01*
X210436885Y-222619282D01*
X210623022Y-222578926D01*
X210765334Y-222543361D01*
X210847371Y-222516480D01*
X210858372Y-222510213D01*
X210876498Y-222454654D01*
X210891233Y-222330495D01*
X210902564Y-222152169D01*
X210910484Y-221934109D01*
X210914981Y-221690746D01*
X210916046Y-221436514D01*
X210913670Y-221185845D01*
X210907841Y-220953171D01*
X210898551Y-220752924D01*
X210885789Y-220599538D01*
X210869546Y-220507444D01*
X210859754Y-220488595D01*
X210805239Y-220469582D01*
X210681104Y-220438650D01*
X210499715Y-220398482D01*
X210273440Y-220351762D01*
X210014647Y-220301173D01*
X209873649Y-220274659D01*
X209606127Y-220224650D01*
X209367562Y-220179346D01*
X209169614Y-220141021D01*
X209023943Y-220111947D01*
X208942209Y-220094397D01*
X208928757Y-220090506D01*
X208906021Y-220046638D01*
X208857960Y-219940976D01*
X208790981Y-219788613D01*
X208711490Y-219604646D01*
X208625892Y-219404170D01*
X208540595Y-219202281D01*
X208462005Y-219014073D01*
X208396527Y-218854642D01*
X208350569Y-218739084D01*
X208330537Y-218682494D01*
X208330164Y-218680021D01*
X208352874Y-218635379D01*
X208416541Y-218532647D01*
X208514475Y-218382037D01*
X208639983Y-218193757D01*
X208786374Y-217978018D01*
X208871475Y-217854098D01*
X209026545Y-217626883D01*
X209164275Y-217420595D01*
X209277947Y-217245671D01*
X209360839Y-217112545D01*
X209406231Y-217031653D01*
X209412787Y-217013520D01*
X209384605Y-216971312D01*
X209306696Y-216881191D01*
X209189010Y-216753254D01*
X209041500Y-216597596D01*
X208874119Y-216424315D01*
X208696819Y-216243507D01*
X208519552Y-216065267D01*
X208352270Y-215899693D01*
X208204925Y-215756880D01*
X208087470Y-215646925D01*
X208009857Y-215579924D01*
X207983892Y-215563935D01*
X207941616Y-215586419D01*
X207840499Y-215649585D01*
X207690373Y-215747003D01*
X207501070Y-215872243D01*
X207282421Y-216018875D01*
X207117489Y-216130586D01*
X206284169Y-216697237D01*
X205589544Y-216410889D01*
X204894918Y-216124542D01*
X204706666Y-215125960D01*
X204518413Y-214127377D01*
X202439948Y-214127377D01*
X202251695Y-215125960D01*
G36*
X190881718Y-249428097D02*
G01*
X190818681Y-249472781D01*
X190763015Y-249528447D01*
X190763015Y-250150080D01*
X190763161Y-250334659D01*
X190763850Y-250479383D01*
X190765463Y-250589755D01*
X190768380Y-250671276D01*
X190772978Y-250729449D01*
X190779639Y-250769777D01*
X190788742Y-250797760D01*
X190800666Y-250818903D01*
X190810019Y-250831468D01*
X190871755Y-250880835D01*
X190942643Y-250886193D01*
X191007434Y-250855919D01*
X191028843Y-250838046D01*
X191043154Y-250814305D01*
X191051786Y-250776075D01*
X191056158Y-250714733D01*
X191057690Y-250621660D01*
X191057837Y-250549758D01*
X191057837Y-250278902D01*
X192055694Y-250278902D01*
X192055694Y-250525307D01*
X192056726Y-250637982D01*
X192060854Y-250715418D01*
X192069629Y-250767708D01*
X192084598Y-250804944D01*
X192102697Y-250831468D01*
X192164779Y-250880696D01*
X192234988Y-250886525D01*
X192302201Y-250851535D01*
X192320552Y-250833193D01*
X192333512Y-250808877D01*
X192342061Y-250771001D01*
X192347175Y-250711978D01*
X192349831Y-250624222D01*
X192351009Y-250500146D01*
X192351146Y-250471669D01*
X192352118Y-250237892D01*
X192352619Y-250045228D01*
X192352456Y-249889435D01*
X192351435Y-249766271D01*
X192349363Y-249671493D01*
X192346047Y-249600859D01*
X192341293Y-249550126D01*
X192334909Y-249515052D01*
X192326700Y-249491393D01*
X192316473Y-249474909D01*
X192305158Y-249462473D01*
X192241151Y-249422694D01*
X192174397Y-249428097D01*
X192111360Y-249472781D01*
X192085851Y-249501610D01*
X192069591Y-249533455D01*
X192060519Y-249578808D01*
X192056574Y-249648166D01*
X192055695Y-249752022D01*
X192055694Y-249756264D01*
X192055694Y-249984080D01*
X191057837Y-249984080D01*
X191057837Y-249745955D01*
X191056819Y-249636251D01*
X191052729Y-249562176D01*
X191044015Y-249514027D01*
X191029125Y-249482101D01*
X191012480Y-249462473D01*
X190948473Y-249422694D01*
X190881718Y-249428097D01*
G37*
X190881718Y-249428097D02*
X190818681Y-249472781D01*
X190763015Y-249528447D01*
X190763015Y-250150080D01*
X190763161Y-250334659D01*
X190763850Y-250479383D01*
X190765463Y-250589755D01*
X190768380Y-250671276D01*
X190772978Y-250729449D01*
X190779639Y-250769777D01*
X190788742Y-250797760D01*
X190800666Y-250818903D01*
X190810019Y-250831468D01*
X190871755Y-250880835D01*
X190942643Y-250886193D01*
X191007434Y-250855919D01*
X191028843Y-250838046D01*
X191043154Y-250814305D01*
X191051786Y-250776075D01*
X191056158Y-250714733D01*
X191057690Y-250621660D01*
X191057837Y-250549758D01*
X191057837Y-250278902D01*
X192055694Y-250278902D01*
X192055694Y-250525307D01*
X192056726Y-250637982D01*
X192060854Y-250715418D01*
X192069629Y-250767708D01*
X192084598Y-250804944D01*
X192102697Y-250831468D01*
X192164779Y-250880696D01*
X192234988Y-250886525D01*
X192302201Y-250851535D01*
X192320552Y-250833193D01*
X192333512Y-250808877D01*
X192342061Y-250771001D01*
X192347175Y-250711978D01*
X192349831Y-250624222D01*
X192351009Y-250500146D01*
X192351146Y-250471669D01*
X192352118Y-250237892D01*
X192352619Y-250045228D01*
X192352456Y-249889435D01*
X192351435Y-249766271D01*
X192349363Y-249671493D01*
X192346047Y-249600859D01*
X192341293Y-249550126D01*
X192334909Y-249515052D01*
X192326700Y-249491393D01*
X192316473Y-249474909D01*
X192305158Y-249462473D01*
X192241151Y-249422694D01*
X192174397Y-249428097D01*
X192111360Y-249472781D01*
X192085851Y-249501610D01*
X192069591Y-249533455D01*
X192060519Y-249578808D01*
X192056574Y-249648166D01*
X192055695Y-249752022D01*
X192055694Y-249756264D01*
X192055694Y-249984080D01*
X191057837Y-249984080D01*
X191057837Y-249745955D01*
X191056819Y-249636251D01*
X191052729Y-249562176D01*
X191044015Y-249514027D01*
X191029125Y-249482101D01*
X191012480Y-249462473D01*
X190948473Y-249422694D01*
X190881718Y-249428097D01*
G36*
X193424537Y-249417310D02*
G01*
X193266419Y-249418070D01*
X193143692Y-249419660D01*
X193051374Y-249422345D01*
X192984481Y-249426390D01*
X192938032Y-249432060D01*
X192907043Y-249439620D01*
X192886532Y-249449335D01*
X192876606Y-249456803D01*
X192825089Y-249522165D01*
X192818857Y-249590028D01*
X192850693Y-249651677D01*
X192871512Y-249676312D01*
X192893915Y-249693110D01*
X192926383Y-249703570D01*
X192977394Y-249709195D01*
X193055430Y-249711483D01*
X193168970Y-249711935D01*
X193191269Y-249711937D01*
X193484444Y-249711937D01*
X193484444Y-250256223D01*
X193484637Y-250427782D01*
X193485514Y-250559789D01*
X193487522Y-250658045D01*
X193491106Y-250728356D01*
X193496713Y-250776523D01*
X193504789Y-250808351D01*
X193515782Y-250829642D01*
X193529801Y-250845866D01*
X193595961Y-250885734D01*
X193665026Y-250882592D01*
X193727660Y-250837105D01*
X193732262Y-250831468D01*
X193747243Y-250810158D01*
X193758657Y-250785225D01*
X193766986Y-250750609D01*
X193772713Y-250700253D01*
X193776321Y-250628098D01*
X193778294Y-250528086D01*
X193779114Y-250394158D01*
X193779265Y-250241825D01*
X193779265Y-249711937D01*
X194059233Y-249711937D01*
X194179378Y-249711124D01*
X194262555Y-249707956D01*
X194317137Y-249701339D01*
X194351494Y-249690179D01*
X194374000Y-249673384D01*
X194376733Y-249670464D01*
X194409594Y-249603690D01*
X194406688Y-249528200D01*
X194368908Y-249462473D01*
X194354298Y-249449724D01*
X194335460Y-249439615D01*
X194307372Y-249431840D01*
X194265010Y-249426095D01*
X194203350Y-249422074D01*
X194117368Y-249419472D01*
X194002042Y-249417982D01*
X193852348Y-249417299D01*
X193663262Y-249417119D01*
X193623028Y-249417116D01*
X193424537Y-249417310D01*
G37*
X193424537Y-249417310D02*
X193266419Y-249418070D01*
X193143692Y-249419660D01*
X193051374Y-249422345D01*
X192984481Y-249426390D01*
X192938032Y-249432060D01*
X192907043Y-249439620D01*
X192886532Y-249449335D01*
X192876606Y-249456803D01*
X192825089Y-249522165D01*
X192818857Y-249590028D01*
X192850693Y-249651677D01*
X192871512Y-249676312D01*
X192893915Y-249693110D01*
X192926383Y-249703570D01*
X192977394Y-249709195D01*
X193055430Y-249711483D01*
X193168970Y-249711935D01*
X193191269Y-249711937D01*
X193484444Y-249711937D01*
X193484444Y-250256223D01*
X193484637Y-250427782D01*
X193485514Y-250559789D01*
X193487522Y-250658045D01*
X193491106Y-250728356D01*
X193496713Y-250776523D01*
X193504789Y-250808351D01*
X193515782Y-250829642D01*
X193529801Y-250845866D01*
X193595961Y-250885734D01*
X193665026Y-250882592D01*
X193727660Y-250837105D01*
X193732262Y-250831468D01*
X193747243Y-250810158D01*
X193758657Y-250785225D01*
X193766986Y-250750609D01*
X193772713Y-250700253D01*
X193776321Y-250628098D01*
X193778294Y-250528086D01*
X193779114Y-250394158D01*
X193779265Y-250241825D01*
X193779265Y-249711937D01*
X194059233Y-249711937D01*
X194179378Y-249711124D01*
X194262555Y-249707956D01*
X194317137Y-249701339D01*
X194351494Y-249690179D01*
X194374000Y-249673384D01*
X194376733Y-249670464D01*
X194409594Y-249603690D01*
X194406688Y-249528200D01*
X194368908Y-249462473D01*
X194354298Y-249449724D01*
X194335460Y-249439615D01*
X194307372Y-249431840D01*
X194265010Y-249426095D01*
X194203350Y-249422074D01*
X194117368Y-249419472D01*
X194002042Y-249417982D01*
X193852348Y-249417299D01*
X193663262Y-249417119D01*
X193623028Y-249417116D01*
X193424537Y-249417310D01*
G36*
X194980353Y-249430797D02*
G01*
X194932715Y-249460469D01*
X194879176Y-249503823D01*
X194879176Y-250149785D01*
X194879347Y-250338738D01*
X194880077Y-250487604D01*
X194881695Y-250601655D01*
X194884529Y-250686159D01*
X194888908Y-250746386D01*
X194895159Y-250787608D01*
X194903611Y-250815093D01*
X194914592Y-250834113D01*
X194922379Y-250843485D01*
X194985537Y-250884654D01*
X195057457Y-250882975D01*
X195120458Y-250847870D01*
X195173998Y-250804516D01*
X195173998Y-249503823D01*
X195120458Y-249460469D01*
X195068785Y-249428933D01*
X195026587Y-249417116D01*
X194980353Y-249430797D01*
G37*
X194980353Y-249430797D02*
X194932715Y-249460469D01*
X194879176Y-249503823D01*
X194879176Y-250149785D01*
X194879347Y-250338738D01*
X194880077Y-250487604D01*
X194881695Y-250601655D01*
X194884529Y-250686159D01*
X194888908Y-250746386D01*
X194895159Y-250787608D01*
X194903611Y-250815093D01*
X194914592Y-250834113D01*
X194922379Y-250843485D01*
X194985537Y-250884654D01*
X195057457Y-250882975D01*
X195120458Y-250847870D01*
X195173998Y-250804516D01*
X195173998Y-249503823D01*
X195120458Y-249460469D01*
X195068785Y-249428933D01*
X195026587Y-249417116D01*
X194980353Y-249430797D01*
G36*
X195872215Y-249421068D02*
G01*
X195832861Y-249435132D01*
X195831342Y-249435820D01*
X195777900Y-249476604D01*
X195748455Y-249518555D01*
X195742693Y-249538224D01*
X195742978Y-249564360D01*
X195751085Y-249601591D01*
X195768792Y-249654551D01*
X195797876Y-249727868D01*
X195840113Y-249826174D01*
X195897280Y-249954099D01*
X195971154Y-250116275D01*
X196011816Y-250204916D01*
X196085241Y-250363158D01*
X196154169Y-250508680D01*
X196215968Y-250636160D01*
X196268009Y-250740279D01*
X196307659Y-250815716D01*
X196332289Y-250857151D01*
X196337163Y-250862875D01*
X196399522Y-250888125D01*
X196469960Y-250884743D01*
X196526452Y-250854033D01*
X196528754Y-250851535D01*
X196551226Y-250817515D01*
X196588922Y-250751251D01*
X196637194Y-250661272D01*
X196691392Y-250556109D01*
X196710870Y-250517356D01*
X196857898Y-250222863D01*
X197018157Y-250542772D01*
X197075359Y-250653306D01*
X197128429Y-250749167D01*
X197173031Y-250823016D01*
X197204830Y-250867516D01*
X197215607Y-250876952D01*
X197299374Y-250889732D01*
X197368496Y-250862875D01*
X197388829Y-250834172D01*
X197424014Y-250770381D01*
X197471181Y-250677779D01*
X197527460Y-250562643D01*
X197589981Y-250431249D01*
X197655873Y-250289875D01*
X197722266Y-250144797D01*
X197786290Y-250002293D01*
X197845074Y-249868640D01*
X197895748Y-249750114D01*
X197935442Y-249652992D01*
X197961285Y-249583552D01*
X197970408Y-249548070D01*
X197970315Y-249546785D01*
X197948119Y-249502137D01*
X197903754Y-249456663D01*
X197901141Y-249454685D01*
X197846614Y-249423863D01*
X197796179Y-249424161D01*
X197777276Y-249429972D01*
X197754241Y-249442530D01*
X197729780Y-249467234D01*
X197700958Y-249509207D01*
X197664840Y-249573575D01*
X197618492Y-249665463D01*
X197558981Y-249789994D01*
X197505313Y-249904946D01*
X197443568Y-250038195D01*
X197388240Y-250158023D01*
X197342203Y-250258171D01*
X197308330Y-250332378D01*
X197289498Y-250374384D01*
X197286751Y-250380955D01*
X197274398Y-250370213D01*
X197246007Y-250325236D01*
X197205355Y-250252588D01*
X197156221Y-250158834D01*
X197136669Y-250120152D01*
X197070435Y-249989535D01*
X197019356Y-249894411D01*
X196979240Y-249829252D01*
X196945896Y-249788525D01*
X196915131Y-249766701D01*
X196882755Y-249758249D01*
X196861656Y-249757294D01*
X196824438Y-249760592D01*
X196791824Y-249774232D01*
X196759418Y-249803834D01*
X196722824Y-249855016D01*
X196677646Y-249933398D01*
X196619488Y-250044600D01*
X196587400Y-250107858D01*
X196535352Y-250208675D01*
X196489956Y-250292280D01*
X196455220Y-250351620D01*
X196435147Y-250379639D01*
X196432417Y-250380806D01*
X196419454Y-250358754D01*
X196390431Y-250301493D01*
X196348255Y-250215016D01*
X196295832Y-250105316D01*
X196236069Y-249978386D01*
X196206671Y-249915339D01*
X196130192Y-249752630D01*
X196068608Y-249627429D01*
X196018722Y-249535651D01*
X195977337Y-249473210D01*
X195941256Y-249436023D01*
X195907281Y-249420004D01*
X195872215Y-249421068D01*
G37*
X195872215Y-249421068D02*
X195832861Y-249435132D01*
X195831342Y-249435820D01*
X195777900Y-249476604D01*
X195748455Y-249518555D01*
X195742693Y-249538224D01*
X195742978Y-249564360D01*
X195751085Y-249601591D01*
X195768792Y-249654551D01*
X195797876Y-249727868D01*
X195840113Y-249826174D01*
X195897280Y-249954099D01*
X195971154Y-250116275D01*
X196011816Y-250204916D01*
X196085241Y-250363158D01*
X196154169Y-250508680D01*
X196215968Y-250636160D01*
X196268009Y-250740279D01*
X196307659Y-250815716D01*
X196332289Y-250857151D01*
X196337163Y-250862875D01*
X196399522Y-250888125D01*
X196469960Y-250884743D01*
X196526452Y-250854033D01*
X196528754Y-250851535D01*
X196551226Y-250817515D01*
X196588922Y-250751251D01*
X196637194Y-250661272D01*
X196691392Y-250556109D01*
X196710870Y-250517356D01*
X196857898Y-250222863D01*
X197018157Y-250542772D01*
X197075359Y-250653306D01*
X197128429Y-250749167D01*
X197173031Y-250823016D01*
X197204830Y-250867516D01*
X197215607Y-250876952D01*
X197299374Y-250889732D01*
X197368496Y-250862875D01*
X197388829Y-250834172D01*
X197424014Y-250770381D01*
X197471181Y-250677779D01*
X197527460Y-250562643D01*
X197589981Y-250431249D01*
X197655873Y-250289875D01*
X197722266Y-250144797D01*
X197786290Y-250002293D01*
X197845074Y-249868640D01*
X197895748Y-249750114D01*
X197935442Y-249652992D01*
X197961285Y-249583552D01*
X197970408Y-249548070D01*
X197970315Y-249546785D01*
X197948119Y-249502137D01*
X197903754Y-249456663D01*
X197901141Y-249454685D01*
X197846614Y-249423863D01*
X197796179Y-249424161D01*
X197777276Y-249429972D01*
X197754241Y-249442530D01*
X197729780Y-249467234D01*
X197700958Y-249509207D01*
X197664840Y-249573575D01*
X197618492Y-249665463D01*
X197558981Y-249789994D01*
X197505313Y-249904946D01*
X197443568Y-250038195D01*
X197388240Y-250158023D01*
X197342203Y-250258171D01*
X197308330Y-250332378D01*
X197289498Y-250374384D01*
X197286751Y-250380955D01*
X197274398Y-250370213D01*
X197246007Y-250325236D01*
X197205355Y-250252588D01*
X197156221Y-250158834D01*
X197136669Y-250120152D01*
X197070435Y-249989535D01*
X197019356Y-249894411D01*
X196979240Y-249829252D01*
X196945896Y-249788525D01*
X196915131Y-249766701D01*
X196882755Y-249758249D01*
X196861656Y-249757294D01*
X196824438Y-249760592D01*
X196791824Y-249774232D01*
X196759418Y-249803834D01*
X196722824Y-249855016D01*
X196677646Y-249933398D01*
X196619488Y-250044600D01*
X196587400Y-250107858D01*
X196535352Y-250208675D01*
X196489956Y-250292280D01*
X196455220Y-250351620D01*
X196435147Y-250379639D01*
X196432417Y-250380806D01*
X196419454Y-250358754D01*
X196390431Y-250301493D01*
X196348255Y-250215016D01*
X196295832Y-250105316D01*
X196236069Y-249978386D01*
X196206671Y-249915339D01*
X196130192Y-249752630D01*
X196068608Y-249627429D01*
X196018722Y-249535651D01*
X195977337Y-249473210D01*
X195941256Y-249436023D01*
X195907281Y-249420004D01*
X195872215Y-249421068D01*
G36*
X201349270Y-249417534D02*
G01*
X201090159Y-249426295D01*
X200869774Y-249452863D01*
X200684481Y-249498828D01*
X200530645Y-249565783D01*
X200404634Y-249655316D01*
X200302813Y-249769019D01*
X200221549Y-249908482D01*
X200219950Y-249911883D01*
X200171451Y-250036702D01*
X200154171Y-250147246D01*
X200168175Y-250258497D01*
X200213532Y-250385433D01*
X200222134Y-250404749D01*
X200280794Y-250517806D01*
X200346720Y-250605165D01*
X200431806Y-250679427D01*
X200547946Y-250753191D01*
X200554693Y-250757042D01*
X200655796Y-250805608D01*
X200770071Y-250841879D01*
X200904859Y-250867106D01*
X201067505Y-250882539D01*
X201265351Y-250889431D01*
X201335253Y-250890030D01*
X201668116Y-250891223D01*
X201715119Y-250831468D01*
X201729062Y-250811819D01*
X201739939Y-250788873D01*
X201748129Y-250757129D01*
X201754013Y-250711082D01*
X201757969Y-250645233D01*
X201759259Y-250596402D01*
X201444623Y-250596402D01*
X201256020Y-250596402D01*
X201145655Y-250593174D01*
X201032359Y-250584681D01*
X200939375Y-250572703D01*
X200933762Y-250571694D01*
X200768610Y-250527388D01*
X200640510Y-250460822D01*
X200545410Y-250368907D01*
X200479257Y-250248555D01*
X200467753Y-250216658D01*
X200456478Y-250166980D01*
X200461360Y-250117900D01*
X200485113Y-250052607D01*
X200499431Y-250020532D01*
X200546318Y-249935297D01*
X200602809Y-249875499D01*
X200664965Y-249833857D01*
X200789468Y-249779668D01*
X200948806Y-249740415D01*
X201134427Y-249717812D01*
X201268864Y-249712837D01*
X201444623Y-249711937D01*
X201444623Y-250596402D01*
X201759259Y-250596402D01*
X201760378Y-250554078D01*
X201761619Y-250432115D01*
X201762072Y-250273841D01*
X201762123Y-250150080D01*
X201762123Y-249528447D01*
X201706457Y-249472781D01*
X201681752Y-249450218D01*
X201655039Y-249434766D01*
X201617736Y-249425098D01*
X201561257Y-249419887D01*
X201477022Y-249417805D01*
X201356445Y-249417524D01*
X201349270Y-249417534D01*
G37*
X201349270Y-249417534D02*
X201090159Y-249426295D01*
X200869774Y-249452863D01*
X200684481Y-249498828D01*
X200530645Y-249565783D01*
X200404634Y-249655316D01*
X200302813Y-249769019D01*
X200221549Y-249908482D01*
X200219950Y-249911883D01*
X200171451Y-250036702D01*
X200154171Y-250147246D01*
X200168175Y-250258497D01*
X200213532Y-250385433D01*
X200222134Y-250404749D01*
X200280794Y-250517806D01*
X200346720Y-250605165D01*
X200431806Y-250679427D01*
X200547946Y-250753191D01*
X200554693Y-250757042D01*
X200655796Y-250805608D01*
X200770071Y-250841879D01*
X200904859Y-250867106D01*
X201067505Y-250882539D01*
X201265351Y-250889431D01*
X201335253Y-250890030D01*
X201668116Y-250891223D01*
X201715119Y-250831468D01*
X201729062Y-250811819D01*
X201739939Y-250788873D01*
X201748129Y-250757129D01*
X201754013Y-250711082D01*
X201757969Y-250645233D01*
X201759259Y-250596402D01*
X201444623Y-250596402D01*
X201256020Y-250596402D01*
X201145655Y-250593174D01*
X201032359Y-250584681D01*
X200939375Y-250572703D01*
X200933762Y-250571694D01*
X200768610Y-250527388D01*
X200640510Y-250460822D01*
X200545410Y-250368907D01*
X200479257Y-250248555D01*
X200467753Y-250216658D01*
X200456478Y-250166980D01*
X200461360Y-250117900D01*
X200485113Y-250052607D01*
X200499431Y-250020532D01*
X200546318Y-249935297D01*
X200602809Y-249875499D01*
X200664965Y-249833857D01*
X200789468Y-249779668D01*
X200948806Y-249740415D01*
X201134427Y-249717812D01*
X201268864Y-249712837D01*
X201444623Y-249711937D01*
X201444623Y-250596402D01*
X201759259Y-250596402D01*
X201760378Y-250554078D01*
X201761619Y-250432115D01*
X201762072Y-250273841D01*
X201762123Y-250150080D01*
X201762123Y-249528447D01*
X201706457Y-249472781D01*
X201681752Y-249450218D01*
X201655039Y-249434766D01*
X201617736Y-249425098D01*
X201561257Y-249419887D01*
X201477022Y-249417805D01*
X201356445Y-249417524D01*
X201349270Y-249417534D01*
G36*
X202932237Y-249417503D02*
G01*
X202778838Y-249419340D01*
X202661285Y-249423634D01*
X202574824Y-249431395D01*
X202514700Y-249443633D01*
X202476160Y-249461358D01*
X202454448Y-249485579D01*
X202444810Y-249517305D01*
X202442492Y-249557546D01*
X202442480Y-249562298D01*
X202444492Y-249607814D01*
X202454005Y-249642992D01*
X202476229Y-249669251D01*
X202516378Y-249688012D01*
X202579664Y-249700696D01*
X202671298Y-249708722D01*
X202796493Y-249713512D01*
X202960461Y-249716484D01*
X203010717Y-249717143D01*
X203497033Y-249723277D01*
X203503835Y-249853678D01*
X203510636Y-249984080D01*
X203172841Y-249984080D01*
X203040873Y-249984567D01*
X202946643Y-249986626D01*
X202882535Y-249991155D01*
X202840936Y-249999053D01*
X202814230Y-250011218D01*
X202794802Y-250028548D01*
X202794678Y-250028686D01*
X202759443Y-250096224D01*
X202760717Y-250169221D01*
X202797696Y-250231448D01*
X202805015Y-250237844D01*
X202830990Y-250254328D01*
X202866583Y-250265796D01*
X202919727Y-250273111D01*
X202998352Y-250277138D01*
X203110390Y-250278740D01*
X203182046Y-250278902D01*
X203508373Y-250278902D01*
X203508373Y-250596402D01*
X203012959Y-250596402D01*
X202849394Y-250596688D01*
X202725183Y-250597857D01*
X202634325Y-250600377D01*
X202570820Y-250604715D01*
X202528667Y-250611337D01*
X202501864Y-250620710D01*
X202484411Y-250633302D01*
X202480013Y-250637875D01*
X202447540Y-250701249D01*
X202445164Y-250773347D01*
X202471805Y-250835858D01*
X202492883Y-250855919D01*
X202514810Y-250866963D01*
X202548785Y-250875508D01*
X202600182Y-250881852D01*
X202674375Y-250886295D01*
X202776739Y-250889136D01*
X202912647Y-250890675D01*
X203087475Y-250891210D01*
X203127000Y-250891223D01*
X203304756Y-250891107D01*
X203442738Y-250890465D01*
X203546524Y-250888857D01*
X203621697Y-250885844D01*
X203673839Y-250880986D01*
X203708529Y-250873844D01*
X203731350Y-250863977D01*
X203747883Y-250850946D01*
X203756953Y-250841589D01*
X203770606Y-250825017D01*
X203781272Y-250804487D01*
X203789320Y-250774616D01*
X203795116Y-250730021D01*
X203799027Y-250665317D01*
X203801423Y-250575120D01*
X203802670Y-250454047D01*
X203803136Y-250296713D01*
X203803194Y-250164291D01*
X203803051Y-249978735D01*
X203802374Y-249833065D01*
X203800788Y-249721811D01*
X203797919Y-249639501D01*
X203793393Y-249580666D01*
X203786836Y-249539834D01*
X203777874Y-249511535D01*
X203766133Y-249490298D01*
X203756191Y-249476871D01*
X203709188Y-249417116D01*
X203126237Y-249417116D01*
X202932237Y-249417503D01*
G37*
X202932237Y-249417503D02*
X202778838Y-249419340D01*
X202661285Y-249423634D01*
X202574824Y-249431395D01*
X202514700Y-249443633D01*
X202476160Y-249461358D01*
X202454448Y-249485579D01*
X202444810Y-249517305D01*
X202442492Y-249557546D01*
X202442480Y-249562298D01*
X202444492Y-249607814D01*
X202454005Y-249642992D01*
X202476229Y-249669251D01*
X202516378Y-249688012D01*
X202579664Y-249700696D01*
X202671298Y-249708722D01*
X202796493Y-249713512D01*
X202960461Y-249716484D01*
X203010717Y-249717143D01*
X203497033Y-249723277D01*
X203503835Y-249853678D01*
X203510636Y-249984080D01*
X203172841Y-249984080D01*
X203040873Y-249984567D01*
X202946643Y-249986626D01*
X202882535Y-249991155D01*
X202840936Y-249999053D01*
X202814230Y-250011218D01*
X202794802Y-250028548D01*
X202794678Y-250028686D01*
X202759443Y-250096224D01*
X202760717Y-250169221D01*
X202797696Y-250231448D01*
X202805015Y-250237844D01*
X202830990Y-250254328D01*
X202866583Y-250265796D01*
X202919727Y-250273111D01*
X202998352Y-250277138D01*
X203110390Y-250278740D01*
X203182046Y-250278902D01*
X203508373Y-250278902D01*
X203508373Y-250596402D01*
X203012959Y-250596402D01*
X202849394Y-250596688D01*
X202725183Y-250597857D01*
X202634325Y-250600377D01*
X202570820Y-250604715D01*
X202528667Y-250611337D01*
X202501864Y-250620710D01*
X202484411Y-250633302D01*
X202480013Y-250637875D01*
X202447540Y-250701249D01*
X202445164Y-250773347D01*
X202471805Y-250835858D01*
X202492883Y-250855919D01*
X202514810Y-250866963D01*
X202548785Y-250875508D01*
X202600182Y-250881852D01*
X202674375Y-250886295D01*
X202776739Y-250889136D01*
X202912647Y-250890675D01*
X203087475Y-250891210D01*
X203127000Y-250891223D01*
X203304756Y-250891107D01*
X203442738Y-250890465D01*
X203546524Y-250888857D01*
X203621697Y-250885844D01*
X203673839Y-250880986D01*
X203708529Y-250873844D01*
X203731350Y-250863977D01*
X203747883Y-250850946D01*
X203756953Y-250841589D01*
X203770606Y-250825017D01*
X203781272Y-250804487D01*
X203789320Y-250774616D01*
X203795116Y-250730021D01*
X203799027Y-250665317D01*
X203801423Y-250575120D01*
X203802670Y-250454047D01*
X203803136Y-250296713D01*
X203803194Y-250164291D01*
X203803051Y-249978735D01*
X203802374Y-249833065D01*
X203800788Y-249721811D01*
X203797919Y-249639501D01*
X203793393Y-249580666D01*
X203786836Y-249539834D01*
X203777874Y-249511535D01*
X203766133Y-249490298D01*
X203756191Y-249476871D01*
X203709188Y-249417116D01*
X203126237Y-249417116D01*
X202932237Y-249417503D01*
G36*
X206006815Y-249425918D02*
G01*
X205959473Y-249453690D01*
X205897572Y-249499108D01*
X205817903Y-249564312D01*
X205717260Y-249651440D01*
X205592432Y-249762633D01*
X205440212Y-249900030D01*
X205265962Y-250057999D01*
X204903105Y-250387050D01*
X204891765Y-249945388D01*
X204887671Y-249793357D01*
X204883722Y-249680140D01*
X204879042Y-249599203D01*
X204872759Y-249544016D01*
X204863998Y-249508045D01*
X204851886Y-249484758D01*
X204835549Y-249467622D01*
X204826887Y-249460421D01*
X204757517Y-249422346D01*
X204691507Y-249427913D01*
X204639144Y-249460440D01*
X204585605Y-249503765D01*
X204578946Y-250136482D01*
X204577103Y-250322564D01*
X204576165Y-250468744D01*
X204576457Y-250580474D01*
X204578303Y-250663205D01*
X204582030Y-250722389D01*
X204587960Y-250763476D01*
X204596420Y-250791919D01*
X204607733Y-250813168D01*
X204620280Y-250830211D01*
X204647424Y-250861818D01*
X204674433Y-250882769D01*
X204705050Y-250890811D01*
X204743023Y-250883688D01*
X204792098Y-250859149D01*
X204856020Y-250814937D01*
X204938535Y-250748799D01*
X205043390Y-250658482D01*
X205174331Y-250541731D01*
X205322658Y-250407582D01*
X205855605Y-249924152D01*
X205866944Y-250364370D01*
X205871045Y-250516124D01*
X205875005Y-250629077D01*
X205879701Y-250709775D01*
X205886013Y-250764764D01*
X205894817Y-250800588D01*
X205906992Y-250823793D01*
X205923417Y-250840924D01*
X205931823Y-250847906D01*
X206006114Y-250886257D01*
X206076312Y-250880472D01*
X206137441Y-250831468D01*
X206151425Y-250811753D01*
X206162324Y-250788729D01*
X206170521Y-250756872D01*
X206176400Y-250710658D01*
X206180344Y-250644563D01*
X206182736Y-250553062D01*
X206183959Y-250430634D01*
X206184398Y-250271752D01*
X206184444Y-250154169D01*
X206184297Y-249970256D01*
X206183599Y-249826175D01*
X206181967Y-249716403D01*
X206179019Y-249635416D01*
X206174369Y-249577691D01*
X206167637Y-249537704D01*
X206158437Y-249509930D01*
X206146386Y-249488846D01*
X206137441Y-249476871D01*
X206114766Y-249448503D01*
X206093575Y-249427085D01*
X206070658Y-249414755D01*
X206042808Y-249413653D01*
X206006815Y-249425918D01*
G37*
X206006815Y-249425918D02*
X205959473Y-249453690D01*
X205897572Y-249499108D01*
X205817903Y-249564312D01*
X205717260Y-249651440D01*
X205592432Y-249762633D01*
X205440212Y-249900030D01*
X205265962Y-250057999D01*
X204903105Y-250387050D01*
X204891765Y-249945388D01*
X204887671Y-249793357D01*
X204883722Y-249680140D01*
X204879042Y-249599203D01*
X204872759Y-249544016D01*
X204863998Y-249508045D01*
X204851886Y-249484758D01*
X204835549Y-249467622D01*
X204826887Y-249460421D01*
X204757517Y-249422346D01*
X204691507Y-249427913D01*
X204639144Y-249460440D01*
X204585605Y-249503765D01*
X204578946Y-250136482D01*
X204577103Y-250322564D01*
X204576165Y-250468744D01*
X204576457Y-250580474D01*
X204578303Y-250663205D01*
X204582030Y-250722389D01*
X204587960Y-250763476D01*
X204596420Y-250791919D01*
X204607733Y-250813168D01*
X204620280Y-250830211D01*
X204647424Y-250861818D01*
X204674433Y-250882769D01*
X204705050Y-250890811D01*
X204743023Y-250883688D01*
X204792098Y-250859149D01*
X204856020Y-250814937D01*
X204938535Y-250748799D01*
X205043390Y-250658482D01*
X205174331Y-250541731D01*
X205322658Y-250407582D01*
X205855605Y-249924152D01*
X205866944Y-250364370D01*
X205871045Y-250516124D01*
X205875005Y-250629077D01*
X205879701Y-250709775D01*
X205886013Y-250764764D01*
X205894817Y-250800588D01*
X205906992Y-250823793D01*
X205923417Y-250840924D01*
X205931823Y-250847906D01*
X206006114Y-250886257D01*
X206076312Y-250880472D01*
X206137441Y-250831468D01*
X206151425Y-250811753D01*
X206162324Y-250788729D01*
X206170521Y-250756872D01*
X206176400Y-250710658D01*
X206180344Y-250644563D01*
X206182736Y-250553062D01*
X206183959Y-250430634D01*
X206184398Y-250271752D01*
X206184444Y-250154169D01*
X206184297Y-249970256D01*
X206183599Y-249826175D01*
X206181967Y-249716403D01*
X206179019Y-249635416D01*
X206174369Y-249577691D01*
X206167637Y-249537704D01*
X206158437Y-249509930D01*
X206146386Y-249488846D01*
X206137441Y-249476871D01*
X206114766Y-249448503D01*
X206093575Y-249427085D01*
X206070658Y-249414755D01*
X206042808Y-249413653D01*
X206006815Y-249425918D01*
G36*
X207312553Y-249428229D02*
G01*
X207174908Y-249451325D01*
X207069194Y-249487228D01*
X207000420Y-249534501D01*
X206981679Y-249561471D01*
X206962621Y-249624198D01*
X206975446Y-249680945D01*
X207015933Y-249734758D01*
X207078842Y-249759933D01*
X207170123Y-249757888D01*
X207240724Y-249744249D01*
X207397606Y-249718263D01*
X207557934Y-249715793D01*
X207737389Y-249736886D01*
X207786958Y-249745823D01*
X207953823Y-249792869D01*
X208084366Y-249862852D01*
X208177156Y-249954579D01*
X208230761Y-250066857D01*
X208241848Y-250124905D01*
X208234591Y-250242676D01*
X208187739Y-250346873D01*
X208105562Y-250435465D01*
X207992329Y-250506421D01*
X207852309Y-250557710D01*
X207689771Y-250587302D01*
X207508985Y-250593166D01*
X207314218Y-250573271D01*
X207303221Y-250571395D01*
X207225754Y-250556966D01*
X207182802Y-250543029D01*
X207164185Y-250522349D01*
X207159724Y-250487693D01*
X207159623Y-250469341D01*
X207159623Y-250392294D01*
X207297185Y-250392294D01*
X207418662Y-250383973D01*
X207501561Y-250357455D01*
X207549794Y-250310412D01*
X207567276Y-250240513D01*
X207567490Y-250231390D01*
X207557261Y-250171645D01*
X207522188Y-250128984D01*
X207456910Y-250100752D01*
X207356070Y-250084294D01*
X207258395Y-250078243D01*
X207116431Y-250074771D01*
X207013457Y-250080069D01*
X206943227Y-250099616D01*
X206899494Y-250138896D01*
X206876010Y-250203389D01*
X206866529Y-250298577D01*
X206864801Y-250423598D01*
X206867632Y-250563146D01*
X206876147Y-250658070D01*
X206890386Y-250708747D01*
X206893149Y-250712716D01*
X206971330Y-250776039D01*
X207085955Y-250826185D01*
X207229760Y-250862085D01*
X207395476Y-250882667D01*
X207575838Y-250886860D01*
X207763578Y-250873592D01*
X207873998Y-250857295D01*
X208047188Y-250808274D01*
X208208154Y-250728133D01*
X208342924Y-250624121D01*
X208363408Y-250603332D01*
X208429961Y-250515936D01*
X208490011Y-250407621D01*
X208536544Y-250294063D01*
X208562543Y-250190940D01*
X208565676Y-250151334D01*
X208552336Y-250068717D01*
X208516880Y-249965926D01*
X208466111Y-249857729D01*
X208406832Y-249758892D01*
X208354459Y-249692875D01*
X208232006Y-249594675D01*
X208073712Y-249516515D01*
X207885249Y-249460162D01*
X207672290Y-249427386D01*
X207477123Y-249419377D01*
X207312553Y-249428229D01*
G37*
X207312553Y-249428229D02*
X207174908Y-249451325D01*
X207069194Y-249487228D01*
X207000420Y-249534501D01*
X206981679Y-249561471D01*
X206962621Y-249624198D01*
X206975446Y-249680945D01*
X207015933Y-249734758D01*
X207078842Y-249759933D01*
X207170123Y-249757888D01*
X207240724Y-249744249D01*
X207397606Y-249718263D01*
X207557934Y-249715793D01*
X207737389Y-249736886D01*
X207786958Y-249745823D01*
X207953823Y-249792869D01*
X208084366Y-249862852D01*
X208177156Y-249954579D01*
X208230761Y-250066857D01*
X208241848Y-250124905D01*
X208234591Y-250242676D01*
X208187739Y-250346873D01*
X208105562Y-250435465D01*
X207992329Y-250506421D01*
X207852309Y-250557710D01*
X207689771Y-250587302D01*
X207508985Y-250593166D01*
X207314218Y-250573271D01*
X207303221Y-250571395D01*
X207225754Y-250556966D01*
X207182802Y-250543029D01*
X207164185Y-250522349D01*
X207159724Y-250487693D01*
X207159623Y-250469341D01*
X207159623Y-250392294D01*
X207297185Y-250392294D01*
X207418662Y-250383973D01*
X207501561Y-250357455D01*
X207549794Y-250310412D01*
X207567276Y-250240513D01*
X207567490Y-250231390D01*
X207557261Y-250171645D01*
X207522188Y-250128984D01*
X207456910Y-250100752D01*
X207356070Y-250084294D01*
X207258395Y-250078243D01*
X207116431Y-250074771D01*
X207013457Y-250080069D01*
X206943227Y-250099616D01*
X206899494Y-250138896D01*
X206876010Y-250203389D01*
X206866529Y-250298577D01*
X206864801Y-250423598D01*
X206867632Y-250563146D01*
X206876147Y-250658070D01*
X206890386Y-250708747D01*
X206893149Y-250712716D01*
X206971330Y-250776039D01*
X207085955Y-250826185D01*
X207229760Y-250862085D01*
X207395476Y-250882667D01*
X207575838Y-250886860D01*
X207763578Y-250873592D01*
X207873998Y-250857295D01*
X208047188Y-250808274D01*
X208208154Y-250728133D01*
X208342924Y-250624121D01*
X208363408Y-250603332D01*
X208429961Y-250515936D01*
X208490011Y-250407621D01*
X208536544Y-250294063D01*
X208562543Y-250190940D01*
X208565676Y-250151334D01*
X208552336Y-250068717D01*
X208516880Y-249965926D01*
X208466111Y-249857729D01*
X208406832Y-249758892D01*
X208354459Y-249692875D01*
X208232006Y-249594675D01*
X208073712Y-249516515D01*
X207885249Y-249460162D01*
X207672290Y-249427386D01*
X207477123Y-249419377D01*
X207312553Y-249428229D01*
G36*
X209268730Y-249462473D02*
G01*
X209255509Y-249477687D01*
X209245139Y-249497314D01*
X209237273Y-249526611D01*
X209231567Y-249570836D01*
X209227677Y-249635247D01*
X209225258Y-249725101D01*
X209223964Y-249845657D01*
X209223452Y-250002171D01*
X209223373Y-250154169D01*
X209223513Y-250342701D01*
X209224162Y-250491133D01*
X209225666Y-250604724D01*
X209228369Y-250688732D01*
X209232616Y-250748413D01*
X209238752Y-250789025D01*
X209247121Y-250815827D01*
X209258069Y-250834076D01*
X209268730Y-250845866D01*
X209335031Y-250885403D01*
X209405676Y-250881854D01*
X209468884Y-250838734D01*
X209483407Y-250821900D01*
X209494757Y-250802367D01*
X209503325Y-250774738D01*
X209509502Y-250733612D01*
X209513678Y-250673591D01*
X209516245Y-250589274D01*
X209517592Y-250475263D01*
X209518112Y-250326157D01*
X209518194Y-250157346D01*
X209518194Y-249528447D01*
X209462528Y-249472781D01*
X209393914Y-249425948D01*
X209327357Y-249424261D01*
X209268730Y-249462473D01*
G37*
X209268730Y-249462473D02*
X209255509Y-249477687D01*
X209245139Y-249497314D01*
X209237273Y-249526611D01*
X209231567Y-249570836D01*
X209227677Y-249635247D01*
X209225258Y-249725101D01*
X209223964Y-249845657D01*
X209223452Y-250002171D01*
X209223373Y-250154169D01*
X209223513Y-250342701D01*
X209224162Y-250491133D01*
X209225666Y-250604724D01*
X209228369Y-250688732D01*
X209232616Y-250748413D01*
X209238752Y-250789025D01*
X209247121Y-250815827D01*
X209258069Y-250834076D01*
X209268730Y-250845866D01*
X209335031Y-250885403D01*
X209405676Y-250881854D01*
X209468884Y-250838734D01*
X209483407Y-250821900D01*
X209494757Y-250802367D01*
X209503325Y-250774738D01*
X209509502Y-250733612D01*
X209513678Y-250673591D01*
X209516245Y-250589274D01*
X209517592Y-250475263D01*
X209518112Y-250326157D01*
X209518194Y-250157346D01*
X209518194Y-249528447D01*
X209462528Y-249472781D01*
X209393914Y-249425948D01*
X209327357Y-249424261D01*
X209268730Y-249462473D01*
G36*
X210811346Y-249419696D02*
G01*
X210661048Y-249430203D01*
X210521263Y-249446614D01*
X210400117Y-249468310D01*
X210305734Y-249494673D01*
X210246241Y-249525087D01*
X210237109Y-249534040D01*
X210205355Y-249603511D01*
X210214984Y-249674831D01*
X210264237Y-249735850D01*
X210266587Y-249737598D01*
X210295557Y-249756399D01*
X210325799Y-249766285D01*
X210367981Y-249767486D01*
X210432772Y-249760230D01*
X210530841Y-249744747D01*
X210538730Y-249743444D01*
X210684857Y-249725492D01*
X210842514Y-249716636D01*
X211000636Y-249716550D01*
X211148160Y-249724908D01*
X211274020Y-249741382D01*
X211367152Y-249765646D01*
X211373271Y-249768085D01*
X211440835Y-249805940D01*
X211464573Y-249844250D01*
X211445990Y-249881927D01*
X211386591Y-249917883D01*
X211287881Y-249951029D01*
X211151365Y-249980277D01*
X211060337Y-249994359D01*
X210871118Y-250021446D01*
X210720625Y-250046207D01*
X210602446Y-250070786D01*
X210510171Y-250097328D01*
X210437390Y-250127976D01*
X210377690Y-250164875D01*
X210324662Y-250210168D01*
X210282049Y-250254646D01*
X210231494Y-250316618D01*
X210206615Y-250369907D01*
X210198834Y-250435562D01*
X210198551Y-250459606D01*
X210204395Y-250539394D01*
X210227751Y-250598753D01*
X210268173Y-250651439D01*
X210350324Y-250731977D01*
X210441932Y-250793397D01*
X210549804Y-250837702D01*
X210680745Y-250866895D01*
X210841564Y-250882979D01*
X211039066Y-250887956D01*
X211071676Y-250887872D01*
X211203381Y-250885142D01*
X211333995Y-250878939D01*
X211449281Y-250870153D01*
X211535000Y-250859673D01*
X211541933Y-250858470D01*
X211627159Y-250838281D01*
X211699447Y-250812778D01*
X211740370Y-250789462D01*
X211778454Y-250727952D01*
X211781105Y-250656325D01*
X211748275Y-250592494D01*
X211740930Y-250585276D01*
X211710568Y-250563830D01*
X211672598Y-250554590D01*
X211613832Y-250556163D01*
X211542492Y-250564336D01*
X211462777Y-250571637D01*
X211351029Y-250577797D01*
X211220572Y-250582267D01*
X211084726Y-250584499D01*
X211048998Y-250584646D01*
X210912646Y-250584096D01*
X210812856Y-250581449D01*
X210740848Y-250575786D01*
X210687840Y-250566189D01*
X210645053Y-250551740D01*
X210619340Y-250539705D01*
X210562837Y-250506288D01*
X210526813Y-250476024D01*
X210521548Y-250467445D01*
X210532655Y-250432019D01*
X210585457Y-250397724D01*
X210676296Y-250366117D01*
X210801512Y-250338754D01*
X210838404Y-250332659D01*
X211031098Y-250302393D01*
X211184884Y-250277096D01*
X211305697Y-250254929D01*
X211399475Y-250234053D01*
X211472151Y-250212630D01*
X211529663Y-250188822D01*
X211577945Y-250160791D01*
X211622933Y-250126698D01*
X211670563Y-250084705D01*
X211686591Y-250069982D01*
X211742786Y-250015037D01*
X211772532Y-249971504D01*
X211784169Y-249921688D01*
X211786051Y-249858912D01*
X211765331Y-249735808D01*
X211703409Y-249631214D01*
X211600639Y-249545468D01*
X211457378Y-249478907D01*
X211355158Y-249449052D01*
X211244063Y-249429770D01*
X211110979Y-249418862D01*
X210964032Y-249415710D01*
X210811346Y-249419696D01*
G37*
X210811346Y-249419696D02*
X210661048Y-249430203D01*
X210521263Y-249446614D01*
X210400117Y-249468310D01*
X210305734Y-249494673D01*
X210246241Y-249525087D01*
X210237109Y-249534040D01*
X210205355Y-249603511D01*
X210214984Y-249674831D01*
X210264237Y-249735850D01*
X210266587Y-249737598D01*
X210295557Y-249756399D01*
X210325799Y-249766285D01*
X210367981Y-249767486D01*
X210432772Y-249760230D01*
X210530841Y-249744747D01*
X210538730Y-249743444D01*
X210684857Y-249725492D01*
X210842514Y-249716636D01*
X211000636Y-249716550D01*
X211148160Y-249724908D01*
X211274020Y-249741382D01*
X211367152Y-249765646D01*
X211373271Y-249768085D01*
X211440835Y-249805940D01*
X211464573Y-249844250D01*
X211445990Y-249881927D01*
X211386591Y-249917883D01*
X211287881Y-249951029D01*
X211151365Y-249980277D01*
X211060337Y-249994359D01*
X210871118Y-250021446D01*
X210720625Y-250046207D01*
X210602446Y-250070786D01*
X210510171Y-250097328D01*
X210437390Y-250127976D01*
X210377690Y-250164875D01*
X210324662Y-250210168D01*
X210282049Y-250254646D01*
X210231494Y-250316618D01*
X210206615Y-250369907D01*
X210198834Y-250435562D01*
X210198551Y-250459606D01*
X210204395Y-250539394D01*
X210227751Y-250598753D01*
X210268173Y-250651439D01*
X210350324Y-250731977D01*
X210441932Y-250793397D01*
X210549804Y-250837702D01*
X210680745Y-250866895D01*
X210841564Y-250882979D01*
X211039066Y-250887956D01*
X211071676Y-250887872D01*
X211203381Y-250885142D01*
X211333995Y-250878939D01*
X211449281Y-250870153D01*
X211535000Y-250859673D01*
X211541933Y-250858470D01*
X211627159Y-250838281D01*
X211699447Y-250812778D01*
X211740370Y-250789462D01*
X211778454Y-250727952D01*
X211781105Y-250656325D01*
X211748275Y-250592494D01*
X211740930Y-250585276D01*
X211710568Y-250563830D01*
X211672598Y-250554590D01*
X211613832Y-250556163D01*
X211542492Y-250564336D01*
X211462777Y-250571637D01*
X211351029Y-250577797D01*
X211220572Y-250582267D01*
X211084726Y-250584499D01*
X211048998Y-250584646D01*
X210912646Y-250584096D01*
X210812856Y-250581449D01*
X210740848Y-250575786D01*
X210687840Y-250566189D01*
X210645053Y-250551740D01*
X210619340Y-250539705D01*
X210562837Y-250506288D01*
X210526813Y-250476024D01*
X210521548Y-250467445D01*
X210532655Y-250432019D01*
X210585457Y-250397724D01*
X210676296Y-250366117D01*
X210801512Y-250338754D01*
X210838404Y-250332659D01*
X211031098Y-250302393D01*
X211184884Y-250277096D01*
X211305697Y-250254929D01*
X211399475Y-250234053D01*
X211472151Y-250212630D01*
X211529663Y-250188822D01*
X211577945Y-250160791D01*
X211622933Y-250126698D01*
X211670563Y-250084705D01*
X211686591Y-250069982D01*
X211742786Y-250015037D01*
X211772532Y-249971504D01*
X211784169Y-249921688D01*
X211786051Y-249858912D01*
X211765331Y-249735808D01*
X211703409Y-249631214D01*
X211600639Y-249545468D01*
X211457378Y-249478907D01*
X211355158Y-249449052D01*
X211244063Y-249429770D01*
X211110979Y-249418862D01*
X210964032Y-249415710D01*
X210811346Y-249419696D01*
G36*
X212862646Y-249417275D02*
G01*
X212723210Y-249418023D01*
X212617963Y-249419763D01*
X212541324Y-249422900D01*
X212487710Y-249427836D01*
X212451537Y-249434976D01*
X212427221Y-249444724D01*
X212409181Y-249457484D01*
X212402649Y-249463356D01*
X212362922Y-249525750D01*
X212355769Y-249597441D01*
X212381903Y-249661087D01*
X212393987Y-249673950D01*
X212413532Y-249686421D01*
X212445003Y-249696043D01*
X212494236Y-249703282D01*
X212567066Y-249708606D01*
X212669329Y-249712485D01*
X212806862Y-249715387D01*
X212932603Y-249717152D01*
X213430248Y-249723277D01*
X213437049Y-249853678D01*
X213443850Y-249984080D01*
X213106055Y-249984080D01*
X212959406Y-249985345D01*
X212852044Y-249990637D01*
X212777937Y-250002201D01*
X212731049Y-250022281D01*
X212705347Y-250053121D01*
X212694796Y-250096967D01*
X212693194Y-250137660D01*
X212698173Y-250187591D01*
X212716964Y-250224383D01*
X212755347Y-250249958D01*
X212819100Y-250266239D01*
X212914004Y-250275149D01*
X213045838Y-250278610D01*
X213117794Y-250278902D01*
X213441587Y-250278902D01*
X213441587Y-250596402D01*
X212942658Y-250596402D01*
X212779113Y-250596629D01*
X212654817Y-250597652D01*
X212563666Y-250599979D01*
X212499552Y-250604118D01*
X212456370Y-250610580D01*
X212428013Y-250619871D01*
X212408375Y-250632502D01*
X212398373Y-250641759D01*
X212364062Y-250695786D01*
X212353015Y-250743812D01*
X212368789Y-250802474D01*
X212398373Y-250845866D01*
X212414156Y-250859526D01*
X212434531Y-250870133D01*
X212464978Y-250878071D01*
X212510977Y-250883726D01*
X212578010Y-250887482D01*
X212671558Y-250889723D01*
X212797100Y-250890834D01*
X212960118Y-250891199D01*
X213044712Y-250891223D01*
X213225868Y-250891063D01*
X213367148Y-250890325D01*
X213474032Y-250888627D01*
X213552002Y-250885582D01*
X213606539Y-250880806D01*
X213643122Y-250873915D01*
X213667233Y-250864524D01*
X213684353Y-250852248D01*
X213691051Y-250845866D01*
X213704308Y-250830605D01*
X213714699Y-250810916D01*
X213722571Y-250781524D01*
X213728273Y-250737153D01*
X213732152Y-250672526D01*
X213734557Y-250582367D01*
X213735836Y-250461401D01*
X213736335Y-250304351D01*
X213736408Y-250158123D01*
X213736341Y-249970857D01*
X213735870Y-249823651D01*
X213734593Y-249711205D01*
X213732109Y-249628222D01*
X213728016Y-249569403D01*
X213721911Y-249529450D01*
X213713392Y-249503064D01*
X213702058Y-249484948D01*
X213687505Y-249469803D01*
X213683920Y-249466426D01*
X213666521Y-249451478D01*
X213646305Y-249439903D01*
X213617664Y-249431268D01*
X213574989Y-249425145D01*
X213512675Y-249421102D01*
X213425112Y-249418709D01*
X213306693Y-249417534D01*
X213151811Y-249417148D01*
X213041857Y-249417116D01*
X212862646Y-249417275D01*
G37*
X212862646Y-249417275D02*
X212723210Y-249418023D01*
X212617963Y-249419763D01*
X212541324Y-249422900D01*
X212487710Y-249427836D01*
X212451537Y-249434976D01*
X212427221Y-249444724D01*
X212409181Y-249457484D01*
X212402649Y-249463356D01*
X212362922Y-249525750D01*
X212355769Y-249597441D01*
X212381903Y-249661087D01*
X212393987Y-249673950D01*
X212413532Y-249686421D01*
X212445003Y-249696043D01*
X212494236Y-249703282D01*
X212567066Y-249708606D01*
X212669329Y-249712485D01*
X212806862Y-249715387D01*
X212932603Y-249717152D01*
X213430248Y-249723277D01*
X213437049Y-249853678D01*
X213443850Y-249984080D01*
X213106055Y-249984080D01*
X212959406Y-249985345D01*
X212852044Y-249990637D01*
X212777937Y-250002201D01*
X212731049Y-250022281D01*
X212705347Y-250053121D01*
X212694796Y-250096967D01*
X212693194Y-250137660D01*
X212698173Y-250187591D01*
X212716964Y-250224383D01*
X212755347Y-250249958D01*
X212819100Y-250266239D01*
X212914004Y-250275149D01*
X213045838Y-250278610D01*
X213117794Y-250278902D01*
X213441587Y-250278902D01*
X213441587Y-250596402D01*
X212942658Y-250596402D01*
X212779113Y-250596629D01*
X212654817Y-250597652D01*
X212563666Y-250599979D01*
X212499552Y-250604118D01*
X212456370Y-250610580D01*
X212428013Y-250619871D01*
X212408375Y-250632502D01*
X212398373Y-250641759D01*
X212364062Y-250695786D01*
X212353015Y-250743812D01*
X212368789Y-250802474D01*
X212398373Y-250845866D01*
X212414156Y-250859526D01*
X212434531Y-250870133D01*
X212464978Y-250878071D01*
X212510977Y-250883726D01*
X212578010Y-250887482D01*
X212671558Y-250889723D01*
X212797100Y-250890834D01*
X212960118Y-250891199D01*
X213044712Y-250891223D01*
X213225868Y-250891063D01*
X213367148Y-250890325D01*
X213474032Y-250888627D01*
X213552002Y-250885582D01*
X213606539Y-250880806D01*
X213643122Y-250873915D01*
X213667233Y-250864524D01*
X213684353Y-250852248D01*
X213691051Y-250845866D01*
X213704308Y-250830605D01*
X213714699Y-250810916D01*
X213722571Y-250781524D01*
X213728273Y-250737153D01*
X213732152Y-250672526D01*
X213734557Y-250582367D01*
X213735836Y-250461401D01*
X213736335Y-250304351D01*
X213736408Y-250158123D01*
X213736341Y-249970857D01*
X213735870Y-249823651D01*
X213734593Y-249711205D01*
X213732109Y-249628222D01*
X213728016Y-249569403D01*
X213721911Y-249529450D01*
X213713392Y-249503064D01*
X213702058Y-249484948D01*
X213687505Y-249469803D01*
X213683920Y-249466426D01*
X213666521Y-249451478D01*
X213646305Y-249439903D01*
X213617664Y-249431268D01*
X213574989Y-249425145D01*
X213512675Y-249421102D01*
X213425112Y-249418709D01*
X213306693Y-249417534D01*
X213151811Y-249417148D01*
X213041857Y-249417116D01*
X212862646Y-249417275D01*
G36*
X215692377Y-249417114D02*
G01*
X215613060Y-249417920D01*
X215380649Y-249423528D01*
X215186006Y-249440185D01*
X215022496Y-249469680D01*
X214883486Y-249513797D01*
X214762341Y-249574325D01*
X214652429Y-249653050D01*
X214613171Y-249687248D01*
X214548049Y-249767265D01*
X214489328Y-249875846D01*
X214444069Y-249996203D01*
X214419335Y-250111547D01*
X214416765Y-250154169D01*
X214432870Y-250272322D01*
X214476027Y-250401382D01*
X214538504Y-250523542D01*
X214612567Y-250620992D01*
X214624597Y-250632750D01*
X214726499Y-250715394D01*
X214838088Y-250779909D01*
X214965798Y-250827983D01*
X215116062Y-250861307D01*
X215295314Y-250881572D01*
X215509987Y-250890469D01*
X215608317Y-250891223D01*
X215733340Y-250890621D01*
X215821262Y-250888104D01*
X215880333Y-250882604D01*
X215918800Y-250873055D01*
X215944912Y-250858389D01*
X215958908Y-250845866D01*
X215972129Y-250830652D01*
X215982500Y-250811025D01*
X215990365Y-250781728D01*
X215996071Y-250737503D01*
X215999961Y-250673092D01*
X216002380Y-250583237D01*
X216003674Y-250462682D01*
X216004186Y-250306167D01*
X216004265Y-250154169D01*
X216004765Y-249951440D01*
X216004657Y-249789491D01*
X216002728Y-249711937D01*
X215709444Y-249711937D01*
X215709444Y-250596402D01*
X215522346Y-250596230D01*
X215409764Y-250593001D01*
X215291852Y-250584683D01*
X215193473Y-250573048D01*
X215190480Y-250572569D01*
X215031480Y-250534127D01*
X214908154Y-250474256D01*
X214814343Y-250389058D01*
X214754737Y-250296814D01*
X214718010Y-250194489D01*
X214720858Y-250098409D01*
X214763482Y-249995419D01*
X214846854Y-249888876D01*
X214962386Y-249809927D01*
X215112557Y-249757156D01*
X215212919Y-249738481D01*
X215326843Y-249725366D01*
X215447585Y-249715873D01*
X215550281Y-249711927D01*
X215556364Y-249711908D01*
X215709444Y-249711937D01*
X216002728Y-249711937D01*
X216001529Y-249663782D01*
X215992966Y-249569771D01*
X215976558Y-249502920D01*
X215949890Y-249458686D01*
X215910551Y-249432529D01*
X215856128Y-249419909D01*
X215784207Y-249416284D01*
X215692377Y-249417114D01*
G37*
X215692377Y-249417114D02*
X215613060Y-249417920D01*
X215380649Y-249423528D01*
X215186006Y-249440185D01*
X215022496Y-249469680D01*
X214883486Y-249513797D01*
X214762341Y-249574325D01*
X214652429Y-249653050D01*
X214613171Y-249687248D01*
X214548049Y-249767265D01*
X214489328Y-249875846D01*
X214444069Y-249996203D01*
X214419335Y-250111547D01*
X214416765Y-250154169D01*
X214432870Y-250272322D01*
X214476027Y-250401382D01*
X214538504Y-250523542D01*
X214612567Y-250620992D01*
X214624597Y-250632750D01*
X214726499Y-250715394D01*
X214838088Y-250779909D01*
X214965798Y-250827983D01*
X215116062Y-250861307D01*
X215295314Y-250881572D01*
X215509987Y-250890469D01*
X215608317Y-250891223D01*
X215733340Y-250890621D01*
X215821262Y-250888104D01*
X215880333Y-250882604D01*
X215918800Y-250873055D01*
X215944912Y-250858389D01*
X215958908Y-250845866D01*
X215972129Y-250830652D01*
X215982500Y-250811025D01*
X215990365Y-250781728D01*
X215996071Y-250737503D01*
X215999961Y-250673092D01*
X216002380Y-250583237D01*
X216003674Y-250462682D01*
X216004186Y-250306167D01*
X216004265Y-250154169D01*
X216004765Y-249951440D01*
X216004657Y-249789491D01*
X216002728Y-249711937D01*
X215709444Y-249711937D01*
X215709444Y-250596402D01*
X215522346Y-250596230D01*
X215409764Y-250593001D01*
X215291852Y-250584683D01*
X215193473Y-250573048D01*
X215190480Y-250572569D01*
X215031480Y-250534127D01*
X214908154Y-250474256D01*
X214814343Y-250389058D01*
X214754737Y-250296814D01*
X214718010Y-250194489D01*
X214720858Y-250098409D01*
X214763482Y-249995419D01*
X214846854Y-249888876D01*
X214962386Y-249809927D01*
X215112557Y-249757156D01*
X215212919Y-249738481D01*
X215326843Y-249725366D01*
X215447585Y-249715873D01*
X215550281Y-249711927D01*
X215556364Y-249711908D01*
X215709444Y-249711937D01*
X216002728Y-249711937D01*
X216001529Y-249663782D01*
X215992966Y-249569771D01*
X215976558Y-249502920D01*
X215949890Y-249458686D01*
X215910551Y-249432529D01*
X215856128Y-249419909D01*
X215784207Y-249416284D01*
X215692377Y-249417114D01*
G36*
X209022844Y-236604844D02*
G01*
X208817742Y-236675957D01*
X208626785Y-236787889D01*
X208456243Y-236940625D01*
X208312387Y-237134151D01*
X208247768Y-237256129D01*
X208191842Y-237426743D01*
X208164735Y-237623711D01*
X208167738Y-237826205D01*
X208201067Y-238009699D01*
X208292162Y-238233924D01*
X208424258Y-238428422D01*
X208590642Y-238589367D01*
X208784598Y-238712933D01*
X208999414Y-238795292D01*
X209228375Y-238832617D01*
X209464767Y-238821082D01*
X209581291Y-238796430D01*
X209808385Y-238708091D01*
X210010081Y-238573290D01*
X210181515Y-238396183D01*
X210317820Y-238180927D01*
X210329352Y-238157419D01*
X210369217Y-238069205D01*
X210394249Y-237994910D01*
X210407839Y-237916535D01*
X210413382Y-237816080D01*
X210414302Y-237706774D01*
X210412780Y-237575448D01*
X210405914Y-237480509D01*
X210390250Y-237403753D01*
X210362333Y-237326974D01*
X210327873Y-237251223D01*
X210199338Y-237036190D01*
X210041052Y-236862080D01*
X209859287Y-236728876D01*
X209660313Y-236636566D01*
X209450400Y-236585134D01*
X209235821Y-236574565D01*
X209022844Y-236604844D01*
G37*
X209022844Y-236604844D02*
X208817742Y-236675957D01*
X208626785Y-236787889D01*
X208456243Y-236940625D01*
X208312387Y-237134151D01*
X208247768Y-237256129D01*
X208191842Y-237426743D01*
X208164735Y-237623711D01*
X208167738Y-237826205D01*
X208201067Y-238009699D01*
X208292162Y-238233924D01*
X208424258Y-238428422D01*
X208590642Y-238589367D01*
X208784598Y-238712933D01*
X208999414Y-238795292D01*
X209228375Y-238832617D01*
X209464767Y-238821082D01*
X209581291Y-238796430D01*
X209808385Y-238708091D01*
X210010081Y-238573290D01*
X210181515Y-238396183D01*
X210317820Y-238180927D01*
X210329352Y-238157419D01*
X210369217Y-238069205D01*
X210394249Y-237994910D01*
X210407839Y-237916535D01*
X210413382Y-237816080D01*
X210414302Y-237706774D01*
X210412780Y-237575448D01*
X210405914Y-237480509D01*
X210390250Y-237403753D01*
X210362333Y-237326974D01*
X210327873Y-237251223D01*
X210199338Y-237036190D01*
X210041052Y-236862080D01*
X209859287Y-236728876D01*
X209660313Y-236636566D01*
X209450400Y-236585134D01*
X209235821Y-236574565D01*
X209022844Y-236604844D01*
G36*
X189989033Y-238435618D02*
G01*
X189756746Y-238436571D01*
X189677796Y-238437052D01*
X188592151Y-238444193D01*
X188578495Y-242609247D01*
X188576692Y-243174041D01*
X188575092Y-243686864D01*
X188573594Y-244150371D01*
X188572094Y-244567214D01*
X188570491Y-244940045D01*
X188568680Y-245271519D01*
X188566560Y-245564286D01*
X188564028Y-245821002D01*
X188560980Y-246044318D01*
X188557315Y-246236887D01*
X188552929Y-246401363D01*
X188547720Y-246540398D01*
X188541584Y-246656644D01*
X188534420Y-246752756D01*
X188526125Y-246831386D01*
X188516595Y-246895187D01*
X188505728Y-246946811D01*
X188493421Y-246988912D01*
X188479572Y-247024143D01*
X188464077Y-247055156D01*
X188446835Y-247084604D01*
X188427742Y-247115141D01*
X188406695Y-247149418D01*
X188402381Y-247156720D01*
X188330004Y-247280221D01*
X189376024Y-247273068D01*
X190422044Y-247265914D01*
X190435699Y-247036142D01*
X190443135Y-246925873D01*
X190450883Y-246862122D01*
X190461397Y-246836827D01*
X190477128Y-246841922D01*
X190490323Y-246856498D01*
X190547803Y-246909591D01*
X190641487Y-246977837D01*
X190758175Y-247053080D01*
X190884669Y-247127167D01*
X191007769Y-247191943D01*
X191102287Y-247234561D01*
X191323726Y-247304595D01*
X191577793Y-247354204D01*
X191845734Y-247381494D01*
X192108789Y-247384569D01*
X192348205Y-247361532D01*
X192352147Y-247360873D01*
X192679747Y-247278669D01*
X192986413Y-247147700D01*
X193269186Y-246970780D01*
X193525108Y-246750726D01*
X193751222Y-246490351D01*
X193944570Y-246192472D01*
X194102194Y-245859904D01*
X194188016Y-245613548D01*
X194244611Y-245407445D01*
X194286582Y-245207867D01*
X194315211Y-245002690D01*
X194331782Y-244779791D01*
X194337577Y-244527045D01*
X194335011Y-244320662D01*
X192319675Y-244320662D01*
X192310138Y-244666732D01*
X192280054Y-244964467D01*
X192228497Y-245216510D01*
X192154542Y-245425502D01*
X192057262Y-245594086D01*
X191935734Y-245724906D01*
X191795454Y-245817385D01*
X191722460Y-245851909D01*
X191659153Y-245872607D01*
X191588573Y-245882077D01*
X191493758Y-245882915D01*
X191391613Y-245879228D01*
X191190739Y-245861510D01*
X191031866Y-245826813D01*
X190981936Y-245809433D01*
X190867925Y-245758102D01*
X190747677Y-245693643D01*
X190695162Y-245661376D01*
X190558603Y-245571805D01*
X190558603Y-242732706D01*
X190708818Y-242642665D01*
X190918308Y-242540923D01*
X191132342Y-242480751D01*
X191343091Y-242461796D01*
X191542727Y-242483701D01*
X191723423Y-242546113D01*
X191877351Y-242648676D01*
X191927019Y-242697906D01*
X192046738Y-242859211D01*
X192143636Y-243054471D01*
X192218523Y-243287031D01*
X192272207Y-243560239D01*
X192305500Y-243877441D01*
X192319211Y-244241984D01*
X192319675Y-244320662D01*
X194335011Y-244320662D01*
X194333942Y-244234756D01*
X194310918Y-243785158D01*
X194264622Y-243379628D01*
X194193836Y-243012257D01*
X194097339Y-242677137D01*
X193973913Y-242368363D01*
X193929869Y-242276822D01*
X193752460Y-241978296D01*
X193538070Y-241713007D01*
X193291741Y-241485237D01*
X193018513Y-241299268D01*
X192723426Y-241159382D01*
X192546541Y-241101678D01*
X192372822Y-241067422D01*
X192163795Y-241047041D01*
X191936986Y-241040525D01*
X191709916Y-241047866D01*
X191500108Y-241069055D01*
X191331648Y-241102295D01*
X191131143Y-241167482D01*
X190936805Y-241251307D01*
X190766776Y-241345280D01*
X190676279Y-241409058D01*
X190613856Y-241456484D01*
X190570147Y-241485361D01*
X190560204Y-241489462D01*
X190557121Y-241463041D01*
X190554247Y-241387339D01*
X190551645Y-241267698D01*
X190549379Y-241109462D01*
X190547512Y-240917973D01*
X190546109Y-240698574D01*
X190545233Y-240456607D01*
X190544947Y-240210147D01*
X190545106Y-239894476D01*
X190545892Y-239628337D01*
X190547762Y-239406641D01*
X190551175Y-239224296D01*
X190556591Y-239076212D01*
X190564469Y-238957299D01*
X190575267Y-238862465D01*
X190589445Y-238786620D01*
X190607461Y-238724674D01*
X190629775Y-238671536D01*
X190656846Y-238622115D01*
X190689133Y-238571321D01*
X190693287Y-238565031D01*
X190734929Y-238499245D01*
X190760071Y-238454008D01*
X190763441Y-238444466D01*
X190737097Y-238441455D01*
X190661931Y-238439006D01*
X190543743Y-238437158D01*
X190388331Y-238435951D01*
X190201494Y-238435424D01*
X189989033Y-238435618D01*
G37*
X189989033Y-238435618D02*
X189756746Y-238436571D01*
X189677796Y-238437052D01*
X188592151Y-238444193D01*
X188578495Y-242609247D01*
X188576692Y-243174041D01*
X188575092Y-243686864D01*
X188573594Y-244150371D01*
X188572094Y-244567214D01*
X188570491Y-244940045D01*
X188568680Y-245271519D01*
X188566560Y-245564286D01*
X188564028Y-245821002D01*
X188560980Y-246044318D01*
X188557315Y-246236887D01*
X188552929Y-246401363D01*
X188547720Y-246540398D01*
X188541584Y-246656644D01*
X188534420Y-246752756D01*
X188526125Y-246831386D01*
X188516595Y-246895187D01*
X188505728Y-246946811D01*
X188493421Y-246988912D01*
X188479572Y-247024143D01*
X188464077Y-247055156D01*
X188446835Y-247084604D01*
X188427742Y-247115141D01*
X188406695Y-247149418D01*
X188402381Y-247156720D01*
X188330004Y-247280221D01*
X189376024Y-247273068D01*
X190422044Y-247265914D01*
X190435699Y-247036142D01*
X190443135Y-246925873D01*
X190450883Y-246862122D01*
X190461397Y-246836827D01*
X190477128Y-246841922D01*
X190490323Y-246856498D01*
X190547803Y-246909591D01*
X190641487Y-246977837D01*
X190758175Y-247053080D01*
X190884669Y-247127167D01*
X191007769Y-247191943D01*
X191102287Y-247234561D01*
X191323726Y-247304595D01*
X191577793Y-247354204D01*
X191845734Y-247381494D01*
X192108789Y-247384569D01*
X192348205Y-247361532D01*
X192352147Y-247360873D01*
X192679747Y-247278669D01*
X192986413Y-247147700D01*
X193269186Y-246970780D01*
X193525108Y-246750726D01*
X193751222Y-246490351D01*
X193944570Y-246192472D01*
X194102194Y-245859904D01*
X194188016Y-245613548D01*
X194244611Y-245407445D01*
X194286582Y-245207867D01*
X194315211Y-245002690D01*
X194331782Y-244779791D01*
X194337577Y-244527045D01*
X194335011Y-244320662D01*
X192319675Y-244320662D01*
X192310138Y-244666732D01*
X192280054Y-244964467D01*
X192228497Y-245216510D01*
X192154542Y-245425502D01*
X192057262Y-245594086D01*
X191935734Y-245724906D01*
X191795454Y-245817385D01*
X191722460Y-245851909D01*
X191659153Y-245872607D01*
X191588573Y-245882077D01*
X191493758Y-245882915D01*
X191391613Y-245879228D01*
X191190739Y-245861510D01*
X191031866Y-245826813D01*
X190981936Y-245809433D01*
X190867925Y-245758102D01*
X190747677Y-245693643D01*
X190695162Y-245661376D01*
X190558603Y-245571805D01*
X190558603Y-242732706D01*
X190708818Y-242642665D01*
X190918308Y-242540923D01*
X191132342Y-242480751D01*
X191343091Y-242461796D01*
X191542727Y-242483701D01*
X191723423Y-242546113D01*
X191877351Y-242648676D01*
X191927019Y-242697906D01*
X192046738Y-242859211D01*
X192143636Y-243054471D01*
X192218523Y-243287031D01*
X192272207Y-243560239D01*
X192305500Y-243877441D01*
X192319211Y-244241984D01*
X192319675Y-244320662D01*
X194335011Y-244320662D01*
X194333942Y-244234756D01*
X194310918Y-243785158D01*
X194264622Y-243379628D01*
X194193836Y-243012257D01*
X194097339Y-242677137D01*
X193973913Y-242368363D01*
X193929869Y-242276822D01*
X193752460Y-241978296D01*
X193538070Y-241713007D01*
X193291741Y-241485237D01*
X193018513Y-241299268D01*
X192723426Y-241159382D01*
X192546541Y-241101678D01*
X192372822Y-241067422D01*
X192163795Y-241047041D01*
X191936986Y-241040525D01*
X191709916Y-241047866D01*
X191500108Y-241069055D01*
X191331648Y-241102295D01*
X191131143Y-241167482D01*
X190936805Y-241251307D01*
X190766776Y-241345280D01*
X190676279Y-241409058D01*
X190613856Y-241456484D01*
X190570147Y-241485361D01*
X190560204Y-241489462D01*
X190557121Y-241463041D01*
X190554247Y-241387339D01*
X190551645Y-241267698D01*
X190549379Y-241109462D01*
X190547512Y-240917973D01*
X190546109Y-240698574D01*
X190545233Y-240456607D01*
X190544947Y-240210147D01*
X190545106Y-239894476D01*
X190545892Y-239628337D01*
X190547762Y-239406641D01*
X190551175Y-239224296D01*
X190556591Y-239076212D01*
X190564469Y-238957299D01*
X190575267Y-238862465D01*
X190589445Y-238786620D01*
X190607461Y-238724674D01*
X190629775Y-238671536D01*
X190656846Y-238622115D01*
X190689133Y-238571321D01*
X190693287Y-238565031D01*
X190734929Y-238499245D01*
X190760071Y-238454008D01*
X190763441Y-238444466D01*
X190737097Y-238441455D01*
X190661931Y-238439006D01*
X190543743Y-238437158D01*
X190388331Y-238435951D01*
X190201494Y-238435424D01*
X189989033Y-238435618D01*
G36*
X197299049Y-241036368D02*
G01*
X197163728Y-241046611D01*
X196776558Y-241098122D01*
X196433679Y-241180283D01*
X196133420Y-241294222D01*
X195874112Y-241441072D01*
X195654084Y-241621962D01*
X195471666Y-241838022D01*
X195325189Y-242090384D01*
X195218229Y-242363441D01*
X195191079Y-242450541D01*
X195167436Y-242532107D01*
X195147023Y-242612529D01*
X195129561Y-242696199D01*
X195114770Y-242787508D01*
X195102373Y-242890847D01*
X195092089Y-243010609D01*
X195083642Y-243151183D01*
X195076752Y-243316962D01*
X195071139Y-243512336D01*
X195066527Y-243741698D01*
X195062635Y-244009437D01*
X195059185Y-244319947D01*
X195055898Y-244677618D01*
X195053549Y-244958064D01*
X195037742Y-246883548D01*
X194935323Y-247068843D01*
X194886825Y-247158111D01*
X194850734Y-247227448D01*
X194833517Y-247264354D01*
X194832904Y-247266854D01*
X194859220Y-247269715D01*
X194934189Y-247272351D01*
X195051839Y-247274689D01*
X195206200Y-247276653D01*
X195391300Y-247278170D01*
X195601168Y-247279165D01*
X195829833Y-247279565D01*
X195857097Y-247279570D01*
X196881291Y-247279570D01*
X196881291Y-247047419D01*
X196883037Y-246942507D01*
X196887698Y-246862271D01*
X196894404Y-246819251D01*
X196897368Y-246815269D01*
X196924477Y-246831950D01*
X196980269Y-246875731D01*
X197052785Y-246937216D01*
X197054411Y-246938638D01*
X197186743Y-247037160D01*
X197353867Y-247136089D01*
X197536900Y-247225706D01*
X197716957Y-247296293D01*
X197796237Y-247320414D01*
X197954009Y-247351051D01*
X198147603Y-247370602D01*
X198359296Y-247378787D01*
X198571368Y-247375327D01*
X198766096Y-247359945D01*
X198902366Y-247337811D01*
X199236546Y-247239676D01*
X199537397Y-247099819D01*
X199802961Y-246919974D01*
X200031279Y-246701876D01*
X200220394Y-246447261D01*
X200368347Y-246157864D01*
X200432175Y-245982258D01*
X200472177Y-245811576D01*
X200498687Y-245606678D01*
X200510953Y-245386464D01*
X200510550Y-245354420D01*
X198663388Y-245354420D01*
X198648070Y-245518053D01*
X198597065Y-245654042D01*
X198502796Y-245780208D01*
X198466589Y-245817203D01*
X198337880Y-245917221D01*
X198189115Y-245981294D01*
X198010887Y-246012309D01*
X197823202Y-246014593D01*
X197645186Y-245999514D01*
X197508888Y-245970021D01*
X197449694Y-245947869D01*
X197343005Y-245887496D01*
X197229963Y-245802589D01*
X197126825Y-245707295D01*
X197049849Y-245615760D01*
X197029409Y-245582181D01*
X197013519Y-245535157D01*
X197002222Y-245460333D01*
X196994991Y-245350560D01*
X196991300Y-245198692D01*
X196990538Y-245054155D01*
X196991054Y-244885644D01*
X196993140Y-244763799D01*
X196997598Y-244680666D01*
X197005235Y-244628292D01*
X197016854Y-244598726D01*
X197033260Y-244584013D01*
X197038334Y-244581670D01*
X197082430Y-244574453D01*
X197169400Y-244568550D01*
X197287500Y-244564493D01*
X197424986Y-244562815D01*
X197454839Y-244562813D01*
X197638614Y-244565746D01*
X197780593Y-244574469D01*
X197893409Y-244590177D01*
X197986598Y-244613118D01*
X198217754Y-244700535D01*
X198399027Y-244808010D01*
X198531986Y-244937262D01*
X198618199Y-245090010D01*
X198659238Y-245267972D01*
X198663388Y-245354420D01*
X200510550Y-245354420D01*
X200508224Y-245169834D01*
X200489748Y-244975689D01*
X200475336Y-244897252D01*
X200383310Y-244606017D01*
X200243377Y-244338054D01*
X200058177Y-244095932D01*
X199830352Y-243882221D01*
X199562543Y-243699492D01*
X199257393Y-243550314D01*
X198997957Y-243459727D01*
X198824566Y-243412136D01*
X198658718Y-243375155D01*
X198489671Y-243347585D01*
X198306683Y-243328224D01*
X198099011Y-243315871D01*
X197855913Y-243309326D01*
X197636128Y-243307483D01*
X196984406Y-243305699D01*
X196996891Y-243109798D01*
X197032343Y-242897243D01*
X197107759Y-242714543D01*
X197219927Y-242566262D01*
X197365636Y-242456960D01*
X197493936Y-242403624D01*
X197677765Y-242370010D01*
X197896606Y-242365183D01*
X198140200Y-242387363D01*
X198398290Y-242434772D01*
X198660615Y-242505629D01*
X198916918Y-242598155D01*
X199103176Y-242682778D01*
X199192789Y-242726231D01*
X199261142Y-242756580D01*
X199295903Y-242768423D01*
X199297789Y-242768043D01*
X199309785Y-242741518D01*
X199339738Y-242671210D01*
X199384830Y-242563855D01*
X199442243Y-242426190D01*
X199509158Y-242264949D01*
X199577176Y-242100395D01*
X199849103Y-241441328D01*
X199655681Y-241409559D01*
X199571846Y-241393619D01*
X199445817Y-241366847D01*
X199288392Y-241331673D01*
X199110367Y-241290528D01*
X198922537Y-241245842D01*
X198847742Y-241227683D01*
X198524162Y-241152631D01*
X198240868Y-241096362D01*
X197987285Y-241057738D01*
X197752838Y-241035623D01*
X197526951Y-241028878D01*
X197299049Y-241036368D01*
G37*
X197299049Y-241036368D02*
X197163728Y-241046611D01*
X196776558Y-241098122D01*
X196433679Y-241180283D01*
X196133420Y-241294222D01*
X195874112Y-241441072D01*
X195654084Y-241621962D01*
X195471666Y-241838022D01*
X195325189Y-242090384D01*
X195218229Y-242363441D01*
X195191079Y-242450541D01*
X195167436Y-242532107D01*
X195147023Y-242612529D01*
X195129561Y-242696199D01*
X195114770Y-242787508D01*
X195102373Y-242890847D01*
X195092089Y-243010609D01*
X195083642Y-243151183D01*
X195076752Y-243316962D01*
X195071139Y-243512336D01*
X195066527Y-243741698D01*
X195062635Y-244009437D01*
X195059185Y-244319947D01*
X195055898Y-244677618D01*
X195053549Y-244958064D01*
X195037742Y-246883548D01*
X194935323Y-247068843D01*
X194886825Y-247158111D01*
X194850734Y-247227448D01*
X194833517Y-247264354D01*
X194832904Y-247266854D01*
X194859220Y-247269715D01*
X194934189Y-247272351D01*
X195051839Y-247274689D01*
X195206200Y-247276653D01*
X195391300Y-247278170D01*
X195601168Y-247279165D01*
X195829833Y-247279565D01*
X195857097Y-247279570D01*
X196881291Y-247279570D01*
X196881291Y-247047419D01*
X196883037Y-246942507D01*
X196887698Y-246862271D01*
X196894404Y-246819251D01*
X196897368Y-246815269D01*
X196924477Y-246831950D01*
X196980269Y-246875731D01*
X197052785Y-246937216D01*
X197054411Y-246938638D01*
X197186743Y-247037160D01*
X197353867Y-247136089D01*
X197536900Y-247225706D01*
X197716957Y-247296293D01*
X197796237Y-247320414D01*
X197954009Y-247351051D01*
X198147603Y-247370602D01*
X198359296Y-247378787D01*
X198571368Y-247375327D01*
X198766096Y-247359945D01*
X198902366Y-247337811D01*
X199236546Y-247239676D01*
X199537397Y-247099819D01*
X199802961Y-246919974D01*
X200031279Y-246701876D01*
X200220394Y-246447261D01*
X200368347Y-246157864D01*
X200432175Y-245982258D01*
X200472177Y-245811576D01*
X200498687Y-245606678D01*
X200510953Y-245386464D01*
X200510550Y-245354420D01*
X198663388Y-245354420D01*
X198648070Y-245518053D01*
X198597065Y-245654042D01*
X198502796Y-245780208D01*
X198466589Y-245817203D01*
X198337880Y-245917221D01*
X198189115Y-245981294D01*
X198010887Y-246012309D01*
X197823202Y-246014593D01*
X197645186Y-245999514D01*
X197508888Y-245970021D01*
X197449694Y-245947869D01*
X197343005Y-245887496D01*
X197229963Y-245802589D01*
X197126825Y-245707295D01*
X197049849Y-245615760D01*
X197029409Y-245582181D01*
X197013519Y-245535157D01*
X197002222Y-245460333D01*
X196994991Y-245350560D01*
X196991300Y-245198692D01*
X196990538Y-245054155D01*
X196991054Y-244885644D01*
X196993140Y-244763799D01*
X196997598Y-244680666D01*
X197005235Y-244628292D01*
X197016854Y-244598726D01*
X197033260Y-244584013D01*
X197038334Y-244581670D01*
X197082430Y-244574453D01*
X197169400Y-244568550D01*
X197287500Y-244564493D01*
X197424986Y-244562815D01*
X197454839Y-244562813D01*
X197638614Y-244565746D01*
X197780593Y-244574469D01*
X197893409Y-244590177D01*
X197986598Y-244613118D01*
X198217754Y-244700535D01*
X198399027Y-244808010D01*
X198531986Y-244937262D01*
X198618199Y-245090010D01*
X198659238Y-245267972D01*
X198663388Y-245354420D01*
X200510550Y-245354420D01*
X200508224Y-245169834D01*
X200489748Y-244975689D01*
X200475336Y-244897252D01*
X200383310Y-244606017D01*
X200243377Y-244338054D01*
X200058177Y-244095932D01*
X199830352Y-243882221D01*
X199562543Y-243699492D01*
X199257393Y-243550314D01*
X198997957Y-243459727D01*
X198824566Y-243412136D01*
X198658718Y-243375155D01*
X198489671Y-243347585D01*
X198306683Y-243328224D01*
X198099011Y-243315871D01*
X197855913Y-243309326D01*
X197636128Y-243307483D01*
X196984406Y-243305699D01*
X196996891Y-243109798D01*
X197032343Y-242897243D01*
X197107759Y-242714543D01*
X197219927Y-242566262D01*
X197365636Y-242456960D01*
X197493936Y-242403624D01*
X197677765Y-242370010D01*
X197896606Y-242365183D01*
X198140200Y-242387363D01*
X198398290Y-242434772D01*
X198660615Y-242505629D01*
X198916918Y-242598155D01*
X199103176Y-242682778D01*
X199192789Y-242726231D01*
X199261142Y-242756580D01*
X199295903Y-242768423D01*
X199297789Y-242768043D01*
X199309785Y-242741518D01*
X199339738Y-242671210D01*
X199384830Y-242563855D01*
X199442243Y-242426190D01*
X199509158Y-242264949D01*
X199577176Y-242100395D01*
X199849103Y-241441328D01*
X199655681Y-241409559D01*
X199571846Y-241393619D01*
X199445817Y-241366847D01*
X199288392Y-241331673D01*
X199110367Y-241290528D01*
X198922537Y-241245842D01*
X198847742Y-241227683D01*
X198524162Y-241152631D01*
X198240868Y-241096362D01*
X197987285Y-241057738D01*
X197752838Y-241035623D01*
X197526951Y-241028878D01*
X197299049Y-241036368D01*
G36*
X202724807Y-238840777D02*
G01*
X202430294Y-238873019D01*
X202144961Y-238930729D01*
X201857200Y-239016917D01*
X201555404Y-239134593D01*
X201227966Y-239286767D01*
X201168999Y-239316243D01*
X201033676Y-239382910D01*
X200906049Y-239442939D01*
X200798713Y-239490599D01*
X200724264Y-239520155D01*
X200712827Y-239523876D01*
X200603226Y-239556714D01*
X201093845Y-240270453D01*
X201213794Y-240444895D01*
X201323461Y-240604270D01*
X201419117Y-240743168D01*
X201497031Y-240856178D01*
X201553475Y-240937890D01*
X201584719Y-240982891D01*
X201589795Y-240990018D01*
X201610412Y-240975117D01*
X201661161Y-240930320D01*
X201732966Y-240863765D01*
X201772594Y-240826147D01*
X201997118Y-240647568D01*
X202249274Y-240511868D01*
X202466560Y-240437537D01*
X202596993Y-240414193D01*
X202760307Y-240399967D01*
X202937293Y-240395124D01*
X203108744Y-240399926D01*
X203255452Y-240414638D01*
X203313993Y-240425905D01*
X203577853Y-240516685D01*
X203815622Y-240655296D01*
X204027124Y-240841485D01*
X204212184Y-241074999D01*
X204370625Y-241355584D01*
X204502271Y-241682987D01*
X204606946Y-242056955D01*
X204669155Y-242377097D01*
X204685386Y-242518426D01*
X204696444Y-242701004D01*
X204702437Y-242911709D01*
X204703473Y-243137422D01*
X204699657Y-243365022D01*
X204691097Y-243581389D01*
X204677899Y-243773402D01*
X204660170Y-243927943D01*
X204656333Y-243951786D01*
X204571749Y-244335860D01*
X204456505Y-244675783D01*
X204309897Y-244973078D01*
X204131226Y-245229268D01*
X204004400Y-245367775D01*
X203776475Y-245555828D01*
X203526512Y-245695220D01*
X203258730Y-245785195D01*
X202977344Y-245824994D01*
X202686571Y-245813857D01*
X202390627Y-245751026D01*
X202215660Y-245689547D01*
X201973534Y-245566436D01*
X201723980Y-245389837D01*
X201584191Y-245270412D01*
X201505699Y-245201291D01*
X201444030Y-245150579D01*
X201408928Y-245126144D01*
X201404570Y-245125398D01*
X201388903Y-245150367D01*
X201348308Y-245216348D01*
X201286243Y-245317685D01*
X201206167Y-245448721D01*
X201111538Y-245603800D01*
X201005814Y-245777265D01*
X200946967Y-245873896D01*
X200497474Y-246612201D01*
X201058683Y-246889549D01*
X201261596Y-246989172D01*
X201425973Y-247067729D01*
X201561861Y-247129122D01*
X201679309Y-247177253D01*
X201788364Y-247216023D01*
X201899074Y-247249333D01*
X202021487Y-247281086D01*
X202138818Y-247308969D01*
X202243105Y-247330546D01*
X202352168Y-247346851D01*
X202476927Y-247358791D01*
X202628297Y-247367270D01*
X202817199Y-247373192D01*
X202944517Y-247375749D01*
X203126177Y-247377494D01*
X203300367Y-247376614D01*
X203455557Y-247373360D01*
X203580223Y-247367984D01*
X203662834Y-247360735D01*
X203667730Y-247360012D01*
X204096709Y-247267205D01*
X204499551Y-247126449D01*
X204876112Y-246937839D01*
X205226252Y-246701466D01*
X205549828Y-246417424D01*
X205846700Y-246085805D01*
X206061701Y-245791075D01*
X206290589Y-245405298D01*
X206475611Y-244997895D01*
X206617662Y-244565600D01*
X206717636Y-244105146D01*
X206776428Y-243613267D01*
X206794951Y-243113799D01*
X206779717Y-242630634D01*
X206731844Y-242184842D01*
X206649811Y-241768905D01*
X206532097Y-241375304D01*
X206377181Y-240996518D01*
X206358683Y-240957275D01*
X206154894Y-240590440D01*
X205904598Y-240241360D01*
X205614885Y-239917260D01*
X205292846Y-239625366D01*
X204945574Y-239372904D01*
X204621987Y-239187714D01*
X204295096Y-239042670D01*
X203967511Y-238937603D01*
X203626552Y-238869653D01*
X203259535Y-238835960D01*
X203040108Y-238830992D01*
X202724807Y-238840777D01*
G37*
X202724807Y-238840777D02*
X202430294Y-238873019D01*
X202144961Y-238930729D01*
X201857200Y-239016917D01*
X201555404Y-239134593D01*
X201227966Y-239286767D01*
X201168999Y-239316243D01*
X201033676Y-239382910D01*
X200906049Y-239442939D01*
X200798713Y-239490599D01*
X200724264Y-239520155D01*
X200712827Y-239523876D01*
X200603226Y-239556714D01*
X201093845Y-240270453D01*
X201213794Y-240444895D01*
X201323461Y-240604270D01*
X201419117Y-240743168D01*
X201497031Y-240856178D01*
X201553475Y-240937890D01*
X201584719Y-240982891D01*
X201589795Y-240990018D01*
X201610412Y-240975117D01*
X201661161Y-240930320D01*
X201732966Y-240863765D01*
X201772594Y-240826147D01*
X201997118Y-240647568D01*
X202249274Y-240511868D01*
X202466560Y-240437537D01*
X202596993Y-240414193D01*
X202760307Y-240399967D01*
X202937293Y-240395124D01*
X203108744Y-240399926D01*
X203255452Y-240414638D01*
X203313993Y-240425905D01*
X203577853Y-240516685D01*
X203815622Y-240655296D01*
X204027124Y-240841485D01*
X204212184Y-241074999D01*
X204370625Y-241355584D01*
X204502271Y-241682987D01*
X204606946Y-242056955D01*
X204669155Y-242377097D01*
X204685386Y-242518426D01*
X204696444Y-242701004D01*
X204702437Y-242911709D01*
X204703473Y-243137422D01*
X204699657Y-243365022D01*
X204691097Y-243581389D01*
X204677899Y-243773402D01*
X204660170Y-243927943D01*
X204656333Y-243951786D01*
X204571749Y-244335860D01*
X204456505Y-244675783D01*
X204309897Y-244973078D01*
X204131226Y-245229268D01*
X204004400Y-245367775D01*
X203776475Y-245555828D01*
X203526512Y-245695220D01*
X203258730Y-245785195D01*
X202977344Y-245824994D01*
X202686571Y-245813857D01*
X202390627Y-245751026D01*
X202215660Y-245689547D01*
X201973534Y-245566436D01*
X201723980Y-245389837D01*
X201584191Y-245270412D01*
X201505699Y-245201291D01*
X201444030Y-245150579D01*
X201408928Y-245126144D01*
X201404570Y-245125398D01*
X201388903Y-245150367D01*
X201348308Y-245216348D01*
X201286243Y-245317685D01*
X201206167Y-245448721D01*
X201111538Y-245603800D01*
X201005814Y-245777265D01*
X200946967Y-245873896D01*
X200497474Y-246612201D01*
X201058683Y-246889549D01*
X201261596Y-246989172D01*
X201425973Y-247067729D01*
X201561861Y-247129122D01*
X201679309Y-247177253D01*
X201788364Y-247216023D01*
X201899074Y-247249333D01*
X202021487Y-247281086D01*
X202138818Y-247308969D01*
X202243105Y-247330546D01*
X202352168Y-247346851D01*
X202476927Y-247358791D01*
X202628297Y-247367270D01*
X202817199Y-247373192D01*
X202944517Y-247375749D01*
X203126177Y-247377494D01*
X203300367Y-247376614D01*
X203455557Y-247373360D01*
X203580223Y-247367984D01*
X203662834Y-247360735D01*
X203667730Y-247360012D01*
X204096709Y-247267205D01*
X204499551Y-247126449D01*
X204876112Y-246937839D01*
X205226252Y-246701466D01*
X205549828Y-246417424D01*
X205846700Y-246085805D01*
X206061701Y-245791075D01*
X206290589Y-245405298D01*
X206475611Y-244997895D01*
X206617662Y-244565600D01*
X206717636Y-244105146D01*
X206776428Y-243613267D01*
X206794951Y-243113799D01*
X206779717Y-242630634D01*
X206731844Y-242184842D01*
X206649811Y-241768905D01*
X206532097Y-241375304D01*
X206377181Y-240996518D01*
X206358683Y-240957275D01*
X206154894Y-240590440D01*
X205904598Y-240241360D01*
X205614885Y-239917260D01*
X205292846Y-239625366D01*
X204945574Y-239372904D01*
X204621987Y-239187714D01*
X204295096Y-239042670D01*
X203967511Y-238937603D01*
X203626552Y-238869653D01*
X203259535Y-238835960D01*
X203040108Y-238830992D01*
X202724807Y-238840777D01*
G36*
X215447446Y-237474541D02*
G01*
X214921244Y-237474613D01*
X214676303Y-237474623D01*
X210755699Y-237474623D01*
X210755699Y-237705734D01*
X210731032Y-237986976D01*
X210656584Y-238246359D01*
X210531686Y-238485424D01*
X210355670Y-238705714D01*
X210296118Y-238765210D01*
X210081895Y-238933971D01*
X209845690Y-239057052D01*
X209594517Y-239134510D01*
X209335393Y-239166399D01*
X209075333Y-239152776D01*
X208821353Y-239093697D01*
X208580469Y-238989217D01*
X208359696Y-238839393D01*
X208260543Y-238749001D01*
X208075773Y-238527376D01*
X207940284Y-238283661D01*
X207855256Y-238020643D01*
X207821872Y-237741106D01*
X207821428Y-237713606D01*
X207819678Y-237474632D01*
X207714645Y-237474628D01*
X207621470Y-237487273D01*
X207536356Y-237518040D01*
X207530731Y-237521219D01*
X207511508Y-237531194D01*
X207493855Y-237538962D01*
X207477708Y-237546787D01*
X207463005Y-237556930D01*
X207449681Y-237571655D01*
X207437672Y-237593225D01*
X207426915Y-237623901D01*
X207417346Y-237665947D01*
X207408901Y-237721626D01*
X207401516Y-237793199D01*
X207395127Y-237882930D01*
X207389671Y-237993082D01*
X207385084Y-238125916D01*
X207381302Y-238283696D01*
X207378260Y-238468684D01*
X207375897Y-238683144D01*
X207374147Y-238929337D01*
X207372947Y-239209527D01*
X207372232Y-239525975D01*
X207371940Y-239880946D01*
X207372007Y-240276700D01*
X207372368Y-240715502D01*
X207372960Y-241199614D01*
X207373719Y-241731298D01*
X207374581Y-242312817D01*
X207375482Y-242946433D01*
X207375587Y-243023629D01*
X207376395Y-243661287D01*
X207377081Y-244246582D01*
X207377717Y-244781778D01*
X207378376Y-245269136D01*
X207379131Y-245710917D01*
X207380053Y-246109382D01*
X207381216Y-246466795D01*
X207382693Y-246785415D01*
X207384555Y-247067506D01*
X207386876Y-247315328D01*
X207389729Y-247531143D01*
X207393185Y-247717213D01*
X207397318Y-247875800D01*
X207402200Y-248009164D01*
X207407904Y-248119569D01*
X207414502Y-248209275D01*
X207422068Y-248280544D01*
X207430673Y-248335638D01*
X207440390Y-248376818D01*
X207451293Y-248406346D01*
X207463453Y-248426484D01*
X207476943Y-248439493D01*
X207491837Y-248447636D01*
X207508206Y-248453173D01*
X207526123Y-248458366D01*
X207545661Y-248465477D01*
X207550434Y-248467642D01*
X207565434Y-248472506D01*
X207590541Y-248476976D01*
X207627946Y-248481066D01*
X207679842Y-248484793D01*
X207748420Y-248488173D01*
X207835873Y-248491221D01*
X207944394Y-248493954D01*
X208076174Y-248496387D01*
X208233406Y-248498537D01*
X208418281Y-248500419D01*
X208632993Y-248502049D01*
X208879734Y-248503443D01*
X209160694Y-248504617D01*
X209478068Y-248505587D01*
X209834047Y-248506369D01*
X210230822Y-248506979D01*
X210670588Y-248507432D01*
X211155535Y-248507745D01*
X211687856Y-248507934D01*
X212269743Y-248508013D01*
X212903389Y-248508000D01*
X213108644Y-248507980D01*
X213756347Y-248507876D01*
X214351644Y-248507706D01*
X214896755Y-248507453D01*
X215393897Y-248507098D01*
X215845290Y-248506626D01*
X216253151Y-248506018D01*
X216619700Y-248505258D01*
X216947154Y-248504327D01*
X217237732Y-248503209D01*
X217493652Y-248501886D01*
X217717133Y-248500341D01*
X217910394Y-248498557D01*
X218075652Y-248496516D01*
X218215127Y-248494201D01*
X218331037Y-248491594D01*
X218425600Y-248488678D01*
X218501034Y-248485436D01*
X218559558Y-248481851D01*
X218603391Y-248477905D01*
X218634752Y-248473581D01*
X218655857Y-248468862D01*
X218667363Y-248464540D01*
X218687812Y-248455916D01*
X218706587Y-248449557D01*
X218723760Y-248443203D01*
X218739402Y-248434597D01*
X218753584Y-248421480D01*
X218766377Y-248401594D01*
X218777852Y-248372679D01*
X218788080Y-248332479D01*
X218797133Y-248278733D01*
X218805080Y-248209185D01*
X218811994Y-248121574D01*
X218817945Y-248013644D01*
X218823005Y-247883135D01*
X218827245Y-247727789D01*
X218830735Y-247545348D01*
X218833547Y-247333553D01*
X218834283Y-247252258D01*
X218105361Y-247252258D01*
X215528987Y-247252258D01*
X215578561Y-247177150D01*
X215627878Y-247099968D01*
X215669640Y-247026469D01*
X215704441Y-246951512D01*
X215732877Y-246869953D01*
X215755540Y-246776648D01*
X215773025Y-246666453D01*
X215785926Y-246534225D01*
X215794837Y-246374820D01*
X215800352Y-246183095D01*
X215803064Y-245953907D01*
X215803569Y-245682112D01*
X215802459Y-245362566D01*
X215801830Y-245243932D01*
X215794732Y-243972123D01*
X214989033Y-245069010D01*
X214760779Y-245380183D01*
X214563025Y-245651143D01*
X214393635Y-245885478D01*
X214250473Y-246086780D01*
X214131405Y-246258637D01*
X214034295Y-246404640D01*
X213957007Y-246528378D01*
X213897407Y-246633441D01*
X213853359Y-246723420D01*
X213822728Y-246801903D01*
X213803378Y-246872480D01*
X213793175Y-246938742D01*
X213789983Y-247004277D01*
X213791667Y-247072677D01*
X213792097Y-247081274D01*
X213800968Y-247252372D01*
X212389236Y-247252315D01*
X210977505Y-247252258D01*
X211187516Y-247040500D01*
X211244504Y-246982582D01*
X211298566Y-246926225D01*
X211352076Y-246868322D01*
X211407404Y-246805764D01*
X211466925Y-246735443D01*
X211533011Y-246654251D01*
X211608034Y-246559081D01*
X211694367Y-246446823D01*
X211794383Y-246314370D01*
X211910454Y-246158614D01*
X212044952Y-245976446D01*
X212200251Y-245764760D01*
X212378722Y-245520446D01*
X212582740Y-245240397D01*
X212814675Y-244921504D01*
X213004782Y-244659920D01*
X213243372Y-244331292D01*
X213451508Y-244043957D01*
X213631075Y-243795187D01*
X213783957Y-243582254D01*
X213912041Y-243402430D01*
X214017212Y-243252986D01*
X214101355Y-243131196D01*
X214166357Y-243034331D01*
X214214103Y-242959662D01*
X214246477Y-242904463D01*
X214265366Y-242866004D01*
X214272655Y-242841559D01*
X214270464Y-242828706D01*
X214243913Y-242794504D01*
X214186508Y-242722108D01*
X214101713Y-242615820D01*
X213992992Y-242479945D01*
X213863808Y-242318784D01*
X213717626Y-242136643D01*
X213557909Y-241937822D01*
X213388121Y-241726627D01*
X213211726Y-241507359D01*
X213032187Y-241284323D01*
X212933435Y-241161720D01*
X210481548Y-241161720D01*
X210277742Y-241530430D01*
X210277742Y-246883548D01*
X210481548Y-247252258D01*
X209276111Y-247252258D01*
X208988341Y-247252174D01*
X208750647Y-247251797D01*
X208558482Y-247250935D01*
X208407298Y-247249400D01*
X208292548Y-247247000D01*
X208209685Y-247243546D01*
X208154162Y-247238849D01*
X208121430Y-247232717D01*
X208106943Y-247224961D01*
X208106153Y-247215391D01*
X208114513Y-247203817D01*
X208114599Y-247203721D01*
X208149036Y-247153907D01*
X208194637Y-247072910D01*
X208234908Y-246992055D01*
X208311291Y-246828925D01*
X208319081Y-243995322D01*
X208326871Y-241161720D01*
X210481548Y-241161720D01*
X212933435Y-241161720D01*
X212852969Y-241061821D01*
X212677536Y-240844157D01*
X212509350Y-240635633D01*
X212351877Y-240440554D01*
X212208579Y-240263221D01*
X212082921Y-240107939D01*
X211978366Y-239979010D01*
X211898379Y-239880738D01*
X211851398Y-239823441D01*
X211668963Y-239609180D01*
X211493452Y-239415830D01*
X211331016Y-239249720D01*
X211187805Y-239117180D01*
X211086171Y-239035921D01*
X210965998Y-238949462D01*
X213729840Y-238949462D01*
X213729064Y-239111646D01*
X213736788Y-239230883D01*
X213765828Y-239341426D01*
X213810782Y-239446216D01*
X213840004Y-239505416D01*
X213871423Y-239564074D01*
X213907909Y-239626086D01*
X213952331Y-239695345D01*
X214007561Y-239775746D01*
X214076469Y-239871181D01*
X214161923Y-239985547D01*
X214266796Y-240122735D01*
X214393955Y-240286642D01*
X214546273Y-240481160D01*
X214726618Y-240710185D01*
X214937862Y-240977609D01*
X214961721Y-241007783D01*
X215794732Y-242061195D01*
X215802796Y-240894522D01*
X215804420Y-240545069D01*
X215804074Y-240249230D01*
X215801742Y-240006030D01*
X215797407Y-239814493D01*
X215791051Y-239673644D01*
X215782659Y-239582508D01*
X215779838Y-239565220D01*
X215735584Y-239383117D01*
X215677602Y-239218950D01*
X215611437Y-239086954D01*
X215571687Y-239030972D01*
X215503102Y-238949462D01*
X216804453Y-238949462D01*
X217114885Y-238949728D01*
X217374477Y-238950591D01*
X217587014Y-238952154D01*
X217756276Y-238954517D01*
X217886048Y-238957780D01*
X217980111Y-238962045D01*
X218042248Y-238967413D01*
X218076241Y-238973983D01*
X218085874Y-238981858D01*
X218085208Y-238983602D01*
X218057620Y-239025243D01*
X218011564Y-239091248D01*
X217987735Y-239124631D01*
X217963099Y-239157944D01*
X217940955Y-239187734D01*
X217921164Y-239216933D01*
X217903586Y-239248474D01*
X217888081Y-239285286D01*
X217874511Y-239330303D01*
X217862736Y-239386455D01*
X217852616Y-239456675D01*
X217844013Y-239543894D01*
X217836786Y-239651043D01*
X217830796Y-239781055D01*
X217825904Y-239936861D01*
X217821971Y-240121393D01*
X217818857Y-240337581D01*
X217816422Y-240588359D01*
X217814527Y-240876658D01*
X217813033Y-241205409D01*
X217811801Y-241577543D01*
X217810690Y-241995994D01*
X217809562Y-242463691D01*
X217808508Y-242893354D01*
X217807512Y-243372353D01*
X217806994Y-243829362D01*
X217806941Y-244261464D01*
X217807338Y-244665738D01*
X217808172Y-245039265D01*
X217809429Y-245379127D01*
X217811094Y-245682404D01*
X217813156Y-245946177D01*
X217815599Y-246167527D01*
X217818410Y-246343535D01*
X217821576Y-246471283D01*
X217825082Y-246547849D01*
X217825745Y-246555941D01*
X217849905Y-246741568D01*
X217887624Y-246890647D01*
X217945064Y-247020750D01*
X218028389Y-247149452D01*
X218038811Y-247163494D01*
X218105361Y-247252258D01*
X218834283Y-247252258D01*
X218835752Y-247090145D01*
X218837421Y-246812867D01*
X218838625Y-246499459D01*
X218839435Y-246147664D01*
X218839922Y-245755223D01*
X218840156Y-245319877D01*
X218840211Y-244839368D01*
X218840156Y-244311438D01*
X218840062Y-243733828D01*
X218840002Y-243104279D01*
X218840000Y-242979301D01*
X218839965Y-242343122D01*
X218839847Y-241759325D01*
X218839628Y-241225668D01*
X218839292Y-240739909D01*
X218838822Y-240299805D01*
X218838198Y-239903116D01*
X218837406Y-239547599D01*
X218836426Y-239231012D01*
X218835242Y-238951113D01*
X218833836Y-238705661D01*
X218832190Y-238492413D01*
X218830288Y-238309128D01*
X218828113Y-238153564D01*
X218825645Y-238023478D01*
X218822869Y-237916629D01*
X218819767Y-237830775D01*
X218816321Y-237763674D01*
X218812515Y-237713084D01*
X218808330Y-237676764D01*
X218803749Y-237652470D01*
X218798755Y-237637962D01*
X218798570Y-237637600D01*
X218788285Y-237615437D01*
X218779718Y-237595372D01*
X218770241Y-237577301D01*
X218757226Y-237561121D01*
X218738043Y-237546726D01*
X218710065Y-237534014D01*
X218670663Y-237522880D01*
X218617208Y-237513221D01*
X218547071Y-237504932D01*
X218457624Y-237497910D01*
X218346238Y-237492050D01*
X218210284Y-237487250D01*
X218047135Y-237483404D01*
X217854161Y-237480409D01*
X217628733Y-237478161D01*
X217368224Y-237476556D01*
X217070004Y-237475491D01*
X216731445Y-237474860D01*
X216349918Y-237474561D01*
X215922794Y-237474490D01*
X215447446Y-237474541D01*
G37*
X215447446Y-237474541D02*
X214921244Y-237474613D01*
X214676303Y-237474623D01*
X210755699Y-237474623D01*
X210755699Y-237705734D01*
X210731032Y-237986976D01*
X210656584Y-238246359D01*
X210531686Y-238485424D01*
X210355670Y-238705714D01*
X210296118Y-238765210D01*
X210081895Y-238933971D01*
X209845690Y-239057052D01*
X209594517Y-239134510D01*
X209335393Y-239166399D01*
X209075333Y-239152776D01*
X208821353Y-239093697D01*
X208580469Y-238989217D01*
X208359696Y-238839393D01*
X208260543Y-238749001D01*
X208075773Y-238527376D01*
X207940284Y-238283661D01*
X207855256Y-238020643D01*
X207821872Y-237741106D01*
X207821428Y-237713606D01*
X207819678Y-237474632D01*
X207714645Y-237474628D01*
X207621470Y-237487273D01*
X207536356Y-237518040D01*
X207530731Y-237521219D01*
X207511508Y-237531194D01*
X207493855Y-237538962D01*
X207477708Y-237546787D01*
X207463005Y-237556930D01*
X207449681Y-237571655D01*
X207437672Y-237593225D01*
X207426915Y-237623901D01*
X207417346Y-237665947D01*
X207408901Y-237721626D01*
X207401516Y-237793199D01*
X207395127Y-237882930D01*
X207389671Y-237993082D01*
X207385084Y-238125916D01*
X207381302Y-238283696D01*
X207378260Y-238468684D01*
X207375897Y-238683144D01*
X207374147Y-238929337D01*
X207372947Y-239209527D01*
X207372232Y-239525975D01*
X207371940Y-239880946D01*
X207372007Y-240276700D01*
X207372368Y-240715502D01*
X207372960Y-241199614D01*
X207373719Y-241731298D01*
X207374581Y-242312817D01*
X207375482Y-242946433D01*
X207375587Y-243023629D01*
X207376395Y-243661287D01*
X207377081Y-244246582D01*
X207377717Y-244781778D01*
X207378376Y-245269136D01*
X207379131Y-245710917D01*
X207380053Y-246109382D01*
X207381216Y-246466795D01*
X207382693Y-246785415D01*
X207384555Y-247067506D01*
X207386876Y-247315328D01*
X207389729Y-247531143D01*
X207393185Y-247717213D01*
X207397318Y-247875800D01*
X207402200Y-248009164D01*
X207407904Y-248119569D01*
X207414502Y-248209275D01*
X207422068Y-248280544D01*
X207430673Y-248335638D01*
X207440390Y-248376818D01*
X207451293Y-248406346D01*
X207463453Y-248426484D01*
X207476943Y-248439493D01*
X207491837Y-248447636D01*
X207508206Y-248453173D01*
X207526123Y-248458366D01*
X207545661Y-248465477D01*
X207550434Y-248467642D01*
X207565434Y-248472506D01*
X207590541Y-248476976D01*
X207627946Y-248481066D01*
X207679842Y-248484793D01*
X207748420Y-248488173D01*
X207835873Y-248491221D01*
X207944394Y-248493954D01*
X208076174Y-248496387D01*
X208233406Y-248498537D01*
X208418281Y-248500419D01*
X208632993Y-248502049D01*
X208879734Y-248503443D01*
X209160694Y-248504617D01*
X209478068Y-248505587D01*
X209834047Y-248506369D01*
X210230822Y-248506979D01*
X210670588Y-248507432D01*
X211155535Y-248507745D01*
X211687856Y-248507934D01*
X212269743Y-248508013D01*
X212903389Y-248508000D01*
X213108644Y-248507980D01*
X213756347Y-248507876D01*
X214351644Y-248507706D01*
X214896755Y-248507453D01*
X215393897Y-248507098D01*
X215845290Y-248506626D01*
X216253151Y-248506018D01*
X216619700Y-248505258D01*
X216947154Y-248504327D01*
X217237732Y-248503209D01*
X217493652Y-248501886D01*
X217717133Y-248500341D01*
X217910394Y-248498557D01*
X218075652Y-248496516D01*
X218215127Y-248494201D01*
X218331037Y-248491594D01*
X218425600Y-248488678D01*
X218501034Y-248485436D01*
X218559558Y-248481851D01*
X218603391Y-248477905D01*
X218634752Y-248473581D01*
X218655857Y-248468862D01*
X218667363Y-248464540D01*
X218687812Y-248455916D01*
X218706587Y-248449557D01*
X218723760Y-248443203D01*
X218739402Y-248434597D01*
X218753584Y-248421480D01*
X218766377Y-248401594D01*
X218777852Y-248372679D01*
X218788080Y-248332479D01*
X218797133Y-248278733D01*
X218805080Y-248209185D01*
X218811994Y-248121574D01*
X218817945Y-248013644D01*
X218823005Y-247883135D01*
X218827245Y-247727789D01*
X218830735Y-247545348D01*
X218833547Y-247333553D01*
X218834283Y-247252258D01*
X218105361Y-247252258D01*
X215528987Y-247252258D01*
X215578561Y-247177150D01*
X215627878Y-247099968D01*
X215669640Y-247026469D01*
X215704441Y-246951512D01*
X215732877Y-246869953D01*
X215755540Y-246776648D01*
X215773025Y-246666453D01*
X215785926Y-246534225D01*
X215794837Y-246374820D01*
X215800352Y-246183095D01*
X215803064Y-245953907D01*
X215803569Y-245682112D01*
X215802459Y-245362566D01*
X215801830Y-245243932D01*
X215794732Y-243972123D01*
X214989033Y-245069010D01*
X214760779Y-245380183D01*
X214563025Y-245651143D01*
X214393635Y-245885478D01*
X214250473Y-246086780D01*
X214131405Y-246258637D01*
X214034295Y-246404640D01*
X213957007Y-246528378D01*
X213897407Y-246633441D01*
X213853359Y-246723420D01*
X213822728Y-246801903D01*
X213803378Y-246872480D01*
X213793175Y-246938742D01*
X213789983Y-247004277D01*
X213791667Y-247072677D01*
X213792097Y-247081274D01*
X213800968Y-247252372D01*
X212389236Y-247252315D01*
X210977505Y-247252258D01*
X211187516Y-247040500D01*
X211244504Y-246982582D01*
X211298566Y-246926225D01*
X211352076Y-246868322D01*
X211407404Y-246805764D01*
X211466925Y-246735443D01*
X211533011Y-246654251D01*
X211608034Y-246559081D01*
X211694367Y-246446823D01*
X211794383Y-246314370D01*
X211910454Y-246158614D01*
X212044952Y-245976446D01*
X212200251Y-245764760D01*
X212378722Y-245520446D01*
X212582740Y-245240397D01*
X212814675Y-244921504D01*
X213004782Y-244659920D01*
X213243372Y-244331292D01*
X213451508Y-244043957D01*
X213631075Y-243795187D01*
X213783957Y-243582254D01*
X213912041Y-243402430D01*
X214017212Y-243252986D01*
X214101355Y-243131196D01*
X214166357Y-243034331D01*
X214214103Y-242959662D01*
X214246477Y-242904463D01*
X214265366Y-242866004D01*
X214272655Y-242841559D01*
X214270464Y-242828706D01*
X214243913Y-242794504D01*
X214186508Y-242722108D01*
X214101713Y-242615820D01*
X213992992Y-242479945D01*
X213863808Y-242318784D01*
X213717626Y-242136643D01*
X213557909Y-241937822D01*
X213388121Y-241726627D01*
X213211726Y-241507359D01*
X213032187Y-241284323D01*
X212933435Y-241161720D01*
X210481548Y-241161720D01*
X210277742Y-241530430D01*
X210277742Y-246883548D01*
X210481548Y-247252258D01*
X209276111Y-247252258D01*
X208988341Y-247252174D01*
X208750647Y-247251797D01*
X208558482Y-247250935D01*
X208407298Y-247249400D01*
X208292548Y-247247000D01*
X208209685Y-247243546D01*
X208154162Y-247238849D01*
X208121430Y-247232717D01*
X208106943Y-247224961D01*
X208106153Y-247215391D01*
X208114513Y-247203817D01*
X208114599Y-247203721D01*
X208149036Y-247153907D01*
X208194637Y-247072910D01*
X208234908Y-246992055D01*
X208311291Y-246828925D01*
X208319081Y-243995322D01*
X208326871Y-241161720D01*
X210481548Y-241161720D01*
X212933435Y-241161720D01*
X212852969Y-241061821D01*
X212677536Y-240844157D01*
X212509350Y-240635633D01*
X212351877Y-240440554D01*
X212208579Y-240263221D01*
X212082921Y-240107939D01*
X211978366Y-239979010D01*
X211898379Y-239880738D01*
X211851398Y-239823441D01*
X211668963Y-239609180D01*
X211493452Y-239415830D01*
X211331016Y-239249720D01*
X211187805Y-239117180D01*
X211086171Y-239035921D01*
X210965998Y-238949462D01*
X213729840Y-238949462D01*
X213729064Y-239111646D01*
X213736788Y-239230883D01*
X213765828Y-239341426D01*
X213810782Y-239446216D01*
X213840004Y-239505416D01*
X213871423Y-239564074D01*
X213907909Y-239626086D01*
X213952331Y-239695345D01*
X214007561Y-239775746D01*
X214076469Y-239871181D01*
X214161923Y-239985547D01*
X214266796Y-240122735D01*
X214393955Y-240286642D01*
X214546273Y-240481160D01*
X214726618Y-240710185D01*
X214937862Y-240977609D01*
X214961721Y-241007783D01*
X215794732Y-242061195D01*
X215802796Y-240894522D01*
X215804420Y-240545069D01*
X215804074Y-240249230D01*
X215801742Y-240006030D01*
X215797407Y-239814493D01*
X215791051Y-239673644D01*
X215782659Y-239582508D01*
X215779838Y-239565220D01*
X215735584Y-239383117D01*
X215677602Y-239218950D01*
X215611437Y-239086954D01*
X215571687Y-239030972D01*
X215503102Y-238949462D01*
X216804453Y-238949462D01*
X217114885Y-238949728D01*
X217374477Y-238950591D01*
X217587014Y-238952154D01*
X217756276Y-238954517D01*
X217886048Y-238957780D01*
X217980111Y-238962045D01*
X218042248Y-238967413D01*
X218076241Y-238973983D01*
X218085874Y-238981858D01*
X218085208Y-238983602D01*
X218057620Y-239025243D01*
X218011564Y-239091248D01*
X217987735Y-239124631D01*
X217963099Y-239157944D01*
X217940955Y-239187734D01*
X217921164Y-239216933D01*
X217903586Y-239248474D01*
X217888081Y-239285286D01*
X217874511Y-239330303D01*
X217862736Y-239386455D01*
X217852616Y-239456675D01*
X217844013Y-239543894D01*
X217836786Y-239651043D01*
X217830796Y-239781055D01*
X217825904Y-239936861D01*
X217821971Y-240121393D01*
X217818857Y-240337581D01*
X217816422Y-240588359D01*
X217814527Y-240876658D01*
X217813033Y-241205409D01*
X217811801Y-241577543D01*
X217810690Y-241995994D01*
X217809562Y-242463691D01*
X217808508Y-242893354D01*
X217807512Y-243372353D01*
X217806994Y-243829362D01*
X217806941Y-244261464D01*
X217807338Y-244665738D01*
X217808172Y-245039265D01*
X217809429Y-245379127D01*
X217811094Y-245682404D01*
X217813156Y-245946177D01*
X217815599Y-246167527D01*
X217818410Y-246343535D01*
X217821576Y-246471283D01*
X217825082Y-246547849D01*
X217825745Y-246555941D01*
X217849905Y-246741568D01*
X217887624Y-246890647D01*
X217945064Y-247020750D01*
X218028389Y-247149452D01*
X218038811Y-247163494D01*
X218105361Y-247252258D01*
X218834283Y-247252258D01*
X218835752Y-247090145D01*
X218837421Y-246812867D01*
X218838625Y-246499459D01*
X218839435Y-246147664D01*
X218839922Y-245755223D01*
X218840156Y-245319877D01*
X218840211Y-244839368D01*
X218840156Y-244311438D01*
X218840062Y-243733828D01*
X218840002Y-243104279D01*
X218840000Y-242979301D01*
X218839965Y-242343122D01*
X218839847Y-241759325D01*
X218839628Y-241225668D01*
X218839292Y-240739909D01*
X218838822Y-240299805D01*
X218838198Y-239903116D01*
X218837406Y-239547599D01*
X218836426Y-239231012D01*
X218835242Y-238951113D01*
X218833836Y-238705661D01*
X218832190Y-238492413D01*
X218830288Y-238309128D01*
X218828113Y-238153564D01*
X218825645Y-238023478D01*
X218822869Y-237916629D01*
X218819767Y-237830775D01*
X218816321Y-237763674D01*
X218812515Y-237713084D01*
X218808330Y-237676764D01*
X218803749Y-237652470D01*
X218798755Y-237637962D01*
X218798570Y-237637600D01*
X218788285Y-237615437D01*
X218779718Y-237595372D01*
X218770241Y-237577301D01*
X218757226Y-237561121D01*
X218738043Y-237546726D01*
X218710065Y-237534014D01*
X218670663Y-237522880D01*
X218617208Y-237513221D01*
X218547071Y-237504932D01*
X218457624Y-237497910D01*
X218346238Y-237492050D01*
X218210284Y-237487250D01*
X218047135Y-237483404D01*
X217854161Y-237480409D01*
X217628733Y-237478161D01*
X217368224Y-237476556D01*
X217070004Y-237475491D01*
X216731445Y-237474860D01*
X216349918Y-237474561D01*
X215922794Y-237474490D01*
X215447446Y-237474541D01*
D11*
%TO.C,J1*%
X39121325Y-178600000D02*
X39554338Y-178850000D01*
X39554338Y-178350000D02*
X39121325Y-178600000D01*
X39554338Y-178850000D02*
X39554338Y-178350000D01*
X29720000Y-175535000D02*
X25620000Y-175535000D01*
X29720000Y-177540000D02*
X29720000Y-175535000D01*
X38860000Y-177540000D02*
X29720000Y-177540000D01*
X38860000Y-199050000D02*
X38860000Y-177540000D01*
X29720000Y-199050000D02*
X38860000Y-199050000D01*
X29720000Y-201055000D02*
X29720000Y-199050000D01*
X25620000Y-201055000D02*
X29720000Y-201055000D01*
D12*
X39052380Y-187961666D02*
X39766666Y-187961666D01*
X39909523Y-187914047D01*
X40004761Y-187818809D01*
X40052380Y-187675952D01*
X40052380Y-187580714D01*
X40052380Y-188961666D02*
X40052380Y-188390238D01*
X40052380Y-188675952D02*
X39052380Y-188675952D01*
X39195238Y-188580714D01*
X39290476Y-188485476D01*
X39338095Y-188390238D01*
%TD*%
M02*
