%TF.GenerationSoftware,KiCad,Pcbnew,5.1.6-c6e7f7d~87~ubuntu20.04.1*%
%TF.CreationDate,2020-09-09T13:26:43+02:00*%
%TF.ProjectId,pcb-flat-right,7063622d-666c-4617-942d-72696768742e,rev?*%
%TF.SameCoordinates,Original*%
%TF.FileFunction,Soldermask,Bot*%
%TF.FilePolarity,Negative*%
%FSLAX46Y46*%
G04 Gerber Fmt 4.6, Leading zero omitted, Abs format (unit mm)*
G04 Created by KiCad (PCBNEW 5.1.6-c6e7f7d~87~ubuntu20.04.1) date 2020-09-09 13:26:43*
%MOMM*%
%LPD*%
G01*
G04 APERTURE LIST*
%ADD10R,1.600000X1.600000*%
%ADD11O,1.600000X1.600000*%
%ADD12C,0.100000*%
%ADD13C,2.200000*%
%ADD14C,4.000000*%
%ADD15C,1.700000*%
%ADD16C,7.500000*%
%ADD17C,1.600000*%
G04 APERTURE END LIST*
D10*
%TO.C,D1*%
X217580000Y-59200000D03*
D11*
X225200000Y-59200000D03*
%TD*%
D10*
%TO.C,D2*%
X217800000Y-90400000D03*
D11*
X225420000Y-90400000D03*
%TD*%
%TO.C,D3*%
X225420000Y-114000000D03*
D10*
X217800000Y-114000000D03*
%TD*%
D11*
%TO.C,D4*%
X225420000Y-138000000D03*
D10*
X217800000Y-138000000D03*
%TD*%
D11*
%TO.C,D5*%
X225420000Y-161800000D03*
D10*
X217800000Y-161800000D03*
%TD*%
D11*
%TO.C,D6*%
X220620000Y-185600000D03*
D10*
X213000000Y-185600000D03*
%TD*%
D11*
%TO.C,D7*%
X196400000Y-59200000D03*
D10*
X188780000Y-59200000D03*
%TD*%
%TO.C,D8*%
X188800000Y-90200000D03*
D11*
X196420000Y-90200000D03*
%TD*%
D10*
%TO.C,D9*%
X188800000Y-114200000D03*
D11*
X196420000Y-114200000D03*
%TD*%
D10*
%TO.C,D10*%
X188600000Y-138000000D03*
D11*
X196220000Y-138000000D03*
%TD*%
D10*
%TO.C,D11*%
X188800000Y-161600000D03*
D11*
X196420000Y-161600000D03*
%TD*%
D10*
%TO.C,D12*%
X188580000Y-185400000D03*
D11*
X196200000Y-185400000D03*
%TD*%
%TO.C,D14*%
X167800000Y-59000000D03*
D10*
X160180000Y-59000000D03*
%TD*%
%TO.C,D15*%
X165200000Y-85600000D03*
D11*
X172820000Y-85600000D03*
%TD*%
%TO.C,D16*%
X172820000Y-109200000D03*
D10*
X165200000Y-109200000D03*
%TD*%
%TO.C,D17*%
X164980000Y-156800000D03*
D11*
X172600000Y-156800000D03*
%TD*%
D10*
%TO.C,D18*%
X165200000Y-133200000D03*
D11*
X172820000Y-133200000D03*
%TD*%
D10*
%TO.C,D19*%
X165200000Y-180600000D03*
D11*
X172820000Y-180600000D03*
%TD*%
D10*
%TO.C,D20*%
X132000000Y-59200000D03*
D11*
X139620000Y-59200000D03*
%TD*%
%TO.C,D21*%
X149220000Y-82800000D03*
D10*
X141600000Y-82800000D03*
%TD*%
D11*
%TO.C,D22*%
X148820000Y-106800000D03*
D10*
X141200000Y-106800000D03*
%TD*%
%TO.C,D23*%
X141200000Y-130600000D03*
D11*
X148820000Y-130600000D03*
%TD*%
%TO.C,D24*%
X149020000Y-154200000D03*
D10*
X141400000Y-154200000D03*
%TD*%
%TO.C,D25*%
X141000000Y-178400000D03*
D11*
X148620000Y-178400000D03*
%TD*%
%TO.C,D26*%
X110620000Y-59200000D03*
D10*
X103000000Y-59200000D03*
%TD*%
D11*
%TO.C,D27*%
X125020000Y-109200000D03*
D10*
X117400000Y-109200000D03*
%TD*%
%TO.C,D28*%
X117600000Y-85600000D03*
D11*
X125220000Y-85600000D03*
%TD*%
%TO.C,D29*%
X125220000Y-133200000D03*
D10*
X117600000Y-133200000D03*
%TD*%
D11*
%TO.C,D30*%
X125020000Y-156800000D03*
D10*
X117400000Y-156800000D03*
%TD*%
%TO.C,D31*%
X117800000Y-180600000D03*
D11*
X125420000Y-180600000D03*
%TD*%
D10*
%TO.C,D32*%
X74800000Y-59200000D03*
D11*
X82420000Y-59200000D03*
%TD*%
%TO.C,D33*%
X101420000Y-87600000D03*
D10*
X93800000Y-87600000D03*
%TD*%
%TO.C,D34*%
X93800000Y-111600000D03*
D11*
X101420000Y-111600000D03*
%TD*%
%TO.C,D35*%
X101420000Y-135400000D03*
D10*
X93800000Y-135400000D03*
%TD*%
%TO.C,D36*%
X93400000Y-159000000D03*
D11*
X101020000Y-159000000D03*
%TD*%
D10*
%TO.C,D37*%
X45800000Y-59000000D03*
D11*
X53420000Y-59000000D03*
%TD*%
%TO.C,D38*%
X77820000Y-87800000D03*
D10*
X70200000Y-87800000D03*
%TD*%
D11*
%TO.C,D39*%
X77620000Y-159000000D03*
D10*
X70000000Y-159000000D03*
%TD*%
D11*
%TO.C,D40*%
X77820000Y-111600000D03*
D10*
X70200000Y-111600000D03*
%TD*%
%TO.C,D41*%
X70000000Y-135400000D03*
D11*
X77620000Y-135400000D03*
%TD*%
%TO.C,D42*%
X53620000Y-87600000D03*
D10*
X46000000Y-87600000D03*
%TD*%
%TO.C,D43*%
X46200000Y-125600000D03*
D11*
X53820000Y-125600000D03*
%TD*%
%TO.C,D44*%
X53820000Y-159000000D03*
D10*
X46200000Y-159000000D03*
%TD*%
D12*
%TO.C,D45*%
G36*
X48208080Y-223002820D02*
G01*
X47408080Y-221617180D01*
X48793720Y-220817180D01*
X49593720Y-222202820D01*
X48208080Y-223002820D01*
G37*
G36*
G01*
X54407194Y-218500000D02*
X54407194Y-218500000D01*
G75*
G02*
X54700014Y-217407180I692820J400000D01*
G01*
X54700014Y-217407180D01*
G75*
G02*
X55792834Y-217700000I400000J-692820D01*
G01*
X55792834Y-217700000D01*
G75*
G02*
X55500014Y-218792820I-692820J-400000D01*
G01*
X55500014Y-218792820D01*
G75*
G02*
X54407194Y-218500000I-400000J692820D01*
G01*
G37*
%TD*%
%TO.C,D46*%
G36*
G01*
X63600014Y-186192820D02*
X63600014Y-186192820D01*
G75*
G02*
X63307194Y-185100000I400000J692820D01*
G01*
X63307194Y-185100000D01*
G75*
G02*
X64400014Y-184807180I692820J-400000D01*
G01*
X64400014Y-184807180D01*
G75*
G02*
X64692834Y-185900000I-400000J-692820D01*
G01*
X64692834Y-185900000D01*
G75*
G02*
X63600014Y-186192820I-692820J400000D01*
G01*
G37*
G36*
X57108080Y-190402820D02*
G01*
X56308080Y-189017180D01*
X57693720Y-188217180D01*
X58493720Y-189602820D01*
X57108080Y-190402820D01*
G37*
%TD*%
%TO.C,D47*%
G36*
G01*
X74907194Y-206700000D02*
X74907194Y-206700000D01*
G75*
G02*
X75200014Y-205607180I692820J400000D01*
G01*
X75200014Y-205607180D01*
G75*
G02*
X76292834Y-205900000I400000J-692820D01*
G01*
X76292834Y-205900000D01*
G75*
G02*
X76000014Y-206992820I-692820J-400000D01*
G01*
X76000014Y-206992820D01*
G75*
G02*
X74907194Y-206700000I-400000J692820D01*
G01*
G37*
G36*
X68708080Y-211202820D02*
G01*
X67908080Y-209817180D01*
X69293720Y-209017180D01*
X70093720Y-210402820D01*
X68708080Y-211202820D01*
G37*
%TD*%
%TO.C,D48*%
G36*
X89808080Y-199002820D02*
G01*
X89008080Y-197617180D01*
X90393720Y-196817180D01*
X91193720Y-198202820D01*
X89808080Y-199002820D01*
G37*
G36*
G01*
X96007194Y-194500000D02*
X96007194Y-194500000D01*
G75*
G02*
X96300014Y-193407180I692820J400000D01*
G01*
X96300014Y-193407180D01*
G75*
G02*
X97392834Y-193700000I400000J-692820D01*
G01*
X97392834Y-193700000D01*
G75*
G02*
X97100014Y-194792820I-692820J-400000D01*
G01*
X97100014Y-194792820D01*
G75*
G02*
X96007194Y-194500000I-400000J692820D01*
G01*
G37*
%TD*%
D13*
%TO.C,SW1*%
X223940000Y-43200000D03*
X217590000Y-45740000D03*
D14*
X221400000Y-48280000D03*
D15*
X216320000Y-48280000D03*
X226480000Y-48280000D03*
%TD*%
D13*
%TO.C,SW2*%
X223940000Y-74320000D03*
X217590000Y-76860000D03*
D14*
X221400000Y-79400000D03*
D15*
X216320000Y-79400000D03*
X226480000Y-79400000D03*
%TD*%
D13*
%TO.C,SW3*%
X223940000Y-98120000D03*
X217590000Y-100660000D03*
D14*
X221400000Y-103200000D03*
D15*
X216320000Y-103200000D03*
X226480000Y-103200000D03*
%TD*%
%TO.C,SW4*%
X226540000Y-150880000D03*
X216380000Y-150880000D03*
D14*
X221460000Y-150880000D03*
D13*
X217650000Y-148340000D03*
X224000000Y-145800000D03*
%TD*%
D15*
%TO.C,SW5*%
X226540000Y-127080000D03*
X216380000Y-127080000D03*
D14*
X221460000Y-127080000D03*
D13*
X217650000Y-124540000D03*
X224000000Y-122000000D03*
%TD*%
D15*
%TO.C,SW6*%
X221740000Y-174680000D03*
X211580000Y-174680000D03*
D14*
X216660000Y-174680000D03*
D13*
X212850000Y-172140000D03*
X219200000Y-169600000D03*
%TD*%
D15*
%TO.C,SW7*%
X197940000Y-48280000D03*
X187780000Y-48280000D03*
D14*
X192860000Y-48280000D03*
D13*
X189050000Y-45740000D03*
X195400000Y-43200000D03*
%TD*%
D15*
%TO.C,SW8*%
X197940000Y-79280000D03*
X187780000Y-79280000D03*
D14*
X192860000Y-79280000D03*
D13*
X189050000Y-76740000D03*
X195400000Y-74200000D03*
%TD*%
%TO.C,SW9*%
X195400000Y-98200000D03*
X189050000Y-100740000D03*
D14*
X192860000Y-103280000D03*
D15*
X187780000Y-103280000D03*
X197940000Y-103280000D03*
%TD*%
%TO.C,SW10*%
X197940000Y-150880000D03*
X187780000Y-150880000D03*
D14*
X192860000Y-150880000D03*
D13*
X189050000Y-148340000D03*
X195400000Y-145800000D03*
%TD*%
D15*
%TO.C,SW11*%
X197940000Y-127080000D03*
X187780000Y-127080000D03*
D14*
X192860000Y-127080000D03*
D13*
X189050000Y-124540000D03*
X195400000Y-122000000D03*
%TD*%
%TO.C,SW12*%
X195400000Y-169600000D03*
X189050000Y-172140000D03*
D14*
X192860000Y-174680000D03*
D15*
X187780000Y-174680000D03*
X197940000Y-174680000D03*
%TD*%
D13*
%TO.C,SW13*%
X166800000Y-43200000D03*
X160450000Y-45740000D03*
D14*
X164260000Y-48280000D03*
D15*
X159180000Y-48280000D03*
X169340000Y-48280000D03*
%TD*%
D13*
%TO.C,SW14*%
X171600000Y-69600000D03*
X165250000Y-72140000D03*
D14*
X169060000Y-74680000D03*
D15*
X163980000Y-74680000D03*
X174140000Y-74680000D03*
%TD*%
%TO.C,SW15*%
X174140000Y-98480000D03*
X163980000Y-98480000D03*
D14*
X169060000Y-98480000D03*
D13*
X165250000Y-95940000D03*
X171600000Y-93400000D03*
%TD*%
%TO.C,SW16*%
X171600000Y-141000000D03*
X165250000Y-143540000D03*
D14*
X169060000Y-146080000D03*
D15*
X163980000Y-146080000D03*
X174140000Y-146080000D03*
%TD*%
D13*
%TO.C,SW17*%
X171600000Y-117200000D03*
X165250000Y-119740000D03*
D14*
X169060000Y-122280000D03*
D15*
X163980000Y-122280000D03*
X174140000Y-122280000D03*
%TD*%
%TO.C,SW18*%
X174140000Y-169880000D03*
X163980000Y-169880000D03*
D14*
X169060000Y-169880000D03*
D13*
X165250000Y-167340000D03*
X171600000Y-164800000D03*
%TD*%
D15*
%TO.C,SW19*%
X140740000Y-48280000D03*
X130580000Y-48280000D03*
D14*
X135660000Y-48280000D03*
D13*
X131850000Y-45740000D03*
X138200000Y-43200000D03*
%TD*%
%TO.C,SW20*%
X147800000Y-67000000D03*
X141450000Y-69540000D03*
D14*
X145260000Y-72080000D03*
D15*
X140180000Y-72080000D03*
X150340000Y-72080000D03*
%TD*%
D13*
%TO.C,SW21*%
X147600000Y-90800000D03*
X141250000Y-93340000D03*
D14*
X145060000Y-95880000D03*
D15*
X139980000Y-95880000D03*
X150140000Y-95880000D03*
%TD*%
D13*
%TO.C,SW22*%
X147800000Y-138400000D03*
X141450000Y-140940000D03*
D14*
X145260000Y-143480000D03*
D15*
X140180000Y-143480000D03*
X150340000Y-143480000D03*
%TD*%
%TO.C,SW23*%
X150340000Y-119880000D03*
X140180000Y-119880000D03*
D14*
X145260000Y-119880000D03*
D13*
X141450000Y-117340000D03*
X147800000Y-114800000D03*
%TD*%
%TO.C,SW24*%
X147800000Y-162400000D03*
X141450000Y-164940000D03*
D14*
X145260000Y-167480000D03*
D15*
X140180000Y-167480000D03*
X150340000Y-167480000D03*
%TD*%
D13*
%TO.C,SW25*%
X109600000Y-43200000D03*
X103250000Y-45740000D03*
D14*
X107060000Y-48280000D03*
D15*
X101980000Y-48280000D03*
X112140000Y-48280000D03*
%TD*%
D13*
%TO.C,SW26*%
X124000000Y-69600000D03*
X117650000Y-72140000D03*
D14*
X121460000Y-74680000D03*
D15*
X116380000Y-74680000D03*
X126540000Y-74680000D03*
%TD*%
%TO.C,SW27*%
X126540000Y-98480000D03*
X116380000Y-98480000D03*
D14*
X121460000Y-98480000D03*
D13*
X117650000Y-95940000D03*
X124000000Y-93400000D03*
%TD*%
%TO.C,SW28*%
X124000000Y-141000000D03*
X117650000Y-143540000D03*
D14*
X121460000Y-146080000D03*
D15*
X116380000Y-146080000D03*
X126540000Y-146080000D03*
%TD*%
D13*
%TO.C,SW29*%
X124000000Y-117200000D03*
X117650000Y-119740000D03*
D14*
X121460000Y-122280000D03*
D15*
X116380000Y-122280000D03*
X126540000Y-122280000D03*
%TD*%
%TO.C,SW30*%
X126540000Y-169880000D03*
X116380000Y-169880000D03*
D14*
X121460000Y-169880000D03*
D13*
X117650000Y-167340000D03*
X124000000Y-164800000D03*
%TD*%
D15*
%TO.C,SW31*%
X83740000Y-48280000D03*
X73580000Y-48280000D03*
D14*
X78660000Y-48280000D03*
D13*
X74850000Y-45740000D03*
X81200000Y-43200000D03*
%TD*%
D15*
%TO.C,SW32*%
X102740000Y-76880000D03*
X92580000Y-76880000D03*
D14*
X97660000Y-76880000D03*
D13*
X93850000Y-74340000D03*
X100200000Y-71800000D03*
%TD*%
D15*
%TO.C,SW33*%
X102740000Y-100680000D03*
X92580000Y-100680000D03*
D14*
X97660000Y-100680000D03*
D13*
X93850000Y-98140000D03*
X100200000Y-95600000D03*
%TD*%
D15*
%TO.C,SW34*%
X102540000Y-148280000D03*
X92380000Y-148280000D03*
D14*
X97460000Y-148280000D03*
D13*
X93650000Y-145740000D03*
X100000000Y-143200000D03*
%TD*%
D15*
%TO.C,SW35*%
X102740000Y-124680000D03*
X92580000Y-124680000D03*
D14*
X97660000Y-124680000D03*
D13*
X93850000Y-122140000D03*
X100200000Y-119600000D03*
%TD*%
%TO.C,SW36*%
X52400000Y-43200000D03*
X46050000Y-45740000D03*
D14*
X49860000Y-48280000D03*
D15*
X44780000Y-48280000D03*
X54940000Y-48280000D03*
%TD*%
D13*
%TO.C,SW37*%
X76400000Y-71800000D03*
X70050000Y-74340000D03*
D14*
X73860000Y-76880000D03*
D15*
X68780000Y-76880000D03*
X78940000Y-76880000D03*
%TD*%
D13*
%TO.C,SW38*%
X76400000Y-95600000D03*
X70050000Y-98140000D03*
D14*
X73860000Y-100680000D03*
D15*
X68780000Y-100680000D03*
X78940000Y-100680000D03*
%TD*%
D13*
%TO.C,SW39*%
X76400000Y-143200000D03*
X70050000Y-145740000D03*
D14*
X73860000Y-148280000D03*
D15*
X68780000Y-148280000D03*
X78940000Y-148280000D03*
%TD*%
D13*
%TO.C,SW40*%
X76400000Y-119400000D03*
X70050000Y-121940000D03*
D14*
X73860000Y-124480000D03*
D15*
X68780000Y-124480000D03*
X78940000Y-124480000D03*
%TD*%
%TO.C,SW41*%
X55080000Y-76800000D03*
X44920000Y-76800000D03*
D14*
X50000000Y-76800000D03*
D13*
X46190000Y-74260000D03*
X52540000Y-71720000D03*
%TD*%
%TO.C,SW42*%
X45000000Y-107600000D03*
X47540000Y-113950000D03*
D14*
X50080000Y-110140000D03*
D15*
X50080000Y-115220000D03*
X50080000Y-105060000D03*
%TD*%
%TO.C,SW43*%
X49880000Y-138460000D03*
X49880000Y-148620000D03*
D14*
X49880000Y-143540000D03*
D13*
X47340000Y-147350000D03*
X44800000Y-141000000D03*
%TD*%
D15*
%TO.C,SW44*%
X51099405Y-207960409D03*
X42300586Y-213040409D03*
D14*
X46699995Y-210500409D03*
D13*
X42130439Y-210205705D03*
X46359700Y-204831000D03*
%TD*%
D15*
%TO.C,SW45*%
X59799405Y-175360409D03*
X51000586Y-180440409D03*
D14*
X55399995Y-177900409D03*
D13*
X50830439Y-177605705D03*
X55059700Y-172231000D03*
%TD*%
%TO.C,SW46*%
X66859700Y-193031000D03*
X62630439Y-198405705D03*
D14*
X67199995Y-198700409D03*
D15*
X62800586Y-201240409D03*
X71599405Y-196160409D03*
%TD*%
%TO.C,SW47*%
X92299405Y-184160409D03*
X83500586Y-189240409D03*
D14*
X87899995Y-186700409D03*
D13*
X83330439Y-186405705D03*
X87559700Y-181031000D03*
%TD*%
D16*
%TO.C,H1*%
X33500000Y-31500000D03*
%TD*%
%TO.C,H2*%
X243000000Y-247500000D03*
%TD*%
%TO.C,H3*%
X138500000Y-31500000D03*
%TD*%
%TO.C,H4*%
X243000000Y-139500000D03*
%TD*%
%TO.C,H5*%
X243000000Y-31500000D03*
%TD*%
%TO.C,H6*%
X138000000Y-247500000D03*
%TD*%
%TO.C,H7*%
X33000000Y-139500000D03*
%TD*%
%TO.C,H8*%
X33000000Y-247500000D03*
%TD*%
D10*
%TO.C,J1*%
X32700000Y-192500000D03*
D17*
X32700000Y-194790000D03*
X32700000Y-197080000D03*
X32700000Y-199370000D03*
X32700000Y-201660000D03*
X30720000Y-191355000D03*
X30720000Y-193645000D03*
X30720000Y-195935000D03*
X30720000Y-198225000D03*
X30720000Y-200515000D03*
X28740000Y-192500000D03*
X28740000Y-194790000D03*
X28740000Y-197080000D03*
X28740000Y-199370000D03*
X28740000Y-201660000D03*
D14*
X30650000Y-209315000D03*
X30650000Y-184315000D03*
%TD*%
M02*
