M48
; DRILL file {KiCad 5.1.6-c6e7f7d~87~ubuntu20.04.1} date Tue Sep  8 11:45:39 2020
; FORMAT={-:-/ absolute / metric / decimal}
; #@! TF.CreationDate,2020-09-08T11:45:39+02:00
; #@! TF.GenerationSoftware,Kicad,Pcbnew,5.1.6-c6e7f7d~87~ubuntu20.04.1
; #@! TF.FileFunction,Plated,1,2,PTH
FMAT,2
METRIC
T1C0.400
T2C0.800
T3C1.000
T4C1.500
T5C4.300
%
G90
G05
T1
X45.0Y-186.0
X46.0Y-180.0
X46.5Y-173.5
T2
X188.78Y-59.2
X196.4Y-59.2
X165.2Y-85.6
X172.82Y-85.6
X93.4Y-159.0
X101.02Y-159.0
X117.4Y-109.2
X125.02Y-109.2
X213.0Y-185.6
X220.62Y-185.6
X78.601Y-226.41
X85.2Y-222.6
X46.2Y-159.0
X53.82Y-159.0
X70.0Y-135.4
X77.62Y-135.4
X117.4Y-156.8
X125.02Y-156.8
X164.98Y-156.8
X172.6Y-156.8
X141.0Y-178.4
X148.62Y-178.4
X103.0Y-59.2
X110.62Y-59.2
X141.2Y-106.8
X148.82Y-106.8
X93.8Y-87.6
X101.42Y-87.6
X165.2Y-109.2
X172.82Y-109.2
X217.8Y-114.0
X225.42Y-114.0
X217.8Y-90.4
X225.42Y-90.4
X165.2Y-180.6
X172.82Y-180.6
X70.0Y-159.0
X77.62Y-159.0
X67.001Y-205.81
X73.6Y-202.0
X46.2Y-125.6
X53.82Y-125.6
X70.2Y-111.6
X77.82Y-111.6
X217.8Y-138.0
X225.42Y-138.0
X70.2Y-87.8
X77.82Y-87.8
X188.8Y-161.6
X196.42Y-161.6
X188.8Y-90.2
X196.42Y-90.2
X93.8Y-135.4
X101.42Y-135.4
X141.4Y-154.2
X149.02Y-154.2
X117.8Y-180.6
X125.42Y-180.6
X117.6Y-85.6
X125.22Y-85.6
X99.601Y-214.21
X106.2Y-210.4
X58.001Y-238.41
X64.6Y-234.6
X217.8Y-161.8
X225.42Y-161.8
X188.58Y-185.4
X196.2Y-185.4
X93.8Y-111.6
X101.42Y-111.6
X217.58Y-59.2
X225.2Y-59.2
X160.18Y-59.0
X167.8Y-59.0
X74.8Y-59.2
X82.42Y-59.2
X188.8Y-114.2
X196.42Y-114.2
X45.8Y-59.0
X53.42Y-59.0
X46.0Y-87.6
X53.62Y-87.6
X132.0Y-59.2
X139.62Y-59.2
X188.6Y-138.0
X196.22Y-138.0
X141.6Y-82.8
X149.22Y-82.8
X165.2Y-133.2
X172.82Y-133.2
X117.6Y-133.2
X125.22Y-133.2
X141.2Y-130.6
X148.82Y-130.6
T3
X34.96Y-179.985
X34.96Y-182.755
X34.96Y-185.525
X34.96Y-188.295
X34.96Y-191.065
X34.96Y-193.835
X34.96Y-196.605
X37.8Y-178.6
X37.8Y-181.37
X37.8Y-184.14
X37.8Y-186.91
X37.8Y-189.68
X37.8Y-192.45
X37.8Y-195.22
X37.8Y-197.99
T4
X60.43Y-194.106
X64.66Y-188.731
X93.85Y-122.14
X100.2Y-119.6
X70.05Y-121.94
X76.4Y-119.4
X117.65Y-143.54
X124.0Y-141.0
X189.05Y-148.34
X195.4Y-145.8
X70.05Y-145.74
X76.4Y-143.2
X141.45Y-164.94
X147.8Y-162.4
X217.59Y-100.66
X223.94Y-98.12
X165.25Y-95.94
X171.6Y-93.4
X131.85Y-45.74
X138.2Y-43.2
X217.65Y-124.54
X224.0Y-122.0
X51.63Y-226.706
X55.86Y-221.331
X70.05Y-98.14
X76.4Y-95.6
X141.45Y-117.34
X147.8Y-114.8
X93.65Y-145.74
X100.0Y-143.2
X117.65Y-95.94
X124.0Y-93.4
X217.65Y-148.34
X224.0Y-145.8
X165.25Y-167.34
X171.6Y-164.8
X165.25Y-72.14
X171.6Y-69.6
X189.05Y-100.74
X195.4Y-98.2
X44.8Y-141.0
X47.34Y-147.35
X70.05Y-74.34
X76.4Y-71.8
X141.45Y-140.94
X147.8Y-138.4
X160.45Y-45.74
X166.8Y-43.2
X93.85Y-98.14
X100.2Y-95.6
X92.83Y-202.706
X97.06Y-197.331
X117.65Y-72.14
X124.0Y-69.6
X45.0Y-107.6
X47.54Y-113.95
X74.85Y-45.74
X81.2Y-43.2
X217.59Y-45.74
X223.94Y-43.2
X189.05Y-172.14
X195.4Y-169.6
X165.25Y-119.74
X171.6Y-117.2
X46.05Y-45.74
X52.4Y-43.2
X141.25Y-93.34
X147.6Y-90.8
X189.05Y-45.74
X195.4Y-43.2
X117.65Y-119.74
X124.0Y-117.2
X93.85Y-74.34
X100.2Y-71.8
X72.23Y-214.706
X76.46Y-209.331
X103.25Y-45.74
X109.6Y-43.2
X117.65Y-167.34
X124.0Y-164.8
X217.59Y-76.86
X223.94Y-74.32
X212.85Y-172.14
X219.2Y-169.6
X189.05Y-76.74
X195.4Y-74.2
X46.19Y-74.26
X52.54Y-71.72
X189.05Y-124.54
X195.4Y-122.0
X165.25Y-143.54
X171.6Y-141.0
X141.45Y-69.54
X147.8Y-67.0
T5
X138.5Y-31.5
X33.5Y-31.5
X243.0Y-247.5
X243.0Y-31.5
X33.0Y-247.5
X243.0Y-139.5
X33.0Y-139.5
X138.0Y-247.5
T0
M30
