%FSLAX45Y45*%
G04 Gerber Fmt 4.5, Leading zero omitted, Abs format (unit mm)*
G04 Created by KiCad (PCBNEW 5.1.6-c6e7f7d~87~ubuntu20.04.1) date 2020-09-12 13:47:01*
%MOMM*%
%LPD*%
G01*
G04 APERTURE LIST*
%TA.AperFunction,Profile*%
%ADD10C,0.100000*%
%TD*%
%ADD11C,0.200000*%
%ADD12C,0.300000*%
G04 APERTURE END LIST*
D10*
X25050000Y-25050000D02*
X25080000Y-2840000D01*
X25050000Y-25050000D02*
G75*
G02*
X24600000Y-25500000I-450000J0D01*
G01*
X3050000Y-25500000D02*
X24600000Y-25500000D01*
X3050000Y-25500000D02*
G75*
G02*
X2550000Y-25000000I50000J550000D01*
G01*
X2528301Y-2850000D02*
X2550000Y-25000000D01*
X2528301Y-2850000D02*
G75*
G02*
X3040000Y-2380000I471699J0D01*
G01*
X24600000Y-2379584D02*
X3040000Y-2380000D01*
X24600000Y-2379584D02*
G75*
G02*
X25080000Y-2840000I0J-480416D01*
G01*
D11*
X3650000Y-15590000D02*
X3690000Y-15630000D01*
X3690000Y-15590000D02*
X3650000Y-15630000D01*
X3870000Y-17300000D02*
X3910000Y-17340000D01*
X3910000Y-17300000D02*
X3870000Y-17340000D01*
X4910000Y-17180000D02*
X4950000Y-17220000D01*
X4950000Y-17180000D02*
X4910000Y-17220000D01*
X10990000Y-16210000D02*
X11030000Y-16250000D01*
X11030000Y-16210000D02*
X10990000Y-16250000D01*
X11780000Y-17520000D02*
X11820000Y-17560000D01*
X11820000Y-17520000D02*
X11780000Y-17560000D01*
X18170000Y-16210000D02*
X18210000Y-16250000D01*
X18210000Y-16210000D02*
X18170000Y-16250000D01*
X14160000Y-10680000D02*
G75*
G03*
X14160000Y-10680000I-40000J0D01*
G01*
X14922000Y-10680000D02*
G75*
G03*
X14922000Y-10680000I-40000J0D01*
G01*
X11800000Y-13320000D02*
G75*
G03*
X11800000Y-13320000I-40000J0D01*
G01*
X12562000Y-13320000D02*
G75*
G03*
X12562000Y-13320000I-40000J0D01*
G01*
X21798000Y-5920000D02*
G75*
G03*
X21798000Y-5920000I-40000J0D01*
G01*
X22560000Y-5920000D02*
G75*
G03*
X22560000Y-5920000I-40000J0D01*
G01*
X5780090Y-18931000D02*
G75*
G03*
X5780090Y-18931000I-40000J0D01*
G01*
X6440001Y-18550000D02*
G75*
G03*
X6440001Y-18550000I-40000J0D01*
G01*
X16560000Y-8560000D02*
G75*
G03*
X16560000Y-8560000I-40000J0D01*
G01*
X17322000Y-8560000D02*
G75*
G03*
X17322000Y-8560000I-40000J0D01*
G01*
X4660000Y-12560000D02*
G75*
G03*
X4660000Y-12560000I-40000J0D01*
G01*
X5422000Y-12560000D02*
G75*
G03*
X5422000Y-12560000I-40000J0D01*
G01*
X13240000Y-5920000D02*
G75*
G03*
X13240000Y-5920000I-40000J0D01*
G01*
X14002000Y-5920000D02*
G75*
G03*
X14002000Y-5920000I-40000J0D01*
G01*
X9420000Y-8760000D02*
G75*
G03*
X9420000Y-8760000I-40000J0D01*
G01*
X10182000Y-8760000D02*
G75*
G03*
X10182000Y-8760000I-40000J0D01*
G01*
X11780000Y-15680000D02*
G75*
G03*
X11780000Y-15680000I-40000J0D01*
G01*
X12542000Y-15680000D02*
G75*
G03*
X12542000Y-15680000I-40000J0D01*
G01*
X16560000Y-13320000D02*
G75*
G03*
X16560000Y-13320000I-40000J0D01*
G01*
X17322000Y-13320000D02*
G75*
G03*
X17322000Y-13320000I-40000J0D01*
G01*
X18920000Y-9020000D02*
G75*
G03*
X18920000Y-9020000I-40000J0D01*
G01*
X19682000Y-9020000D02*
G75*
G03*
X19682000Y-9020000I-40000J0D01*
G01*
X14160000Y-13060000D02*
G75*
G03*
X14160000Y-13060000I-40000J0D01*
G01*
X14922000Y-13060000D02*
G75*
G03*
X14922000Y-13060000I-40000J0D01*
G01*
X11820000Y-18060000D02*
G75*
G03*
X11820000Y-18060000I-40000J0D01*
G01*
X12582000Y-18060000D02*
G75*
G03*
X12582000Y-18060000I-40000J0D01*
G01*
X4640000Y-8760000D02*
G75*
G03*
X4640000Y-8760000I-40000J0D01*
G01*
X5402000Y-8760000D02*
G75*
G03*
X5402000Y-8760000I-40000J0D01*
G01*
X21820000Y-13800000D02*
G75*
G03*
X21820000Y-13800000I-40000J0D01*
G01*
X22582000Y-13800000D02*
G75*
G03*
X22582000Y-13800000I-40000J0D01*
G01*
X9420000Y-11160000D02*
G75*
G03*
X9420000Y-11160000I-40000J0D01*
G01*
X10182000Y-11160000D02*
G75*
G03*
X10182000Y-11160000I-40000J0D01*
G01*
X21340000Y-18560000D02*
G75*
G03*
X21340000Y-18560000I-40000J0D01*
G01*
X22102000Y-18560000D02*
G75*
G03*
X22102000Y-18560000I-40000J0D01*
G01*
X7060000Y-8780000D02*
G75*
G03*
X7060000Y-8780000I-40000J0D01*
G01*
X7822000Y-8780000D02*
G75*
G03*
X7822000Y-8780000I-40000J0D01*
G01*
X14140000Y-17840000D02*
G75*
G03*
X14140000Y-17840000I-40000J0D01*
G01*
X14902000Y-17840000D02*
G75*
G03*
X14902000Y-17840000I-40000J0D01*
G01*
X18920000Y-11420000D02*
G75*
G03*
X18920000Y-11420000I-40000J0D01*
G01*
X19682000Y-11420000D02*
G75*
G03*
X19682000Y-11420000I-40000J0D01*
G01*
X7040000Y-13540000D02*
G75*
G03*
X7040000Y-13540000I-40000J0D01*
G01*
X7802000Y-13540000D02*
G75*
G03*
X7802000Y-13540000I-40000J0D01*
G01*
X14200000Y-8280000D02*
G75*
G03*
X14200000Y-8280000I-40000J0D01*
G01*
X14962000Y-8280000D02*
G75*
G03*
X14962000Y-8280000I-40000J0D01*
G01*
X9050090Y-19791000D02*
G75*
G03*
X9050090Y-19791000I-40000J0D01*
G01*
X9710001Y-19410000D02*
G75*
G03*
X9710001Y-19410000I-40000J0D01*
G01*
X4890090Y-22191000D02*
G75*
G03*
X4890090Y-22191000I-40000J0D01*
G01*
X5550001Y-21810000D02*
G75*
G03*
X5550001Y-21810000I-40000J0D01*
G01*
X16560000Y-18060000D02*
G75*
G03*
X16560000Y-18060000I-40000J0D01*
G01*
X17322000Y-18060000D02*
G75*
G03*
X17322000Y-18060000I-40000J0D01*
G01*
X7520000Y-5920000D02*
G75*
G03*
X7520000Y-5920000I-40000J0D01*
G01*
X8282000Y-5920000D02*
G75*
G03*
X8282000Y-5920000I-40000J0D01*
G01*
X18920000Y-16160000D02*
G75*
G03*
X18920000Y-16160000I-40000J0D01*
G01*
X19682000Y-16160000D02*
G75*
G03*
X19682000Y-16160000I-40000J0D01*
G01*
X21820000Y-16180000D02*
G75*
G03*
X21820000Y-16180000I-40000J0D01*
G01*
X22582000Y-16180000D02*
G75*
G03*
X22582000Y-16180000I-40000J0D01*
G01*
X18898000Y-18540000D02*
G75*
G03*
X18898000Y-18540000I-40000J0D01*
G01*
X19660000Y-18540000D02*
G75*
G03*
X19660000Y-18540000I-40000J0D01*
G01*
X18918000Y-5920000D02*
G75*
G03*
X18918000Y-5920000I-40000J0D01*
G01*
X19680000Y-5920000D02*
G75*
G03*
X19680000Y-5920000I-40000J0D01*
G01*
X21820000Y-9040000D02*
G75*
G03*
X21820000Y-9040000I-40000J0D01*
G01*
X22582000Y-9040000D02*
G75*
G03*
X22582000Y-9040000I-40000J0D01*
G01*
X18900000Y-13800000D02*
G75*
G03*
X18900000Y-13800000I-40000J0D01*
G01*
X19662000Y-13800000D02*
G75*
G03*
X19662000Y-13800000I-40000J0D01*
G01*
X10340000Y-5920000D02*
G75*
G03*
X10340000Y-5920000I-40000J0D01*
G01*
X11102000Y-5920000D02*
G75*
G03*
X11102000Y-5920000I-40000J0D01*
G01*
X11780000Y-10920000D02*
G75*
G03*
X11780000Y-10920000I-40000J0D01*
G01*
X12542000Y-10920000D02*
G75*
G03*
X12542000Y-10920000I-40000J0D01*
G01*
X16538000Y-15680000D02*
G75*
G03*
X16538000Y-15680000I-40000J0D01*
G01*
X17300000Y-15680000D02*
G75*
G03*
X17300000Y-15680000I-40000J0D01*
G01*
X16058000Y-5900000D02*
G75*
G03*
X16058000Y-5900000I-40000J0D01*
G01*
X16820000Y-5900000D02*
G75*
G03*
X16820000Y-5900000I-40000J0D01*
G01*
X7040000Y-15900000D02*
G75*
G03*
X7040000Y-15900000I-40000J0D01*
G01*
X7802000Y-15900000D02*
G75*
G03*
X7802000Y-15900000I-40000J0D01*
G01*
X9380000Y-15900000D02*
G75*
G03*
X9380000Y-15900000I-40000J0D01*
G01*
X10142000Y-15900000D02*
G75*
G03*
X10142000Y-15900000I-40000J0D01*
G01*
X11800000Y-8560000D02*
G75*
G03*
X11800000Y-8560000I-40000J0D01*
G01*
X12562000Y-8560000D02*
G75*
G03*
X12562000Y-8560000I-40000J0D01*
G01*
X21820000Y-11400000D02*
G75*
G03*
X21820000Y-11400000I-40000J0D01*
G01*
X22582000Y-11400000D02*
G75*
G03*
X22582000Y-11400000I-40000J0D01*
G01*
X4620000Y-5900000D02*
G75*
G03*
X4620000Y-5900000I-40000J0D01*
G01*
X5382000Y-5900000D02*
G75*
G03*
X5382000Y-5900000I-40000J0D01*
G01*
X6940090Y-21011000D02*
G75*
G03*
X6940090Y-21011000I-40000J0D01*
G01*
X7600001Y-20630000D02*
G75*
G03*
X7600001Y-20630000I-40000J0D01*
G01*
X16560000Y-10920000D02*
G75*
G03*
X16560000Y-10920000I-40000J0D01*
G01*
X17322000Y-10920000D02*
G75*
G03*
X17322000Y-10920000I-40000J0D01*
G01*
X4660000Y-15900000D02*
G75*
G03*
X4660000Y-15900000I-40000J0D01*
G01*
X5422000Y-15900000D02*
G75*
G03*
X5422000Y-15900000I-40000J0D01*
G01*
X9420000Y-13540000D02*
G75*
G03*
X9420000Y-13540000I-40000J0D01*
G01*
X10182000Y-13540000D02*
G75*
G03*
X10182000Y-13540000I-40000J0D01*
G01*
X7060000Y-11160000D02*
G75*
G03*
X7060000Y-11160000I-40000J0D01*
G01*
X7822000Y-11160000D02*
G75*
G03*
X7822000Y-11160000I-40000J0D01*
G01*
X14180000Y-15420000D02*
G75*
G03*
X14180000Y-15420000I-40000J0D01*
G01*
X14942000Y-15420000D02*
G75*
G03*
X14942000Y-15420000I-40000J0D01*
G01*
X2916000Y-16081500D02*
X2916000Y-16181500D01*
X2866000Y-16131500D02*
X2966000Y-16131500D01*
X2916000Y-16358500D02*
X2916000Y-16458500D01*
X2866000Y-16408500D02*
X2966000Y-16408500D01*
X2916000Y-16635500D02*
X2916000Y-16735500D01*
X2866000Y-16685500D02*
X2966000Y-16685500D01*
X2916000Y-16912500D02*
X2916000Y-17012500D01*
X2866000Y-16962500D02*
X2966000Y-16962500D01*
X2916000Y-17189500D02*
X2916000Y-17289500D01*
X2866000Y-17239500D02*
X2966000Y-17239500D01*
X2916000Y-17466500D02*
X2916000Y-17566500D01*
X2866000Y-17516500D02*
X2966000Y-17516500D01*
X2916000Y-17743500D02*
X2916000Y-17843500D01*
X2866000Y-17793500D02*
X2966000Y-17793500D01*
X2916000Y-18020500D02*
X2916000Y-18120500D01*
X2866000Y-18070500D02*
X2966000Y-18070500D01*
X2916000Y-18297500D02*
X2916000Y-18397500D01*
X2866000Y-18347500D02*
X2966000Y-18347500D01*
X2916000Y-18574500D02*
X2916000Y-18674500D01*
X2866000Y-18624500D02*
X2966000Y-18624500D01*
X2916000Y-18851500D02*
X2916000Y-18951500D01*
X2866000Y-18901500D02*
X2966000Y-18901500D01*
X2916000Y-19128500D02*
X2916000Y-19228500D01*
X2866000Y-19178500D02*
X2966000Y-19178500D01*
X3200000Y-15943000D02*
X3200000Y-16043000D01*
X3150000Y-15993000D02*
X3250000Y-15993000D01*
X3200000Y-16220000D02*
X3200000Y-16320000D01*
X3150000Y-16270000D02*
X3250000Y-16270000D01*
X3200000Y-16497000D02*
X3200000Y-16597000D01*
X3150000Y-16547000D02*
X3250000Y-16547000D01*
X3200000Y-16774000D02*
X3200000Y-16874000D01*
X3150000Y-16824000D02*
X3250000Y-16824000D01*
X3200000Y-17051000D02*
X3200000Y-17151000D01*
X3150000Y-17101000D02*
X3250000Y-17101000D01*
X3200000Y-17328000D02*
X3200000Y-17428000D01*
X3150000Y-17378000D02*
X3250000Y-17378000D01*
X3200000Y-17605000D02*
X3200000Y-17705000D01*
X3150000Y-17655000D02*
X3250000Y-17655000D01*
X3200000Y-17882000D02*
X3200000Y-17982000D01*
X3150000Y-17932000D02*
X3250000Y-17932000D01*
X3200000Y-18159000D02*
X3200000Y-18259000D01*
X3150000Y-18209000D02*
X3250000Y-18209000D01*
X3200000Y-18436000D02*
X3200000Y-18536000D01*
X3150000Y-18486000D02*
X3250000Y-18486000D01*
X3200000Y-18713000D02*
X3200000Y-18813000D01*
X3150000Y-18763000D02*
X3250000Y-18763000D01*
X3200000Y-18990000D02*
X3200000Y-19090000D01*
X3150000Y-19040000D02*
X3250000Y-19040000D01*
X3200000Y-19267000D02*
X3200000Y-19367000D01*
X3150000Y-19317000D02*
X3250000Y-19317000D01*
X21812034Y-10119034D02*
X21812034Y-10012967D01*
X21705967Y-10012967D01*
X21705967Y-10119034D01*
X21812034Y-10119034D01*
X22447033Y-9865034D02*
X22447033Y-9758967D01*
X22340967Y-9758967D01*
X22340967Y-9865034D01*
X22447033Y-9865034D01*
X14178033Y-9387034D02*
X14178033Y-9280967D01*
X14071966Y-9280967D01*
X14071966Y-9387034D01*
X14178033Y-9387034D01*
X14813033Y-9133034D02*
X14813033Y-9026967D01*
X14706966Y-9026967D01*
X14706966Y-9133034D01*
X14813033Y-9133034D01*
X7058033Y-9867034D02*
X7058033Y-9760967D01*
X6951966Y-9760967D01*
X6951966Y-9867034D01*
X7058033Y-9867034D01*
X7693033Y-9613034D02*
X7693033Y-9506967D01*
X7586966Y-9506967D01*
X7586966Y-9613034D01*
X7693033Y-9613034D01*
X7538033Y-4627034D02*
X7538033Y-4520967D01*
X7431966Y-4520967D01*
X7431966Y-4627034D01*
X7538033Y-4627034D01*
X8173033Y-4373034D02*
X8173033Y-4266967D01*
X8066966Y-4266967D01*
X8066966Y-4373034D01*
X8173033Y-4373034D01*
X4553034Y-10813034D02*
X4553034Y-10706967D01*
X4446967Y-10706967D01*
X4446967Y-10813034D01*
X4553034Y-10813034D01*
X4807034Y-11448033D02*
X4807034Y-11341966D01*
X4700967Y-11341966D01*
X4700967Y-11448033D01*
X4807034Y-11448033D01*
X14198033Y-7007033D02*
X14198033Y-6900966D01*
X14091966Y-6900966D01*
X14091966Y-7007033D01*
X14198033Y-7007033D01*
X14833033Y-6753033D02*
X14833033Y-6646966D01*
X14726966Y-6646966D01*
X14726966Y-6753033D01*
X14833033Y-6753033D01*
X7058033Y-7487033D02*
X7058033Y-7380966D01*
X6951966Y-7380966D01*
X6951966Y-7487033D01*
X7058033Y-7487033D01*
X7693033Y-7233033D02*
X7693033Y-7126966D01*
X7586966Y-7126966D01*
X7586966Y-7233033D01*
X7693033Y-7233033D01*
X10378034Y-4627034D02*
X10378034Y-4520967D01*
X10271967Y-4520967D01*
X10271967Y-4627034D01*
X10378034Y-4627034D01*
X11013034Y-4373034D02*
X11013034Y-4266967D01*
X10906967Y-4266967D01*
X10906967Y-4373034D01*
X11013034Y-4373034D01*
X16578033Y-14407033D02*
X16578033Y-14300966D01*
X16471966Y-14300966D01*
X16471966Y-14407033D01*
X16578033Y-14407033D01*
X17213034Y-14153033D02*
X17213034Y-14046966D01*
X17106967Y-14046966D01*
X17106967Y-14153033D01*
X17213034Y-14153033D01*
X21818034Y-14887033D02*
X21818034Y-14780966D01*
X21711967Y-14780966D01*
X21711967Y-14887033D01*
X21818034Y-14887033D01*
X22453033Y-14633033D02*
X22453033Y-14526966D01*
X22346967Y-14526966D01*
X22346967Y-14633033D01*
X22453033Y-14633033D01*
X11818033Y-12027033D02*
X11818033Y-11920966D01*
X11711966Y-11920966D01*
X11711966Y-12027033D01*
X11818033Y-12027033D01*
X12453033Y-11773033D02*
X12453033Y-11666966D01*
X12346966Y-11666966D01*
X12346966Y-11773033D01*
X12453033Y-11773033D01*
X6316077Y-19893604D02*
X6316077Y-19787537D01*
X6210010Y-19787537D01*
X6210010Y-19893604D01*
X6316077Y-19893604D01*
X6739003Y-19356134D02*
X6739003Y-19250067D01*
X6632936Y-19250067D01*
X6632936Y-19356134D01*
X6739003Y-19356134D01*
X11818033Y-16787034D02*
X11818033Y-16680966D01*
X11711966Y-16680966D01*
X11711966Y-16787034D01*
X11818033Y-16787034D01*
X12453033Y-16533033D02*
X12453033Y-16426966D01*
X12346966Y-16426966D01*
X12346966Y-16533033D01*
X12453033Y-16533033D01*
X14198033Y-16547033D02*
X14198033Y-16440966D01*
X14091966Y-16440966D01*
X14091966Y-16547033D01*
X14198033Y-16547033D01*
X14833033Y-16293033D02*
X14833033Y-16186966D01*
X14726966Y-16186966D01*
X14726966Y-16293033D01*
X14833033Y-16293033D01*
X4672034Y-7479033D02*
X4672034Y-7372966D01*
X4565967Y-7372966D01*
X4565967Y-7479033D01*
X4672034Y-7479033D01*
X5307034Y-7225033D02*
X5307034Y-7118966D01*
X5200967Y-7118966D01*
X5200967Y-7225033D01*
X5307034Y-7225033D01*
X5136077Y-17813604D02*
X5136077Y-17707537D01*
X5030010Y-17707537D01*
X5030010Y-17813604D01*
X5136077Y-17813604D01*
X5559004Y-17276134D02*
X5559004Y-17170067D01*
X5452937Y-17170067D01*
X5452937Y-17276134D01*
X5559004Y-17276134D01*
X13238033Y-4627034D02*
X13238033Y-4520967D01*
X13131966Y-4520967D01*
X13131966Y-4627034D01*
X13238033Y-4627034D01*
X13873033Y-4373034D02*
X13873033Y-4266967D01*
X13766966Y-4266967D01*
X13766966Y-4373034D01*
X13873033Y-4373034D01*
X4658034Y-4627034D02*
X4658034Y-4520967D01*
X4551967Y-4520967D01*
X4551967Y-4627034D01*
X4658034Y-4627034D01*
X5293034Y-4373034D02*
X5293034Y-4266967D01*
X5186967Y-4266967D01*
X5186967Y-4373034D01*
X5293034Y-4373034D01*
X21818034Y-12507033D02*
X21818034Y-12400966D01*
X21711967Y-12400966D01*
X21711967Y-12507033D01*
X21818034Y-12507033D01*
X22453033Y-12253033D02*
X22453033Y-12146966D01*
X22346967Y-12146966D01*
X22346967Y-12253033D01*
X22453033Y-12253033D01*
X16578033Y-9647034D02*
X16578033Y-9540967D01*
X16471966Y-9540967D01*
X16471966Y-9647034D01*
X16578033Y-9647034D01*
X17213034Y-9393034D02*
X17213034Y-9286967D01*
X17106967Y-9286967D01*
X17106967Y-9393034D01*
X17213034Y-9393034D01*
X9438034Y-12267033D02*
X9438034Y-12160966D01*
X9331967Y-12160966D01*
X9331967Y-12267033D01*
X9438034Y-12267033D01*
X10073034Y-12013033D02*
X10073034Y-11906966D01*
X9966967Y-11906966D01*
X9966967Y-12013033D01*
X10073034Y-12013033D01*
X18958034Y-7727033D02*
X18958034Y-7620966D01*
X18851967Y-7620966D01*
X18851967Y-7727033D01*
X18958034Y-7727033D01*
X19593034Y-7473033D02*
X19593034Y-7366966D01*
X19486967Y-7366966D01*
X19486967Y-7473033D01*
X19593034Y-7473033D01*
X11818033Y-14407033D02*
X11818033Y-14300966D01*
X11711966Y-14300966D01*
X11711966Y-14407033D01*
X11818033Y-14407033D01*
X12453033Y-14153033D02*
X12453033Y-14046966D01*
X12346966Y-14046966D01*
X12346966Y-14153033D01*
X12453033Y-14153033D01*
X9438034Y-9867034D02*
X9438034Y-9760967D01*
X9331967Y-9760967D01*
X9331967Y-9867034D01*
X9438034Y-9867034D01*
X10073034Y-9613034D02*
X10073034Y-9506967D01*
X9966967Y-9506967D01*
X9966967Y-9613034D01*
X10073034Y-9613034D01*
X18958034Y-4627034D02*
X18958034Y-4520967D01*
X18851967Y-4520967D01*
X18851967Y-4627034D01*
X18958034Y-4627034D01*
X19593034Y-4373034D02*
X19593034Y-4266967D01*
X19486967Y-4266967D01*
X19486967Y-4373034D01*
X19593034Y-4373034D01*
X14198033Y-11787033D02*
X14198033Y-11680966D01*
X14091966Y-11680966D01*
X14091966Y-11787033D01*
X14198033Y-11787033D01*
X14833033Y-11533033D02*
X14833033Y-11426966D01*
X14726966Y-11426966D01*
X14726966Y-11533033D01*
X14833033Y-11533033D01*
X7058033Y-12247033D02*
X7058033Y-12140966D01*
X6951966Y-12140966D01*
X6951966Y-12247033D01*
X7058033Y-12247033D01*
X7693033Y-11993033D02*
X7693033Y-11886966D01*
X7586966Y-11886966D01*
X7586966Y-11993033D01*
X7693033Y-11993033D01*
X21812034Y-4627034D02*
X21812034Y-4520967D01*
X21705967Y-4520967D01*
X21705967Y-4627034D01*
X21812034Y-4627034D01*
X22447033Y-4373034D02*
X22447033Y-4266967D01*
X22340967Y-4266967D01*
X22340967Y-4373034D01*
X22447033Y-4373034D01*
X4266077Y-21073604D02*
X4266077Y-20967537D01*
X4160010Y-20967537D01*
X4160010Y-21073604D01*
X4266077Y-21073604D01*
X4689004Y-20536134D02*
X4689004Y-20430067D01*
X4582937Y-20430067D01*
X4582937Y-20536134D01*
X4689004Y-20536134D01*
X18958034Y-12507033D02*
X18958034Y-12400966D01*
X18851967Y-12400966D01*
X18851967Y-12507033D01*
X18958034Y-12507033D01*
X19593034Y-12253033D02*
X19593034Y-12146966D01*
X19486967Y-12146966D01*
X19486967Y-12253033D01*
X19593034Y-12253033D01*
X16578033Y-7267033D02*
X16578033Y-7160966D01*
X16471966Y-7160966D01*
X16471966Y-7267033D01*
X16578033Y-7267033D01*
X17213034Y-7013033D02*
X17213034Y-6906966D01*
X17106967Y-6906966D01*
X17106967Y-7013033D01*
X17213034Y-7013033D01*
X18958034Y-14887033D02*
X18958034Y-14780966D01*
X18851967Y-14780966D01*
X18851967Y-14887033D01*
X18958034Y-14887033D01*
X19593034Y-14633033D02*
X19593034Y-14526966D01*
X19486967Y-14526966D01*
X19486967Y-14633033D01*
X19593034Y-14633033D01*
X11818033Y-9647034D02*
X11818033Y-9540967D01*
X11711966Y-9540967D01*
X11711966Y-9647034D01*
X11818033Y-9647034D01*
X12453033Y-9393034D02*
X12453033Y-9286967D01*
X12346966Y-9286967D01*
X12346966Y-9393034D01*
X12453033Y-9393034D01*
X18958034Y-17267034D02*
X18958034Y-17160967D01*
X18851967Y-17160967D01*
X18851967Y-17267034D01*
X18958034Y-17267034D01*
X19593034Y-17013034D02*
X19593034Y-16906967D01*
X19486967Y-16906967D01*
X19486967Y-17013034D01*
X19593034Y-17013034D01*
X16578033Y-16787034D02*
X16578033Y-16680966D01*
X16471966Y-16680966D01*
X16471966Y-16787034D01*
X16578033Y-16787034D01*
X17213034Y-16533033D02*
X17213034Y-16426966D01*
X17106967Y-16426966D01*
X17106967Y-16533033D01*
X17213034Y-16533033D01*
X14198033Y-14147033D02*
X14198033Y-14040966D01*
X14091966Y-14040966D01*
X14091966Y-14147033D01*
X14198033Y-14147033D01*
X14833033Y-13893033D02*
X14833033Y-13786966D01*
X14726966Y-13786966D01*
X14726966Y-13893033D01*
X14833033Y-13893033D01*
X7058033Y-14627033D02*
X7058033Y-14520966D01*
X6951966Y-14520966D01*
X6951966Y-14627033D01*
X7058033Y-14627033D01*
X7693033Y-14373033D02*
X7693033Y-14266966D01*
X7586966Y-14266966D01*
X7586966Y-14373033D01*
X7693033Y-14373033D01*
X21338034Y-17267034D02*
X21338034Y-17160967D01*
X21231967Y-17160967D01*
X21231967Y-17267034D01*
X21338034Y-17267034D01*
X21973034Y-17013034D02*
X21973034Y-16906967D01*
X21866967Y-16906967D01*
X21866967Y-17013034D01*
X21973034Y-17013034D01*
X21812034Y-7739033D02*
X21812034Y-7632966D01*
X21705967Y-7632966D01*
X21705967Y-7739033D01*
X21812034Y-7739033D01*
X22447033Y-7485033D02*
X22447033Y-7378966D01*
X22340967Y-7378966D01*
X22340967Y-7485033D01*
X22447033Y-7485033D01*
X18958034Y-10127034D02*
X18958034Y-10020967D01*
X18851967Y-10020967D01*
X18851967Y-10127034D01*
X18958034Y-10127034D01*
X19593034Y-9873034D02*
X19593034Y-9766967D01*
X19486967Y-9766967D01*
X19486967Y-9873034D01*
X19593034Y-9873034D01*
X9438034Y-7487033D02*
X9438034Y-7380966D01*
X9331967Y-7380966D01*
X9331967Y-7487033D01*
X9438034Y-7487033D01*
X10073034Y-7233033D02*
X10073034Y-7126966D01*
X9966967Y-7126966D01*
X9966967Y-7233033D01*
X10073034Y-7233033D01*
X4533034Y-14153033D02*
X4533034Y-14046966D01*
X4426967Y-14046966D01*
X4426967Y-14153033D01*
X4533034Y-14153033D01*
X4787034Y-14788033D02*
X4787034Y-14681966D01*
X4680967Y-14681966D01*
X4680967Y-14788033D01*
X4787034Y-14788033D01*
X16098033Y-4627034D02*
X16098033Y-4520967D01*
X15991966Y-4520967D01*
X15991966Y-4627034D01*
X16098033Y-4627034D01*
X16733033Y-4373034D02*
X16733033Y-4266967D01*
X16626966Y-4266967D01*
X16626966Y-4373034D01*
X16733033Y-4373034D01*
X8386077Y-18693604D02*
X8386077Y-18587537D01*
X8280010Y-18587537D01*
X8280010Y-18693604D01*
X8386077Y-18693604D01*
X8809004Y-18156134D02*
X8809004Y-18050067D01*
X8702937Y-18050067D01*
X8702937Y-18156134D01*
X8809004Y-18156134D01*
X9418034Y-14627033D02*
X9418034Y-14520966D01*
X9311967Y-14520966D01*
X9311967Y-14627033D01*
X9418034Y-14627033D01*
X10053034Y-14373033D02*
X10053034Y-14266966D01*
X9946967Y-14266966D01*
X9946967Y-14373033D01*
X10053034Y-14373033D01*
X11818033Y-7267033D02*
X11818033Y-7160966D01*
X11711966Y-7160966D01*
X11711966Y-7267033D01*
X11818033Y-7267033D01*
X12453033Y-7013033D02*
X12453033Y-6906966D01*
X12346966Y-6906966D01*
X12346966Y-7013033D01*
X12453033Y-7013033D01*
X16578033Y-12027033D02*
X16578033Y-11920966D01*
X16471966Y-11920966D01*
X16471966Y-12027033D01*
X16578033Y-12027033D01*
X17213034Y-11773033D02*
X17213034Y-11666966D01*
X17106967Y-11666966D01*
X17106967Y-11773033D01*
X17213034Y-11773033D01*
X3170000Y-15460000D02*
X3330000Y-15300000D01*
X3170000Y-15140000D01*
X3010000Y-15300000D01*
X3170000Y-15460000D01*
X3170000Y-20170000D02*
X3330000Y-20010000D01*
X3170000Y-19850000D01*
X3010000Y-20010000D01*
X3170000Y-20170000D01*
X24085000Y-13735000D02*
X24515000Y-14165000D01*
X24515000Y-13735000D02*
X24085000Y-14165000D01*
X24515000Y-13950000D02*
G75*
G03*
X24515000Y-13950000I-215000J0D01*
G01*
X24085000Y-2935000D02*
X24515000Y-3365000D01*
X24515000Y-2935000D02*
X24085000Y-3365000D01*
X24515000Y-3150000D02*
G75*
G03*
X24515000Y-3150000I-215000J0D01*
G01*
X13585000Y-24535000D02*
X14015000Y-24965000D01*
X14015000Y-24535000D02*
X13585000Y-24965000D01*
X14015000Y-24750000D02*
G75*
G03*
X14015000Y-24750000I-215000J0D01*
G01*
X3085000Y-13735000D02*
X3515000Y-14165000D01*
X3515000Y-13735000D02*
X3085000Y-14165000D01*
X3515000Y-13950000D02*
G75*
G03*
X3515000Y-13950000I-215000J0D01*
G01*
X3085000Y-24535000D02*
X3515000Y-24965000D01*
X3515000Y-24535000D02*
X3085000Y-24965000D01*
X3515000Y-24750000D02*
G75*
G03*
X3515000Y-24750000I-215000J0D01*
G01*
X13635000Y-2935000D02*
X14065000Y-3365000D01*
X14065000Y-2935000D02*
X13635000Y-3365000D01*
X14065000Y-3150000D02*
G75*
G03*
X14065000Y-3150000I-215000J0D01*
G01*
X3135000Y-2935000D02*
X3565000Y-3365000D01*
X3565000Y-2935000D02*
X3135000Y-3365000D01*
X3565000Y-3150000D02*
G75*
G03*
X3565000Y-3150000I-215000J0D01*
G01*
X24085000Y-24535000D02*
X24515000Y-24965000D01*
X24515000Y-24535000D02*
X24085000Y-24965000D01*
X24515000Y-24750000D02*
G75*
G03*
X24515000Y-24750000I-215000J0D01*
G01*
D12*
X2809729Y-25970714D02*
X2809729Y-25670714D01*
X2881158Y-25670714D01*
X2924015Y-25685000D01*
X2952587Y-25713571D01*
X2966872Y-25742143D01*
X2981158Y-25799286D01*
X2981158Y-25842143D01*
X2966872Y-25899286D01*
X2952587Y-25927857D01*
X2924015Y-25956429D01*
X2881158Y-25970714D01*
X2809729Y-25970714D01*
X3109729Y-25970714D02*
X3109729Y-25770714D01*
X3109729Y-25827857D02*
X3124015Y-25799286D01*
X3138301Y-25785000D01*
X3166872Y-25770714D01*
X3195444Y-25770714D01*
X3295444Y-25970714D02*
X3295444Y-25770714D01*
X3295444Y-25670714D02*
X3281158Y-25685000D01*
X3295444Y-25699286D01*
X3309729Y-25685000D01*
X3295444Y-25670714D01*
X3295444Y-25699286D01*
X3481158Y-25970714D02*
X3452587Y-25956429D01*
X3438301Y-25927857D01*
X3438301Y-25670714D01*
X3638301Y-25970714D02*
X3609729Y-25956429D01*
X3595444Y-25927857D01*
X3595444Y-25670714D01*
X3981158Y-25970714D02*
X3981158Y-25670714D01*
X4081158Y-25885000D01*
X4181158Y-25670714D01*
X4181158Y-25970714D01*
X4452587Y-25970714D02*
X4452587Y-25813571D01*
X4438301Y-25785000D01*
X4409730Y-25770714D01*
X4352587Y-25770714D01*
X4324015Y-25785000D01*
X4452587Y-25956429D02*
X4424015Y-25970714D01*
X4352587Y-25970714D01*
X4324015Y-25956429D01*
X4309730Y-25927857D01*
X4309730Y-25899286D01*
X4324015Y-25870714D01*
X4352587Y-25856429D01*
X4424015Y-25856429D01*
X4452587Y-25842143D01*
X4595444Y-25770714D02*
X4595444Y-26070714D01*
X4595444Y-25785000D02*
X4624015Y-25770714D01*
X4681158Y-25770714D01*
X4709730Y-25785000D01*
X4724015Y-25799286D01*
X4738301Y-25827857D01*
X4738301Y-25913571D01*
X4724015Y-25942143D01*
X4709730Y-25956429D01*
X4681158Y-25970714D01*
X4624015Y-25970714D01*
X4595444Y-25956429D01*
X4866872Y-25942143D02*
X4881158Y-25956429D01*
X4866872Y-25970714D01*
X4852587Y-25956429D01*
X4866872Y-25942143D01*
X4866872Y-25970714D01*
X4866872Y-25785000D02*
X4881158Y-25799286D01*
X4866872Y-25813571D01*
X4852587Y-25799286D01*
X4866872Y-25785000D01*
X4866872Y-25813571D01*
X2483301Y-26445000D02*
X2523301Y-26485000D01*
X2523301Y-26445000D02*
X2483301Y-26485000D01*
X2866872Y-26300714D02*
X2895444Y-26300714D01*
X2924015Y-26315000D01*
X2938301Y-26329286D01*
X2952587Y-26357857D01*
X2966872Y-26415000D01*
X2966872Y-26486429D01*
X2952587Y-26543571D01*
X2938301Y-26572143D01*
X2924015Y-26586429D01*
X2895444Y-26600714D01*
X2866872Y-26600714D01*
X2838301Y-26586429D01*
X2824015Y-26572143D01*
X2809729Y-26543571D01*
X2795444Y-26486429D01*
X2795444Y-26415000D01*
X2809729Y-26357857D01*
X2824015Y-26329286D01*
X2838301Y-26315000D01*
X2866872Y-26300714D01*
X3095444Y-26572143D02*
X3109729Y-26586429D01*
X3095444Y-26600714D01*
X3081158Y-26586429D01*
X3095444Y-26572143D01*
X3095444Y-26600714D01*
X3366872Y-26400714D02*
X3366872Y-26600714D01*
X3295444Y-26286429D02*
X3224015Y-26500714D01*
X3409729Y-26500714D01*
X3581158Y-26300714D02*
X3609729Y-26300714D01*
X3638301Y-26315000D01*
X3652587Y-26329286D01*
X3666872Y-26357857D01*
X3681158Y-26415000D01*
X3681158Y-26486429D01*
X3666872Y-26543571D01*
X3652587Y-26572143D01*
X3638301Y-26586429D01*
X3609729Y-26600714D01*
X3581158Y-26600714D01*
X3552587Y-26586429D01*
X3538301Y-26572143D01*
X3524015Y-26543571D01*
X3509729Y-26486429D01*
X3509729Y-26415000D01*
X3524015Y-26357857D01*
X3538301Y-26329286D01*
X3552587Y-26315000D01*
X3581158Y-26300714D01*
X3809729Y-26600714D02*
X3809729Y-26400714D01*
X3809729Y-26429286D02*
X3824015Y-26415000D01*
X3852587Y-26400714D01*
X3895444Y-26400714D01*
X3924015Y-26415000D01*
X3938301Y-26443571D01*
X3938301Y-26600714D01*
X3938301Y-26443571D02*
X3952587Y-26415000D01*
X3981158Y-26400714D01*
X4024015Y-26400714D01*
X4052587Y-26415000D01*
X4066872Y-26443571D01*
X4066872Y-26600714D01*
X4209730Y-26600714D02*
X4209730Y-26400714D01*
X4209730Y-26429286D02*
X4224015Y-26415000D01*
X4252587Y-26400714D01*
X4295444Y-26400714D01*
X4324015Y-26415000D01*
X4338301Y-26443571D01*
X4338301Y-26600714D01*
X4338301Y-26443571D02*
X4352587Y-26415000D01*
X4381158Y-26400714D01*
X4424015Y-26400714D01*
X4452587Y-26415000D01*
X4466872Y-26443571D01*
X4466872Y-26600714D01*
X5052587Y-26286429D02*
X4795444Y-26672143D01*
X5438301Y-26300714D02*
X5466872Y-26300714D01*
X5495444Y-26315000D01*
X5509730Y-26329286D01*
X5524015Y-26357857D01*
X5538301Y-26415000D01*
X5538301Y-26486429D01*
X5524015Y-26543571D01*
X5509730Y-26572143D01*
X5495444Y-26586429D01*
X5466872Y-26600714D01*
X5438301Y-26600714D01*
X5409730Y-26586429D01*
X5395444Y-26572143D01*
X5381158Y-26543571D01*
X5366872Y-26486429D01*
X5366872Y-26415000D01*
X5381158Y-26357857D01*
X5395444Y-26329286D01*
X5409730Y-26315000D01*
X5438301Y-26300714D01*
X5666872Y-26572143D02*
X5681158Y-26586429D01*
X5666872Y-26600714D01*
X5652587Y-26586429D01*
X5666872Y-26572143D01*
X5666872Y-26600714D01*
X5866872Y-26300714D02*
X5895444Y-26300714D01*
X5924015Y-26315000D01*
X5938301Y-26329286D01*
X5952587Y-26357857D01*
X5966872Y-26415000D01*
X5966872Y-26486429D01*
X5952587Y-26543571D01*
X5938301Y-26572143D01*
X5924015Y-26586429D01*
X5895444Y-26600714D01*
X5866872Y-26600714D01*
X5838301Y-26586429D01*
X5824015Y-26572143D01*
X5809729Y-26543571D01*
X5795444Y-26486429D01*
X5795444Y-26415000D01*
X5809729Y-26357857D01*
X5824015Y-26329286D01*
X5838301Y-26315000D01*
X5866872Y-26300714D01*
X6252587Y-26600714D02*
X6081158Y-26600714D01*
X6166872Y-26600714D02*
X6166872Y-26300714D01*
X6138301Y-26343571D01*
X6109729Y-26372143D01*
X6081158Y-26386429D01*
X6509729Y-26300714D02*
X6452587Y-26300714D01*
X6424015Y-26315000D01*
X6409729Y-26329286D01*
X6381158Y-26372143D01*
X6366872Y-26429286D01*
X6366872Y-26543571D01*
X6381158Y-26572143D01*
X6395444Y-26586429D01*
X6424015Y-26600714D01*
X6481158Y-26600714D01*
X6509729Y-26586429D01*
X6524015Y-26572143D01*
X6538301Y-26543571D01*
X6538301Y-26472143D01*
X6524015Y-26443571D01*
X6509729Y-26429286D01*
X6481158Y-26415000D01*
X6424015Y-26415000D01*
X6395444Y-26429286D01*
X6381158Y-26443571D01*
X6366872Y-26472143D01*
X6652587Y-26300714D02*
X6652587Y-26357857D01*
X6766872Y-26300714D02*
X6766872Y-26357857D01*
X7209729Y-26715000D02*
X7195444Y-26700714D01*
X7166872Y-26657857D01*
X7152587Y-26629286D01*
X7138301Y-26586429D01*
X7124015Y-26515000D01*
X7124015Y-26457857D01*
X7138301Y-26386429D01*
X7152587Y-26343571D01*
X7166872Y-26315000D01*
X7195444Y-26272143D01*
X7209729Y-26257857D01*
X7452587Y-26300714D02*
X7395444Y-26300714D01*
X7366872Y-26315000D01*
X7352587Y-26329286D01*
X7324015Y-26372143D01*
X7309729Y-26429286D01*
X7309729Y-26543571D01*
X7324015Y-26572143D01*
X7338301Y-26586429D01*
X7366872Y-26600714D01*
X7424015Y-26600714D01*
X7452587Y-26586429D01*
X7466872Y-26572143D01*
X7481158Y-26543571D01*
X7481158Y-26472143D01*
X7466872Y-26443571D01*
X7452587Y-26429286D01*
X7424015Y-26415000D01*
X7366872Y-26415000D01*
X7338301Y-26429286D01*
X7324015Y-26443571D01*
X7309729Y-26472143D01*
X7838301Y-26600714D02*
X7838301Y-26300714D01*
X7966872Y-26600714D02*
X7966872Y-26443571D01*
X7952587Y-26415000D01*
X7924015Y-26400714D01*
X7881158Y-26400714D01*
X7852587Y-26415000D01*
X7838301Y-26429286D01*
X8152587Y-26600714D02*
X8124015Y-26586429D01*
X8109729Y-26572143D01*
X8095444Y-26543571D01*
X8095444Y-26457857D01*
X8109729Y-26429286D01*
X8124015Y-26415000D01*
X8152587Y-26400714D01*
X8195444Y-26400714D01*
X8224015Y-26415000D01*
X8238301Y-26429286D01*
X8252587Y-26457857D01*
X8252587Y-26543571D01*
X8238301Y-26572143D01*
X8224015Y-26586429D01*
X8195444Y-26600714D01*
X8152587Y-26600714D01*
X8424015Y-26600714D02*
X8395444Y-26586429D01*
X8381158Y-26557857D01*
X8381158Y-26300714D01*
X8652587Y-26586429D02*
X8624015Y-26600714D01*
X8566872Y-26600714D01*
X8538301Y-26586429D01*
X8524015Y-26557857D01*
X8524015Y-26443571D01*
X8538301Y-26415000D01*
X8566872Y-26400714D01*
X8624015Y-26400714D01*
X8652587Y-26415000D01*
X8666872Y-26443571D01*
X8666872Y-26472143D01*
X8524015Y-26500714D01*
X8781158Y-26586429D02*
X8809730Y-26600714D01*
X8866872Y-26600714D01*
X8895444Y-26586429D01*
X8909730Y-26557857D01*
X8909730Y-26543571D01*
X8895444Y-26515000D01*
X8866872Y-26500714D01*
X8824015Y-26500714D01*
X8795444Y-26486429D01*
X8781158Y-26457857D01*
X8781158Y-26443571D01*
X8795444Y-26415000D01*
X8824015Y-26400714D01*
X8866872Y-26400714D01*
X8895444Y-26415000D01*
X9009730Y-26715000D02*
X9024015Y-26700714D01*
X9052587Y-26657857D01*
X9066872Y-26629286D01*
X9081158Y-26586429D01*
X9095444Y-26515000D01*
X9095444Y-26457857D01*
X9081158Y-26386429D01*
X9066872Y-26343571D01*
X9052587Y-26315000D01*
X9024015Y-26272143D01*
X9009730Y-26257857D01*
X2523301Y-26861000D02*
G75*
G03*
X2523301Y-26861000I-40000J0D01*
G01*
X2866872Y-26696714D02*
X2895444Y-26696714D01*
X2924015Y-26711000D01*
X2938301Y-26725286D01*
X2952587Y-26753857D01*
X2966872Y-26811000D01*
X2966872Y-26882429D01*
X2952587Y-26939571D01*
X2938301Y-26968143D01*
X2924015Y-26982429D01*
X2895444Y-26996714D01*
X2866872Y-26996714D01*
X2838301Y-26982429D01*
X2824015Y-26968143D01*
X2809729Y-26939571D01*
X2795444Y-26882429D01*
X2795444Y-26811000D01*
X2809729Y-26753857D01*
X2824015Y-26725286D01*
X2838301Y-26711000D01*
X2866872Y-26696714D01*
X3095444Y-26968143D02*
X3109729Y-26982429D01*
X3095444Y-26996714D01*
X3081158Y-26982429D01*
X3095444Y-26968143D01*
X3095444Y-26996714D01*
X3281158Y-26825286D02*
X3252587Y-26811000D01*
X3238301Y-26796714D01*
X3224015Y-26768143D01*
X3224015Y-26753857D01*
X3238301Y-26725286D01*
X3252587Y-26711000D01*
X3281158Y-26696714D01*
X3338301Y-26696714D01*
X3366872Y-26711000D01*
X3381158Y-26725286D01*
X3395444Y-26753857D01*
X3395444Y-26768143D01*
X3381158Y-26796714D01*
X3366872Y-26811000D01*
X3338301Y-26825286D01*
X3281158Y-26825286D01*
X3252587Y-26839571D01*
X3238301Y-26853857D01*
X3224015Y-26882429D01*
X3224015Y-26939571D01*
X3238301Y-26968143D01*
X3252587Y-26982429D01*
X3281158Y-26996714D01*
X3338301Y-26996714D01*
X3366872Y-26982429D01*
X3381158Y-26968143D01*
X3395444Y-26939571D01*
X3395444Y-26882429D01*
X3381158Y-26853857D01*
X3366872Y-26839571D01*
X3338301Y-26825286D01*
X3581158Y-26696714D02*
X3609729Y-26696714D01*
X3638301Y-26711000D01*
X3652587Y-26725286D01*
X3666872Y-26753857D01*
X3681158Y-26811000D01*
X3681158Y-26882429D01*
X3666872Y-26939571D01*
X3652587Y-26968143D01*
X3638301Y-26982429D01*
X3609729Y-26996714D01*
X3581158Y-26996714D01*
X3552587Y-26982429D01*
X3538301Y-26968143D01*
X3524015Y-26939571D01*
X3509729Y-26882429D01*
X3509729Y-26811000D01*
X3524015Y-26753857D01*
X3538301Y-26725286D01*
X3552587Y-26711000D01*
X3581158Y-26696714D01*
X3809729Y-26996714D02*
X3809729Y-26796714D01*
X3809729Y-26825286D02*
X3824015Y-26811000D01*
X3852587Y-26796714D01*
X3895444Y-26796714D01*
X3924015Y-26811000D01*
X3938301Y-26839571D01*
X3938301Y-26996714D01*
X3938301Y-26839571D02*
X3952587Y-26811000D01*
X3981158Y-26796714D01*
X4024015Y-26796714D01*
X4052587Y-26811000D01*
X4066872Y-26839571D01*
X4066872Y-26996714D01*
X4209730Y-26996714D02*
X4209730Y-26796714D01*
X4209730Y-26825286D02*
X4224015Y-26811000D01*
X4252587Y-26796714D01*
X4295444Y-26796714D01*
X4324015Y-26811000D01*
X4338301Y-26839571D01*
X4338301Y-26996714D01*
X4338301Y-26839571D02*
X4352587Y-26811000D01*
X4381158Y-26796714D01*
X4424015Y-26796714D01*
X4452587Y-26811000D01*
X4466872Y-26839571D01*
X4466872Y-26996714D01*
X5052587Y-26682429D02*
X4795444Y-27068143D01*
X5438301Y-26696714D02*
X5466872Y-26696714D01*
X5495444Y-26711000D01*
X5509730Y-26725286D01*
X5524015Y-26753857D01*
X5538301Y-26811000D01*
X5538301Y-26882429D01*
X5524015Y-26939571D01*
X5509730Y-26968143D01*
X5495444Y-26982429D01*
X5466872Y-26996714D01*
X5438301Y-26996714D01*
X5409730Y-26982429D01*
X5395444Y-26968143D01*
X5381158Y-26939571D01*
X5366872Y-26882429D01*
X5366872Y-26811000D01*
X5381158Y-26753857D01*
X5395444Y-26725286D01*
X5409730Y-26711000D01*
X5438301Y-26696714D01*
X5666872Y-26968143D02*
X5681158Y-26982429D01*
X5666872Y-26996714D01*
X5652587Y-26982429D01*
X5666872Y-26968143D01*
X5666872Y-26996714D01*
X5866872Y-26696714D02*
X5895444Y-26696714D01*
X5924015Y-26711000D01*
X5938301Y-26725286D01*
X5952587Y-26753857D01*
X5966872Y-26811000D01*
X5966872Y-26882429D01*
X5952587Y-26939571D01*
X5938301Y-26968143D01*
X5924015Y-26982429D01*
X5895444Y-26996714D01*
X5866872Y-26996714D01*
X5838301Y-26982429D01*
X5824015Y-26968143D01*
X5809729Y-26939571D01*
X5795444Y-26882429D01*
X5795444Y-26811000D01*
X5809729Y-26753857D01*
X5824015Y-26725286D01*
X5838301Y-26711000D01*
X5866872Y-26696714D01*
X6066872Y-26696714D02*
X6252587Y-26696714D01*
X6152587Y-26811000D01*
X6195444Y-26811000D01*
X6224015Y-26825286D01*
X6238301Y-26839571D01*
X6252587Y-26868143D01*
X6252587Y-26939571D01*
X6238301Y-26968143D01*
X6224015Y-26982429D01*
X6195444Y-26996714D01*
X6109729Y-26996714D01*
X6081158Y-26982429D01*
X6066872Y-26968143D01*
X6538301Y-26996714D02*
X6366872Y-26996714D01*
X6452587Y-26996714D02*
X6452587Y-26696714D01*
X6424015Y-26739571D01*
X6395444Y-26768143D01*
X6366872Y-26782429D01*
X6652587Y-26696714D02*
X6652587Y-26753857D01*
X6766872Y-26696714D02*
X6766872Y-26753857D01*
X7209729Y-27111000D02*
X7195444Y-27096714D01*
X7166872Y-27053857D01*
X7152587Y-27025286D01*
X7138301Y-26982429D01*
X7124015Y-26911000D01*
X7124015Y-26853857D01*
X7138301Y-26782429D01*
X7152587Y-26739571D01*
X7166872Y-26711000D01*
X7195444Y-26668143D01*
X7209729Y-26653857D01*
X7338301Y-26996714D02*
X7395444Y-26996714D01*
X7424015Y-26982429D01*
X7438301Y-26968143D01*
X7466872Y-26925286D01*
X7481158Y-26868143D01*
X7481158Y-26753857D01*
X7466872Y-26725286D01*
X7452587Y-26711000D01*
X7424015Y-26696714D01*
X7366872Y-26696714D01*
X7338301Y-26711000D01*
X7324015Y-26725286D01*
X7309729Y-26753857D01*
X7309729Y-26825286D01*
X7324015Y-26853857D01*
X7338301Y-26868143D01*
X7366872Y-26882429D01*
X7424015Y-26882429D01*
X7452587Y-26868143D01*
X7466872Y-26853857D01*
X7481158Y-26825286D01*
X7738301Y-26796714D02*
X7738301Y-26996714D01*
X7666872Y-26682429D02*
X7595444Y-26896714D01*
X7781158Y-26896714D01*
X8124015Y-26996714D02*
X8124015Y-26696714D01*
X8252587Y-26996714D02*
X8252587Y-26839571D01*
X8238301Y-26811000D01*
X8209729Y-26796714D01*
X8166872Y-26796714D01*
X8138301Y-26811000D01*
X8124015Y-26825286D01*
X8438301Y-26996714D02*
X8409730Y-26982429D01*
X8395444Y-26968143D01*
X8381158Y-26939571D01*
X8381158Y-26853857D01*
X8395444Y-26825286D01*
X8409730Y-26811000D01*
X8438301Y-26796714D01*
X8481158Y-26796714D01*
X8509730Y-26811000D01*
X8524015Y-26825286D01*
X8538301Y-26853857D01*
X8538301Y-26939571D01*
X8524015Y-26968143D01*
X8509730Y-26982429D01*
X8481158Y-26996714D01*
X8438301Y-26996714D01*
X8709730Y-26996714D02*
X8681158Y-26982429D01*
X8666872Y-26953857D01*
X8666872Y-26696714D01*
X8938301Y-26982429D02*
X8909730Y-26996714D01*
X8852587Y-26996714D01*
X8824015Y-26982429D01*
X8809730Y-26953857D01*
X8809730Y-26839571D01*
X8824015Y-26811000D01*
X8852587Y-26796714D01*
X8909730Y-26796714D01*
X8938301Y-26811000D01*
X8952587Y-26839571D01*
X8952587Y-26868143D01*
X8809730Y-26896714D01*
X9066872Y-26982429D02*
X9095444Y-26996714D01*
X9152587Y-26996714D01*
X9181158Y-26982429D01*
X9195444Y-26953857D01*
X9195444Y-26939571D01*
X9181158Y-26911000D01*
X9152587Y-26896714D01*
X9109730Y-26896714D01*
X9081158Y-26882429D01*
X9066872Y-26853857D01*
X9066872Y-26839571D01*
X9081158Y-26811000D01*
X9109730Y-26796714D01*
X9152587Y-26796714D01*
X9181158Y-26811000D01*
X9295444Y-27111000D02*
X9309730Y-27096714D01*
X9338301Y-27053857D01*
X9352587Y-27025286D01*
X9366872Y-26982429D01*
X9381158Y-26911000D01*
X9381158Y-26853857D01*
X9366872Y-26782429D01*
X9352587Y-26739571D01*
X9338301Y-26711000D01*
X9309730Y-26668143D01*
X9295444Y-26653857D01*
X2473301Y-27207000D02*
X2473301Y-27307000D01*
X2423301Y-27257000D02*
X2523301Y-27257000D01*
X2966872Y-27392714D02*
X2795444Y-27392714D01*
X2881158Y-27392714D02*
X2881158Y-27092714D01*
X2852587Y-27135571D01*
X2824015Y-27164143D01*
X2795444Y-27178429D01*
X3095444Y-27364143D02*
X3109729Y-27378429D01*
X3095444Y-27392714D01*
X3081158Y-27378429D01*
X3095444Y-27364143D01*
X3095444Y-27392714D01*
X3295444Y-27092714D02*
X3324015Y-27092714D01*
X3352587Y-27107000D01*
X3366872Y-27121286D01*
X3381158Y-27149857D01*
X3395444Y-27207000D01*
X3395444Y-27278429D01*
X3381158Y-27335571D01*
X3366872Y-27364143D01*
X3352587Y-27378429D01*
X3324015Y-27392714D01*
X3295444Y-27392714D01*
X3266872Y-27378429D01*
X3252587Y-27364143D01*
X3238301Y-27335571D01*
X3224015Y-27278429D01*
X3224015Y-27207000D01*
X3238301Y-27149857D01*
X3252587Y-27121286D01*
X3266872Y-27107000D01*
X3295444Y-27092714D01*
X3581158Y-27092714D02*
X3609729Y-27092714D01*
X3638301Y-27107000D01*
X3652587Y-27121286D01*
X3666872Y-27149857D01*
X3681158Y-27207000D01*
X3681158Y-27278429D01*
X3666872Y-27335571D01*
X3652587Y-27364143D01*
X3638301Y-27378429D01*
X3609729Y-27392714D01*
X3581158Y-27392714D01*
X3552587Y-27378429D01*
X3538301Y-27364143D01*
X3524015Y-27335571D01*
X3509729Y-27278429D01*
X3509729Y-27207000D01*
X3524015Y-27149857D01*
X3538301Y-27121286D01*
X3552587Y-27107000D01*
X3581158Y-27092714D01*
X3809729Y-27392714D02*
X3809729Y-27192714D01*
X3809729Y-27221286D02*
X3824015Y-27207000D01*
X3852587Y-27192714D01*
X3895444Y-27192714D01*
X3924015Y-27207000D01*
X3938301Y-27235571D01*
X3938301Y-27392714D01*
X3938301Y-27235571D02*
X3952587Y-27207000D01*
X3981158Y-27192714D01*
X4024015Y-27192714D01*
X4052587Y-27207000D01*
X4066872Y-27235571D01*
X4066872Y-27392714D01*
X4209730Y-27392714D02*
X4209730Y-27192714D01*
X4209730Y-27221286D02*
X4224015Y-27207000D01*
X4252587Y-27192714D01*
X4295444Y-27192714D01*
X4324015Y-27207000D01*
X4338301Y-27235571D01*
X4338301Y-27392714D01*
X4338301Y-27235571D02*
X4352587Y-27207000D01*
X4381158Y-27192714D01*
X4424015Y-27192714D01*
X4452587Y-27207000D01*
X4466872Y-27235571D01*
X4466872Y-27392714D01*
X5052587Y-27078429D02*
X4795444Y-27464143D01*
X5438301Y-27092714D02*
X5466872Y-27092714D01*
X5495444Y-27107000D01*
X5509730Y-27121286D01*
X5524015Y-27149857D01*
X5538301Y-27207000D01*
X5538301Y-27278429D01*
X5524015Y-27335571D01*
X5509730Y-27364143D01*
X5495444Y-27378429D01*
X5466872Y-27392714D01*
X5438301Y-27392714D01*
X5409730Y-27378429D01*
X5395444Y-27364143D01*
X5381158Y-27335571D01*
X5366872Y-27278429D01*
X5366872Y-27207000D01*
X5381158Y-27149857D01*
X5395444Y-27121286D01*
X5409730Y-27107000D01*
X5438301Y-27092714D01*
X5666872Y-27364143D02*
X5681158Y-27378429D01*
X5666872Y-27392714D01*
X5652587Y-27378429D01*
X5666872Y-27364143D01*
X5666872Y-27392714D01*
X5866872Y-27092714D02*
X5895444Y-27092714D01*
X5924015Y-27107000D01*
X5938301Y-27121286D01*
X5952587Y-27149857D01*
X5966872Y-27207000D01*
X5966872Y-27278429D01*
X5952587Y-27335571D01*
X5938301Y-27364143D01*
X5924015Y-27378429D01*
X5895444Y-27392714D01*
X5866872Y-27392714D01*
X5838301Y-27378429D01*
X5824015Y-27364143D01*
X5809729Y-27335571D01*
X5795444Y-27278429D01*
X5795444Y-27207000D01*
X5809729Y-27149857D01*
X5824015Y-27121286D01*
X5838301Y-27107000D01*
X5866872Y-27092714D01*
X6066872Y-27092714D02*
X6252587Y-27092714D01*
X6152587Y-27207000D01*
X6195444Y-27207000D01*
X6224015Y-27221286D01*
X6238301Y-27235571D01*
X6252587Y-27264143D01*
X6252587Y-27335571D01*
X6238301Y-27364143D01*
X6224015Y-27378429D01*
X6195444Y-27392714D01*
X6109729Y-27392714D01*
X6081158Y-27378429D01*
X6066872Y-27364143D01*
X6395444Y-27392714D02*
X6452587Y-27392714D01*
X6481158Y-27378429D01*
X6495444Y-27364143D01*
X6524015Y-27321286D01*
X6538301Y-27264143D01*
X6538301Y-27149857D01*
X6524015Y-27121286D01*
X6509729Y-27107000D01*
X6481158Y-27092714D01*
X6424015Y-27092714D01*
X6395444Y-27107000D01*
X6381158Y-27121286D01*
X6366872Y-27149857D01*
X6366872Y-27221286D01*
X6381158Y-27249857D01*
X6395444Y-27264143D01*
X6424015Y-27278429D01*
X6481158Y-27278429D01*
X6509729Y-27264143D01*
X6524015Y-27249857D01*
X6538301Y-27221286D01*
X6652587Y-27092714D02*
X6652587Y-27149857D01*
X6766872Y-27092714D02*
X6766872Y-27149857D01*
X7209729Y-27507000D02*
X7195444Y-27492714D01*
X7166872Y-27449857D01*
X7152587Y-27421286D01*
X7138301Y-27378429D01*
X7124015Y-27307000D01*
X7124015Y-27249857D01*
X7138301Y-27178429D01*
X7152587Y-27135571D01*
X7166872Y-27107000D01*
X7195444Y-27064143D01*
X7209729Y-27049857D01*
X7309729Y-27121286D02*
X7324015Y-27107000D01*
X7352587Y-27092714D01*
X7424015Y-27092714D01*
X7452587Y-27107000D01*
X7466872Y-27121286D01*
X7481158Y-27149857D01*
X7481158Y-27178429D01*
X7466872Y-27221286D01*
X7295444Y-27392714D01*
X7481158Y-27392714D01*
X7752587Y-27092714D02*
X7609729Y-27092714D01*
X7595444Y-27235571D01*
X7609729Y-27221286D01*
X7638301Y-27207000D01*
X7709729Y-27207000D01*
X7738301Y-27221286D01*
X7752587Y-27235571D01*
X7766872Y-27264143D01*
X7766872Y-27335571D01*
X7752587Y-27364143D01*
X7738301Y-27378429D01*
X7709729Y-27392714D01*
X7638301Y-27392714D01*
X7609729Y-27378429D01*
X7595444Y-27364143D01*
X8124015Y-27392714D02*
X8124015Y-27092714D01*
X8252587Y-27392714D02*
X8252587Y-27235571D01*
X8238301Y-27207000D01*
X8209729Y-27192714D01*
X8166872Y-27192714D01*
X8138301Y-27207000D01*
X8124015Y-27221286D01*
X8438301Y-27392714D02*
X8409730Y-27378429D01*
X8395444Y-27364143D01*
X8381158Y-27335571D01*
X8381158Y-27249857D01*
X8395444Y-27221286D01*
X8409730Y-27207000D01*
X8438301Y-27192714D01*
X8481158Y-27192714D01*
X8509730Y-27207000D01*
X8524015Y-27221286D01*
X8538301Y-27249857D01*
X8538301Y-27335571D01*
X8524015Y-27364143D01*
X8509730Y-27378429D01*
X8481158Y-27392714D01*
X8438301Y-27392714D01*
X8709730Y-27392714D02*
X8681158Y-27378429D01*
X8666872Y-27349857D01*
X8666872Y-27092714D01*
X8938301Y-27378429D02*
X8909730Y-27392714D01*
X8852587Y-27392714D01*
X8824015Y-27378429D01*
X8809730Y-27349857D01*
X8809730Y-27235571D01*
X8824015Y-27207000D01*
X8852587Y-27192714D01*
X8909730Y-27192714D01*
X8938301Y-27207000D01*
X8952587Y-27235571D01*
X8952587Y-27264143D01*
X8809730Y-27292714D01*
X9066872Y-27378429D02*
X9095444Y-27392714D01*
X9152587Y-27392714D01*
X9181158Y-27378429D01*
X9195444Y-27349857D01*
X9195444Y-27335571D01*
X9181158Y-27307000D01*
X9152587Y-27292714D01*
X9109730Y-27292714D01*
X9081158Y-27278429D01*
X9066872Y-27249857D01*
X9066872Y-27235571D01*
X9081158Y-27207000D01*
X9109730Y-27192714D01*
X9152587Y-27192714D01*
X9181158Y-27207000D01*
X9295444Y-27507000D02*
X9309730Y-27492714D01*
X9338301Y-27449857D01*
X9352587Y-27421286D01*
X9366872Y-27378429D01*
X9381158Y-27307000D01*
X9381158Y-27249857D01*
X9366872Y-27178429D01*
X9352587Y-27135571D01*
X9338301Y-27107000D01*
X9309730Y-27064143D01*
X9295444Y-27049857D01*
X2501335Y-27706034D02*
X2501335Y-27599967D01*
X2395268Y-27599967D01*
X2395268Y-27706034D01*
X2501335Y-27706034D01*
X2966872Y-27788714D02*
X2795444Y-27788714D01*
X2881158Y-27788714D02*
X2881158Y-27488714D01*
X2852587Y-27531571D01*
X2824015Y-27560143D01*
X2795444Y-27574429D01*
X3095444Y-27760143D02*
X3109729Y-27774429D01*
X3095444Y-27788714D01*
X3081158Y-27774429D01*
X3095444Y-27760143D01*
X3095444Y-27788714D01*
X3381158Y-27488714D02*
X3238301Y-27488714D01*
X3224015Y-27631571D01*
X3238301Y-27617286D01*
X3266872Y-27603000D01*
X3338301Y-27603000D01*
X3366872Y-27617286D01*
X3381158Y-27631571D01*
X3395444Y-27660143D01*
X3395444Y-27731571D01*
X3381158Y-27760143D01*
X3366872Y-27774429D01*
X3338301Y-27788714D01*
X3266872Y-27788714D01*
X3238301Y-27774429D01*
X3224015Y-27760143D01*
X3581158Y-27488714D02*
X3609729Y-27488714D01*
X3638301Y-27503000D01*
X3652587Y-27517286D01*
X3666872Y-27545857D01*
X3681158Y-27603000D01*
X3681158Y-27674429D01*
X3666872Y-27731571D01*
X3652587Y-27760143D01*
X3638301Y-27774429D01*
X3609729Y-27788714D01*
X3581158Y-27788714D01*
X3552587Y-27774429D01*
X3538301Y-27760143D01*
X3524015Y-27731571D01*
X3509729Y-27674429D01*
X3509729Y-27603000D01*
X3524015Y-27545857D01*
X3538301Y-27517286D01*
X3552587Y-27503000D01*
X3581158Y-27488714D01*
X3809729Y-27788714D02*
X3809729Y-27588714D01*
X3809729Y-27617286D02*
X3824015Y-27603000D01*
X3852587Y-27588714D01*
X3895444Y-27588714D01*
X3924015Y-27603000D01*
X3938301Y-27631571D01*
X3938301Y-27788714D01*
X3938301Y-27631571D02*
X3952587Y-27603000D01*
X3981158Y-27588714D01*
X4024015Y-27588714D01*
X4052587Y-27603000D01*
X4066872Y-27631571D01*
X4066872Y-27788714D01*
X4209730Y-27788714D02*
X4209730Y-27588714D01*
X4209730Y-27617286D02*
X4224015Y-27603000D01*
X4252587Y-27588714D01*
X4295444Y-27588714D01*
X4324015Y-27603000D01*
X4338301Y-27631571D01*
X4338301Y-27788714D01*
X4338301Y-27631571D02*
X4352587Y-27603000D01*
X4381158Y-27588714D01*
X4424015Y-27588714D01*
X4452587Y-27603000D01*
X4466872Y-27631571D01*
X4466872Y-27788714D01*
X5052587Y-27474429D02*
X4795444Y-27860143D01*
X5438301Y-27488714D02*
X5466872Y-27488714D01*
X5495444Y-27503000D01*
X5509730Y-27517286D01*
X5524015Y-27545857D01*
X5538301Y-27603000D01*
X5538301Y-27674429D01*
X5524015Y-27731571D01*
X5509730Y-27760143D01*
X5495444Y-27774429D01*
X5466872Y-27788714D01*
X5438301Y-27788714D01*
X5409730Y-27774429D01*
X5395444Y-27760143D01*
X5381158Y-27731571D01*
X5366872Y-27674429D01*
X5366872Y-27603000D01*
X5381158Y-27545857D01*
X5395444Y-27517286D01*
X5409730Y-27503000D01*
X5438301Y-27488714D01*
X5666872Y-27760143D02*
X5681158Y-27774429D01*
X5666872Y-27788714D01*
X5652587Y-27774429D01*
X5666872Y-27760143D01*
X5666872Y-27788714D01*
X5866872Y-27488714D02*
X5895444Y-27488714D01*
X5924015Y-27503000D01*
X5938301Y-27517286D01*
X5952587Y-27545857D01*
X5966872Y-27603000D01*
X5966872Y-27674429D01*
X5952587Y-27731571D01*
X5938301Y-27760143D01*
X5924015Y-27774429D01*
X5895444Y-27788714D01*
X5866872Y-27788714D01*
X5838301Y-27774429D01*
X5824015Y-27760143D01*
X5809729Y-27731571D01*
X5795444Y-27674429D01*
X5795444Y-27603000D01*
X5809729Y-27545857D01*
X5824015Y-27517286D01*
X5838301Y-27503000D01*
X5866872Y-27488714D01*
X6238301Y-27488714D02*
X6095444Y-27488714D01*
X6081158Y-27631571D01*
X6095444Y-27617286D01*
X6124015Y-27603000D01*
X6195444Y-27603000D01*
X6224015Y-27617286D01*
X6238301Y-27631571D01*
X6252587Y-27660143D01*
X6252587Y-27731571D01*
X6238301Y-27760143D01*
X6224015Y-27774429D01*
X6195444Y-27788714D01*
X6124015Y-27788714D01*
X6095444Y-27774429D01*
X6081158Y-27760143D01*
X6395444Y-27788714D02*
X6452587Y-27788714D01*
X6481158Y-27774429D01*
X6495444Y-27760143D01*
X6524015Y-27717286D01*
X6538301Y-27660143D01*
X6538301Y-27545857D01*
X6524015Y-27517286D01*
X6509729Y-27503000D01*
X6481158Y-27488714D01*
X6424015Y-27488714D01*
X6395444Y-27503000D01*
X6381158Y-27517286D01*
X6366872Y-27545857D01*
X6366872Y-27617286D01*
X6381158Y-27645857D01*
X6395444Y-27660143D01*
X6424015Y-27674429D01*
X6481158Y-27674429D01*
X6509729Y-27660143D01*
X6524015Y-27645857D01*
X6538301Y-27617286D01*
X6652587Y-27488714D02*
X6652587Y-27545857D01*
X6766872Y-27488714D02*
X6766872Y-27545857D01*
X7209729Y-27903000D02*
X7195444Y-27888714D01*
X7166872Y-27845857D01*
X7152587Y-27817286D01*
X7138301Y-27774429D01*
X7124015Y-27703000D01*
X7124015Y-27645857D01*
X7138301Y-27574429D01*
X7152587Y-27531571D01*
X7166872Y-27503000D01*
X7195444Y-27460143D01*
X7209729Y-27445857D01*
X7338301Y-27788714D02*
X7395444Y-27788714D01*
X7424015Y-27774429D01*
X7438301Y-27760143D01*
X7466872Y-27717286D01*
X7481158Y-27660143D01*
X7481158Y-27545857D01*
X7466872Y-27517286D01*
X7452587Y-27503000D01*
X7424015Y-27488714D01*
X7366872Y-27488714D01*
X7338301Y-27503000D01*
X7324015Y-27517286D01*
X7309729Y-27545857D01*
X7309729Y-27617286D01*
X7324015Y-27645857D01*
X7338301Y-27660143D01*
X7366872Y-27674429D01*
X7424015Y-27674429D01*
X7452587Y-27660143D01*
X7466872Y-27645857D01*
X7481158Y-27617286D01*
X7738301Y-27588714D02*
X7738301Y-27788714D01*
X7666872Y-27474429D02*
X7595444Y-27688714D01*
X7781158Y-27688714D01*
X8124015Y-27788714D02*
X8124015Y-27488714D01*
X8252587Y-27788714D02*
X8252587Y-27631571D01*
X8238301Y-27603000D01*
X8209729Y-27588714D01*
X8166872Y-27588714D01*
X8138301Y-27603000D01*
X8124015Y-27617286D01*
X8438301Y-27788714D02*
X8409730Y-27774429D01*
X8395444Y-27760143D01*
X8381158Y-27731571D01*
X8381158Y-27645857D01*
X8395444Y-27617286D01*
X8409730Y-27603000D01*
X8438301Y-27588714D01*
X8481158Y-27588714D01*
X8509730Y-27603000D01*
X8524015Y-27617286D01*
X8538301Y-27645857D01*
X8538301Y-27731571D01*
X8524015Y-27760143D01*
X8509730Y-27774429D01*
X8481158Y-27788714D01*
X8438301Y-27788714D01*
X8709730Y-27788714D02*
X8681158Y-27774429D01*
X8666872Y-27745857D01*
X8666872Y-27488714D01*
X8938301Y-27774429D02*
X8909730Y-27788714D01*
X8852587Y-27788714D01*
X8824015Y-27774429D01*
X8809730Y-27745857D01*
X8809730Y-27631571D01*
X8824015Y-27603000D01*
X8852587Y-27588714D01*
X8909730Y-27588714D01*
X8938301Y-27603000D01*
X8952587Y-27631571D01*
X8952587Y-27660143D01*
X8809730Y-27688714D01*
X9066872Y-27774429D02*
X9095444Y-27788714D01*
X9152587Y-27788714D01*
X9181158Y-27774429D01*
X9195444Y-27745857D01*
X9195444Y-27731571D01*
X9181158Y-27703000D01*
X9152587Y-27688714D01*
X9109730Y-27688714D01*
X9081158Y-27674429D01*
X9066872Y-27645857D01*
X9066872Y-27631571D01*
X9081158Y-27603000D01*
X9109730Y-27588714D01*
X9152587Y-27588714D01*
X9181158Y-27603000D01*
X9295444Y-27903000D02*
X9309730Y-27888714D01*
X9338301Y-27845857D01*
X9352587Y-27817286D01*
X9366872Y-27774429D01*
X9381158Y-27703000D01*
X9381158Y-27645857D01*
X9366872Y-27574429D01*
X9352587Y-27531571D01*
X9338301Y-27503000D01*
X9309730Y-27460143D01*
X9295444Y-27445857D01*
X2363301Y-28209000D02*
X2523301Y-28049000D01*
X2363301Y-27889000D01*
X2203301Y-28049000D01*
X2363301Y-28209000D01*
X2781158Y-27884714D02*
X2966872Y-27884714D01*
X2866872Y-27999000D01*
X2909729Y-27999000D01*
X2938301Y-28013286D01*
X2952587Y-28027571D01*
X2966872Y-28056143D01*
X2966872Y-28127571D01*
X2952587Y-28156143D01*
X2938301Y-28170429D01*
X2909729Y-28184714D01*
X2824015Y-28184714D01*
X2795444Y-28170429D01*
X2781158Y-28156143D01*
X3095444Y-28156143D02*
X3109729Y-28170429D01*
X3095444Y-28184714D01*
X3081158Y-28170429D01*
X3095444Y-28156143D01*
X3095444Y-28184714D01*
X3224015Y-27913286D02*
X3238301Y-27899000D01*
X3266872Y-27884714D01*
X3338301Y-27884714D01*
X3366872Y-27899000D01*
X3381158Y-27913286D01*
X3395444Y-27941857D01*
X3395444Y-27970429D01*
X3381158Y-28013286D01*
X3209729Y-28184714D01*
X3395444Y-28184714D01*
X3581158Y-27884714D02*
X3609729Y-27884714D01*
X3638301Y-27899000D01*
X3652587Y-27913286D01*
X3666872Y-27941857D01*
X3681158Y-27999000D01*
X3681158Y-28070429D01*
X3666872Y-28127571D01*
X3652587Y-28156143D01*
X3638301Y-28170429D01*
X3609729Y-28184714D01*
X3581158Y-28184714D01*
X3552587Y-28170429D01*
X3538301Y-28156143D01*
X3524015Y-28127571D01*
X3509729Y-28070429D01*
X3509729Y-27999000D01*
X3524015Y-27941857D01*
X3538301Y-27913286D01*
X3552587Y-27899000D01*
X3581158Y-27884714D01*
X3809729Y-28184714D02*
X3809729Y-27984714D01*
X3809729Y-28013286D02*
X3824015Y-27999000D01*
X3852587Y-27984714D01*
X3895444Y-27984714D01*
X3924015Y-27999000D01*
X3938301Y-28027571D01*
X3938301Y-28184714D01*
X3938301Y-28027571D02*
X3952587Y-27999000D01*
X3981158Y-27984714D01*
X4024015Y-27984714D01*
X4052587Y-27999000D01*
X4066872Y-28027571D01*
X4066872Y-28184714D01*
X4209730Y-28184714D02*
X4209730Y-27984714D01*
X4209730Y-28013286D02*
X4224015Y-27999000D01*
X4252587Y-27984714D01*
X4295444Y-27984714D01*
X4324015Y-27999000D01*
X4338301Y-28027571D01*
X4338301Y-28184714D01*
X4338301Y-28027571D02*
X4352587Y-27999000D01*
X4381158Y-27984714D01*
X4424015Y-27984714D01*
X4452587Y-27999000D01*
X4466872Y-28027571D01*
X4466872Y-28184714D01*
X5052587Y-27870429D02*
X4795444Y-28256143D01*
X5438301Y-27884714D02*
X5466872Y-27884714D01*
X5495444Y-27899000D01*
X5509730Y-27913286D01*
X5524015Y-27941857D01*
X5538301Y-27999000D01*
X5538301Y-28070429D01*
X5524015Y-28127571D01*
X5509730Y-28156143D01*
X5495444Y-28170429D01*
X5466872Y-28184714D01*
X5438301Y-28184714D01*
X5409730Y-28170429D01*
X5395444Y-28156143D01*
X5381158Y-28127571D01*
X5366872Y-28070429D01*
X5366872Y-27999000D01*
X5381158Y-27941857D01*
X5395444Y-27913286D01*
X5409730Y-27899000D01*
X5438301Y-27884714D01*
X5666872Y-28156143D02*
X5681158Y-28170429D01*
X5666872Y-28184714D01*
X5652587Y-28170429D01*
X5666872Y-28156143D01*
X5666872Y-28184714D01*
X5966872Y-28184714D02*
X5795444Y-28184714D01*
X5881158Y-28184714D02*
X5881158Y-27884714D01*
X5852587Y-27927571D01*
X5824015Y-27956143D01*
X5795444Y-27970429D01*
X6081158Y-27913286D02*
X6095444Y-27899000D01*
X6124015Y-27884714D01*
X6195444Y-27884714D01*
X6224015Y-27899000D01*
X6238301Y-27913286D01*
X6252587Y-27941857D01*
X6252587Y-27970429D01*
X6238301Y-28013286D01*
X6066872Y-28184714D01*
X6252587Y-28184714D01*
X6509729Y-27884714D02*
X6452587Y-27884714D01*
X6424015Y-27899000D01*
X6409729Y-27913286D01*
X6381158Y-27956143D01*
X6366872Y-28013286D01*
X6366872Y-28127571D01*
X6381158Y-28156143D01*
X6395444Y-28170429D01*
X6424015Y-28184714D01*
X6481158Y-28184714D01*
X6509729Y-28170429D01*
X6524015Y-28156143D01*
X6538301Y-28127571D01*
X6538301Y-28056143D01*
X6524015Y-28027571D01*
X6509729Y-28013286D01*
X6481158Y-27999000D01*
X6424015Y-27999000D01*
X6395444Y-28013286D01*
X6381158Y-28027571D01*
X6366872Y-28056143D01*
X6652587Y-27884714D02*
X6652587Y-27941857D01*
X6766872Y-27884714D02*
X6766872Y-27941857D01*
X7209729Y-28299000D02*
X7195444Y-28284714D01*
X7166872Y-28241857D01*
X7152587Y-28213286D01*
X7138301Y-28170429D01*
X7124015Y-28099000D01*
X7124015Y-28041857D01*
X7138301Y-27970429D01*
X7152587Y-27927571D01*
X7166872Y-27899000D01*
X7195444Y-27856143D01*
X7209729Y-27841857D01*
X7309729Y-27913286D02*
X7324015Y-27899000D01*
X7352587Y-27884714D01*
X7424015Y-27884714D01*
X7452587Y-27899000D01*
X7466872Y-27913286D01*
X7481158Y-27941857D01*
X7481158Y-27970429D01*
X7466872Y-28013286D01*
X7295444Y-28184714D01*
X7481158Y-28184714D01*
X7838301Y-28184714D02*
X7838301Y-27884714D01*
X7966872Y-28184714D02*
X7966872Y-28027571D01*
X7952587Y-27999000D01*
X7924015Y-27984714D01*
X7881158Y-27984714D01*
X7852587Y-27999000D01*
X7838301Y-28013286D01*
X8152587Y-28184714D02*
X8124015Y-28170429D01*
X8109729Y-28156143D01*
X8095444Y-28127571D01*
X8095444Y-28041857D01*
X8109729Y-28013286D01*
X8124015Y-27999000D01*
X8152587Y-27984714D01*
X8195444Y-27984714D01*
X8224015Y-27999000D01*
X8238301Y-28013286D01*
X8252587Y-28041857D01*
X8252587Y-28127571D01*
X8238301Y-28156143D01*
X8224015Y-28170429D01*
X8195444Y-28184714D01*
X8152587Y-28184714D01*
X8424015Y-28184714D02*
X8395444Y-28170429D01*
X8381158Y-28141857D01*
X8381158Y-27884714D01*
X8652587Y-28170429D02*
X8624015Y-28184714D01*
X8566872Y-28184714D01*
X8538301Y-28170429D01*
X8524015Y-28141857D01*
X8524015Y-28027571D01*
X8538301Y-27999000D01*
X8566872Y-27984714D01*
X8624015Y-27984714D01*
X8652587Y-27999000D01*
X8666872Y-28027571D01*
X8666872Y-28056143D01*
X8524015Y-28084714D01*
X8781158Y-28170429D02*
X8809730Y-28184714D01*
X8866872Y-28184714D01*
X8895444Y-28170429D01*
X8909730Y-28141857D01*
X8909730Y-28127571D01*
X8895444Y-28099000D01*
X8866872Y-28084714D01*
X8824015Y-28084714D01*
X8795444Y-28070429D01*
X8781158Y-28041857D01*
X8781158Y-28027571D01*
X8795444Y-27999000D01*
X8824015Y-27984714D01*
X8866872Y-27984714D01*
X8895444Y-27999000D01*
X9009730Y-28299000D02*
X9024015Y-28284714D01*
X9052587Y-28241857D01*
X9066872Y-28213286D01*
X9081158Y-28170429D01*
X9095444Y-28099000D01*
X9095444Y-28041857D01*
X9081158Y-27970429D01*
X9066872Y-27927571D01*
X9052587Y-27899000D01*
X9024015Y-27856143D01*
X9009730Y-27841857D01*
X2093301Y-28284000D02*
X2523301Y-28714000D01*
X2523301Y-28284000D02*
X2093301Y-28714000D01*
X2523301Y-28499000D02*
G75*
G03*
X2523301Y-28499000I-215000J0D01*
G01*
X2938301Y-28434714D02*
X2938301Y-28634714D01*
X2866872Y-28320429D02*
X2795444Y-28534714D01*
X2981158Y-28534714D01*
X3095444Y-28606143D02*
X3109729Y-28620429D01*
X3095444Y-28634714D01*
X3081158Y-28620429D01*
X3095444Y-28606143D01*
X3095444Y-28634714D01*
X3209729Y-28334714D02*
X3395444Y-28334714D01*
X3295444Y-28449000D01*
X3338301Y-28449000D01*
X3366872Y-28463286D01*
X3381158Y-28477571D01*
X3395444Y-28506143D01*
X3395444Y-28577571D01*
X3381158Y-28606143D01*
X3366872Y-28620429D01*
X3338301Y-28634714D01*
X3252587Y-28634714D01*
X3224015Y-28620429D01*
X3209729Y-28606143D01*
X3581158Y-28334714D02*
X3609729Y-28334714D01*
X3638301Y-28349000D01*
X3652587Y-28363286D01*
X3666872Y-28391857D01*
X3681158Y-28449000D01*
X3681158Y-28520429D01*
X3666872Y-28577571D01*
X3652587Y-28606143D01*
X3638301Y-28620429D01*
X3609729Y-28634714D01*
X3581158Y-28634714D01*
X3552587Y-28620429D01*
X3538301Y-28606143D01*
X3524015Y-28577571D01*
X3509729Y-28520429D01*
X3509729Y-28449000D01*
X3524015Y-28391857D01*
X3538301Y-28363286D01*
X3552587Y-28349000D01*
X3581158Y-28334714D01*
X3809729Y-28634714D02*
X3809729Y-28434714D01*
X3809729Y-28463286D02*
X3824015Y-28449000D01*
X3852587Y-28434714D01*
X3895444Y-28434714D01*
X3924015Y-28449000D01*
X3938301Y-28477571D01*
X3938301Y-28634714D01*
X3938301Y-28477571D02*
X3952587Y-28449000D01*
X3981158Y-28434714D01*
X4024015Y-28434714D01*
X4052587Y-28449000D01*
X4066872Y-28477571D01*
X4066872Y-28634714D01*
X4209730Y-28634714D02*
X4209730Y-28434714D01*
X4209730Y-28463286D02*
X4224015Y-28449000D01*
X4252587Y-28434714D01*
X4295444Y-28434714D01*
X4324015Y-28449000D01*
X4338301Y-28477571D01*
X4338301Y-28634714D01*
X4338301Y-28477571D02*
X4352587Y-28449000D01*
X4381158Y-28434714D01*
X4424015Y-28434714D01*
X4452587Y-28449000D01*
X4466872Y-28477571D01*
X4466872Y-28634714D01*
X5052587Y-28320429D02*
X4795444Y-28706143D01*
X5438301Y-28334714D02*
X5466872Y-28334714D01*
X5495444Y-28349000D01*
X5509730Y-28363286D01*
X5524015Y-28391857D01*
X5538301Y-28449000D01*
X5538301Y-28520429D01*
X5524015Y-28577571D01*
X5509730Y-28606143D01*
X5495444Y-28620429D01*
X5466872Y-28634714D01*
X5438301Y-28634714D01*
X5409730Y-28620429D01*
X5395444Y-28606143D01*
X5381158Y-28577571D01*
X5366872Y-28520429D01*
X5366872Y-28449000D01*
X5381158Y-28391857D01*
X5395444Y-28363286D01*
X5409730Y-28349000D01*
X5438301Y-28334714D01*
X5666872Y-28606143D02*
X5681158Y-28620429D01*
X5666872Y-28634714D01*
X5652587Y-28620429D01*
X5666872Y-28606143D01*
X5666872Y-28634714D01*
X5966872Y-28634714D02*
X5795444Y-28634714D01*
X5881158Y-28634714D02*
X5881158Y-28334714D01*
X5852587Y-28377571D01*
X5824015Y-28406143D01*
X5795444Y-28420429D01*
X6224015Y-28334714D02*
X6166872Y-28334714D01*
X6138301Y-28349000D01*
X6124015Y-28363286D01*
X6095444Y-28406143D01*
X6081158Y-28463286D01*
X6081158Y-28577571D01*
X6095444Y-28606143D01*
X6109729Y-28620429D01*
X6138301Y-28634714D01*
X6195444Y-28634714D01*
X6224015Y-28620429D01*
X6238301Y-28606143D01*
X6252587Y-28577571D01*
X6252587Y-28506143D01*
X6238301Y-28477571D01*
X6224015Y-28463286D01*
X6195444Y-28449000D01*
X6138301Y-28449000D01*
X6109729Y-28463286D01*
X6095444Y-28477571D01*
X6081158Y-28506143D01*
X6395444Y-28634714D02*
X6452587Y-28634714D01*
X6481158Y-28620429D01*
X6495444Y-28606143D01*
X6524015Y-28563286D01*
X6538301Y-28506143D01*
X6538301Y-28391857D01*
X6524015Y-28363286D01*
X6509729Y-28349000D01*
X6481158Y-28334714D01*
X6424015Y-28334714D01*
X6395444Y-28349000D01*
X6381158Y-28363286D01*
X6366872Y-28391857D01*
X6366872Y-28463286D01*
X6381158Y-28491857D01*
X6395444Y-28506143D01*
X6424015Y-28520429D01*
X6481158Y-28520429D01*
X6509729Y-28506143D01*
X6524015Y-28491857D01*
X6538301Y-28463286D01*
X6652587Y-28334714D02*
X6652587Y-28391857D01*
X6766872Y-28334714D02*
X6766872Y-28391857D01*
X7209729Y-28749000D02*
X7195444Y-28734714D01*
X7166872Y-28691857D01*
X7152587Y-28663286D01*
X7138301Y-28620429D01*
X7124015Y-28549000D01*
X7124015Y-28491857D01*
X7138301Y-28420429D01*
X7152587Y-28377571D01*
X7166872Y-28349000D01*
X7195444Y-28306143D01*
X7209729Y-28291857D01*
X7366872Y-28463286D02*
X7338301Y-28449000D01*
X7324015Y-28434714D01*
X7309729Y-28406143D01*
X7309729Y-28391857D01*
X7324015Y-28363286D01*
X7338301Y-28349000D01*
X7366872Y-28334714D01*
X7424015Y-28334714D01*
X7452587Y-28349000D01*
X7466872Y-28363286D01*
X7481158Y-28391857D01*
X7481158Y-28406143D01*
X7466872Y-28434714D01*
X7452587Y-28449000D01*
X7424015Y-28463286D01*
X7366872Y-28463286D01*
X7338301Y-28477571D01*
X7324015Y-28491857D01*
X7309729Y-28520429D01*
X7309729Y-28577571D01*
X7324015Y-28606143D01*
X7338301Y-28620429D01*
X7366872Y-28634714D01*
X7424015Y-28634714D01*
X7452587Y-28620429D01*
X7466872Y-28606143D01*
X7481158Y-28577571D01*
X7481158Y-28520429D01*
X7466872Y-28491857D01*
X7452587Y-28477571D01*
X7424015Y-28463286D01*
X7838301Y-28634714D02*
X7838301Y-28334714D01*
X7966872Y-28634714D02*
X7966872Y-28477571D01*
X7952587Y-28449000D01*
X7924015Y-28434714D01*
X7881158Y-28434714D01*
X7852587Y-28449000D01*
X7838301Y-28463286D01*
X8152587Y-28634714D02*
X8124015Y-28620429D01*
X8109729Y-28606143D01*
X8095444Y-28577571D01*
X8095444Y-28491857D01*
X8109729Y-28463286D01*
X8124015Y-28449000D01*
X8152587Y-28434714D01*
X8195444Y-28434714D01*
X8224015Y-28449000D01*
X8238301Y-28463286D01*
X8252587Y-28491857D01*
X8252587Y-28577571D01*
X8238301Y-28606143D01*
X8224015Y-28620429D01*
X8195444Y-28634714D01*
X8152587Y-28634714D01*
X8424015Y-28634714D02*
X8395444Y-28620429D01*
X8381158Y-28591857D01*
X8381158Y-28334714D01*
X8652587Y-28620429D02*
X8624015Y-28634714D01*
X8566872Y-28634714D01*
X8538301Y-28620429D01*
X8524015Y-28591857D01*
X8524015Y-28477571D01*
X8538301Y-28449000D01*
X8566872Y-28434714D01*
X8624015Y-28434714D01*
X8652587Y-28449000D01*
X8666872Y-28477571D01*
X8666872Y-28506143D01*
X8524015Y-28534714D01*
X8781158Y-28620429D02*
X8809730Y-28634714D01*
X8866872Y-28634714D01*
X8895444Y-28620429D01*
X8909730Y-28591857D01*
X8909730Y-28577571D01*
X8895444Y-28549000D01*
X8866872Y-28534714D01*
X8824015Y-28534714D01*
X8795444Y-28520429D01*
X8781158Y-28491857D01*
X8781158Y-28477571D01*
X8795444Y-28449000D01*
X8824015Y-28434714D01*
X8866872Y-28434714D01*
X8895444Y-28449000D01*
X9009730Y-28749000D02*
X9024015Y-28734714D01*
X9052587Y-28691857D01*
X9066872Y-28663286D01*
X9081158Y-28620429D01*
X9095444Y-28549000D01*
X9095444Y-28491857D01*
X9081158Y-28420429D01*
X9066872Y-28377571D01*
X9052587Y-28349000D01*
X9024015Y-28306143D01*
X9009730Y-28291857D01*
M02*
