%FSLAX45Y45*%
G04 Gerber Fmt 4.5, Leading zero omitted, Abs format (unit mm)*
G04 Created by KiCad (PCBNEW 5.1.6-c6e7f7d~87~ubuntu20.04.1) date 2020-09-08 11:45:37*
%MOMM*%
%LPD*%
G01*
G04 APERTURE LIST*
%TA.AperFunction,Profile*%
%ADD10C,0.100000*%
%TD*%
%ADD11C,0.200000*%
%ADD12C,0.300000*%
G04 APERTURE END LIST*
D10*
X25050000Y-25050000D02*
X25080000Y-2840000D01*
X25050000Y-25050000D02*
G75*
G02*
X24600000Y-25500000I-450000J0D01*
G01*
X3050000Y-25500000D02*
X24600000Y-25500000D01*
X3050000Y-25500000D02*
G75*
G02*
X2550000Y-25000000I50000J550000D01*
G01*
X2528301Y-2850000D02*
X2550000Y-25000000D01*
X2528301Y-2850000D02*
G75*
G02*
X3040000Y-2380000I471699J0D01*
G01*
X24600000Y-2379584D02*
X3040000Y-2380000D01*
X24600000Y-2379584D02*
G75*
G02*
X25080000Y-2840000I0J-480416D01*
G01*
D11*
X21547000Y-4743000D02*
X21717000Y-4913000D01*
X21717000Y-4743000D02*
X21547000Y-4913000D01*
X22563000Y-4743000D02*
X22733000Y-4913000D01*
X22733000Y-4743000D02*
X22563000Y-4913000D01*
X18693000Y-17383000D02*
X18863000Y-17553000D01*
X18863000Y-17383000D02*
X18693000Y-17553000D01*
X19709000Y-17383000D02*
X19879000Y-17553000D01*
X19879000Y-17383000D02*
X19709000Y-17553000D01*
X16313000Y-12143000D02*
X16483000Y-12313000D01*
X16483000Y-12143000D02*
X16313000Y-12313000D01*
X17329000Y-12143000D02*
X17499000Y-12313000D01*
X17499000Y-12143000D02*
X17329000Y-12313000D01*
X4393000Y-4743000D02*
X4563000Y-4913000D01*
X4563000Y-4743000D02*
X4393000Y-4913000D01*
X5409000Y-4743000D02*
X5579000Y-4913000D01*
X5579000Y-4743000D02*
X5409000Y-4913000D01*
X13913000Y-9503000D02*
X14083000Y-9673000D01*
X14083000Y-9503000D02*
X13913000Y-9673000D01*
X14929000Y-9503000D02*
X15099000Y-9673000D01*
X15099000Y-9503000D02*
X14929000Y-9673000D01*
X18693000Y-4743000D02*
X18863000Y-4913000D01*
X18863000Y-4743000D02*
X18693000Y-4913000D01*
X19709000Y-4743000D02*
X19879000Y-4913000D01*
X19879000Y-4743000D02*
X19709000Y-4913000D01*
X11553000Y-12143000D02*
X11723000Y-12313000D01*
X11723000Y-12143000D02*
X11553000Y-12313000D01*
X12569000Y-12143000D02*
X12739000Y-12313000D01*
X12739000Y-12143000D02*
X12569000Y-12313000D01*
X9173000Y-7603000D02*
X9343000Y-7773000D01*
X9343000Y-7603000D02*
X9173000Y-7773000D01*
X10189000Y-7603000D02*
X10359000Y-7773000D01*
X10359000Y-7603000D02*
X10189000Y-7773000D01*
X7155059Y-21669041D02*
X7325059Y-21839041D01*
X7325059Y-21669041D02*
X7155059Y-21839041D01*
X8034940Y-21161041D02*
X8204940Y-21331041D01*
X8204940Y-21161041D02*
X8034940Y-21331041D01*
X10113000Y-4743000D02*
X10283000Y-4913000D01*
X10283000Y-4743000D02*
X10113000Y-4913000D01*
X11129000Y-4743000D02*
X11299000Y-4913000D01*
X11299000Y-4743000D02*
X11129000Y-4913000D01*
X11553000Y-16903000D02*
X11723000Y-17073000D01*
X11723000Y-16903000D02*
X11553000Y-17073000D01*
X12569000Y-16903000D02*
X12739000Y-17073000D01*
X12739000Y-16903000D02*
X12569000Y-17073000D01*
X21547000Y-7855000D02*
X21717000Y-8025000D01*
X21717000Y-7855000D02*
X21547000Y-8025000D01*
X22563000Y-7855000D02*
X22733000Y-8025000D01*
X22733000Y-7855000D02*
X22563000Y-8025000D01*
X21073000Y-17383000D02*
X21243000Y-17553000D01*
X21243000Y-17383000D02*
X21073000Y-17553000D01*
X22089000Y-17383000D02*
X22259000Y-17553000D01*
X22259000Y-17383000D02*
X22089000Y-17553000D01*
X18693000Y-7843000D02*
X18863000Y-8013000D01*
X18863000Y-7843000D02*
X18693000Y-8013000D01*
X19709000Y-7843000D02*
X19879000Y-8013000D01*
X19879000Y-7843000D02*
X19709000Y-8013000D01*
X4407000Y-7595000D02*
X4577000Y-7765000D01*
X4577000Y-7595000D02*
X4407000Y-7765000D01*
X5423000Y-7595000D02*
X5593000Y-7765000D01*
X5593000Y-7595000D02*
X5423000Y-7765000D01*
X18693000Y-12623000D02*
X18863000Y-12793000D01*
X18863000Y-12623000D02*
X18693000Y-12793000D01*
X19709000Y-12623000D02*
X19879000Y-12793000D01*
X19879000Y-12623000D02*
X19709000Y-12793000D01*
X16313000Y-14523000D02*
X16483000Y-14693000D01*
X16483000Y-14523000D02*
X16313000Y-14693000D01*
X17329000Y-14523000D02*
X17499000Y-14693000D01*
X17499000Y-14523000D02*
X17329000Y-14693000D01*
X13933000Y-7123000D02*
X14103000Y-7293000D01*
X14103000Y-7123000D02*
X13933000Y-7293000D01*
X14949000Y-7123000D02*
X15119000Y-7293000D01*
X15119000Y-7123000D02*
X14949000Y-7293000D01*
X5975059Y-19609041D02*
X6145059Y-19779041D01*
X6145059Y-19609041D02*
X5975059Y-19779041D01*
X6854940Y-19101041D02*
X7024940Y-19271041D01*
X7024940Y-19101041D02*
X6854940Y-19271041D01*
X9173000Y-12383000D02*
X9343000Y-12553000D01*
X9343000Y-12383000D02*
X9173000Y-12553000D01*
X10189000Y-12383000D02*
X10359000Y-12553000D01*
X10359000Y-12383000D02*
X10189000Y-12553000D01*
X6793000Y-12363000D02*
X6963000Y-12533000D01*
X6963000Y-12363000D02*
X6793000Y-12533000D01*
X7809000Y-12363000D02*
X7979000Y-12533000D01*
X7979000Y-12363000D02*
X7809000Y-12533000D01*
X11553000Y-14523000D02*
X11723000Y-14693000D01*
X11723000Y-14523000D02*
X11553000Y-14693000D01*
X12569000Y-14523000D02*
X12739000Y-14693000D01*
X12739000Y-14523000D02*
X12569000Y-14693000D01*
X18693000Y-15003000D02*
X18863000Y-15173000D01*
X18863000Y-15003000D02*
X18693000Y-15173000D01*
X19709000Y-15003000D02*
X19879000Y-15173000D01*
X19879000Y-15003000D02*
X19709000Y-15173000D01*
X6793000Y-14743000D02*
X6963000Y-14913000D01*
X6963000Y-14743000D02*
X6793000Y-14913000D01*
X7809000Y-14743000D02*
X7979000Y-14913000D01*
X7979000Y-14743000D02*
X7809000Y-14913000D01*
X13933000Y-16663000D02*
X14103000Y-16833000D01*
X14103000Y-16663000D02*
X13933000Y-16833000D01*
X14949000Y-16663000D02*
X15119000Y-16833000D01*
X15119000Y-16663000D02*
X14949000Y-16833000D01*
X21547000Y-10235000D02*
X21717000Y-10405000D01*
X21717000Y-10235000D02*
X21547000Y-10405000D01*
X22563000Y-10235000D02*
X22733000Y-10405000D01*
X22733000Y-10235000D02*
X22563000Y-10405000D01*
X16313000Y-9763000D02*
X16483000Y-9933000D01*
X16483000Y-9763000D02*
X16313000Y-9933000D01*
X17329000Y-9763000D02*
X17499000Y-9933000D01*
X17499000Y-9763000D02*
X17329000Y-9933000D01*
X12973000Y-4743000D02*
X13143000Y-4913000D01*
X13143000Y-4743000D02*
X12973000Y-4913000D01*
X13989000Y-4743000D02*
X14159000Y-4913000D01*
X14159000Y-4743000D02*
X13989000Y-4913000D01*
X21553000Y-12623000D02*
X21723000Y-12793000D01*
X21723000Y-12623000D02*
X21553000Y-12793000D01*
X22569000Y-12623000D02*
X22739000Y-12793000D01*
X22739000Y-12623000D02*
X22569000Y-12793000D01*
X5095059Y-22869041D02*
X5265059Y-23039041D01*
X5265059Y-22869041D02*
X5095059Y-23039041D01*
X5974940Y-22361041D02*
X6144940Y-22531041D01*
X6144940Y-22361041D02*
X5974940Y-22531041D01*
X6793000Y-9983000D02*
X6963000Y-10153000D01*
X6963000Y-9983000D02*
X6793000Y-10153000D01*
X7809000Y-9983000D02*
X7979000Y-10153000D01*
X7979000Y-9983000D02*
X7809000Y-10153000D01*
X13933000Y-11903000D02*
X14103000Y-12073000D01*
X14103000Y-11903000D02*
X13933000Y-12073000D01*
X14949000Y-11903000D02*
X15119000Y-12073000D01*
X15119000Y-11903000D02*
X14949000Y-12073000D01*
X9153000Y-14743000D02*
X9323000Y-14913000D01*
X9323000Y-14743000D02*
X9153000Y-14913000D01*
X10169000Y-14743000D02*
X10339000Y-14913000D01*
X10339000Y-14743000D02*
X10169000Y-14913000D01*
X11553000Y-9763000D02*
X11723000Y-9933000D01*
X11723000Y-9763000D02*
X11553000Y-9933000D01*
X12569000Y-9763000D02*
X12739000Y-9933000D01*
X12739000Y-9763000D02*
X12569000Y-9933000D01*
X21553000Y-15003000D02*
X21723000Y-15173000D01*
X21723000Y-15003000D02*
X21553000Y-15173000D01*
X22569000Y-15003000D02*
X22739000Y-15173000D01*
X22739000Y-15003000D02*
X22569000Y-15173000D01*
X16313000Y-16903000D02*
X16483000Y-17073000D01*
X16483000Y-16903000D02*
X16313000Y-17073000D01*
X17329000Y-16903000D02*
X17499000Y-17073000D01*
X17499000Y-16903000D02*
X17329000Y-17073000D01*
X16313000Y-7383000D02*
X16483000Y-7553000D01*
X16483000Y-7383000D02*
X16313000Y-7553000D01*
X17329000Y-7383000D02*
X17499000Y-7553000D01*
X17499000Y-7383000D02*
X17329000Y-7553000D01*
X18693000Y-10243000D02*
X18863000Y-10413000D01*
X18863000Y-10243000D02*
X18693000Y-10413000D01*
X19709000Y-10243000D02*
X19879000Y-10413000D01*
X19879000Y-10243000D02*
X19709000Y-10413000D01*
X4903000Y-13761000D02*
X5073000Y-13931000D01*
X5073000Y-13761000D02*
X4903000Y-13931000D01*
X4903000Y-14777000D02*
X5073000Y-14947000D01*
X5073000Y-14777000D02*
X4903000Y-14947000D01*
X6793000Y-7603000D02*
X6963000Y-7773000D01*
X6963000Y-7603000D02*
X6793000Y-7773000D01*
X7809000Y-7603000D02*
X7979000Y-7773000D01*
X7979000Y-7603000D02*
X7809000Y-7773000D01*
X13933000Y-14263000D02*
X14103000Y-14433000D01*
X14103000Y-14263000D02*
X13933000Y-14433000D01*
X14949000Y-14263000D02*
X15119000Y-14433000D01*
X15119000Y-14263000D02*
X14949000Y-14433000D01*
X15833000Y-4743000D02*
X16003000Y-4913000D01*
X16003000Y-4743000D02*
X15833000Y-4913000D01*
X16849000Y-4743000D02*
X17019000Y-4913000D01*
X17019000Y-4743000D02*
X16849000Y-4913000D01*
X9173000Y-9983000D02*
X9343000Y-10153000D01*
X9343000Y-9983000D02*
X9173000Y-10153000D01*
X10189000Y-9983000D02*
X10359000Y-10153000D01*
X10359000Y-9983000D02*
X10189000Y-10153000D01*
X9215059Y-20469041D02*
X9385059Y-20639041D01*
X9385059Y-20469041D02*
X9215059Y-20639041D01*
X10094941Y-19961041D02*
X10264941Y-20131041D01*
X10264941Y-19961041D02*
X10094941Y-20131041D01*
X11553000Y-7383000D02*
X11723000Y-7553000D01*
X11723000Y-7383000D02*
X11553000Y-7553000D01*
X12569000Y-7383000D02*
X12739000Y-7553000D01*
X12739000Y-7383000D02*
X12569000Y-7553000D01*
X4923000Y-10421000D02*
X5093000Y-10591000D01*
X5093000Y-10421000D02*
X4923000Y-10591000D01*
X4923000Y-11437000D02*
X5093000Y-11607000D01*
X5093000Y-11437000D02*
X4923000Y-11607000D01*
X7273000Y-4743000D02*
X7443000Y-4913000D01*
X7443000Y-4743000D02*
X7273000Y-4913000D01*
X8289000Y-4743000D02*
X8459000Y-4913000D01*
X8459000Y-4743000D02*
X8289000Y-4913000D01*
X14726000Y-11988000D02*
G75*
G03*
X14726000Y-11988000I-200000J0D01*
G01*
X9946000Y-14828000D02*
G75*
G03*
X9946000Y-14828000I-200000J0D01*
G01*
X12346000Y-9848000D02*
G75*
G03*
X12346000Y-9848000I-200000J0D01*
G01*
X22346000Y-15088000D02*
G75*
G03*
X22346000Y-15088000I-200000J0D01*
G01*
X17106000Y-16988000D02*
G75*
G03*
X17106000Y-16988000I-200000J0D01*
G01*
X17106000Y-7468000D02*
G75*
G03*
X17106000Y-7468000I-200000J0D01*
G01*
X19486000Y-10328000D02*
G75*
G03*
X19486000Y-10328000I-200000J0D01*
G01*
X5188000Y-14354000D02*
G75*
G03*
X5188000Y-14354000I-200000J0D01*
G01*
X7586000Y-7688000D02*
G75*
G03*
X7586000Y-7688000I-200000J0D01*
G01*
X14726000Y-14348000D02*
G75*
G03*
X14726000Y-14348000I-200000J0D01*
G01*
X16626000Y-4828000D02*
G75*
G03*
X16626000Y-4828000I-200000J0D01*
G01*
X9966000Y-10068000D02*
G75*
G03*
X9966000Y-10068000I-200000J0D01*
G01*
X9940000Y-20300041D02*
G75*
G03*
X9940000Y-20300041I-200000J0D01*
G01*
X12346000Y-7468000D02*
G75*
G03*
X12346000Y-7468000I-200000J0D01*
G01*
X5208000Y-11014000D02*
G75*
G03*
X5208000Y-11014000I-200000J0D01*
G01*
X8066000Y-4828000D02*
G75*
G03*
X8066000Y-4828000I-200000J0D01*
G01*
X22340000Y-4828000D02*
G75*
G03*
X22340000Y-4828000I-200000J0D01*
G01*
X19486000Y-17468000D02*
G75*
G03*
X19486000Y-17468000I-200000J0D01*
G01*
X17106000Y-12228000D02*
G75*
G03*
X17106000Y-12228000I-200000J0D01*
G01*
X5186000Y-4828000D02*
G75*
G03*
X5186000Y-4828000I-200000J0D01*
G01*
X14706000Y-9588000D02*
G75*
G03*
X14706000Y-9588000I-200000J0D01*
G01*
X19486000Y-4828000D02*
G75*
G03*
X19486000Y-4828000I-200000J0D01*
G01*
X12346000Y-12228000D02*
G75*
G03*
X12346000Y-12228000I-200000J0D01*
G01*
X9966000Y-7688000D02*
G75*
G03*
X9966000Y-7688000I-200000J0D01*
G01*
X7879999Y-21500041D02*
G75*
G03*
X7879999Y-21500041I-200000J0D01*
G01*
X10906000Y-4828000D02*
G75*
G03*
X10906000Y-4828000I-200000J0D01*
G01*
X12346000Y-16988000D02*
G75*
G03*
X12346000Y-16988000I-200000J0D01*
G01*
X22340000Y-7940000D02*
G75*
G03*
X22340000Y-7940000I-200000J0D01*
G01*
X21866000Y-17468000D02*
G75*
G03*
X21866000Y-17468000I-200000J0D01*
G01*
X19486000Y-7928000D02*
G75*
G03*
X19486000Y-7928000I-200000J0D01*
G01*
X5200000Y-7680000D02*
G75*
G03*
X5200000Y-7680000I-200000J0D01*
G01*
X19486000Y-12708000D02*
G75*
G03*
X19486000Y-12708000I-200000J0D01*
G01*
X17106000Y-14608000D02*
G75*
G03*
X17106000Y-14608000I-200000J0D01*
G01*
X14726000Y-7208000D02*
G75*
G03*
X14726000Y-7208000I-200000J0D01*
G01*
X6699999Y-19440041D02*
G75*
G03*
X6699999Y-19440041I-200000J0D01*
G01*
X9966000Y-12468000D02*
G75*
G03*
X9966000Y-12468000I-200000J0D01*
G01*
X7586000Y-12448000D02*
G75*
G03*
X7586000Y-12448000I-200000J0D01*
G01*
X12346000Y-14608000D02*
G75*
G03*
X12346000Y-14608000I-200000J0D01*
G01*
X19486000Y-15088000D02*
G75*
G03*
X19486000Y-15088000I-200000J0D01*
G01*
X7586000Y-14828000D02*
G75*
G03*
X7586000Y-14828000I-200000J0D01*
G01*
X14726000Y-16748000D02*
G75*
G03*
X14726000Y-16748000I-200000J0D01*
G01*
X22340000Y-10320000D02*
G75*
G03*
X22340000Y-10320000I-200000J0D01*
G01*
X17106000Y-9848000D02*
G75*
G03*
X17106000Y-9848000I-200000J0D01*
G01*
X13766000Y-4828000D02*
G75*
G03*
X13766000Y-4828000I-200000J0D01*
G01*
X22346000Y-12708000D02*
G75*
G03*
X22346000Y-12708000I-200000J0D01*
G01*
X5819999Y-22700041D02*
G75*
G03*
X5819999Y-22700041I-200000J0D01*
G01*
X7586000Y-10068000D02*
G75*
G03*
X7586000Y-10068000I-200000J0D01*
G01*
D12*
X2809729Y-25970714D02*
X2809729Y-25670714D01*
X2881158Y-25670714D01*
X2924015Y-25685000D01*
X2952587Y-25713571D01*
X2966872Y-25742143D01*
X2981158Y-25799286D01*
X2981158Y-25842143D01*
X2966872Y-25899286D01*
X2952587Y-25927857D01*
X2924015Y-25956429D01*
X2881158Y-25970714D01*
X2809729Y-25970714D01*
X3109729Y-25970714D02*
X3109729Y-25770714D01*
X3109729Y-25827857D02*
X3124015Y-25799286D01*
X3138301Y-25785000D01*
X3166872Y-25770714D01*
X3195444Y-25770714D01*
X3295444Y-25970714D02*
X3295444Y-25770714D01*
X3295444Y-25670714D02*
X3281158Y-25685000D01*
X3295444Y-25699286D01*
X3309729Y-25685000D01*
X3295444Y-25670714D01*
X3295444Y-25699286D01*
X3481158Y-25970714D02*
X3452587Y-25956429D01*
X3438301Y-25927857D01*
X3438301Y-25670714D01*
X3638301Y-25970714D02*
X3609729Y-25956429D01*
X3595444Y-25927857D01*
X3595444Y-25670714D01*
X3981158Y-25970714D02*
X3981158Y-25670714D01*
X4081158Y-25885000D01*
X4181158Y-25670714D01*
X4181158Y-25970714D01*
X4452587Y-25970714D02*
X4452587Y-25813571D01*
X4438301Y-25785000D01*
X4409730Y-25770714D01*
X4352587Y-25770714D01*
X4324015Y-25785000D01*
X4452587Y-25956429D02*
X4424015Y-25970714D01*
X4352587Y-25970714D01*
X4324015Y-25956429D01*
X4309730Y-25927857D01*
X4309730Y-25899286D01*
X4324015Y-25870714D01*
X4352587Y-25856429D01*
X4424015Y-25856429D01*
X4452587Y-25842143D01*
X4595444Y-25770714D02*
X4595444Y-26070714D01*
X4595444Y-25785000D02*
X4624015Y-25770714D01*
X4681158Y-25770714D01*
X4709730Y-25785000D01*
X4724015Y-25799286D01*
X4738301Y-25827857D01*
X4738301Y-25913571D01*
X4724015Y-25942143D01*
X4709730Y-25956429D01*
X4681158Y-25970714D01*
X4624015Y-25970714D01*
X4595444Y-25956429D01*
X4866872Y-25942143D02*
X4881158Y-25956429D01*
X4866872Y-25970714D01*
X4852587Y-25956429D01*
X4866872Y-25942143D01*
X4866872Y-25970714D01*
X4866872Y-25785000D02*
X4881158Y-25799286D01*
X4866872Y-25813571D01*
X4852587Y-25799286D01*
X4866872Y-25785000D01*
X4866872Y-25813571D01*
X2353301Y-26380000D02*
X2523301Y-26550000D01*
X2523301Y-26380000D02*
X2353301Y-26550000D01*
X2966872Y-26600714D02*
X2795444Y-26600714D01*
X2881158Y-26600714D02*
X2881158Y-26300714D01*
X2852587Y-26343571D01*
X2824015Y-26372143D01*
X2795444Y-26386429D01*
X3095444Y-26572143D02*
X3109729Y-26586429D01*
X3095444Y-26600714D01*
X3081158Y-26586429D01*
X3095444Y-26572143D01*
X3095444Y-26600714D01*
X3209729Y-26300714D02*
X3409729Y-26300714D01*
X3281158Y-26600714D01*
X3581158Y-26300714D02*
X3609729Y-26300714D01*
X3638301Y-26315000D01*
X3652587Y-26329286D01*
X3666872Y-26357857D01*
X3681158Y-26415000D01*
X3681158Y-26486429D01*
X3666872Y-26543571D01*
X3652587Y-26572143D01*
X3638301Y-26586429D01*
X3609729Y-26600714D01*
X3581158Y-26600714D01*
X3552587Y-26586429D01*
X3538301Y-26572143D01*
X3524015Y-26543571D01*
X3509729Y-26486429D01*
X3509729Y-26415000D01*
X3524015Y-26357857D01*
X3538301Y-26329286D01*
X3552587Y-26315000D01*
X3581158Y-26300714D01*
X3809729Y-26600714D02*
X3809729Y-26400714D01*
X3809729Y-26429286D02*
X3824015Y-26415000D01*
X3852587Y-26400714D01*
X3895444Y-26400714D01*
X3924015Y-26415000D01*
X3938301Y-26443571D01*
X3938301Y-26600714D01*
X3938301Y-26443571D02*
X3952587Y-26415000D01*
X3981158Y-26400714D01*
X4024015Y-26400714D01*
X4052587Y-26415000D01*
X4066872Y-26443571D01*
X4066872Y-26600714D01*
X4209730Y-26600714D02*
X4209730Y-26400714D01*
X4209730Y-26429286D02*
X4224015Y-26415000D01*
X4252587Y-26400714D01*
X4295444Y-26400714D01*
X4324015Y-26415000D01*
X4338301Y-26443571D01*
X4338301Y-26600714D01*
X4338301Y-26443571D02*
X4352587Y-26415000D01*
X4381158Y-26400714D01*
X4424015Y-26400714D01*
X4452587Y-26415000D01*
X4466872Y-26443571D01*
X4466872Y-26600714D01*
X5052587Y-26286429D02*
X4795444Y-26672143D01*
X5438301Y-26300714D02*
X5466872Y-26300714D01*
X5495444Y-26315000D01*
X5509730Y-26329286D01*
X5524015Y-26357857D01*
X5538301Y-26415000D01*
X5538301Y-26486429D01*
X5524015Y-26543571D01*
X5509730Y-26572143D01*
X5495444Y-26586429D01*
X5466872Y-26600714D01*
X5438301Y-26600714D01*
X5409730Y-26586429D01*
X5395444Y-26572143D01*
X5381158Y-26543571D01*
X5366872Y-26486429D01*
X5366872Y-26415000D01*
X5381158Y-26357857D01*
X5395444Y-26329286D01*
X5409730Y-26315000D01*
X5438301Y-26300714D01*
X5666872Y-26572143D02*
X5681158Y-26586429D01*
X5666872Y-26600714D01*
X5652587Y-26586429D01*
X5666872Y-26572143D01*
X5666872Y-26600714D01*
X5866872Y-26300714D02*
X5895444Y-26300714D01*
X5924015Y-26315000D01*
X5938301Y-26329286D01*
X5952587Y-26357857D01*
X5966872Y-26415000D01*
X5966872Y-26486429D01*
X5952587Y-26543571D01*
X5938301Y-26572143D01*
X5924015Y-26586429D01*
X5895444Y-26600714D01*
X5866872Y-26600714D01*
X5838301Y-26586429D01*
X5824015Y-26572143D01*
X5809729Y-26543571D01*
X5795444Y-26486429D01*
X5795444Y-26415000D01*
X5809729Y-26357857D01*
X5824015Y-26329286D01*
X5838301Y-26315000D01*
X5866872Y-26300714D01*
X6224015Y-26300714D02*
X6166872Y-26300714D01*
X6138301Y-26315000D01*
X6124015Y-26329286D01*
X6095444Y-26372143D01*
X6081158Y-26429286D01*
X6081158Y-26543571D01*
X6095444Y-26572143D01*
X6109729Y-26586429D01*
X6138301Y-26600714D01*
X6195444Y-26600714D01*
X6224015Y-26586429D01*
X6238301Y-26572143D01*
X6252587Y-26543571D01*
X6252587Y-26472143D01*
X6238301Y-26443571D01*
X6224015Y-26429286D01*
X6195444Y-26415000D01*
X6138301Y-26415000D01*
X6109729Y-26429286D01*
X6095444Y-26443571D01*
X6081158Y-26472143D01*
X6352587Y-26300714D02*
X6552587Y-26300714D01*
X6424015Y-26600714D01*
X6652587Y-26300714D02*
X6652587Y-26357857D01*
X6766872Y-26300714D02*
X6766872Y-26357857D01*
X7209729Y-26715000D02*
X7195444Y-26700714D01*
X7166872Y-26657857D01*
X7152587Y-26629286D01*
X7138301Y-26586429D01*
X7124015Y-26515000D01*
X7124015Y-26457857D01*
X7138301Y-26386429D01*
X7152587Y-26343571D01*
X7166872Y-26315000D01*
X7195444Y-26272143D01*
X7209729Y-26257857D01*
X7338301Y-26600714D02*
X7395444Y-26600714D01*
X7424015Y-26586429D01*
X7438301Y-26572143D01*
X7466872Y-26529286D01*
X7481158Y-26472143D01*
X7481158Y-26357857D01*
X7466872Y-26329286D01*
X7452587Y-26315000D01*
X7424015Y-26300714D01*
X7366872Y-26300714D01*
X7338301Y-26315000D01*
X7324015Y-26329286D01*
X7309729Y-26357857D01*
X7309729Y-26429286D01*
X7324015Y-26457857D01*
X7338301Y-26472143D01*
X7366872Y-26486429D01*
X7424015Y-26486429D01*
X7452587Y-26472143D01*
X7466872Y-26457857D01*
X7481158Y-26429286D01*
X7738301Y-26400714D02*
X7738301Y-26600714D01*
X7666872Y-26286429D02*
X7595444Y-26500714D01*
X7781158Y-26500714D01*
X8124015Y-26600714D02*
X8124015Y-26300714D01*
X8252587Y-26600714D02*
X8252587Y-26443571D01*
X8238301Y-26415000D01*
X8209729Y-26400714D01*
X8166872Y-26400714D01*
X8138301Y-26415000D01*
X8124015Y-26429286D01*
X8438301Y-26600714D02*
X8409730Y-26586429D01*
X8395444Y-26572143D01*
X8381158Y-26543571D01*
X8381158Y-26457857D01*
X8395444Y-26429286D01*
X8409730Y-26415000D01*
X8438301Y-26400714D01*
X8481158Y-26400714D01*
X8509730Y-26415000D01*
X8524015Y-26429286D01*
X8538301Y-26457857D01*
X8538301Y-26543571D01*
X8524015Y-26572143D01*
X8509730Y-26586429D01*
X8481158Y-26600714D01*
X8438301Y-26600714D01*
X8709730Y-26600714D02*
X8681158Y-26586429D01*
X8666872Y-26557857D01*
X8666872Y-26300714D01*
X8938301Y-26586429D02*
X8909730Y-26600714D01*
X8852587Y-26600714D01*
X8824015Y-26586429D01*
X8809730Y-26557857D01*
X8809730Y-26443571D01*
X8824015Y-26415000D01*
X8852587Y-26400714D01*
X8909730Y-26400714D01*
X8938301Y-26415000D01*
X8952587Y-26443571D01*
X8952587Y-26472143D01*
X8809730Y-26500714D01*
X9066872Y-26586429D02*
X9095444Y-26600714D01*
X9152587Y-26600714D01*
X9181158Y-26586429D01*
X9195444Y-26557857D01*
X9195444Y-26543571D01*
X9181158Y-26515000D01*
X9152587Y-26500714D01*
X9109730Y-26500714D01*
X9081158Y-26486429D01*
X9066872Y-26457857D01*
X9066872Y-26443571D01*
X9081158Y-26415000D01*
X9109730Y-26400714D01*
X9152587Y-26400714D01*
X9181158Y-26415000D01*
X9295444Y-26715000D02*
X9309730Y-26700714D01*
X9338301Y-26657857D01*
X9352587Y-26629286D01*
X9366872Y-26586429D01*
X9381158Y-26515000D01*
X9381158Y-26457857D01*
X9366872Y-26386429D01*
X9352587Y-26343571D01*
X9338301Y-26315000D01*
X9309730Y-26272143D01*
X9295444Y-26257857D01*
X9838301Y-26715000D02*
X9824015Y-26700714D01*
X9795444Y-26657857D01*
X9781158Y-26629286D01*
X9766872Y-26586429D01*
X9752587Y-26515000D01*
X9752587Y-26457857D01*
X9766872Y-26386429D01*
X9781158Y-26343571D01*
X9795444Y-26315000D01*
X9824015Y-26272143D01*
X9838301Y-26257857D01*
X9952587Y-26400714D02*
X9952587Y-26600714D01*
X9952587Y-26429286D02*
X9966872Y-26415000D01*
X9995444Y-26400714D01*
X10038301Y-26400714D01*
X10066872Y-26415000D01*
X10081158Y-26443571D01*
X10081158Y-26600714D01*
X10266872Y-26600714D02*
X10238301Y-26586429D01*
X10224015Y-26572143D01*
X10209730Y-26543571D01*
X10209730Y-26457857D01*
X10224015Y-26429286D01*
X10238301Y-26415000D01*
X10266872Y-26400714D01*
X10309730Y-26400714D01*
X10338301Y-26415000D01*
X10352587Y-26429286D01*
X10366872Y-26457857D01*
X10366872Y-26543571D01*
X10352587Y-26572143D01*
X10338301Y-26586429D01*
X10309730Y-26600714D01*
X10266872Y-26600714D01*
X10452587Y-26400714D02*
X10566872Y-26400714D01*
X10495444Y-26300714D02*
X10495444Y-26557857D01*
X10509730Y-26586429D01*
X10538301Y-26600714D01*
X10566872Y-26600714D01*
X10895444Y-26400714D02*
X10895444Y-26700714D01*
X10895444Y-26415000D02*
X10924015Y-26400714D01*
X10981158Y-26400714D01*
X11009730Y-26415000D01*
X11024015Y-26429286D01*
X11038301Y-26457857D01*
X11038301Y-26543571D01*
X11024015Y-26572143D01*
X11009730Y-26586429D01*
X10981158Y-26600714D01*
X10924015Y-26600714D01*
X10895444Y-26586429D01*
X11209729Y-26600714D02*
X11181158Y-26586429D01*
X11166872Y-26557857D01*
X11166872Y-26300714D01*
X11452587Y-26600714D02*
X11452587Y-26443571D01*
X11438301Y-26415000D01*
X11409729Y-26400714D01*
X11352587Y-26400714D01*
X11324015Y-26415000D01*
X11452587Y-26586429D02*
X11424015Y-26600714D01*
X11352587Y-26600714D01*
X11324015Y-26586429D01*
X11309729Y-26557857D01*
X11309729Y-26529286D01*
X11324015Y-26500714D01*
X11352587Y-26486429D01*
X11424015Y-26486429D01*
X11452587Y-26472143D01*
X11552587Y-26400714D02*
X11666872Y-26400714D01*
X11595444Y-26300714D02*
X11595444Y-26557857D01*
X11609729Y-26586429D01*
X11638301Y-26600714D01*
X11666872Y-26600714D01*
X11881158Y-26586429D02*
X11852587Y-26600714D01*
X11795444Y-26600714D01*
X11766872Y-26586429D01*
X11752587Y-26557857D01*
X11752587Y-26443571D01*
X11766872Y-26415000D01*
X11795444Y-26400714D01*
X11852587Y-26400714D01*
X11881158Y-26415000D01*
X11895444Y-26443571D01*
X11895444Y-26472143D01*
X11752587Y-26500714D01*
X12152587Y-26600714D02*
X12152587Y-26300714D01*
X12152587Y-26586429D02*
X12124015Y-26600714D01*
X12066872Y-26600714D01*
X12038301Y-26586429D01*
X12024015Y-26572143D01*
X12009729Y-26543571D01*
X12009729Y-26457857D01*
X12024015Y-26429286D01*
X12038301Y-26415000D01*
X12066872Y-26400714D01*
X12124015Y-26400714D01*
X12152587Y-26415000D01*
X12266872Y-26715000D02*
X12281158Y-26700714D01*
X12309729Y-26657857D01*
X12324015Y-26629286D01*
X12338301Y-26586429D01*
X12352587Y-26515000D01*
X12352587Y-26457857D01*
X12338301Y-26386429D01*
X12324015Y-26343571D01*
X12309729Y-26315000D01*
X12281158Y-26272143D01*
X12266872Y-26257857D01*
X2523301Y-26861000D02*
G75*
G03*
X2523301Y-26861000I-200000J0D01*
G01*
X2938301Y-26796714D02*
X2938301Y-26996714D01*
X2866872Y-26682429D02*
X2795444Y-26896714D01*
X2981158Y-26896714D01*
X3095444Y-26968143D02*
X3109729Y-26982429D01*
X3095444Y-26996714D01*
X3081158Y-26982429D01*
X3095444Y-26968143D01*
X3095444Y-26996714D01*
X3295444Y-26696714D02*
X3324015Y-26696714D01*
X3352587Y-26711000D01*
X3366872Y-26725286D01*
X3381158Y-26753857D01*
X3395444Y-26811000D01*
X3395444Y-26882429D01*
X3381158Y-26939571D01*
X3366872Y-26968143D01*
X3352587Y-26982429D01*
X3324015Y-26996714D01*
X3295444Y-26996714D01*
X3266872Y-26982429D01*
X3252587Y-26968143D01*
X3238301Y-26939571D01*
X3224015Y-26882429D01*
X3224015Y-26811000D01*
X3238301Y-26753857D01*
X3252587Y-26725286D01*
X3266872Y-26711000D01*
X3295444Y-26696714D01*
X3581158Y-26696714D02*
X3609729Y-26696714D01*
X3638301Y-26711000D01*
X3652587Y-26725286D01*
X3666872Y-26753857D01*
X3681158Y-26811000D01*
X3681158Y-26882429D01*
X3666872Y-26939571D01*
X3652587Y-26968143D01*
X3638301Y-26982429D01*
X3609729Y-26996714D01*
X3581158Y-26996714D01*
X3552587Y-26982429D01*
X3538301Y-26968143D01*
X3524015Y-26939571D01*
X3509729Y-26882429D01*
X3509729Y-26811000D01*
X3524015Y-26753857D01*
X3538301Y-26725286D01*
X3552587Y-26711000D01*
X3581158Y-26696714D01*
X3809729Y-26996714D02*
X3809729Y-26796714D01*
X3809729Y-26825286D02*
X3824015Y-26811000D01*
X3852587Y-26796714D01*
X3895444Y-26796714D01*
X3924015Y-26811000D01*
X3938301Y-26839571D01*
X3938301Y-26996714D01*
X3938301Y-26839571D02*
X3952587Y-26811000D01*
X3981158Y-26796714D01*
X4024015Y-26796714D01*
X4052587Y-26811000D01*
X4066872Y-26839571D01*
X4066872Y-26996714D01*
X4209730Y-26996714D02*
X4209730Y-26796714D01*
X4209730Y-26825286D02*
X4224015Y-26811000D01*
X4252587Y-26796714D01*
X4295444Y-26796714D01*
X4324015Y-26811000D01*
X4338301Y-26839571D01*
X4338301Y-26996714D01*
X4338301Y-26839571D02*
X4352587Y-26811000D01*
X4381158Y-26796714D01*
X4424015Y-26796714D01*
X4452587Y-26811000D01*
X4466872Y-26839571D01*
X4466872Y-26996714D01*
X5052587Y-26682429D02*
X4795444Y-27068143D01*
X5438301Y-26696714D02*
X5466872Y-26696714D01*
X5495444Y-26711000D01*
X5509730Y-26725286D01*
X5524015Y-26753857D01*
X5538301Y-26811000D01*
X5538301Y-26882429D01*
X5524015Y-26939571D01*
X5509730Y-26968143D01*
X5495444Y-26982429D01*
X5466872Y-26996714D01*
X5438301Y-26996714D01*
X5409730Y-26982429D01*
X5395444Y-26968143D01*
X5381158Y-26939571D01*
X5366872Y-26882429D01*
X5366872Y-26811000D01*
X5381158Y-26753857D01*
X5395444Y-26725286D01*
X5409730Y-26711000D01*
X5438301Y-26696714D01*
X5666872Y-26968143D02*
X5681158Y-26982429D01*
X5666872Y-26996714D01*
X5652587Y-26982429D01*
X5666872Y-26968143D01*
X5666872Y-26996714D01*
X5966872Y-26996714D02*
X5795444Y-26996714D01*
X5881158Y-26996714D02*
X5881158Y-26696714D01*
X5852587Y-26739571D01*
X5824015Y-26768143D01*
X5795444Y-26782429D01*
X6238301Y-26696714D02*
X6095444Y-26696714D01*
X6081158Y-26839571D01*
X6095444Y-26825286D01*
X6124015Y-26811000D01*
X6195444Y-26811000D01*
X6224015Y-26825286D01*
X6238301Y-26839571D01*
X6252587Y-26868143D01*
X6252587Y-26939571D01*
X6238301Y-26968143D01*
X6224015Y-26982429D01*
X6195444Y-26996714D01*
X6124015Y-26996714D01*
X6095444Y-26982429D01*
X6081158Y-26968143D01*
X6352587Y-26696714D02*
X6552587Y-26696714D01*
X6424015Y-26996714D01*
X6652587Y-26696714D02*
X6652587Y-26753857D01*
X6766872Y-26696714D02*
X6766872Y-26753857D01*
X7209729Y-27111000D02*
X7195444Y-27096714D01*
X7166872Y-27053857D01*
X7152587Y-27025286D01*
X7138301Y-26982429D01*
X7124015Y-26911000D01*
X7124015Y-26853857D01*
X7138301Y-26782429D01*
X7152587Y-26739571D01*
X7166872Y-26711000D01*
X7195444Y-26668143D01*
X7209729Y-26653857D01*
X7452587Y-26796714D02*
X7452587Y-26996714D01*
X7381158Y-26682429D02*
X7309729Y-26896714D01*
X7495444Y-26896714D01*
X7581158Y-26696714D02*
X7781158Y-26696714D01*
X7652587Y-26996714D01*
X8124015Y-26996714D02*
X8124015Y-26696714D01*
X8252587Y-26996714D02*
X8252587Y-26839571D01*
X8238301Y-26811000D01*
X8209729Y-26796714D01*
X8166872Y-26796714D01*
X8138301Y-26811000D01*
X8124015Y-26825286D01*
X8438301Y-26996714D02*
X8409730Y-26982429D01*
X8395444Y-26968143D01*
X8381158Y-26939571D01*
X8381158Y-26853857D01*
X8395444Y-26825286D01*
X8409730Y-26811000D01*
X8438301Y-26796714D01*
X8481158Y-26796714D01*
X8509730Y-26811000D01*
X8524015Y-26825286D01*
X8538301Y-26853857D01*
X8538301Y-26939571D01*
X8524015Y-26968143D01*
X8509730Y-26982429D01*
X8481158Y-26996714D01*
X8438301Y-26996714D01*
X8709730Y-26996714D02*
X8681158Y-26982429D01*
X8666872Y-26953857D01*
X8666872Y-26696714D01*
X8938301Y-26982429D02*
X8909730Y-26996714D01*
X8852587Y-26996714D01*
X8824015Y-26982429D01*
X8809730Y-26953857D01*
X8809730Y-26839571D01*
X8824015Y-26811000D01*
X8852587Y-26796714D01*
X8909730Y-26796714D01*
X8938301Y-26811000D01*
X8952587Y-26839571D01*
X8952587Y-26868143D01*
X8809730Y-26896714D01*
X9066872Y-26982429D02*
X9095444Y-26996714D01*
X9152587Y-26996714D01*
X9181158Y-26982429D01*
X9195444Y-26953857D01*
X9195444Y-26939571D01*
X9181158Y-26911000D01*
X9152587Y-26896714D01*
X9109730Y-26896714D01*
X9081158Y-26882429D01*
X9066872Y-26853857D01*
X9066872Y-26839571D01*
X9081158Y-26811000D01*
X9109730Y-26796714D01*
X9152587Y-26796714D01*
X9181158Y-26811000D01*
X9295444Y-27111000D02*
X9309730Y-27096714D01*
X9338301Y-27053857D01*
X9352587Y-27025286D01*
X9366872Y-26982429D01*
X9381158Y-26911000D01*
X9381158Y-26853857D01*
X9366872Y-26782429D01*
X9352587Y-26739571D01*
X9338301Y-26711000D01*
X9309730Y-26668143D01*
X9295444Y-26653857D01*
X9838301Y-27111000D02*
X9824015Y-27096714D01*
X9795444Y-27053857D01*
X9781158Y-27025286D01*
X9766872Y-26982429D01*
X9752587Y-26911000D01*
X9752587Y-26853857D01*
X9766872Y-26782429D01*
X9781158Y-26739571D01*
X9795444Y-26711000D01*
X9824015Y-26668143D01*
X9838301Y-26653857D01*
X9952587Y-26796714D02*
X9952587Y-26996714D01*
X9952587Y-26825286D02*
X9966872Y-26811000D01*
X9995444Y-26796714D01*
X10038301Y-26796714D01*
X10066872Y-26811000D01*
X10081158Y-26839571D01*
X10081158Y-26996714D01*
X10266872Y-26996714D02*
X10238301Y-26982429D01*
X10224015Y-26968143D01*
X10209730Y-26939571D01*
X10209730Y-26853857D01*
X10224015Y-26825286D01*
X10238301Y-26811000D01*
X10266872Y-26796714D01*
X10309730Y-26796714D01*
X10338301Y-26811000D01*
X10352587Y-26825286D01*
X10366872Y-26853857D01*
X10366872Y-26939571D01*
X10352587Y-26968143D01*
X10338301Y-26982429D01*
X10309730Y-26996714D01*
X10266872Y-26996714D01*
X10452587Y-26796714D02*
X10566872Y-26796714D01*
X10495444Y-26696714D02*
X10495444Y-26953857D01*
X10509730Y-26982429D01*
X10538301Y-26996714D01*
X10566872Y-26996714D01*
X10895444Y-26796714D02*
X10895444Y-27096714D01*
X10895444Y-26811000D02*
X10924015Y-26796714D01*
X10981158Y-26796714D01*
X11009730Y-26811000D01*
X11024015Y-26825286D01*
X11038301Y-26853857D01*
X11038301Y-26939571D01*
X11024015Y-26968143D01*
X11009730Y-26982429D01*
X10981158Y-26996714D01*
X10924015Y-26996714D01*
X10895444Y-26982429D01*
X11209729Y-26996714D02*
X11181158Y-26982429D01*
X11166872Y-26953857D01*
X11166872Y-26696714D01*
X11452587Y-26996714D02*
X11452587Y-26839571D01*
X11438301Y-26811000D01*
X11409729Y-26796714D01*
X11352587Y-26796714D01*
X11324015Y-26811000D01*
X11452587Y-26982429D02*
X11424015Y-26996714D01*
X11352587Y-26996714D01*
X11324015Y-26982429D01*
X11309729Y-26953857D01*
X11309729Y-26925286D01*
X11324015Y-26896714D01*
X11352587Y-26882429D01*
X11424015Y-26882429D01*
X11452587Y-26868143D01*
X11552587Y-26796714D02*
X11666872Y-26796714D01*
X11595444Y-26696714D02*
X11595444Y-26953857D01*
X11609729Y-26982429D01*
X11638301Y-26996714D01*
X11666872Y-26996714D01*
X11881158Y-26982429D02*
X11852587Y-26996714D01*
X11795444Y-26996714D01*
X11766872Y-26982429D01*
X11752587Y-26953857D01*
X11752587Y-26839571D01*
X11766872Y-26811000D01*
X11795444Y-26796714D01*
X11852587Y-26796714D01*
X11881158Y-26811000D01*
X11895444Y-26839571D01*
X11895444Y-26868143D01*
X11752587Y-26896714D01*
X12152587Y-26996714D02*
X12152587Y-26696714D01*
X12152587Y-26982429D02*
X12124015Y-26996714D01*
X12066872Y-26996714D01*
X12038301Y-26982429D01*
X12024015Y-26968143D01*
X12009729Y-26939571D01*
X12009729Y-26853857D01*
X12024015Y-26825286D01*
X12038301Y-26811000D01*
X12066872Y-26796714D01*
X12124015Y-26796714D01*
X12152587Y-26811000D01*
X12266872Y-27111000D02*
X12281158Y-27096714D01*
X12309729Y-27053857D01*
X12324015Y-27025286D01*
X12338301Y-26982429D01*
X12352587Y-26911000D01*
X12352587Y-26853857D01*
X12338301Y-26782429D01*
X12324015Y-26739571D01*
X12309729Y-26711000D01*
X12281158Y-26668143D01*
X12266872Y-26653857D01*
M02*
