M48
; DRILL file {KiCad 5.1.6-c6e7f7d~87~ubuntu20.04.1} date Wed Sep  9 12:11:43 2020
; FORMAT={-:-/ absolute / metric / decimal}
; #@! TF.CreationDate,2020-09-09T12:11:43+02:00
; #@! TF.GenerationSoftware,Kicad,Pcbnew,5.1.6-c6e7f7d~87~ubuntu20.04.1
; #@! TF.FileFunction,NonPlated,1,2,NPTH
FMAT,2
METRIC
T1C1.700
T2C4.000
%
G90
G05
T1
X187.78Y-174.68
X197.94Y-174.68
X49.88Y-138.46
X49.88Y-148.62
X68.78Y-76.88
X78.94Y-76.88
X163.98Y-122.28
X174.14Y-122.28
X187.78Y-48.28
X197.94Y-48.28
X92.58Y-100.68
X102.74Y-100.68
X83.501Y-189.24
X92.299Y-184.16
X139.98Y-95.88
X150.14Y-95.88
X116.38Y-122.28
X126.54Y-122.28
X50.08Y-105.06
X50.08Y-115.22
X101.98Y-48.28
X112.14Y-48.28
X116.38Y-169.88
X126.54Y-169.88
X216.38Y-127.08
X226.54Y-127.08
X44.78Y-48.28
X54.94Y-48.28
X163.98Y-146.08
X174.14Y-146.08
X92.58Y-76.88
X102.74Y-76.88
X216.32Y-48.28
X226.48Y-48.28
X62.801Y-201.24
X71.599Y-196.16
X140.18Y-72.08
X150.34Y-72.08
X44.92Y-76.8
X55.08Y-76.8
X116.38Y-146.08
X126.54Y-146.08
X216.32Y-79.4
X226.48Y-79.4
X140.18Y-167.48
X150.34Y-167.48
X163.98Y-98.48
X174.14Y-98.48
X51.001Y-180.44
X59.799Y-175.36
X130.58Y-48.28
X140.74Y-48.28
X92.58Y-124.68
X102.74Y-124.68
X68.78Y-124.48
X78.94Y-124.48
X140.18Y-119.88
X150.34Y-119.88
X68.78Y-148.28
X78.94Y-148.28
X116.38Y-98.48
X126.54Y-98.48
X163.98Y-169.88
X174.14Y-169.88
X163.98Y-74.68
X174.14Y-74.68
X42.301Y-213.04
X51.099Y-207.96
X68.78Y-100.68
X78.94Y-100.68
X216.32Y-103.2
X226.48Y-103.2
X92.38Y-148.28
X102.54Y-148.28
X211.58Y-174.68
X221.74Y-174.68
X187.78Y-150.88
X197.94Y-150.88
X140.18Y-143.48
X150.34Y-143.48
X159.18Y-48.28
X169.34Y-48.28
X187.78Y-103.28
X197.94Y-103.28
X116.38Y-74.68
X126.54Y-74.68
X187.78Y-127.08
X197.94Y-127.08
X73.58Y-48.28
X83.74Y-48.28
X216.38Y-150.88
X226.54Y-150.88
X187.78Y-79.28
X197.94Y-79.28
T2
X97.66Y-124.68
X73.86Y-124.48
X145.26Y-119.88
X73.86Y-148.28
X121.46Y-98.48
X169.06Y-169.88
X169.06Y-74.68
X46.7Y-210.5
X73.86Y-100.68
X221.4Y-103.2
X97.46Y-148.28
X216.66Y-174.68
X192.86Y-150.88
X145.26Y-143.48
X164.26Y-48.28
X192.86Y-103.28
X121.46Y-74.68
X192.86Y-127.08
X78.66Y-48.28
X221.46Y-150.88
X192.86Y-79.28
X192.86Y-174.68
X49.88Y-143.54
X73.86Y-76.88
X169.06Y-122.28
X192.86Y-48.28
X97.66Y-100.68
X87.9Y-186.7
X145.06Y-95.88
X121.46Y-122.28
X50.08Y-110.14
X107.06Y-48.28
X121.46Y-169.88
X221.46Y-127.08
X49.86Y-48.28
X169.06Y-146.08
X97.66Y-76.88
X221.4Y-48.28
X67.2Y-198.7
X145.26Y-72.08
X50.0Y-76.8
X121.46Y-146.08
X221.4Y-79.4
X145.26Y-167.48
X169.06Y-98.48
X55.4Y-177.9
X135.66Y-48.28
T0
M30
