%TF.GenerationSoftware,KiCad,Pcbnew,6.0.9-8da3e8f707~117~ubuntu20.04.1*%
%TF.CreationDate,2022-12-03T03:03:44+01:00*%
%TF.ProjectId,98keys-split-pcb,39386b65-7973-42d7-9370-6c69742d7063,rev?*%
%TF.SameCoordinates,Original*%
%TF.FileFunction,Profile,NP*%
%FSLAX46Y46*%
G04 Gerber Fmt 4.6, Leading zero omitted, Abs format (unit mm)*
G04 Created by KiCad (PCBNEW 6.0.9-8da3e8f707~117~ubuntu20.04.1) date 2022-12-03 03:03:44*
%MOMM*%
%LPD*%
G01*
G04 APERTURE LIST*
%TA.AperFunction,Profile*%
%ADD10C,0.100000*%
%TD*%
%TA.AperFunction,Profile*%
%ADD11C,0.120000*%
%TD*%
G04 APERTURE END LIST*
D10*
X309000000Y-27000000D02*
X309000000Y-188500000D01*
X313000000Y-188500000D02*
X312000000Y-27000000D01*
X313000000Y-212000000D02*
X313000000Y-201500000D01*
X309000000Y-201500000D02*
X309000000Y-212000000D01*
X309000000Y-212000000D02*
X313000000Y-212000000D01*
X85000000Y-263000000D02*
X85000000Y-27000000D01*
X309000000Y-215000000D02*
X309000000Y-263000000D01*
X85000000Y-27000000D02*
X309000000Y-27000000D01*
X309000000Y-263000000D02*
X85000000Y-263000000D01*
X313000000Y-215000000D02*
X313000000Y-263000000D01*
X309000000Y-215000000D02*
X313000000Y-215000000D01*
X532000000Y-263000000D02*
X313000000Y-263000000D01*
X532000000Y-27000000D02*
X532000000Y-263000000D01*
X312000000Y-27000000D02*
X532000000Y-27000000D01*
D11*
%TO.C,J1*%
X314400000Y-193200000D02*
G75*
G03*
X314000000Y-192800000I-400000J0D01*
G01*
X314000000Y-197200000D02*
G75*
G03*
X314400000Y-196800000I-2J400002D01*
G01*
X313000000Y-192800000D02*
X313000000Y-188500000D01*
X314000000Y-192800000D02*
X313000000Y-192800000D01*
X313000000Y-197200000D02*
X313000000Y-201500000D01*
X314000000Y-197200000D02*
X313000000Y-197200000D01*
X314400000Y-193200000D02*
X314400000Y-196800000D01*
%TO.C,J2*%
X308000000Y-192800000D02*
G75*
G03*
X307600000Y-193200000I2J-400002D01*
G01*
X307600000Y-196800000D02*
G75*
G03*
X308000000Y-197200000I400000J0D01*
G01*
X308000000Y-197200000D02*
X309000000Y-197200000D01*
X307600000Y-196800000D02*
X307600000Y-193200000D01*
X308000000Y-192800000D02*
X309000000Y-192800000D01*
X309000000Y-197200000D02*
X309000000Y-201500000D01*
X309000000Y-192800000D02*
X309000000Y-188500000D01*
%TD*%
M02*
