%FSLAX45Y45*%
G04 Gerber Fmt 4.5, Leading zero omitted, Abs format (unit mm)*
G04 Created by KiCad (PCBNEW 5.1.6-c6e7f7d~87~ubuntu20.04.1) date 2020-09-08 11:47:34*
%MOMM*%
%LPD*%
G01*
G04 APERTURE LIST*
%TA.AperFunction,Profile*%
%ADD10C,0.200000*%
%TD*%
%ADD11C,0.200000*%
%ADD12C,0.300000*%
G04 APERTURE END LIST*
D10*
X2047289Y-4717200D02*
X2057900Y-4679400D01*
X24138100Y-27436383D02*
X24099100Y-27441068D01*
X24286900Y-27388014D02*
X24251200Y-27404550D01*
X2455190Y-27436383D02*
X2416740Y-27428666D01*
X24505300Y-4607000D02*
X24521700Y-4642700D01*
X24559900Y-26942493D02*
X24558400Y-26981768D01*
X2087941Y-4607000D02*
X2107096Y-4572700D01*
X24546100Y-4717200D02*
X24553700Y-4755700D01*
X2033508Y-26942493D02*
X2033508Y-4834100D01*
X2087941Y-27169595D02*
X2071542Y-27133904D01*
X2039710Y-27020768D02*
X2035024Y-26981768D01*
X2179994Y-27296099D02*
X2153260Y-27267160D01*
X24559900Y-4834100D02*
X24559900Y-26942493D01*
X24535300Y-27096971D02*
X24521700Y-27133904D01*
X24251200Y-27404550D02*
X24214400Y-27418055D01*
X2035024Y-26981768D02*
X2033508Y-26942493D01*
X2494186Y-4335500D02*
X2533598Y-4334000D01*
X2057900Y-4679400D02*
X2071542Y-4642700D01*
X24059800Y-4334000D02*
X24099100Y-4335500D01*
X2239663Y-27347086D02*
X2208795Y-27322695D01*
X24353700Y-27347086D02*
X24321100Y-27368859D01*
X2071542Y-27133904D02*
X2057900Y-27096971D01*
X2153260Y-27267160D02*
X2129006Y-27236430D01*
X2239663Y-4429500D02*
X2272185Y-4407600D01*
X2342189Y-4372000D02*
X2378983Y-4358400D01*
X24413400Y-27296099D02*
X24384600Y-27322695D01*
X2057900Y-27096971D02*
X2047289Y-27059213D01*
X2033508Y-4834100D02*
X2035024Y-4794700D01*
X2035024Y-4794700D02*
X2039710Y-4755700D01*
X2455190Y-4340200D02*
X2494186Y-4335500D01*
X24546100Y-27059213D02*
X24535300Y-27096971D01*
X24176500Y-27428666D02*
X24138100Y-27436383D01*
X24553700Y-27020768D02*
X24546100Y-27059213D01*
X24464400Y-4540100D02*
X24486200Y-4572700D01*
X24321100Y-27368859D02*
X24286900Y-27388014D01*
X24505300Y-27169595D02*
X24486200Y-27203770D01*
X2153260Y-4509300D02*
X2179994Y-4480500D01*
X2533598Y-4334000D02*
X24059800Y-4334000D01*
X2047289Y-27059213D02*
X2039710Y-27020768D01*
X24553700Y-4755700D02*
X24558400Y-4794700D01*
X2494186Y-27441068D02*
X2455190Y-27436383D01*
X24214400Y-27418055D02*
X24176500Y-27428666D01*
X2107096Y-27203770D02*
X2087941Y-27169595D01*
X24486200Y-4572700D02*
X24505300Y-4607000D01*
X24521700Y-4642700D02*
X24535300Y-4679400D01*
X24558400Y-26981768D02*
X24553700Y-27020768D01*
X2039710Y-4755700D02*
X2047289Y-4717200D01*
X24214400Y-4358400D02*
X24251200Y-4372000D01*
X2107096Y-4572700D02*
X2129006Y-4540100D01*
X2378983Y-4358400D02*
X2416740Y-4347800D01*
X24384600Y-4453700D02*
X24413400Y-4480500D01*
X24384600Y-27322695D02*
X24353700Y-27347086D01*
X24464400Y-27236430D02*
X24440000Y-27267160D01*
X24521700Y-27133904D02*
X24505300Y-27169595D01*
X2208795Y-27322695D02*
X2179994Y-27296099D01*
X24286900Y-4388400D02*
X24321100Y-4407600D01*
X24558400Y-4794700D02*
X24559900Y-4834100D01*
X2272185Y-4407600D02*
X2306498Y-4388400D01*
X2306498Y-4388400D02*
X2342189Y-4372000D01*
X2071542Y-4642700D02*
X2087941Y-4607000D01*
X24440000Y-27267160D02*
X24413400Y-27296099D01*
X2416740Y-4347800D02*
X2455190Y-4340200D01*
X24138100Y-4340200D02*
X24176500Y-4347800D01*
X24486200Y-27203770D02*
X24464400Y-27236430D01*
X24059800Y-27442584D02*
X2533598Y-27442584D01*
X24251200Y-4372000D02*
X24286900Y-4388400D01*
X2129006Y-4540100D02*
X2153260Y-4509300D01*
X24353700Y-4429500D02*
X24384600Y-4453700D01*
X24535300Y-4679400D02*
X24546100Y-4717200D01*
X2378983Y-27418055D02*
X2342189Y-27404550D01*
X2208795Y-4453700D02*
X2239663Y-4429500D01*
X24176500Y-4347800D02*
X24214400Y-4358400D01*
X2533598Y-27442584D02*
X2494186Y-27441068D01*
X2272185Y-27368859D02*
X2239663Y-27347086D01*
X24099100Y-27441068D02*
X24059800Y-27442584D01*
X24440000Y-4509300D02*
X24464400Y-4540100D01*
X2129006Y-27236430D02*
X2107096Y-27203770D01*
X24321100Y-4407600D02*
X24353700Y-4429500D01*
X24099100Y-4335500D02*
X24138100Y-4340200D01*
X2179994Y-4480500D02*
X2208795Y-4453700D01*
X2342189Y-27404550D02*
X2306498Y-27388014D01*
X24413400Y-4480500D02*
X24440000Y-4509300D01*
X2306498Y-27388014D02*
X2272185Y-27368859D01*
X2416740Y-27428666D02*
X2378983Y-27418055D01*
D11*
X4840000Y-16460000D02*
X4880000Y-16500000D01*
X4880000Y-16460000D02*
X4840000Y-16500000D01*
X4910000Y-14090000D02*
X4950000Y-14130000D01*
X4950000Y-14090000D02*
X4910000Y-14130000D01*
X4970000Y-23290000D02*
X5010000Y-23330000D01*
X5010000Y-23290000D02*
X4970000Y-23330000D01*
X5130000Y-22580000D02*
X5170000Y-22620000D01*
X5170000Y-22580000D02*
X5130000Y-22620000D01*
X5470000Y-20900000D02*
X5510000Y-20940000D01*
X5510000Y-20900000D02*
X5470000Y-20940000D01*
X5470000Y-23320000D02*
X5510000Y-23360000D01*
X5510000Y-23320000D02*
X5470000Y-23360000D01*
X5490000Y-22580000D02*
X5530000Y-22620000D01*
X5530000Y-22580000D02*
X5490000Y-22620000D01*
X5510000Y-18270000D02*
X5550000Y-18310000D01*
X5550000Y-18270000D02*
X5510000Y-18310000D01*
X5550000Y-23010000D02*
X5590000Y-23050000D01*
X5590000Y-23010000D02*
X5550000Y-23050000D01*
X6490000Y-22870000D02*
X6530000Y-22910000D01*
X6530000Y-22870000D02*
X6490000Y-22910000D01*
X9224530Y-18569000D02*
X9264530Y-18609000D01*
X9264530Y-18569000D02*
X9224530Y-18609000D01*
X9420000Y-21310000D02*
X9460000Y-21350000D01*
X9460000Y-21310000D02*
X9420000Y-21350000D01*
X9460000Y-20040000D02*
X9500000Y-20080000D01*
X9500000Y-20040000D02*
X9460000Y-20080000D01*
X9800000Y-20430000D02*
X9840000Y-20470000D01*
X9840000Y-20430000D02*
X9800000Y-20470000D01*
X15560000Y-18740000D02*
X15600000Y-18780000D01*
X15600000Y-18740000D02*
X15560000Y-18780000D01*
X16430610Y-21639590D02*
X16470610Y-21679590D01*
X16470610Y-21639590D02*
X16430610Y-21679590D01*
X17580000Y-20480000D02*
X17620000Y-20520000D01*
X17620000Y-20480000D02*
X17580000Y-20520000D01*
X18110000Y-20220000D02*
X18150000Y-20260000D01*
X18150000Y-20220000D02*
X18110000Y-20260000D01*
X18170000Y-20620000D02*
X18210000Y-20660000D01*
X18210000Y-20620000D02*
X18170000Y-20660000D01*
X19120000Y-19000000D02*
X19160000Y-19040000D01*
X19160000Y-19000000D02*
X19120000Y-19040000D01*
X19650000Y-21150000D02*
X19690000Y-21190000D01*
X19690000Y-21150000D02*
X19650000Y-21190000D01*
X23535000Y-6892000D02*
G75*
G03*
X23535000Y-6892000I-35000J0D01*
G01*
X23535000Y-7400000D02*
G75*
G03*
X23535000Y-7400000I-35000J0D01*
G01*
X23535000Y-7892000D02*
G75*
G03*
X23535000Y-7892000I-35000J0D01*
G01*
X23535000Y-8400000D02*
G75*
G03*
X23535000Y-8400000I-35000J0D01*
G01*
X23535000Y-5900000D02*
G75*
G03*
X23535000Y-5900000I-35000J0D01*
G01*
X23535000Y-6408000D02*
G75*
G03*
X23535000Y-6408000I-35000J0D01*
G01*
X23535000Y-8892000D02*
G75*
G03*
X23535000Y-8892000I-35000J0D01*
G01*
X23535000Y-9400000D02*
G75*
G03*
X23535000Y-9400000I-35000J0D01*
G01*
X11480000Y-8700000D02*
X11480000Y-8780000D01*
X11440000Y-8740000D02*
X11520000Y-8740000D01*
X11480000Y-9462000D02*
X11480000Y-9542000D01*
X11440000Y-9502000D02*
X11520000Y-9502000D01*
X9100000Y-16078000D02*
X9100000Y-16158000D01*
X9060000Y-16118000D02*
X9140000Y-16118000D01*
X9100000Y-16840000D02*
X9100000Y-16920000D01*
X9060000Y-16880000D02*
X9140000Y-16880000D01*
X13840000Y-13698000D02*
X13840000Y-13778000D01*
X13800000Y-13738000D02*
X13880000Y-13738000D01*
X13840000Y-14460000D02*
X13840000Y-14540000D01*
X13800000Y-14500000D02*
X13880000Y-14500000D01*
X11480000Y-13458000D02*
X11480000Y-13538000D01*
X11440000Y-13498000D02*
X11520000Y-13498000D01*
X11480000Y-14220000D02*
X11480000Y-14300000D01*
X11440000Y-14260000D02*
X11520000Y-14260000D01*
X13860000Y-18480000D02*
X13860000Y-18560000D01*
X13820000Y-18520000D02*
X13900000Y-18520000D01*
X13860000Y-19242000D02*
X13860000Y-19322000D01*
X13820000Y-19282000D02*
X13900000Y-19282000D01*
X21000000Y-9178000D02*
X21000000Y-9258000D01*
X20960000Y-9218000D02*
X21040000Y-9218000D01*
X21000000Y-9940000D02*
X21000000Y-10020000D01*
X20960000Y-9980000D02*
X21040000Y-9980000D01*
X18620000Y-16318000D02*
X18620000Y-16398000D01*
X18580000Y-16358000D02*
X18660000Y-16358000D01*
X18620000Y-17080000D02*
X18620000Y-17160000D01*
X18580000Y-17120000D02*
X18660000Y-17120000D01*
X6720000Y-11800000D02*
X6720000Y-11880000D01*
X6680000Y-11840000D02*
X6760000Y-11840000D01*
X6720000Y-12562000D02*
X6720000Y-12642000D01*
X6680000Y-12602000D02*
X6760000Y-12602000D01*
X16250000Y-11548000D02*
X16250000Y-11628000D01*
X16210000Y-11588000D02*
X16290000Y-11588000D01*
X16250000Y-12310000D02*
X16250000Y-12390000D01*
X16210000Y-12350000D02*
X16290000Y-12350000D01*
X6700000Y-9438000D02*
X6700000Y-9518000D01*
X6660000Y-9478000D02*
X6740000Y-9478000D01*
X6700000Y-10200000D02*
X6700000Y-10280000D01*
X6660000Y-10240000D02*
X6740000Y-10240000D01*
X16240000Y-9178000D02*
X16240000Y-9258000D01*
X16200000Y-9218000D02*
X16280000Y-9218000D01*
X16240000Y-9940000D02*
X16240000Y-10020000D01*
X16200000Y-9980000D02*
X16280000Y-9980000D01*
X9100000Y-11338000D02*
X9100000Y-11418000D01*
X9060000Y-11378000D02*
X9140000Y-11378000D01*
X9100000Y-12100000D02*
X9100000Y-12180000D01*
X9060000Y-12140000D02*
X9140000Y-12140000D01*
X4578000Y-13260000D02*
X4578000Y-13340000D01*
X4538000Y-13300000D02*
X4618000Y-13300000D01*
X5340000Y-13260000D02*
X5340000Y-13340000D01*
X5300000Y-13300000D02*
X5380000Y-13300000D01*
X4350000Y-18960000D02*
X4350000Y-19040000D01*
X4310000Y-19000000D02*
X4390000Y-19000000D01*
X4350000Y-19722000D02*
X4350000Y-19802000D01*
X4310000Y-19762000D02*
X4390000Y-19762000D01*
X6700000Y-14198000D02*
X6700000Y-14278000D01*
X6660000Y-14238000D02*
X6740000Y-14238000D01*
X6700000Y-14960000D02*
X6700000Y-15040000D01*
X6660000Y-15000000D02*
X6740000Y-15000000D01*
X20560089Y-25279000D02*
X20560089Y-25359000D01*
X20520089Y-25319000D02*
X20600089Y-25319000D01*
X21220000Y-25660000D02*
X21220000Y-25740000D01*
X21180000Y-25700000D02*
X21260000Y-25700000D01*
X16439989Y-22880000D02*
X16439989Y-22960000D01*
X16399989Y-22920000D02*
X16479989Y-22920000D01*
X17099900Y-23261000D02*
X17099900Y-23341000D01*
X17059900Y-23301000D02*
X17139900Y-23301000D01*
X9100000Y-18478000D02*
X9100000Y-18558000D01*
X9060000Y-18518000D02*
X9140000Y-18518000D01*
X9100000Y-19240000D02*
X9100000Y-19320000D01*
X9060000Y-19280000D02*
X9140000Y-19280000D01*
X12400000Y-6318000D02*
X12400000Y-6398000D01*
X12360000Y-6358000D02*
X12440000Y-6358000D01*
X12400000Y-7080000D02*
X12400000Y-7160000D01*
X12360000Y-7120000D02*
X12440000Y-7120000D01*
X6720000Y-16558000D02*
X6720000Y-16638000D01*
X6680000Y-16598000D02*
X6760000Y-16598000D01*
X6720000Y-17320000D02*
X6720000Y-17400000D01*
X6680000Y-17360000D02*
X6760000Y-17360000D01*
X16240000Y-13938000D02*
X16240000Y-14018000D01*
X16200000Y-13978000D02*
X16280000Y-13978000D01*
X16240000Y-14700000D02*
X16240000Y-14780000D01*
X16200000Y-14740000D02*
X16280000Y-14740000D01*
X11480000Y-18238000D02*
X11480000Y-18318000D01*
X11440000Y-18278000D02*
X11520000Y-18278000D01*
X11480000Y-19000000D02*
X11480000Y-19080000D01*
X11440000Y-19040000D02*
X11520000Y-19040000D01*
X18620000Y-13940000D02*
X18620000Y-14020000D01*
X18580000Y-13980000D02*
X18660000Y-13980000D01*
X18620000Y-14702000D02*
X18620000Y-14782000D01*
X18580000Y-14742000D02*
X18660000Y-14742000D01*
X16240000Y-16318000D02*
X16240000Y-16398000D01*
X16200000Y-16358000D02*
X16280000Y-16358000D01*
X16240000Y-17080000D02*
X16240000Y-17160000D01*
X16200000Y-17120000D02*
X16280000Y-17120000D01*
X3820000Y-6338000D02*
X3820000Y-6418000D01*
X3780000Y-6378000D02*
X3860000Y-6378000D01*
X3820000Y-7100000D02*
X3820000Y-7180000D01*
X3780000Y-7140000D02*
X3860000Y-7140000D01*
X11480000Y-15838000D02*
X11480000Y-15918000D01*
X11440000Y-15878000D02*
X11520000Y-15878000D01*
X11480000Y-16600000D02*
X11480000Y-16680000D01*
X11440000Y-16640000D02*
X11520000Y-16640000D01*
X18140000Y-6338000D02*
X18140000Y-6418000D01*
X18100000Y-6378000D02*
X18180000Y-6378000D01*
X18140000Y-7100000D02*
X18140000Y-7180000D01*
X18100000Y-7140000D02*
X18180000Y-7140000D01*
X6680000Y-6318000D02*
X6680000Y-6398000D01*
X6640000Y-6358000D02*
X6720000Y-6358000D01*
X6680000Y-7080000D02*
X6680000Y-7160000D01*
X6640000Y-7120000D02*
X6720000Y-7120000D01*
X21700000Y-17780000D02*
X21700000Y-17860000D01*
X21660000Y-17820000D02*
X21740000Y-17820000D01*
X22462000Y-17780000D02*
X22462000Y-17860000D01*
X22422000Y-17820000D02*
X22502000Y-17820000D01*
X9120000Y-13800000D02*
X9120000Y-13880000D01*
X9080000Y-13840000D02*
X9160000Y-13840000D01*
X9120000Y-14562000D02*
X9120000Y-14642000D01*
X9080000Y-14602000D02*
X9160000Y-14602000D01*
X18479989Y-24100000D02*
X18479989Y-24180000D01*
X18439989Y-24140000D02*
X18519989Y-24140000D01*
X19139900Y-24481000D02*
X19139900Y-24561000D01*
X19099900Y-24521000D02*
X19179900Y-24521000D01*
X13860000Y-11318000D02*
X13860000Y-11398000D01*
X13820000Y-11358000D02*
X13900000Y-11358000D01*
X13860000Y-12080000D02*
X13860000Y-12160000D01*
X13820000Y-12120000D02*
X13900000Y-12120000D01*
X18620000Y-9178000D02*
X18620000Y-9258000D01*
X18580000Y-9218000D02*
X18660000Y-9218000D01*
X18620000Y-9940000D02*
X18620000Y-10020000D01*
X18580000Y-9980000D02*
X18660000Y-9980000D01*
X18600000Y-11558000D02*
X18600000Y-11638000D01*
X18560000Y-11598000D02*
X18640000Y-11598000D01*
X18600000Y-12320000D02*
X18600000Y-12400000D01*
X18560000Y-12360000D02*
X18640000Y-12360000D01*
X11480000Y-11078000D02*
X11480000Y-11158000D01*
X11440000Y-11118000D02*
X11520000Y-11118000D01*
X11480000Y-11840000D02*
X11480000Y-11920000D01*
X11440000Y-11880000D02*
X11520000Y-11880000D01*
X13860000Y-8938000D02*
X13860000Y-9018000D01*
X13820000Y-8978000D02*
X13900000Y-8978000D01*
X13860000Y-9700000D02*
X13860000Y-9780000D01*
X13820000Y-9740000D02*
X13900000Y-9740000D01*
X4558000Y-15640000D02*
X4558000Y-15720000D01*
X4518000Y-15680000D02*
X4598000Y-15680000D01*
X5320000Y-15640000D02*
X5320000Y-15720000D01*
X5280000Y-15680000D02*
X5360000Y-15680000D01*
X21720000Y-14440000D02*
X21720000Y-14520000D01*
X21680000Y-14480000D02*
X21760000Y-14480000D01*
X22482000Y-14440000D02*
X22482000Y-14520000D01*
X22442000Y-14480000D02*
X22522000Y-14480000D01*
X13920000Y-16038000D02*
X13920000Y-16118000D01*
X13880000Y-16078000D02*
X13960000Y-16078000D01*
X13920000Y-16800000D02*
X13920000Y-16880000D01*
X13880000Y-16840000D02*
X13960000Y-16840000D01*
X15260000Y-6338000D02*
X15260000Y-6418000D01*
X15220000Y-6378000D02*
X15300000Y-6378000D01*
X15260000Y-7100000D02*
X15260000Y-7180000D01*
X15220000Y-7140000D02*
X15300000Y-7140000D01*
X9540000Y-6318000D02*
X9540000Y-6398000D01*
X9500000Y-6358000D02*
X9580000Y-6358000D01*
X9540000Y-7080000D02*
X9540000Y-7160000D01*
X9500000Y-7120000D02*
X9580000Y-7120000D01*
X19680000Y-22040000D02*
X19680000Y-22120000D01*
X19640000Y-22080000D02*
X19720000Y-22080000D01*
X20339911Y-22421000D02*
X20339911Y-22501000D01*
X20299911Y-22461000D02*
X20379911Y-22461000D01*
X6700000Y-18998000D02*
X6700000Y-19078000D01*
X6660000Y-19038000D02*
X6740000Y-19038000D01*
X6700000Y-19760000D02*
X6700000Y-19840000D01*
X6660000Y-19800000D02*
X6740000Y-19800000D01*
X4538000Y-18020000D02*
X4538000Y-18100000D01*
X4498000Y-18060000D02*
X4578000Y-18060000D01*
X5300000Y-18020000D02*
X5300000Y-18100000D01*
X5260000Y-18060000D02*
X5340000Y-18060000D01*
X20980000Y-6338000D02*
X20980000Y-6418000D01*
X20940000Y-6378000D02*
X21020000Y-6378000D01*
X20980000Y-7100000D02*
X20980000Y-7180000D01*
X20940000Y-7140000D02*
X21020000Y-7140000D01*
X9100000Y-8958000D02*
X9100000Y-9038000D01*
X9060000Y-8998000D02*
X9140000Y-8998000D01*
X9100000Y-9720000D02*
X9100000Y-9800000D01*
X9060000Y-9760000D02*
X9140000Y-9760000D01*
X4558000Y-10900000D02*
X4558000Y-10980000D01*
X4518000Y-10940000D02*
X4598000Y-10940000D01*
X5320000Y-10900000D02*
X5320000Y-10980000D01*
X5280000Y-10940000D02*
X5360000Y-10940000D01*
X24031820Y-9031820D02*
X24031820Y-8968180D01*
X23968180Y-8968180D01*
X23968180Y-9031820D01*
X24031820Y-9031820D01*
X24031820Y-9285820D02*
X24031820Y-9222180D01*
X23968180Y-9222180D01*
X23968180Y-9285820D01*
X24031820Y-9285820D01*
X24031820Y-6031820D02*
X24031820Y-5968180D01*
X23968180Y-5968180D01*
X23968180Y-6031820D01*
X24031820Y-6031820D01*
X24031820Y-6285820D02*
X24031820Y-6222180D01*
X23968180Y-6222180D01*
X23968180Y-6285820D01*
X24031820Y-6285820D01*
X24031820Y-7031820D02*
X24031820Y-6968180D01*
X23968180Y-6968180D01*
X23968180Y-7031820D01*
X24031820Y-7031820D01*
X24031820Y-7285820D02*
X24031820Y-7222180D01*
X23968180Y-7222180D01*
X23968180Y-7285820D01*
X24031820Y-7285820D01*
X24031820Y-8031820D02*
X24031820Y-7968180D01*
X23968180Y-7968180D01*
X23968180Y-8031820D01*
X24031820Y-8031820D01*
X24031820Y-8285820D02*
X24031820Y-8222180D01*
X23968180Y-8222180D01*
X23968180Y-8285820D01*
X24031820Y-8285820D01*
X23100000Y-18834000D02*
X23150000Y-18784000D01*
X23100000Y-18734000D01*
X23050000Y-18784000D01*
X23100000Y-18834000D01*
X23100000Y-19063000D02*
X23150000Y-19013000D01*
X23100000Y-18963000D01*
X23050000Y-19013000D01*
X23100000Y-19063000D01*
X23100000Y-19292000D02*
X23150000Y-19242000D01*
X23100000Y-19192000D01*
X23050000Y-19242000D01*
X23100000Y-19292000D01*
X23100000Y-19521000D02*
X23150000Y-19471000D01*
X23100000Y-19421000D01*
X23050000Y-19471000D01*
X23100000Y-19521000D01*
X23100000Y-19750000D02*
X23150000Y-19700000D01*
X23100000Y-19650000D01*
X23050000Y-19700000D01*
X23100000Y-19750000D01*
X23298000Y-18948500D02*
X23348000Y-18898500D01*
X23298000Y-18848500D01*
X23248000Y-18898500D01*
X23298000Y-18948500D01*
X23298000Y-19177500D02*
X23348000Y-19127500D01*
X23298000Y-19077500D01*
X23248000Y-19127500D01*
X23298000Y-19177500D01*
X23298000Y-19406500D02*
X23348000Y-19356500D01*
X23298000Y-19306500D01*
X23248000Y-19356500D01*
X23298000Y-19406500D01*
X23298000Y-19635500D02*
X23348000Y-19585500D01*
X23298000Y-19535500D01*
X23248000Y-19585500D01*
X23298000Y-19635500D01*
X23298000Y-19864500D02*
X23348000Y-19814500D01*
X23298000Y-19764500D01*
X23248000Y-19814500D01*
X23298000Y-19864500D01*
X23496000Y-18834000D02*
X23546000Y-18784000D01*
X23496000Y-18734000D01*
X23446000Y-18784000D01*
X23496000Y-18834000D01*
X23496000Y-19063000D02*
X23546000Y-19013000D01*
X23496000Y-18963000D01*
X23446000Y-19013000D01*
X23496000Y-19063000D01*
X23496000Y-19292000D02*
X23546000Y-19242000D01*
X23496000Y-19192000D01*
X23446000Y-19242000D01*
X23496000Y-19292000D01*
X23496000Y-19521000D02*
X23546000Y-19471000D01*
X23496000Y-19421000D01*
X23446000Y-19471000D01*
X23496000Y-19521000D01*
X23496000Y-19750000D02*
X23546000Y-19700000D01*
X23496000Y-19650000D01*
X23446000Y-19700000D01*
X23496000Y-19750000D01*
X2132000Y-22083000D02*
X2242000Y-22193000D01*
X2242000Y-22083000D02*
X2132000Y-22193000D01*
X2242000Y-22138000D02*
G75*
G03*
X2242000Y-22138000I-55000J0D01*
G01*
X2132000Y-23607000D02*
X2242000Y-23717000D01*
X2242000Y-23607000D02*
X2132000Y-23717000D01*
X2242000Y-23662000D02*
G75*
G03*
X2242000Y-23662000I-55000J0D01*
G01*
X2386000Y-22083000D02*
X2496000Y-22193000D01*
X2496000Y-22083000D02*
X2386000Y-22193000D01*
X2496000Y-22138000D02*
G75*
G03*
X2496000Y-22138000I-55000J0D01*
G01*
X2386000Y-23607000D02*
X2496000Y-23717000D01*
X2496000Y-23607000D02*
X2386000Y-23717000D01*
X2496000Y-23662000D02*
G75*
G03*
X2496000Y-23662000I-55000J0D01*
G01*
X2640000Y-22083000D02*
X2750000Y-22193000D01*
X2750000Y-22083000D02*
X2640000Y-22193000D01*
X2750000Y-22138000D02*
G75*
G03*
X2750000Y-22138000I-55000J0D01*
G01*
X2640000Y-23607000D02*
X2750000Y-23717000D01*
X2750000Y-23607000D02*
X2640000Y-23717000D01*
X2750000Y-23662000D02*
G75*
G03*
X2750000Y-23662000I-55000J0D01*
G01*
X2894000Y-22083000D02*
X3004000Y-22193000D01*
X3004000Y-22083000D02*
X2894000Y-22193000D01*
X3004000Y-22138000D02*
G75*
G03*
X3004000Y-22138000I-55000J0D01*
G01*
X2894000Y-23607000D02*
X3004000Y-23717000D01*
X3004000Y-23607000D02*
X2894000Y-23717000D01*
X3004000Y-23662000D02*
G75*
G03*
X3004000Y-23662000I-55000J0D01*
G01*
X3148000Y-22083000D02*
X3258000Y-22193000D01*
X3258000Y-22083000D02*
X3148000Y-22193000D01*
X3258000Y-22138000D02*
G75*
G03*
X3258000Y-22138000I-55000J0D01*
G01*
X3148000Y-23607000D02*
X3258000Y-23717000D01*
X3258000Y-23607000D02*
X3148000Y-23717000D01*
X3258000Y-23662000D02*
G75*
G03*
X3258000Y-23662000I-55000J0D01*
G01*
X3402000Y-22083000D02*
X3512000Y-22193000D01*
X3512000Y-22083000D02*
X3402000Y-22193000D01*
X3512000Y-22138000D02*
G75*
G03*
X3512000Y-22138000I-55000J0D01*
G01*
X3402000Y-23607000D02*
X3512000Y-23717000D01*
X3512000Y-23607000D02*
X3402000Y-23717000D01*
X3512000Y-23662000D02*
G75*
G03*
X3512000Y-23662000I-55000J0D01*
G01*
X3656000Y-22083000D02*
X3766000Y-22193000D01*
X3766000Y-22083000D02*
X3656000Y-22193000D01*
X3766000Y-22138000D02*
G75*
G03*
X3766000Y-22138000I-55000J0D01*
G01*
X3656000Y-23607000D02*
X3766000Y-23717000D01*
X3766000Y-23607000D02*
X3656000Y-23717000D01*
X3766000Y-23662000D02*
G75*
G03*
X3766000Y-23662000I-55000J0D01*
G01*
X3910000Y-22083000D02*
X4020000Y-22193000D01*
X4020000Y-22083000D02*
X3910000Y-22193000D01*
X4020000Y-22138000D02*
G75*
G03*
X4020000Y-22138000I-55000J0D01*
G01*
X3910000Y-23607000D02*
X4020000Y-23717000D01*
X4020000Y-23607000D02*
X3910000Y-23717000D01*
X4020000Y-23662000D02*
G75*
G03*
X4020000Y-23662000I-55000J0D01*
G01*
X4164000Y-22083000D02*
X4274000Y-22193000D01*
X4274000Y-22083000D02*
X4164000Y-22193000D01*
X4274000Y-22138000D02*
G75*
G03*
X4274000Y-22138000I-55000J0D01*
G01*
X4164000Y-23607000D02*
X4274000Y-23717000D01*
X4274000Y-23607000D02*
X4164000Y-23717000D01*
X4274000Y-23662000D02*
G75*
G03*
X4274000Y-23662000I-55000J0D01*
G01*
X4418000Y-22083000D02*
X4528000Y-22193000D01*
X4528000Y-22083000D02*
X4418000Y-22193000D01*
X4528000Y-22138000D02*
G75*
G03*
X4528000Y-22138000I-55000J0D01*
G01*
X4418000Y-23607000D02*
X4528000Y-23717000D01*
X4528000Y-23607000D02*
X4418000Y-23717000D01*
X4528000Y-23662000D02*
G75*
G03*
X4528000Y-23662000I-55000J0D01*
G01*
X4672000Y-22083000D02*
X4782000Y-22193000D01*
X4782000Y-22083000D02*
X4672000Y-22193000D01*
X4782000Y-22138000D02*
G75*
G03*
X4782000Y-22138000I-55000J0D01*
G01*
X4672000Y-23607000D02*
X4782000Y-23717000D01*
X4782000Y-23607000D02*
X4672000Y-23717000D01*
X4782000Y-23662000D02*
G75*
G03*
X4782000Y-23662000I-55000J0D01*
G01*
X4926000Y-22083000D02*
X5036000Y-22193000D01*
X5036000Y-22083000D02*
X4926000Y-22193000D01*
X5036000Y-22138000D02*
G75*
G03*
X5036000Y-22138000I-55000J0D01*
G01*
X4926000Y-23607000D02*
X5036000Y-23717000D01*
X5036000Y-23607000D02*
X4926000Y-23717000D01*
X5036000Y-23662000D02*
G75*
G03*
X5036000Y-23662000I-55000J0D01*
G01*
X5180000Y-22083000D02*
X5290000Y-22193000D01*
X5290000Y-22083000D02*
X5180000Y-22193000D01*
X5290000Y-22138000D02*
G75*
G03*
X5290000Y-22138000I-55000J0D01*
G01*
X5180000Y-23607000D02*
X5290000Y-23717000D01*
X5290000Y-23607000D02*
X5180000Y-23717000D01*
X5290000Y-23662000D02*
G75*
G03*
X5290000Y-23662000I-55000J0D01*
G01*
X5434000Y-22083000D02*
X5544000Y-22193000D01*
X5544000Y-22083000D02*
X5434000Y-22193000D01*
X5544000Y-22138000D02*
G75*
G03*
X5544000Y-22138000I-55000J0D01*
G01*
X5434000Y-22845000D02*
X5544000Y-22955000D01*
X5544000Y-22845000D02*
X5434000Y-22955000D01*
X5544000Y-22900000D02*
G75*
G03*
X5544000Y-22900000I-55000J0D01*
G01*
X5434000Y-23099000D02*
X5544000Y-23209000D01*
X5544000Y-23099000D02*
X5434000Y-23209000D01*
X5544000Y-23154000D02*
G75*
G03*
X5544000Y-23154000I-55000J0D01*
G01*
X5434000Y-23607000D02*
X5544000Y-23717000D01*
X5544000Y-23607000D02*
X5434000Y-23717000D01*
X5544000Y-23662000D02*
G75*
G03*
X5544000Y-23662000I-55000J0D01*
G01*
X5688000Y-22083000D02*
X5798000Y-22193000D01*
X5798000Y-22083000D02*
X5688000Y-22193000D01*
X5798000Y-22138000D02*
G75*
G03*
X5798000Y-22138000I-55000J0D01*
G01*
X5688000Y-22845000D02*
X5798000Y-22955000D01*
X5798000Y-22845000D02*
X5688000Y-22955000D01*
X5798000Y-22900000D02*
G75*
G03*
X5798000Y-22900000I-55000J0D01*
G01*
X5688000Y-23099000D02*
X5798000Y-23209000D01*
X5798000Y-23099000D02*
X5688000Y-23209000D01*
X5798000Y-23154000D02*
G75*
G03*
X5798000Y-23154000I-55000J0D01*
G01*
X5688000Y-23607000D02*
X5798000Y-23717000D01*
X5798000Y-23607000D02*
X5688000Y-23717000D01*
X5798000Y-23662000D02*
G75*
G03*
X5798000Y-23662000I-55000J0D01*
G01*
X5942000Y-22083000D02*
X6052000Y-22193000D01*
X6052000Y-22083000D02*
X5942000Y-22193000D01*
X6052000Y-22138000D02*
G75*
G03*
X6052000Y-22138000I-55000J0D01*
G01*
X5942000Y-22845000D02*
X6052000Y-22955000D01*
X6052000Y-22845000D02*
X5942000Y-22955000D01*
X6052000Y-22900000D02*
G75*
G03*
X6052000Y-22900000I-55000J0D01*
G01*
X5942000Y-23099000D02*
X6052000Y-23209000D01*
X6052000Y-23099000D02*
X5942000Y-23209000D01*
X6052000Y-23154000D02*
G75*
G03*
X6052000Y-23154000I-55000J0D01*
G01*
X5942000Y-23607000D02*
X6052000Y-23717000D01*
X6052000Y-23607000D02*
X5942000Y-23717000D01*
X6052000Y-23662000D02*
G75*
G03*
X6052000Y-23662000I-55000J0D01*
G01*
X6196000Y-22083000D02*
X6306000Y-22193000D01*
X6306000Y-22083000D02*
X6196000Y-22193000D01*
X6306000Y-22138000D02*
G75*
G03*
X6306000Y-22138000I-55000J0D01*
G01*
X6196000Y-22591000D02*
X6306000Y-22701000D01*
X6306000Y-22591000D02*
X6196000Y-22701000D01*
X6306000Y-22646000D02*
G75*
G03*
X6306000Y-22646000I-55000J0D01*
G01*
X6196000Y-22845000D02*
X6306000Y-22955000D01*
X6306000Y-22845000D02*
X6196000Y-22955000D01*
X6306000Y-22900000D02*
G75*
G03*
X6306000Y-22900000I-55000J0D01*
G01*
X6196000Y-23099000D02*
X6306000Y-23209000D01*
X6306000Y-23099000D02*
X6196000Y-23209000D01*
X6306000Y-23154000D02*
G75*
G03*
X6306000Y-23154000I-55000J0D01*
G01*
X6196000Y-23607000D02*
X6306000Y-23717000D01*
X6306000Y-23607000D02*
X6196000Y-23717000D01*
X6306000Y-23662000D02*
G75*
G03*
X6306000Y-23662000I-55000J0D01*
G01*
X6450000Y-22083000D02*
X6560000Y-22193000D01*
X6560000Y-22083000D02*
X6450000Y-22193000D01*
X6560000Y-22138000D02*
G75*
G03*
X6560000Y-22138000I-55000J0D01*
G01*
X6450000Y-23607000D02*
X6560000Y-23717000D01*
X6560000Y-23607000D02*
X6450000Y-23717000D01*
X6560000Y-23662000D02*
G75*
G03*
X6560000Y-23662000I-55000J0D01*
G01*
X6704000Y-22083000D02*
X6814000Y-22193000D01*
X6814000Y-22083000D02*
X6704000Y-22193000D01*
X6814000Y-22138000D02*
G75*
G03*
X6814000Y-22138000I-55000J0D01*
G01*
X6704000Y-23607000D02*
X6814000Y-23717000D01*
X6814000Y-23607000D02*
X6704000Y-23717000D01*
X6814000Y-23662000D02*
G75*
G03*
X6814000Y-23662000I-55000J0D01*
G01*
X6958000Y-22083000D02*
X7068000Y-22193000D01*
X7068000Y-22083000D02*
X6958000Y-22193000D01*
X7068000Y-22138000D02*
G75*
G03*
X7068000Y-22138000I-55000J0D01*
G01*
X6958000Y-22591000D02*
X7068000Y-22701000D01*
X7068000Y-22591000D02*
X6958000Y-22701000D01*
X7068000Y-22646000D02*
G75*
G03*
X7068000Y-22646000I-55000J0D01*
G01*
X6958000Y-22845000D02*
X7068000Y-22955000D01*
X7068000Y-22845000D02*
X6958000Y-22955000D01*
X7068000Y-22900000D02*
G75*
G03*
X7068000Y-22900000I-55000J0D01*
G01*
X6958000Y-23099000D02*
X7068000Y-23209000D01*
X7068000Y-23099000D02*
X6958000Y-23209000D01*
X7068000Y-23154000D02*
G75*
G03*
X7068000Y-23154000I-55000J0D01*
G01*
X6958000Y-23607000D02*
X7068000Y-23717000D01*
X7068000Y-23607000D02*
X6958000Y-23717000D01*
X7068000Y-23662000D02*
G75*
G03*
X7068000Y-23662000I-55000J0D01*
G01*
X14484000Y-13791000D02*
X14634000Y-13941000D01*
X14634000Y-13791000D02*
X14484000Y-13941000D01*
X14559000Y-13791000D02*
X14559000Y-13941000D01*
X14484000Y-13866000D02*
X14634000Y-13866000D01*
X15119000Y-13537000D02*
X15269000Y-13687000D01*
X15269000Y-13537000D02*
X15119000Y-13687000D01*
X15194000Y-13537000D02*
X15194000Y-13687000D01*
X15119000Y-13612000D02*
X15269000Y-13612000D01*
X19122074Y-22914570D02*
X19272074Y-23064570D01*
X19272074Y-22914570D02*
X19122074Y-23064570D01*
X19197074Y-22914570D02*
X19197074Y-23064570D01*
X19122074Y-22989570D02*
X19272074Y-22989570D01*
X19799000Y-23012100D02*
X19949000Y-23162100D01*
X19949000Y-23012100D02*
X19799000Y-23162100D01*
X19874000Y-23012100D02*
X19874000Y-23162100D01*
X19799000Y-23087100D02*
X19949000Y-23087100D01*
X15904000Y-6411000D02*
X16054000Y-6561000D01*
X16054000Y-6411000D02*
X15904000Y-6561000D01*
X15979000Y-6411000D02*
X15979000Y-6561000D01*
X15904000Y-6486000D02*
X16054000Y-6486000D01*
X16539000Y-6157000D02*
X16689000Y-6307000D01*
X16689000Y-6157000D02*
X16539000Y-6307000D01*
X16614000Y-6157000D02*
X16614000Y-6307000D01*
X16539000Y-6232000D02*
X16689000Y-6232000D01*
X7344000Y-16651000D02*
X7494000Y-16801000D01*
X7494000Y-16651000D02*
X7344000Y-16801000D01*
X7419000Y-16651000D02*
X7419000Y-16801000D01*
X7344000Y-16726000D02*
X7494000Y-16726000D01*
X7979000Y-16397000D02*
X8129000Y-16547000D01*
X8129000Y-16397000D02*
X7979000Y-16547000D01*
X8054000Y-16397000D02*
X8054000Y-16547000D01*
X7979000Y-16472000D02*
X8129000Y-16472000D01*
X21497000Y-12591000D02*
X21647000Y-12741000D01*
X21647000Y-12591000D02*
X21497000Y-12741000D01*
X21572000Y-12591000D02*
X21572000Y-12741000D01*
X21497000Y-12666000D02*
X21647000Y-12666000D01*
X21751000Y-13226000D02*
X21901000Y-13376000D01*
X21901000Y-13226000D02*
X21751000Y-13376000D01*
X21826000Y-13226000D02*
X21826000Y-13376000D01*
X21751000Y-13301000D02*
X21901000Y-13301000D01*
X9724000Y-11411000D02*
X9874000Y-11561000D01*
X9874000Y-11411000D02*
X9724000Y-11561000D01*
X9799000Y-11411000D02*
X9799000Y-11561000D01*
X9724000Y-11486000D02*
X9874000Y-11486000D01*
X10359000Y-11157000D02*
X10509000Y-11307000D01*
X10509000Y-11157000D02*
X10359000Y-11307000D01*
X10434000Y-11157000D02*
X10434000Y-11307000D01*
X10359000Y-11232000D02*
X10509000Y-11232000D01*
X19244000Y-11631000D02*
X19394000Y-11781000D01*
X19394000Y-11631000D02*
X19244000Y-11781000D01*
X19319000Y-11631000D02*
X19319000Y-11781000D01*
X19244000Y-11706000D02*
X19394000Y-11706000D01*
X19879000Y-11377000D02*
X20029000Y-11527000D01*
X20029000Y-11377000D02*
X19879000Y-11527000D01*
X19954000Y-11377000D02*
X19954000Y-11527000D01*
X19879000Y-11452000D02*
X20029000Y-11452000D01*
X12104000Y-8791000D02*
X12254000Y-8941000D01*
X12254000Y-8791000D02*
X12104000Y-8941000D01*
X12179000Y-8791000D02*
X12179000Y-8941000D01*
X12104000Y-8866000D02*
X12254000Y-8866000D01*
X12739000Y-8537000D02*
X12889000Y-8687000D01*
X12889000Y-8537000D02*
X12739000Y-8687000D01*
X12814000Y-8537000D02*
X12814000Y-8687000D01*
X12739000Y-8612000D02*
X12889000Y-8612000D01*
X4484000Y-14271000D02*
X4634000Y-14421000D01*
X4634000Y-14271000D02*
X4484000Y-14421000D01*
X4559000Y-14271000D02*
X4559000Y-14421000D01*
X4484000Y-14346000D02*
X4634000Y-14346000D01*
X5119000Y-14017000D02*
X5269000Y-14167000D01*
X5269000Y-14017000D02*
X5119000Y-14167000D01*
X5194000Y-14017000D02*
X5194000Y-14167000D01*
X5119000Y-14092000D02*
X5269000Y-14092000D01*
X16864000Y-9271000D02*
X17014000Y-9421000D01*
X17014000Y-9271000D02*
X16864000Y-9421000D01*
X16939000Y-9271000D02*
X16939000Y-9421000D01*
X16864000Y-9346000D02*
X17014000Y-9346000D01*
X17499000Y-9017000D02*
X17649000Y-9167000D01*
X17649000Y-9017000D02*
X17499000Y-9167000D01*
X17574000Y-9017000D02*
X17574000Y-9167000D01*
X17499000Y-9092000D02*
X17649000Y-9092000D01*
X9724000Y-9031000D02*
X9874000Y-9181000D01*
X9874000Y-9031000D02*
X9724000Y-9181000D01*
X9799000Y-9031000D02*
X9799000Y-9181000D01*
X9724000Y-9106000D02*
X9874000Y-9106000D01*
X10359000Y-8777000D02*
X10509000Y-8927000D01*
X10509000Y-8777000D02*
X10359000Y-8927000D01*
X10434000Y-8777000D02*
X10434000Y-8927000D01*
X10359000Y-8852000D02*
X10509000Y-8852000D01*
X4484000Y-16651000D02*
X4634000Y-16801000D01*
X4634000Y-16651000D02*
X4484000Y-16801000D01*
X4559000Y-16651000D02*
X4559000Y-16801000D01*
X4484000Y-16726000D02*
X4634000Y-16726000D01*
X5119000Y-16397000D02*
X5269000Y-16547000D01*
X5269000Y-16397000D02*
X5119000Y-16547000D01*
X5194000Y-16397000D02*
X5194000Y-16547000D01*
X5119000Y-16472000D02*
X5269000Y-16472000D01*
X14504000Y-16171000D02*
X14654000Y-16321000D01*
X14654000Y-16171000D02*
X14504000Y-16321000D01*
X14579000Y-16171000D02*
X14579000Y-16321000D01*
X14504000Y-16246000D02*
X14654000Y-16246000D01*
X15139000Y-15917000D02*
X15289000Y-16067000D01*
X15289000Y-15917000D02*
X15139000Y-16067000D01*
X15214000Y-15917000D02*
X15214000Y-16067000D01*
X15139000Y-15992000D02*
X15289000Y-15992000D01*
X4484000Y-11891000D02*
X4634000Y-12041000D01*
X4634000Y-11891000D02*
X4484000Y-12041000D01*
X4559000Y-11891000D02*
X4559000Y-12041000D01*
X4484000Y-11966000D02*
X4634000Y-11966000D01*
X5119000Y-11637000D02*
X5269000Y-11787000D01*
X5269000Y-11637000D02*
X5119000Y-11787000D01*
X5194000Y-11637000D02*
X5194000Y-11787000D01*
X5119000Y-11712000D02*
X5269000Y-11712000D01*
X13044000Y-6411000D02*
X13194000Y-6561000D01*
X13194000Y-6411000D02*
X13044000Y-6561000D01*
X13119000Y-6411000D02*
X13119000Y-6561000D01*
X13044000Y-6486000D02*
X13194000Y-6486000D01*
X13679000Y-6157000D02*
X13829000Y-6307000D01*
X13829000Y-6157000D02*
X13679000Y-6307000D01*
X13754000Y-6157000D02*
X13754000Y-6307000D01*
X13679000Y-6232000D02*
X13829000Y-6232000D01*
X4464000Y-6431000D02*
X4614000Y-6581000D01*
X4614000Y-6431000D02*
X4464000Y-6581000D01*
X4539000Y-6431000D02*
X4539000Y-6581000D01*
X4464000Y-6506000D02*
X4614000Y-6506000D01*
X5099000Y-6177000D02*
X5249000Y-6327000D01*
X5249000Y-6177000D02*
X5099000Y-6327000D01*
X5174000Y-6177000D02*
X5174000Y-6327000D01*
X5099000Y-6252000D02*
X5249000Y-6252000D01*
X7324000Y-6411000D02*
X7474000Y-6561000D01*
X7474000Y-6411000D02*
X7324000Y-6561000D01*
X7399000Y-6411000D02*
X7399000Y-6561000D01*
X7324000Y-6486000D02*
X7474000Y-6486000D01*
X7959000Y-6157000D02*
X8109000Y-6307000D01*
X8109000Y-6157000D02*
X7959000Y-6307000D01*
X8034000Y-6157000D02*
X8034000Y-6307000D01*
X7959000Y-6232000D02*
X8109000Y-6232000D01*
X12104000Y-18311000D02*
X12254000Y-18461000D01*
X12254000Y-18311000D02*
X12104000Y-18461000D01*
X12179000Y-18311000D02*
X12179000Y-18461000D01*
X12104000Y-18386000D02*
X12254000Y-18386000D01*
X12739000Y-18057000D02*
X12889000Y-18207000D01*
X12889000Y-18057000D02*
X12739000Y-18207000D01*
X12814000Y-18057000D02*
X12814000Y-18207000D01*
X12739000Y-18132000D02*
X12889000Y-18132000D01*
X21624000Y-9251000D02*
X21774000Y-9401000D01*
X21774000Y-9251000D02*
X21624000Y-9401000D01*
X21699000Y-9251000D02*
X21699000Y-9401000D01*
X21624000Y-9326000D02*
X21774000Y-9326000D01*
X22259000Y-8997000D02*
X22409000Y-9147000D01*
X22409000Y-8997000D02*
X22259000Y-9147000D01*
X22334000Y-8997000D02*
X22334000Y-9147000D01*
X22259000Y-9072000D02*
X22409000Y-9072000D01*
X19244000Y-9271000D02*
X19394000Y-9421000D01*
X19394000Y-9271000D02*
X19244000Y-9421000D01*
X19319000Y-9271000D02*
X19319000Y-9421000D01*
X19244000Y-9346000D02*
X19394000Y-9346000D01*
X19879000Y-9017000D02*
X20029000Y-9167000D01*
X20029000Y-9017000D02*
X19879000Y-9167000D01*
X19954000Y-9017000D02*
X19954000Y-9167000D01*
X19879000Y-9092000D02*
X20029000Y-9092000D01*
X20302074Y-20854571D02*
X20452074Y-21004571D01*
X20452074Y-20854571D02*
X20302074Y-21004571D01*
X20377074Y-20854571D02*
X20377074Y-21004571D01*
X20302074Y-20929571D02*
X20452074Y-20929571D01*
X20979000Y-20952100D02*
X21129000Y-21102100D01*
X21129000Y-20952100D02*
X20979000Y-21102100D01*
X21054000Y-20952100D02*
X21054000Y-21102100D01*
X20979000Y-21027100D02*
X21129000Y-21027100D01*
X4984000Y-19031000D02*
X5134000Y-19181000D01*
X5134000Y-19031000D02*
X4984000Y-19181000D01*
X5059000Y-19031000D02*
X5059000Y-19181000D01*
X4984000Y-19106000D02*
X5134000Y-19106000D01*
X5619000Y-18777000D02*
X5769000Y-18927000D01*
X5769000Y-18777000D02*
X5619000Y-18927000D01*
X5694000Y-18777000D02*
X5694000Y-18927000D01*
X5619000Y-18852000D02*
X5769000Y-18852000D01*
X7344000Y-11891000D02*
X7494000Y-12041000D01*
X7494000Y-11891000D02*
X7344000Y-12041000D01*
X7419000Y-11891000D02*
X7419000Y-12041000D01*
X7344000Y-11966000D02*
X7494000Y-11966000D01*
X7979000Y-11637000D02*
X8129000Y-11787000D01*
X8129000Y-11637000D02*
X7979000Y-11787000D01*
X8054000Y-11637000D02*
X8054000Y-11787000D01*
X7979000Y-11712000D02*
X8129000Y-11712000D01*
X4484000Y-9511000D02*
X4634000Y-9661000D01*
X4634000Y-9511000D02*
X4484000Y-9661000D01*
X4559000Y-9511000D02*
X4559000Y-9661000D01*
X4484000Y-9586000D02*
X4634000Y-9586000D01*
X5119000Y-9257000D02*
X5269000Y-9407000D01*
X5269000Y-9257000D02*
X5119000Y-9407000D01*
X5194000Y-9257000D02*
X5194000Y-9407000D01*
X5119000Y-9332000D02*
X5269000Y-9332000D01*
X10184000Y-6411000D02*
X10334000Y-6561000D01*
X10334000Y-6411000D02*
X10184000Y-6561000D01*
X10259000Y-6411000D02*
X10259000Y-6561000D01*
X10184000Y-6486000D02*
X10334000Y-6486000D01*
X10819000Y-6157000D02*
X10969000Y-6307000D01*
X10969000Y-6157000D02*
X10819000Y-6307000D01*
X10894000Y-6157000D02*
X10894000Y-6307000D01*
X10819000Y-6232000D02*
X10969000Y-6232000D01*
X21604000Y-6411000D02*
X21754000Y-6561000D01*
X21754000Y-6411000D02*
X21604000Y-6561000D01*
X21679000Y-6411000D02*
X21679000Y-6561000D01*
X21604000Y-6486000D02*
X21754000Y-6486000D01*
X22239000Y-6157000D02*
X22389000Y-6307000D01*
X22389000Y-6157000D02*
X22239000Y-6307000D01*
X22314000Y-6157000D02*
X22314000Y-6307000D01*
X22239000Y-6232000D02*
X22389000Y-6232000D01*
X14484000Y-11411000D02*
X14634000Y-11561000D01*
X14634000Y-11411000D02*
X14484000Y-11561000D01*
X14559000Y-11411000D02*
X14559000Y-11561000D01*
X14484000Y-11486000D02*
X14634000Y-11486000D01*
X15119000Y-11157000D02*
X15269000Y-11307000D01*
X15269000Y-11157000D02*
X15119000Y-11307000D01*
X15194000Y-11157000D02*
X15194000Y-11307000D01*
X15119000Y-11232000D02*
X15269000Y-11232000D01*
X9724000Y-18551000D02*
X9874000Y-18701000D01*
X9874000Y-18551000D02*
X9724000Y-18701000D01*
X9799000Y-18551000D02*
X9799000Y-18701000D01*
X9724000Y-18626000D02*
X9874000Y-18626000D01*
X10359000Y-18297000D02*
X10509000Y-18447000D01*
X10509000Y-18297000D02*
X10359000Y-18447000D01*
X10434000Y-18297000D02*
X10434000Y-18447000D01*
X10359000Y-18372000D02*
X10509000Y-18372000D01*
X12104000Y-13551000D02*
X12254000Y-13701000D01*
X12254000Y-13551000D02*
X12104000Y-13701000D01*
X12179000Y-13551000D02*
X12179000Y-13701000D01*
X12104000Y-13626000D02*
X12254000Y-13626000D01*
X12739000Y-13297000D02*
X12889000Y-13447000D01*
X12889000Y-13297000D02*
X12739000Y-13447000D01*
X12814000Y-13297000D02*
X12814000Y-13447000D01*
X12739000Y-13372000D02*
X12889000Y-13372000D01*
X18764000Y-6411000D02*
X18914000Y-6561000D01*
X18914000Y-6411000D02*
X18764000Y-6561000D01*
X18839000Y-6411000D02*
X18839000Y-6561000D01*
X18764000Y-6486000D02*
X18914000Y-6486000D01*
X19399000Y-6157000D02*
X19549000Y-6307000D01*
X19549000Y-6157000D02*
X19399000Y-6307000D01*
X19474000Y-6157000D02*
X19474000Y-6307000D01*
X19399000Y-6232000D02*
X19549000Y-6232000D01*
X17062074Y-21714571D02*
X17212074Y-21864571D01*
X17212074Y-21714571D02*
X17062074Y-21864571D01*
X17137074Y-21714571D02*
X17137074Y-21864571D01*
X17062074Y-21789571D02*
X17212074Y-21789571D01*
X17739000Y-21812100D02*
X17889000Y-21962100D01*
X17889000Y-21812100D02*
X17739000Y-21962100D01*
X17814000Y-21812100D02*
X17814000Y-21962100D01*
X17739000Y-21887100D02*
X17889000Y-21887100D01*
X19244000Y-14031000D02*
X19394000Y-14181000D01*
X19394000Y-14031000D02*
X19244000Y-14181000D01*
X19319000Y-14031000D02*
X19319000Y-14181000D01*
X19244000Y-14106000D02*
X19394000Y-14106000D01*
X19879000Y-13777000D02*
X20029000Y-13927000D01*
X20029000Y-13777000D02*
X19879000Y-13927000D01*
X19954000Y-13777000D02*
X19954000Y-13927000D01*
X19879000Y-13852000D02*
X20029000Y-13852000D01*
X12104000Y-15931000D02*
X12254000Y-16081000D01*
X12254000Y-15931000D02*
X12104000Y-16081000D01*
X12179000Y-15931000D02*
X12179000Y-16081000D01*
X12104000Y-16006000D02*
X12254000Y-16006000D01*
X12739000Y-15677000D02*
X12889000Y-15827000D01*
X12889000Y-15677000D02*
X12739000Y-15827000D01*
X12814000Y-15677000D02*
X12814000Y-15827000D01*
X12739000Y-15752000D02*
X12889000Y-15752000D01*
X7344000Y-19031000D02*
X7494000Y-19181000D01*
X7494000Y-19031000D02*
X7344000Y-19181000D01*
X7419000Y-19031000D02*
X7419000Y-19181000D01*
X7344000Y-19106000D02*
X7494000Y-19106000D01*
X7979000Y-18777000D02*
X8129000Y-18927000D01*
X8129000Y-18777000D02*
X7979000Y-18927000D01*
X8054000Y-18777000D02*
X8054000Y-18927000D01*
X7979000Y-18852000D02*
X8129000Y-18852000D01*
X14484000Y-9051000D02*
X14634000Y-9201000D01*
X14634000Y-9051000D02*
X14484000Y-9201000D01*
X14559000Y-9051000D02*
X14559000Y-9201000D01*
X14484000Y-9126000D02*
X14634000Y-9126000D01*
X15119000Y-8797000D02*
X15269000Y-8947000D01*
X15269000Y-8797000D02*
X15119000Y-8947000D01*
X15194000Y-8797000D02*
X15194000Y-8947000D01*
X15119000Y-8872000D02*
X15269000Y-8872000D01*
X9724000Y-13791000D02*
X9874000Y-13941000D01*
X9874000Y-13791000D02*
X9724000Y-13941000D01*
X9799000Y-13791000D02*
X9799000Y-13941000D01*
X9724000Y-13866000D02*
X9874000Y-13866000D01*
X10359000Y-13537000D02*
X10509000Y-13687000D01*
X10509000Y-13537000D02*
X10359000Y-13687000D01*
X10434000Y-13537000D02*
X10434000Y-13687000D01*
X10359000Y-13612000D02*
X10509000Y-13612000D01*
X16864000Y-16391000D02*
X17014000Y-16541000D01*
X17014000Y-16391000D02*
X16864000Y-16541000D01*
X16939000Y-16391000D02*
X16939000Y-16541000D01*
X16864000Y-16466000D02*
X17014000Y-16466000D01*
X17499000Y-16137000D02*
X17649000Y-16287000D01*
X17649000Y-16137000D02*
X17499000Y-16287000D01*
X17574000Y-16137000D02*
X17574000Y-16287000D01*
X17499000Y-16212000D02*
X17649000Y-16212000D01*
X14484000Y-18551000D02*
X14634000Y-18701000D01*
X14634000Y-18551000D02*
X14484000Y-18701000D01*
X14559000Y-18551000D02*
X14559000Y-18701000D01*
X14484000Y-18626000D02*
X14634000Y-18626000D01*
X15119000Y-18297000D02*
X15269000Y-18447000D01*
X15269000Y-18297000D02*
X15119000Y-18447000D01*
X15194000Y-18297000D02*
X15194000Y-18447000D01*
X15119000Y-18372000D02*
X15269000Y-18372000D01*
X21182074Y-24094570D02*
X21332074Y-24244570D01*
X21332074Y-24094570D02*
X21182074Y-24244570D01*
X21257074Y-24094570D02*
X21257074Y-24244570D01*
X21182074Y-24169570D02*
X21332074Y-24169570D01*
X21859000Y-24192100D02*
X22009000Y-24342100D01*
X22009000Y-24192100D02*
X21859000Y-24342100D01*
X21934000Y-24192100D02*
X21934000Y-24342100D01*
X21859000Y-24267100D02*
X22009000Y-24267100D01*
X7344000Y-9511000D02*
X7494000Y-9661000D01*
X7494000Y-9511000D02*
X7344000Y-9661000D01*
X7419000Y-9511000D02*
X7419000Y-9661000D01*
X7344000Y-9586000D02*
X7494000Y-9586000D01*
X7979000Y-9257000D02*
X8129000Y-9407000D01*
X8129000Y-9257000D02*
X7979000Y-9407000D01*
X8054000Y-9257000D02*
X8054000Y-9407000D01*
X7979000Y-9332000D02*
X8129000Y-9332000D01*
X16864000Y-14031000D02*
X17014000Y-14181000D01*
X17014000Y-14031000D02*
X16864000Y-14181000D01*
X16939000Y-14031000D02*
X16939000Y-14181000D01*
X16864000Y-14106000D02*
X17014000Y-14106000D01*
X17499000Y-13777000D02*
X17649000Y-13927000D01*
X17649000Y-13777000D02*
X17499000Y-13927000D01*
X17574000Y-13777000D02*
X17574000Y-13927000D01*
X17499000Y-13852000D02*
X17649000Y-13852000D01*
X21497000Y-15931000D02*
X21647000Y-16081000D01*
X21647000Y-15931000D02*
X21497000Y-16081000D01*
X21572000Y-15931000D02*
X21572000Y-16081000D01*
X21497000Y-16006000D02*
X21647000Y-16006000D01*
X21751000Y-16566000D02*
X21901000Y-16716000D01*
X21901000Y-16566000D02*
X21751000Y-16716000D01*
X21826000Y-16566000D02*
X21826000Y-16716000D01*
X21751000Y-16641000D02*
X21901000Y-16641000D01*
X19244000Y-16411000D02*
X19394000Y-16561000D01*
X19394000Y-16411000D02*
X19244000Y-16561000D01*
X19319000Y-16411000D02*
X19319000Y-16561000D01*
X19244000Y-16486000D02*
X19394000Y-16486000D01*
X19879000Y-16157000D02*
X20029000Y-16307000D01*
X20029000Y-16157000D02*
X19879000Y-16307000D01*
X19954000Y-16157000D02*
X19954000Y-16307000D01*
X19879000Y-16232000D02*
X20029000Y-16232000D01*
X12104000Y-11171000D02*
X12254000Y-11321000D01*
X12254000Y-11171000D02*
X12104000Y-11321000D01*
X12179000Y-11171000D02*
X12179000Y-11321000D01*
X12104000Y-11246000D02*
X12254000Y-11246000D01*
X12739000Y-10917000D02*
X12889000Y-11067000D01*
X12889000Y-10917000D02*
X12739000Y-11067000D01*
X12814000Y-10917000D02*
X12814000Y-11067000D01*
X12739000Y-10992000D02*
X12889000Y-10992000D01*
X7344000Y-14271000D02*
X7494000Y-14421000D01*
X7494000Y-14271000D02*
X7344000Y-14421000D01*
X7419000Y-14271000D02*
X7419000Y-14421000D01*
X7344000Y-14346000D02*
X7494000Y-14346000D01*
X7979000Y-14017000D02*
X8129000Y-14167000D01*
X8129000Y-14017000D02*
X7979000Y-14167000D01*
X8054000Y-14017000D02*
X8054000Y-14167000D01*
X7979000Y-14092000D02*
X8129000Y-14092000D01*
X9724000Y-16171000D02*
X9874000Y-16321000D01*
X9874000Y-16171000D02*
X9724000Y-16321000D01*
X9799000Y-16171000D02*
X9799000Y-16321000D01*
X9724000Y-16246000D02*
X9874000Y-16246000D01*
X10359000Y-15917000D02*
X10509000Y-16067000D01*
X10509000Y-15917000D02*
X10359000Y-16067000D01*
X10434000Y-15917000D02*
X10434000Y-16067000D01*
X10359000Y-15992000D02*
X10509000Y-15992000D01*
X16864000Y-11651000D02*
X17014000Y-11801000D01*
X17014000Y-11651000D02*
X16864000Y-11801000D01*
X16939000Y-11651000D02*
X16939000Y-11801000D01*
X16864000Y-11726000D02*
X17014000Y-11726000D01*
X17499000Y-11397000D02*
X17649000Y-11547000D01*
X17649000Y-11397000D02*
X17499000Y-11547000D01*
X17574000Y-11397000D02*
X17574000Y-11547000D01*
X17499000Y-11472000D02*
X17649000Y-11472000D01*
X2535000Y-15635000D02*
X2965000Y-16065000D01*
X2965000Y-15635000D02*
X2535000Y-16065000D01*
X2902029Y-16002029D02*
X2902029Y-15697971D01*
X2597971Y-15697971D01*
X2597971Y-16002029D01*
X2902029Y-16002029D01*
X13035000Y-4835000D02*
X13465000Y-5265000D01*
X13465000Y-4835000D02*
X13035000Y-5265000D01*
X13402029Y-5202029D02*
X13402029Y-4897971D01*
X13097971Y-4897971D01*
X13097971Y-5202029D01*
X13402029Y-5202029D01*
X13035000Y-26435000D02*
X13465000Y-26865000D01*
X13465000Y-26435000D02*
X13035000Y-26865000D01*
X13402029Y-26802029D02*
X13402029Y-26497971D01*
X13097971Y-26497971D01*
X13097971Y-26802029D01*
X13402029Y-26802029D01*
X23535000Y-26435000D02*
X23965000Y-26865000D01*
X23965000Y-26435000D02*
X23535000Y-26865000D01*
X23902029Y-26802029D02*
X23902029Y-26497971D01*
X23597971Y-26497971D01*
X23597971Y-26802029D01*
X23902029Y-26802029D01*
X23535000Y-15635000D02*
X23965000Y-16065000D01*
X23965000Y-15635000D02*
X23535000Y-16065000D01*
X23902029Y-16002029D02*
X23902029Y-15697971D01*
X23597971Y-15697971D01*
X23597971Y-16002029D01*
X23902029Y-16002029D01*
X2535000Y-26435000D02*
X2965000Y-26865000D01*
X2965000Y-26435000D02*
X2535000Y-26865000D01*
X2902029Y-26802029D02*
X2902029Y-26497971D01*
X2597971Y-26497971D01*
X2597971Y-26802029D01*
X2902029Y-26802029D01*
X2535000Y-4835000D02*
X2965000Y-5265000D01*
X2965000Y-4835000D02*
X2535000Y-5265000D01*
X2902029Y-5202029D02*
X2902029Y-4897971D01*
X2597971Y-4897971D01*
X2597971Y-5202029D01*
X2902029Y-5202029D01*
X23535000Y-4835000D02*
X23965000Y-5265000D01*
X23965000Y-4835000D02*
X23535000Y-5265000D01*
X23902029Y-5202029D02*
X23902029Y-4897971D01*
X23597971Y-4897971D01*
X23597971Y-5202029D01*
X23902029Y-5202029D01*
D12*
X2309937Y-27918299D02*
X2309937Y-27618299D01*
X2381365Y-27618299D01*
X2424223Y-27632584D01*
X2452794Y-27661156D01*
X2467080Y-27689727D01*
X2481365Y-27746870D01*
X2481365Y-27789727D01*
X2467080Y-27846870D01*
X2452794Y-27875441D01*
X2424223Y-27904013D01*
X2381365Y-27918299D01*
X2309937Y-27918299D01*
X2609937Y-27918299D02*
X2609937Y-27718299D01*
X2609937Y-27775441D02*
X2624223Y-27746870D01*
X2638508Y-27732584D01*
X2667080Y-27718299D01*
X2695651Y-27718299D01*
X2795651Y-27918299D02*
X2795651Y-27718299D01*
X2795651Y-27618299D02*
X2781365Y-27632584D01*
X2795651Y-27646870D01*
X2809937Y-27632584D01*
X2795651Y-27618299D01*
X2795651Y-27646870D01*
X2981365Y-27918299D02*
X2952794Y-27904013D01*
X2938508Y-27875441D01*
X2938508Y-27618299D01*
X3138508Y-27918299D02*
X3109937Y-27904013D01*
X3095651Y-27875441D01*
X3095651Y-27618299D01*
X3481365Y-27918299D02*
X3481365Y-27618299D01*
X3581365Y-27832584D01*
X3681365Y-27618299D01*
X3681365Y-27918299D01*
X3952794Y-27918299D02*
X3952794Y-27761156D01*
X3938508Y-27732584D01*
X3909937Y-27718299D01*
X3852794Y-27718299D01*
X3824222Y-27732584D01*
X3952794Y-27904013D02*
X3924222Y-27918299D01*
X3852794Y-27918299D01*
X3824222Y-27904013D01*
X3809937Y-27875441D01*
X3809937Y-27846870D01*
X3824222Y-27818299D01*
X3852794Y-27804013D01*
X3924222Y-27804013D01*
X3952794Y-27789727D01*
X4095651Y-27718299D02*
X4095651Y-28018299D01*
X4095651Y-27732584D02*
X4124222Y-27718299D01*
X4181365Y-27718299D01*
X4209937Y-27732584D01*
X4224223Y-27746870D01*
X4238508Y-27775441D01*
X4238508Y-27861156D01*
X4224223Y-27889727D01*
X4209937Y-27904013D01*
X4181365Y-27918299D01*
X4124222Y-27918299D01*
X4095651Y-27904013D01*
X4367080Y-27889727D02*
X4381365Y-27904013D01*
X4367080Y-27918299D01*
X4352794Y-27904013D01*
X4367080Y-27889727D01*
X4367080Y-27918299D01*
X4367080Y-27732584D02*
X4381365Y-27746870D01*
X4367080Y-27761156D01*
X4352794Y-27746870D01*
X4367080Y-27732584D01*
X4367080Y-27761156D01*
X1983508Y-28392584D02*
X2023508Y-28432584D01*
X2023508Y-28392584D02*
X1983508Y-28432584D01*
X2367080Y-28248299D02*
X2395651Y-28248299D01*
X2424223Y-28262584D01*
X2438508Y-28276870D01*
X2452794Y-28305441D01*
X2467080Y-28362584D01*
X2467080Y-28434013D01*
X2452794Y-28491156D01*
X2438508Y-28519727D01*
X2424223Y-28534013D01*
X2395651Y-28548299D01*
X2367080Y-28548299D01*
X2338508Y-28534013D01*
X2324223Y-28519727D01*
X2309937Y-28491156D01*
X2295651Y-28434013D01*
X2295651Y-28362584D01*
X2309937Y-28305441D01*
X2324223Y-28276870D01*
X2338508Y-28262584D01*
X2367080Y-28248299D01*
X2595651Y-28519727D02*
X2609937Y-28534013D01*
X2595651Y-28548299D01*
X2581365Y-28534013D01*
X2595651Y-28519727D01*
X2595651Y-28548299D01*
X2867080Y-28348299D02*
X2867080Y-28548299D01*
X2795651Y-28234013D02*
X2724223Y-28448299D01*
X2909937Y-28448299D01*
X3081365Y-28248299D02*
X3109937Y-28248299D01*
X3138508Y-28262584D01*
X3152794Y-28276870D01*
X3167080Y-28305441D01*
X3181365Y-28362584D01*
X3181365Y-28434013D01*
X3167080Y-28491156D01*
X3152794Y-28519727D01*
X3138508Y-28534013D01*
X3109937Y-28548299D01*
X3081365Y-28548299D01*
X3052794Y-28534013D01*
X3038508Y-28519727D01*
X3024222Y-28491156D01*
X3009937Y-28434013D01*
X3009937Y-28362584D01*
X3024222Y-28305441D01*
X3038508Y-28276870D01*
X3052794Y-28262584D01*
X3081365Y-28248299D01*
X3309937Y-28548299D02*
X3309937Y-28348299D01*
X3309937Y-28376870D02*
X3324222Y-28362584D01*
X3352794Y-28348299D01*
X3395651Y-28348299D01*
X3424222Y-28362584D01*
X3438508Y-28391156D01*
X3438508Y-28548299D01*
X3438508Y-28391156D02*
X3452794Y-28362584D01*
X3481365Y-28348299D01*
X3524222Y-28348299D01*
X3552794Y-28362584D01*
X3567080Y-28391156D01*
X3567080Y-28548299D01*
X3709937Y-28548299D02*
X3709937Y-28348299D01*
X3709937Y-28376870D02*
X3724222Y-28362584D01*
X3752794Y-28348299D01*
X3795651Y-28348299D01*
X3824222Y-28362584D01*
X3838508Y-28391156D01*
X3838508Y-28548299D01*
X3838508Y-28391156D02*
X3852794Y-28362584D01*
X3881365Y-28348299D01*
X3924222Y-28348299D01*
X3952794Y-28362584D01*
X3967080Y-28391156D01*
X3967080Y-28548299D01*
X4552794Y-28234013D02*
X4295651Y-28619727D01*
X4938508Y-28248299D02*
X4967080Y-28248299D01*
X4995651Y-28262584D01*
X5009937Y-28276870D01*
X5024223Y-28305441D01*
X5038508Y-28362584D01*
X5038508Y-28434013D01*
X5024223Y-28491156D01*
X5009937Y-28519727D01*
X4995651Y-28534013D01*
X4967080Y-28548299D01*
X4938508Y-28548299D01*
X4909937Y-28534013D01*
X4895651Y-28519727D01*
X4881365Y-28491156D01*
X4867080Y-28434013D01*
X4867080Y-28362584D01*
X4881365Y-28305441D01*
X4895651Y-28276870D01*
X4909937Y-28262584D01*
X4938508Y-28248299D01*
X5167080Y-28519727D02*
X5181365Y-28534013D01*
X5167080Y-28548299D01*
X5152794Y-28534013D01*
X5167080Y-28519727D01*
X5167080Y-28548299D01*
X5367080Y-28248299D02*
X5395651Y-28248299D01*
X5424223Y-28262584D01*
X5438508Y-28276870D01*
X5452794Y-28305441D01*
X5467080Y-28362584D01*
X5467080Y-28434013D01*
X5452794Y-28491156D01*
X5438508Y-28519727D01*
X5424223Y-28534013D01*
X5395651Y-28548299D01*
X5367080Y-28548299D01*
X5338508Y-28534013D01*
X5324223Y-28519727D01*
X5309937Y-28491156D01*
X5295651Y-28434013D01*
X5295651Y-28362584D01*
X5309937Y-28305441D01*
X5324223Y-28276870D01*
X5338508Y-28262584D01*
X5367080Y-28248299D01*
X5752794Y-28548299D02*
X5581365Y-28548299D01*
X5667080Y-28548299D02*
X5667080Y-28248299D01*
X5638508Y-28291156D01*
X5609937Y-28319727D01*
X5581365Y-28334013D01*
X6009937Y-28248299D02*
X5952794Y-28248299D01*
X5924222Y-28262584D01*
X5909937Y-28276870D01*
X5881365Y-28319727D01*
X5867080Y-28376870D01*
X5867080Y-28491156D01*
X5881365Y-28519727D01*
X5895651Y-28534013D01*
X5924222Y-28548299D01*
X5981365Y-28548299D01*
X6009937Y-28534013D01*
X6024222Y-28519727D01*
X6038508Y-28491156D01*
X6038508Y-28419727D01*
X6024222Y-28391156D01*
X6009937Y-28376870D01*
X5981365Y-28362584D01*
X5924222Y-28362584D01*
X5895651Y-28376870D01*
X5881365Y-28391156D01*
X5867080Y-28419727D01*
X6152794Y-28248299D02*
X6152794Y-28305441D01*
X6267080Y-28248299D02*
X6267080Y-28305441D01*
X6709937Y-28662584D02*
X6695651Y-28648299D01*
X6667080Y-28605441D01*
X6652794Y-28576870D01*
X6638508Y-28534013D01*
X6624222Y-28462584D01*
X6624222Y-28405441D01*
X6638508Y-28334013D01*
X6652794Y-28291156D01*
X6667080Y-28262584D01*
X6695651Y-28219727D01*
X6709937Y-28205441D01*
X6809937Y-28276870D02*
X6824222Y-28262584D01*
X6852794Y-28248299D01*
X6924222Y-28248299D01*
X6952794Y-28262584D01*
X6967080Y-28276870D01*
X6981365Y-28305441D01*
X6981365Y-28334013D01*
X6967080Y-28376870D01*
X6795651Y-28548299D01*
X6981365Y-28548299D01*
X7267080Y-28548299D02*
X7095651Y-28548299D01*
X7181365Y-28548299D02*
X7181365Y-28248299D01*
X7152794Y-28291156D01*
X7124222Y-28319727D01*
X7095651Y-28334013D01*
X7624222Y-28548299D02*
X7624222Y-28248299D01*
X7752794Y-28548299D02*
X7752794Y-28391156D01*
X7738508Y-28362584D01*
X7709937Y-28348299D01*
X7667080Y-28348299D01*
X7638508Y-28362584D01*
X7624222Y-28376870D01*
X7938508Y-28548299D02*
X7909937Y-28534013D01*
X7895651Y-28519727D01*
X7881365Y-28491156D01*
X7881365Y-28405441D01*
X7895651Y-28376870D01*
X7909937Y-28362584D01*
X7938508Y-28348299D01*
X7981365Y-28348299D01*
X8009937Y-28362584D01*
X8024222Y-28376870D01*
X8038508Y-28405441D01*
X8038508Y-28491156D01*
X8024222Y-28519727D01*
X8009937Y-28534013D01*
X7981365Y-28548299D01*
X7938508Y-28548299D01*
X8209937Y-28548299D02*
X8181365Y-28534013D01*
X8167080Y-28505441D01*
X8167080Y-28248299D01*
X8438508Y-28534013D02*
X8409937Y-28548299D01*
X8352794Y-28548299D01*
X8324222Y-28534013D01*
X8309937Y-28505441D01*
X8309937Y-28391156D01*
X8324222Y-28362584D01*
X8352794Y-28348299D01*
X8409937Y-28348299D01*
X8438508Y-28362584D01*
X8452794Y-28391156D01*
X8452794Y-28419727D01*
X8309937Y-28448299D01*
X8567080Y-28534013D02*
X8595651Y-28548299D01*
X8652794Y-28548299D01*
X8681365Y-28534013D01*
X8695651Y-28505441D01*
X8695651Y-28491156D01*
X8681365Y-28462584D01*
X8652794Y-28448299D01*
X8609937Y-28448299D01*
X8581365Y-28434013D01*
X8567080Y-28405441D01*
X8567080Y-28391156D01*
X8581365Y-28362584D01*
X8609937Y-28348299D01*
X8652794Y-28348299D01*
X8681365Y-28362584D01*
X8795651Y-28662584D02*
X8809937Y-28648299D01*
X8838508Y-28605441D01*
X8852794Y-28576870D01*
X8867080Y-28534013D01*
X8881365Y-28462584D01*
X8881365Y-28405441D01*
X8867080Y-28334013D01*
X8852794Y-28291156D01*
X8838508Y-28262584D01*
X8809937Y-28219727D01*
X8795651Y-28205441D01*
X2023508Y-28808584D02*
G75*
G03*
X2023508Y-28808584I-35000J0D01*
G01*
X2367080Y-28644299D02*
X2395651Y-28644299D01*
X2424223Y-28658584D01*
X2438508Y-28672870D01*
X2452794Y-28701441D01*
X2467080Y-28758584D01*
X2467080Y-28830013D01*
X2452794Y-28887156D01*
X2438508Y-28915727D01*
X2424223Y-28930013D01*
X2395651Y-28944299D01*
X2367080Y-28944299D01*
X2338508Y-28930013D01*
X2324223Y-28915727D01*
X2309937Y-28887156D01*
X2295651Y-28830013D01*
X2295651Y-28758584D01*
X2309937Y-28701441D01*
X2324223Y-28672870D01*
X2338508Y-28658584D01*
X2367080Y-28644299D01*
X2595651Y-28915727D02*
X2609937Y-28930013D01*
X2595651Y-28944299D01*
X2581365Y-28930013D01*
X2595651Y-28915727D01*
X2595651Y-28944299D01*
X2709937Y-28644299D02*
X2909937Y-28644299D01*
X2781365Y-28944299D01*
X3081365Y-28644299D02*
X3109937Y-28644299D01*
X3138508Y-28658584D01*
X3152794Y-28672870D01*
X3167080Y-28701441D01*
X3181365Y-28758584D01*
X3181365Y-28830013D01*
X3167080Y-28887156D01*
X3152794Y-28915727D01*
X3138508Y-28930013D01*
X3109937Y-28944299D01*
X3081365Y-28944299D01*
X3052794Y-28930013D01*
X3038508Y-28915727D01*
X3024222Y-28887156D01*
X3009937Y-28830013D01*
X3009937Y-28758584D01*
X3024222Y-28701441D01*
X3038508Y-28672870D01*
X3052794Y-28658584D01*
X3081365Y-28644299D01*
X3309937Y-28944299D02*
X3309937Y-28744299D01*
X3309937Y-28772870D02*
X3324222Y-28758584D01*
X3352794Y-28744299D01*
X3395651Y-28744299D01*
X3424222Y-28758584D01*
X3438508Y-28787156D01*
X3438508Y-28944299D01*
X3438508Y-28787156D02*
X3452794Y-28758584D01*
X3481365Y-28744299D01*
X3524222Y-28744299D01*
X3552794Y-28758584D01*
X3567080Y-28787156D01*
X3567080Y-28944299D01*
X3709937Y-28944299D02*
X3709937Y-28744299D01*
X3709937Y-28772870D02*
X3724222Y-28758584D01*
X3752794Y-28744299D01*
X3795651Y-28744299D01*
X3824222Y-28758584D01*
X3838508Y-28787156D01*
X3838508Y-28944299D01*
X3838508Y-28787156D02*
X3852794Y-28758584D01*
X3881365Y-28744299D01*
X3924222Y-28744299D01*
X3952794Y-28758584D01*
X3967080Y-28787156D01*
X3967080Y-28944299D01*
X4552794Y-28630013D02*
X4295651Y-29015727D01*
X4938508Y-28644299D02*
X4967080Y-28644299D01*
X4995651Y-28658584D01*
X5009937Y-28672870D01*
X5024223Y-28701441D01*
X5038508Y-28758584D01*
X5038508Y-28830013D01*
X5024223Y-28887156D01*
X5009937Y-28915727D01*
X4995651Y-28930013D01*
X4967080Y-28944299D01*
X4938508Y-28944299D01*
X4909937Y-28930013D01*
X4895651Y-28915727D01*
X4881365Y-28887156D01*
X4867080Y-28830013D01*
X4867080Y-28758584D01*
X4881365Y-28701441D01*
X4895651Y-28672870D01*
X4909937Y-28658584D01*
X4938508Y-28644299D01*
X5167080Y-28915727D02*
X5181365Y-28930013D01*
X5167080Y-28944299D01*
X5152794Y-28930013D01*
X5167080Y-28915727D01*
X5167080Y-28944299D01*
X5367080Y-28644299D02*
X5395651Y-28644299D01*
X5424223Y-28658584D01*
X5438508Y-28672870D01*
X5452794Y-28701441D01*
X5467080Y-28758584D01*
X5467080Y-28830013D01*
X5452794Y-28887156D01*
X5438508Y-28915727D01*
X5424223Y-28930013D01*
X5395651Y-28944299D01*
X5367080Y-28944299D01*
X5338508Y-28930013D01*
X5324223Y-28915727D01*
X5309937Y-28887156D01*
X5295651Y-28830013D01*
X5295651Y-28758584D01*
X5309937Y-28701441D01*
X5324223Y-28672870D01*
X5338508Y-28658584D01*
X5367080Y-28644299D01*
X5581365Y-28672870D02*
X5595651Y-28658584D01*
X5624222Y-28644299D01*
X5695651Y-28644299D01*
X5724222Y-28658584D01*
X5738508Y-28672870D01*
X5752794Y-28701441D01*
X5752794Y-28730013D01*
X5738508Y-28772870D01*
X5567080Y-28944299D01*
X5752794Y-28944299D01*
X5924222Y-28772870D02*
X5895651Y-28758584D01*
X5881365Y-28744299D01*
X5867080Y-28715727D01*
X5867080Y-28701441D01*
X5881365Y-28672870D01*
X5895651Y-28658584D01*
X5924222Y-28644299D01*
X5981365Y-28644299D01*
X6009937Y-28658584D01*
X6024222Y-28672870D01*
X6038508Y-28701441D01*
X6038508Y-28715727D01*
X6024222Y-28744299D01*
X6009937Y-28758584D01*
X5981365Y-28772870D01*
X5924222Y-28772870D01*
X5895651Y-28787156D01*
X5881365Y-28801441D01*
X5867080Y-28830013D01*
X5867080Y-28887156D01*
X5881365Y-28915727D01*
X5895651Y-28930013D01*
X5924222Y-28944299D01*
X5981365Y-28944299D01*
X6009937Y-28930013D01*
X6024222Y-28915727D01*
X6038508Y-28887156D01*
X6038508Y-28830013D01*
X6024222Y-28801441D01*
X6009937Y-28787156D01*
X5981365Y-28772870D01*
X6152794Y-28644299D02*
X6152794Y-28701441D01*
X6267080Y-28644299D02*
X6267080Y-28701441D01*
X6709937Y-29058584D02*
X6695651Y-29044299D01*
X6667080Y-29001441D01*
X6652794Y-28972870D01*
X6638508Y-28930013D01*
X6624222Y-28858584D01*
X6624222Y-28801441D01*
X6638508Y-28730013D01*
X6652794Y-28687156D01*
X6667080Y-28658584D01*
X6695651Y-28615727D01*
X6709937Y-28601441D01*
X6867080Y-28772870D02*
X6838508Y-28758584D01*
X6824222Y-28744299D01*
X6809937Y-28715727D01*
X6809937Y-28701441D01*
X6824222Y-28672870D01*
X6838508Y-28658584D01*
X6867080Y-28644299D01*
X6924222Y-28644299D01*
X6952794Y-28658584D01*
X6967080Y-28672870D01*
X6981365Y-28701441D01*
X6981365Y-28715727D01*
X6967080Y-28744299D01*
X6952794Y-28758584D01*
X6924222Y-28772870D01*
X6867080Y-28772870D01*
X6838508Y-28787156D01*
X6824222Y-28801441D01*
X6809937Y-28830013D01*
X6809937Y-28887156D01*
X6824222Y-28915727D01*
X6838508Y-28930013D01*
X6867080Y-28944299D01*
X6924222Y-28944299D01*
X6952794Y-28930013D01*
X6967080Y-28915727D01*
X6981365Y-28887156D01*
X6981365Y-28830013D01*
X6967080Y-28801441D01*
X6952794Y-28787156D01*
X6924222Y-28772870D01*
X7338508Y-28944299D02*
X7338508Y-28644299D01*
X7467080Y-28944299D02*
X7467080Y-28787156D01*
X7452794Y-28758584D01*
X7424222Y-28744299D01*
X7381365Y-28744299D01*
X7352794Y-28758584D01*
X7338508Y-28772870D01*
X7652794Y-28944299D02*
X7624222Y-28930013D01*
X7609937Y-28915727D01*
X7595651Y-28887156D01*
X7595651Y-28801441D01*
X7609937Y-28772870D01*
X7624222Y-28758584D01*
X7652794Y-28744299D01*
X7695651Y-28744299D01*
X7724222Y-28758584D01*
X7738508Y-28772870D01*
X7752794Y-28801441D01*
X7752794Y-28887156D01*
X7738508Y-28915727D01*
X7724222Y-28930013D01*
X7695651Y-28944299D01*
X7652794Y-28944299D01*
X7924222Y-28944299D02*
X7895651Y-28930013D01*
X7881365Y-28901441D01*
X7881365Y-28644299D01*
X8152794Y-28930013D02*
X8124222Y-28944299D01*
X8067080Y-28944299D01*
X8038508Y-28930013D01*
X8024222Y-28901441D01*
X8024222Y-28787156D01*
X8038508Y-28758584D01*
X8067080Y-28744299D01*
X8124222Y-28744299D01*
X8152794Y-28758584D01*
X8167080Y-28787156D01*
X8167080Y-28815727D01*
X8024222Y-28844299D01*
X8281365Y-28930013D02*
X8309937Y-28944299D01*
X8367080Y-28944299D01*
X8395651Y-28930013D01*
X8409937Y-28901441D01*
X8409937Y-28887156D01*
X8395651Y-28858584D01*
X8367080Y-28844299D01*
X8324222Y-28844299D01*
X8295651Y-28830013D01*
X8281365Y-28801441D01*
X8281365Y-28787156D01*
X8295651Y-28758584D01*
X8324222Y-28744299D01*
X8367080Y-28744299D01*
X8395651Y-28758584D01*
X8509937Y-29058584D02*
X8524223Y-29044299D01*
X8552794Y-29001441D01*
X8567080Y-28972870D01*
X8581365Y-28930013D01*
X8595651Y-28858584D01*
X8595651Y-28801441D01*
X8581365Y-28730013D01*
X8567080Y-28687156D01*
X8552794Y-28658584D01*
X8524223Y-28615727D01*
X8509937Y-28601441D01*
X1983508Y-29164584D02*
X1983508Y-29244584D01*
X1943508Y-29204584D02*
X2023508Y-29204584D01*
X2367080Y-29040299D02*
X2395651Y-29040299D01*
X2424223Y-29054584D01*
X2438508Y-29068870D01*
X2452794Y-29097441D01*
X2467080Y-29154584D01*
X2467080Y-29226013D01*
X2452794Y-29283156D01*
X2438508Y-29311727D01*
X2424223Y-29326013D01*
X2395651Y-29340299D01*
X2367080Y-29340299D01*
X2338508Y-29326013D01*
X2324223Y-29311727D01*
X2309937Y-29283156D01*
X2295651Y-29226013D01*
X2295651Y-29154584D01*
X2309937Y-29097441D01*
X2324223Y-29068870D01*
X2338508Y-29054584D01*
X2367080Y-29040299D01*
X2595651Y-29311727D02*
X2609937Y-29326013D01*
X2595651Y-29340299D01*
X2581365Y-29326013D01*
X2595651Y-29311727D01*
X2595651Y-29340299D01*
X2781365Y-29168870D02*
X2752794Y-29154584D01*
X2738508Y-29140299D01*
X2724223Y-29111727D01*
X2724223Y-29097441D01*
X2738508Y-29068870D01*
X2752794Y-29054584D01*
X2781365Y-29040299D01*
X2838508Y-29040299D01*
X2867080Y-29054584D01*
X2881365Y-29068870D01*
X2895651Y-29097441D01*
X2895651Y-29111727D01*
X2881365Y-29140299D01*
X2867080Y-29154584D01*
X2838508Y-29168870D01*
X2781365Y-29168870D01*
X2752794Y-29183156D01*
X2738508Y-29197441D01*
X2724223Y-29226013D01*
X2724223Y-29283156D01*
X2738508Y-29311727D01*
X2752794Y-29326013D01*
X2781365Y-29340299D01*
X2838508Y-29340299D01*
X2867080Y-29326013D01*
X2881365Y-29311727D01*
X2895651Y-29283156D01*
X2895651Y-29226013D01*
X2881365Y-29197441D01*
X2867080Y-29183156D01*
X2838508Y-29168870D01*
X3081365Y-29040299D02*
X3109937Y-29040299D01*
X3138508Y-29054584D01*
X3152794Y-29068870D01*
X3167080Y-29097441D01*
X3181365Y-29154584D01*
X3181365Y-29226013D01*
X3167080Y-29283156D01*
X3152794Y-29311727D01*
X3138508Y-29326013D01*
X3109937Y-29340299D01*
X3081365Y-29340299D01*
X3052794Y-29326013D01*
X3038508Y-29311727D01*
X3024222Y-29283156D01*
X3009937Y-29226013D01*
X3009937Y-29154584D01*
X3024222Y-29097441D01*
X3038508Y-29068870D01*
X3052794Y-29054584D01*
X3081365Y-29040299D01*
X3309937Y-29340299D02*
X3309937Y-29140299D01*
X3309937Y-29168870D02*
X3324222Y-29154584D01*
X3352794Y-29140299D01*
X3395651Y-29140299D01*
X3424222Y-29154584D01*
X3438508Y-29183156D01*
X3438508Y-29340299D01*
X3438508Y-29183156D02*
X3452794Y-29154584D01*
X3481365Y-29140299D01*
X3524222Y-29140299D01*
X3552794Y-29154584D01*
X3567080Y-29183156D01*
X3567080Y-29340299D01*
X3709937Y-29340299D02*
X3709937Y-29140299D01*
X3709937Y-29168870D02*
X3724222Y-29154584D01*
X3752794Y-29140299D01*
X3795651Y-29140299D01*
X3824222Y-29154584D01*
X3838508Y-29183156D01*
X3838508Y-29340299D01*
X3838508Y-29183156D02*
X3852794Y-29154584D01*
X3881365Y-29140299D01*
X3924222Y-29140299D01*
X3952794Y-29154584D01*
X3967080Y-29183156D01*
X3967080Y-29340299D01*
X4552794Y-29026013D02*
X4295651Y-29411727D01*
X4938508Y-29040299D02*
X4967080Y-29040299D01*
X4995651Y-29054584D01*
X5009937Y-29068870D01*
X5024223Y-29097441D01*
X5038508Y-29154584D01*
X5038508Y-29226013D01*
X5024223Y-29283156D01*
X5009937Y-29311727D01*
X4995651Y-29326013D01*
X4967080Y-29340299D01*
X4938508Y-29340299D01*
X4909937Y-29326013D01*
X4895651Y-29311727D01*
X4881365Y-29283156D01*
X4867080Y-29226013D01*
X4867080Y-29154584D01*
X4881365Y-29097441D01*
X4895651Y-29068870D01*
X4909937Y-29054584D01*
X4938508Y-29040299D01*
X5167080Y-29311727D02*
X5181365Y-29326013D01*
X5167080Y-29340299D01*
X5152794Y-29326013D01*
X5167080Y-29311727D01*
X5167080Y-29340299D01*
X5367080Y-29040299D02*
X5395651Y-29040299D01*
X5424223Y-29054584D01*
X5438508Y-29068870D01*
X5452794Y-29097441D01*
X5467080Y-29154584D01*
X5467080Y-29226013D01*
X5452794Y-29283156D01*
X5438508Y-29311727D01*
X5424223Y-29326013D01*
X5395651Y-29340299D01*
X5367080Y-29340299D01*
X5338508Y-29326013D01*
X5324223Y-29311727D01*
X5309937Y-29283156D01*
X5295651Y-29226013D01*
X5295651Y-29154584D01*
X5309937Y-29097441D01*
X5324223Y-29068870D01*
X5338508Y-29054584D01*
X5367080Y-29040299D01*
X5567080Y-29040299D02*
X5752794Y-29040299D01*
X5652794Y-29154584D01*
X5695651Y-29154584D01*
X5724222Y-29168870D01*
X5738508Y-29183156D01*
X5752794Y-29211727D01*
X5752794Y-29283156D01*
X5738508Y-29311727D01*
X5724222Y-29326013D01*
X5695651Y-29340299D01*
X5609937Y-29340299D01*
X5581365Y-29326013D01*
X5567080Y-29311727D01*
X6038508Y-29340299D02*
X5867080Y-29340299D01*
X5952794Y-29340299D02*
X5952794Y-29040299D01*
X5924222Y-29083156D01*
X5895651Y-29111727D01*
X5867080Y-29126013D01*
X6152794Y-29040299D02*
X6152794Y-29097441D01*
X6267080Y-29040299D02*
X6267080Y-29097441D01*
X6709937Y-29454584D02*
X6695651Y-29440299D01*
X6667080Y-29397441D01*
X6652794Y-29368870D01*
X6638508Y-29326013D01*
X6624222Y-29254584D01*
X6624222Y-29197441D01*
X6638508Y-29126013D01*
X6652794Y-29083156D01*
X6667080Y-29054584D01*
X6695651Y-29011727D01*
X6709937Y-28997441D01*
X6838508Y-29340299D02*
X6895651Y-29340299D01*
X6924222Y-29326013D01*
X6938508Y-29311727D01*
X6967080Y-29268870D01*
X6981365Y-29211727D01*
X6981365Y-29097441D01*
X6967080Y-29068870D01*
X6952794Y-29054584D01*
X6924222Y-29040299D01*
X6867080Y-29040299D01*
X6838508Y-29054584D01*
X6824222Y-29068870D01*
X6809937Y-29097441D01*
X6809937Y-29168870D01*
X6824222Y-29197441D01*
X6838508Y-29211727D01*
X6867080Y-29226013D01*
X6924222Y-29226013D01*
X6952794Y-29211727D01*
X6967080Y-29197441D01*
X6981365Y-29168870D01*
X7238508Y-29140299D02*
X7238508Y-29340299D01*
X7167080Y-29026013D02*
X7095651Y-29240299D01*
X7281365Y-29240299D01*
X7624222Y-29340299D02*
X7624222Y-29040299D01*
X7752794Y-29340299D02*
X7752794Y-29183156D01*
X7738508Y-29154584D01*
X7709937Y-29140299D01*
X7667080Y-29140299D01*
X7638508Y-29154584D01*
X7624222Y-29168870D01*
X7938508Y-29340299D02*
X7909937Y-29326013D01*
X7895651Y-29311727D01*
X7881365Y-29283156D01*
X7881365Y-29197441D01*
X7895651Y-29168870D01*
X7909937Y-29154584D01*
X7938508Y-29140299D01*
X7981365Y-29140299D01*
X8009937Y-29154584D01*
X8024222Y-29168870D01*
X8038508Y-29197441D01*
X8038508Y-29283156D01*
X8024222Y-29311727D01*
X8009937Y-29326013D01*
X7981365Y-29340299D01*
X7938508Y-29340299D01*
X8209937Y-29340299D02*
X8181365Y-29326013D01*
X8167080Y-29297441D01*
X8167080Y-29040299D01*
X8438508Y-29326013D02*
X8409937Y-29340299D01*
X8352794Y-29340299D01*
X8324222Y-29326013D01*
X8309937Y-29297441D01*
X8309937Y-29183156D01*
X8324222Y-29154584D01*
X8352794Y-29140299D01*
X8409937Y-29140299D01*
X8438508Y-29154584D01*
X8452794Y-29183156D01*
X8452794Y-29211727D01*
X8309937Y-29240299D01*
X8567080Y-29326013D02*
X8595651Y-29340299D01*
X8652794Y-29340299D01*
X8681365Y-29326013D01*
X8695651Y-29297441D01*
X8695651Y-29283156D01*
X8681365Y-29254584D01*
X8652794Y-29240299D01*
X8609937Y-29240299D01*
X8581365Y-29226013D01*
X8567080Y-29197441D01*
X8567080Y-29183156D01*
X8581365Y-29154584D01*
X8609937Y-29140299D01*
X8652794Y-29140299D01*
X8681365Y-29154584D01*
X8795651Y-29454584D02*
X8809937Y-29440299D01*
X8838508Y-29397441D01*
X8852794Y-29368870D01*
X8867080Y-29326013D01*
X8881365Y-29254584D01*
X8881365Y-29197441D01*
X8867080Y-29126013D01*
X8852794Y-29083156D01*
X8838508Y-29054584D01*
X8809937Y-29011727D01*
X8795651Y-28997441D01*
X2010328Y-29632404D02*
X2010328Y-29568764D01*
X1946688Y-29568764D01*
X1946688Y-29632404D01*
X2010328Y-29632404D01*
X2367080Y-29436299D02*
X2395651Y-29436299D01*
X2424223Y-29450584D01*
X2438508Y-29464870D01*
X2452794Y-29493441D01*
X2467080Y-29550584D01*
X2467080Y-29622013D01*
X2452794Y-29679156D01*
X2438508Y-29707727D01*
X2424223Y-29722013D01*
X2395651Y-29736299D01*
X2367080Y-29736299D01*
X2338508Y-29722013D01*
X2324223Y-29707727D01*
X2309937Y-29679156D01*
X2295651Y-29622013D01*
X2295651Y-29550584D01*
X2309937Y-29493441D01*
X2324223Y-29464870D01*
X2338508Y-29450584D01*
X2367080Y-29436299D01*
X2595651Y-29707727D02*
X2609937Y-29722013D01*
X2595651Y-29736299D01*
X2581365Y-29722013D01*
X2595651Y-29707727D01*
X2595651Y-29736299D01*
X2752794Y-29736299D02*
X2809937Y-29736299D01*
X2838508Y-29722013D01*
X2852794Y-29707727D01*
X2881365Y-29664870D01*
X2895651Y-29607727D01*
X2895651Y-29493441D01*
X2881365Y-29464870D01*
X2867080Y-29450584D01*
X2838508Y-29436299D01*
X2781365Y-29436299D01*
X2752794Y-29450584D01*
X2738508Y-29464870D01*
X2724223Y-29493441D01*
X2724223Y-29564870D01*
X2738508Y-29593441D01*
X2752794Y-29607727D01*
X2781365Y-29622013D01*
X2838508Y-29622013D01*
X2867080Y-29607727D01*
X2881365Y-29593441D01*
X2895651Y-29564870D01*
X3081365Y-29436299D02*
X3109937Y-29436299D01*
X3138508Y-29450584D01*
X3152794Y-29464870D01*
X3167080Y-29493441D01*
X3181365Y-29550584D01*
X3181365Y-29622013D01*
X3167080Y-29679156D01*
X3152794Y-29707727D01*
X3138508Y-29722013D01*
X3109937Y-29736299D01*
X3081365Y-29736299D01*
X3052794Y-29722013D01*
X3038508Y-29707727D01*
X3024222Y-29679156D01*
X3009937Y-29622013D01*
X3009937Y-29550584D01*
X3024222Y-29493441D01*
X3038508Y-29464870D01*
X3052794Y-29450584D01*
X3081365Y-29436299D01*
X3309937Y-29736299D02*
X3309937Y-29536299D01*
X3309937Y-29564870D02*
X3324222Y-29550584D01*
X3352794Y-29536299D01*
X3395651Y-29536299D01*
X3424222Y-29550584D01*
X3438508Y-29579156D01*
X3438508Y-29736299D01*
X3438508Y-29579156D02*
X3452794Y-29550584D01*
X3481365Y-29536299D01*
X3524222Y-29536299D01*
X3552794Y-29550584D01*
X3567080Y-29579156D01*
X3567080Y-29736299D01*
X3709937Y-29736299D02*
X3709937Y-29536299D01*
X3709937Y-29564870D02*
X3724222Y-29550584D01*
X3752794Y-29536299D01*
X3795651Y-29536299D01*
X3824222Y-29550584D01*
X3838508Y-29579156D01*
X3838508Y-29736299D01*
X3838508Y-29579156D02*
X3852794Y-29550584D01*
X3881365Y-29536299D01*
X3924222Y-29536299D01*
X3952794Y-29550584D01*
X3967080Y-29579156D01*
X3967080Y-29736299D01*
X4552794Y-29422013D02*
X4295651Y-29807727D01*
X4938508Y-29436299D02*
X4967080Y-29436299D01*
X4995651Y-29450584D01*
X5009937Y-29464870D01*
X5024223Y-29493441D01*
X5038508Y-29550584D01*
X5038508Y-29622013D01*
X5024223Y-29679156D01*
X5009937Y-29707727D01*
X4995651Y-29722013D01*
X4967080Y-29736299D01*
X4938508Y-29736299D01*
X4909937Y-29722013D01*
X4895651Y-29707727D01*
X4881365Y-29679156D01*
X4867080Y-29622013D01*
X4867080Y-29550584D01*
X4881365Y-29493441D01*
X4895651Y-29464870D01*
X4909937Y-29450584D01*
X4938508Y-29436299D01*
X5167080Y-29707727D02*
X5181365Y-29722013D01*
X5167080Y-29736299D01*
X5152794Y-29722013D01*
X5167080Y-29707727D01*
X5167080Y-29736299D01*
X5367080Y-29436299D02*
X5395651Y-29436299D01*
X5424223Y-29450584D01*
X5438508Y-29464870D01*
X5452794Y-29493441D01*
X5467080Y-29550584D01*
X5467080Y-29622013D01*
X5452794Y-29679156D01*
X5438508Y-29707727D01*
X5424223Y-29722013D01*
X5395651Y-29736299D01*
X5367080Y-29736299D01*
X5338508Y-29722013D01*
X5324223Y-29707727D01*
X5309937Y-29679156D01*
X5295651Y-29622013D01*
X5295651Y-29550584D01*
X5309937Y-29493441D01*
X5324223Y-29464870D01*
X5338508Y-29450584D01*
X5367080Y-29436299D01*
X5567080Y-29436299D02*
X5752794Y-29436299D01*
X5652794Y-29550584D01*
X5695651Y-29550584D01*
X5724222Y-29564870D01*
X5738508Y-29579156D01*
X5752794Y-29607727D01*
X5752794Y-29679156D01*
X5738508Y-29707727D01*
X5724222Y-29722013D01*
X5695651Y-29736299D01*
X5609937Y-29736299D01*
X5581365Y-29722013D01*
X5567080Y-29707727D01*
X6024222Y-29436299D02*
X5881365Y-29436299D01*
X5867080Y-29579156D01*
X5881365Y-29564870D01*
X5909937Y-29550584D01*
X5981365Y-29550584D01*
X6009937Y-29564870D01*
X6024222Y-29579156D01*
X6038508Y-29607727D01*
X6038508Y-29679156D01*
X6024222Y-29707727D01*
X6009937Y-29722013D01*
X5981365Y-29736299D01*
X5909937Y-29736299D01*
X5881365Y-29722013D01*
X5867080Y-29707727D01*
X6152794Y-29436299D02*
X6152794Y-29493441D01*
X6267080Y-29436299D02*
X6267080Y-29493441D01*
X6709937Y-29850584D02*
X6695651Y-29836299D01*
X6667080Y-29793441D01*
X6652794Y-29764870D01*
X6638508Y-29722013D01*
X6624222Y-29650584D01*
X6624222Y-29593441D01*
X6638508Y-29522013D01*
X6652794Y-29479156D01*
X6667080Y-29450584D01*
X6695651Y-29407727D01*
X6709937Y-29393441D01*
X6867080Y-29564870D02*
X6838508Y-29550584D01*
X6824222Y-29536299D01*
X6809937Y-29507727D01*
X6809937Y-29493441D01*
X6824222Y-29464870D01*
X6838508Y-29450584D01*
X6867080Y-29436299D01*
X6924222Y-29436299D01*
X6952794Y-29450584D01*
X6967080Y-29464870D01*
X6981365Y-29493441D01*
X6981365Y-29507727D01*
X6967080Y-29536299D01*
X6952794Y-29550584D01*
X6924222Y-29564870D01*
X6867080Y-29564870D01*
X6838508Y-29579156D01*
X6824222Y-29593441D01*
X6809937Y-29622013D01*
X6809937Y-29679156D01*
X6824222Y-29707727D01*
X6838508Y-29722013D01*
X6867080Y-29736299D01*
X6924222Y-29736299D01*
X6952794Y-29722013D01*
X6967080Y-29707727D01*
X6981365Y-29679156D01*
X6981365Y-29622013D01*
X6967080Y-29593441D01*
X6952794Y-29579156D01*
X6924222Y-29564870D01*
X7338508Y-29736299D02*
X7338508Y-29436299D01*
X7467080Y-29736299D02*
X7467080Y-29579156D01*
X7452794Y-29550584D01*
X7424222Y-29536299D01*
X7381365Y-29536299D01*
X7352794Y-29550584D01*
X7338508Y-29564870D01*
X7652794Y-29736299D02*
X7624222Y-29722013D01*
X7609937Y-29707727D01*
X7595651Y-29679156D01*
X7595651Y-29593441D01*
X7609937Y-29564870D01*
X7624222Y-29550584D01*
X7652794Y-29536299D01*
X7695651Y-29536299D01*
X7724222Y-29550584D01*
X7738508Y-29564870D01*
X7752794Y-29593441D01*
X7752794Y-29679156D01*
X7738508Y-29707727D01*
X7724222Y-29722013D01*
X7695651Y-29736299D01*
X7652794Y-29736299D01*
X7924222Y-29736299D02*
X7895651Y-29722013D01*
X7881365Y-29693441D01*
X7881365Y-29436299D01*
X8152794Y-29722013D02*
X8124222Y-29736299D01*
X8067080Y-29736299D01*
X8038508Y-29722013D01*
X8024222Y-29693441D01*
X8024222Y-29579156D01*
X8038508Y-29550584D01*
X8067080Y-29536299D01*
X8124222Y-29536299D01*
X8152794Y-29550584D01*
X8167080Y-29579156D01*
X8167080Y-29607727D01*
X8024222Y-29636299D01*
X8281365Y-29722013D02*
X8309937Y-29736299D01*
X8367080Y-29736299D01*
X8395651Y-29722013D01*
X8409937Y-29693441D01*
X8409937Y-29679156D01*
X8395651Y-29650584D01*
X8367080Y-29636299D01*
X8324222Y-29636299D01*
X8295651Y-29622013D01*
X8281365Y-29593441D01*
X8281365Y-29579156D01*
X8295651Y-29550584D01*
X8324222Y-29536299D01*
X8367080Y-29536299D01*
X8395651Y-29550584D01*
X8509937Y-29850584D02*
X8524223Y-29836299D01*
X8552794Y-29793441D01*
X8567080Y-29764870D01*
X8581365Y-29722013D01*
X8595651Y-29650584D01*
X8595651Y-29593441D01*
X8581365Y-29522013D01*
X8567080Y-29479156D01*
X8552794Y-29450584D01*
X8524223Y-29407727D01*
X8509937Y-29393441D01*
X1973508Y-30046584D02*
X2023508Y-29996584D01*
X1973508Y-29946584D01*
X1923508Y-29996584D01*
X1973508Y-30046584D01*
X2467080Y-30132299D02*
X2295651Y-30132299D01*
X2381365Y-30132299D02*
X2381365Y-29832299D01*
X2352794Y-29875156D01*
X2324223Y-29903727D01*
X2295651Y-29918013D01*
X2595651Y-30103727D02*
X2609937Y-30118013D01*
X2595651Y-30132299D01*
X2581365Y-30118013D01*
X2595651Y-30103727D01*
X2595651Y-30132299D01*
X2795651Y-29832299D02*
X2824222Y-29832299D01*
X2852794Y-29846584D01*
X2867080Y-29860870D01*
X2881365Y-29889441D01*
X2895651Y-29946584D01*
X2895651Y-30018013D01*
X2881365Y-30075156D01*
X2867080Y-30103727D01*
X2852794Y-30118013D01*
X2824222Y-30132299D01*
X2795651Y-30132299D01*
X2767080Y-30118013D01*
X2752794Y-30103727D01*
X2738508Y-30075156D01*
X2724223Y-30018013D01*
X2724223Y-29946584D01*
X2738508Y-29889441D01*
X2752794Y-29860870D01*
X2767080Y-29846584D01*
X2795651Y-29832299D01*
X3081365Y-29832299D02*
X3109937Y-29832299D01*
X3138508Y-29846584D01*
X3152794Y-29860870D01*
X3167080Y-29889441D01*
X3181365Y-29946584D01*
X3181365Y-30018013D01*
X3167080Y-30075156D01*
X3152794Y-30103727D01*
X3138508Y-30118013D01*
X3109937Y-30132299D01*
X3081365Y-30132299D01*
X3052794Y-30118013D01*
X3038508Y-30103727D01*
X3024222Y-30075156D01*
X3009937Y-30018013D01*
X3009937Y-29946584D01*
X3024222Y-29889441D01*
X3038508Y-29860870D01*
X3052794Y-29846584D01*
X3081365Y-29832299D01*
X3309937Y-30132299D02*
X3309937Y-29932299D01*
X3309937Y-29960870D02*
X3324222Y-29946584D01*
X3352794Y-29932299D01*
X3395651Y-29932299D01*
X3424222Y-29946584D01*
X3438508Y-29975156D01*
X3438508Y-30132299D01*
X3438508Y-29975156D02*
X3452794Y-29946584D01*
X3481365Y-29932299D01*
X3524222Y-29932299D01*
X3552794Y-29946584D01*
X3567080Y-29975156D01*
X3567080Y-30132299D01*
X3709937Y-30132299D02*
X3709937Y-29932299D01*
X3709937Y-29960870D02*
X3724222Y-29946584D01*
X3752794Y-29932299D01*
X3795651Y-29932299D01*
X3824222Y-29946584D01*
X3838508Y-29975156D01*
X3838508Y-30132299D01*
X3838508Y-29975156D02*
X3852794Y-29946584D01*
X3881365Y-29932299D01*
X3924222Y-29932299D01*
X3952794Y-29946584D01*
X3967080Y-29975156D01*
X3967080Y-30132299D01*
X4552794Y-29818013D02*
X4295651Y-30203727D01*
X4938508Y-29832299D02*
X4967080Y-29832299D01*
X4995651Y-29846584D01*
X5009937Y-29860870D01*
X5024223Y-29889441D01*
X5038508Y-29946584D01*
X5038508Y-30018013D01*
X5024223Y-30075156D01*
X5009937Y-30103727D01*
X4995651Y-30118013D01*
X4967080Y-30132299D01*
X4938508Y-30132299D01*
X4909937Y-30118013D01*
X4895651Y-30103727D01*
X4881365Y-30075156D01*
X4867080Y-30018013D01*
X4867080Y-29946584D01*
X4881365Y-29889441D01*
X4895651Y-29860870D01*
X4909937Y-29846584D01*
X4938508Y-29832299D01*
X5167080Y-30103727D02*
X5181365Y-30118013D01*
X5167080Y-30132299D01*
X5152794Y-30118013D01*
X5167080Y-30103727D01*
X5167080Y-30132299D01*
X5367080Y-29832299D02*
X5395651Y-29832299D01*
X5424223Y-29846584D01*
X5438508Y-29860870D01*
X5452794Y-29889441D01*
X5467080Y-29946584D01*
X5467080Y-30018013D01*
X5452794Y-30075156D01*
X5438508Y-30103727D01*
X5424223Y-30118013D01*
X5395651Y-30132299D01*
X5367080Y-30132299D01*
X5338508Y-30118013D01*
X5324223Y-30103727D01*
X5309937Y-30075156D01*
X5295651Y-30018013D01*
X5295651Y-29946584D01*
X5309937Y-29889441D01*
X5324223Y-29860870D01*
X5338508Y-29846584D01*
X5367080Y-29832299D01*
X5567080Y-29832299D02*
X5752794Y-29832299D01*
X5652794Y-29946584D01*
X5695651Y-29946584D01*
X5724222Y-29960870D01*
X5738508Y-29975156D01*
X5752794Y-30003727D01*
X5752794Y-30075156D01*
X5738508Y-30103727D01*
X5724222Y-30118013D01*
X5695651Y-30132299D01*
X5609937Y-30132299D01*
X5581365Y-30118013D01*
X5567080Y-30103727D01*
X5895651Y-30132299D02*
X5952794Y-30132299D01*
X5981365Y-30118013D01*
X5995651Y-30103727D01*
X6024222Y-30060870D01*
X6038508Y-30003727D01*
X6038508Y-29889441D01*
X6024222Y-29860870D01*
X6009937Y-29846584D01*
X5981365Y-29832299D01*
X5924222Y-29832299D01*
X5895651Y-29846584D01*
X5881365Y-29860870D01*
X5867080Y-29889441D01*
X5867080Y-29960870D01*
X5881365Y-29989441D01*
X5895651Y-30003727D01*
X5924222Y-30018013D01*
X5981365Y-30018013D01*
X6009937Y-30003727D01*
X6024222Y-29989441D01*
X6038508Y-29960870D01*
X6152794Y-29832299D02*
X6152794Y-29889441D01*
X6267080Y-29832299D02*
X6267080Y-29889441D01*
X6709937Y-30246584D02*
X6695651Y-30232299D01*
X6667080Y-30189441D01*
X6652794Y-30160870D01*
X6638508Y-30118013D01*
X6624222Y-30046584D01*
X6624222Y-29989441D01*
X6638508Y-29918013D01*
X6652794Y-29875156D01*
X6667080Y-29846584D01*
X6695651Y-29803727D01*
X6709937Y-29789441D01*
X6981365Y-30132299D02*
X6809937Y-30132299D01*
X6895651Y-30132299D02*
X6895651Y-29832299D01*
X6867080Y-29875156D01*
X6838508Y-29903727D01*
X6809937Y-29918013D01*
X7252794Y-29832299D02*
X7109937Y-29832299D01*
X7095651Y-29975156D01*
X7109937Y-29960870D01*
X7138508Y-29946584D01*
X7209937Y-29946584D01*
X7238508Y-29960870D01*
X7252794Y-29975156D01*
X7267080Y-30003727D01*
X7267080Y-30075156D01*
X7252794Y-30103727D01*
X7238508Y-30118013D01*
X7209937Y-30132299D01*
X7138508Y-30132299D01*
X7109937Y-30118013D01*
X7095651Y-30103727D01*
X7624222Y-30132299D02*
X7624222Y-29832299D01*
X7752794Y-30132299D02*
X7752794Y-29975156D01*
X7738508Y-29946584D01*
X7709937Y-29932299D01*
X7667080Y-29932299D01*
X7638508Y-29946584D01*
X7624222Y-29960870D01*
X7938508Y-30132299D02*
X7909937Y-30118013D01*
X7895651Y-30103727D01*
X7881365Y-30075156D01*
X7881365Y-29989441D01*
X7895651Y-29960870D01*
X7909937Y-29946584D01*
X7938508Y-29932299D01*
X7981365Y-29932299D01*
X8009937Y-29946584D01*
X8024222Y-29960870D01*
X8038508Y-29989441D01*
X8038508Y-30075156D01*
X8024222Y-30103727D01*
X8009937Y-30118013D01*
X7981365Y-30132299D01*
X7938508Y-30132299D01*
X8209937Y-30132299D02*
X8181365Y-30118013D01*
X8167080Y-30089441D01*
X8167080Y-29832299D01*
X8438508Y-30118013D02*
X8409937Y-30132299D01*
X8352794Y-30132299D01*
X8324222Y-30118013D01*
X8309937Y-30089441D01*
X8309937Y-29975156D01*
X8324222Y-29946584D01*
X8352794Y-29932299D01*
X8409937Y-29932299D01*
X8438508Y-29946584D01*
X8452794Y-29975156D01*
X8452794Y-30003727D01*
X8309937Y-30032299D01*
X8567080Y-30118013D02*
X8595651Y-30132299D01*
X8652794Y-30132299D01*
X8681365Y-30118013D01*
X8695651Y-30089441D01*
X8695651Y-30075156D01*
X8681365Y-30046584D01*
X8652794Y-30032299D01*
X8609937Y-30032299D01*
X8581365Y-30018013D01*
X8567080Y-29989441D01*
X8567080Y-29975156D01*
X8581365Y-29946584D01*
X8609937Y-29932299D01*
X8652794Y-29932299D01*
X8681365Y-29946584D01*
X8795651Y-30246584D02*
X8809937Y-30232299D01*
X8838508Y-30189441D01*
X8852794Y-30160870D01*
X8867080Y-30118013D01*
X8881365Y-30046584D01*
X8881365Y-29989441D01*
X8867080Y-29918013D01*
X8852794Y-29875156D01*
X8838508Y-29846584D01*
X8809937Y-29803727D01*
X8795651Y-29789441D01*
X1913508Y-30337584D02*
X2023508Y-30447584D01*
X2023508Y-30337584D02*
X1913508Y-30447584D01*
X2023508Y-30392584D02*
G75*
G03*
X2023508Y-30392584I-55000J0D01*
G01*
X2467080Y-30528299D02*
X2295651Y-30528299D01*
X2381365Y-30528299D02*
X2381365Y-30228299D01*
X2352794Y-30271156D01*
X2324223Y-30299727D01*
X2295651Y-30314013D01*
X2595651Y-30499727D02*
X2609937Y-30514013D01*
X2595651Y-30528299D01*
X2581365Y-30514013D01*
X2595651Y-30499727D01*
X2595651Y-30528299D01*
X2895651Y-30528299D02*
X2724223Y-30528299D01*
X2809937Y-30528299D02*
X2809937Y-30228299D01*
X2781365Y-30271156D01*
X2752794Y-30299727D01*
X2724223Y-30314013D01*
X3081365Y-30228299D02*
X3109937Y-30228299D01*
X3138508Y-30242584D01*
X3152794Y-30256870D01*
X3167080Y-30285441D01*
X3181365Y-30342584D01*
X3181365Y-30414013D01*
X3167080Y-30471156D01*
X3152794Y-30499727D01*
X3138508Y-30514013D01*
X3109937Y-30528299D01*
X3081365Y-30528299D01*
X3052794Y-30514013D01*
X3038508Y-30499727D01*
X3024222Y-30471156D01*
X3009937Y-30414013D01*
X3009937Y-30342584D01*
X3024222Y-30285441D01*
X3038508Y-30256870D01*
X3052794Y-30242584D01*
X3081365Y-30228299D01*
X3309937Y-30528299D02*
X3309937Y-30328299D01*
X3309937Y-30356870D02*
X3324222Y-30342584D01*
X3352794Y-30328299D01*
X3395651Y-30328299D01*
X3424222Y-30342584D01*
X3438508Y-30371156D01*
X3438508Y-30528299D01*
X3438508Y-30371156D02*
X3452794Y-30342584D01*
X3481365Y-30328299D01*
X3524222Y-30328299D01*
X3552794Y-30342584D01*
X3567080Y-30371156D01*
X3567080Y-30528299D01*
X3709937Y-30528299D02*
X3709937Y-30328299D01*
X3709937Y-30356870D02*
X3724222Y-30342584D01*
X3752794Y-30328299D01*
X3795651Y-30328299D01*
X3824222Y-30342584D01*
X3838508Y-30371156D01*
X3838508Y-30528299D01*
X3838508Y-30371156D02*
X3852794Y-30342584D01*
X3881365Y-30328299D01*
X3924222Y-30328299D01*
X3952794Y-30342584D01*
X3967080Y-30371156D01*
X3967080Y-30528299D01*
X4552794Y-30214013D02*
X4295651Y-30599727D01*
X4938508Y-30228299D02*
X4967080Y-30228299D01*
X4995651Y-30242584D01*
X5009937Y-30256870D01*
X5024223Y-30285441D01*
X5038508Y-30342584D01*
X5038508Y-30414013D01*
X5024223Y-30471156D01*
X5009937Y-30499727D01*
X4995651Y-30514013D01*
X4967080Y-30528299D01*
X4938508Y-30528299D01*
X4909937Y-30514013D01*
X4895651Y-30499727D01*
X4881365Y-30471156D01*
X4867080Y-30414013D01*
X4867080Y-30342584D01*
X4881365Y-30285441D01*
X4895651Y-30256870D01*
X4909937Y-30242584D01*
X4938508Y-30228299D01*
X5167080Y-30499727D02*
X5181365Y-30514013D01*
X5167080Y-30528299D01*
X5152794Y-30514013D01*
X5167080Y-30499727D01*
X5167080Y-30528299D01*
X5367080Y-30228299D02*
X5395651Y-30228299D01*
X5424223Y-30242584D01*
X5438508Y-30256870D01*
X5452794Y-30285441D01*
X5467080Y-30342584D01*
X5467080Y-30414013D01*
X5452794Y-30471156D01*
X5438508Y-30499727D01*
X5424223Y-30514013D01*
X5395651Y-30528299D01*
X5367080Y-30528299D01*
X5338508Y-30514013D01*
X5324223Y-30499727D01*
X5309937Y-30471156D01*
X5295651Y-30414013D01*
X5295651Y-30342584D01*
X5309937Y-30285441D01*
X5324223Y-30256870D01*
X5338508Y-30242584D01*
X5367080Y-30228299D01*
X5724222Y-30328299D02*
X5724222Y-30528299D01*
X5652794Y-30214013D02*
X5581365Y-30428299D01*
X5767080Y-30428299D01*
X5852794Y-30228299D02*
X6038508Y-30228299D01*
X5938508Y-30342584D01*
X5981365Y-30342584D01*
X6009937Y-30356870D01*
X6024222Y-30371156D01*
X6038508Y-30399727D01*
X6038508Y-30471156D01*
X6024222Y-30499727D01*
X6009937Y-30514013D01*
X5981365Y-30528299D01*
X5895651Y-30528299D01*
X5867080Y-30514013D01*
X5852794Y-30499727D01*
X6152794Y-30228299D02*
X6152794Y-30285441D01*
X6267080Y-30228299D02*
X6267080Y-30285441D01*
X6709937Y-30642584D02*
X6695651Y-30628299D01*
X6667080Y-30585441D01*
X6652794Y-30556870D01*
X6638508Y-30514013D01*
X6624222Y-30442584D01*
X6624222Y-30385441D01*
X6638508Y-30314013D01*
X6652794Y-30271156D01*
X6667080Y-30242584D01*
X6695651Y-30199727D01*
X6709937Y-30185441D01*
X6967080Y-30228299D02*
X6824222Y-30228299D01*
X6809937Y-30371156D01*
X6824222Y-30356870D01*
X6852794Y-30342584D01*
X6924222Y-30342584D01*
X6952794Y-30356870D01*
X6967080Y-30371156D01*
X6981365Y-30399727D01*
X6981365Y-30471156D01*
X6967080Y-30499727D01*
X6952794Y-30514013D01*
X6924222Y-30528299D01*
X6852794Y-30528299D01*
X6824222Y-30514013D01*
X6809937Y-30499727D01*
X7095651Y-30256870D02*
X7109937Y-30242584D01*
X7138508Y-30228299D01*
X7209937Y-30228299D01*
X7238508Y-30242584D01*
X7252794Y-30256870D01*
X7267080Y-30285441D01*
X7267080Y-30314013D01*
X7252794Y-30356870D01*
X7081365Y-30528299D01*
X7267080Y-30528299D01*
X7624222Y-30528299D02*
X7624222Y-30228299D01*
X7752794Y-30528299D02*
X7752794Y-30371156D01*
X7738508Y-30342584D01*
X7709937Y-30328299D01*
X7667080Y-30328299D01*
X7638508Y-30342584D01*
X7624222Y-30356870D01*
X7938508Y-30528299D02*
X7909937Y-30514013D01*
X7895651Y-30499727D01*
X7881365Y-30471156D01*
X7881365Y-30385441D01*
X7895651Y-30356870D01*
X7909937Y-30342584D01*
X7938508Y-30328299D01*
X7981365Y-30328299D01*
X8009937Y-30342584D01*
X8024222Y-30356870D01*
X8038508Y-30385441D01*
X8038508Y-30471156D01*
X8024222Y-30499727D01*
X8009937Y-30514013D01*
X7981365Y-30528299D01*
X7938508Y-30528299D01*
X8209937Y-30528299D02*
X8181365Y-30514013D01*
X8167080Y-30485441D01*
X8167080Y-30228299D01*
X8438508Y-30514013D02*
X8409937Y-30528299D01*
X8352794Y-30528299D01*
X8324222Y-30514013D01*
X8309937Y-30485441D01*
X8309937Y-30371156D01*
X8324222Y-30342584D01*
X8352794Y-30328299D01*
X8409937Y-30328299D01*
X8438508Y-30342584D01*
X8452794Y-30371156D01*
X8452794Y-30399727D01*
X8309937Y-30428299D01*
X8567080Y-30514013D02*
X8595651Y-30528299D01*
X8652794Y-30528299D01*
X8681365Y-30514013D01*
X8695651Y-30485441D01*
X8695651Y-30471156D01*
X8681365Y-30442584D01*
X8652794Y-30428299D01*
X8609937Y-30428299D01*
X8581365Y-30414013D01*
X8567080Y-30385441D01*
X8567080Y-30371156D01*
X8581365Y-30342584D01*
X8609937Y-30328299D01*
X8652794Y-30328299D01*
X8681365Y-30342584D01*
X8795651Y-30642584D02*
X8809937Y-30628299D01*
X8838508Y-30585441D01*
X8852794Y-30556870D01*
X8867080Y-30514013D01*
X8881365Y-30442584D01*
X8881365Y-30385441D01*
X8867080Y-30314013D01*
X8852794Y-30271156D01*
X8838508Y-30242584D01*
X8809937Y-30199727D01*
X8795651Y-30185441D01*
X1873508Y-30713584D02*
X2023508Y-30863584D01*
X2023508Y-30713584D02*
X1873508Y-30863584D01*
X1948508Y-30713584D02*
X1948508Y-30863584D01*
X1873508Y-30788584D02*
X2023508Y-30788584D01*
X2467080Y-30924299D02*
X2295651Y-30924299D01*
X2381365Y-30924299D02*
X2381365Y-30624299D01*
X2352794Y-30667156D01*
X2324223Y-30695727D01*
X2295651Y-30710013D01*
X2595651Y-30895727D02*
X2609937Y-30910013D01*
X2595651Y-30924299D01*
X2581365Y-30910013D01*
X2595651Y-30895727D01*
X2595651Y-30924299D01*
X2881365Y-30624299D02*
X2738508Y-30624299D01*
X2724223Y-30767156D01*
X2738508Y-30752870D01*
X2767080Y-30738584D01*
X2838508Y-30738584D01*
X2867080Y-30752870D01*
X2881365Y-30767156D01*
X2895651Y-30795727D01*
X2895651Y-30867156D01*
X2881365Y-30895727D01*
X2867080Y-30910013D01*
X2838508Y-30924299D01*
X2767080Y-30924299D01*
X2738508Y-30910013D01*
X2724223Y-30895727D01*
X3081365Y-30624299D02*
X3109937Y-30624299D01*
X3138508Y-30638584D01*
X3152794Y-30652870D01*
X3167080Y-30681441D01*
X3181365Y-30738584D01*
X3181365Y-30810013D01*
X3167080Y-30867156D01*
X3152794Y-30895727D01*
X3138508Y-30910013D01*
X3109937Y-30924299D01*
X3081365Y-30924299D01*
X3052794Y-30910013D01*
X3038508Y-30895727D01*
X3024222Y-30867156D01*
X3009937Y-30810013D01*
X3009937Y-30738584D01*
X3024222Y-30681441D01*
X3038508Y-30652870D01*
X3052794Y-30638584D01*
X3081365Y-30624299D01*
X3309937Y-30924299D02*
X3309937Y-30724299D01*
X3309937Y-30752870D02*
X3324222Y-30738584D01*
X3352794Y-30724299D01*
X3395651Y-30724299D01*
X3424222Y-30738584D01*
X3438508Y-30767156D01*
X3438508Y-30924299D01*
X3438508Y-30767156D02*
X3452794Y-30738584D01*
X3481365Y-30724299D01*
X3524222Y-30724299D01*
X3552794Y-30738584D01*
X3567080Y-30767156D01*
X3567080Y-30924299D01*
X3709937Y-30924299D02*
X3709937Y-30724299D01*
X3709937Y-30752870D02*
X3724222Y-30738584D01*
X3752794Y-30724299D01*
X3795651Y-30724299D01*
X3824222Y-30738584D01*
X3838508Y-30767156D01*
X3838508Y-30924299D01*
X3838508Y-30767156D02*
X3852794Y-30738584D01*
X3881365Y-30724299D01*
X3924222Y-30724299D01*
X3952794Y-30738584D01*
X3967080Y-30767156D01*
X3967080Y-30924299D01*
X4552794Y-30610013D02*
X4295651Y-30995727D01*
X4938508Y-30624299D02*
X4967080Y-30624299D01*
X4995651Y-30638584D01*
X5009937Y-30652870D01*
X5024223Y-30681441D01*
X5038508Y-30738584D01*
X5038508Y-30810013D01*
X5024223Y-30867156D01*
X5009937Y-30895727D01*
X4995651Y-30910013D01*
X4967080Y-30924299D01*
X4938508Y-30924299D01*
X4909937Y-30910013D01*
X4895651Y-30895727D01*
X4881365Y-30867156D01*
X4867080Y-30810013D01*
X4867080Y-30738584D01*
X4881365Y-30681441D01*
X4895651Y-30652870D01*
X4909937Y-30638584D01*
X4938508Y-30624299D01*
X5167080Y-30895727D02*
X5181365Y-30910013D01*
X5167080Y-30924299D01*
X5152794Y-30910013D01*
X5167080Y-30895727D01*
X5167080Y-30924299D01*
X5367080Y-30624299D02*
X5395651Y-30624299D01*
X5424223Y-30638584D01*
X5438508Y-30652870D01*
X5452794Y-30681441D01*
X5467080Y-30738584D01*
X5467080Y-30810013D01*
X5452794Y-30867156D01*
X5438508Y-30895727D01*
X5424223Y-30910013D01*
X5395651Y-30924299D01*
X5367080Y-30924299D01*
X5338508Y-30910013D01*
X5324223Y-30895727D01*
X5309937Y-30867156D01*
X5295651Y-30810013D01*
X5295651Y-30738584D01*
X5309937Y-30681441D01*
X5324223Y-30652870D01*
X5338508Y-30638584D01*
X5367080Y-30624299D01*
X5738508Y-30624299D02*
X5595651Y-30624299D01*
X5581365Y-30767156D01*
X5595651Y-30752870D01*
X5624222Y-30738584D01*
X5695651Y-30738584D01*
X5724222Y-30752870D01*
X5738508Y-30767156D01*
X5752794Y-30795727D01*
X5752794Y-30867156D01*
X5738508Y-30895727D01*
X5724222Y-30910013D01*
X5695651Y-30924299D01*
X5624222Y-30924299D01*
X5595651Y-30910013D01*
X5581365Y-30895727D01*
X5895651Y-30924299D02*
X5952794Y-30924299D01*
X5981365Y-30910013D01*
X5995651Y-30895727D01*
X6024222Y-30852870D01*
X6038508Y-30795727D01*
X6038508Y-30681441D01*
X6024222Y-30652870D01*
X6009937Y-30638584D01*
X5981365Y-30624299D01*
X5924222Y-30624299D01*
X5895651Y-30638584D01*
X5881365Y-30652870D01*
X5867080Y-30681441D01*
X5867080Y-30752870D01*
X5881365Y-30781441D01*
X5895651Y-30795727D01*
X5924222Y-30810013D01*
X5981365Y-30810013D01*
X6009937Y-30795727D01*
X6024222Y-30781441D01*
X6038508Y-30752870D01*
X6152794Y-30624299D02*
X6152794Y-30681441D01*
X6267080Y-30624299D02*
X6267080Y-30681441D01*
X6709937Y-31038584D02*
X6695651Y-31024299D01*
X6667080Y-30981441D01*
X6652794Y-30952870D01*
X6638508Y-30910013D01*
X6624222Y-30838584D01*
X6624222Y-30781441D01*
X6638508Y-30710013D01*
X6652794Y-30667156D01*
X6667080Y-30638584D01*
X6695651Y-30595727D01*
X6709937Y-30581441D01*
X6838508Y-30924299D02*
X6895651Y-30924299D01*
X6924222Y-30910013D01*
X6938508Y-30895727D01*
X6967080Y-30852870D01*
X6981365Y-30795727D01*
X6981365Y-30681441D01*
X6967080Y-30652870D01*
X6952794Y-30638584D01*
X6924222Y-30624299D01*
X6867080Y-30624299D01*
X6838508Y-30638584D01*
X6824222Y-30652870D01*
X6809937Y-30681441D01*
X6809937Y-30752870D01*
X6824222Y-30781441D01*
X6838508Y-30795727D01*
X6867080Y-30810013D01*
X6924222Y-30810013D01*
X6952794Y-30795727D01*
X6967080Y-30781441D01*
X6981365Y-30752870D01*
X7238508Y-30724299D02*
X7238508Y-30924299D01*
X7167080Y-30610013D02*
X7095651Y-30824299D01*
X7281365Y-30824299D01*
X7624222Y-30924299D02*
X7624222Y-30624299D01*
X7752794Y-30924299D02*
X7752794Y-30767156D01*
X7738508Y-30738584D01*
X7709937Y-30724299D01*
X7667080Y-30724299D01*
X7638508Y-30738584D01*
X7624222Y-30752870D01*
X7938508Y-30924299D02*
X7909937Y-30910013D01*
X7895651Y-30895727D01*
X7881365Y-30867156D01*
X7881365Y-30781441D01*
X7895651Y-30752870D01*
X7909937Y-30738584D01*
X7938508Y-30724299D01*
X7981365Y-30724299D01*
X8009937Y-30738584D01*
X8024222Y-30752870D01*
X8038508Y-30781441D01*
X8038508Y-30867156D01*
X8024222Y-30895727D01*
X8009937Y-30910013D01*
X7981365Y-30924299D01*
X7938508Y-30924299D01*
X8209937Y-30924299D02*
X8181365Y-30910013D01*
X8167080Y-30881441D01*
X8167080Y-30624299D01*
X8438508Y-30910013D02*
X8409937Y-30924299D01*
X8352794Y-30924299D01*
X8324222Y-30910013D01*
X8309937Y-30881441D01*
X8309937Y-30767156D01*
X8324222Y-30738584D01*
X8352794Y-30724299D01*
X8409937Y-30724299D01*
X8438508Y-30738584D01*
X8452794Y-30767156D01*
X8452794Y-30795727D01*
X8309937Y-30824299D01*
X8567080Y-30910013D02*
X8595651Y-30924299D01*
X8652794Y-30924299D01*
X8681365Y-30910013D01*
X8695651Y-30881441D01*
X8695651Y-30867156D01*
X8681365Y-30838584D01*
X8652794Y-30824299D01*
X8609937Y-30824299D01*
X8581365Y-30810013D01*
X8567080Y-30781441D01*
X8567080Y-30767156D01*
X8581365Y-30738584D01*
X8609937Y-30724299D01*
X8652794Y-30724299D01*
X8681365Y-30738584D01*
X8795651Y-31038584D02*
X8809937Y-31024299D01*
X8838508Y-30981441D01*
X8852794Y-30952870D01*
X8867080Y-30910013D01*
X8881365Y-30838584D01*
X8881365Y-30781441D01*
X8867080Y-30710013D01*
X8852794Y-30667156D01*
X8838508Y-30638584D01*
X8809937Y-30595727D01*
X8795651Y-30581441D01*
X1593508Y-30969584D02*
X2023508Y-31399584D01*
X2023508Y-30969584D02*
X1593508Y-31399584D01*
X1960538Y-31336614D02*
X1960538Y-31032555D01*
X1656479Y-31032555D01*
X1656479Y-31336614D01*
X1960538Y-31336614D01*
X2438508Y-31120299D02*
X2438508Y-31320299D01*
X2367080Y-31006013D02*
X2295651Y-31220299D01*
X2481365Y-31220299D01*
X2595651Y-31291727D02*
X2609937Y-31306013D01*
X2595651Y-31320299D01*
X2581365Y-31306013D01*
X2595651Y-31291727D01*
X2595651Y-31320299D01*
X2709937Y-31020299D02*
X2895651Y-31020299D01*
X2795651Y-31134584D01*
X2838508Y-31134584D01*
X2867080Y-31148870D01*
X2881365Y-31163156D01*
X2895651Y-31191727D01*
X2895651Y-31263156D01*
X2881365Y-31291727D01*
X2867080Y-31306013D01*
X2838508Y-31320299D01*
X2752794Y-31320299D01*
X2724223Y-31306013D01*
X2709937Y-31291727D01*
X3081365Y-31020299D02*
X3109937Y-31020299D01*
X3138508Y-31034584D01*
X3152794Y-31048870D01*
X3167080Y-31077441D01*
X3181365Y-31134584D01*
X3181365Y-31206013D01*
X3167080Y-31263156D01*
X3152794Y-31291727D01*
X3138508Y-31306013D01*
X3109937Y-31320299D01*
X3081365Y-31320299D01*
X3052794Y-31306013D01*
X3038508Y-31291727D01*
X3024222Y-31263156D01*
X3009937Y-31206013D01*
X3009937Y-31134584D01*
X3024222Y-31077441D01*
X3038508Y-31048870D01*
X3052794Y-31034584D01*
X3081365Y-31020299D01*
X3309937Y-31320299D02*
X3309937Y-31120299D01*
X3309937Y-31148870D02*
X3324222Y-31134584D01*
X3352794Y-31120299D01*
X3395651Y-31120299D01*
X3424222Y-31134584D01*
X3438508Y-31163156D01*
X3438508Y-31320299D01*
X3438508Y-31163156D02*
X3452794Y-31134584D01*
X3481365Y-31120299D01*
X3524222Y-31120299D01*
X3552794Y-31134584D01*
X3567080Y-31163156D01*
X3567080Y-31320299D01*
X3709937Y-31320299D02*
X3709937Y-31120299D01*
X3709937Y-31148870D02*
X3724222Y-31134584D01*
X3752794Y-31120299D01*
X3795651Y-31120299D01*
X3824222Y-31134584D01*
X3838508Y-31163156D01*
X3838508Y-31320299D01*
X3838508Y-31163156D02*
X3852794Y-31134584D01*
X3881365Y-31120299D01*
X3924222Y-31120299D01*
X3952794Y-31134584D01*
X3967080Y-31163156D01*
X3967080Y-31320299D01*
X4552794Y-31006013D02*
X4295651Y-31391727D01*
X4938508Y-31020299D02*
X4967080Y-31020299D01*
X4995651Y-31034584D01*
X5009937Y-31048870D01*
X5024223Y-31077441D01*
X5038508Y-31134584D01*
X5038508Y-31206013D01*
X5024223Y-31263156D01*
X5009937Y-31291727D01*
X4995651Y-31306013D01*
X4967080Y-31320299D01*
X4938508Y-31320299D01*
X4909937Y-31306013D01*
X4895651Y-31291727D01*
X4881365Y-31263156D01*
X4867080Y-31206013D01*
X4867080Y-31134584D01*
X4881365Y-31077441D01*
X4895651Y-31048870D01*
X4909937Y-31034584D01*
X4938508Y-31020299D01*
X5167080Y-31291727D02*
X5181365Y-31306013D01*
X5167080Y-31320299D01*
X5152794Y-31306013D01*
X5167080Y-31291727D01*
X5167080Y-31320299D01*
X5467080Y-31320299D02*
X5295651Y-31320299D01*
X5381365Y-31320299D02*
X5381365Y-31020299D01*
X5352794Y-31063156D01*
X5324223Y-31091727D01*
X5295651Y-31106013D01*
X5724222Y-31020299D02*
X5667080Y-31020299D01*
X5638508Y-31034584D01*
X5624222Y-31048870D01*
X5595651Y-31091727D01*
X5581365Y-31148870D01*
X5581365Y-31263156D01*
X5595651Y-31291727D01*
X5609937Y-31306013D01*
X5638508Y-31320299D01*
X5695651Y-31320299D01*
X5724222Y-31306013D01*
X5738508Y-31291727D01*
X5752794Y-31263156D01*
X5752794Y-31191727D01*
X5738508Y-31163156D01*
X5724222Y-31148870D01*
X5695651Y-31134584D01*
X5638508Y-31134584D01*
X5609937Y-31148870D01*
X5595651Y-31163156D01*
X5581365Y-31191727D01*
X5895651Y-31320299D02*
X5952794Y-31320299D01*
X5981365Y-31306013D01*
X5995651Y-31291727D01*
X6024222Y-31248870D01*
X6038508Y-31191727D01*
X6038508Y-31077441D01*
X6024222Y-31048870D01*
X6009937Y-31034584D01*
X5981365Y-31020299D01*
X5924222Y-31020299D01*
X5895651Y-31034584D01*
X5881365Y-31048870D01*
X5867080Y-31077441D01*
X5867080Y-31148870D01*
X5881365Y-31177441D01*
X5895651Y-31191727D01*
X5924222Y-31206013D01*
X5981365Y-31206013D01*
X6009937Y-31191727D01*
X6024222Y-31177441D01*
X6038508Y-31148870D01*
X6152794Y-31020299D02*
X6152794Y-31077441D01*
X6267080Y-31020299D02*
X6267080Y-31077441D01*
X6709937Y-31434584D02*
X6695651Y-31420299D01*
X6667080Y-31377441D01*
X6652794Y-31348870D01*
X6638508Y-31306013D01*
X6624222Y-31234584D01*
X6624222Y-31177441D01*
X6638508Y-31106013D01*
X6652794Y-31063156D01*
X6667080Y-31034584D01*
X6695651Y-30991727D01*
X6709937Y-30977441D01*
X6867080Y-31148870D02*
X6838508Y-31134584D01*
X6824222Y-31120299D01*
X6809937Y-31091727D01*
X6809937Y-31077441D01*
X6824222Y-31048870D01*
X6838508Y-31034584D01*
X6867080Y-31020299D01*
X6924222Y-31020299D01*
X6952794Y-31034584D01*
X6967080Y-31048870D01*
X6981365Y-31077441D01*
X6981365Y-31091727D01*
X6967080Y-31120299D01*
X6952794Y-31134584D01*
X6924222Y-31148870D01*
X6867080Y-31148870D01*
X6838508Y-31163156D01*
X6824222Y-31177441D01*
X6809937Y-31206013D01*
X6809937Y-31263156D01*
X6824222Y-31291727D01*
X6838508Y-31306013D01*
X6867080Y-31320299D01*
X6924222Y-31320299D01*
X6952794Y-31306013D01*
X6967080Y-31291727D01*
X6981365Y-31263156D01*
X6981365Y-31206013D01*
X6967080Y-31177441D01*
X6952794Y-31163156D01*
X6924222Y-31148870D01*
X7338508Y-31320299D02*
X7338508Y-31020299D01*
X7467080Y-31320299D02*
X7467080Y-31163156D01*
X7452794Y-31134584D01*
X7424222Y-31120299D01*
X7381365Y-31120299D01*
X7352794Y-31134584D01*
X7338508Y-31148870D01*
X7652794Y-31320299D02*
X7624222Y-31306013D01*
X7609937Y-31291727D01*
X7595651Y-31263156D01*
X7595651Y-31177441D01*
X7609937Y-31148870D01*
X7624222Y-31134584D01*
X7652794Y-31120299D01*
X7695651Y-31120299D01*
X7724222Y-31134584D01*
X7738508Y-31148870D01*
X7752794Y-31177441D01*
X7752794Y-31263156D01*
X7738508Y-31291727D01*
X7724222Y-31306013D01*
X7695651Y-31320299D01*
X7652794Y-31320299D01*
X7924222Y-31320299D02*
X7895651Y-31306013D01*
X7881365Y-31277441D01*
X7881365Y-31020299D01*
X8152794Y-31306013D02*
X8124222Y-31320299D01*
X8067080Y-31320299D01*
X8038508Y-31306013D01*
X8024222Y-31277441D01*
X8024222Y-31163156D01*
X8038508Y-31134584D01*
X8067080Y-31120299D01*
X8124222Y-31120299D01*
X8152794Y-31134584D01*
X8167080Y-31163156D01*
X8167080Y-31191727D01*
X8024222Y-31220299D01*
X8281365Y-31306013D02*
X8309937Y-31320299D01*
X8367080Y-31320299D01*
X8395651Y-31306013D01*
X8409937Y-31277441D01*
X8409937Y-31263156D01*
X8395651Y-31234584D01*
X8367080Y-31220299D01*
X8324222Y-31220299D01*
X8295651Y-31206013D01*
X8281365Y-31177441D01*
X8281365Y-31163156D01*
X8295651Y-31134584D01*
X8324222Y-31120299D01*
X8367080Y-31120299D01*
X8395651Y-31134584D01*
X8509937Y-31434584D02*
X8524223Y-31420299D01*
X8552794Y-31377441D01*
X8567080Y-31348870D01*
X8581365Y-31306013D01*
X8595651Y-31234584D01*
X8595651Y-31177441D01*
X8581365Y-31106013D01*
X8567080Y-31063156D01*
X8552794Y-31034584D01*
X8524223Y-30991727D01*
X8509937Y-30977441D01*
M02*
