M48
; DRILL file {KiCad 5.1.6-c6e7f7d~87~ubuntu20.04.1} date Wed Sep  9 12:41:03 2020
; FORMAT={-:-/ absolute / metric / decimal}
; #@! TF.CreationDate,2020-09-09T12:41:03+02:00
; #@! TF.GenerationSoftware,Kicad,Pcbnew,5.1.6-c6e7f7d~87~ubuntu20.04.1
; #@! TF.FileFunction,Plated,1,2,PTH
FMAT,2
METRIC
T1C0.400
T2C0.700
T3C0.800
T4C0.900
T5C1.000
T6C1.100
T7C1.500
T8C3.200
T9C4.300
%
G90
G05
T1
X64.5Y-200.0
X66.2Y-158.2
X74.1Y-204.1
X104.9Y-157.2
X123.9Y-134.8
X146.3Y-204.5
X167.3Y-234.3
X181.8Y-219.8
X184.079Y-201.184
X188.0Y-79.0
X189.9Y-139.3
X199.6Y-202.1
X213.7Y-202.0
X219.993Y-197.063
X226.5Y-204.0
X228.5Y-195.5
T2
X232.4Y-69.02
X232.4Y-74.1
X232.4Y-89.02
X232.4Y-94.1
X232.4Y-59.1
X232.4Y-64.18
X232.4Y-79.02
X232.4Y-84.1
T3
X91.0Y-113.78
X91.0Y-121.4
X43.5Y-190.0
X43.5Y-197.62
X139.2Y-160.78
X139.2Y-168.4
X162.4Y-92.18
X162.4Y-99.8
X210.0Y-92.18
X210.0Y-99.8
X186.2Y-163.58
X186.2Y-171.2
X45.58Y-109.4
X53.2Y-109.4
X162.4Y-139.78
X162.4Y-147.4
X114.8Y-111.18
X114.8Y-118.8
X114.8Y-158.78
X114.8Y-166.4
X91.0Y-185.18
X91.0Y-192.8
X214.901Y-236.89
X221.5Y-240.7
X173.301Y-213.19
X179.9Y-217.0
X181.4Y-63.78
X181.4Y-71.4
X66.8Y-63.58
X66.8Y-71.2
X45.58Y-156.8
X53.2Y-156.8
X45.78Y-133.0
X53.4Y-133.0
X138.6Y-89.78
X138.6Y-97.4
X162.4Y-163.58
X162.4Y-171.2
X38.2Y-63.78
X38.2Y-71.4
X91.2Y-138.4
X91.2Y-146.02
X114.8Y-134.98
X114.8Y-142.6
X152.6Y-63.78
X152.6Y-71.4
X67.2Y-165.98
X67.2Y-173.6
X114.8Y-87.4
X114.8Y-95.02
X138.4Y-137.38
X138.4Y-145.0
X45.38Y-180.6
X53.0Y-180.6
X67.0Y-190.38
X67.0Y-198.0
X217.0Y-178.2
X224.62Y-178.2
X186.2Y-139.8
X186.2Y-147.42
X186.2Y-92.18
X186.2Y-99.8
X209.8Y-63.78
X209.8Y-71.4
X91.0Y-89.98
X91.0Y-97.6
X194.1Y-225.0
X200.699Y-228.81
X67.0Y-142.38
X67.0Y-150.0
X114.8Y-182.78
X114.8Y-190.4
X91.0Y-161.18
X91.0Y-168.8
X67.2Y-118.4
X67.2Y-126.02
X124.0Y-63.58
X124.0Y-71.2
X67.0Y-94.78
X67.0Y-102.4
X217.2Y-144.8
X224.82Y-144.8
X138.6Y-185.2
X138.6Y-192.82
X95.4Y-63.58
X95.4Y-71.2
X162.5Y-115.88
X162.5Y-123.5
X206.1Y-204.4
X212.699Y-208.21
X186.0Y-115.98
X186.0Y-123.6
X138.6Y-113.58
X138.6Y-121.2
T4
X237.5Y-90.1
X237.5Y-92.64
X237.5Y-60.1
X237.5Y-62.64
X237.5Y-70.1
X237.5Y-72.64
X237.5Y-80.1
X237.5Y-82.64
T5
X232.48Y-188.055
X232.48Y-190.345
X232.48Y-192.635
X232.48Y-194.925
X232.48Y-197.215
X234.46Y-189.2
X234.46Y-191.49
X234.46Y-193.78
X234.46Y-196.07
X234.46Y-198.36
X236.44Y-188.055
X236.44Y-190.345
X236.44Y-192.635
X236.44Y-194.925
X236.44Y-197.215
T6
X21.87Y-221.38
X21.87Y-236.62
X24.41Y-221.38
X24.41Y-236.62
X26.95Y-221.38
X26.95Y-236.62
X29.49Y-221.38
X29.49Y-236.62
X32.03Y-221.38
X32.03Y-236.62
X34.57Y-221.38
X34.57Y-236.62
X37.11Y-221.38
X37.11Y-236.62
X39.65Y-221.38
X39.65Y-236.62
X42.19Y-221.38
X42.19Y-236.62
X44.73Y-221.38
X44.73Y-236.62
X47.27Y-221.38
X47.27Y-236.62
X49.81Y-221.38
X49.81Y-236.62
X52.35Y-221.38
X52.35Y-236.62
X54.89Y-221.38
X54.89Y-229.0
X54.89Y-231.54
X54.89Y-236.62
X57.43Y-221.38
X57.43Y-229.0
X57.43Y-231.54
X57.43Y-236.62
X59.97Y-221.38
X59.97Y-229.0
X59.97Y-231.54
X59.97Y-236.62
X62.51Y-221.38
X62.51Y-226.46
X62.51Y-229.0
X62.51Y-231.54
X62.51Y-236.62
X65.05Y-221.38
X65.05Y-236.62
X67.59Y-221.38
X67.59Y-236.62
X70.13Y-221.38
X70.13Y-226.46
X70.13Y-229.0
X70.13Y-231.54
X70.13Y-236.62
T7
X121.79Y-183.86
X128.14Y-181.32
X169.39Y-93.46
X175.74Y-90.92
X121.79Y-88.66
X128.14Y-86.12
X145.79Y-162.46
X152.14Y-159.92
X45.59Y-119.66
X51.94Y-117.12
X74.19Y-167.26
X80.54Y-164.72
X97.99Y-114.86
X104.34Y-112.32
X193.19Y-117.06
X199.54Y-114.52
X131.19Y-64.86
X137.54Y-62.32
X45.59Y-167.26
X51.94Y-164.72
X215.72Y-126.66
X218.26Y-133.01
X221.871Y-225.296
X228.64Y-226.271
X188.39Y-64.86
X194.74Y-62.32
X121.79Y-136.26
X128.14Y-133.72
X145.59Y-114.86
X151.94Y-112.32
X97.99Y-91.06
X104.34Y-88.52
X193.19Y-93.46
X199.54Y-90.92
X45.59Y-143.46
X51.94Y-140.92
X97.99Y-186.26
X104.34Y-183.72
X216.99Y-93.26
X223.34Y-90.72
X201.271Y-213.496
X208.04Y-214.471
X74.19Y-119.66
X80.54Y-117.12
X121.79Y-160.06
X128.14Y-157.52
X73.99Y-64.86
X80.34Y-62.32
X102.59Y-64.86
X108.94Y-62.32
X213.071Y-192.896
X219.84Y-193.871
X216.79Y-64.86
X223.14Y-62.32
X74.19Y-95.86
X80.54Y-93.32
X145.59Y-91.26
X151.94Y-88.72
X50.59Y-191.06
X56.94Y-188.52
X97.99Y-138.66
X104.34Y-136.12
X193.19Y-141.06
X199.54Y-138.52
X145.59Y-186.26
X151.94Y-183.72
X121.79Y-112.46
X128.14Y-109.92
X74.19Y-191.06
X80.54Y-188.52
X169.39Y-141.06
X175.74Y-138.52
X159.79Y-64.86
X166.14Y-62.32
X45.39Y-65.06
X51.74Y-62.52
X169.39Y-117.26
X175.74Y-114.72
X180.571Y-201.596
X187.34Y-202.571
X145.59Y-138.66
X151.94Y-136.12
X169.39Y-164.66
X175.74Y-162.12
X45.59Y-95.86
X51.94Y-93.32
X97.99Y-162.46
X104.34Y-159.92
X193.19Y-164.86
X199.54Y-162.32
X74.19Y-143.46
X80.54Y-140.92
X215.72Y-160.06
X218.26Y-166.41
T8
X233.9Y-180.4
X233.9Y-205.4
T9
X27.5Y-158.5
X132.5Y-50.5
X27.5Y-50.5
X132.5Y-266.5
X237.5Y-158.5
X27.5Y-266.5
X237.5Y-50.5
X237.5Y-266.5
T0
M30
