%TF.GenerationSoftware,KiCad,Pcbnew,5.1.6-c6e7f7d~87~ubuntu20.04.1*%
%TF.CreationDate,2020-09-08T11:47:55+02:00*%
%TF.ProjectId,pcb-flat-left,7063622d-666c-4617-942d-6c6566742e6b,rev?*%
%TF.SameCoordinates,Original*%
%TF.FileFunction,Legend,Bot*%
%TF.FilePolarity,Positive*%
%FSLAX46Y46*%
G04 Gerber Fmt 4.6, Leading zero omitted, Abs format (unit mm)*
G04 Created by KiCad (PCBNEW 5.1.6-c6e7f7d~87~ubuntu20.04.1) date 2020-09-08 11:47:55*
%MOMM*%
%LPD*%
G01*
G04 APERTURE LIST*
%ADD10C,0.010000*%
%ADD11C,0.120000*%
%ADD12C,0.150000*%
G04 APERTURE END LIST*
D10*
%TO.C,REF\u002A\u002A*%
G36*
X46481718Y-271428097D02*
G01*
X46418681Y-271472781D01*
X46363015Y-271528447D01*
X46363015Y-272150080D01*
X46363161Y-272334659D01*
X46363850Y-272479383D01*
X46365463Y-272589755D01*
X46368380Y-272671276D01*
X46372978Y-272729449D01*
X46379639Y-272769777D01*
X46388742Y-272797760D01*
X46400666Y-272818903D01*
X46410019Y-272831468D01*
X46471755Y-272880835D01*
X46542643Y-272886193D01*
X46607434Y-272855919D01*
X46628843Y-272838046D01*
X46643154Y-272814305D01*
X46651786Y-272776075D01*
X46656158Y-272714733D01*
X46657690Y-272621660D01*
X46657837Y-272549758D01*
X46657837Y-272278902D01*
X47655694Y-272278902D01*
X47655694Y-272525307D01*
X47656726Y-272637982D01*
X47660854Y-272715418D01*
X47669629Y-272767708D01*
X47684598Y-272804944D01*
X47702697Y-272831468D01*
X47764779Y-272880696D01*
X47834988Y-272886525D01*
X47902201Y-272851535D01*
X47920552Y-272833193D01*
X47933512Y-272808877D01*
X47942061Y-272771001D01*
X47947175Y-272711978D01*
X47949831Y-272624222D01*
X47951009Y-272500146D01*
X47951146Y-272471669D01*
X47952118Y-272237892D01*
X47952619Y-272045228D01*
X47952456Y-271889435D01*
X47951435Y-271766271D01*
X47949363Y-271671493D01*
X47946047Y-271600859D01*
X47941293Y-271550126D01*
X47934909Y-271515052D01*
X47926700Y-271491393D01*
X47916473Y-271474909D01*
X47905158Y-271462473D01*
X47841151Y-271422694D01*
X47774397Y-271428097D01*
X47711360Y-271472781D01*
X47685851Y-271501610D01*
X47669591Y-271533455D01*
X47660519Y-271578808D01*
X47656574Y-271648166D01*
X47655695Y-271752022D01*
X47655694Y-271756264D01*
X47655694Y-271984080D01*
X46657837Y-271984080D01*
X46657837Y-271745955D01*
X46656819Y-271636251D01*
X46652729Y-271562176D01*
X46644015Y-271514027D01*
X46629125Y-271482101D01*
X46612480Y-271462473D01*
X46548473Y-271422694D01*
X46481718Y-271428097D01*
G37*
X46481718Y-271428097D02*
X46418681Y-271472781D01*
X46363015Y-271528447D01*
X46363015Y-272150080D01*
X46363161Y-272334659D01*
X46363850Y-272479383D01*
X46365463Y-272589755D01*
X46368380Y-272671276D01*
X46372978Y-272729449D01*
X46379639Y-272769777D01*
X46388742Y-272797760D01*
X46400666Y-272818903D01*
X46410019Y-272831468D01*
X46471755Y-272880835D01*
X46542643Y-272886193D01*
X46607434Y-272855919D01*
X46628843Y-272838046D01*
X46643154Y-272814305D01*
X46651786Y-272776075D01*
X46656158Y-272714733D01*
X46657690Y-272621660D01*
X46657837Y-272549758D01*
X46657837Y-272278902D01*
X47655694Y-272278902D01*
X47655694Y-272525307D01*
X47656726Y-272637982D01*
X47660854Y-272715418D01*
X47669629Y-272767708D01*
X47684598Y-272804944D01*
X47702697Y-272831468D01*
X47764779Y-272880696D01*
X47834988Y-272886525D01*
X47902201Y-272851535D01*
X47920552Y-272833193D01*
X47933512Y-272808877D01*
X47942061Y-272771001D01*
X47947175Y-272711978D01*
X47949831Y-272624222D01*
X47951009Y-272500146D01*
X47951146Y-272471669D01*
X47952118Y-272237892D01*
X47952619Y-272045228D01*
X47952456Y-271889435D01*
X47951435Y-271766271D01*
X47949363Y-271671493D01*
X47946047Y-271600859D01*
X47941293Y-271550126D01*
X47934909Y-271515052D01*
X47926700Y-271491393D01*
X47916473Y-271474909D01*
X47905158Y-271462473D01*
X47841151Y-271422694D01*
X47774397Y-271428097D01*
X47711360Y-271472781D01*
X47685851Y-271501610D01*
X47669591Y-271533455D01*
X47660519Y-271578808D01*
X47656574Y-271648166D01*
X47655695Y-271752022D01*
X47655694Y-271756264D01*
X47655694Y-271984080D01*
X46657837Y-271984080D01*
X46657837Y-271745955D01*
X46656819Y-271636251D01*
X46652729Y-271562176D01*
X46644015Y-271514027D01*
X46629125Y-271482101D01*
X46612480Y-271462473D01*
X46548473Y-271422694D01*
X46481718Y-271428097D01*
G36*
X49024537Y-271417310D02*
G01*
X48866419Y-271418070D01*
X48743692Y-271419660D01*
X48651374Y-271422345D01*
X48584481Y-271426390D01*
X48538032Y-271432060D01*
X48507043Y-271439620D01*
X48486532Y-271449335D01*
X48476606Y-271456803D01*
X48425089Y-271522165D01*
X48418857Y-271590028D01*
X48450693Y-271651677D01*
X48471512Y-271676312D01*
X48493915Y-271693110D01*
X48526383Y-271703570D01*
X48577394Y-271709195D01*
X48655430Y-271711483D01*
X48768970Y-271711935D01*
X48791269Y-271711937D01*
X49084444Y-271711937D01*
X49084444Y-272256223D01*
X49084637Y-272427782D01*
X49085514Y-272559789D01*
X49087522Y-272658045D01*
X49091106Y-272728356D01*
X49096713Y-272776523D01*
X49104789Y-272808351D01*
X49115782Y-272829642D01*
X49129801Y-272845866D01*
X49195961Y-272885734D01*
X49265026Y-272882592D01*
X49327660Y-272837105D01*
X49332262Y-272831468D01*
X49347243Y-272810158D01*
X49358657Y-272785225D01*
X49366986Y-272750609D01*
X49372713Y-272700253D01*
X49376321Y-272628098D01*
X49378294Y-272528086D01*
X49379114Y-272394158D01*
X49379265Y-272241825D01*
X49379265Y-271711937D01*
X49659233Y-271711937D01*
X49779378Y-271711124D01*
X49862555Y-271707956D01*
X49917137Y-271701339D01*
X49951494Y-271690179D01*
X49974000Y-271673384D01*
X49976733Y-271670464D01*
X50009594Y-271603690D01*
X50006688Y-271528200D01*
X49968908Y-271462473D01*
X49954298Y-271449724D01*
X49935460Y-271439615D01*
X49907372Y-271431840D01*
X49865010Y-271426095D01*
X49803350Y-271422074D01*
X49717368Y-271419472D01*
X49602042Y-271417982D01*
X49452348Y-271417299D01*
X49263262Y-271417119D01*
X49223028Y-271417116D01*
X49024537Y-271417310D01*
G37*
X49024537Y-271417310D02*
X48866419Y-271418070D01*
X48743692Y-271419660D01*
X48651374Y-271422345D01*
X48584481Y-271426390D01*
X48538032Y-271432060D01*
X48507043Y-271439620D01*
X48486532Y-271449335D01*
X48476606Y-271456803D01*
X48425089Y-271522165D01*
X48418857Y-271590028D01*
X48450693Y-271651677D01*
X48471512Y-271676312D01*
X48493915Y-271693110D01*
X48526383Y-271703570D01*
X48577394Y-271709195D01*
X48655430Y-271711483D01*
X48768970Y-271711935D01*
X48791269Y-271711937D01*
X49084444Y-271711937D01*
X49084444Y-272256223D01*
X49084637Y-272427782D01*
X49085514Y-272559789D01*
X49087522Y-272658045D01*
X49091106Y-272728356D01*
X49096713Y-272776523D01*
X49104789Y-272808351D01*
X49115782Y-272829642D01*
X49129801Y-272845866D01*
X49195961Y-272885734D01*
X49265026Y-272882592D01*
X49327660Y-272837105D01*
X49332262Y-272831468D01*
X49347243Y-272810158D01*
X49358657Y-272785225D01*
X49366986Y-272750609D01*
X49372713Y-272700253D01*
X49376321Y-272628098D01*
X49378294Y-272528086D01*
X49379114Y-272394158D01*
X49379265Y-272241825D01*
X49379265Y-271711937D01*
X49659233Y-271711937D01*
X49779378Y-271711124D01*
X49862555Y-271707956D01*
X49917137Y-271701339D01*
X49951494Y-271690179D01*
X49974000Y-271673384D01*
X49976733Y-271670464D01*
X50009594Y-271603690D01*
X50006688Y-271528200D01*
X49968908Y-271462473D01*
X49954298Y-271449724D01*
X49935460Y-271439615D01*
X49907372Y-271431840D01*
X49865010Y-271426095D01*
X49803350Y-271422074D01*
X49717368Y-271419472D01*
X49602042Y-271417982D01*
X49452348Y-271417299D01*
X49263262Y-271417119D01*
X49223028Y-271417116D01*
X49024537Y-271417310D01*
G36*
X50580353Y-271430797D02*
G01*
X50532715Y-271460469D01*
X50479176Y-271503823D01*
X50479176Y-272149785D01*
X50479347Y-272338738D01*
X50480077Y-272487604D01*
X50481695Y-272601655D01*
X50484529Y-272686159D01*
X50488908Y-272746386D01*
X50495159Y-272787608D01*
X50503611Y-272815093D01*
X50514592Y-272834113D01*
X50522379Y-272843485D01*
X50585537Y-272884654D01*
X50657457Y-272882975D01*
X50720458Y-272847870D01*
X50773998Y-272804516D01*
X50773998Y-271503823D01*
X50720458Y-271460469D01*
X50668785Y-271428933D01*
X50626587Y-271417116D01*
X50580353Y-271430797D01*
G37*
X50580353Y-271430797D02*
X50532715Y-271460469D01*
X50479176Y-271503823D01*
X50479176Y-272149785D01*
X50479347Y-272338738D01*
X50480077Y-272487604D01*
X50481695Y-272601655D01*
X50484529Y-272686159D01*
X50488908Y-272746386D01*
X50495159Y-272787608D01*
X50503611Y-272815093D01*
X50514592Y-272834113D01*
X50522379Y-272843485D01*
X50585537Y-272884654D01*
X50657457Y-272882975D01*
X50720458Y-272847870D01*
X50773998Y-272804516D01*
X50773998Y-271503823D01*
X50720458Y-271460469D01*
X50668785Y-271428933D01*
X50626587Y-271417116D01*
X50580353Y-271430797D01*
G36*
X51472215Y-271421068D02*
G01*
X51432861Y-271435132D01*
X51431342Y-271435820D01*
X51377900Y-271476604D01*
X51348455Y-271518555D01*
X51342693Y-271538224D01*
X51342978Y-271564360D01*
X51351085Y-271601591D01*
X51368792Y-271654551D01*
X51397876Y-271727868D01*
X51440113Y-271826174D01*
X51497280Y-271954099D01*
X51571154Y-272116275D01*
X51611816Y-272204916D01*
X51685241Y-272363158D01*
X51754169Y-272508680D01*
X51815968Y-272636160D01*
X51868009Y-272740279D01*
X51907659Y-272815716D01*
X51932289Y-272857151D01*
X51937163Y-272862875D01*
X51999522Y-272888125D01*
X52069960Y-272884743D01*
X52126452Y-272854033D01*
X52128754Y-272851535D01*
X52151226Y-272817515D01*
X52188922Y-272751251D01*
X52237194Y-272661272D01*
X52291392Y-272556109D01*
X52310870Y-272517356D01*
X52457898Y-272222863D01*
X52618157Y-272542772D01*
X52675359Y-272653306D01*
X52728429Y-272749167D01*
X52773031Y-272823016D01*
X52804830Y-272867516D01*
X52815607Y-272876952D01*
X52899374Y-272889732D01*
X52968496Y-272862875D01*
X52988829Y-272834172D01*
X53024014Y-272770381D01*
X53071181Y-272677779D01*
X53127460Y-272562643D01*
X53189981Y-272431249D01*
X53255873Y-272289875D01*
X53322266Y-272144797D01*
X53386290Y-272002293D01*
X53445074Y-271868640D01*
X53495748Y-271750114D01*
X53535442Y-271652992D01*
X53561285Y-271583552D01*
X53570408Y-271548070D01*
X53570315Y-271546785D01*
X53548119Y-271502137D01*
X53503754Y-271456663D01*
X53501141Y-271454685D01*
X53446614Y-271423863D01*
X53396179Y-271424161D01*
X53377276Y-271429972D01*
X53354241Y-271442530D01*
X53329780Y-271467234D01*
X53300958Y-271509207D01*
X53264840Y-271573575D01*
X53218492Y-271665463D01*
X53158981Y-271789994D01*
X53105313Y-271904946D01*
X53043568Y-272038195D01*
X52988240Y-272158023D01*
X52942203Y-272258171D01*
X52908330Y-272332378D01*
X52889498Y-272374384D01*
X52886751Y-272380955D01*
X52874398Y-272370213D01*
X52846007Y-272325236D01*
X52805355Y-272252588D01*
X52756221Y-272158834D01*
X52736669Y-272120152D01*
X52670435Y-271989535D01*
X52619356Y-271894411D01*
X52579240Y-271829252D01*
X52545896Y-271788525D01*
X52515131Y-271766701D01*
X52482755Y-271758249D01*
X52461656Y-271757294D01*
X52424438Y-271760592D01*
X52391824Y-271774232D01*
X52359418Y-271803834D01*
X52322824Y-271855016D01*
X52277646Y-271933398D01*
X52219488Y-272044600D01*
X52187400Y-272107858D01*
X52135352Y-272208675D01*
X52089956Y-272292280D01*
X52055220Y-272351620D01*
X52035147Y-272379639D01*
X52032417Y-272380806D01*
X52019454Y-272358754D01*
X51990431Y-272301493D01*
X51948255Y-272215016D01*
X51895832Y-272105316D01*
X51836069Y-271978386D01*
X51806671Y-271915339D01*
X51730192Y-271752630D01*
X51668608Y-271627429D01*
X51618722Y-271535651D01*
X51577337Y-271473210D01*
X51541256Y-271436023D01*
X51507281Y-271420004D01*
X51472215Y-271421068D01*
G37*
X51472215Y-271421068D02*
X51432861Y-271435132D01*
X51431342Y-271435820D01*
X51377900Y-271476604D01*
X51348455Y-271518555D01*
X51342693Y-271538224D01*
X51342978Y-271564360D01*
X51351085Y-271601591D01*
X51368792Y-271654551D01*
X51397876Y-271727868D01*
X51440113Y-271826174D01*
X51497280Y-271954099D01*
X51571154Y-272116275D01*
X51611816Y-272204916D01*
X51685241Y-272363158D01*
X51754169Y-272508680D01*
X51815968Y-272636160D01*
X51868009Y-272740279D01*
X51907659Y-272815716D01*
X51932289Y-272857151D01*
X51937163Y-272862875D01*
X51999522Y-272888125D01*
X52069960Y-272884743D01*
X52126452Y-272854033D01*
X52128754Y-272851535D01*
X52151226Y-272817515D01*
X52188922Y-272751251D01*
X52237194Y-272661272D01*
X52291392Y-272556109D01*
X52310870Y-272517356D01*
X52457898Y-272222863D01*
X52618157Y-272542772D01*
X52675359Y-272653306D01*
X52728429Y-272749167D01*
X52773031Y-272823016D01*
X52804830Y-272867516D01*
X52815607Y-272876952D01*
X52899374Y-272889732D01*
X52968496Y-272862875D01*
X52988829Y-272834172D01*
X53024014Y-272770381D01*
X53071181Y-272677779D01*
X53127460Y-272562643D01*
X53189981Y-272431249D01*
X53255873Y-272289875D01*
X53322266Y-272144797D01*
X53386290Y-272002293D01*
X53445074Y-271868640D01*
X53495748Y-271750114D01*
X53535442Y-271652992D01*
X53561285Y-271583552D01*
X53570408Y-271548070D01*
X53570315Y-271546785D01*
X53548119Y-271502137D01*
X53503754Y-271456663D01*
X53501141Y-271454685D01*
X53446614Y-271423863D01*
X53396179Y-271424161D01*
X53377276Y-271429972D01*
X53354241Y-271442530D01*
X53329780Y-271467234D01*
X53300958Y-271509207D01*
X53264840Y-271573575D01*
X53218492Y-271665463D01*
X53158981Y-271789994D01*
X53105313Y-271904946D01*
X53043568Y-272038195D01*
X52988240Y-272158023D01*
X52942203Y-272258171D01*
X52908330Y-272332378D01*
X52889498Y-272374384D01*
X52886751Y-272380955D01*
X52874398Y-272370213D01*
X52846007Y-272325236D01*
X52805355Y-272252588D01*
X52756221Y-272158834D01*
X52736669Y-272120152D01*
X52670435Y-271989535D01*
X52619356Y-271894411D01*
X52579240Y-271829252D01*
X52545896Y-271788525D01*
X52515131Y-271766701D01*
X52482755Y-271758249D01*
X52461656Y-271757294D01*
X52424438Y-271760592D01*
X52391824Y-271774232D01*
X52359418Y-271803834D01*
X52322824Y-271855016D01*
X52277646Y-271933398D01*
X52219488Y-272044600D01*
X52187400Y-272107858D01*
X52135352Y-272208675D01*
X52089956Y-272292280D01*
X52055220Y-272351620D01*
X52035147Y-272379639D01*
X52032417Y-272380806D01*
X52019454Y-272358754D01*
X51990431Y-272301493D01*
X51948255Y-272215016D01*
X51895832Y-272105316D01*
X51836069Y-271978386D01*
X51806671Y-271915339D01*
X51730192Y-271752630D01*
X51668608Y-271627429D01*
X51618722Y-271535651D01*
X51577337Y-271473210D01*
X51541256Y-271436023D01*
X51507281Y-271420004D01*
X51472215Y-271421068D01*
G36*
X56949270Y-271417534D02*
G01*
X56690159Y-271426295D01*
X56469774Y-271452863D01*
X56284481Y-271498828D01*
X56130645Y-271565783D01*
X56004634Y-271655316D01*
X55902813Y-271769019D01*
X55821549Y-271908482D01*
X55819950Y-271911883D01*
X55771451Y-272036702D01*
X55754171Y-272147246D01*
X55768175Y-272258497D01*
X55813532Y-272385433D01*
X55822134Y-272404749D01*
X55880794Y-272517806D01*
X55946720Y-272605165D01*
X56031806Y-272679427D01*
X56147946Y-272753191D01*
X56154693Y-272757042D01*
X56255796Y-272805608D01*
X56370071Y-272841879D01*
X56504859Y-272867106D01*
X56667505Y-272882539D01*
X56865351Y-272889431D01*
X56935253Y-272890030D01*
X57268116Y-272891223D01*
X57315119Y-272831468D01*
X57329062Y-272811819D01*
X57339939Y-272788873D01*
X57348129Y-272757129D01*
X57354013Y-272711082D01*
X57357969Y-272645233D01*
X57359259Y-272596402D01*
X57044623Y-272596402D01*
X56856020Y-272596402D01*
X56745655Y-272593174D01*
X56632359Y-272584681D01*
X56539375Y-272572703D01*
X56533762Y-272571694D01*
X56368610Y-272527388D01*
X56240510Y-272460822D01*
X56145410Y-272368907D01*
X56079257Y-272248555D01*
X56067753Y-272216658D01*
X56056478Y-272166980D01*
X56061360Y-272117900D01*
X56085113Y-272052607D01*
X56099431Y-272020532D01*
X56146318Y-271935297D01*
X56202809Y-271875499D01*
X56264965Y-271833857D01*
X56389468Y-271779668D01*
X56548806Y-271740415D01*
X56734427Y-271717812D01*
X56868864Y-271712837D01*
X57044623Y-271711937D01*
X57044623Y-272596402D01*
X57359259Y-272596402D01*
X57360378Y-272554078D01*
X57361619Y-272432115D01*
X57362072Y-272273841D01*
X57362123Y-272150080D01*
X57362123Y-271528447D01*
X57306457Y-271472781D01*
X57281752Y-271450218D01*
X57255039Y-271434766D01*
X57217736Y-271425098D01*
X57161257Y-271419887D01*
X57077022Y-271417805D01*
X56956445Y-271417524D01*
X56949270Y-271417534D01*
G37*
X56949270Y-271417534D02*
X56690159Y-271426295D01*
X56469774Y-271452863D01*
X56284481Y-271498828D01*
X56130645Y-271565783D01*
X56004634Y-271655316D01*
X55902813Y-271769019D01*
X55821549Y-271908482D01*
X55819950Y-271911883D01*
X55771451Y-272036702D01*
X55754171Y-272147246D01*
X55768175Y-272258497D01*
X55813532Y-272385433D01*
X55822134Y-272404749D01*
X55880794Y-272517806D01*
X55946720Y-272605165D01*
X56031806Y-272679427D01*
X56147946Y-272753191D01*
X56154693Y-272757042D01*
X56255796Y-272805608D01*
X56370071Y-272841879D01*
X56504859Y-272867106D01*
X56667505Y-272882539D01*
X56865351Y-272889431D01*
X56935253Y-272890030D01*
X57268116Y-272891223D01*
X57315119Y-272831468D01*
X57329062Y-272811819D01*
X57339939Y-272788873D01*
X57348129Y-272757129D01*
X57354013Y-272711082D01*
X57357969Y-272645233D01*
X57359259Y-272596402D01*
X57044623Y-272596402D01*
X56856020Y-272596402D01*
X56745655Y-272593174D01*
X56632359Y-272584681D01*
X56539375Y-272572703D01*
X56533762Y-272571694D01*
X56368610Y-272527388D01*
X56240510Y-272460822D01*
X56145410Y-272368907D01*
X56079257Y-272248555D01*
X56067753Y-272216658D01*
X56056478Y-272166980D01*
X56061360Y-272117900D01*
X56085113Y-272052607D01*
X56099431Y-272020532D01*
X56146318Y-271935297D01*
X56202809Y-271875499D01*
X56264965Y-271833857D01*
X56389468Y-271779668D01*
X56548806Y-271740415D01*
X56734427Y-271717812D01*
X56868864Y-271712837D01*
X57044623Y-271711937D01*
X57044623Y-272596402D01*
X57359259Y-272596402D01*
X57360378Y-272554078D01*
X57361619Y-272432115D01*
X57362072Y-272273841D01*
X57362123Y-272150080D01*
X57362123Y-271528447D01*
X57306457Y-271472781D01*
X57281752Y-271450218D01*
X57255039Y-271434766D01*
X57217736Y-271425098D01*
X57161257Y-271419887D01*
X57077022Y-271417805D01*
X56956445Y-271417524D01*
X56949270Y-271417534D01*
G36*
X58532237Y-271417503D02*
G01*
X58378838Y-271419340D01*
X58261285Y-271423634D01*
X58174824Y-271431395D01*
X58114700Y-271443633D01*
X58076160Y-271461358D01*
X58054448Y-271485579D01*
X58044810Y-271517305D01*
X58042492Y-271557546D01*
X58042480Y-271562298D01*
X58044492Y-271607814D01*
X58054005Y-271642992D01*
X58076229Y-271669251D01*
X58116378Y-271688012D01*
X58179664Y-271700696D01*
X58271298Y-271708722D01*
X58396493Y-271713512D01*
X58560461Y-271716484D01*
X58610717Y-271717143D01*
X59097033Y-271723277D01*
X59103835Y-271853678D01*
X59110636Y-271984080D01*
X58772841Y-271984080D01*
X58640873Y-271984567D01*
X58546643Y-271986626D01*
X58482535Y-271991155D01*
X58440936Y-271999053D01*
X58414230Y-272011218D01*
X58394802Y-272028548D01*
X58394678Y-272028686D01*
X58359443Y-272096224D01*
X58360717Y-272169221D01*
X58397696Y-272231448D01*
X58405015Y-272237844D01*
X58430990Y-272254328D01*
X58466583Y-272265796D01*
X58519727Y-272273111D01*
X58598352Y-272277138D01*
X58710390Y-272278740D01*
X58782046Y-272278902D01*
X59108373Y-272278902D01*
X59108373Y-272596402D01*
X58612959Y-272596402D01*
X58449394Y-272596688D01*
X58325183Y-272597857D01*
X58234325Y-272600377D01*
X58170820Y-272604715D01*
X58128667Y-272611337D01*
X58101864Y-272620710D01*
X58084411Y-272633302D01*
X58080013Y-272637875D01*
X58047540Y-272701249D01*
X58045164Y-272773347D01*
X58071805Y-272835858D01*
X58092883Y-272855919D01*
X58114810Y-272866963D01*
X58148785Y-272875508D01*
X58200182Y-272881852D01*
X58274375Y-272886295D01*
X58376739Y-272889136D01*
X58512647Y-272890675D01*
X58687475Y-272891210D01*
X58727000Y-272891223D01*
X58904756Y-272891107D01*
X59042738Y-272890465D01*
X59146524Y-272888857D01*
X59221697Y-272885844D01*
X59273839Y-272880986D01*
X59308529Y-272873844D01*
X59331350Y-272863977D01*
X59347883Y-272850946D01*
X59356953Y-272841589D01*
X59370606Y-272825017D01*
X59381272Y-272804487D01*
X59389320Y-272774616D01*
X59395116Y-272730021D01*
X59399027Y-272665317D01*
X59401423Y-272575120D01*
X59402670Y-272454047D01*
X59403136Y-272296713D01*
X59403194Y-272164291D01*
X59403051Y-271978735D01*
X59402374Y-271833065D01*
X59400788Y-271721811D01*
X59397919Y-271639501D01*
X59393393Y-271580666D01*
X59386836Y-271539834D01*
X59377874Y-271511535D01*
X59366133Y-271490298D01*
X59356191Y-271476871D01*
X59309188Y-271417116D01*
X58726237Y-271417116D01*
X58532237Y-271417503D01*
G37*
X58532237Y-271417503D02*
X58378838Y-271419340D01*
X58261285Y-271423634D01*
X58174824Y-271431395D01*
X58114700Y-271443633D01*
X58076160Y-271461358D01*
X58054448Y-271485579D01*
X58044810Y-271517305D01*
X58042492Y-271557546D01*
X58042480Y-271562298D01*
X58044492Y-271607814D01*
X58054005Y-271642992D01*
X58076229Y-271669251D01*
X58116378Y-271688012D01*
X58179664Y-271700696D01*
X58271298Y-271708722D01*
X58396493Y-271713512D01*
X58560461Y-271716484D01*
X58610717Y-271717143D01*
X59097033Y-271723277D01*
X59103835Y-271853678D01*
X59110636Y-271984080D01*
X58772841Y-271984080D01*
X58640873Y-271984567D01*
X58546643Y-271986626D01*
X58482535Y-271991155D01*
X58440936Y-271999053D01*
X58414230Y-272011218D01*
X58394802Y-272028548D01*
X58394678Y-272028686D01*
X58359443Y-272096224D01*
X58360717Y-272169221D01*
X58397696Y-272231448D01*
X58405015Y-272237844D01*
X58430990Y-272254328D01*
X58466583Y-272265796D01*
X58519727Y-272273111D01*
X58598352Y-272277138D01*
X58710390Y-272278740D01*
X58782046Y-272278902D01*
X59108373Y-272278902D01*
X59108373Y-272596402D01*
X58612959Y-272596402D01*
X58449394Y-272596688D01*
X58325183Y-272597857D01*
X58234325Y-272600377D01*
X58170820Y-272604715D01*
X58128667Y-272611337D01*
X58101864Y-272620710D01*
X58084411Y-272633302D01*
X58080013Y-272637875D01*
X58047540Y-272701249D01*
X58045164Y-272773347D01*
X58071805Y-272835858D01*
X58092883Y-272855919D01*
X58114810Y-272866963D01*
X58148785Y-272875508D01*
X58200182Y-272881852D01*
X58274375Y-272886295D01*
X58376739Y-272889136D01*
X58512647Y-272890675D01*
X58687475Y-272891210D01*
X58727000Y-272891223D01*
X58904756Y-272891107D01*
X59042738Y-272890465D01*
X59146524Y-272888857D01*
X59221697Y-272885844D01*
X59273839Y-272880986D01*
X59308529Y-272873844D01*
X59331350Y-272863977D01*
X59347883Y-272850946D01*
X59356953Y-272841589D01*
X59370606Y-272825017D01*
X59381272Y-272804487D01*
X59389320Y-272774616D01*
X59395116Y-272730021D01*
X59399027Y-272665317D01*
X59401423Y-272575120D01*
X59402670Y-272454047D01*
X59403136Y-272296713D01*
X59403194Y-272164291D01*
X59403051Y-271978735D01*
X59402374Y-271833065D01*
X59400788Y-271721811D01*
X59397919Y-271639501D01*
X59393393Y-271580666D01*
X59386836Y-271539834D01*
X59377874Y-271511535D01*
X59366133Y-271490298D01*
X59356191Y-271476871D01*
X59309188Y-271417116D01*
X58726237Y-271417116D01*
X58532237Y-271417503D01*
G36*
X61606815Y-271425918D02*
G01*
X61559473Y-271453690D01*
X61497572Y-271499108D01*
X61417903Y-271564312D01*
X61317260Y-271651440D01*
X61192432Y-271762633D01*
X61040212Y-271900030D01*
X60865962Y-272057999D01*
X60503105Y-272387050D01*
X60491765Y-271945388D01*
X60487671Y-271793357D01*
X60483722Y-271680140D01*
X60479042Y-271599203D01*
X60472759Y-271544016D01*
X60463998Y-271508045D01*
X60451886Y-271484758D01*
X60435549Y-271467622D01*
X60426887Y-271460421D01*
X60357517Y-271422346D01*
X60291507Y-271427913D01*
X60239144Y-271460440D01*
X60185605Y-271503765D01*
X60178946Y-272136482D01*
X60177103Y-272322564D01*
X60176165Y-272468744D01*
X60176457Y-272580474D01*
X60178303Y-272663205D01*
X60182030Y-272722389D01*
X60187960Y-272763476D01*
X60196420Y-272791919D01*
X60207733Y-272813168D01*
X60220280Y-272830211D01*
X60247424Y-272861818D01*
X60274433Y-272882769D01*
X60305050Y-272890811D01*
X60343023Y-272883688D01*
X60392098Y-272859149D01*
X60456020Y-272814937D01*
X60538535Y-272748799D01*
X60643390Y-272658482D01*
X60774331Y-272541731D01*
X60922658Y-272407582D01*
X61455605Y-271924152D01*
X61466944Y-272364370D01*
X61471045Y-272516124D01*
X61475005Y-272629077D01*
X61479701Y-272709775D01*
X61486013Y-272764764D01*
X61494817Y-272800588D01*
X61506992Y-272823793D01*
X61523417Y-272840924D01*
X61531823Y-272847906D01*
X61606114Y-272886257D01*
X61676312Y-272880472D01*
X61737441Y-272831468D01*
X61751425Y-272811753D01*
X61762324Y-272788729D01*
X61770521Y-272756872D01*
X61776400Y-272710658D01*
X61780344Y-272644563D01*
X61782736Y-272553062D01*
X61783959Y-272430634D01*
X61784398Y-272271752D01*
X61784444Y-272154169D01*
X61784297Y-271970256D01*
X61783599Y-271826175D01*
X61781967Y-271716403D01*
X61779019Y-271635416D01*
X61774369Y-271577691D01*
X61767637Y-271537704D01*
X61758437Y-271509930D01*
X61746386Y-271488846D01*
X61737441Y-271476871D01*
X61714766Y-271448503D01*
X61693575Y-271427085D01*
X61670658Y-271414755D01*
X61642808Y-271413653D01*
X61606815Y-271425918D01*
G37*
X61606815Y-271425918D02*
X61559473Y-271453690D01*
X61497572Y-271499108D01*
X61417903Y-271564312D01*
X61317260Y-271651440D01*
X61192432Y-271762633D01*
X61040212Y-271900030D01*
X60865962Y-272057999D01*
X60503105Y-272387050D01*
X60491765Y-271945388D01*
X60487671Y-271793357D01*
X60483722Y-271680140D01*
X60479042Y-271599203D01*
X60472759Y-271544016D01*
X60463998Y-271508045D01*
X60451886Y-271484758D01*
X60435549Y-271467622D01*
X60426887Y-271460421D01*
X60357517Y-271422346D01*
X60291507Y-271427913D01*
X60239144Y-271460440D01*
X60185605Y-271503765D01*
X60178946Y-272136482D01*
X60177103Y-272322564D01*
X60176165Y-272468744D01*
X60176457Y-272580474D01*
X60178303Y-272663205D01*
X60182030Y-272722389D01*
X60187960Y-272763476D01*
X60196420Y-272791919D01*
X60207733Y-272813168D01*
X60220280Y-272830211D01*
X60247424Y-272861818D01*
X60274433Y-272882769D01*
X60305050Y-272890811D01*
X60343023Y-272883688D01*
X60392098Y-272859149D01*
X60456020Y-272814937D01*
X60538535Y-272748799D01*
X60643390Y-272658482D01*
X60774331Y-272541731D01*
X60922658Y-272407582D01*
X61455605Y-271924152D01*
X61466944Y-272364370D01*
X61471045Y-272516124D01*
X61475005Y-272629077D01*
X61479701Y-272709775D01*
X61486013Y-272764764D01*
X61494817Y-272800588D01*
X61506992Y-272823793D01*
X61523417Y-272840924D01*
X61531823Y-272847906D01*
X61606114Y-272886257D01*
X61676312Y-272880472D01*
X61737441Y-272831468D01*
X61751425Y-272811753D01*
X61762324Y-272788729D01*
X61770521Y-272756872D01*
X61776400Y-272710658D01*
X61780344Y-272644563D01*
X61782736Y-272553062D01*
X61783959Y-272430634D01*
X61784398Y-272271752D01*
X61784444Y-272154169D01*
X61784297Y-271970256D01*
X61783599Y-271826175D01*
X61781967Y-271716403D01*
X61779019Y-271635416D01*
X61774369Y-271577691D01*
X61767637Y-271537704D01*
X61758437Y-271509930D01*
X61746386Y-271488846D01*
X61737441Y-271476871D01*
X61714766Y-271448503D01*
X61693575Y-271427085D01*
X61670658Y-271414755D01*
X61642808Y-271413653D01*
X61606815Y-271425918D01*
G36*
X62912553Y-271428229D02*
G01*
X62774908Y-271451325D01*
X62669194Y-271487228D01*
X62600420Y-271534501D01*
X62581679Y-271561471D01*
X62562621Y-271624198D01*
X62575446Y-271680945D01*
X62615933Y-271734758D01*
X62678842Y-271759933D01*
X62770123Y-271757888D01*
X62840724Y-271744249D01*
X62997606Y-271718263D01*
X63157934Y-271715793D01*
X63337389Y-271736886D01*
X63386958Y-271745823D01*
X63553823Y-271792869D01*
X63684366Y-271862852D01*
X63777156Y-271954579D01*
X63830761Y-272066857D01*
X63841848Y-272124905D01*
X63834591Y-272242676D01*
X63787739Y-272346873D01*
X63705562Y-272435465D01*
X63592329Y-272506421D01*
X63452309Y-272557710D01*
X63289771Y-272587302D01*
X63108985Y-272593166D01*
X62914218Y-272573271D01*
X62903221Y-272571395D01*
X62825754Y-272556966D01*
X62782802Y-272543029D01*
X62764185Y-272522349D01*
X62759724Y-272487693D01*
X62759623Y-272469341D01*
X62759623Y-272392294D01*
X62897185Y-272392294D01*
X63018662Y-272383973D01*
X63101561Y-272357455D01*
X63149794Y-272310412D01*
X63167276Y-272240513D01*
X63167490Y-272231390D01*
X63157261Y-272171645D01*
X63122188Y-272128984D01*
X63056910Y-272100752D01*
X62956070Y-272084294D01*
X62858395Y-272078243D01*
X62716431Y-272074771D01*
X62613457Y-272080069D01*
X62543227Y-272099616D01*
X62499494Y-272138896D01*
X62476010Y-272203389D01*
X62466529Y-272298577D01*
X62464801Y-272423598D01*
X62467632Y-272563146D01*
X62476147Y-272658070D01*
X62490386Y-272708747D01*
X62493149Y-272712716D01*
X62571330Y-272776039D01*
X62685955Y-272826185D01*
X62829760Y-272862085D01*
X62995476Y-272882667D01*
X63175838Y-272886860D01*
X63363578Y-272873592D01*
X63473998Y-272857295D01*
X63647188Y-272808274D01*
X63808154Y-272728133D01*
X63942924Y-272624121D01*
X63963408Y-272603332D01*
X64029961Y-272515936D01*
X64090011Y-272407621D01*
X64136544Y-272294063D01*
X64162543Y-272190940D01*
X64165676Y-272151334D01*
X64152336Y-272068717D01*
X64116880Y-271965926D01*
X64066111Y-271857729D01*
X64006832Y-271758892D01*
X63954459Y-271692875D01*
X63832006Y-271594675D01*
X63673712Y-271516515D01*
X63485249Y-271460162D01*
X63272290Y-271427386D01*
X63077123Y-271419377D01*
X62912553Y-271428229D01*
G37*
X62912553Y-271428229D02*
X62774908Y-271451325D01*
X62669194Y-271487228D01*
X62600420Y-271534501D01*
X62581679Y-271561471D01*
X62562621Y-271624198D01*
X62575446Y-271680945D01*
X62615933Y-271734758D01*
X62678842Y-271759933D01*
X62770123Y-271757888D01*
X62840724Y-271744249D01*
X62997606Y-271718263D01*
X63157934Y-271715793D01*
X63337389Y-271736886D01*
X63386958Y-271745823D01*
X63553823Y-271792869D01*
X63684366Y-271862852D01*
X63777156Y-271954579D01*
X63830761Y-272066857D01*
X63841848Y-272124905D01*
X63834591Y-272242676D01*
X63787739Y-272346873D01*
X63705562Y-272435465D01*
X63592329Y-272506421D01*
X63452309Y-272557710D01*
X63289771Y-272587302D01*
X63108985Y-272593166D01*
X62914218Y-272573271D01*
X62903221Y-272571395D01*
X62825754Y-272556966D01*
X62782802Y-272543029D01*
X62764185Y-272522349D01*
X62759724Y-272487693D01*
X62759623Y-272469341D01*
X62759623Y-272392294D01*
X62897185Y-272392294D01*
X63018662Y-272383973D01*
X63101561Y-272357455D01*
X63149794Y-272310412D01*
X63167276Y-272240513D01*
X63167490Y-272231390D01*
X63157261Y-272171645D01*
X63122188Y-272128984D01*
X63056910Y-272100752D01*
X62956070Y-272084294D01*
X62858395Y-272078243D01*
X62716431Y-272074771D01*
X62613457Y-272080069D01*
X62543227Y-272099616D01*
X62499494Y-272138896D01*
X62476010Y-272203389D01*
X62466529Y-272298577D01*
X62464801Y-272423598D01*
X62467632Y-272563146D01*
X62476147Y-272658070D01*
X62490386Y-272708747D01*
X62493149Y-272712716D01*
X62571330Y-272776039D01*
X62685955Y-272826185D01*
X62829760Y-272862085D01*
X62995476Y-272882667D01*
X63175838Y-272886860D01*
X63363578Y-272873592D01*
X63473998Y-272857295D01*
X63647188Y-272808274D01*
X63808154Y-272728133D01*
X63942924Y-272624121D01*
X63963408Y-272603332D01*
X64029961Y-272515936D01*
X64090011Y-272407621D01*
X64136544Y-272294063D01*
X64162543Y-272190940D01*
X64165676Y-272151334D01*
X64152336Y-272068717D01*
X64116880Y-271965926D01*
X64066111Y-271857729D01*
X64006832Y-271758892D01*
X63954459Y-271692875D01*
X63832006Y-271594675D01*
X63673712Y-271516515D01*
X63485249Y-271460162D01*
X63272290Y-271427386D01*
X63077123Y-271419377D01*
X62912553Y-271428229D01*
G36*
X64868730Y-271462473D02*
G01*
X64855509Y-271477687D01*
X64845139Y-271497314D01*
X64837273Y-271526611D01*
X64831567Y-271570836D01*
X64827677Y-271635247D01*
X64825258Y-271725101D01*
X64823964Y-271845657D01*
X64823452Y-272002171D01*
X64823373Y-272154169D01*
X64823513Y-272342701D01*
X64824162Y-272491133D01*
X64825666Y-272604724D01*
X64828369Y-272688732D01*
X64832616Y-272748413D01*
X64838752Y-272789025D01*
X64847121Y-272815827D01*
X64858069Y-272834076D01*
X64868730Y-272845866D01*
X64935031Y-272885403D01*
X65005676Y-272881854D01*
X65068884Y-272838734D01*
X65083407Y-272821900D01*
X65094757Y-272802367D01*
X65103325Y-272774738D01*
X65109502Y-272733612D01*
X65113678Y-272673591D01*
X65116245Y-272589274D01*
X65117592Y-272475263D01*
X65118112Y-272326157D01*
X65118194Y-272157346D01*
X65118194Y-271528447D01*
X65062528Y-271472781D01*
X64993914Y-271425948D01*
X64927357Y-271424261D01*
X64868730Y-271462473D01*
G37*
X64868730Y-271462473D02*
X64855509Y-271477687D01*
X64845139Y-271497314D01*
X64837273Y-271526611D01*
X64831567Y-271570836D01*
X64827677Y-271635247D01*
X64825258Y-271725101D01*
X64823964Y-271845657D01*
X64823452Y-272002171D01*
X64823373Y-272154169D01*
X64823513Y-272342701D01*
X64824162Y-272491133D01*
X64825666Y-272604724D01*
X64828369Y-272688732D01*
X64832616Y-272748413D01*
X64838752Y-272789025D01*
X64847121Y-272815827D01*
X64858069Y-272834076D01*
X64868730Y-272845866D01*
X64935031Y-272885403D01*
X65005676Y-272881854D01*
X65068884Y-272838734D01*
X65083407Y-272821900D01*
X65094757Y-272802367D01*
X65103325Y-272774738D01*
X65109502Y-272733612D01*
X65113678Y-272673591D01*
X65116245Y-272589274D01*
X65117592Y-272475263D01*
X65118112Y-272326157D01*
X65118194Y-272157346D01*
X65118194Y-271528447D01*
X65062528Y-271472781D01*
X64993914Y-271425948D01*
X64927357Y-271424261D01*
X64868730Y-271462473D01*
G36*
X66411346Y-271419696D02*
G01*
X66261048Y-271430203D01*
X66121263Y-271446614D01*
X66000117Y-271468310D01*
X65905734Y-271494673D01*
X65846241Y-271525087D01*
X65837109Y-271534040D01*
X65805355Y-271603511D01*
X65814984Y-271674831D01*
X65864237Y-271735850D01*
X65866587Y-271737598D01*
X65895557Y-271756399D01*
X65925799Y-271766285D01*
X65967981Y-271767486D01*
X66032772Y-271760230D01*
X66130841Y-271744747D01*
X66138730Y-271743444D01*
X66284857Y-271725492D01*
X66442514Y-271716636D01*
X66600636Y-271716550D01*
X66748160Y-271724908D01*
X66874020Y-271741382D01*
X66967152Y-271765646D01*
X66973271Y-271768085D01*
X67040835Y-271805940D01*
X67064573Y-271844250D01*
X67045990Y-271881927D01*
X66986591Y-271917883D01*
X66887881Y-271951029D01*
X66751365Y-271980277D01*
X66660337Y-271994359D01*
X66471118Y-272021446D01*
X66320625Y-272046207D01*
X66202446Y-272070786D01*
X66110171Y-272097328D01*
X66037390Y-272127976D01*
X65977690Y-272164875D01*
X65924662Y-272210168D01*
X65882049Y-272254646D01*
X65831494Y-272316618D01*
X65806615Y-272369907D01*
X65798834Y-272435562D01*
X65798551Y-272459606D01*
X65804395Y-272539394D01*
X65827751Y-272598753D01*
X65868173Y-272651439D01*
X65950324Y-272731977D01*
X66041932Y-272793397D01*
X66149804Y-272837702D01*
X66280745Y-272866895D01*
X66441564Y-272882979D01*
X66639066Y-272887956D01*
X66671676Y-272887872D01*
X66803381Y-272885142D01*
X66933995Y-272878939D01*
X67049281Y-272870153D01*
X67135000Y-272859673D01*
X67141933Y-272858470D01*
X67227159Y-272838281D01*
X67299447Y-272812778D01*
X67340370Y-272789462D01*
X67378454Y-272727952D01*
X67381105Y-272656325D01*
X67348275Y-272592494D01*
X67340930Y-272585276D01*
X67310568Y-272563830D01*
X67272598Y-272554590D01*
X67213832Y-272556163D01*
X67142492Y-272564336D01*
X67062777Y-272571637D01*
X66951029Y-272577797D01*
X66820572Y-272582267D01*
X66684726Y-272584499D01*
X66648998Y-272584646D01*
X66512646Y-272584096D01*
X66412856Y-272581449D01*
X66340848Y-272575786D01*
X66287840Y-272566189D01*
X66245053Y-272551740D01*
X66219340Y-272539705D01*
X66162837Y-272506288D01*
X66126813Y-272476024D01*
X66121548Y-272467445D01*
X66132655Y-272432019D01*
X66185457Y-272397724D01*
X66276296Y-272366117D01*
X66401512Y-272338754D01*
X66438404Y-272332659D01*
X66631098Y-272302393D01*
X66784884Y-272277096D01*
X66905697Y-272254929D01*
X66999475Y-272234053D01*
X67072151Y-272212630D01*
X67129663Y-272188822D01*
X67177945Y-272160791D01*
X67222933Y-272126698D01*
X67270563Y-272084705D01*
X67286591Y-272069982D01*
X67342786Y-272015037D01*
X67372532Y-271971504D01*
X67384169Y-271921688D01*
X67386051Y-271858912D01*
X67365331Y-271735808D01*
X67303409Y-271631214D01*
X67200639Y-271545468D01*
X67057378Y-271478907D01*
X66955158Y-271449052D01*
X66844063Y-271429770D01*
X66710979Y-271418862D01*
X66564032Y-271415710D01*
X66411346Y-271419696D01*
G37*
X66411346Y-271419696D02*
X66261048Y-271430203D01*
X66121263Y-271446614D01*
X66000117Y-271468310D01*
X65905734Y-271494673D01*
X65846241Y-271525087D01*
X65837109Y-271534040D01*
X65805355Y-271603511D01*
X65814984Y-271674831D01*
X65864237Y-271735850D01*
X65866587Y-271737598D01*
X65895557Y-271756399D01*
X65925799Y-271766285D01*
X65967981Y-271767486D01*
X66032772Y-271760230D01*
X66130841Y-271744747D01*
X66138730Y-271743444D01*
X66284857Y-271725492D01*
X66442514Y-271716636D01*
X66600636Y-271716550D01*
X66748160Y-271724908D01*
X66874020Y-271741382D01*
X66967152Y-271765646D01*
X66973271Y-271768085D01*
X67040835Y-271805940D01*
X67064573Y-271844250D01*
X67045990Y-271881927D01*
X66986591Y-271917883D01*
X66887881Y-271951029D01*
X66751365Y-271980277D01*
X66660337Y-271994359D01*
X66471118Y-272021446D01*
X66320625Y-272046207D01*
X66202446Y-272070786D01*
X66110171Y-272097328D01*
X66037390Y-272127976D01*
X65977690Y-272164875D01*
X65924662Y-272210168D01*
X65882049Y-272254646D01*
X65831494Y-272316618D01*
X65806615Y-272369907D01*
X65798834Y-272435562D01*
X65798551Y-272459606D01*
X65804395Y-272539394D01*
X65827751Y-272598753D01*
X65868173Y-272651439D01*
X65950324Y-272731977D01*
X66041932Y-272793397D01*
X66149804Y-272837702D01*
X66280745Y-272866895D01*
X66441564Y-272882979D01*
X66639066Y-272887956D01*
X66671676Y-272887872D01*
X66803381Y-272885142D01*
X66933995Y-272878939D01*
X67049281Y-272870153D01*
X67135000Y-272859673D01*
X67141933Y-272858470D01*
X67227159Y-272838281D01*
X67299447Y-272812778D01*
X67340370Y-272789462D01*
X67378454Y-272727952D01*
X67381105Y-272656325D01*
X67348275Y-272592494D01*
X67340930Y-272585276D01*
X67310568Y-272563830D01*
X67272598Y-272554590D01*
X67213832Y-272556163D01*
X67142492Y-272564336D01*
X67062777Y-272571637D01*
X66951029Y-272577797D01*
X66820572Y-272582267D01*
X66684726Y-272584499D01*
X66648998Y-272584646D01*
X66512646Y-272584096D01*
X66412856Y-272581449D01*
X66340848Y-272575786D01*
X66287840Y-272566189D01*
X66245053Y-272551740D01*
X66219340Y-272539705D01*
X66162837Y-272506288D01*
X66126813Y-272476024D01*
X66121548Y-272467445D01*
X66132655Y-272432019D01*
X66185457Y-272397724D01*
X66276296Y-272366117D01*
X66401512Y-272338754D01*
X66438404Y-272332659D01*
X66631098Y-272302393D01*
X66784884Y-272277096D01*
X66905697Y-272254929D01*
X66999475Y-272234053D01*
X67072151Y-272212630D01*
X67129663Y-272188822D01*
X67177945Y-272160791D01*
X67222933Y-272126698D01*
X67270563Y-272084705D01*
X67286591Y-272069982D01*
X67342786Y-272015037D01*
X67372532Y-271971504D01*
X67384169Y-271921688D01*
X67386051Y-271858912D01*
X67365331Y-271735808D01*
X67303409Y-271631214D01*
X67200639Y-271545468D01*
X67057378Y-271478907D01*
X66955158Y-271449052D01*
X66844063Y-271429770D01*
X66710979Y-271418862D01*
X66564032Y-271415710D01*
X66411346Y-271419696D01*
G36*
X68462646Y-271417275D02*
G01*
X68323210Y-271418023D01*
X68217963Y-271419763D01*
X68141324Y-271422900D01*
X68087710Y-271427836D01*
X68051537Y-271434976D01*
X68027221Y-271444724D01*
X68009181Y-271457484D01*
X68002649Y-271463356D01*
X67962922Y-271525750D01*
X67955769Y-271597441D01*
X67981903Y-271661087D01*
X67993987Y-271673950D01*
X68013532Y-271686421D01*
X68045003Y-271696043D01*
X68094236Y-271703282D01*
X68167066Y-271708606D01*
X68269329Y-271712485D01*
X68406862Y-271715387D01*
X68532603Y-271717152D01*
X69030248Y-271723277D01*
X69037049Y-271853678D01*
X69043850Y-271984080D01*
X68706055Y-271984080D01*
X68559406Y-271985345D01*
X68452044Y-271990637D01*
X68377937Y-272002201D01*
X68331049Y-272022281D01*
X68305347Y-272053121D01*
X68294796Y-272096967D01*
X68293194Y-272137660D01*
X68298173Y-272187591D01*
X68316964Y-272224383D01*
X68355347Y-272249958D01*
X68419100Y-272266239D01*
X68514004Y-272275149D01*
X68645838Y-272278610D01*
X68717794Y-272278902D01*
X69041587Y-272278902D01*
X69041587Y-272596402D01*
X68542658Y-272596402D01*
X68379113Y-272596629D01*
X68254817Y-272597652D01*
X68163666Y-272599979D01*
X68099552Y-272604118D01*
X68056370Y-272610580D01*
X68028013Y-272619871D01*
X68008375Y-272632502D01*
X67998373Y-272641759D01*
X67964062Y-272695786D01*
X67953015Y-272743812D01*
X67968789Y-272802474D01*
X67998373Y-272845866D01*
X68014156Y-272859526D01*
X68034531Y-272870133D01*
X68064978Y-272878071D01*
X68110977Y-272883726D01*
X68178010Y-272887482D01*
X68271558Y-272889723D01*
X68397100Y-272890834D01*
X68560118Y-272891199D01*
X68644712Y-272891223D01*
X68825868Y-272891063D01*
X68967148Y-272890325D01*
X69074032Y-272888627D01*
X69152002Y-272885582D01*
X69206539Y-272880806D01*
X69243122Y-272873915D01*
X69267233Y-272864524D01*
X69284353Y-272852248D01*
X69291051Y-272845866D01*
X69304308Y-272830605D01*
X69314699Y-272810916D01*
X69322571Y-272781524D01*
X69328273Y-272737153D01*
X69332152Y-272672526D01*
X69334557Y-272582367D01*
X69335836Y-272461401D01*
X69336335Y-272304351D01*
X69336408Y-272158123D01*
X69336341Y-271970857D01*
X69335870Y-271823651D01*
X69334593Y-271711205D01*
X69332109Y-271628222D01*
X69328016Y-271569403D01*
X69321911Y-271529450D01*
X69313392Y-271503064D01*
X69302058Y-271484948D01*
X69287505Y-271469803D01*
X69283920Y-271466426D01*
X69266521Y-271451478D01*
X69246305Y-271439903D01*
X69217664Y-271431268D01*
X69174989Y-271425145D01*
X69112675Y-271421102D01*
X69025112Y-271418709D01*
X68906693Y-271417534D01*
X68751811Y-271417148D01*
X68641857Y-271417116D01*
X68462646Y-271417275D01*
G37*
X68462646Y-271417275D02*
X68323210Y-271418023D01*
X68217963Y-271419763D01*
X68141324Y-271422900D01*
X68087710Y-271427836D01*
X68051537Y-271434976D01*
X68027221Y-271444724D01*
X68009181Y-271457484D01*
X68002649Y-271463356D01*
X67962922Y-271525750D01*
X67955769Y-271597441D01*
X67981903Y-271661087D01*
X67993987Y-271673950D01*
X68013532Y-271686421D01*
X68045003Y-271696043D01*
X68094236Y-271703282D01*
X68167066Y-271708606D01*
X68269329Y-271712485D01*
X68406862Y-271715387D01*
X68532603Y-271717152D01*
X69030248Y-271723277D01*
X69037049Y-271853678D01*
X69043850Y-271984080D01*
X68706055Y-271984080D01*
X68559406Y-271985345D01*
X68452044Y-271990637D01*
X68377937Y-272002201D01*
X68331049Y-272022281D01*
X68305347Y-272053121D01*
X68294796Y-272096967D01*
X68293194Y-272137660D01*
X68298173Y-272187591D01*
X68316964Y-272224383D01*
X68355347Y-272249958D01*
X68419100Y-272266239D01*
X68514004Y-272275149D01*
X68645838Y-272278610D01*
X68717794Y-272278902D01*
X69041587Y-272278902D01*
X69041587Y-272596402D01*
X68542658Y-272596402D01*
X68379113Y-272596629D01*
X68254817Y-272597652D01*
X68163666Y-272599979D01*
X68099552Y-272604118D01*
X68056370Y-272610580D01*
X68028013Y-272619871D01*
X68008375Y-272632502D01*
X67998373Y-272641759D01*
X67964062Y-272695786D01*
X67953015Y-272743812D01*
X67968789Y-272802474D01*
X67998373Y-272845866D01*
X68014156Y-272859526D01*
X68034531Y-272870133D01*
X68064978Y-272878071D01*
X68110977Y-272883726D01*
X68178010Y-272887482D01*
X68271558Y-272889723D01*
X68397100Y-272890834D01*
X68560118Y-272891199D01*
X68644712Y-272891223D01*
X68825868Y-272891063D01*
X68967148Y-272890325D01*
X69074032Y-272888627D01*
X69152002Y-272885582D01*
X69206539Y-272880806D01*
X69243122Y-272873915D01*
X69267233Y-272864524D01*
X69284353Y-272852248D01*
X69291051Y-272845866D01*
X69304308Y-272830605D01*
X69314699Y-272810916D01*
X69322571Y-272781524D01*
X69328273Y-272737153D01*
X69332152Y-272672526D01*
X69334557Y-272582367D01*
X69335836Y-272461401D01*
X69336335Y-272304351D01*
X69336408Y-272158123D01*
X69336341Y-271970857D01*
X69335870Y-271823651D01*
X69334593Y-271711205D01*
X69332109Y-271628222D01*
X69328016Y-271569403D01*
X69321911Y-271529450D01*
X69313392Y-271503064D01*
X69302058Y-271484948D01*
X69287505Y-271469803D01*
X69283920Y-271466426D01*
X69266521Y-271451478D01*
X69246305Y-271439903D01*
X69217664Y-271431268D01*
X69174989Y-271425145D01*
X69112675Y-271421102D01*
X69025112Y-271418709D01*
X68906693Y-271417534D01*
X68751811Y-271417148D01*
X68641857Y-271417116D01*
X68462646Y-271417275D01*
G36*
X71292377Y-271417114D02*
G01*
X71213060Y-271417920D01*
X70980649Y-271423528D01*
X70786006Y-271440185D01*
X70622496Y-271469680D01*
X70483486Y-271513797D01*
X70362341Y-271574325D01*
X70252429Y-271653050D01*
X70213171Y-271687248D01*
X70148049Y-271767265D01*
X70089328Y-271875846D01*
X70044069Y-271996203D01*
X70019335Y-272111547D01*
X70016765Y-272154169D01*
X70032870Y-272272322D01*
X70076027Y-272401382D01*
X70138504Y-272523542D01*
X70212567Y-272620992D01*
X70224597Y-272632750D01*
X70326499Y-272715394D01*
X70438088Y-272779909D01*
X70565798Y-272827983D01*
X70716062Y-272861307D01*
X70895314Y-272881572D01*
X71109987Y-272890469D01*
X71208317Y-272891223D01*
X71333340Y-272890621D01*
X71421262Y-272888104D01*
X71480333Y-272882604D01*
X71518800Y-272873055D01*
X71544912Y-272858389D01*
X71558908Y-272845866D01*
X71572129Y-272830652D01*
X71582500Y-272811025D01*
X71590365Y-272781728D01*
X71596071Y-272737503D01*
X71599961Y-272673092D01*
X71602380Y-272583237D01*
X71603674Y-272462682D01*
X71604186Y-272306167D01*
X71604265Y-272154169D01*
X71604765Y-271951440D01*
X71604657Y-271789491D01*
X71602728Y-271711937D01*
X71309444Y-271711937D01*
X71309444Y-272596402D01*
X71122346Y-272596230D01*
X71009764Y-272593001D01*
X70891852Y-272584683D01*
X70793473Y-272573048D01*
X70790480Y-272572569D01*
X70631480Y-272534127D01*
X70508154Y-272474256D01*
X70414343Y-272389058D01*
X70354737Y-272296814D01*
X70318010Y-272194489D01*
X70320858Y-272098409D01*
X70363482Y-271995419D01*
X70446854Y-271888876D01*
X70562386Y-271809927D01*
X70712557Y-271757156D01*
X70812919Y-271738481D01*
X70926843Y-271725366D01*
X71047585Y-271715873D01*
X71150281Y-271711927D01*
X71156364Y-271711908D01*
X71309444Y-271711937D01*
X71602728Y-271711937D01*
X71601529Y-271663782D01*
X71592966Y-271569771D01*
X71576558Y-271502920D01*
X71549890Y-271458686D01*
X71510551Y-271432529D01*
X71456128Y-271419909D01*
X71384207Y-271416284D01*
X71292377Y-271417114D01*
G37*
X71292377Y-271417114D02*
X71213060Y-271417920D01*
X70980649Y-271423528D01*
X70786006Y-271440185D01*
X70622496Y-271469680D01*
X70483486Y-271513797D01*
X70362341Y-271574325D01*
X70252429Y-271653050D01*
X70213171Y-271687248D01*
X70148049Y-271767265D01*
X70089328Y-271875846D01*
X70044069Y-271996203D01*
X70019335Y-272111547D01*
X70016765Y-272154169D01*
X70032870Y-272272322D01*
X70076027Y-272401382D01*
X70138504Y-272523542D01*
X70212567Y-272620992D01*
X70224597Y-272632750D01*
X70326499Y-272715394D01*
X70438088Y-272779909D01*
X70565798Y-272827983D01*
X70716062Y-272861307D01*
X70895314Y-272881572D01*
X71109987Y-272890469D01*
X71208317Y-272891223D01*
X71333340Y-272890621D01*
X71421262Y-272888104D01*
X71480333Y-272882604D01*
X71518800Y-272873055D01*
X71544912Y-272858389D01*
X71558908Y-272845866D01*
X71572129Y-272830652D01*
X71582500Y-272811025D01*
X71590365Y-272781728D01*
X71596071Y-272737503D01*
X71599961Y-272673092D01*
X71602380Y-272583237D01*
X71603674Y-272462682D01*
X71604186Y-272306167D01*
X71604265Y-272154169D01*
X71604765Y-271951440D01*
X71604657Y-271789491D01*
X71602728Y-271711937D01*
X71309444Y-271711937D01*
X71309444Y-272596402D01*
X71122346Y-272596230D01*
X71009764Y-272593001D01*
X70891852Y-272584683D01*
X70793473Y-272573048D01*
X70790480Y-272572569D01*
X70631480Y-272534127D01*
X70508154Y-272474256D01*
X70414343Y-272389058D01*
X70354737Y-272296814D01*
X70318010Y-272194489D01*
X70320858Y-272098409D01*
X70363482Y-271995419D01*
X70446854Y-271888876D01*
X70562386Y-271809927D01*
X70712557Y-271757156D01*
X70812919Y-271738481D01*
X70926843Y-271725366D01*
X71047585Y-271715873D01*
X71150281Y-271711927D01*
X71156364Y-271711908D01*
X71309444Y-271711937D01*
X71602728Y-271711937D01*
X71601529Y-271663782D01*
X71592966Y-271569771D01*
X71576558Y-271502920D01*
X71549890Y-271458686D01*
X71510551Y-271432529D01*
X71456128Y-271419909D01*
X71384207Y-271416284D01*
X71292377Y-271417114D01*
G36*
X64622844Y-258604844D02*
G01*
X64417742Y-258675957D01*
X64226785Y-258787889D01*
X64056243Y-258940625D01*
X63912387Y-259134151D01*
X63847768Y-259256129D01*
X63791842Y-259426743D01*
X63764735Y-259623711D01*
X63767738Y-259826205D01*
X63801067Y-260009699D01*
X63892162Y-260233924D01*
X64024258Y-260428422D01*
X64190642Y-260589367D01*
X64384598Y-260712933D01*
X64599414Y-260795292D01*
X64828375Y-260832617D01*
X65064767Y-260821082D01*
X65181291Y-260796430D01*
X65408385Y-260708091D01*
X65610081Y-260573290D01*
X65781515Y-260396183D01*
X65917820Y-260180927D01*
X65929352Y-260157419D01*
X65969217Y-260069205D01*
X65994249Y-259994910D01*
X66007839Y-259916535D01*
X66013382Y-259816080D01*
X66014302Y-259706774D01*
X66012780Y-259575448D01*
X66005914Y-259480509D01*
X65990250Y-259403753D01*
X65962333Y-259326974D01*
X65927873Y-259251223D01*
X65799338Y-259036190D01*
X65641052Y-258862080D01*
X65459287Y-258728876D01*
X65260313Y-258636566D01*
X65050400Y-258585134D01*
X64835821Y-258574565D01*
X64622844Y-258604844D01*
G37*
X64622844Y-258604844D02*
X64417742Y-258675957D01*
X64226785Y-258787889D01*
X64056243Y-258940625D01*
X63912387Y-259134151D01*
X63847768Y-259256129D01*
X63791842Y-259426743D01*
X63764735Y-259623711D01*
X63767738Y-259826205D01*
X63801067Y-260009699D01*
X63892162Y-260233924D01*
X64024258Y-260428422D01*
X64190642Y-260589367D01*
X64384598Y-260712933D01*
X64599414Y-260795292D01*
X64828375Y-260832617D01*
X65064767Y-260821082D01*
X65181291Y-260796430D01*
X65408385Y-260708091D01*
X65610081Y-260573290D01*
X65781515Y-260396183D01*
X65917820Y-260180927D01*
X65929352Y-260157419D01*
X65969217Y-260069205D01*
X65994249Y-259994910D01*
X66007839Y-259916535D01*
X66013382Y-259816080D01*
X66014302Y-259706774D01*
X66012780Y-259575448D01*
X66005914Y-259480509D01*
X65990250Y-259403753D01*
X65962333Y-259326974D01*
X65927873Y-259251223D01*
X65799338Y-259036190D01*
X65641052Y-258862080D01*
X65459287Y-258728876D01*
X65260313Y-258636566D01*
X65050400Y-258585134D01*
X64835821Y-258574565D01*
X64622844Y-258604844D01*
G36*
X45589033Y-260435618D02*
G01*
X45356746Y-260436571D01*
X45277796Y-260437052D01*
X44192151Y-260444193D01*
X44178495Y-264609247D01*
X44176692Y-265174041D01*
X44175092Y-265686864D01*
X44173594Y-266150371D01*
X44172094Y-266567214D01*
X44170491Y-266940045D01*
X44168680Y-267271519D01*
X44166560Y-267564286D01*
X44164028Y-267821002D01*
X44160980Y-268044318D01*
X44157315Y-268236887D01*
X44152929Y-268401363D01*
X44147720Y-268540398D01*
X44141584Y-268656644D01*
X44134420Y-268752756D01*
X44126125Y-268831386D01*
X44116595Y-268895187D01*
X44105728Y-268946811D01*
X44093421Y-268988912D01*
X44079572Y-269024143D01*
X44064077Y-269055156D01*
X44046835Y-269084604D01*
X44027742Y-269115141D01*
X44006695Y-269149418D01*
X44002381Y-269156720D01*
X43930004Y-269280221D01*
X44976024Y-269273068D01*
X46022044Y-269265914D01*
X46035699Y-269036142D01*
X46043135Y-268925873D01*
X46050883Y-268862122D01*
X46061397Y-268836827D01*
X46077128Y-268841922D01*
X46090323Y-268856498D01*
X46147803Y-268909591D01*
X46241487Y-268977837D01*
X46358175Y-269053080D01*
X46484669Y-269127167D01*
X46607769Y-269191943D01*
X46702287Y-269234561D01*
X46923726Y-269304595D01*
X47177793Y-269354204D01*
X47445734Y-269381494D01*
X47708789Y-269384569D01*
X47948205Y-269361532D01*
X47952147Y-269360873D01*
X48279747Y-269278669D01*
X48586413Y-269147700D01*
X48869186Y-268970780D01*
X49125108Y-268750726D01*
X49351222Y-268490351D01*
X49544570Y-268192472D01*
X49702194Y-267859904D01*
X49788016Y-267613548D01*
X49844611Y-267407445D01*
X49886582Y-267207867D01*
X49915211Y-267002690D01*
X49931782Y-266779791D01*
X49937577Y-266527045D01*
X49935011Y-266320662D01*
X47919675Y-266320662D01*
X47910138Y-266666732D01*
X47880054Y-266964467D01*
X47828497Y-267216510D01*
X47754542Y-267425502D01*
X47657262Y-267594086D01*
X47535734Y-267724906D01*
X47395454Y-267817385D01*
X47322460Y-267851909D01*
X47259153Y-267872607D01*
X47188573Y-267882077D01*
X47093758Y-267882915D01*
X46991613Y-267879228D01*
X46790739Y-267861510D01*
X46631866Y-267826813D01*
X46581936Y-267809433D01*
X46467925Y-267758102D01*
X46347677Y-267693643D01*
X46295162Y-267661376D01*
X46158603Y-267571805D01*
X46158603Y-264732706D01*
X46308818Y-264642665D01*
X46518308Y-264540923D01*
X46732342Y-264480751D01*
X46943091Y-264461796D01*
X47142727Y-264483701D01*
X47323423Y-264546113D01*
X47477351Y-264648676D01*
X47527019Y-264697906D01*
X47646738Y-264859211D01*
X47743636Y-265054471D01*
X47818523Y-265287031D01*
X47872207Y-265560239D01*
X47905500Y-265877441D01*
X47919211Y-266241984D01*
X47919675Y-266320662D01*
X49935011Y-266320662D01*
X49933942Y-266234756D01*
X49910918Y-265785158D01*
X49864622Y-265379628D01*
X49793836Y-265012257D01*
X49697339Y-264677137D01*
X49573913Y-264368363D01*
X49529869Y-264276822D01*
X49352460Y-263978296D01*
X49138070Y-263713007D01*
X48891741Y-263485237D01*
X48618513Y-263299268D01*
X48323426Y-263159382D01*
X48146541Y-263101678D01*
X47972822Y-263067422D01*
X47763795Y-263047041D01*
X47536986Y-263040525D01*
X47309916Y-263047866D01*
X47100108Y-263069055D01*
X46931648Y-263102295D01*
X46731143Y-263167482D01*
X46536805Y-263251307D01*
X46366776Y-263345280D01*
X46276279Y-263409058D01*
X46213856Y-263456484D01*
X46170147Y-263485361D01*
X46160204Y-263489462D01*
X46157121Y-263463041D01*
X46154247Y-263387339D01*
X46151645Y-263267698D01*
X46149379Y-263109462D01*
X46147512Y-262917973D01*
X46146109Y-262698574D01*
X46145233Y-262456607D01*
X46144947Y-262210147D01*
X46145106Y-261894476D01*
X46145892Y-261628337D01*
X46147762Y-261406641D01*
X46151175Y-261224296D01*
X46156591Y-261076212D01*
X46164469Y-260957299D01*
X46175267Y-260862465D01*
X46189445Y-260786620D01*
X46207461Y-260724674D01*
X46229775Y-260671536D01*
X46256846Y-260622115D01*
X46289133Y-260571321D01*
X46293287Y-260565031D01*
X46334929Y-260499245D01*
X46360071Y-260454008D01*
X46363441Y-260444466D01*
X46337097Y-260441455D01*
X46261931Y-260439006D01*
X46143743Y-260437158D01*
X45988331Y-260435951D01*
X45801494Y-260435424D01*
X45589033Y-260435618D01*
G37*
X45589033Y-260435618D02*
X45356746Y-260436571D01*
X45277796Y-260437052D01*
X44192151Y-260444193D01*
X44178495Y-264609247D01*
X44176692Y-265174041D01*
X44175092Y-265686864D01*
X44173594Y-266150371D01*
X44172094Y-266567214D01*
X44170491Y-266940045D01*
X44168680Y-267271519D01*
X44166560Y-267564286D01*
X44164028Y-267821002D01*
X44160980Y-268044318D01*
X44157315Y-268236887D01*
X44152929Y-268401363D01*
X44147720Y-268540398D01*
X44141584Y-268656644D01*
X44134420Y-268752756D01*
X44126125Y-268831386D01*
X44116595Y-268895187D01*
X44105728Y-268946811D01*
X44093421Y-268988912D01*
X44079572Y-269024143D01*
X44064077Y-269055156D01*
X44046835Y-269084604D01*
X44027742Y-269115141D01*
X44006695Y-269149418D01*
X44002381Y-269156720D01*
X43930004Y-269280221D01*
X44976024Y-269273068D01*
X46022044Y-269265914D01*
X46035699Y-269036142D01*
X46043135Y-268925873D01*
X46050883Y-268862122D01*
X46061397Y-268836827D01*
X46077128Y-268841922D01*
X46090323Y-268856498D01*
X46147803Y-268909591D01*
X46241487Y-268977837D01*
X46358175Y-269053080D01*
X46484669Y-269127167D01*
X46607769Y-269191943D01*
X46702287Y-269234561D01*
X46923726Y-269304595D01*
X47177793Y-269354204D01*
X47445734Y-269381494D01*
X47708789Y-269384569D01*
X47948205Y-269361532D01*
X47952147Y-269360873D01*
X48279747Y-269278669D01*
X48586413Y-269147700D01*
X48869186Y-268970780D01*
X49125108Y-268750726D01*
X49351222Y-268490351D01*
X49544570Y-268192472D01*
X49702194Y-267859904D01*
X49788016Y-267613548D01*
X49844611Y-267407445D01*
X49886582Y-267207867D01*
X49915211Y-267002690D01*
X49931782Y-266779791D01*
X49937577Y-266527045D01*
X49935011Y-266320662D01*
X47919675Y-266320662D01*
X47910138Y-266666732D01*
X47880054Y-266964467D01*
X47828497Y-267216510D01*
X47754542Y-267425502D01*
X47657262Y-267594086D01*
X47535734Y-267724906D01*
X47395454Y-267817385D01*
X47322460Y-267851909D01*
X47259153Y-267872607D01*
X47188573Y-267882077D01*
X47093758Y-267882915D01*
X46991613Y-267879228D01*
X46790739Y-267861510D01*
X46631866Y-267826813D01*
X46581936Y-267809433D01*
X46467925Y-267758102D01*
X46347677Y-267693643D01*
X46295162Y-267661376D01*
X46158603Y-267571805D01*
X46158603Y-264732706D01*
X46308818Y-264642665D01*
X46518308Y-264540923D01*
X46732342Y-264480751D01*
X46943091Y-264461796D01*
X47142727Y-264483701D01*
X47323423Y-264546113D01*
X47477351Y-264648676D01*
X47527019Y-264697906D01*
X47646738Y-264859211D01*
X47743636Y-265054471D01*
X47818523Y-265287031D01*
X47872207Y-265560239D01*
X47905500Y-265877441D01*
X47919211Y-266241984D01*
X47919675Y-266320662D01*
X49935011Y-266320662D01*
X49933942Y-266234756D01*
X49910918Y-265785158D01*
X49864622Y-265379628D01*
X49793836Y-265012257D01*
X49697339Y-264677137D01*
X49573913Y-264368363D01*
X49529869Y-264276822D01*
X49352460Y-263978296D01*
X49138070Y-263713007D01*
X48891741Y-263485237D01*
X48618513Y-263299268D01*
X48323426Y-263159382D01*
X48146541Y-263101678D01*
X47972822Y-263067422D01*
X47763795Y-263047041D01*
X47536986Y-263040525D01*
X47309916Y-263047866D01*
X47100108Y-263069055D01*
X46931648Y-263102295D01*
X46731143Y-263167482D01*
X46536805Y-263251307D01*
X46366776Y-263345280D01*
X46276279Y-263409058D01*
X46213856Y-263456484D01*
X46170147Y-263485361D01*
X46160204Y-263489462D01*
X46157121Y-263463041D01*
X46154247Y-263387339D01*
X46151645Y-263267698D01*
X46149379Y-263109462D01*
X46147512Y-262917973D01*
X46146109Y-262698574D01*
X46145233Y-262456607D01*
X46144947Y-262210147D01*
X46145106Y-261894476D01*
X46145892Y-261628337D01*
X46147762Y-261406641D01*
X46151175Y-261224296D01*
X46156591Y-261076212D01*
X46164469Y-260957299D01*
X46175267Y-260862465D01*
X46189445Y-260786620D01*
X46207461Y-260724674D01*
X46229775Y-260671536D01*
X46256846Y-260622115D01*
X46289133Y-260571321D01*
X46293287Y-260565031D01*
X46334929Y-260499245D01*
X46360071Y-260454008D01*
X46363441Y-260444466D01*
X46337097Y-260441455D01*
X46261931Y-260439006D01*
X46143743Y-260437158D01*
X45988331Y-260435951D01*
X45801494Y-260435424D01*
X45589033Y-260435618D01*
G36*
X52899049Y-263036368D02*
G01*
X52763728Y-263046611D01*
X52376558Y-263098122D01*
X52033679Y-263180283D01*
X51733420Y-263294222D01*
X51474112Y-263441072D01*
X51254084Y-263621962D01*
X51071666Y-263838022D01*
X50925189Y-264090384D01*
X50818229Y-264363441D01*
X50791079Y-264450541D01*
X50767436Y-264532107D01*
X50747023Y-264612529D01*
X50729561Y-264696199D01*
X50714770Y-264787508D01*
X50702373Y-264890847D01*
X50692089Y-265010609D01*
X50683642Y-265151183D01*
X50676752Y-265316962D01*
X50671139Y-265512336D01*
X50666527Y-265741698D01*
X50662635Y-266009437D01*
X50659185Y-266319947D01*
X50655898Y-266677618D01*
X50653549Y-266958064D01*
X50637742Y-268883548D01*
X50535323Y-269068843D01*
X50486825Y-269158111D01*
X50450734Y-269227448D01*
X50433517Y-269264354D01*
X50432904Y-269266854D01*
X50459220Y-269269715D01*
X50534189Y-269272351D01*
X50651839Y-269274689D01*
X50806200Y-269276653D01*
X50991300Y-269278170D01*
X51201168Y-269279165D01*
X51429833Y-269279565D01*
X51457097Y-269279570D01*
X52481291Y-269279570D01*
X52481291Y-269047419D01*
X52483037Y-268942507D01*
X52487698Y-268862271D01*
X52494404Y-268819251D01*
X52497368Y-268815269D01*
X52524477Y-268831950D01*
X52580269Y-268875731D01*
X52652785Y-268937216D01*
X52654411Y-268938638D01*
X52786743Y-269037160D01*
X52953867Y-269136089D01*
X53136900Y-269225706D01*
X53316957Y-269296293D01*
X53396237Y-269320414D01*
X53554009Y-269351051D01*
X53747603Y-269370602D01*
X53959296Y-269378787D01*
X54171368Y-269375327D01*
X54366096Y-269359945D01*
X54502366Y-269337811D01*
X54836546Y-269239676D01*
X55137397Y-269099819D01*
X55402961Y-268919974D01*
X55631279Y-268701876D01*
X55820394Y-268447261D01*
X55968347Y-268157864D01*
X56032175Y-267982258D01*
X56072177Y-267811576D01*
X56098687Y-267606678D01*
X56110953Y-267386464D01*
X56110550Y-267354420D01*
X54263388Y-267354420D01*
X54248070Y-267518053D01*
X54197065Y-267654042D01*
X54102796Y-267780208D01*
X54066589Y-267817203D01*
X53937880Y-267917221D01*
X53789115Y-267981294D01*
X53610887Y-268012309D01*
X53423202Y-268014593D01*
X53245186Y-267999514D01*
X53108888Y-267970021D01*
X53049694Y-267947869D01*
X52943005Y-267887496D01*
X52829963Y-267802589D01*
X52726825Y-267707295D01*
X52649849Y-267615760D01*
X52629409Y-267582181D01*
X52613519Y-267535157D01*
X52602222Y-267460333D01*
X52594991Y-267350560D01*
X52591300Y-267198692D01*
X52590538Y-267054155D01*
X52591054Y-266885644D01*
X52593140Y-266763799D01*
X52597598Y-266680666D01*
X52605235Y-266628292D01*
X52616854Y-266598726D01*
X52633260Y-266584013D01*
X52638334Y-266581670D01*
X52682430Y-266574453D01*
X52769400Y-266568550D01*
X52887500Y-266564493D01*
X53024986Y-266562815D01*
X53054839Y-266562813D01*
X53238614Y-266565746D01*
X53380593Y-266574469D01*
X53493409Y-266590177D01*
X53586598Y-266613118D01*
X53817754Y-266700535D01*
X53999027Y-266808010D01*
X54131986Y-266937262D01*
X54218199Y-267090010D01*
X54259238Y-267267972D01*
X54263388Y-267354420D01*
X56110550Y-267354420D01*
X56108224Y-267169834D01*
X56089748Y-266975689D01*
X56075336Y-266897252D01*
X55983310Y-266606017D01*
X55843377Y-266338054D01*
X55658177Y-266095932D01*
X55430352Y-265882221D01*
X55162543Y-265699492D01*
X54857393Y-265550314D01*
X54597957Y-265459727D01*
X54424566Y-265412136D01*
X54258718Y-265375155D01*
X54089671Y-265347585D01*
X53906683Y-265328224D01*
X53699011Y-265315871D01*
X53455913Y-265309326D01*
X53236128Y-265307483D01*
X52584406Y-265305699D01*
X52596891Y-265109798D01*
X52632343Y-264897243D01*
X52707759Y-264714543D01*
X52819927Y-264566262D01*
X52965636Y-264456960D01*
X53093936Y-264403624D01*
X53277765Y-264370010D01*
X53496606Y-264365183D01*
X53740200Y-264387363D01*
X53998290Y-264434772D01*
X54260615Y-264505629D01*
X54516918Y-264598155D01*
X54703176Y-264682778D01*
X54792789Y-264726231D01*
X54861142Y-264756580D01*
X54895903Y-264768423D01*
X54897789Y-264768043D01*
X54909785Y-264741518D01*
X54939738Y-264671210D01*
X54984830Y-264563855D01*
X55042243Y-264426190D01*
X55109158Y-264264949D01*
X55177176Y-264100395D01*
X55449103Y-263441328D01*
X55255681Y-263409559D01*
X55171846Y-263393619D01*
X55045817Y-263366847D01*
X54888392Y-263331673D01*
X54710367Y-263290528D01*
X54522537Y-263245842D01*
X54447742Y-263227683D01*
X54124162Y-263152631D01*
X53840868Y-263096362D01*
X53587285Y-263057738D01*
X53352838Y-263035623D01*
X53126951Y-263028878D01*
X52899049Y-263036368D01*
G37*
X52899049Y-263036368D02*
X52763728Y-263046611D01*
X52376558Y-263098122D01*
X52033679Y-263180283D01*
X51733420Y-263294222D01*
X51474112Y-263441072D01*
X51254084Y-263621962D01*
X51071666Y-263838022D01*
X50925189Y-264090384D01*
X50818229Y-264363441D01*
X50791079Y-264450541D01*
X50767436Y-264532107D01*
X50747023Y-264612529D01*
X50729561Y-264696199D01*
X50714770Y-264787508D01*
X50702373Y-264890847D01*
X50692089Y-265010609D01*
X50683642Y-265151183D01*
X50676752Y-265316962D01*
X50671139Y-265512336D01*
X50666527Y-265741698D01*
X50662635Y-266009437D01*
X50659185Y-266319947D01*
X50655898Y-266677618D01*
X50653549Y-266958064D01*
X50637742Y-268883548D01*
X50535323Y-269068843D01*
X50486825Y-269158111D01*
X50450734Y-269227448D01*
X50433517Y-269264354D01*
X50432904Y-269266854D01*
X50459220Y-269269715D01*
X50534189Y-269272351D01*
X50651839Y-269274689D01*
X50806200Y-269276653D01*
X50991300Y-269278170D01*
X51201168Y-269279165D01*
X51429833Y-269279565D01*
X51457097Y-269279570D01*
X52481291Y-269279570D01*
X52481291Y-269047419D01*
X52483037Y-268942507D01*
X52487698Y-268862271D01*
X52494404Y-268819251D01*
X52497368Y-268815269D01*
X52524477Y-268831950D01*
X52580269Y-268875731D01*
X52652785Y-268937216D01*
X52654411Y-268938638D01*
X52786743Y-269037160D01*
X52953867Y-269136089D01*
X53136900Y-269225706D01*
X53316957Y-269296293D01*
X53396237Y-269320414D01*
X53554009Y-269351051D01*
X53747603Y-269370602D01*
X53959296Y-269378787D01*
X54171368Y-269375327D01*
X54366096Y-269359945D01*
X54502366Y-269337811D01*
X54836546Y-269239676D01*
X55137397Y-269099819D01*
X55402961Y-268919974D01*
X55631279Y-268701876D01*
X55820394Y-268447261D01*
X55968347Y-268157864D01*
X56032175Y-267982258D01*
X56072177Y-267811576D01*
X56098687Y-267606678D01*
X56110953Y-267386464D01*
X56110550Y-267354420D01*
X54263388Y-267354420D01*
X54248070Y-267518053D01*
X54197065Y-267654042D01*
X54102796Y-267780208D01*
X54066589Y-267817203D01*
X53937880Y-267917221D01*
X53789115Y-267981294D01*
X53610887Y-268012309D01*
X53423202Y-268014593D01*
X53245186Y-267999514D01*
X53108888Y-267970021D01*
X53049694Y-267947869D01*
X52943005Y-267887496D01*
X52829963Y-267802589D01*
X52726825Y-267707295D01*
X52649849Y-267615760D01*
X52629409Y-267582181D01*
X52613519Y-267535157D01*
X52602222Y-267460333D01*
X52594991Y-267350560D01*
X52591300Y-267198692D01*
X52590538Y-267054155D01*
X52591054Y-266885644D01*
X52593140Y-266763799D01*
X52597598Y-266680666D01*
X52605235Y-266628292D01*
X52616854Y-266598726D01*
X52633260Y-266584013D01*
X52638334Y-266581670D01*
X52682430Y-266574453D01*
X52769400Y-266568550D01*
X52887500Y-266564493D01*
X53024986Y-266562815D01*
X53054839Y-266562813D01*
X53238614Y-266565746D01*
X53380593Y-266574469D01*
X53493409Y-266590177D01*
X53586598Y-266613118D01*
X53817754Y-266700535D01*
X53999027Y-266808010D01*
X54131986Y-266937262D01*
X54218199Y-267090010D01*
X54259238Y-267267972D01*
X54263388Y-267354420D01*
X56110550Y-267354420D01*
X56108224Y-267169834D01*
X56089748Y-266975689D01*
X56075336Y-266897252D01*
X55983310Y-266606017D01*
X55843377Y-266338054D01*
X55658177Y-266095932D01*
X55430352Y-265882221D01*
X55162543Y-265699492D01*
X54857393Y-265550314D01*
X54597957Y-265459727D01*
X54424566Y-265412136D01*
X54258718Y-265375155D01*
X54089671Y-265347585D01*
X53906683Y-265328224D01*
X53699011Y-265315871D01*
X53455913Y-265309326D01*
X53236128Y-265307483D01*
X52584406Y-265305699D01*
X52596891Y-265109798D01*
X52632343Y-264897243D01*
X52707759Y-264714543D01*
X52819927Y-264566262D01*
X52965636Y-264456960D01*
X53093936Y-264403624D01*
X53277765Y-264370010D01*
X53496606Y-264365183D01*
X53740200Y-264387363D01*
X53998290Y-264434772D01*
X54260615Y-264505629D01*
X54516918Y-264598155D01*
X54703176Y-264682778D01*
X54792789Y-264726231D01*
X54861142Y-264756580D01*
X54895903Y-264768423D01*
X54897789Y-264768043D01*
X54909785Y-264741518D01*
X54939738Y-264671210D01*
X54984830Y-264563855D01*
X55042243Y-264426190D01*
X55109158Y-264264949D01*
X55177176Y-264100395D01*
X55449103Y-263441328D01*
X55255681Y-263409559D01*
X55171846Y-263393619D01*
X55045817Y-263366847D01*
X54888392Y-263331673D01*
X54710367Y-263290528D01*
X54522537Y-263245842D01*
X54447742Y-263227683D01*
X54124162Y-263152631D01*
X53840868Y-263096362D01*
X53587285Y-263057738D01*
X53352838Y-263035623D01*
X53126951Y-263028878D01*
X52899049Y-263036368D01*
G36*
X58324807Y-260840777D02*
G01*
X58030294Y-260873019D01*
X57744961Y-260930729D01*
X57457200Y-261016917D01*
X57155404Y-261134593D01*
X56827966Y-261286767D01*
X56768999Y-261316243D01*
X56633676Y-261382910D01*
X56506049Y-261442939D01*
X56398713Y-261490599D01*
X56324264Y-261520155D01*
X56312827Y-261523876D01*
X56203226Y-261556714D01*
X56693845Y-262270453D01*
X56813794Y-262444895D01*
X56923461Y-262604270D01*
X57019117Y-262743168D01*
X57097031Y-262856178D01*
X57153475Y-262937890D01*
X57184719Y-262982891D01*
X57189795Y-262990018D01*
X57210412Y-262975117D01*
X57261161Y-262930320D01*
X57332966Y-262863765D01*
X57372594Y-262826147D01*
X57597118Y-262647568D01*
X57849274Y-262511868D01*
X58066560Y-262437537D01*
X58196993Y-262414193D01*
X58360307Y-262399967D01*
X58537293Y-262395124D01*
X58708744Y-262399926D01*
X58855452Y-262414638D01*
X58913993Y-262425905D01*
X59177853Y-262516685D01*
X59415622Y-262655296D01*
X59627124Y-262841485D01*
X59812184Y-263074999D01*
X59970625Y-263355584D01*
X60102271Y-263682987D01*
X60206946Y-264056955D01*
X60269155Y-264377097D01*
X60285386Y-264518426D01*
X60296444Y-264701004D01*
X60302437Y-264911709D01*
X60303473Y-265137422D01*
X60299657Y-265365022D01*
X60291097Y-265581389D01*
X60277899Y-265773402D01*
X60260170Y-265927943D01*
X60256333Y-265951786D01*
X60171749Y-266335860D01*
X60056505Y-266675783D01*
X59909897Y-266973078D01*
X59731226Y-267229268D01*
X59604400Y-267367775D01*
X59376475Y-267555828D01*
X59126512Y-267695220D01*
X58858730Y-267785195D01*
X58577344Y-267824994D01*
X58286571Y-267813857D01*
X57990627Y-267751026D01*
X57815660Y-267689547D01*
X57573534Y-267566436D01*
X57323980Y-267389837D01*
X57184191Y-267270412D01*
X57105699Y-267201291D01*
X57044030Y-267150579D01*
X57008928Y-267126144D01*
X57004570Y-267125398D01*
X56988903Y-267150367D01*
X56948308Y-267216348D01*
X56886243Y-267317685D01*
X56806167Y-267448721D01*
X56711538Y-267603800D01*
X56605814Y-267777265D01*
X56546967Y-267873896D01*
X56097474Y-268612201D01*
X56658683Y-268889549D01*
X56861596Y-268989172D01*
X57025973Y-269067729D01*
X57161861Y-269129122D01*
X57279309Y-269177253D01*
X57388364Y-269216023D01*
X57499074Y-269249333D01*
X57621487Y-269281086D01*
X57738818Y-269308969D01*
X57843105Y-269330546D01*
X57952168Y-269346851D01*
X58076927Y-269358791D01*
X58228297Y-269367270D01*
X58417199Y-269373192D01*
X58544517Y-269375749D01*
X58726177Y-269377494D01*
X58900367Y-269376614D01*
X59055557Y-269373360D01*
X59180223Y-269367984D01*
X59262834Y-269360735D01*
X59267730Y-269360012D01*
X59696709Y-269267205D01*
X60099551Y-269126449D01*
X60476112Y-268937839D01*
X60826252Y-268701466D01*
X61149828Y-268417424D01*
X61446700Y-268085805D01*
X61661701Y-267791075D01*
X61890589Y-267405298D01*
X62075611Y-266997895D01*
X62217662Y-266565600D01*
X62317636Y-266105146D01*
X62376428Y-265613267D01*
X62394951Y-265113799D01*
X62379717Y-264630634D01*
X62331844Y-264184842D01*
X62249811Y-263768905D01*
X62132097Y-263375304D01*
X61977181Y-262996518D01*
X61958683Y-262957275D01*
X61754894Y-262590440D01*
X61504598Y-262241360D01*
X61214885Y-261917260D01*
X60892846Y-261625366D01*
X60545574Y-261372904D01*
X60221987Y-261187714D01*
X59895096Y-261042670D01*
X59567511Y-260937603D01*
X59226552Y-260869653D01*
X58859535Y-260835960D01*
X58640108Y-260830992D01*
X58324807Y-260840777D01*
G37*
X58324807Y-260840777D02*
X58030294Y-260873019D01*
X57744961Y-260930729D01*
X57457200Y-261016917D01*
X57155404Y-261134593D01*
X56827966Y-261286767D01*
X56768999Y-261316243D01*
X56633676Y-261382910D01*
X56506049Y-261442939D01*
X56398713Y-261490599D01*
X56324264Y-261520155D01*
X56312827Y-261523876D01*
X56203226Y-261556714D01*
X56693845Y-262270453D01*
X56813794Y-262444895D01*
X56923461Y-262604270D01*
X57019117Y-262743168D01*
X57097031Y-262856178D01*
X57153475Y-262937890D01*
X57184719Y-262982891D01*
X57189795Y-262990018D01*
X57210412Y-262975117D01*
X57261161Y-262930320D01*
X57332966Y-262863765D01*
X57372594Y-262826147D01*
X57597118Y-262647568D01*
X57849274Y-262511868D01*
X58066560Y-262437537D01*
X58196993Y-262414193D01*
X58360307Y-262399967D01*
X58537293Y-262395124D01*
X58708744Y-262399926D01*
X58855452Y-262414638D01*
X58913993Y-262425905D01*
X59177853Y-262516685D01*
X59415622Y-262655296D01*
X59627124Y-262841485D01*
X59812184Y-263074999D01*
X59970625Y-263355584D01*
X60102271Y-263682987D01*
X60206946Y-264056955D01*
X60269155Y-264377097D01*
X60285386Y-264518426D01*
X60296444Y-264701004D01*
X60302437Y-264911709D01*
X60303473Y-265137422D01*
X60299657Y-265365022D01*
X60291097Y-265581389D01*
X60277899Y-265773402D01*
X60260170Y-265927943D01*
X60256333Y-265951786D01*
X60171749Y-266335860D01*
X60056505Y-266675783D01*
X59909897Y-266973078D01*
X59731226Y-267229268D01*
X59604400Y-267367775D01*
X59376475Y-267555828D01*
X59126512Y-267695220D01*
X58858730Y-267785195D01*
X58577344Y-267824994D01*
X58286571Y-267813857D01*
X57990627Y-267751026D01*
X57815660Y-267689547D01*
X57573534Y-267566436D01*
X57323980Y-267389837D01*
X57184191Y-267270412D01*
X57105699Y-267201291D01*
X57044030Y-267150579D01*
X57008928Y-267126144D01*
X57004570Y-267125398D01*
X56988903Y-267150367D01*
X56948308Y-267216348D01*
X56886243Y-267317685D01*
X56806167Y-267448721D01*
X56711538Y-267603800D01*
X56605814Y-267777265D01*
X56546967Y-267873896D01*
X56097474Y-268612201D01*
X56658683Y-268889549D01*
X56861596Y-268989172D01*
X57025973Y-269067729D01*
X57161861Y-269129122D01*
X57279309Y-269177253D01*
X57388364Y-269216023D01*
X57499074Y-269249333D01*
X57621487Y-269281086D01*
X57738818Y-269308969D01*
X57843105Y-269330546D01*
X57952168Y-269346851D01*
X58076927Y-269358791D01*
X58228297Y-269367270D01*
X58417199Y-269373192D01*
X58544517Y-269375749D01*
X58726177Y-269377494D01*
X58900367Y-269376614D01*
X59055557Y-269373360D01*
X59180223Y-269367984D01*
X59262834Y-269360735D01*
X59267730Y-269360012D01*
X59696709Y-269267205D01*
X60099551Y-269126449D01*
X60476112Y-268937839D01*
X60826252Y-268701466D01*
X61149828Y-268417424D01*
X61446700Y-268085805D01*
X61661701Y-267791075D01*
X61890589Y-267405298D01*
X62075611Y-266997895D01*
X62217662Y-266565600D01*
X62317636Y-266105146D01*
X62376428Y-265613267D01*
X62394951Y-265113799D01*
X62379717Y-264630634D01*
X62331844Y-264184842D01*
X62249811Y-263768905D01*
X62132097Y-263375304D01*
X61977181Y-262996518D01*
X61958683Y-262957275D01*
X61754894Y-262590440D01*
X61504598Y-262241360D01*
X61214885Y-261917260D01*
X60892846Y-261625366D01*
X60545574Y-261372904D01*
X60221987Y-261187714D01*
X59895096Y-261042670D01*
X59567511Y-260937603D01*
X59226552Y-260869653D01*
X58859535Y-260835960D01*
X58640108Y-260830992D01*
X58324807Y-260840777D01*
G36*
X71047446Y-259474541D02*
G01*
X70521244Y-259474613D01*
X70276303Y-259474623D01*
X66355699Y-259474623D01*
X66355699Y-259705734D01*
X66331032Y-259986976D01*
X66256584Y-260246359D01*
X66131686Y-260485424D01*
X65955670Y-260705714D01*
X65896118Y-260765210D01*
X65681895Y-260933971D01*
X65445690Y-261057052D01*
X65194517Y-261134510D01*
X64935393Y-261166399D01*
X64675333Y-261152776D01*
X64421353Y-261093697D01*
X64180469Y-260989217D01*
X63959696Y-260839393D01*
X63860543Y-260749001D01*
X63675773Y-260527376D01*
X63540284Y-260283661D01*
X63455256Y-260020643D01*
X63421872Y-259741106D01*
X63421428Y-259713606D01*
X63419678Y-259474632D01*
X63314645Y-259474628D01*
X63221470Y-259487273D01*
X63136356Y-259518040D01*
X63130731Y-259521219D01*
X63111508Y-259531194D01*
X63093855Y-259538962D01*
X63077708Y-259546787D01*
X63063005Y-259556930D01*
X63049681Y-259571655D01*
X63037672Y-259593225D01*
X63026915Y-259623901D01*
X63017346Y-259665947D01*
X63008901Y-259721626D01*
X63001516Y-259793199D01*
X62995127Y-259882930D01*
X62989671Y-259993082D01*
X62985084Y-260125916D01*
X62981302Y-260283696D01*
X62978260Y-260468684D01*
X62975897Y-260683144D01*
X62974147Y-260929337D01*
X62972947Y-261209527D01*
X62972232Y-261525975D01*
X62971940Y-261880946D01*
X62972007Y-262276700D01*
X62972368Y-262715502D01*
X62972960Y-263199614D01*
X62973719Y-263731298D01*
X62974581Y-264312817D01*
X62975482Y-264946433D01*
X62975587Y-265023629D01*
X62976395Y-265661287D01*
X62977081Y-266246582D01*
X62977717Y-266781778D01*
X62978376Y-267269136D01*
X62979131Y-267710917D01*
X62980053Y-268109382D01*
X62981216Y-268466795D01*
X62982693Y-268785415D01*
X62984555Y-269067506D01*
X62986876Y-269315328D01*
X62989729Y-269531143D01*
X62993185Y-269717213D01*
X62997318Y-269875800D01*
X63002200Y-270009164D01*
X63007904Y-270119569D01*
X63014502Y-270209275D01*
X63022068Y-270280544D01*
X63030673Y-270335638D01*
X63040390Y-270376818D01*
X63051293Y-270406346D01*
X63063453Y-270426484D01*
X63076943Y-270439493D01*
X63091837Y-270447636D01*
X63108206Y-270453173D01*
X63126123Y-270458366D01*
X63145661Y-270465477D01*
X63150434Y-270467642D01*
X63165434Y-270472506D01*
X63190541Y-270476976D01*
X63227946Y-270481066D01*
X63279842Y-270484793D01*
X63348420Y-270488173D01*
X63435873Y-270491221D01*
X63544394Y-270493954D01*
X63676174Y-270496387D01*
X63833406Y-270498537D01*
X64018281Y-270500419D01*
X64232993Y-270502049D01*
X64479734Y-270503443D01*
X64760694Y-270504617D01*
X65078068Y-270505587D01*
X65434047Y-270506369D01*
X65830822Y-270506979D01*
X66270588Y-270507432D01*
X66755535Y-270507745D01*
X67287856Y-270507934D01*
X67869743Y-270508013D01*
X68503389Y-270508000D01*
X68708644Y-270507980D01*
X69356347Y-270507876D01*
X69951644Y-270507706D01*
X70496755Y-270507453D01*
X70993897Y-270507098D01*
X71445290Y-270506626D01*
X71853151Y-270506018D01*
X72219700Y-270505258D01*
X72547154Y-270504327D01*
X72837732Y-270503209D01*
X73093652Y-270501886D01*
X73317133Y-270500341D01*
X73510394Y-270498557D01*
X73675652Y-270496516D01*
X73815127Y-270494201D01*
X73931037Y-270491594D01*
X74025600Y-270488678D01*
X74101034Y-270485436D01*
X74159558Y-270481851D01*
X74203391Y-270477905D01*
X74234752Y-270473581D01*
X74255857Y-270468862D01*
X74267363Y-270464540D01*
X74287812Y-270455916D01*
X74306587Y-270449557D01*
X74323760Y-270443203D01*
X74339402Y-270434597D01*
X74353584Y-270421480D01*
X74366377Y-270401594D01*
X74377852Y-270372679D01*
X74388080Y-270332479D01*
X74397133Y-270278733D01*
X74405080Y-270209185D01*
X74411994Y-270121574D01*
X74417945Y-270013644D01*
X74423005Y-269883135D01*
X74427245Y-269727789D01*
X74430735Y-269545348D01*
X74433547Y-269333553D01*
X74434283Y-269252258D01*
X73705361Y-269252258D01*
X71128987Y-269252258D01*
X71178561Y-269177150D01*
X71227878Y-269099968D01*
X71269640Y-269026469D01*
X71304441Y-268951512D01*
X71332877Y-268869953D01*
X71355540Y-268776648D01*
X71373025Y-268666453D01*
X71385926Y-268534225D01*
X71394837Y-268374820D01*
X71400352Y-268183095D01*
X71403064Y-267953907D01*
X71403569Y-267682112D01*
X71402459Y-267362566D01*
X71401830Y-267243932D01*
X71394732Y-265972123D01*
X70589033Y-267069010D01*
X70360779Y-267380183D01*
X70163025Y-267651143D01*
X69993635Y-267885478D01*
X69850473Y-268086780D01*
X69731405Y-268258637D01*
X69634295Y-268404640D01*
X69557007Y-268528378D01*
X69497407Y-268633441D01*
X69453359Y-268723420D01*
X69422728Y-268801903D01*
X69403378Y-268872480D01*
X69393175Y-268938742D01*
X69389983Y-269004277D01*
X69391667Y-269072677D01*
X69392097Y-269081274D01*
X69400968Y-269252372D01*
X67989236Y-269252315D01*
X66577505Y-269252258D01*
X66787516Y-269040500D01*
X66844504Y-268982582D01*
X66898566Y-268926225D01*
X66952076Y-268868322D01*
X67007404Y-268805764D01*
X67066925Y-268735443D01*
X67133011Y-268654251D01*
X67208034Y-268559081D01*
X67294367Y-268446823D01*
X67394383Y-268314370D01*
X67510454Y-268158614D01*
X67644952Y-267976446D01*
X67800251Y-267764760D01*
X67978722Y-267520446D01*
X68182740Y-267240397D01*
X68414675Y-266921504D01*
X68604782Y-266659920D01*
X68843372Y-266331292D01*
X69051508Y-266043957D01*
X69231075Y-265795187D01*
X69383957Y-265582254D01*
X69512041Y-265402430D01*
X69617212Y-265252986D01*
X69701355Y-265131196D01*
X69766357Y-265034331D01*
X69814103Y-264959662D01*
X69846477Y-264904463D01*
X69865366Y-264866004D01*
X69872655Y-264841559D01*
X69870464Y-264828706D01*
X69843913Y-264794504D01*
X69786508Y-264722108D01*
X69701713Y-264615820D01*
X69592992Y-264479945D01*
X69463808Y-264318784D01*
X69317626Y-264136643D01*
X69157909Y-263937822D01*
X68988121Y-263726627D01*
X68811726Y-263507359D01*
X68632187Y-263284323D01*
X68533435Y-263161720D01*
X66081548Y-263161720D01*
X65877742Y-263530430D01*
X65877742Y-268883548D01*
X66081548Y-269252258D01*
X64876111Y-269252258D01*
X64588341Y-269252174D01*
X64350647Y-269251797D01*
X64158482Y-269250935D01*
X64007298Y-269249400D01*
X63892548Y-269247000D01*
X63809685Y-269243546D01*
X63754162Y-269238849D01*
X63721430Y-269232717D01*
X63706943Y-269224961D01*
X63706153Y-269215391D01*
X63714513Y-269203817D01*
X63714599Y-269203721D01*
X63749036Y-269153907D01*
X63794637Y-269072910D01*
X63834908Y-268992055D01*
X63911291Y-268828925D01*
X63919081Y-265995322D01*
X63926871Y-263161720D01*
X66081548Y-263161720D01*
X68533435Y-263161720D01*
X68452969Y-263061821D01*
X68277536Y-262844157D01*
X68109350Y-262635633D01*
X67951877Y-262440554D01*
X67808579Y-262263221D01*
X67682921Y-262107939D01*
X67578366Y-261979010D01*
X67498379Y-261880738D01*
X67451398Y-261823441D01*
X67268963Y-261609180D01*
X67093452Y-261415830D01*
X66931016Y-261249720D01*
X66787805Y-261117180D01*
X66686171Y-261035921D01*
X66565998Y-260949462D01*
X69329840Y-260949462D01*
X69329064Y-261111646D01*
X69336788Y-261230883D01*
X69365828Y-261341426D01*
X69410782Y-261446216D01*
X69440004Y-261505416D01*
X69471423Y-261564074D01*
X69507909Y-261626086D01*
X69552331Y-261695345D01*
X69607561Y-261775746D01*
X69676469Y-261871181D01*
X69761923Y-261985547D01*
X69866796Y-262122735D01*
X69993955Y-262286642D01*
X70146273Y-262481160D01*
X70326618Y-262710185D01*
X70537862Y-262977609D01*
X70561721Y-263007783D01*
X71394732Y-264061195D01*
X71402796Y-262894522D01*
X71404420Y-262545069D01*
X71404074Y-262249230D01*
X71401742Y-262006030D01*
X71397407Y-261814493D01*
X71391051Y-261673644D01*
X71382659Y-261582508D01*
X71379838Y-261565220D01*
X71335584Y-261383117D01*
X71277602Y-261218950D01*
X71211437Y-261086954D01*
X71171687Y-261030972D01*
X71103102Y-260949462D01*
X72404453Y-260949462D01*
X72714885Y-260949728D01*
X72974477Y-260950591D01*
X73187014Y-260952154D01*
X73356276Y-260954517D01*
X73486048Y-260957780D01*
X73580111Y-260962045D01*
X73642248Y-260967413D01*
X73676241Y-260973983D01*
X73685874Y-260981858D01*
X73685208Y-260983602D01*
X73657620Y-261025243D01*
X73611564Y-261091248D01*
X73587735Y-261124631D01*
X73563099Y-261157944D01*
X73540955Y-261187734D01*
X73521164Y-261216933D01*
X73503586Y-261248474D01*
X73488081Y-261285286D01*
X73474511Y-261330303D01*
X73462736Y-261386455D01*
X73452616Y-261456675D01*
X73444013Y-261543894D01*
X73436786Y-261651043D01*
X73430796Y-261781055D01*
X73425904Y-261936861D01*
X73421971Y-262121393D01*
X73418857Y-262337581D01*
X73416422Y-262588359D01*
X73414527Y-262876658D01*
X73413033Y-263205409D01*
X73411801Y-263577543D01*
X73410690Y-263995994D01*
X73409562Y-264463691D01*
X73408508Y-264893354D01*
X73407512Y-265372353D01*
X73406994Y-265829362D01*
X73406941Y-266261464D01*
X73407338Y-266665738D01*
X73408172Y-267039265D01*
X73409429Y-267379127D01*
X73411094Y-267682404D01*
X73413156Y-267946177D01*
X73415599Y-268167527D01*
X73418410Y-268343535D01*
X73421576Y-268471283D01*
X73425082Y-268547849D01*
X73425745Y-268555941D01*
X73449905Y-268741568D01*
X73487624Y-268890647D01*
X73545064Y-269020750D01*
X73628389Y-269149452D01*
X73638811Y-269163494D01*
X73705361Y-269252258D01*
X74434283Y-269252258D01*
X74435752Y-269090145D01*
X74437421Y-268812867D01*
X74438625Y-268499459D01*
X74439435Y-268147664D01*
X74439922Y-267755223D01*
X74440156Y-267319877D01*
X74440211Y-266839368D01*
X74440156Y-266311438D01*
X74440062Y-265733828D01*
X74440002Y-265104279D01*
X74440000Y-264979301D01*
X74439965Y-264343122D01*
X74439847Y-263759325D01*
X74439628Y-263225668D01*
X74439292Y-262739909D01*
X74438822Y-262299805D01*
X74438198Y-261903116D01*
X74437406Y-261547599D01*
X74436426Y-261231012D01*
X74435242Y-260951113D01*
X74433836Y-260705661D01*
X74432190Y-260492413D01*
X74430288Y-260309128D01*
X74428113Y-260153564D01*
X74425645Y-260023478D01*
X74422869Y-259916629D01*
X74419767Y-259830775D01*
X74416321Y-259763674D01*
X74412515Y-259713084D01*
X74408330Y-259676764D01*
X74403749Y-259652470D01*
X74398755Y-259637962D01*
X74398570Y-259637600D01*
X74388285Y-259615437D01*
X74379718Y-259595372D01*
X74370241Y-259577301D01*
X74357226Y-259561121D01*
X74338043Y-259546726D01*
X74310065Y-259534014D01*
X74270663Y-259522880D01*
X74217208Y-259513221D01*
X74147071Y-259504932D01*
X74057624Y-259497910D01*
X73946238Y-259492050D01*
X73810284Y-259487250D01*
X73647135Y-259483404D01*
X73454161Y-259480409D01*
X73228733Y-259478161D01*
X72968224Y-259476556D01*
X72670004Y-259475491D01*
X72331445Y-259474860D01*
X71949918Y-259474561D01*
X71522794Y-259474490D01*
X71047446Y-259474541D01*
G37*
X71047446Y-259474541D02*
X70521244Y-259474613D01*
X70276303Y-259474623D01*
X66355699Y-259474623D01*
X66355699Y-259705734D01*
X66331032Y-259986976D01*
X66256584Y-260246359D01*
X66131686Y-260485424D01*
X65955670Y-260705714D01*
X65896118Y-260765210D01*
X65681895Y-260933971D01*
X65445690Y-261057052D01*
X65194517Y-261134510D01*
X64935393Y-261166399D01*
X64675333Y-261152776D01*
X64421353Y-261093697D01*
X64180469Y-260989217D01*
X63959696Y-260839393D01*
X63860543Y-260749001D01*
X63675773Y-260527376D01*
X63540284Y-260283661D01*
X63455256Y-260020643D01*
X63421872Y-259741106D01*
X63421428Y-259713606D01*
X63419678Y-259474632D01*
X63314645Y-259474628D01*
X63221470Y-259487273D01*
X63136356Y-259518040D01*
X63130731Y-259521219D01*
X63111508Y-259531194D01*
X63093855Y-259538962D01*
X63077708Y-259546787D01*
X63063005Y-259556930D01*
X63049681Y-259571655D01*
X63037672Y-259593225D01*
X63026915Y-259623901D01*
X63017346Y-259665947D01*
X63008901Y-259721626D01*
X63001516Y-259793199D01*
X62995127Y-259882930D01*
X62989671Y-259993082D01*
X62985084Y-260125916D01*
X62981302Y-260283696D01*
X62978260Y-260468684D01*
X62975897Y-260683144D01*
X62974147Y-260929337D01*
X62972947Y-261209527D01*
X62972232Y-261525975D01*
X62971940Y-261880946D01*
X62972007Y-262276700D01*
X62972368Y-262715502D01*
X62972960Y-263199614D01*
X62973719Y-263731298D01*
X62974581Y-264312817D01*
X62975482Y-264946433D01*
X62975587Y-265023629D01*
X62976395Y-265661287D01*
X62977081Y-266246582D01*
X62977717Y-266781778D01*
X62978376Y-267269136D01*
X62979131Y-267710917D01*
X62980053Y-268109382D01*
X62981216Y-268466795D01*
X62982693Y-268785415D01*
X62984555Y-269067506D01*
X62986876Y-269315328D01*
X62989729Y-269531143D01*
X62993185Y-269717213D01*
X62997318Y-269875800D01*
X63002200Y-270009164D01*
X63007904Y-270119569D01*
X63014502Y-270209275D01*
X63022068Y-270280544D01*
X63030673Y-270335638D01*
X63040390Y-270376818D01*
X63051293Y-270406346D01*
X63063453Y-270426484D01*
X63076943Y-270439493D01*
X63091837Y-270447636D01*
X63108206Y-270453173D01*
X63126123Y-270458366D01*
X63145661Y-270465477D01*
X63150434Y-270467642D01*
X63165434Y-270472506D01*
X63190541Y-270476976D01*
X63227946Y-270481066D01*
X63279842Y-270484793D01*
X63348420Y-270488173D01*
X63435873Y-270491221D01*
X63544394Y-270493954D01*
X63676174Y-270496387D01*
X63833406Y-270498537D01*
X64018281Y-270500419D01*
X64232993Y-270502049D01*
X64479734Y-270503443D01*
X64760694Y-270504617D01*
X65078068Y-270505587D01*
X65434047Y-270506369D01*
X65830822Y-270506979D01*
X66270588Y-270507432D01*
X66755535Y-270507745D01*
X67287856Y-270507934D01*
X67869743Y-270508013D01*
X68503389Y-270508000D01*
X68708644Y-270507980D01*
X69356347Y-270507876D01*
X69951644Y-270507706D01*
X70496755Y-270507453D01*
X70993897Y-270507098D01*
X71445290Y-270506626D01*
X71853151Y-270506018D01*
X72219700Y-270505258D01*
X72547154Y-270504327D01*
X72837732Y-270503209D01*
X73093652Y-270501886D01*
X73317133Y-270500341D01*
X73510394Y-270498557D01*
X73675652Y-270496516D01*
X73815127Y-270494201D01*
X73931037Y-270491594D01*
X74025600Y-270488678D01*
X74101034Y-270485436D01*
X74159558Y-270481851D01*
X74203391Y-270477905D01*
X74234752Y-270473581D01*
X74255857Y-270468862D01*
X74267363Y-270464540D01*
X74287812Y-270455916D01*
X74306587Y-270449557D01*
X74323760Y-270443203D01*
X74339402Y-270434597D01*
X74353584Y-270421480D01*
X74366377Y-270401594D01*
X74377852Y-270372679D01*
X74388080Y-270332479D01*
X74397133Y-270278733D01*
X74405080Y-270209185D01*
X74411994Y-270121574D01*
X74417945Y-270013644D01*
X74423005Y-269883135D01*
X74427245Y-269727789D01*
X74430735Y-269545348D01*
X74433547Y-269333553D01*
X74434283Y-269252258D01*
X73705361Y-269252258D01*
X71128987Y-269252258D01*
X71178561Y-269177150D01*
X71227878Y-269099968D01*
X71269640Y-269026469D01*
X71304441Y-268951512D01*
X71332877Y-268869953D01*
X71355540Y-268776648D01*
X71373025Y-268666453D01*
X71385926Y-268534225D01*
X71394837Y-268374820D01*
X71400352Y-268183095D01*
X71403064Y-267953907D01*
X71403569Y-267682112D01*
X71402459Y-267362566D01*
X71401830Y-267243932D01*
X71394732Y-265972123D01*
X70589033Y-267069010D01*
X70360779Y-267380183D01*
X70163025Y-267651143D01*
X69993635Y-267885478D01*
X69850473Y-268086780D01*
X69731405Y-268258637D01*
X69634295Y-268404640D01*
X69557007Y-268528378D01*
X69497407Y-268633441D01*
X69453359Y-268723420D01*
X69422728Y-268801903D01*
X69403378Y-268872480D01*
X69393175Y-268938742D01*
X69389983Y-269004277D01*
X69391667Y-269072677D01*
X69392097Y-269081274D01*
X69400968Y-269252372D01*
X67989236Y-269252315D01*
X66577505Y-269252258D01*
X66787516Y-269040500D01*
X66844504Y-268982582D01*
X66898566Y-268926225D01*
X66952076Y-268868322D01*
X67007404Y-268805764D01*
X67066925Y-268735443D01*
X67133011Y-268654251D01*
X67208034Y-268559081D01*
X67294367Y-268446823D01*
X67394383Y-268314370D01*
X67510454Y-268158614D01*
X67644952Y-267976446D01*
X67800251Y-267764760D01*
X67978722Y-267520446D01*
X68182740Y-267240397D01*
X68414675Y-266921504D01*
X68604782Y-266659920D01*
X68843372Y-266331292D01*
X69051508Y-266043957D01*
X69231075Y-265795187D01*
X69383957Y-265582254D01*
X69512041Y-265402430D01*
X69617212Y-265252986D01*
X69701355Y-265131196D01*
X69766357Y-265034331D01*
X69814103Y-264959662D01*
X69846477Y-264904463D01*
X69865366Y-264866004D01*
X69872655Y-264841559D01*
X69870464Y-264828706D01*
X69843913Y-264794504D01*
X69786508Y-264722108D01*
X69701713Y-264615820D01*
X69592992Y-264479945D01*
X69463808Y-264318784D01*
X69317626Y-264136643D01*
X69157909Y-263937822D01*
X68988121Y-263726627D01*
X68811726Y-263507359D01*
X68632187Y-263284323D01*
X68533435Y-263161720D01*
X66081548Y-263161720D01*
X65877742Y-263530430D01*
X65877742Y-268883548D01*
X66081548Y-269252258D01*
X64876111Y-269252258D01*
X64588341Y-269252174D01*
X64350647Y-269251797D01*
X64158482Y-269250935D01*
X64007298Y-269249400D01*
X63892548Y-269247000D01*
X63809685Y-269243546D01*
X63754162Y-269238849D01*
X63721430Y-269232717D01*
X63706943Y-269224961D01*
X63706153Y-269215391D01*
X63714513Y-269203817D01*
X63714599Y-269203721D01*
X63749036Y-269153907D01*
X63794637Y-269072910D01*
X63834908Y-268992055D01*
X63911291Y-268828925D01*
X63919081Y-265995322D01*
X63926871Y-263161720D01*
X66081548Y-263161720D01*
X68533435Y-263161720D01*
X68452969Y-263061821D01*
X68277536Y-262844157D01*
X68109350Y-262635633D01*
X67951877Y-262440554D01*
X67808579Y-262263221D01*
X67682921Y-262107939D01*
X67578366Y-261979010D01*
X67498379Y-261880738D01*
X67451398Y-261823441D01*
X67268963Y-261609180D01*
X67093452Y-261415830D01*
X66931016Y-261249720D01*
X66787805Y-261117180D01*
X66686171Y-261035921D01*
X66565998Y-260949462D01*
X69329840Y-260949462D01*
X69329064Y-261111646D01*
X69336788Y-261230883D01*
X69365828Y-261341426D01*
X69410782Y-261446216D01*
X69440004Y-261505416D01*
X69471423Y-261564074D01*
X69507909Y-261626086D01*
X69552331Y-261695345D01*
X69607561Y-261775746D01*
X69676469Y-261871181D01*
X69761923Y-261985547D01*
X69866796Y-262122735D01*
X69993955Y-262286642D01*
X70146273Y-262481160D01*
X70326618Y-262710185D01*
X70537862Y-262977609D01*
X70561721Y-263007783D01*
X71394732Y-264061195D01*
X71402796Y-262894522D01*
X71404420Y-262545069D01*
X71404074Y-262249230D01*
X71401742Y-262006030D01*
X71397407Y-261814493D01*
X71391051Y-261673644D01*
X71382659Y-261582508D01*
X71379838Y-261565220D01*
X71335584Y-261383117D01*
X71277602Y-261218950D01*
X71211437Y-261086954D01*
X71171687Y-261030972D01*
X71103102Y-260949462D01*
X72404453Y-260949462D01*
X72714885Y-260949728D01*
X72974477Y-260950591D01*
X73187014Y-260952154D01*
X73356276Y-260954517D01*
X73486048Y-260957780D01*
X73580111Y-260962045D01*
X73642248Y-260967413D01*
X73676241Y-260973983D01*
X73685874Y-260981858D01*
X73685208Y-260983602D01*
X73657620Y-261025243D01*
X73611564Y-261091248D01*
X73587735Y-261124631D01*
X73563099Y-261157944D01*
X73540955Y-261187734D01*
X73521164Y-261216933D01*
X73503586Y-261248474D01*
X73488081Y-261285286D01*
X73474511Y-261330303D01*
X73462736Y-261386455D01*
X73452616Y-261456675D01*
X73444013Y-261543894D01*
X73436786Y-261651043D01*
X73430796Y-261781055D01*
X73425904Y-261936861D01*
X73421971Y-262121393D01*
X73418857Y-262337581D01*
X73416422Y-262588359D01*
X73414527Y-262876658D01*
X73413033Y-263205409D01*
X73411801Y-263577543D01*
X73410690Y-263995994D01*
X73409562Y-264463691D01*
X73408508Y-264893354D01*
X73407512Y-265372353D01*
X73406994Y-265829362D01*
X73406941Y-266261464D01*
X73407338Y-266665738D01*
X73408172Y-267039265D01*
X73409429Y-267379127D01*
X73411094Y-267682404D01*
X73413156Y-267946177D01*
X73415599Y-268167527D01*
X73418410Y-268343535D01*
X73421576Y-268471283D01*
X73425082Y-268547849D01*
X73425745Y-268555941D01*
X73449905Y-268741568D01*
X73487624Y-268890647D01*
X73545064Y-269020750D01*
X73628389Y-269149452D01*
X73638811Y-269163494D01*
X73705361Y-269252258D01*
X74434283Y-269252258D01*
X74435752Y-269090145D01*
X74437421Y-268812867D01*
X74438625Y-268499459D01*
X74439435Y-268147664D01*
X74439922Y-267755223D01*
X74440156Y-267319877D01*
X74440211Y-266839368D01*
X74440156Y-266311438D01*
X74440062Y-265733828D01*
X74440002Y-265104279D01*
X74440000Y-264979301D01*
X74439965Y-264343122D01*
X74439847Y-263759325D01*
X74439628Y-263225668D01*
X74439292Y-262739909D01*
X74438822Y-262299805D01*
X74438198Y-261903116D01*
X74437406Y-261547599D01*
X74436426Y-261231012D01*
X74435242Y-260951113D01*
X74433836Y-260705661D01*
X74432190Y-260492413D01*
X74430288Y-260309128D01*
X74428113Y-260153564D01*
X74425645Y-260023478D01*
X74422869Y-259916629D01*
X74419767Y-259830775D01*
X74416321Y-259763674D01*
X74412515Y-259713084D01*
X74408330Y-259676764D01*
X74403749Y-259652470D01*
X74398755Y-259637962D01*
X74398570Y-259637600D01*
X74388285Y-259615437D01*
X74379718Y-259595372D01*
X74370241Y-259577301D01*
X74357226Y-259561121D01*
X74338043Y-259546726D01*
X74310065Y-259534014D01*
X74270663Y-259522880D01*
X74217208Y-259513221D01*
X74147071Y-259504932D01*
X74057624Y-259497910D01*
X73946238Y-259492050D01*
X73810284Y-259487250D01*
X73647135Y-259483404D01*
X73454161Y-259480409D01*
X73228733Y-259478161D01*
X72968224Y-259476556D01*
X72670004Y-259475491D01*
X72331445Y-259474860D01*
X71949918Y-259474561D01*
X71522794Y-259474490D01*
X71047446Y-259474541D01*
G36*
X59051695Y-239425960D02*
G01*
X58863443Y-240424542D01*
X58168817Y-240710889D01*
X57474192Y-240997237D01*
X56640872Y-240430586D01*
X56407499Y-240272811D01*
X56196543Y-240131939D01*
X56017847Y-240014401D01*
X55881256Y-239926629D01*
X55796614Y-239875055D01*
X55773563Y-239863935D01*
X55732037Y-239892535D01*
X55643302Y-239971604D01*
X55517303Y-240091041D01*
X55363986Y-240240744D01*
X55193298Y-240410615D01*
X55015186Y-240590551D01*
X54839594Y-240770454D01*
X54676470Y-240940222D01*
X54535759Y-241089754D01*
X54427408Y-241208952D01*
X54361363Y-241287713D01*
X54345574Y-241314072D01*
X54368297Y-241362666D01*
X54432001Y-241469126D01*
X54529987Y-241623039D01*
X54655559Y-241813991D01*
X54802018Y-242031569D01*
X54886885Y-242155671D01*
X55041574Y-242382279D01*
X55179030Y-242586770D01*
X55292586Y-242758965D01*
X55375572Y-242888685D01*
X55421322Y-242965751D01*
X55428197Y-242981947D01*
X55412612Y-243027975D01*
X55370132Y-243135250D01*
X55307165Y-243288687D01*
X55230121Y-243473206D01*
X55145410Y-243673721D01*
X55059442Y-243875152D01*
X54978627Y-244062415D01*
X54909373Y-244220428D01*
X54858092Y-244334107D01*
X54831191Y-244388370D01*
X54829604Y-244390506D01*
X54787365Y-244400867D01*
X54674874Y-244423982D01*
X54503791Y-244457579D01*
X54285777Y-244499385D01*
X54032491Y-244547127D01*
X53884712Y-244574659D01*
X53614062Y-244626190D01*
X53369603Y-244675225D01*
X53163700Y-244719081D01*
X53008723Y-244755074D01*
X52917038Y-244780521D01*
X52898607Y-244788595D01*
X52880555Y-244843242D01*
X52865990Y-244966662D01*
X52854902Y-245144423D01*
X52847281Y-245362091D01*
X52843116Y-245605235D01*
X52842398Y-245859423D01*
X52845118Y-246110220D01*
X52851265Y-246343196D01*
X52860829Y-246543918D01*
X52873801Y-246697954D01*
X52890171Y-246790870D01*
X52899989Y-246810213D01*
X52958677Y-246833398D01*
X53083034Y-246866544D01*
X53256610Y-246905758D01*
X53462958Y-246947145D01*
X53534989Y-246960534D01*
X53882281Y-247024147D01*
X54156617Y-247075378D01*
X54367061Y-247116261D01*
X54522678Y-247148834D01*
X54632533Y-247175132D01*
X54705689Y-247197192D01*
X54751213Y-247217049D01*
X54778167Y-247236741D01*
X54781939Y-247240632D01*
X54819585Y-247303324D01*
X54877014Y-247425331D01*
X54948492Y-247591712D01*
X55028285Y-247787529D01*
X55110657Y-247997840D01*
X55189875Y-248207708D01*
X55260204Y-248402191D01*
X55315911Y-248566350D01*
X55351259Y-248685245D01*
X55360516Y-248743936D01*
X55359744Y-248745992D01*
X55328380Y-248793964D01*
X55257226Y-248899516D01*
X55153760Y-249051660D01*
X55025460Y-249239410D01*
X54879801Y-249451780D01*
X54838320Y-249512130D01*
X54690413Y-249730929D01*
X54560261Y-249930562D01*
X54454955Y-250099565D01*
X54381584Y-250226475D01*
X54347237Y-250299829D01*
X54345574Y-250308841D01*
X54374431Y-250356207D01*
X54454169Y-250450042D01*
X54574538Y-250580261D01*
X54725287Y-250736779D01*
X54896164Y-250909510D01*
X55076921Y-251088371D01*
X55257306Y-251263276D01*
X55427068Y-251424140D01*
X55575958Y-251560878D01*
X55693724Y-251663407D01*
X55770117Y-251721640D01*
X55791250Y-251731148D01*
X55840440Y-251708754D01*
X55941153Y-251648356D01*
X56076983Y-251560129D01*
X56181490Y-251489115D01*
X56370851Y-251358811D01*
X56595101Y-251205384D01*
X56820036Y-251052201D01*
X56940968Y-250970218D01*
X57350296Y-250693353D01*
X57693898Y-250879136D01*
X57850435Y-250960523D01*
X57983546Y-251023784D01*
X58073611Y-251059865D01*
X58096537Y-251064885D01*
X58124105Y-251027817D01*
X58178492Y-250923069D01*
X58255637Y-250760303D01*
X58351482Y-250549181D01*
X58461966Y-250299365D01*
X58583029Y-250020517D01*
X58710611Y-249722299D01*
X58840653Y-249414374D01*
X58969094Y-249106404D01*
X59091874Y-248808050D01*
X59204933Y-248528975D01*
X59304212Y-248278841D01*
X59385651Y-248067310D01*
X59445189Y-247904043D01*
X59478766Y-247798705D01*
X59484166Y-247762527D01*
X59441366Y-247716381D01*
X59347656Y-247641472D01*
X59222627Y-247553364D01*
X59212133Y-247546394D01*
X58888980Y-247287721D01*
X58628413Y-246985938D01*
X58432690Y-246650695D01*
X58304068Y-246291642D01*
X58244805Y-245918426D01*
X58257161Y-245540700D01*
X58343393Y-245168111D01*
X58505759Y-244810310D01*
X58553528Y-244732027D01*
X58801991Y-244415919D01*
X59095519Y-244162079D01*
X59423953Y-243971827D01*
X59777135Y-243846485D01*
X60144905Y-243787372D01*
X60517103Y-243795807D01*
X60883571Y-243873112D01*
X61234149Y-244020606D01*
X61558677Y-244239610D01*
X61659064Y-244328498D01*
X61914551Y-244606744D01*
X62100722Y-244899656D01*
X62228430Y-245227986D01*
X62299556Y-245553133D01*
X62317114Y-245918702D01*
X62258566Y-246286086D01*
X62129858Y-246642866D01*
X61936938Y-246976626D01*
X61685752Y-247274947D01*
X61382248Y-247525411D01*
X61342360Y-247551813D01*
X61215991Y-247638272D01*
X61119927Y-247713184D01*
X61074000Y-247761015D01*
X61073332Y-247762527D01*
X61083192Y-247814267D01*
X61122278Y-247931696D01*
X61186528Y-248105154D01*
X61271880Y-248324979D01*
X61374273Y-248581513D01*
X61489646Y-248865096D01*
X61613937Y-249166067D01*
X61743084Y-249474767D01*
X61873026Y-249781536D01*
X61999702Y-250076714D01*
X62119049Y-250350640D01*
X62227006Y-250593656D01*
X62319512Y-250796101D01*
X62392504Y-250948315D01*
X62441923Y-251040638D01*
X62461823Y-251064885D01*
X62522634Y-251046004D01*
X62636418Y-250995364D01*
X62783555Y-250922017D01*
X62864462Y-250879136D01*
X63208065Y-250693353D01*
X63617393Y-250970218D01*
X63826346Y-251112054D01*
X64055113Y-251268141D01*
X64269491Y-251415109D01*
X64376871Y-251489115D01*
X64527898Y-251590531D01*
X64655782Y-251670898D01*
X64743842Y-251720041D01*
X64772445Y-251730429D01*
X64814076Y-251702405D01*
X64906211Y-251624172D01*
X65039918Y-251503852D01*
X65206265Y-251349568D01*
X65396320Y-251169443D01*
X65516521Y-251053790D01*
X65726815Y-250847167D01*
X65908556Y-250662358D01*
X66054397Y-250507270D01*
X66156991Y-250389807D01*
X66208991Y-250317875D01*
X66213980Y-250303278D01*
X66190829Y-250247753D01*
X66126854Y-250135484D01*
X66029153Y-249977837D01*
X65904820Y-249786179D01*
X65760954Y-249571876D01*
X65720041Y-249512130D01*
X65570967Y-249294982D01*
X65437225Y-249099475D01*
X65326291Y-248936599D01*
X65245644Y-248817337D01*
X65202759Y-248752678D01*
X65198617Y-248745992D01*
X65204812Y-248694462D01*
X65237700Y-248581166D01*
X65291545Y-248421042D01*
X65360613Y-248229032D01*
X65439169Y-248020074D01*
X65521480Y-247809109D01*
X65601811Y-247611076D01*
X65674428Y-247440916D01*
X65733595Y-247313567D01*
X65773580Y-247243971D01*
X65776422Y-247240632D01*
X65800873Y-247220742D01*
X65842169Y-247201073D01*
X65909377Y-247179589D01*
X66011559Y-247154253D01*
X66157781Y-247123029D01*
X66357107Y-247083882D01*
X66618603Y-247034775D01*
X66951331Y-246973672D01*
X67023372Y-246960534D01*
X67236885Y-246919282D01*
X67423022Y-246878926D01*
X67565334Y-246843361D01*
X67647371Y-246816480D01*
X67658372Y-246810213D01*
X67676498Y-246754654D01*
X67691233Y-246630495D01*
X67702564Y-246452169D01*
X67710484Y-246234109D01*
X67714981Y-245990746D01*
X67716046Y-245736514D01*
X67713670Y-245485845D01*
X67707841Y-245253171D01*
X67698551Y-245052924D01*
X67685789Y-244899538D01*
X67669546Y-244807444D01*
X67659754Y-244788595D01*
X67605239Y-244769582D01*
X67481104Y-244738650D01*
X67299715Y-244698482D01*
X67073440Y-244651762D01*
X66814647Y-244601173D01*
X66673649Y-244574659D01*
X66406127Y-244524650D01*
X66167562Y-244479346D01*
X65969614Y-244441021D01*
X65823943Y-244411947D01*
X65742209Y-244394397D01*
X65728757Y-244390506D01*
X65706021Y-244346638D01*
X65657960Y-244240976D01*
X65590981Y-244088613D01*
X65511490Y-243904646D01*
X65425892Y-243704170D01*
X65340595Y-243502281D01*
X65262005Y-243314073D01*
X65196527Y-243154642D01*
X65150569Y-243039084D01*
X65130537Y-242982494D01*
X65130164Y-242980021D01*
X65152874Y-242935379D01*
X65216541Y-242832647D01*
X65314475Y-242682037D01*
X65439983Y-242493757D01*
X65586374Y-242278018D01*
X65671475Y-242154098D01*
X65826545Y-241926883D01*
X65964275Y-241720595D01*
X66077947Y-241545671D01*
X66160839Y-241412545D01*
X66206231Y-241331653D01*
X66212787Y-241313520D01*
X66184605Y-241271312D01*
X66106696Y-241181191D01*
X65989010Y-241053254D01*
X65841500Y-240897596D01*
X65674119Y-240724315D01*
X65496819Y-240543507D01*
X65319552Y-240365267D01*
X65152270Y-240199693D01*
X65004925Y-240056880D01*
X64887470Y-239946925D01*
X64809857Y-239879924D01*
X64783892Y-239863935D01*
X64741616Y-239886419D01*
X64640499Y-239949585D01*
X64490373Y-240047003D01*
X64301070Y-240172243D01*
X64082421Y-240318875D01*
X63917489Y-240430586D01*
X63084169Y-240997237D01*
X62389544Y-240710889D01*
X61694918Y-240424542D01*
X61506666Y-239425960D01*
X61318413Y-238427377D01*
X59239948Y-238427377D01*
X59051695Y-239425960D01*
G37*
X59051695Y-239425960D02*
X58863443Y-240424542D01*
X58168817Y-240710889D01*
X57474192Y-240997237D01*
X56640872Y-240430586D01*
X56407499Y-240272811D01*
X56196543Y-240131939D01*
X56017847Y-240014401D01*
X55881256Y-239926629D01*
X55796614Y-239875055D01*
X55773563Y-239863935D01*
X55732037Y-239892535D01*
X55643302Y-239971604D01*
X55517303Y-240091041D01*
X55363986Y-240240744D01*
X55193298Y-240410615D01*
X55015186Y-240590551D01*
X54839594Y-240770454D01*
X54676470Y-240940222D01*
X54535759Y-241089754D01*
X54427408Y-241208952D01*
X54361363Y-241287713D01*
X54345574Y-241314072D01*
X54368297Y-241362666D01*
X54432001Y-241469126D01*
X54529987Y-241623039D01*
X54655559Y-241813991D01*
X54802018Y-242031569D01*
X54886885Y-242155671D01*
X55041574Y-242382279D01*
X55179030Y-242586770D01*
X55292586Y-242758965D01*
X55375572Y-242888685D01*
X55421322Y-242965751D01*
X55428197Y-242981947D01*
X55412612Y-243027975D01*
X55370132Y-243135250D01*
X55307165Y-243288687D01*
X55230121Y-243473206D01*
X55145410Y-243673721D01*
X55059442Y-243875152D01*
X54978627Y-244062415D01*
X54909373Y-244220428D01*
X54858092Y-244334107D01*
X54831191Y-244388370D01*
X54829604Y-244390506D01*
X54787365Y-244400867D01*
X54674874Y-244423982D01*
X54503791Y-244457579D01*
X54285777Y-244499385D01*
X54032491Y-244547127D01*
X53884712Y-244574659D01*
X53614062Y-244626190D01*
X53369603Y-244675225D01*
X53163700Y-244719081D01*
X53008723Y-244755074D01*
X52917038Y-244780521D01*
X52898607Y-244788595D01*
X52880555Y-244843242D01*
X52865990Y-244966662D01*
X52854902Y-245144423D01*
X52847281Y-245362091D01*
X52843116Y-245605235D01*
X52842398Y-245859423D01*
X52845118Y-246110220D01*
X52851265Y-246343196D01*
X52860829Y-246543918D01*
X52873801Y-246697954D01*
X52890171Y-246790870D01*
X52899989Y-246810213D01*
X52958677Y-246833398D01*
X53083034Y-246866544D01*
X53256610Y-246905758D01*
X53462958Y-246947145D01*
X53534989Y-246960534D01*
X53882281Y-247024147D01*
X54156617Y-247075378D01*
X54367061Y-247116261D01*
X54522678Y-247148834D01*
X54632533Y-247175132D01*
X54705689Y-247197192D01*
X54751213Y-247217049D01*
X54778167Y-247236741D01*
X54781939Y-247240632D01*
X54819585Y-247303324D01*
X54877014Y-247425331D01*
X54948492Y-247591712D01*
X55028285Y-247787529D01*
X55110657Y-247997840D01*
X55189875Y-248207708D01*
X55260204Y-248402191D01*
X55315911Y-248566350D01*
X55351259Y-248685245D01*
X55360516Y-248743936D01*
X55359744Y-248745992D01*
X55328380Y-248793964D01*
X55257226Y-248899516D01*
X55153760Y-249051660D01*
X55025460Y-249239410D01*
X54879801Y-249451780D01*
X54838320Y-249512130D01*
X54690413Y-249730929D01*
X54560261Y-249930562D01*
X54454955Y-250099565D01*
X54381584Y-250226475D01*
X54347237Y-250299829D01*
X54345574Y-250308841D01*
X54374431Y-250356207D01*
X54454169Y-250450042D01*
X54574538Y-250580261D01*
X54725287Y-250736779D01*
X54896164Y-250909510D01*
X55076921Y-251088371D01*
X55257306Y-251263276D01*
X55427068Y-251424140D01*
X55575958Y-251560878D01*
X55693724Y-251663407D01*
X55770117Y-251721640D01*
X55791250Y-251731148D01*
X55840440Y-251708754D01*
X55941153Y-251648356D01*
X56076983Y-251560129D01*
X56181490Y-251489115D01*
X56370851Y-251358811D01*
X56595101Y-251205384D01*
X56820036Y-251052201D01*
X56940968Y-250970218D01*
X57350296Y-250693353D01*
X57693898Y-250879136D01*
X57850435Y-250960523D01*
X57983546Y-251023784D01*
X58073611Y-251059865D01*
X58096537Y-251064885D01*
X58124105Y-251027817D01*
X58178492Y-250923069D01*
X58255637Y-250760303D01*
X58351482Y-250549181D01*
X58461966Y-250299365D01*
X58583029Y-250020517D01*
X58710611Y-249722299D01*
X58840653Y-249414374D01*
X58969094Y-249106404D01*
X59091874Y-248808050D01*
X59204933Y-248528975D01*
X59304212Y-248278841D01*
X59385651Y-248067310D01*
X59445189Y-247904043D01*
X59478766Y-247798705D01*
X59484166Y-247762527D01*
X59441366Y-247716381D01*
X59347656Y-247641472D01*
X59222627Y-247553364D01*
X59212133Y-247546394D01*
X58888980Y-247287721D01*
X58628413Y-246985938D01*
X58432690Y-246650695D01*
X58304068Y-246291642D01*
X58244805Y-245918426D01*
X58257161Y-245540700D01*
X58343393Y-245168111D01*
X58505759Y-244810310D01*
X58553528Y-244732027D01*
X58801991Y-244415919D01*
X59095519Y-244162079D01*
X59423953Y-243971827D01*
X59777135Y-243846485D01*
X60144905Y-243787372D01*
X60517103Y-243795807D01*
X60883571Y-243873112D01*
X61234149Y-244020606D01*
X61558677Y-244239610D01*
X61659064Y-244328498D01*
X61914551Y-244606744D01*
X62100722Y-244899656D01*
X62228430Y-245227986D01*
X62299556Y-245553133D01*
X62317114Y-245918702D01*
X62258566Y-246286086D01*
X62129858Y-246642866D01*
X61936938Y-246976626D01*
X61685752Y-247274947D01*
X61382248Y-247525411D01*
X61342360Y-247551813D01*
X61215991Y-247638272D01*
X61119927Y-247713184D01*
X61074000Y-247761015D01*
X61073332Y-247762527D01*
X61083192Y-247814267D01*
X61122278Y-247931696D01*
X61186528Y-248105154D01*
X61271880Y-248324979D01*
X61374273Y-248581513D01*
X61489646Y-248865096D01*
X61613937Y-249166067D01*
X61743084Y-249474767D01*
X61873026Y-249781536D01*
X61999702Y-250076714D01*
X62119049Y-250350640D01*
X62227006Y-250593656D01*
X62319512Y-250796101D01*
X62392504Y-250948315D01*
X62441923Y-251040638D01*
X62461823Y-251064885D01*
X62522634Y-251046004D01*
X62636418Y-250995364D01*
X62783555Y-250922017D01*
X62864462Y-250879136D01*
X63208065Y-250693353D01*
X63617393Y-250970218D01*
X63826346Y-251112054D01*
X64055113Y-251268141D01*
X64269491Y-251415109D01*
X64376871Y-251489115D01*
X64527898Y-251590531D01*
X64655782Y-251670898D01*
X64743842Y-251720041D01*
X64772445Y-251730429D01*
X64814076Y-251702405D01*
X64906211Y-251624172D01*
X65039918Y-251503852D01*
X65206265Y-251349568D01*
X65396320Y-251169443D01*
X65516521Y-251053790D01*
X65726815Y-250847167D01*
X65908556Y-250662358D01*
X66054397Y-250507270D01*
X66156991Y-250389807D01*
X66208991Y-250317875D01*
X66213980Y-250303278D01*
X66190829Y-250247753D01*
X66126854Y-250135484D01*
X66029153Y-249977837D01*
X65904820Y-249786179D01*
X65760954Y-249571876D01*
X65720041Y-249512130D01*
X65570967Y-249294982D01*
X65437225Y-249099475D01*
X65326291Y-248936599D01*
X65245644Y-248817337D01*
X65202759Y-248752678D01*
X65198617Y-248745992D01*
X65204812Y-248694462D01*
X65237700Y-248581166D01*
X65291545Y-248421042D01*
X65360613Y-248229032D01*
X65439169Y-248020074D01*
X65521480Y-247809109D01*
X65601811Y-247611076D01*
X65674428Y-247440916D01*
X65733595Y-247313567D01*
X65773580Y-247243971D01*
X65776422Y-247240632D01*
X65800873Y-247220742D01*
X65842169Y-247201073D01*
X65909377Y-247179589D01*
X66011559Y-247154253D01*
X66157781Y-247123029D01*
X66357107Y-247083882D01*
X66618603Y-247034775D01*
X66951331Y-246973672D01*
X67023372Y-246960534D01*
X67236885Y-246919282D01*
X67423022Y-246878926D01*
X67565334Y-246843361D01*
X67647371Y-246816480D01*
X67658372Y-246810213D01*
X67676498Y-246754654D01*
X67691233Y-246630495D01*
X67702564Y-246452169D01*
X67710484Y-246234109D01*
X67714981Y-245990746D01*
X67716046Y-245736514D01*
X67713670Y-245485845D01*
X67707841Y-245253171D01*
X67698551Y-245052924D01*
X67685789Y-244899538D01*
X67669546Y-244807444D01*
X67659754Y-244788595D01*
X67605239Y-244769582D01*
X67481104Y-244738650D01*
X67299715Y-244698482D01*
X67073440Y-244651762D01*
X66814647Y-244601173D01*
X66673649Y-244574659D01*
X66406127Y-244524650D01*
X66167562Y-244479346D01*
X65969614Y-244441021D01*
X65823943Y-244411947D01*
X65742209Y-244394397D01*
X65728757Y-244390506D01*
X65706021Y-244346638D01*
X65657960Y-244240976D01*
X65590981Y-244088613D01*
X65511490Y-243904646D01*
X65425892Y-243704170D01*
X65340595Y-243502281D01*
X65262005Y-243314073D01*
X65196527Y-243154642D01*
X65150569Y-243039084D01*
X65130537Y-242982494D01*
X65130164Y-242980021D01*
X65152874Y-242935379D01*
X65216541Y-242832647D01*
X65314475Y-242682037D01*
X65439983Y-242493757D01*
X65586374Y-242278018D01*
X65671475Y-242154098D01*
X65826545Y-241926883D01*
X65964275Y-241720595D01*
X66077947Y-241545671D01*
X66160839Y-241412545D01*
X66206231Y-241331653D01*
X66212787Y-241313520D01*
X66184605Y-241271312D01*
X66106696Y-241181191D01*
X65989010Y-241053254D01*
X65841500Y-240897596D01*
X65674119Y-240724315D01*
X65496819Y-240543507D01*
X65319552Y-240365267D01*
X65152270Y-240199693D01*
X65004925Y-240056880D01*
X64887470Y-239946925D01*
X64809857Y-239879924D01*
X64783892Y-239863935D01*
X64741616Y-239886419D01*
X64640499Y-239949585D01*
X64490373Y-240047003D01*
X64301070Y-240172243D01*
X64082421Y-240318875D01*
X63917489Y-240430586D01*
X63084169Y-240997237D01*
X62389544Y-240710889D01*
X61694918Y-240424542D01*
X61506666Y-239425960D01*
X61318413Y-238427377D01*
X59239948Y-238427377D01*
X59051695Y-239425960D01*
G36*
X54341131Y-253228231D02*
G01*
X54197908Y-253271989D01*
X54105694Y-253327280D01*
X54075656Y-253371004D01*
X54083924Y-253422834D01*
X54137573Y-253504259D01*
X54182937Y-253561927D01*
X54276454Y-253666182D01*
X54346713Y-253710045D01*
X54406607Y-253707182D01*
X54584280Y-253661967D01*
X54714766Y-253664020D01*
X54820727Y-253715261D01*
X54856300Y-253745252D01*
X54970164Y-253850778D01*
X54970164Y-255228853D01*
X55428197Y-255228853D01*
X55428197Y-253230164D01*
X55199180Y-253230164D01*
X55061682Y-253235602D01*
X54990742Y-253254909D01*
X54970173Y-253292576D01*
X54970164Y-253293692D01*
X54960450Y-253333146D01*
X54916522Y-253328000D01*
X54855656Y-253299536D01*
X54729946Y-253246569D01*
X54627866Y-253214703D01*
X54496520Y-253206533D01*
X54341131Y-253228231D01*
G37*
X54341131Y-253228231D02*
X54197908Y-253271989D01*
X54105694Y-253327280D01*
X54075656Y-253371004D01*
X54083924Y-253422834D01*
X54137573Y-253504259D01*
X54182937Y-253561927D01*
X54276454Y-253666182D01*
X54346713Y-253710045D01*
X54406607Y-253707182D01*
X54584280Y-253661967D01*
X54714766Y-253664020D01*
X54820727Y-253715261D01*
X54856300Y-253745252D01*
X54970164Y-253850778D01*
X54970164Y-255228853D01*
X55428197Y-255228853D01*
X55428197Y-253230164D01*
X55199180Y-253230164D01*
X55061682Y-253235602D01*
X54990742Y-253254909D01*
X54970173Y-253292576D01*
X54970164Y-253293692D01*
X54960450Y-253333146D01*
X54916522Y-253328000D01*
X54855656Y-253299536D01*
X54729946Y-253246569D01*
X54627866Y-253214703D01*
X54496520Y-253206533D01*
X54341131Y-253228231D01*
G36*
X62796892Y-253264563D02*
G01*
X62693260Y-253314062D01*
X62592894Y-253385561D01*
X62516432Y-253467853D01*
X62460738Y-253572811D01*
X62422677Y-253712313D01*
X62399115Y-253898233D01*
X62386915Y-254142448D01*
X62382944Y-254456833D01*
X62382882Y-254489754D01*
X62381967Y-255228853D01*
X62840000Y-255228853D01*
X62840000Y-254547481D01*
X62840326Y-254295050D01*
X62842581Y-254112093D01*
X62848681Y-253984807D01*
X62860541Y-253899386D01*
X62880076Y-253842026D01*
X62909203Y-253798924D01*
X62949776Y-253756334D01*
X63091731Y-253664824D01*
X63246694Y-253647843D01*
X63394323Y-253705701D01*
X63445663Y-253748763D01*
X63483353Y-253789249D01*
X63510413Y-253832607D01*
X63528603Y-253892463D01*
X63539684Y-253982441D01*
X63545414Y-254116168D01*
X63547556Y-254307270D01*
X63547869Y-254539911D01*
X63547869Y-255228853D01*
X64005902Y-255228853D01*
X64005902Y-253230164D01*
X63776885Y-253230164D01*
X63639386Y-253235602D01*
X63568447Y-253254909D01*
X63547878Y-253292576D01*
X63547869Y-253293692D01*
X63538325Y-253330581D01*
X63496233Y-253326395D01*
X63412541Y-253285861D01*
X63222727Y-253226224D01*
X63005599Y-253219591D01*
X62796892Y-253264563D01*
G37*
X62796892Y-253264563D02*
X62693260Y-253314062D01*
X62592894Y-253385561D01*
X62516432Y-253467853D01*
X62460738Y-253572811D01*
X62422677Y-253712313D01*
X62399115Y-253898233D01*
X62386915Y-254142448D01*
X62382944Y-254456833D01*
X62382882Y-254489754D01*
X62381967Y-255228853D01*
X62840000Y-255228853D01*
X62840000Y-254547481D01*
X62840326Y-254295050D01*
X62842581Y-254112093D01*
X62848681Y-253984807D01*
X62860541Y-253899386D01*
X62880076Y-253842026D01*
X62909203Y-253798924D01*
X62949776Y-253756334D01*
X63091731Y-253664824D01*
X63246694Y-253647843D01*
X63394323Y-253705701D01*
X63445663Y-253748763D01*
X63483353Y-253789249D01*
X63510413Y-253832607D01*
X63528603Y-253892463D01*
X63539684Y-253982441D01*
X63545414Y-254116168D01*
X63547556Y-254307270D01*
X63547869Y-254539911D01*
X63547869Y-255228853D01*
X64005902Y-255228853D01*
X64005902Y-253230164D01*
X63776885Y-253230164D01*
X63639386Y-253235602D01*
X63568447Y-253254909D01*
X63547878Y-253292576D01*
X63547869Y-253293692D01*
X63538325Y-253330581D01*
X63496233Y-253326395D01*
X63412541Y-253285861D01*
X63222727Y-253226224D01*
X63005599Y-253219591D01*
X62796892Y-253264563D01*
G36*
X51432208Y-253223019D02*
G01*
X51325586Y-253248922D01*
X51121170Y-253343772D01*
X50946375Y-253488633D01*
X50825403Y-253662320D01*
X50808783Y-253701317D01*
X50785984Y-253803465D01*
X50770025Y-253954573D01*
X50764590Y-254107301D01*
X50764590Y-254396066D01*
X51368361Y-254396066D01*
X51617381Y-254397007D01*
X51792811Y-254402723D01*
X51904335Y-254417550D01*
X51961640Y-254445827D01*
X51974412Y-254491890D01*
X51952338Y-254560077D01*
X51912795Y-254639863D01*
X51802491Y-254773017D01*
X51649208Y-254839355D01*
X51461859Y-254837194D01*
X51249637Y-254764991D01*
X51066227Y-254675883D01*
X50914038Y-254796220D01*
X50761849Y-254916558D01*
X50905026Y-255048843D01*
X51096172Y-255173832D01*
X51331247Y-255249189D01*
X51584102Y-255270278D01*
X51828587Y-255232460D01*
X51868033Y-255219628D01*
X52082910Y-255107414D01*
X52242750Y-254940118D01*
X52350920Y-254712748D01*
X52410790Y-254420308D01*
X52411487Y-254414040D01*
X52416848Y-254095332D01*
X52395177Y-253981632D01*
X51972131Y-253981632D01*
X51933278Y-253999116D01*
X51827795Y-254012508D01*
X51672293Y-254020155D01*
X51573751Y-254021312D01*
X51389987Y-254020588D01*
X51275086Y-254015983D01*
X51214634Y-254003848D01*
X51194217Y-253980530D01*
X51199419Y-253942382D01*
X51203783Y-253927623D01*
X51278276Y-253788944D01*
X51395434Y-253677179D01*
X51498827Y-253628066D01*
X51636184Y-253631032D01*
X51775371Y-253692278D01*
X51892126Y-253793683D01*
X51962190Y-253917122D01*
X51972131Y-253981632D01*
X52395177Y-253981632D01*
X52363421Y-253815020D01*
X52257428Y-253579780D01*
X52105089Y-253396284D01*
X51912626Y-253271209D01*
X51686258Y-253211229D01*
X51432208Y-253223019D01*
G37*
X51432208Y-253223019D02*
X51325586Y-253248922D01*
X51121170Y-253343772D01*
X50946375Y-253488633D01*
X50825403Y-253662320D01*
X50808783Y-253701317D01*
X50785984Y-253803465D01*
X50770025Y-253954573D01*
X50764590Y-254107301D01*
X50764590Y-254396066D01*
X51368361Y-254396066D01*
X51617381Y-254397007D01*
X51792811Y-254402723D01*
X51904335Y-254417550D01*
X51961640Y-254445827D01*
X51974412Y-254491890D01*
X51952338Y-254560077D01*
X51912795Y-254639863D01*
X51802491Y-254773017D01*
X51649208Y-254839355D01*
X51461859Y-254837194D01*
X51249637Y-254764991D01*
X51066227Y-254675883D01*
X50914038Y-254796220D01*
X50761849Y-254916558D01*
X50905026Y-255048843D01*
X51096172Y-255173832D01*
X51331247Y-255249189D01*
X51584102Y-255270278D01*
X51828587Y-255232460D01*
X51868033Y-255219628D01*
X52082910Y-255107414D01*
X52242750Y-254940118D01*
X52350920Y-254712748D01*
X52410790Y-254420308D01*
X52411487Y-254414040D01*
X52416848Y-254095332D01*
X52395177Y-253981632D01*
X51972131Y-253981632D01*
X51933278Y-253999116D01*
X51827795Y-254012508D01*
X51672293Y-254020155D01*
X51573751Y-254021312D01*
X51389987Y-254020588D01*
X51275086Y-254015983D01*
X51214634Y-254003848D01*
X51194217Y-253980530D01*
X51199419Y-253942382D01*
X51203783Y-253927623D01*
X51278276Y-253788944D01*
X51395434Y-253677179D01*
X51498827Y-253628066D01*
X51636184Y-253631032D01*
X51775371Y-253692278D01*
X51892126Y-253793683D01*
X51962190Y-253917122D01*
X51972131Y-253981632D01*
X52395177Y-253981632D01*
X52363421Y-253815020D01*
X52257428Y-253579780D01*
X52105089Y-253396284D01*
X51912626Y-253271209D01*
X51686258Y-253211229D01*
X51432208Y-253223019D01*
G36*
X52957712Y-253247602D02*
G01*
X52716457Y-253350090D01*
X52640469Y-253399981D01*
X52543352Y-253476651D01*
X52482388Y-253536936D01*
X52471803Y-253556571D01*
X52501692Y-253600142D01*
X52578181Y-253674077D01*
X52639418Y-253725679D01*
X52807033Y-253860378D01*
X52939386Y-253749010D01*
X53041664Y-253677113D01*
X53141390Y-253652296D01*
X53255525Y-253658357D01*
X53436766Y-253703418D01*
X53561525Y-253796949D01*
X53637342Y-253948154D01*
X53671760Y-254166236D01*
X53671769Y-254166373D01*
X53668792Y-254410124D01*
X53622533Y-254588966D01*
X53530258Y-254710730D01*
X53467350Y-254751964D01*
X53300283Y-254803311D01*
X53121838Y-254803342D01*
X52966585Y-254753522D01*
X52929836Y-254729180D01*
X52837670Y-254667004D01*
X52765613Y-254656813D01*
X52687898Y-254703092D01*
X52601982Y-254786212D01*
X52465989Y-254926521D01*
X52616977Y-255050978D01*
X52850260Y-255191443D01*
X53113327Y-255260666D01*
X53388240Y-255255653D01*
X53568784Y-255209755D01*
X53779806Y-255096249D01*
X53948574Y-254917685D01*
X54025247Y-254791639D01*
X54087346Y-254610791D01*
X54118419Y-254381745D01*
X54118658Y-254133510D01*
X54088257Y-253895093D01*
X54027408Y-253695503D01*
X54017824Y-253675039D01*
X53875898Y-253474341D01*
X53683741Y-253328217D01*
X53456536Y-253239698D01*
X53209465Y-253211815D01*
X52957712Y-253247602D01*
G37*
X52957712Y-253247602D02*
X52716457Y-253350090D01*
X52640469Y-253399981D01*
X52543352Y-253476651D01*
X52482388Y-253536936D01*
X52471803Y-253556571D01*
X52501692Y-253600142D01*
X52578181Y-253674077D01*
X52639418Y-253725679D01*
X52807033Y-253860378D01*
X52939386Y-253749010D01*
X53041664Y-253677113D01*
X53141390Y-253652296D01*
X53255525Y-253658357D01*
X53436766Y-253703418D01*
X53561525Y-253796949D01*
X53637342Y-253948154D01*
X53671760Y-254166236D01*
X53671769Y-254166373D01*
X53668792Y-254410124D01*
X53622533Y-254588966D01*
X53530258Y-254710730D01*
X53467350Y-254751964D01*
X53300283Y-254803311D01*
X53121838Y-254803342D01*
X52966585Y-254753522D01*
X52929836Y-254729180D01*
X52837670Y-254667004D01*
X52765613Y-254656813D01*
X52687898Y-254703092D01*
X52601982Y-254786212D01*
X52465989Y-254926521D01*
X52616977Y-255050978D01*
X52850260Y-255191443D01*
X53113327Y-255260666D01*
X53388240Y-255255653D01*
X53568784Y-255209755D01*
X53779806Y-255096249D01*
X53948574Y-254917685D01*
X54025247Y-254791639D01*
X54087346Y-254610791D01*
X54118419Y-254381745D01*
X54118658Y-254133510D01*
X54088257Y-253895093D01*
X54027408Y-253695503D01*
X54017824Y-253675039D01*
X53875898Y-253474341D01*
X53683741Y-253328217D01*
X53456536Y-253239698D01*
X53209465Y-253211815D01*
X52957712Y-253247602D01*
G36*
X57010492Y-253878311D02*
G01*
X57006556Y-254183698D01*
X56992177Y-254415660D01*
X56963496Y-254583786D01*
X56916652Y-254697671D01*
X56847789Y-254766905D01*
X56753046Y-254801080D01*
X56635738Y-254809811D01*
X56512877Y-254800028D01*
X56419556Y-254764287D01*
X56351916Y-254692995D01*
X56306099Y-254576561D01*
X56278245Y-254405391D01*
X56264496Y-254169896D01*
X56260984Y-253878311D01*
X56260984Y-253230164D01*
X55802951Y-253230164D01*
X55802951Y-255228853D01*
X56031967Y-255228853D01*
X56170029Y-255223258D01*
X56241122Y-255203611D01*
X56260984Y-255166313D01*
X56272946Y-255133094D01*
X56320553Y-255140121D01*
X56416515Y-255187132D01*
X56636452Y-255259654D01*
X56869726Y-255254516D01*
X57093245Y-255175766D01*
X57199687Y-255113558D01*
X57280878Y-255046204D01*
X57340192Y-254961928D01*
X57381004Y-254848957D01*
X57406688Y-254695515D01*
X57420619Y-254489827D01*
X57426171Y-254220118D01*
X57426885Y-254011551D01*
X57426885Y-253230164D01*
X57010492Y-253230164D01*
X57010492Y-253878311D01*
G37*
X57010492Y-253878311D02*
X57006556Y-254183698D01*
X56992177Y-254415660D01*
X56963496Y-254583786D01*
X56916652Y-254697671D01*
X56847789Y-254766905D01*
X56753046Y-254801080D01*
X56635738Y-254809811D01*
X56512877Y-254800028D01*
X56419556Y-254764287D01*
X56351916Y-254692995D01*
X56306099Y-254576561D01*
X56278245Y-254405391D01*
X56264496Y-254169896D01*
X56260984Y-253878311D01*
X56260984Y-253230164D01*
X55802951Y-253230164D01*
X55802951Y-255228853D01*
X56031967Y-255228853D01*
X56170029Y-255223258D01*
X56241122Y-255203611D01*
X56260984Y-255166313D01*
X56272946Y-255133094D01*
X56320553Y-255140121D01*
X56416515Y-255187132D01*
X56636452Y-255259654D01*
X56869726Y-255254516D01*
X57093245Y-255175766D01*
X57199687Y-255113558D01*
X57280878Y-255046204D01*
X57340192Y-254961928D01*
X57381004Y-254848957D01*
X57406688Y-254695515D01*
X57420619Y-254489827D01*
X57426171Y-254220118D01*
X57426885Y-254011551D01*
X57426885Y-253230164D01*
X57010492Y-253230164D01*
X57010492Y-253878311D01*
G36*
X58277479Y-253254805D02*
G01*
X58066864Y-253369505D01*
X57902085Y-253550574D01*
X57824446Y-253697838D01*
X57791114Y-253827907D01*
X57769517Y-254013333D01*
X57760261Y-254226939D01*
X57763955Y-254441550D01*
X57781206Y-254629991D01*
X57801357Y-254730637D01*
X57869333Y-254868323D01*
X57987058Y-255014566D01*
X58128935Y-255142452D01*
X58269368Y-255225063D01*
X58272793Y-255226373D01*
X58447055Y-255262472D01*
X58653573Y-255263365D01*
X58849826Y-255230501D01*
X58925604Y-255204161D01*
X59120779Y-255093484D01*
X59260562Y-254948478D01*
X59352401Y-254756503D01*
X59403746Y-254504920D01*
X59415363Y-254373142D01*
X59413881Y-254207553D01*
X58967541Y-254207553D01*
X58952506Y-254449177D01*
X58909228Y-254633303D01*
X58840449Y-254750949D01*
X58791450Y-254784590D01*
X58665907Y-254808050D01*
X58516682Y-254801104D01*
X58387667Y-254767345D01*
X58353834Y-254748772D01*
X58264572Y-254640599D01*
X58205655Y-254475051D01*
X58180576Y-254273581D01*
X58192826Y-254057646D01*
X58220204Y-253927690D01*
X58298809Y-253777191D01*
X58422896Y-253683114D01*
X58572339Y-253650587D01*
X58727013Y-253684738D01*
X58845826Y-253768273D01*
X58908265Y-253837193D01*
X58944707Y-253905126D01*
X58962077Y-253997064D01*
X58967301Y-254137999D01*
X58967541Y-254207553D01*
X59413881Y-254207553D01*
X59412215Y-254021495D01*
X59354944Y-253733134D01*
X59243543Y-253508049D01*
X59078007Y-253346230D01*
X58858330Y-253247666D01*
X58811158Y-253236236D01*
X58527664Y-253209406D01*
X58277479Y-253254805D01*
G37*
X58277479Y-253254805D02*
X58066864Y-253369505D01*
X57902085Y-253550574D01*
X57824446Y-253697838D01*
X57791114Y-253827907D01*
X57769517Y-254013333D01*
X57760261Y-254226939D01*
X57763955Y-254441550D01*
X57781206Y-254629991D01*
X57801357Y-254730637D01*
X57869333Y-254868323D01*
X57987058Y-255014566D01*
X58128935Y-255142452D01*
X58269368Y-255225063D01*
X58272793Y-255226373D01*
X58447055Y-255262472D01*
X58653573Y-255263365D01*
X58849826Y-255230501D01*
X58925604Y-255204161D01*
X59120779Y-255093484D01*
X59260562Y-254948478D01*
X59352401Y-254756503D01*
X59403746Y-254504920D01*
X59415363Y-254373142D01*
X59413881Y-254207553D01*
X58967541Y-254207553D01*
X58952506Y-254449177D01*
X58909228Y-254633303D01*
X58840449Y-254750949D01*
X58791450Y-254784590D01*
X58665907Y-254808050D01*
X58516682Y-254801104D01*
X58387667Y-254767345D01*
X58353834Y-254748772D01*
X58264572Y-254640599D01*
X58205655Y-254475051D01*
X58180576Y-254273581D01*
X58192826Y-254057646D01*
X58220204Y-253927690D01*
X58298809Y-253777191D01*
X58422896Y-253683114D01*
X58572339Y-253650587D01*
X58727013Y-253684738D01*
X58845826Y-253768273D01*
X58908265Y-253837193D01*
X58944707Y-253905126D01*
X58962077Y-253997064D01*
X58967301Y-254137999D01*
X58967541Y-254207553D01*
X59413881Y-254207553D01*
X59412215Y-254021495D01*
X59354944Y-253733134D01*
X59243543Y-253508049D01*
X59078007Y-253346230D01*
X58858330Y-253247666D01*
X58811158Y-253236236D01*
X58527664Y-253209406D01*
X58277479Y-253254805D01*
G36*
X60253582Y-253223003D02*
G01*
X60095900Y-253252907D01*
X59932315Y-253315452D01*
X59914836Y-253323426D01*
X59790783Y-253388656D01*
X59704871Y-253449274D01*
X59677102Y-253488106D01*
X59703547Y-253551437D01*
X59767780Y-253644881D01*
X59796292Y-253679762D01*
X59913789Y-253817066D01*
X60065268Y-253727691D01*
X60209430Y-253668152D01*
X60376000Y-253636326D01*
X60535738Y-253634316D01*
X60659406Y-253664221D01*
X60689084Y-253682886D01*
X60745602Y-253768466D01*
X60752471Y-253867049D01*
X60710180Y-253944062D01*
X60685164Y-253958998D01*
X60610204Y-253977547D01*
X60478439Y-253999348D01*
X60316009Y-254020180D01*
X60286044Y-254023447D01*
X60025160Y-254068575D01*
X59835945Y-254145230D01*
X59710457Y-254260491D01*
X59640757Y-254421435D01*
X59619044Y-254618015D01*
X59649039Y-254841473D01*
X59746441Y-255016949D01*
X59911639Y-255144758D01*
X60145023Y-255225218D01*
X60404098Y-255256962D01*
X60615367Y-255256580D01*
X60786735Y-255227749D01*
X60903770Y-255187944D01*
X61051650Y-255118587D01*
X61188313Y-255038097D01*
X61236885Y-255002670D01*
X61361803Y-254900705D01*
X61060491Y-254595813D01*
X60889204Y-254709165D01*
X60717406Y-254794300D01*
X60533952Y-254838830D01*
X60357603Y-254843528D01*
X60207119Y-254809170D01*
X60101260Y-254736529D01*
X60067079Y-254675238D01*
X60072206Y-254576941D01*
X60157143Y-254501773D01*
X60321657Y-254449866D01*
X60501899Y-254425875D01*
X60779291Y-254380104D01*
X60985365Y-254293748D01*
X61122878Y-254164280D01*
X61194587Y-253989172D01*
X61204521Y-253781565D01*
X61155452Y-253564714D01*
X61043580Y-253400805D01*
X60867903Y-253289088D01*
X60627419Y-253228814D01*
X60449257Y-253216999D01*
X60253582Y-253223003D01*
G37*
X60253582Y-253223003D02*
X60095900Y-253252907D01*
X59932315Y-253315452D01*
X59914836Y-253323426D01*
X59790783Y-253388656D01*
X59704871Y-253449274D01*
X59677102Y-253488106D01*
X59703547Y-253551437D01*
X59767780Y-253644881D01*
X59796292Y-253679762D01*
X59913789Y-253817066D01*
X60065268Y-253727691D01*
X60209430Y-253668152D01*
X60376000Y-253636326D01*
X60535738Y-253634316D01*
X60659406Y-253664221D01*
X60689084Y-253682886D01*
X60745602Y-253768466D01*
X60752471Y-253867049D01*
X60710180Y-253944062D01*
X60685164Y-253958998D01*
X60610204Y-253977547D01*
X60478439Y-253999348D01*
X60316009Y-254020180D01*
X60286044Y-254023447D01*
X60025160Y-254068575D01*
X59835945Y-254145230D01*
X59710457Y-254260491D01*
X59640757Y-254421435D01*
X59619044Y-254618015D01*
X59649039Y-254841473D01*
X59746441Y-255016949D01*
X59911639Y-255144758D01*
X60145023Y-255225218D01*
X60404098Y-255256962D01*
X60615367Y-255256580D01*
X60786735Y-255227749D01*
X60903770Y-255187944D01*
X61051650Y-255118587D01*
X61188313Y-255038097D01*
X61236885Y-255002670D01*
X61361803Y-254900705D01*
X61060491Y-254595813D01*
X60889204Y-254709165D01*
X60717406Y-254794300D01*
X60533952Y-254838830D01*
X60357603Y-254843528D01*
X60207119Y-254809170D01*
X60101260Y-254736529D01*
X60067079Y-254675238D01*
X60072206Y-254576941D01*
X60157143Y-254501773D01*
X60321657Y-254449866D01*
X60501899Y-254425875D01*
X60779291Y-254380104D01*
X60985365Y-254293748D01*
X61122878Y-254164280D01*
X61194587Y-253989172D01*
X61204521Y-253781565D01*
X61155452Y-253564714D01*
X61043580Y-253400805D01*
X60867903Y-253289088D01*
X60627419Y-253228814D01*
X60449257Y-253216999D01*
X60253582Y-253223003D01*
G36*
X64792675Y-253276526D02*
G01*
X64751181Y-253296061D01*
X64607566Y-253401263D01*
X64471764Y-253554793D01*
X64370362Y-253723845D01*
X64341520Y-253801567D01*
X64315206Y-253940398D01*
X64299515Y-254108177D01*
X64297609Y-254177459D01*
X64297377Y-254396066D01*
X65555585Y-254396066D01*
X65528766Y-254510574D01*
X65462934Y-254646004D01*
X65347839Y-254763046D01*
X65210913Y-254838442D01*
X65123658Y-254854098D01*
X65005328Y-254835099D01*
X64864149Y-254787446D01*
X64816189Y-254765521D01*
X64638829Y-254676944D01*
X64487470Y-254792391D01*
X64400131Y-254870474D01*
X64353658Y-254934922D01*
X64351305Y-254953837D01*
X64392822Y-254999681D01*
X64483810Y-255069349D01*
X64566395Y-255123700D01*
X64789249Y-255221405D01*
X65039087Y-255265628D01*
X65286710Y-255254130D01*
X65484098Y-255194029D01*
X65687576Y-255065284D01*
X65832179Y-254895774D01*
X65922639Y-254676462D01*
X65963689Y-254398309D01*
X65967329Y-254271034D01*
X65952761Y-253979375D01*
X65950972Y-253970891D01*
X65534059Y-253970891D01*
X65522577Y-253998242D01*
X65475384Y-254013324D01*
X65378049Y-254019788D01*
X65216136Y-254021285D01*
X65153790Y-254021312D01*
X64964103Y-254019052D01*
X64843811Y-254010844D01*
X64779116Y-253994550D01*
X64756220Y-253968027D01*
X64755410Y-253959510D01*
X64781540Y-253891825D01*
X64846937Y-253797005D01*
X64875052Y-253763805D01*
X64979426Y-253669906D01*
X65088225Y-253632988D01*
X65146843Y-253629902D01*
X65305426Y-253668493D01*
X65438413Y-253772155D01*
X65522772Y-253922717D01*
X65524267Y-253927623D01*
X65534059Y-253970891D01*
X65950972Y-253970891D01*
X65904316Y-253749722D01*
X65817045Y-253565983D01*
X65710311Y-253435557D01*
X65512980Y-253294131D01*
X65281015Y-253218556D01*
X65034288Y-253211724D01*
X64792675Y-253276526D01*
G37*
X64792675Y-253276526D02*
X64751181Y-253296061D01*
X64607566Y-253401263D01*
X64471764Y-253554793D01*
X64370362Y-253723845D01*
X64341520Y-253801567D01*
X64315206Y-253940398D01*
X64299515Y-254108177D01*
X64297609Y-254177459D01*
X64297377Y-254396066D01*
X65555585Y-254396066D01*
X65528766Y-254510574D01*
X65462934Y-254646004D01*
X65347839Y-254763046D01*
X65210913Y-254838442D01*
X65123658Y-254854098D01*
X65005328Y-254835099D01*
X64864149Y-254787446D01*
X64816189Y-254765521D01*
X64638829Y-254676944D01*
X64487470Y-254792391D01*
X64400131Y-254870474D01*
X64353658Y-254934922D01*
X64351305Y-254953837D01*
X64392822Y-254999681D01*
X64483810Y-255069349D01*
X64566395Y-255123700D01*
X64789249Y-255221405D01*
X65039087Y-255265628D01*
X65286710Y-255254130D01*
X65484098Y-255194029D01*
X65687576Y-255065284D01*
X65832179Y-254895774D01*
X65922639Y-254676462D01*
X65963689Y-254398309D01*
X65967329Y-254271034D01*
X65952761Y-253979375D01*
X65950972Y-253970891D01*
X65534059Y-253970891D01*
X65522577Y-253998242D01*
X65475384Y-254013324D01*
X65378049Y-254019788D01*
X65216136Y-254021285D01*
X65153790Y-254021312D01*
X64964103Y-254019052D01*
X64843811Y-254010844D01*
X64779116Y-253994550D01*
X64756220Y-253968027D01*
X64755410Y-253959510D01*
X64781540Y-253891825D01*
X64846937Y-253797005D01*
X64875052Y-253763805D01*
X64979426Y-253669906D01*
X65088225Y-253632988D01*
X65146843Y-253629902D01*
X65305426Y-253668493D01*
X65438413Y-253772155D01*
X65522772Y-253922717D01*
X65524267Y-253927623D01*
X65534059Y-253970891D01*
X65950972Y-253970891D01*
X65904316Y-253749722D01*
X65817045Y-253565983D01*
X65710311Y-253435557D01*
X65512980Y-253294131D01*
X65281015Y-253218556D01*
X65034288Y-253211724D01*
X64792675Y-253276526D01*
G36*
X68705390Y-253251802D02*
G01*
X68487553Y-253348108D01*
X68322184Y-253508919D01*
X68209043Y-253734482D01*
X68147888Y-254025042D01*
X68143505Y-254070408D01*
X68140070Y-254390256D01*
X68184602Y-254670614D01*
X68274391Y-254897847D01*
X68322471Y-254970941D01*
X68489945Y-255125643D01*
X68703232Y-255225838D01*
X68941846Y-255267418D01*
X69185303Y-255246272D01*
X69370370Y-255181145D01*
X69529521Y-255071393D01*
X69659596Y-254927496D01*
X69661846Y-254924130D01*
X69714670Y-254835314D01*
X69748999Y-254746005D01*
X69769788Y-254633294D01*
X69781991Y-254474273D01*
X69787367Y-254343868D01*
X69789605Y-254225611D01*
X69373294Y-254225611D01*
X69369225Y-254343335D01*
X69354455Y-254500049D01*
X69328398Y-254600621D01*
X69281407Y-254672173D01*
X69237397Y-254713971D01*
X69081377Y-254801484D01*
X68918131Y-254813179D01*
X68766096Y-254750212D01*
X68690080Y-254679653D01*
X68635303Y-254608550D01*
X68603263Y-254540512D01*
X68589200Y-254451967D01*
X68588358Y-254319339D01*
X68592691Y-254197195D01*
X68602011Y-254022710D01*
X68616788Y-253909538D01*
X68643420Y-253835721D01*
X68688309Y-253779298D01*
X68723880Y-253747050D01*
X68872671Y-253662340D01*
X69033187Y-253658117D01*
X69167780Y-253708292D01*
X69282600Y-253813075D01*
X69351004Y-253985198D01*
X69373294Y-254225611D01*
X69789605Y-254225611D01*
X69792276Y-254084548D01*
X69783893Y-253890610D01*
X69758772Y-253744745D01*
X69713468Y-253629641D01*
X69644536Y-253527986D01*
X69618978Y-253497802D01*
X69459175Y-253347412D01*
X69287769Y-253259566D01*
X69078151Y-253222762D01*
X68975936Y-253219754D01*
X68705390Y-253251802D01*
G37*
X68705390Y-253251802D02*
X68487553Y-253348108D01*
X68322184Y-253508919D01*
X68209043Y-253734482D01*
X68147888Y-254025042D01*
X68143505Y-254070408D01*
X68140070Y-254390256D01*
X68184602Y-254670614D01*
X68274391Y-254897847D01*
X68322471Y-254970941D01*
X68489945Y-255125643D01*
X68703232Y-255225838D01*
X68941846Y-255267418D01*
X69185303Y-255246272D01*
X69370370Y-255181145D01*
X69529521Y-255071393D01*
X69659596Y-254927496D01*
X69661846Y-254924130D01*
X69714670Y-254835314D01*
X69748999Y-254746005D01*
X69769788Y-254633294D01*
X69781991Y-254474273D01*
X69787367Y-254343868D01*
X69789605Y-254225611D01*
X69373294Y-254225611D01*
X69369225Y-254343335D01*
X69354455Y-254500049D01*
X69328398Y-254600621D01*
X69281407Y-254672173D01*
X69237397Y-254713971D01*
X69081377Y-254801484D01*
X68918131Y-254813179D01*
X68766096Y-254750212D01*
X68690080Y-254679653D01*
X68635303Y-254608550D01*
X68603263Y-254540512D01*
X68589200Y-254451967D01*
X68588358Y-254319339D01*
X68592691Y-254197195D01*
X68602011Y-254022710D01*
X68616788Y-253909538D01*
X68643420Y-253835721D01*
X68688309Y-253779298D01*
X68723880Y-253747050D01*
X68872671Y-253662340D01*
X69033187Y-253658117D01*
X69167780Y-253708292D01*
X69282600Y-253813075D01*
X69351004Y-253985198D01*
X69373294Y-254225611D01*
X69789605Y-254225611D01*
X69792276Y-254084548D01*
X69783893Y-253890610D01*
X69758772Y-253744745D01*
X69713468Y-253629641D01*
X69644536Y-253527986D01*
X69618978Y-253497802D01*
X69459175Y-253347412D01*
X69287769Y-253259566D01*
X69078151Y-253222762D01*
X68975936Y-253219754D01*
X68705390Y-253251802D01*
G36*
X53569158Y-256363999D02*
G01*
X53370124Y-256415746D01*
X53203439Y-256522544D01*
X53122731Y-256602326D01*
X52990432Y-256790931D01*
X52914610Y-257009720D01*
X52888562Y-257278668D01*
X52888429Y-257300410D01*
X52888197Y-257519017D01*
X54146405Y-257519017D01*
X54119585Y-257633525D01*
X54071159Y-257737232D01*
X53986404Y-257845290D01*
X53968677Y-257862541D01*
X53816320Y-257955904D01*
X53642576Y-257971738D01*
X53442589Y-257910313D01*
X53408689Y-257893771D01*
X53304712Y-257843484D01*
X53235069Y-257814834D01*
X53222917Y-257812184D01*
X53180499Y-257837913D01*
X53099601Y-257900861D01*
X53058535Y-257935259D01*
X52973440Y-258014276D01*
X52945497Y-258066451D01*
X52964890Y-258114446D01*
X52975257Y-258127570D01*
X53045469Y-258185008D01*
X53161326Y-258254813D01*
X53242131Y-258295564D01*
X53471499Y-258367362D01*
X53725436Y-258390625D01*
X53965926Y-258363059D01*
X54033279Y-258343321D01*
X54241738Y-258231612D01*
X54396254Y-258059721D01*
X54497722Y-257825979D01*
X54547035Y-257528716D01*
X54552449Y-257373279D01*
X54536641Y-257146973D01*
X54137377Y-257146973D01*
X54098760Y-257163702D01*
X53994958Y-257176829D01*
X53844044Y-257184575D01*
X53741803Y-257185902D01*
X53557899Y-257184623D01*
X53441826Y-257178638D01*
X53378148Y-257164724D01*
X53351433Y-257139655D01*
X53346230Y-257103280D01*
X53381927Y-256991229D01*
X53471804Y-256880488D01*
X53590034Y-256795489D01*
X53708310Y-256760718D01*
X53868956Y-256791563D01*
X54008022Y-256880732D01*
X54104443Y-257009263D01*
X54137377Y-257146973D01*
X54536641Y-257146973D01*
X54529428Y-257043733D01*
X54458376Y-256781175D01*
X54337790Y-256583525D01*
X54166166Y-256448702D01*
X53942002Y-256374626D01*
X53820562Y-256360360D01*
X53569158Y-256363999D01*
G37*
X53569158Y-256363999D02*
X53370124Y-256415746D01*
X53203439Y-256522544D01*
X53122731Y-256602326D01*
X52990432Y-256790931D01*
X52914610Y-257009720D01*
X52888562Y-257278668D01*
X52888429Y-257300410D01*
X52888197Y-257519017D01*
X54146405Y-257519017D01*
X54119585Y-257633525D01*
X54071159Y-257737232D01*
X53986404Y-257845290D01*
X53968677Y-257862541D01*
X53816320Y-257955904D01*
X53642576Y-257971738D01*
X53442589Y-257910313D01*
X53408689Y-257893771D01*
X53304712Y-257843484D01*
X53235069Y-257814834D01*
X53222917Y-257812184D01*
X53180499Y-257837913D01*
X53099601Y-257900861D01*
X53058535Y-257935259D01*
X52973440Y-258014276D01*
X52945497Y-258066451D01*
X52964890Y-258114446D01*
X52975257Y-258127570D01*
X53045469Y-258185008D01*
X53161326Y-258254813D01*
X53242131Y-258295564D01*
X53471499Y-258367362D01*
X53725436Y-258390625D01*
X53965926Y-258363059D01*
X54033279Y-258343321D01*
X54241738Y-258231612D01*
X54396254Y-258059721D01*
X54497722Y-257825979D01*
X54547035Y-257528716D01*
X54552449Y-257373279D01*
X54536641Y-257146973D01*
X54137377Y-257146973D01*
X54098760Y-257163702D01*
X53994958Y-257176829D01*
X53844044Y-257184575D01*
X53741803Y-257185902D01*
X53557899Y-257184623D01*
X53441826Y-257178638D01*
X53378148Y-257164724D01*
X53351433Y-257139655D01*
X53346230Y-257103280D01*
X53381927Y-256991229D01*
X53471804Y-256880488D01*
X53590034Y-256795489D01*
X53708310Y-256760718D01*
X53868956Y-256791563D01*
X54008022Y-256880732D01*
X54104443Y-257009263D01*
X54137377Y-257146973D01*
X54536641Y-257146973D01*
X54529428Y-257043733D01*
X54458376Y-256781175D01*
X54337790Y-256583525D01*
X54166166Y-256448702D01*
X53942002Y-256374626D01*
X53820562Y-256360360D01*
X53569158Y-256363999D01*
G36*
X54884893Y-256352460D02*
G01*
X54724818Y-256384017D01*
X54633688Y-256430743D01*
X54537821Y-256508370D01*
X54674213Y-256680579D01*
X54758306Y-256784867D01*
X54815408Y-256835746D01*
X54872156Y-256843519D01*
X54955189Y-256818488D01*
X54994167Y-256804327D01*
X55153074Y-256783433D01*
X55298601Y-256828220D01*
X55405440Y-256929399D01*
X55422795Y-256961659D01*
X55441697Y-257047115D01*
X55456284Y-257204606D01*
X55465874Y-257422969D01*
X55469781Y-257691038D01*
X55469836Y-257729172D01*
X55469836Y-258393443D01*
X55927869Y-258393443D01*
X55927869Y-256353115D01*
X55698852Y-256353115D01*
X55566801Y-256356563D01*
X55498008Y-256371907D01*
X55472570Y-256406648D01*
X55469836Y-256439416D01*
X55469836Y-256525717D01*
X55360122Y-256439416D01*
X55234320Y-256380538D01*
X55065319Y-256351426D01*
X54884893Y-256352460D01*
G37*
X54884893Y-256352460D02*
X54724818Y-256384017D01*
X54633688Y-256430743D01*
X54537821Y-256508370D01*
X54674213Y-256680579D01*
X54758306Y-256784867D01*
X54815408Y-256835746D01*
X54872156Y-256843519D01*
X54955189Y-256818488D01*
X54994167Y-256804327D01*
X55153074Y-256783433D01*
X55298601Y-256828220D01*
X55405440Y-256929399D01*
X55422795Y-256961659D01*
X55441697Y-257047115D01*
X55456284Y-257204606D01*
X55465874Y-257422969D01*
X55469781Y-257691038D01*
X55469836Y-257729172D01*
X55469836Y-258393443D01*
X55927869Y-258393443D01*
X55927869Y-256353115D01*
X55698852Y-256353115D01*
X55566801Y-256356563D01*
X55498008Y-256371907D01*
X55472570Y-256406648D01*
X55469836Y-256439416D01*
X55469836Y-256525717D01*
X55360122Y-256439416D01*
X55234320Y-256380538D01*
X55065319Y-256351426D01*
X54884893Y-256352460D01*
G36*
X56861330Y-256365480D02*
G01*
X56685821Y-256408109D01*
X56635088Y-256430693D01*
X56536746Y-256489847D01*
X56461273Y-256556472D01*
X56405429Y-256642135D01*
X56365974Y-256758405D01*
X56339668Y-256916848D01*
X56323271Y-257129034D01*
X56313543Y-257406529D01*
X56309849Y-257591885D01*
X56296255Y-258393443D01*
X56528456Y-258393443D01*
X56669323Y-258387536D01*
X56741898Y-258367350D01*
X56760656Y-258333453D01*
X56770559Y-258296799D01*
X56814834Y-258303807D01*
X56875164Y-258333197D01*
X57026197Y-258378246D01*
X57220307Y-258390385D01*
X57424469Y-258370529D01*
X57605660Y-258319592D01*
X57621911Y-258312522D01*
X57787509Y-258196188D01*
X57896676Y-258034467D01*
X57946909Y-257845430D01*
X57943072Y-257777515D01*
X57533237Y-257777515D01*
X57497125Y-257868914D01*
X57390058Y-257934411D01*
X57217316Y-257969563D01*
X57125000Y-257974231D01*
X56971150Y-257962282D01*
X56868885Y-257915844D01*
X56843934Y-257893771D01*
X56776339Y-257773681D01*
X56760656Y-257664754D01*
X56760656Y-257519017D01*
X56963648Y-257519017D01*
X57199613Y-257531043D01*
X57365119Y-257568871D01*
X57469695Y-257635121D01*
X57493109Y-257664656D01*
X57533237Y-257777515D01*
X57943072Y-257777515D01*
X57935705Y-257647148D01*
X57860560Y-257457692D01*
X57758032Y-257329656D01*
X57695935Y-257274302D01*
X57635145Y-257237924D01*
X57556048Y-257215744D01*
X57439029Y-257202982D01*
X57264473Y-257194857D01*
X57195237Y-257192521D01*
X56760656Y-257178321D01*
X56761293Y-257046784D01*
X56778124Y-256908519D01*
X56838974Y-256824917D01*
X56961905Y-256771507D01*
X56965203Y-256770555D01*
X57139496Y-256749555D01*
X57310048Y-256776985D01*
X57436800Y-256843689D01*
X57487658Y-256876625D01*
X57542435Y-256872068D01*
X57626728Y-256824349D01*
X57676227Y-256790671D01*
X57773045Y-256718716D01*
X57833018Y-256664779D01*
X57842641Y-256649337D01*
X57803015Y-256569424D01*
X57685936Y-256473989D01*
X57635082Y-256441789D01*
X57488887Y-256386332D01*
X57291863Y-256354913D01*
X57073011Y-256347855D01*
X56861330Y-256365480D01*
G37*
X56861330Y-256365480D02*
X56685821Y-256408109D01*
X56635088Y-256430693D01*
X56536746Y-256489847D01*
X56461273Y-256556472D01*
X56405429Y-256642135D01*
X56365974Y-256758405D01*
X56339668Y-256916848D01*
X56323271Y-257129034D01*
X56313543Y-257406529D01*
X56309849Y-257591885D01*
X56296255Y-258393443D01*
X56528456Y-258393443D01*
X56669323Y-258387536D01*
X56741898Y-258367350D01*
X56760656Y-258333453D01*
X56770559Y-258296799D01*
X56814834Y-258303807D01*
X56875164Y-258333197D01*
X57026197Y-258378246D01*
X57220307Y-258390385D01*
X57424469Y-258370529D01*
X57605660Y-258319592D01*
X57621911Y-258312522D01*
X57787509Y-258196188D01*
X57896676Y-258034467D01*
X57946909Y-257845430D01*
X57943072Y-257777515D01*
X57533237Y-257777515D01*
X57497125Y-257868914D01*
X57390058Y-257934411D01*
X57217316Y-257969563D01*
X57125000Y-257974231D01*
X56971150Y-257962282D01*
X56868885Y-257915844D01*
X56843934Y-257893771D01*
X56776339Y-257773681D01*
X56760656Y-257664754D01*
X56760656Y-257519017D01*
X56963648Y-257519017D01*
X57199613Y-257531043D01*
X57365119Y-257568871D01*
X57469695Y-257635121D01*
X57493109Y-257664656D01*
X57533237Y-257777515D01*
X57943072Y-257777515D01*
X57935705Y-257647148D01*
X57860560Y-257457692D01*
X57758032Y-257329656D01*
X57695935Y-257274302D01*
X57635145Y-257237924D01*
X57556048Y-257215744D01*
X57439029Y-257202982D01*
X57264473Y-257194857D01*
X57195237Y-257192521D01*
X56760656Y-257178321D01*
X56761293Y-257046784D01*
X56778124Y-256908519D01*
X56838974Y-256824917D01*
X56961905Y-256771507D01*
X56965203Y-256770555D01*
X57139496Y-256749555D01*
X57310048Y-256776985D01*
X57436800Y-256843689D01*
X57487658Y-256876625D01*
X57542435Y-256872068D01*
X57626728Y-256824349D01*
X57676227Y-256790671D01*
X57773045Y-256718716D01*
X57833018Y-256664779D01*
X57842641Y-256649337D01*
X57803015Y-256569424D01*
X57685936Y-256473989D01*
X57635082Y-256441789D01*
X57488887Y-256386332D01*
X57291863Y-256354913D01*
X57073011Y-256347855D01*
X56861330Y-256365480D01*
G36*
X59203058Y-256373935D02*
G01*
X58987752Y-257019344D01*
X58772445Y-257664754D01*
X58704936Y-257435738D01*
X58664309Y-257294204D01*
X58610867Y-257102936D01*
X58553158Y-256892693D01*
X58522645Y-256779918D01*
X58407864Y-256353115D01*
X57934313Y-256353115D01*
X58075861Y-256800738D01*
X58145567Y-257020903D01*
X58229777Y-257286471D01*
X58317719Y-257563492D01*
X58396228Y-257810492D01*
X58575048Y-258372623D01*
X58768118Y-258385185D01*
X58961189Y-258397746D01*
X59065882Y-258052070D01*
X59130447Y-257837335D01*
X59200908Y-257600604D01*
X59262489Y-257391526D01*
X59264919Y-257383205D01*
X59310915Y-257241537D01*
X59351497Y-257144874D01*
X59379920Y-257108321D01*
X59385761Y-257112549D01*
X59406262Y-257169217D01*
X59445215Y-257290605D01*
X59497878Y-257461448D01*
X59559509Y-257666482D01*
X59592857Y-257779262D01*
X59773454Y-258393443D01*
X60156733Y-258393443D01*
X60463133Y-257425328D01*
X60549209Y-257153759D01*
X60627620Y-256907138D01*
X60694661Y-256697048D01*
X60746631Y-256535076D01*
X60779826Y-256432808D01*
X60789916Y-256402928D01*
X60781928Y-256372334D01*
X60719208Y-256358935D01*
X60588685Y-256360275D01*
X60568253Y-256361288D01*
X60326208Y-256373935D01*
X60167683Y-256956885D01*
X60109415Y-257169486D01*
X60057345Y-257356377D01*
X60016056Y-257501331D01*
X59990134Y-257588120D01*
X59985344Y-257602269D01*
X59965496Y-257585998D01*
X59925470Y-257501697D01*
X59869862Y-257360842D01*
X59803269Y-257174911D01*
X59746976Y-257006956D01*
X59532422Y-256349209D01*
X59203058Y-256373935D01*
G37*
X59203058Y-256373935D02*
X58987752Y-257019344D01*
X58772445Y-257664754D01*
X58704936Y-257435738D01*
X58664309Y-257294204D01*
X58610867Y-257102936D01*
X58553158Y-256892693D01*
X58522645Y-256779918D01*
X58407864Y-256353115D01*
X57934313Y-256353115D01*
X58075861Y-256800738D01*
X58145567Y-257020903D01*
X58229777Y-257286471D01*
X58317719Y-257563492D01*
X58396228Y-257810492D01*
X58575048Y-258372623D01*
X58768118Y-258385185D01*
X58961189Y-258397746D01*
X59065882Y-258052070D01*
X59130447Y-257837335D01*
X59200908Y-257600604D01*
X59262489Y-257391526D01*
X59264919Y-257383205D01*
X59310915Y-257241537D01*
X59351497Y-257144874D01*
X59379920Y-257108321D01*
X59385761Y-257112549D01*
X59406262Y-257169217D01*
X59445215Y-257290605D01*
X59497878Y-257461448D01*
X59559509Y-257666482D01*
X59592857Y-257779262D01*
X59773454Y-258393443D01*
X60156733Y-258393443D01*
X60463133Y-257425328D01*
X60549209Y-257153759D01*
X60627620Y-256907138D01*
X60694661Y-256697048D01*
X60746631Y-256535076D01*
X60779826Y-256432808D01*
X60789916Y-256402928D01*
X60781928Y-256372334D01*
X60719208Y-256358935D01*
X60588685Y-256360275D01*
X60568253Y-256361288D01*
X60326208Y-256373935D01*
X60167683Y-256956885D01*
X60109415Y-257169486D01*
X60057345Y-257356377D01*
X60016056Y-257501331D01*
X59990134Y-257588120D01*
X59985344Y-257602269D01*
X59965496Y-257585998D01*
X59925470Y-257501697D01*
X59869862Y-257360842D01*
X59803269Y-257174911D01*
X59746976Y-257006956D01*
X59532422Y-256349209D01*
X59203058Y-256373935D01*
G36*
X60966230Y-258393443D02*
G01*
X61195246Y-258393443D01*
X61328175Y-258389546D01*
X61397405Y-258373407D01*
X61422332Y-258338354D01*
X61424262Y-258314653D01*
X61428466Y-258267123D01*
X61454974Y-258258008D01*
X61524633Y-258287308D01*
X61578804Y-258314653D01*
X61786777Y-258379451D01*
X62012853Y-258383201D01*
X62196655Y-258334873D01*
X62367813Y-258218118D01*
X62498284Y-258045781D01*
X62569727Y-257842506D01*
X62571546Y-257831141D01*
X62582161Y-257707136D01*
X62587440Y-257529117D01*
X62587016Y-257394480D01*
X62132172Y-257394480D01*
X62121635Y-257573428D01*
X62097666Y-257720924D01*
X62065217Y-257804217D01*
X61942456Y-257918041D01*
X61796701Y-257958845D01*
X61646393Y-257925848D01*
X61517951Y-257827422D01*
X61469308Y-257761224D01*
X61440866Y-257682231D01*
X61427544Y-257566926D01*
X61424262Y-257393736D01*
X61430135Y-257222229D01*
X61445647Y-257071540D01*
X61467638Y-256970698D01*
X61471303Y-256961659D01*
X61559988Y-256854195D01*
X61689428Y-256795195D01*
X61834257Y-256785669D01*
X61969109Y-256826626D01*
X62068617Y-256919076D01*
X62078940Y-256937473D01*
X62111250Y-257049646D01*
X62128852Y-257210934D01*
X62132172Y-257394480D01*
X62587016Y-257394480D01*
X62586800Y-257326212D01*
X62583806Y-257217010D01*
X62563442Y-256946856D01*
X62521117Y-256744024D01*
X62450706Y-256594077D01*
X62346088Y-256482579D01*
X62244521Y-256417127D01*
X62102616Y-256371117D01*
X61926121Y-256355336D01*
X61745393Y-256368190D01*
X61590787Y-256408081D01*
X61509101Y-256455801D01*
X61424262Y-256532579D01*
X61424262Y-255561967D01*
X60966230Y-255561967D01*
X60966230Y-258393443D01*
G37*
X60966230Y-258393443D02*
X61195246Y-258393443D01*
X61328175Y-258389546D01*
X61397405Y-258373407D01*
X61422332Y-258338354D01*
X61424262Y-258314653D01*
X61428466Y-258267123D01*
X61454974Y-258258008D01*
X61524633Y-258287308D01*
X61578804Y-258314653D01*
X61786777Y-258379451D01*
X62012853Y-258383201D01*
X62196655Y-258334873D01*
X62367813Y-258218118D01*
X62498284Y-258045781D01*
X62569727Y-257842506D01*
X62571546Y-257831141D01*
X62582161Y-257707136D01*
X62587440Y-257529117D01*
X62587016Y-257394480D01*
X62132172Y-257394480D01*
X62121635Y-257573428D01*
X62097666Y-257720924D01*
X62065217Y-257804217D01*
X61942456Y-257918041D01*
X61796701Y-257958845D01*
X61646393Y-257925848D01*
X61517951Y-257827422D01*
X61469308Y-257761224D01*
X61440866Y-257682231D01*
X61427544Y-257566926D01*
X61424262Y-257393736D01*
X61430135Y-257222229D01*
X61445647Y-257071540D01*
X61467638Y-256970698D01*
X61471303Y-256961659D01*
X61559988Y-256854195D01*
X61689428Y-256795195D01*
X61834257Y-256785669D01*
X61969109Y-256826626D01*
X62068617Y-256919076D01*
X62078940Y-256937473D01*
X62111250Y-257049646D01*
X62128852Y-257210934D01*
X62132172Y-257394480D01*
X62587016Y-257394480D01*
X62586800Y-257326212D01*
X62583806Y-257217010D01*
X62563442Y-256946856D01*
X62521117Y-256744024D01*
X62450706Y-256594077D01*
X62346088Y-256482579D01*
X62244521Y-256417127D01*
X62102616Y-256371117D01*
X61926121Y-256355336D01*
X61745393Y-256368190D01*
X61590787Y-256408081D01*
X61509101Y-256455801D01*
X61424262Y-256532579D01*
X61424262Y-255561967D01*
X60966230Y-255561967D01*
X60966230Y-258393443D01*
G36*
X63589475Y-256357540D02*
G01*
X63527163Y-256376218D01*
X63507075Y-256417255D01*
X63506230Y-256435782D01*
X63502625Y-256487383D01*
X63477800Y-256495484D01*
X63410737Y-256460108D01*
X63370902Y-256435937D01*
X63245227Y-256384175D01*
X63095123Y-256358581D01*
X62937737Y-256356613D01*
X62790214Y-256375729D01*
X62669700Y-256413387D01*
X62593340Y-256467044D01*
X62578281Y-256534158D01*
X62585881Y-256552333D01*
X62641282Y-256627777D01*
X62727190Y-256720568D01*
X62742728Y-256735568D01*
X62824612Y-256804540D01*
X62895263Y-256826825D01*
X62994068Y-256811272D01*
X63033652Y-256800938D01*
X63156828Y-256776116D01*
X63243436Y-256787278D01*
X63316576Y-256826646D01*
X63383574Y-256879479D01*
X63432918Y-256945924D01*
X63467209Y-257038652D01*
X63489048Y-257170334D01*
X63501034Y-257353641D01*
X63505769Y-257601246D01*
X63506230Y-257750744D01*
X63506230Y-258393443D01*
X63922623Y-258393443D01*
X63922623Y-256353115D01*
X63714426Y-256353115D01*
X63589475Y-256357540D01*
G37*
X63589475Y-256357540D02*
X63527163Y-256376218D01*
X63507075Y-256417255D01*
X63506230Y-256435782D01*
X63502625Y-256487383D01*
X63477800Y-256495484D01*
X63410737Y-256460108D01*
X63370902Y-256435937D01*
X63245227Y-256384175D01*
X63095123Y-256358581D01*
X62937737Y-256356613D01*
X62790214Y-256375729D01*
X62669700Y-256413387D01*
X62593340Y-256467044D01*
X62578281Y-256534158D01*
X62585881Y-256552333D01*
X62641282Y-256627777D01*
X62727190Y-256720568D01*
X62742728Y-256735568D01*
X62824612Y-256804540D01*
X62895263Y-256826825D01*
X62994068Y-256811272D01*
X63033652Y-256800938D01*
X63156828Y-256776116D01*
X63243436Y-256787278D01*
X63316576Y-256826646D01*
X63383574Y-256879479D01*
X63432918Y-256945924D01*
X63467209Y-257038652D01*
X63489048Y-257170334D01*
X63501034Y-257353641D01*
X63505769Y-257601246D01*
X63506230Y-257750744D01*
X63506230Y-258393443D01*
X63922623Y-258393443D01*
X63922623Y-256353115D01*
X63714426Y-256353115D01*
X63589475Y-256357540D01*
G36*
X64883779Y-256369247D02*
G01*
X64687889Y-256421514D01*
X64538767Y-256516253D01*
X64433535Y-256640338D01*
X64400821Y-256693296D01*
X64376669Y-256748768D01*
X64359784Y-256819730D01*
X64348873Y-256919154D01*
X64342640Y-257060016D01*
X64339791Y-257255289D01*
X64339032Y-257517948D01*
X64339016Y-257587633D01*
X64339016Y-258393443D01*
X64538885Y-258393443D01*
X64666370Y-258384515D01*
X64760634Y-258361896D01*
X64784251Y-258347946D01*
X64848815Y-258323870D01*
X64914759Y-258347946D01*
X65023332Y-258378003D01*
X65181042Y-258390100D01*
X65355844Y-258384851D01*
X65515693Y-258362869D01*
X65609016Y-258334663D01*
X65789609Y-258218731D01*
X65902470Y-258057847D01*
X65953209Y-257843936D01*
X65953680Y-257838443D01*
X65949227Y-257743547D01*
X65546557Y-257743547D01*
X65511354Y-257851484D01*
X65454014Y-257912229D01*
X65338913Y-257958172D01*
X65186986Y-257976512D01*
X65032061Y-257967485D01*
X64907964Y-257931332D01*
X64873197Y-257908137D01*
X64812444Y-257800960D01*
X64797049Y-257679120D01*
X64797049Y-257519017D01*
X65027403Y-257519017D01*
X65246241Y-257535863D01*
X65412137Y-257583593D01*
X65515338Y-257657986D01*
X65546557Y-257743547D01*
X65949227Y-257743547D01*
X65942713Y-257604731D01*
X65865631Y-257419946D01*
X65720714Y-257280206D01*
X65700683Y-257267495D01*
X65614610Y-257226105D01*
X65508073Y-257201041D01*
X65359141Y-257188858D01*
X65182213Y-257186057D01*
X64797049Y-257185902D01*
X64797049Y-257024443D01*
X64813387Y-256899168D01*
X64855078Y-256815241D01*
X64859959Y-256810773D01*
X64952736Y-256774059D01*
X65092784Y-256759828D01*
X65247555Y-256766821D01*
X65384499Y-256793780D01*
X65465759Y-256834212D01*
X65509790Y-256866601D01*
X65556285Y-256872784D01*
X65620451Y-256846248D01*
X65717495Y-256780479D01*
X65862626Y-256668963D01*
X65875947Y-256658516D01*
X65869121Y-256619862D01*
X65812178Y-256555572D01*
X65725630Y-256484131D01*
X65629992Y-256424021D01*
X65599944Y-256409827D01*
X65490341Y-256381503D01*
X65329735Y-256361300D01*
X65150302Y-256353196D01*
X65141911Y-256353180D01*
X64883779Y-256369247D01*
G37*
X64883779Y-256369247D02*
X64687889Y-256421514D01*
X64538767Y-256516253D01*
X64433535Y-256640338D01*
X64400821Y-256693296D01*
X64376669Y-256748768D01*
X64359784Y-256819730D01*
X64348873Y-256919154D01*
X64342640Y-257060016D01*
X64339791Y-257255289D01*
X64339032Y-257517948D01*
X64339016Y-257587633D01*
X64339016Y-258393443D01*
X64538885Y-258393443D01*
X64666370Y-258384515D01*
X64760634Y-258361896D01*
X64784251Y-258347946D01*
X64848815Y-258323870D01*
X64914759Y-258347946D01*
X65023332Y-258378003D01*
X65181042Y-258390100D01*
X65355844Y-258384851D01*
X65515693Y-258362869D01*
X65609016Y-258334663D01*
X65789609Y-258218731D01*
X65902470Y-258057847D01*
X65953209Y-257843936D01*
X65953680Y-257838443D01*
X65949227Y-257743547D01*
X65546557Y-257743547D01*
X65511354Y-257851484D01*
X65454014Y-257912229D01*
X65338913Y-257958172D01*
X65186986Y-257976512D01*
X65032061Y-257967485D01*
X64907964Y-257931332D01*
X64873197Y-257908137D01*
X64812444Y-257800960D01*
X64797049Y-257679120D01*
X64797049Y-257519017D01*
X65027403Y-257519017D01*
X65246241Y-257535863D01*
X65412137Y-257583593D01*
X65515338Y-257657986D01*
X65546557Y-257743547D01*
X65949227Y-257743547D01*
X65942713Y-257604731D01*
X65865631Y-257419946D01*
X65720714Y-257280206D01*
X65700683Y-257267495D01*
X65614610Y-257226105D01*
X65508073Y-257201041D01*
X65359141Y-257188858D01*
X65182213Y-257186057D01*
X64797049Y-257185902D01*
X64797049Y-257024443D01*
X64813387Y-256899168D01*
X64855078Y-256815241D01*
X64859959Y-256810773D01*
X64952736Y-256774059D01*
X65092784Y-256759828D01*
X65247555Y-256766821D01*
X65384499Y-256793780D01*
X65465759Y-256834212D01*
X65509790Y-256866601D01*
X65556285Y-256872784D01*
X65620451Y-256846248D01*
X65717495Y-256780479D01*
X65862626Y-256668963D01*
X65875947Y-256658516D01*
X65869121Y-256619862D01*
X65812178Y-256555572D01*
X65725630Y-256484131D01*
X65629992Y-256424021D01*
X65599944Y-256409827D01*
X65490341Y-256381503D01*
X65329735Y-256361300D01*
X65150302Y-256353196D01*
X65141911Y-256353180D01*
X64883779Y-256369247D01*
G36*
X66620808Y-253265166D02*
G01*
X66533015Y-253308540D01*
X66424751Y-253384122D01*
X66345845Y-253466542D01*
X66291805Y-253570037D01*
X66258141Y-253708843D01*
X66240363Y-253897194D01*
X66233980Y-254149328D01*
X66233607Y-254257724D01*
X66234696Y-254495287D01*
X66239222Y-254665068D01*
X66249068Y-254782550D01*
X66266118Y-254863215D01*
X66292259Y-254922545D01*
X66319458Y-254963020D01*
X66493080Y-255135225D01*
X66697538Y-255238806D01*
X66918104Y-255269960D01*
X67140046Y-255224885D01*
X67210360Y-255193009D01*
X67378689Y-255105271D01*
X67378689Y-256480172D01*
X67255838Y-256416643D01*
X67093967Y-256367491D01*
X66895005Y-256354900D01*
X66696328Y-256378147D01*
X66546290Y-256430370D01*
X66421841Y-256529826D01*
X66315508Y-256672143D01*
X66307513Y-256686755D01*
X66273793Y-256755582D01*
X66249166Y-256824956D01*
X66232214Y-256908996D01*
X66221519Y-257021816D01*
X66215662Y-257177533D01*
X66213227Y-257390265D01*
X66212787Y-257629664D01*
X66212787Y-258393443D01*
X66670820Y-258393443D01*
X66670820Y-256985108D01*
X66798933Y-256877308D01*
X66932018Y-256791079D01*
X67058048Y-256775401D01*
X67184778Y-256815747D01*
X67252317Y-256855254D01*
X67302586Y-256911527D01*
X67338338Y-256996572D01*
X67362328Y-257122394D01*
X67377311Y-257300998D01*
X67386040Y-257544391D01*
X67389114Y-257706394D01*
X67399508Y-258372623D01*
X67618115Y-258385209D01*
X67836721Y-258397795D01*
X67836721Y-254263464D01*
X67378689Y-254263464D01*
X67367011Y-254493953D01*
X67327662Y-254653950D01*
X67254166Y-254753497D01*
X67140049Y-254802639D01*
X67024754Y-254812459D01*
X66894238Y-254801175D01*
X66807617Y-254756764D01*
X66753451Y-254698081D01*
X66710810Y-254634962D01*
X66685426Y-254564645D01*
X66674131Y-254466123D01*
X66673760Y-254318387D01*
X66677560Y-254194683D01*
X66686288Y-254008328D01*
X66699280Y-253885982D01*
X66721159Y-253808377D01*
X66756546Y-253756245D01*
X66789941Y-253726111D01*
X66929475Y-253660399D01*
X67094619Y-253649787D01*
X67189446Y-253672423D01*
X67283334Y-253752881D01*
X67345526Y-253909392D01*
X67375669Y-254140852D01*
X67378689Y-254263464D01*
X67836721Y-254263464D01*
X67836721Y-253230164D01*
X67607705Y-253230164D01*
X67470206Y-253235602D01*
X67399267Y-253254909D01*
X67378697Y-253292576D01*
X67378689Y-253293692D01*
X67369145Y-253330581D01*
X67327051Y-253326393D01*
X67243361Y-253285859D01*
X67048354Y-253223850D01*
X66828954Y-253217332D01*
X66620808Y-253265166D01*
G37*
X66620808Y-253265166D02*
X66533015Y-253308540D01*
X66424751Y-253384122D01*
X66345845Y-253466542D01*
X66291805Y-253570037D01*
X66258141Y-253708843D01*
X66240363Y-253897194D01*
X66233980Y-254149328D01*
X66233607Y-254257724D01*
X66234696Y-254495287D01*
X66239222Y-254665068D01*
X66249068Y-254782550D01*
X66266118Y-254863215D01*
X66292259Y-254922545D01*
X66319458Y-254963020D01*
X66493080Y-255135225D01*
X66697538Y-255238806D01*
X66918104Y-255269960D01*
X67140046Y-255224885D01*
X67210360Y-255193009D01*
X67378689Y-255105271D01*
X67378689Y-256480172D01*
X67255838Y-256416643D01*
X67093967Y-256367491D01*
X66895005Y-256354900D01*
X66696328Y-256378147D01*
X66546290Y-256430370D01*
X66421841Y-256529826D01*
X66315508Y-256672143D01*
X66307513Y-256686755D01*
X66273793Y-256755582D01*
X66249166Y-256824956D01*
X66232214Y-256908996D01*
X66221519Y-257021816D01*
X66215662Y-257177533D01*
X66213227Y-257390265D01*
X66212787Y-257629664D01*
X66212787Y-258393443D01*
X66670820Y-258393443D01*
X66670820Y-256985108D01*
X66798933Y-256877308D01*
X66932018Y-256791079D01*
X67058048Y-256775401D01*
X67184778Y-256815747D01*
X67252317Y-256855254D01*
X67302586Y-256911527D01*
X67338338Y-256996572D01*
X67362328Y-257122394D01*
X67377311Y-257300998D01*
X67386040Y-257544391D01*
X67389114Y-257706394D01*
X67399508Y-258372623D01*
X67618115Y-258385209D01*
X67836721Y-258397795D01*
X67836721Y-254263464D01*
X67378689Y-254263464D01*
X67367011Y-254493953D01*
X67327662Y-254653950D01*
X67254166Y-254753497D01*
X67140049Y-254802639D01*
X67024754Y-254812459D01*
X66894238Y-254801175D01*
X66807617Y-254756764D01*
X66753451Y-254698081D01*
X66710810Y-254634962D01*
X66685426Y-254564645D01*
X66674131Y-254466123D01*
X66673760Y-254318387D01*
X66677560Y-254194683D01*
X66686288Y-254008328D01*
X66699280Y-253885982D01*
X66721159Y-253808377D01*
X66756546Y-253756245D01*
X66789941Y-253726111D01*
X66929475Y-253660399D01*
X67094619Y-253649787D01*
X67189446Y-253672423D01*
X67283334Y-253752881D01*
X67345526Y-253909392D01*
X67375669Y-254140852D01*
X67378689Y-254263464D01*
X67836721Y-254263464D01*
X67836721Y-253230164D01*
X67607705Y-253230164D01*
X67470206Y-253235602D01*
X67399267Y-253254909D01*
X67378697Y-253292576D01*
X67378689Y-253293692D01*
X67369145Y-253330581D01*
X67327051Y-253326393D01*
X67243361Y-253285859D01*
X67048354Y-253223850D01*
X66828954Y-253217332D01*
X66620808Y-253265166D01*
D11*
%TO.C,J1*%
X244300000Y-184075000D02*
X240200000Y-184075000D01*
X240200000Y-184075000D02*
X240200000Y-186780000D01*
X240200000Y-186780000D02*
X229940000Y-186780000D01*
X229940000Y-186780000D02*
X229940000Y-199205000D01*
X229940000Y-199205000D02*
X240200000Y-199205000D01*
X240200000Y-199205000D02*
X240200000Y-201295000D01*
X240200000Y-201295000D02*
X244300000Y-201295000D01*
X229245662Y-196750000D02*
X229245662Y-197250000D01*
X229245662Y-197250000D02*
X229678675Y-197000000D01*
X229678675Y-197000000D02*
X229245662Y-196750000D01*
%TO.C,U1*%
X71400000Y-225190000D02*
X71400000Y-232810000D01*
X68860000Y-232810000D02*
X71400000Y-232810000D01*
X68860000Y-225190000D02*
X68860000Y-232810000D01*
X71400000Y-225190000D02*
X68860000Y-225190000D01*
X71400000Y-220110000D02*
X71400000Y-222650000D01*
X20600000Y-222650000D02*
X71400000Y-222650000D01*
X20600000Y-220110000D02*
X20600000Y-222650000D01*
X20600000Y-235350000D02*
X20600000Y-237890000D01*
X71400000Y-235350000D02*
X20600000Y-235350000D01*
X71400000Y-237890000D02*
X71400000Y-235350000D01*
D12*
X20600000Y-237890000D02*
X71400000Y-237890000D01*
X71400000Y-220110000D02*
X20600000Y-220110000D01*
D11*
X61160000Y-232810000D02*
X63700000Y-232810000D01*
X63700000Y-225190000D02*
X61160000Y-225190000D01*
X61160000Y-225190000D02*
X61160000Y-232810000D01*
X63700000Y-225190000D02*
X63700000Y-232810000D01*
X53490000Y-230260000D02*
X53490000Y-232800000D01*
X61110000Y-232800000D02*
X61110000Y-230260000D01*
X61110000Y-230260000D02*
X53490000Y-230260000D01*
X61110000Y-232800000D02*
X53490000Y-232800000D01*
X53490000Y-227760000D02*
X53490000Y-230300000D01*
X61110000Y-230300000D02*
X61110000Y-227760000D01*
X61110000Y-227760000D02*
X53490000Y-227760000D01*
X61110000Y-230300000D02*
X53490000Y-230300000D01*
%TO.C,J1*%
D12*
X228652380Y-192351666D02*
X229366666Y-192351666D01*
X229509523Y-192304047D01*
X229604761Y-192208809D01*
X229652380Y-192065952D01*
X229652380Y-191970714D01*
X229652380Y-193351666D02*
X229652380Y-192780238D01*
X229652380Y-193065952D02*
X228652380Y-193065952D01*
X228795238Y-192970714D01*
X228890476Y-192875476D01*
X228938095Y-192780238D01*
%TO.C,U1*%
X46761904Y-238612380D02*
X46761904Y-239421904D01*
X46714285Y-239517142D01*
X46666666Y-239564761D01*
X46571428Y-239612380D01*
X46380952Y-239612380D01*
X46285714Y-239564761D01*
X46238095Y-239517142D01*
X46190476Y-239421904D01*
X46190476Y-238612380D01*
X45190476Y-239612380D02*
X45761904Y-239612380D01*
X45476190Y-239612380D02*
X45476190Y-238612380D01*
X45571428Y-238755238D01*
X45666666Y-238850476D01*
X45761904Y-238898095D01*
X62619047Y-234532380D02*
X62619047Y-233532380D01*
X62190476Y-234532380D02*
X62190476Y-234008571D01*
X62238095Y-233913333D01*
X62333333Y-233865714D01*
X62476190Y-233865714D01*
X62571428Y-233913333D01*
X62619047Y-233960952D01*
X61333333Y-234484761D02*
X61428571Y-234532380D01*
X61619047Y-234532380D01*
X61714285Y-234484761D01*
X61761904Y-234389523D01*
X61761904Y-234008571D01*
X61714285Y-233913333D01*
X61619047Y-233865714D01*
X61428571Y-233865714D01*
X61333333Y-233913333D01*
X61285714Y-234008571D01*
X61285714Y-234103809D01*
X61761904Y-234199047D01*
X60428571Y-234532380D02*
X60428571Y-234008571D01*
X60476190Y-233913333D01*
X60571428Y-233865714D01*
X60761904Y-233865714D01*
X60857142Y-233913333D01*
X60428571Y-234484761D02*
X60523809Y-234532380D01*
X60761904Y-234532380D01*
X60857142Y-234484761D01*
X60904761Y-234389523D01*
X60904761Y-234294285D01*
X60857142Y-234199047D01*
X60761904Y-234151428D01*
X60523809Y-234151428D01*
X60428571Y-234103809D01*
X59523809Y-234532380D02*
X59523809Y-233532380D01*
X59523809Y-234484761D02*
X59619047Y-234532380D01*
X59809523Y-234532380D01*
X59904761Y-234484761D01*
X59952380Y-234437142D01*
X60000000Y-234341904D01*
X60000000Y-234056190D01*
X59952380Y-233960952D01*
X59904761Y-233913333D01*
X59809523Y-233865714D01*
X59619047Y-233865714D01*
X59523809Y-233913333D01*
X58666666Y-234484761D02*
X58761904Y-234532380D01*
X58952380Y-234532380D01*
X59047619Y-234484761D01*
X59095238Y-234389523D01*
X59095238Y-234008571D01*
X59047619Y-233913333D01*
X58952380Y-233865714D01*
X58761904Y-233865714D01*
X58666666Y-233913333D01*
X58619047Y-234008571D01*
X58619047Y-234103809D01*
X59095238Y-234199047D01*
X58190476Y-234532380D02*
X58190476Y-233865714D01*
X58190476Y-234056190D02*
X58142857Y-233960952D01*
X58095238Y-233913333D01*
X58000000Y-233865714D01*
X57904761Y-233865714D01*
X57523809Y-234484761D02*
X57523809Y-234532380D01*
X57571428Y-234627619D01*
X57619047Y-234675238D01*
X57142857Y-233627619D02*
X57095238Y-233580000D01*
X57000000Y-233532380D01*
X56761904Y-233532380D01*
X56666666Y-233580000D01*
X56619047Y-233627619D01*
X56571428Y-233722857D01*
X56571428Y-233818095D01*
X56619047Y-233960952D01*
X57190476Y-234532380D01*
X56571428Y-234532380D01*
X55952380Y-233532380D02*
X55857142Y-233532380D01*
X55761904Y-233580000D01*
X55714285Y-233627619D01*
X55666666Y-233722857D01*
X55619047Y-233913333D01*
X55619047Y-234151428D01*
X55666666Y-234341904D01*
X55714285Y-234437142D01*
X55761904Y-234484761D01*
X55857142Y-234532380D01*
X55952380Y-234532380D01*
X56047619Y-234484761D01*
X56095238Y-234437142D01*
X56142857Y-234341904D01*
X56190476Y-234151428D01*
X56190476Y-233913333D01*
X56142857Y-233722857D01*
X56095238Y-233627619D01*
X56047619Y-233580000D01*
X55952380Y-233532380D01*
X54428571Y-233865714D02*
X54428571Y-234865714D01*
X54428571Y-233913333D02*
X54333333Y-233865714D01*
X54142857Y-233865714D01*
X54047619Y-233913333D01*
X54000000Y-233960952D01*
X53952380Y-234056190D01*
X53952380Y-234341904D01*
X54000000Y-234437142D01*
X54047619Y-234484761D01*
X54142857Y-234532380D01*
X54333333Y-234532380D01*
X54428571Y-234484761D01*
X53523809Y-234532380D02*
X53523809Y-233865714D01*
X53523809Y-233532380D02*
X53571428Y-233580000D01*
X53523809Y-233627619D01*
X53476190Y-233580000D01*
X53523809Y-233532380D01*
X53523809Y-233627619D01*
X53047619Y-233865714D02*
X53047619Y-234532380D01*
X53047619Y-233960952D02*
X53000000Y-233913333D01*
X52904761Y-233865714D01*
X52761904Y-233865714D01*
X52666666Y-233913333D01*
X52619047Y-234008571D01*
X52619047Y-234532380D01*
X52190476Y-234484761D02*
X52095238Y-234532380D01*
X51904761Y-234532380D01*
X51809523Y-234484761D01*
X51761904Y-234389523D01*
X51761904Y-234341904D01*
X51809523Y-234246666D01*
X51904761Y-234199047D01*
X52047619Y-234199047D01*
X52142857Y-234151428D01*
X52190476Y-234056190D01*
X52190476Y-234008571D01*
X52142857Y-233913333D01*
X52047619Y-233865714D01*
X51904761Y-233865714D01*
X51809523Y-233913333D01*
X50380952Y-233532380D02*
X50285714Y-233532380D01*
X50190476Y-233580000D01*
X50142857Y-233627619D01*
X50095238Y-233722857D01*
X50047619Y-233913333D01*
X50047619Y-234151428D01*
X50095238Y-234341904D01*
X50142857Y-234437142D01*
X50190476Y-234484761D01*
X50285714Y-234532380D01*
X50380952Y-234532380D01*
X50476190Y-234484761D01*
X50523809Y-234437142D01*
X50571428Y-234341904D01*
X50619047Y-234151428D01*
X50619047Y-233913333D01*
X50571428Y-233722857D01*
X50523809Y-233627619D01*
X50476190Y-233580000D01*
X50380952Y-233532380D01*
X49619047Y-234437142D02*
X49571428Y-234484761D01*
X49619047Y-234532380D01*
X49666666Y-234484761D01*
X49619047Y-234437142D01*
X49619047Y-234532380D01*
X48619047Y-234532380D02*
X49190476Y-234532380D01*
X48904761Y-234532380D02*
X48904761Y-233532380D01*
X49000000Y-233675238D01*
X49095238Y-233770476D01*
X49190476Y-233818095D01*
X47428571Y-234532380D02*
X47428571Y-233865714D01*
X47428571Y-233532380D02*
X47476190Y-233580000D01*
X47428571Y-233627619D01*
X47380952Y-233580000D01*
X47428571Y-233532380D01*
X47428571Y-233627619D01*
X46952380Y-233865714D02*
X46952380Y-234532380D01*
X46952380Y-233960952D02*
X46904761Y-233913333D01*
X46809523Y-233865714D01*
X46666666Y-233865714D01*
X46571428Y-233913333D01*
X46523809Y-234008571D01*
X46523809Y-234532380D01*
X45619047Y-234484761D02*
X45714285Y-234532380D01*
X45904761Y-234532380D01*
X46000000Y-234484761D01*
X46047619Y-234437142D01*
X46095238Y-234341904D01*
X46095238Y-234056190D01*
X46047619Y-233960952D01*
X46000000Y-233913333D01*
X45904761Y-233865714D01*
X45714285Y-233865714D01*
X45619047Y-233913333D01*
X45190476Y-234532380D02*
X45190476Y-233532380D01*
X44761904Y-234532380D02*
X44761904Y-234008571D01*
X44809523Y-233913333D01*
X44904761Y-233865714D01*
X45047619Y-233865714D01*
X45142857Y-233913333D01*
X45190476Y-233960952D01*
X43238095Y-234913333D02*
X43285714Y-234865714D01*
X43380952Y-234722857D01*
X43428571Y-234627619D01*
X43476190Y-234484761D01*
X43523809Y-234246666D01*
X43523809Y-234056190D01*
X43476190Y-233818095D01*
X43428571Y-233675238D01*
X43380952Y-233580000D01*
X43285714Y-233437142D01*
X43238095Y-233389523D01*
X42904761Y-233627619D02*
X42857142Y-233580000D01*
X42761904Y-233532380D01*
X42523809Y-233532380D01*
X42428571Y-233580000D01*
X42380952Y-233627619D01*
X42333333Y-233722857D01*
X42333333Y-233818095D01*
X42380952Y-233960952D01*
X42952380Y-234532380D01*
X42333333Y-234532380D01*
X41904761Y-234437142D02*
X41857142Y-234484761D01*
X41904761Y-234532380D01*
X41952380Y-234484761D01*
X41904761Y-234437142D01*
X41904761Y-234532380D01*
X40952380Y-233532380D02*
X41428571Y-233532380D01*
X41476190Y-234008571D01*
X41428571Y-233960952D01*
X41333333Y-233913333D01*
X41095238Y-233913333D01*
X41000000Y-233960952D01*
X40952380Y-234008571D01*
X40904761Y-234103809D01*
X40904761Y-234341904D01*
X40952380Y-234437142D01*
X41000000Y-234484761D01*
X41095238Y-234532380D01*
X41333333Y-234532380D01*
X41428571Y-234484761D01*
X41476190Y-234437142D01*
X40047619Y-233865714D02*
X40047619Y-234532380D01*
X40285714Y-233484761D02*
X40523809Y-234199047D01*
X39904761Y-234199047D01*
X38761904Y-234532380D02*
X38761904Y-233865714D01*
X38761904Y-233960952D02*
X38714285Y-233913333D01*
X38619047Y-233865714D01*
X38476190Y-233865714D01*
X38380952Y-233913333D01*
X38333333Y-234008571D01*
X38333333Y-234532380D01*
X38333333Y-234008571D02*
X38285714Y-233913333D01*
X38190476Y-233865714D01*
X38047619Y-233865714D01*
X37952380Y-233913333D01*
X37904761Y-234008571D01*
X37904761Y-234532380D01*
X37428571Y-234532380D02*
X37428571Y-233865714D01*
X37428571Y-233960952D02*
X37380952Y-233913333D01*
X37285714Y-233865714D01*
X37142857Y-233865714D01*
X37047619Y-233913333D01*
X37000000Y-234008571D01*
X37000000Y-234532380D01*
X37000000Y-234008571D02*
X36952380Y-233913333D01*
X36857142Y-233865714D01*
X36714285Y-233865714D01*
X36619047Y-233913333D01*
X36571428Y-234008571D01*
X36571428Y-234532380D01*
X36190476Y-234913333D02*
X36142857Y-234865714D01*
X36047619Y-234722857D01*
X36000000Y-234627619D01*
X35952380Y-234484761D01*
X35904761Y-234246666D01*
X35904761Y-234056190D01*
X35952380Y-233818095D01*
X36000000Y-233675238D01*
X36047619Y-233580000D01*
X36142857Y-233437142D01*
X36190476Y-233389523D01*
X34714285Y-234484761D02*
X34619047Y-234532380D01*
X34428571Y-234532380D01*
X34333333Y-234484761D01*
X34285714Y-234389523D01*
X34285714Y-234341904D01*
X34333333Y-234246666D01*
X34428571Y-234199047D01*
X34571428Y-234199047D01*
X34666666Y-234151428D01*
X34714285Y-234056190D01*
X34714285Y-234008571D01*
X34666666Y-233913333D01*
X34571428Y-233865714D01*
X34428571Y-233865714D01*
X34333333Y-233913333D01*
X33857142Y-233865714D02*
X33857142Y-234865714D01*
X33857142Y-233913333D02*
X33761904Y-233865714D01*
X33571428Y-233865714D01*
X33476190Y-233913333D01*
X33428571Y-233960952D01*
X33380952Y-234056190D01*
X33380952Y-234341904D01*
X33428571Y-234437142D01*
X33476190Y-234484761D01*
X33571428Y-234532380D01*
X33761904Y-234532380D01*
X33857142Y-234484761D01*
X32523809Y-234532380D02*
X32523809Y-234008571D01*
X32571428Y-233913333D01*
X32666666Y-233865714D01*
X32857142Y-233865714D01*
X32952380Y-233913333D01*
X32523809Y-234484761D02*
X32619047Y-234532380D01*
X32857142Y-234532380D01*
X32952380Y-234484761D01*
X33000000Y-234389523D01*
X33000000Y-234294285D01*
X32952380Y-234199047D01*
X32857142Y-234151428D01*
X32619047Y-234151428D01*
X32523809Y-234103809D01*
X31619047Y-234484761D02*
X31714285Y-234532380D01*
X31904761Y-234532380D01*
X32000000Y-234484761D01*
X32047619Y-234437142D01*
X32095238Y-234341904D01*
X32095238Y-234056190D01*
X32047619Y-233960952D01*
X32000000Y-233913333D01*
X31904761Y-233865714D01*
X31714285Y-233865714D01*
X31619047Y-233913333D01*
X31190476Y-234532380D02*
X31190476Y-233865714D01*
X31190476Y-233532380D02*
X31238095Y-233580000D01*
X31190476Y-233627619D01*
X31142857Y-233580000D01*
X31190476Y-233532380D01*
X31190476Y-233627619D01*
X30714285Y-233865714D02*
X30714285Y-234532380D01*
X30714285Y-233960952D02*
X30666666Y-233913333D01*
X30571428Y-233865714D01*
X30428571Y-233865714D01*
X30333333Y-233913333D01*
X30285714Y-234008571D01*
X30285714Y-234532380D01*
X29380952Y-233865714D02*
X29380952Y-234675238D01*
X29428571Y-234770476D01*
X29476190Y-234818095D01*
X29571428Y-234865714D01*
X29714285Y-234865714D01*
X29809523Y-234818095D01*
X29380952Y-234484761D02*
X29476190Y-234532380D01*
X29666666Y-234532380D01*
X29761904Y-234484761D01*
X29809523Y-234437142D01*
X29857142Y-234341904D01*
X29857142Y-234056190D01*
X29809523Y-233960952D01*
X29761904Y-233913333D01*
X29666666Y-233865714D01*
X29476190Y-233865714D01*
X29380952Y-233913333D01*
X60180952Y-225852380D02*
X59561904Y-225852380D01*
X59895238Y-226233333D01*
X59752380Y-226233333D01*
X59657142Y-226280952D01*
X59609523Y-226328571D01*
X59561904Y-226423809D01*
X59561904Y-226661904D01*
X59609523Y-226757142D01*
X59657142Y-226804761D01*
X59752380Y-226852380D01*
X60038095Y-226852380D01*
X60133333Y-226804761D01*
X60180952Y-226757142D01*
X58371428Y-226185714D02*
X58371428Y-227185714D01*
X58371428Y-226233333D02*
X58276190Y-226185714D01*
X58085714Y-226185714D01*
X57990476Y-226233333D01*
X57942857Y-226280952D01*
X57895238Y-226376190D01*
X57895238Y-226661904D01*
X57942857Y-226757142D01*
X57990476Y-226804761D01*
X58085714Y-226852380D01*
X58276190Y-226852380D01*
X58371428Y-226804761D01*
X57466666Y-226852380D02*
X57466666Y-226185714D01*
X57466666Y-225852380D02*
X57514285Y-225900000D01*
X57466666Y-225947619D01*
X57419047Y-225900000D01*
X57466666Y-225852380D01*
X57466666Y-225947619D01*
X56990476Y-226185714D02*
X56990476Y-226852380D01*
X56990476Y-226280952D02*
X56942857Y-226233333D01*
X56847619Y-226185714D01*
X56704761Y-226185714D01*
X56609523Y-226233333D01*
X56561904Y-226328571D01*
X56561904Y-226852380D01*
X56133333Y-226804761D02*
X56038095Y-226852380D01*
X55847619Y-226852380D01*
X55752380Y-226804761D01*
X55704761Y-226709523D01*
X55704761Y-226661904D01*
X55752380Y-226566666D01*
X55847619Y-226519047D01*
X55990476Y-226519047D01*
X56085714Y-226471428D01*
X56133333Y-226376190D01*
X56133333Y-226328571D01*
X56085714Y-226233333D01*
X55990476Y-226185714D01*
X55847619Y-226185714D01*
X55752380Y-226233333D01*
X54514285Y-226852380D02*
X54514285Y-225852380D01*
X54085714Y-226852380D02*
X54085714Y-226328571D01*
X54133333Y-226233333D01*
X54228571Y-226185714D01*
X54371428Y-226185714D01*
X54466666Y-226233333D01*
X54514285Y-226280952D01*
X53228571Y-226804761D02*
X53323809Y-226852380D01*
X53514285Y-226852380D01*
X53609523Y-226804761D01*
X53657142Y-226709523D01*
X53657142Y-226328571D01*
X53609523Y-226233333D01*
X53514285Y-226185714D01*
X53323809Y-226185714D01*
X53228571Y-226233333D01*
X53180952Y-226328571D01*
X53180952Y-226423809D01*
X53657142Y-226519047D01*
X52323809Y-226852380D02*
X52323809Y-226328571D01*
X52371428Y-226233333D01*
X52466666Y-226185714D01*
X52657142Y-226185714D01*
X52752380Y-226233333D01*
X52323809Y-226804761D02*
X52419047Y-226852380D01*
X52657142Y-226852380D01*
X52752380Y-226804761D01*
X52800000Y-226709523D01*
X52800000Y-226614285D01*
X52752380Y-226519047D01*
X52657142Y-226471428D01*
X52419047Y-226471428D01*
X52323809Y-226423809D01*
X51419047Y-226852380D02*
X51419047Y-225852380D01*
X51419047Y-226804761D02*
X51514285Y-226852380D01*
X51704761Y-226852380D01*
X51800000Y-226804761D01*
X51847619Y-226757142D01*
X51895238Y-226661904D01*
X51895238Y-226376190D01*
X51847619Y-226280952D01*
X51800000Y-226233333D01*
X51704761Y-226185714D01*
X51514285Y-226185714D01*
X51419047Y-226233333D01*
X50561904Y-226804761D02*
X50657142Y-226852380D01*
X50847619Y-226852380D01*
X50942857Y-226804761D01*
X50990476Y-226709523D01*
X50990476Y-226328571D01*
X50942857Y-226233333D01*
X50847619Y-226185714D01*
X50657142Y-226185714D01*
X50561904Y-226233333D01*
X50514285Y-226328571D01*
X50514285Y-226423809D01*
X50990476Y-226519047D01*
X50085714Y-226852380D02*
X50085714Y-226185714D01*
X50085714Y-226376190D02*
X50038095Y-226280952D01*
X49990476Y-226233333D01*
X49895238Y-226185714D01*
X49800000Y-226185714D01*
X48514285Y-225852380D02*
X48419047Y-225852380D01*
X48323809Y-225900000D01*
X48276190Y-225947619D01*
X48228571Y-226042857D01*
X48180952Y-226233333D01*
X48180952Y-226471428D01*
X48228571Y-226661904D01*
X48276190Y-226757142D01*
X48323809Y-226804761D01*
X48419047Y-226852380D01*
X48514285Y-226852380D01*
X48609523Y-226804761D01*
X48657142Y-226757142D01*
X48704761Y-226661904D01*
X48752380Y-226471428D01*
X48752380Y-226233333D01*
X48704761Y-226042857D01*
X48657142Y-225947619D01*
X48609523Y-225900000D01*
X48514285Y-225852380D01*
X47752380Y-226757142D02*
X47704761Y-226804761D01*
X47752380Y-226852380D01*
X47800000Y-226804761D01*
X47752380Y-226757142D01*
X47752380Y-226852380D01*
X46752380Y-226852380D02*
X47323809Y-226852380D01*
X47038095Y-226852380D02*
X47038095Y-225852380D01*
X47133333Y-225995238D01*
X47228571Y-226090476D01*
X47323809Y-226138095D01*
X45561904Y-226852380D02*
X45561904Y-226185714D01*
X45561904Y-225852380D02*
X45609523Y-225900000D01*
X45561904Y-225947619D01*
X45514285Y-225900000D01*
X45561904Y-225852380D01*
X45561904Y-225947619D01*
X45085714Y-226185714D02*
X45085714Y-226852380D01*
X45085714Y-226280952D02*
X45038095Y-226233333D01*
X44942857Y-226185714D01*
X44800000Y-226185714D01*
X44704761Y-226233333D01*
X44657142Y-226328571D01*
X44657142Y-226852380D01*
X43752380Y-226804761D02*
X43847619Y-226852380D01*
X44038095Y-226852380D01*
X44133333Y-226804761D01*
X44180952Y-226757142D01*
X44228571Y-226661904D01*
X44228571Y-226376190D01*
X44180952Y-226280952D01*
X44133333Y-226233333D01*
X44038095Y-226185714D01*
X43847619Y-226185714D01*
X43752380Y-226233333D01*
X43323809Y-226852380D02*
X43323809Y-225852380D01*
X42895238Y-226852380D02*
X42895238Y-226328571D01*
X42942857Y-226233333D01*
X43038095Y-226185714D01*
X43180952Y-226185714D01*
X43276190Y-226233333D01*
X43323809Y-226280952D01*
X41371428Y-227233333D02*
X41419047Y-227185714D01*
X41514285Y-227042857D01*
X41561904Y-226947619D01*
X41609523Y-226804761D01*
X41657142Y-226566666D01*
X41657142Y-226376190D01*
X41609523Y-226138095D01*
X41561904Y-225995238D01*
X41514285Y-225900000D01*
X41419047Y-225757142D01*
X41371428Y-225709523D01*
X41038095Y-225947619D02*
X40990476Y-225900000D01*
X40895238Y-225852380D01*
X40657142Y-225852380D01*
X40561904Y-225900000D01*
X40514285Y-225947619D01*
X40466666Y-226042857D01*
X40466666Y-226138095D01*
X40514285Y-226280952D01*
X41085714Y-226852380D01*
X40466666Y-226852380D01*
X40038095Y-226757142D02*
X39990476Y-226804761D01*
X40038095Y-226852380D01*
X40085714Y-226804761D01*
X40038095Y-226757142D01*
X40038095Y-226852380D01*
X39085714Y-225852380D02*
X39561904Y-225852380D01*
X39609523Y-226328571D01*
X39561904Y-226280952D01*
X39466666Y-226233333D01*
X39228571Y-226233333D01*
X39133333Y-226280952D01*
X39085714Y-226328571D01*
X39038095Y-226423809D01*
X39038095Y-226661904D01*
X39085714Y-226757142D01*
X39133333Y-226804761D01*
X39228571Y-226852380D01*
X39466666Y-226852380D01*
X39561904Y-226804761D01*
X39609523Y-226757142D01*
X38180952Y-226185714D02*
X38180952Y-226852380D01*
X38419047Y-225804761D02*
X38657142Y-226519047D01*
X38038095Y-226519047D01*
X36895238Y-226852380D02*
X36895238Y-226185714D01*
X36895238Y-226280952D02*
X36847619Y-226233333D01*
X36752380Y-226185714D01*
X36609523Y-226185714D01*
X36514285Y-226233333D01*
X36466666Y-226328571D01*
X36466666Y-226852380D01*
X36466666Y-226328571D02*
X36419047Y-226233333D01*
X36323809Y-226185714D01*
X36180952Y-226185714D01*
X36085714Y-226233333D01*
X36038095Y-226328571D01*
X36038095Y-226852380D01*
X35561904Y-226852380D02*
X35561904Y-226185714D01*
X35561904Y-226280952D02*
X35514285Y-226233333D01*
X35419047Y-226185714D01*
X35276190Y-226185714D01*
X35180952Y-226233333D01*
X35133333Y-226328571D01*
X35133333Y-226852380D01*
X35133333Y-226328571D02*
X35085714Y-226233333D01*
X34990476Y-226185714D01*
X34847619Y-226185714D01*
X34752380Y-226233333D01*
X34704761Y-226328571D01*
X34704761Y-226852380D01*
X34323809Y-227233333D02*
X34276190Y-227185714D01*
X34180952Y-227042857D01*
X34133333Y-226947619D01*
X34085714Y-226804761D01*
X34038095Y-226566666D01*
X34038095Y-226376190D01*
X34085714Y-226138095D01*
X34133333Y-225995238D01*
X34180952Y-225900000D01*
X34276190Y-225757142D01*
X34323809Y-225709523D01*
X32847619Y-226804761D02*
X32752380Y-226852380D01*
X32561904Y-226852380D01*
X32466666Y-226804761D01*
X32419047Y-226709523D01*
X32419047Y-226661904D01*
X32466666Y-226566666D01*
X32561904Y-226519047D01*
X32704761Y-226519047D01*
X32800000Y-226471428D01*
X32847619Y-226376190D01*
X32847619Y-226328571D01*
X32800000Y-226233333D01*
X32704761Y-226185714D01*
X32561904Y-226185714D01*
X32466666Y-226233333D01*
X31990476Y-226185714D02*
X31990476Y-227185714D01*
X31990476Y-226233333D02*
X31895238Y-226185714D01*
X31704761Y-226185714D01*
X31609523Y-226233333D01*
X31561904Y-226280952D01*
X31514285Y-226376190D01*
X31514285Y-226661904D01*
X31561904Y-226757142D01*
X31609523Y-226804761D01*
X31704761Y-226852380D01*
X31895238Y-226852380D01*
X31990476Y-226804761D01*
X30657142Y-226852380D02*
X30657142Y-226328571D01*
X30704761Y-226233333D01*
X30800000Y-226185714D01*
X30990476Y-226185714D01*
X31085714Y-226233333D01*
X30657142Y-226804761D02*
X30752380Y-226852380D01*
X30990476Y-226852380D01*
X31085714Y-226804761D01*
X31133333Y-226709523D01*
X31133333Y-226614285D01*
X31085714Y-226519047D01*
X30990476Y-226471428D01*
X30752380Y-226471428D01*
X30657142Y-226423809D01*
X29752380Y-226804761D02*
X29847619Y-226852380D01*
X30038095Y-226852380D01*
X30133333Y-226804761D01*
X30180952Y-226757142D01*
X30228571Y-226661904D01*
X30228571Y-226376190D01*
X30180952Y-226280952D01*
X30133333Y-226233333D01*
X30038095Y-226185714D01*
X29847619Y-226185714D01*
X29752380Y-226233333D01*
X29323809Y-226852380D02*
X29323809Y-226185714D01*
X29323809Y-225852380D02*
X29371428Y-225900000D01*
X29323809Y-225947619D01*
X29276190Y-225900000D01*
X29323809Y-225852380D01*
X29323809Y-225947619D01*
X28847619Y-226185714D02*
X28847619Y-226852380D01*
X28847619Y-226280952D02*
X28800000Y-226233333D01*
X28704761Y-226185714D01*
X28561904Y-226185714D01*
X28466666Y-226233333D01*
X28419047Y-226328571D01*
X28419047Y-226852380D01*
X27514285Y-226185714D02*
X27514285Y-226995238D01*
X27561904Y-227090476D01*
X27609523Y-227138095D01*
X27704761Y-227185714D01*
X27847619Y-227185714D01*
X27942857Y-227138095D01*
X27514285Y-226804761D02*
X27609523Y-226852380D01*
X27800000Y-226852380D01*
X27895238Y-226804761D01*
X27942857Y-226757142D01*
X27990476Y-226661904D01*
X27990476Y-226376190D01*
X27942857Y-226280952D01*
X27895238Y-226233333D01*
X27800000Y-226185714D01*
X27609523Y-226185714D01*
X27514285Y-226233333D01*
X62619047Y-219292380D02*
X62619047Y-218292380D01*
X62190476Y-219292380D02*
X62190476Y-218768571D01*
X62238095Y-218673333D01*
X62333333Y-218625714D01*
X62476190Y-218625714D01*
X62571428Y-218673333D01*
X62619047Y-218720952D01*
X61333333Y-219244761D02*
X61428571Y-219292380D01*
X61619047Y-219292380D01*
X61714285Y-219244761D01*
X61761904Y-219149523D01*
X61761904Y-218768571D01*
X61714285Y-218673333D01*
X61619047Y-218625714D01*
X61428571Y-218625714D01*
X61333333Y-218673333D01*
X61285714Y-218768571D01*
X61285714Y-218863809D01*
X61761904Y-218959047D01*
X60428571Y-219292380D02*
X60428571Y-218768571D01*
X60476190Y-218673333D01*
X60571428Y-218625714D01*
X60761904Y-218625714D01*
X60857142Y-218673333D01*
X60428571Y-219244761D02*
X60523809Y-219292380D01*
X60761904Y-219292380D01*
X60857142Y-219244761D01*
X60904761Y-219149523D01*
X60904761Y-219054285D01*
X60857142Y-218959047D01*
X60761904Y-218911428D01*
X60523809Y-218911428D01*
X60428571Y-218863809D01*
X59523809Y-219292380D02*
X59523809Y-218292380D01*
X59523809Y-219244761D02*
X59619047Y-219292380D01*
X59809523Y-219292380D01*
X59904761Y-219244761D01*
X59952380Y-219197142D01*
X60000000Y-219101904D01*
X60000000Y-218816190D01*
X59952380Y-218720952D01*
X59904761Y-218673333D01*
X59809523Y-218625714D01*
X59619047Y-218625714D01*
X59523809Y-218673333D01*
X58666666Y-219244761D02*
X58761904Y-219292380D01*
X58952380Y-219292380D01*
X59047619Y-219244761D01*
X59095238Y-219149523D01*
X59095238Y-218768571D01*
X59047619Y-218673333D01*
X58952380Y-218625714D01*
X58761904Y-218625714D01*
X58666666Y-218673333D01*
X58619047Y-218768571D01*
X58619047Y-218863809D01*
X59095238Y-218959047D01*
X58190476Y-219292380D02*
X58190476Y-218625714D01*
X58190476Y-218816190D02*
X58142857Y-218720952D01*
X58095238Y-218673333D01*
X58000000Y-218625714D01*
X57904761Y-218625714D01*
X57523809Y-219244761D02*
X57523809Y-219292380D01*
X57571428Y-219387619D01*
X57619047Y-219435238D01*
X57142857Y-218387619D02*
X57095238Y-218340000D01*
X57000000Y-218292380D01*
X56761904Y-218292380D01*
X56666666Y-218340000D01*
X56619047Y-218387619D01*
X56571428Y-218482857D01*
X56571428Y-218578095D01*
X56619047Y-218720952D01*
X57190476Y-219292380D01*
X56571428Y-219292380D01*
X55952380Y-218292380D02*
X55857142Y-218292380D01*
X55761904Y-218340000D01*
X55714285Y-218387619D01*
X55666666Y-218482857D01*
X55619047Y-218673333D01*
X55619047Y-218911428D01*
X55666666Y-219101904D01*
X55714285Y-219197142D01*
X55761904Y-219244761D01*
X55857142Y-219292380D01*
X55952380Y-219292380D01*
X56047619Y-219244761D01*
X56095238Y-219197142D01*
X56142857Y-219101904D01*
X56190476Y-218911428D01*
X56190476Y-218673333D01*
X56142857Y-218482857D01*
X56095238Y-218387619D01*
X56047619Y-218340000D01*
X55952380Y-218292380D01*
X54428571Y-218625714D02*
X54428571Y-219625714D01*
X54428571Y-218673333D02*
X54333333Y-218625714D01*
X54142857Y-218625714D01*
X54047619Y-218673333D01*
X54000000Y-218720952D01*
X53952380Y-218816190D01*
X53952380Y-219101904D01*
X54000000Y-219197142D01*
X54047619Y-219244761D01*
X54142857Y-219292380D01*
X54333333Y-219292380D01*
X54428571Y-219244761D01*
X53523809Y-219292380D02*
X53523809Y-218625714D01*
X53523809Y-218292380D02*
X53571428Y-218340000D01*
X53523809Y-218387619D01*
X53476190Y-218340000D01*
X53523809Y-218292380D01*
X53523809Y-218387619D01*
X53047619Y-218625714D02*
X53047619Y-219292380D01*
X53047619Y-218720952D02*
X53000000Y-218673333D01*
X52904761Y-218625714D01*
X52761904Y-218625714D01*
X52666666Y-218673333D01*
X52619047Y-218768571D01*
X52619047Y-219292380D01*
X52190476Y-219244761D02*
X52095238Y-219292380D01*
X51904761Y-219292380D01*
X51809523Y-219244761D01*
X51761904Y-219149523D01*
X51761904Y-219101904D01*
X51809523Y-219006666D01*
X51904761Y-218959047D01*
X52047619Y-218959047D01*
X52142857Y-218911428D01*
X52190476Y-218816190D01*
X52190476Y-218768571D01*
X52142857Y-218673333D01*
X52047619Y-218625714D01*
X51904761Y-218625714D01*
X51809523Y-218673333D01*
X50380952Y-218292380D02*
X50285714Y-218292380D01*
X50190476Y-218340000D01*
X50142857Y-218387619D01*
X50095238Y-218482857D01*
X50047619Y-218673333D01*
X50047619Y-218911428D01*
X50095238Y-219101904D01*
X50142857Y-219197142D01*
X50190476Y-219244761D01*
X50285714Y-219292380D01*
X50380952Y-219292380D01*
X50476190Y-219244761D01*
X50523809Y-219197142D01*
X50571428Y-219101904D01*
X50619047Y-218911428D01*
X50619047Y-218673333D01*
X50571428Y-218482857D01*
X50523809Y-218387619D01*
X50476190Y-218340000D01*
X50380952Y-218292380D01*
X49619047Y-219197142D02*
X49571428Y-219244761D01*
X49619047Y-219292380D01*
X49666666Y-219244761D01*
X49619047Y-219197142D01*
X49619047Y-219292380D01*
X48619047Y-219292380D02*
X49190476Y-219292380D01*
X48904761Y-219292380D02*
X48904761Y-218292380D01*
X49000000Y-218435238D01*
X49095238Y-218530476D01*
X49190476Y-218578095D01*
X47428571Y-219292380D02*
X47428571Y-218625714D01*
X47428571Y-218292380D02*
X47476190Y-218340000D01*
X47428571Y-218387619D01*
X47380952Y-218340000D01*
X47428571Y-218292380D01*
X47428571Y-218387619D01*
X46952380Y-218625714D02*
X46952380Y-219292380D01*
X46952380Y-218720952D02*
X46904761Y-218673333D01*
X46809523Y-218625714D01*
X46666666Y-218625714D01*
X46571428Y-218673333D01*
X46523809Y-218768571D01*
X46523809Y-219292380D01*
X45619047Y-219244761D02*
X45714285Y-219292380D01*
X45904761Y-219292380D01*
X46000000Y-219244761D01*
X46047619Y-219197142D01*
X46095238Y-219101904D01*
X46095238Y-218816190D01*
X46047619Y-218720952D01*
X46000000Y-218673333D01*
X45904761Y-218625714D01*
X45714285Y-218625714D01*
X45619047Y-218673333D01*
X45190476Y-219292380D02*
X45190476Y-218292380D01*
X44761904Y-219292380D02*
X44761904Y-218768571D01*
X44809523Y-218673333D01*
X44904761Y-218625714D01*
X45047619Y-218625714D01*
X45142857Y-218673333D01*
X45190476Y-218720952D01*
X43238095Y-219673333D02*
X43285714Y-219625714D01*
X43380952Y-219482857D01*
X43428571Y-219387619D01*
X43476190Y-219244761D01*
X43523809Y-219006666D01*
X43523809Y-218816190D01*
X43476190Y-218578095D01*
X43428571Y-218435238D01*
X43380952Y-218340000D01*
X43285714Y-218197142D01*
X43238095Y-218149523D01*
X42904761Y-218387619D02*
X42857142Y-218340000D01*
X42761904Y-218292380D01*
X42523809Y-218292380D01*
X42428571Y-218340000D01*
X42380952Y-218387619D01*
X42333333Y-218482857D01*
X42333333Y-218578095D01*
X42380952Y-218720952D01*
X42952380Y-219292380D01*
X42333333Y-219292380D01*
X41904761Y-219197142D02*
X41857142Y-219244761D01*
X41904761Y-219292380D01*
X41952380Y-219244761D01*
X41904761Y-219197142D01*
X41904761Y-219292380D01*
X40952380Y-218292380D02*
X41428571Y-218292380D01*
X41476190Y-218768571D01*
X41428571Y-218720952D01*
X41333333Y-218673333D01*
X41095238Y-218673333D01*
X41000000Y-218720952D01*
X40952380Y-218768571D01*
X40904761Y-218863809D01*
X40904761Y-219101904D01*
X40952380Y-219197142D01*
X41000000Y-219244761D01*
X41095238Y-219292380D01*
X41333333Y-219292380D01*
X41428571Y-219244761D01*
X41476190Y-219197142D01*
X40047619Y-218625714D02*
X40047619Y-219292380D01*
X40285714Y-218244761D02*
X40523809Y-218959047D01*
X39904761Y-218959047D01*
X38761904Y-219292380D02*
X38761904Y-218625714D01*
X38761904Y-218720952D02*
X38714285Y-218673333D01*
X38619047Y-218625714D01*
X38476190Y-218625714D01*
X38380952Y-218673333D01*
X38333333Y-218768571D01*
X38333333Y-219292380D01*
X38333333Y-218768571D02*
X38285714Y-218673333D01*
X38190476Y-218625714D01*
X38047619Y-218625714D01*
X37952380Y-218673333D01*
X37904761Y-218768571D01*
X37904761Y-219292380D01*
X37428571Y-219292380D02*
X37428571Y-218625714D01*
X37428571Y-218720952D02*
X37380952Y-218673333D01*
X37285714Y-218625714D01*
X37142857Y-218625714D01*
X37047619Y-218673333D01*
X37000000Y-218768571D01*
X37000000Y-219292380D01*
X37000000Y-218768571D02*
X36952380Y-218673333D01*
X36857142Y-218625714D01*
X36714285Y-218625714D01*
X36619047Y-218673333D01*
X36571428Y-218768571D01*
X36571428Y-219292380D01*
X36190476Y-219673333D02*
X36142857Y-219625714D01*
X36047619Y-219482857D01*
X36000000Y-219387619D01*
X35952380Y-219244761D01*
X35904761Y-219006666D01*
X35904761Y-218816190D01*
X35952380Y-218578095D01*
X36000000Y-218435238D01*
X36047619Y-218340000D01*
X36142857Y-218197142D01*
X36190476Y-218149523D01*
X34714285Y-219244761D02*
X34619047Y-219292380D01*
X34428571Y-219292380D01*
X34333333Y-219244761D01*
X34285714Y-219149523D01*
X34285714Y-219101904D01*
X34333333Y-219006666D01*
X34428571Y-218959047D01*
X34571428Y-218959047D01*
X34666666Y-218911428D01*
X34714285Y-218816190D01*
X34714285Y-218768571D01*
X34666666Y-218673333D01*
X34571428Y-218625714D01*
X34428571Y-218625714D01*
X34333333Y-218673333D01*
X33857142Y-218625714D02*
X33857142Y-219625714D01*
X33857142Y-218673333D02*
X33761904Y-218625714D01*
X33571428Y-218625714D01*
X33476190Y-218673333D01*
X33428571Y-218720952D01*
X33380952Y-218816190D01*
X33380952Y-219101904D01*
X33428571Y-219197142D01*
X33476190Y-219244761D01*
X33571428Y-219292380D01*
X33761904Y-219292380D01*
X33857142Y-219244761D01*
X32523809Y-219292380D02*
X32523809Y-218768571D01*
X32571428Y-218673333D01*
X32666666Y-218625714D01*
X32857142Y-218625714D01*
X32952380Y-218673333D01*
X32523809Y-219244761D02*
X32619047Y-219292380D01*
X32857142Y-219292380D01*
X32952380Y-219244761D01*
X33000000Y-219149523D01*
X33000000Y-219054285D01*
X32952380Y-218959047D01*
X32857142Y-218911428D01*
X32619047Y-218911428D01*
X32523809Y-218863809D01*
X31619047Y-219244761D02*
X31714285Y-219292380D01*
X31904761Y-219292380D01*
X32000000Y-219244761D01*
X32047619Y-219197142D01*
X32095238Y-219101904D01*
X32095238Y-218816190D01*
X32047619Y-218720952D01*
X32000000Y-218673333D01*
X31904761Y-218625714D01*
X31714285Y-218625714D01*
X31619047Y-218673333D01*
X31190476Y-219292380D02*
X31190476Y-218625714D01*
X31190476Y-218292380D02*
X31238095Y-218340000D01*
X31190476Y-218387619D01*
X31142857Y-218340000D01*
X31190476Y-218292380D01*
X31190476Y-218387619D01*
X30714285Y-218625714D02*
X30714285Y-219292380D01*
X30714285Y-218720952D02*
X30666666Y-218673333D01*
X30571428Y-218625714D01*
X30428571Y-218625714D01*
X30333333Y-218673333D01*
X30285714Y-218768571D01*
X30285714Y-219292380D01*
X29380952Y-218625714D02*
X29380952Y-219435238D01*
X29428571Y-219530476D01*
X29476190Y-219578095D01*
X29571428Y-219625714D01*
X29714285Y-219625714D01*
X29809523Y-219578095D01*
X29380952Y-219244761D02*
X29476190Y-219292380D01*
X29666666Y-219292380D01*
X29761904Y-219244761D01*
X29809523Y-219197142D01*
X29857142Y-219101904D01*
X29857142Y-218816190D01*
X29809523Y-218720952D01*
X29761904Y-218673333D01*
X29666666Y-218625714D01*
X29476190Y-218625714D01*
X29380952Y-218673333D01*
%TD*%
M02*
