%FSLAX45Y45*%
G04 Gerber Fmt 4.5, Leading zero omitted, Abs format (unit mm)*
G04 Created by KiCad (PCBNEW 5.1.6-c6e7f7d~87~ubuntu20.04.1) date 2020-09-12 12:36:25*
%MOMM*%
%LPD*%
G01*
G04 APERTURE LIST*
%TA.AperFunction,Profile*%
%ADD10C,0.200000*%
%TD*%
%ADD11C,0.200000*%
%ADD12C,0.300000*%
G04 APERTURE END LIST*
D10*
X2047289Y-4717200D02*
X2057900Y-4679400D01*
X24138100Y-27436383D02*
X24099100Y-27441068D01*
X24286900Y-27388014D02*
X24251200Y-27404550D01*
X2455190Y-27436383D02*
X2416740Y-27428666D01*
X24505300Y-4607000D02*
X24521700Y-4642700D01*
X24559900Y-26942493D02*
X24558400Y-26981768D01*
X2087941Y-4607000D02*
X2107096Y-4572700D01*
X24546100Y-4717200D02*
X24553700Y-4755700D01*
X2033508Y-26942493D02*
X2033508Y-4834100D01*
X2087941Y-27169595D02*
X2071542Y-27133904D01*
X2039710Y-27020768D02*
X2035024Y-26981768D01*
X2179994Y-27296099D02*
X2153260Y-27267160D01*
X24559900Y-4834100D02*
X24559900Y-26942493D01*
X24535300Y-27096971D02*
X24521700Y-27133904D01*
X24251200Y-27404550D02*
X24214400Y-27418055D01*
X2035024Y-26981768D02*
X2033508Y-26942493D01*
X2494186Y-4335500D02*
X2533598Y-4334000D01*
X2057900Y-4679400D02*
X2071542Y-4642700D01*
X24059800Y-4334000D02*
X24099100Y-4335500D01*
X2239663Y-27347086D02*
X2208795Y-27322695D01*
X24353700Y-27347086D02*
X24321100Y-27368859D01*
X2071542Y-27133904D02*
X2057900Y-27096971D01*
X2153260Y-27267160D02*
X2129006Y-27236430D01*
X2239663Y-4429500D02*
X2272185Y-4407600D01*
X2342189Y-4372000D02*
X2378983Y-4358400D01*
X24413400Y-27296099D02*
X24384600Y-27322695D01*
X2057900Y-27096971D02*
X2047289Y-27059213D01*
X2033508Y-4834100D02*
X2035024Y-4794700D01*
X2035024Y-4794700D02*
X2039710Y-4755700D01*
X2455190Y-4340200D02*
X2494186Y-4335500D01*
X24546100Y-27059213D02*
X24535300Y-27096971D01*
X24176500Y-27428666D02*
X24138100Y-27436383D01*
X24553700Y-27020768D02*
X24546100Y-27059213D01*
X24464400Y-4540100D02*
X24486200Y-4572700D01*
X24321100Y-27368859D02*
X24286900Y-27388014D01*
X24505300Y-27169595D02*
X24486200Y-27203770D01*
X2153260Y-4509300D02*
X2179994Y-4480500D01*
X2533598Y-4334000D02*
X24059800Y-4334000D01*
X2047289Y-27059213D02*
X2039710Y-27020768D01*
X24553700Y-4755700D02*
X24558400Y-4794700D01*
X2494186Y-27441068D02*
X2455190Y-27436383D01*
X24214400Y-27418055D02*
X24176500Y-27428666D01*
X2107096Y-27203770D02*
X2087941Y-27169595D01*
X24486200Y-4572700D02*
X24505300Y-4607000D01*
X24521700Y-4642700D02*
X24535300Y-4679400D01*
X24558400Y-26981768D02*
X24553700Y-27020768D01*
X2039710Y-4755700D02*
X2047289Y-4717200D01*
X24214400Y-4358400D02*
X24251200Y-4372000D01*
X2107096Y-4572700D02*
X2129006Y-4540100D01*
X2378983Y-4358400D02*
X2416740Y-4347800D01*
X24384600Y-4453700D02*
X24413400Y-4480500D01*
X24384600Y-27322695D02*
X24353700Y-27347086D01*
X24464400Y-27236430D02*
X24440000Y-27267160D01*
X24521700Y-27133904D02*
X24505300Y-27169595D01*
X2208795Y-27322695D02*
X2179994Y-27296099D01*
X24286900Y-4388400D02*
X24321100Y-4407600D01*
X24558400Y-4794700D02*
X24559900Y-4834100D01*
X2272185Y-4407600D02*
X2306498Y-4388400D01*
X2306498Y-4388400D02*
X2342189Y-4372000D01*
X2071542Y-4642700D02*
X2087941Y-4607000D01*
X24440000Y-27267160D02*
X24413400Y-27296099D01*
X2416740Y-4347800D02*
X2455190Y-4340200D01*
X24138100Y-4340200D02*
X24176500Y-4347800D01*
X24486200Y-27203770D02*
X24464400Y-27236430D01*
X24059800Y-27442584D02*
X2533598Y-27442584D01*
X24251200Y-4372000D02*
X24286900Y-4388400D01*
X2129006Y-4540100D02*
X2153260Y-4509300D01*
X24353700Y-4429500D02*
X24384600Y-4453700D01*
X24535300Y-4679400D02*
X24546100Y-4717200D01*
X2378983Y-27418055D02*
X2342189Y-27404550D01*
X2208795Y-4453700D02*
X2239663Y-4429500D01*
X24176500Y-4347800D02*
X24214400Y-4358400D01*
X2533598Y-27442584D02*
X2494186Y-27441068D01*
X2272185Y-27368859D02*
X2239663Y-27347086D01*
X24099100Y-27441068D02*
X24059800Y-27442584D01*
X24440000Y-4509300D02*
X24464400Y-4540100D01*
X2129006Y-27236430D02*
X2107096Y-27203770D01*
X24321100Y-4407600D02*
X24353700Y-4429500D01*
X24099100Y-4335500D02*
X24138100Y-4340200D01*
X2179994Y-4480500D02*
X2208795Y-4453700D01*
X2342189Y-27404550D02*
X2306498Y-27388014D01*
X24413400Y-4480500D02*
X24440000Y-4509300D01*
X2306498Y-27388014D02*
X2272185Y-27368859D01*
X2416740Y-27428666D02*
X2378983Y-27418055D01*
D11*
X14347000Y-9295000D02*
X14517000Y-9465000D01*
X14517000Y-9295000D02*
X14347000Y-9465000D01*
X15363000Y-9295000D02*
X15533000Y-9465000D01*
X15533000Y-9295000D02*
X15363000Y-9465000D01*
X19107000Y-14275000D02*
X19277000Y-14445000D01*
X19277000Y-14275000D02*
X19107000Y-14445000D01*
X20123000Y-14275000D02*
X20293000Y-14445000D01*
X20293000Y-14275000D02*
X20123000Y-14445000D01*
X4347000Y-16895000D02*
X4517000Y-17065000D01*
X4517000Y-16895000D02*
X4347000Y-17065000D01*
X5363000Y-16895000D02*
X5533000Y-17065000D01*
X5533000Y-16895000D02*
X5363000Y-17065000D01*
X18627000Y-6655000D02*
X18797000Y-6825000D01*
X18797000Y-6655000D02*
X18627000Y-6825000D01*
X19643000Y-6655000D02*
X19813000Y-6825000D01*
X19813000Y-6655000D02*
X19643000Y-6825000D01*
X9587000Y-14035000D02*
X9757000Y-14205000D01*
X9757000Y-14035000D02*
X9587000Y-14205000D01*
X10603000Y-14035000D02*
X10773000Y-14205000D01*
X10773000Y-14035000D02*
X10603000Y-14205000D01*
X16727000Y-14275000D02*
X16897000Y-14445000D01*
X16897000Y-14275000D02*
X16727000Y-14445000D01*
X17743000Y-14275000D02*
X17913000Y-14445000D01*
X17913000Y-14275000D02*
X17743000Y-14445000D01*
X14347000Y-18795000D02*
X14517000Y-18965000D01*
X14517000Y-18795000D02*
X14347000Y-18965000D01*
X15363000Y-18795000D02*
X15533000Y-18965000D01*
X15533000Y-18795000D02*
X15363000Y-18965000D01*
X11967000Y-11415000D02*
X12137000Y-11585000D01*
X12137000Y-11415000D02*
X11967000Y-11585000D01*
X12983000Y-11415000D02*
X13153000Y-11585000D01*
X13153000Y-11415000D02*
X12983000Y-11585000D01*
X16727000Y-11895000D02*
X16897000Y-12065000D01*
X16897000Y-11895000D02*
X16727000Y-12065000D01*
X17743000Y-11895000D02*
X17913000Y-12065000D01*
X17913000Y-11895000D02*
X17743000Y-12065000D01*
X17735089Y-20231041D02*
X17905089Y-20401041D01*
X17905089Y-20231041D02*
X17735089Y-20401041D01*
X18614971Y-20739041D02*
X18784971Y-20909041D01*
X18784971Y-20739041D02*
X18614971Y-20909041D01*
X15767000Y-6655000D02*
X15937000Y-6825000D01*
X15937000Y-6655000D02*
X15767000Y-6825000D01*
X16783000Y-6655000D02*
X16953000Y-6825000D01*
X16953000Y-6655000D02*
X16783000Y-6825000D01*
X16727000Y-16635000D02*
X16897000Y-16805000D01*
X16897000Y-16635000D02*
X16727000Y-16805000D01*
X17743000Y-16635000D02*
X17913000Y-16805000D01*
X17913000Y-16635000D02*
X17743000Y-16805000D01*
X4347000Y-14515000D02*
X4517000Y-14685000D01*
X4517000Y-14515000D02*
X4347000Y-14685000D01*
X5363000Y-14515000D02*
X5533000Y-14685000D01*
X5533000Y-14515000D02*
X5363000Y-14685000D01*
X19107000Y-16655000D02*
X19277000Y-16825000D01*
X19277000Y-16655000D02*
X19107000Y-16825000D01*
X20123000Y-16655000D02*
X20293000Y-16825000D01*
X20293000Y-16655000D02*
X20123000Y-16825000D01*
X14347000Y-14035000D02*
X14517000Y-14205000D01*
X14517000Y-14035000D02*
X14347000Y-14205000D01*
X15363000Y-14035000D02*
X15533000Y-14205000D01*
X15533000Y-14035000D02*
X15363000Y-14205000D01*
X21995000Y-15667000D02*
X22165000Y-15837000D01*
X22165000Y-15667000D02*
X21995000Y-15837000D01*
X21995000Y-16683000D02*
X22165000Y-16853000D01*
X22165000Y-16683000D02*
X21995000Y-16853000D01*
X9587000Y-16415000D02*
X9757000Y-16585000D01*
X9757000Y-16415000D02*
X9587000Y-16585000D01*
X10603000Y-16415000D02*
X10773000Y-16585000D01*
X10773000Y-16415000D02*
X10603000Y-16585000D01*
X4327000Y-6675000D02*
X4497000Y-6845000D01*
X4497000Y-6675000D02*
X4327000Y-6845000D01*
X5343000Y-6675000D02*
X5513000Y-6845000D01*
X5513000Y-6675000D02*
X5343000Y-6845000D01*
X16727000Y-9515000D02*
X16897000Y-9685000D01*
X16897000Y-9515000D02*
X16727000Y-9685000D01*
X17743000Y-9515000D02*
X17913000Y-9685000D01*
X17913000Y-9515000D02*
X17743000Y-9685000D01*
X4847000Y-19275000D02*
X5017000Y-19445000D01*
X5017000Y-19275000D02*
X4847000Y-19445000D01*
X5863000Y-19275000D02*
X6033000Y-19445000D01*
X6033000Y-19275000D02*
X5863000Y-19445000D01*
X4347000Y-9755000D02*
X4517000Y-9925000D01*
X4517000Y-9755000D02*
X4347000Y-9925000D01*
X5363000Y-9755000D02*
X5533000Y-9925000D01*
X5533000Y-9755000D02*
X5363000Y-9925000D01*
X11967000Y-18555000D02*
X12137000Y-18725000D01*
X12137000Y-18555000D02*
X11967000Y-18725000D01*
X12983000Y-18555000D02*
X13153000Y-18725000D01*
X13153000Y-18555000D02*
X12983000Y-18725000D01*
X11967000Y-9035000D02*
X12137000Y-9205000D01*
X12137000Y-9035000D02*
X11967000Y-9205000D01*
X12983000Y-9035000D02*
X13153000Y-9205000D01*
X13153000Y-9035000D02*
X12983000Y-9205000D01*
X19107000Y-11875000D02*
X19277000Y-12045000D01*
X19277000Y-11875000D02*
X19107000Y-12045000D01*
X20123000Y-11875000D02*
X20293000Y-12045000D01*
X20293000Y-11875000D02*
X20123000Y-12045000D01*
X14367000Y-16415000D02*
X14537000Y-16585000D01*
X14537000Y-16415000D02*
X14367000Y-16585000D01*
X15383000Y-16415000D02*
X15553000Y-16585000D01*
X15553000Y-16415000D02*
X15383000Y-16585000D01*
X21995000Y-12327000D02*
X22165000Y-12497000D01*
X22165000Y-12327000D02*
X21995000Y-12497000D01*
X21995000Y-13343000D02*
X22165000Y-13513000D01*
X22165000Y-13343000D02*
X21995000Y-13513000D01*
X9587000Y-11655000D02*
X9757000Y-11825000D01*
X9757000Y-11655000D02*
X9587000Y-11825000D01*
X10603000Y-11655000D02*
X10773000Y-11825000D01*
X10773000Y-11655000D02*
X10603000Y-11825000D01*
X21865089Y-22601041D02*
X22035089Y-22771041D01*
X22035089Y-22601041D02*
X21865089Y-22771041D01*
X22744970Y-23109041D02*
X22914970Y-23279041D01*
X22914970Y-23109041D02*
X22744970Y-23279041D01*
X7207000Y-16895000D02*
X7377000Y-17065000D01*
X7377000Y-16895000D02*
X7207000Y-17065000D01*
X8223000Y-16895000D02*
X8393000Y-17065000D01*
X8393000Y-16895000D02*
X8223000Y-17065000D01*
X12907000Y-6655000D02*
X13077000Y-6825000D01*
X13077000Y-6655000D02*
X12907000Y-6825000D01*
X13923000Y-6655000D02*
X14093000Y-6825000D01*
X14093000Y-6655000D02*
X13923000Y-6825000D01*
X4347000Y-12135000D02*
X4517000Y-12305000D01*
X4517000Y-12135000D02*
X4347000Y-12305000D01*
X5363000Y-12135000D02*
X5533000Y-12305000D01*
X5533000Y-12135000D02*
X5363000Y-12305000D01*
X7207000Y-12135000D02*
X7377000Y-12305000D01*
X7377000Y-12135000D02*
X7207000Y-12305000D01*
X8223000Y-12135000D02*
X8393000Y-12305000D01*
X8393000Y-12135000D02*
X8223000Y-12305000D01*
X11967000Y-13795000D02*
X12137000Y-13965000D01*
X12137000Y-13795000D02*
X11967000Y-13965000D01*
X12983000Y-13795000D02*
X13153000Y-13965000D01*
X13153000Y-13795000D02*
X12983000Y-13965000D01*
X7187000Y-6655000D02*
X7357000Y-6825000D01*
X7357000Y-6655000D02*
X7187000Y-6825000D01*
X8203000Y-6655000D02*
X8373000Y-6825000D01*
X8373000Y-6655000D02*
X8203000Y-6825000D01*
X19107000Y-9515000D02*
X19277000Y-9685000D01*
X19277000Y-9515000D02*
X19107000Y-9685000D01*
X20123000Y-9515000D02*
X20293000Y-9685000D01*
X20293000Y-9515000D02*
X20123000Y-9685000D01*
X7207000Y-9755000D02*
X7377000Y-9925000D01*
X7377000Y-9755000D02*
X7207000Y-9925000D01*
X8223000Y-9755000D02*
X8393000Y-9925000D01*
X8393000Y-9755000D02*
X8223000Y-9925000D01*
X14347000Y-11655000D02*
X14517000Y-11825000D01*
X14517000Y-11655000D02*
X14347000Y-11825000D01*
X15363000Y-11655000D02*
X15533000Y-11825000D01*
X15533000Y-11655000D02*
X15363000Y-11825000D01*
X7207000Y-14515000D02*
X7377000Y-14685000D01*
X7377000Y-14515000D02*
X7207000Y-14685000D01*
X8223000Y-14515000D02*
X8393000Y-14685000D01*
X8393000Y-14515000D02*
X8223000Y-14685000D01*
X21487000Y-9495000D02*
X21657000Y-9665000D01*
X21657000Y-9495000D02*
X21487000Y-9665000D01*
X22503000Y-9495000D02*
X22673000Y-9665000D01*
X22673000Y-9495000D02*
X22503000Y-9665000D01*
X9587000Y-9275000D02*
X9757000Y-9445000D01*
X9757000Y-9275000D02*
X9587000Y-9445000D01*
X10603000Y-9275000D02*
X10773000Y-9445000D01*
X10773000Y-9275000D02*
X10603000Y-9445000D01*
X19805089Y-21421041D02*
X19975089Y-21591041D01*
X19975089Y-21421041D02*
X19805089Y-21591041D01*
X20684971Y-21929041D02*
X20854971Y-22099041D01*
X20854971Y-21929041D02*
X20684971Y-22099041D01*
X20985089Y-19361041D02*
X21155089Y-19531041D01*
X21155089Y-19361041D02*
X20985089Y-19531041D01*
X21864971Y-19869041D02*
X22034971Y-20039041D01*
X22034971Y-19869041D02*
X21864971Y-20039041D01*
X7207000Y-19275000D02*
X7377000Y-19445000D01*
X7377000Y-19275000D02*
X7207000Y-19445000D01*
X8223000Y-19275000D02*
X8393000Y-19445000D01*
X8393000Y-19275000D02*
X8223000Y-19445000D01*
X9587000Y-18795000D02*
X9757000Y-18965000D01*
X9757000Y-18795000D02*
X9587000Y-18965000D01*
X10603000Y-18795000D02*
X10773000Y-18965000D01*
X10773000Y-18795000D02*
X10603000Y-18965000D01*
X21467000Y-6655000D02*
X21637000Y-6825000D01*
X21637000Y-6655000D02*
X21467000Y-6825000D01*
X22483000Y-6655000D02*
X22653000Y-6825000D01*
X22653000Y-6655000D02*
X22483000Y-6825000D01*
X11967000Y-16175000D02*
X12137000Y-16345000D01*
X12137000Y-16175000D02*
X11967000Y-16345000D01*
X12983000Y-16175000D02*
X13153000Y-16345000D01*
X13153000Y-16175000D02*
X12983000Y-16345000D01*
X10047000Y-6655000D02*
X10217000Y-6825000D01*
X10217000Y-6655000D02*
X10047000Y-6825000D01*
X11063000Y-6655000D02*
X11233000Y-6825000D01*
X11233000Y-6655000D02*
X11063000Y-6825000D01*
X19420000Y-6740000D02*
G75*
G03*
X19420000Y-6740000I-200000J0D01*
G01*
X10380000Y-14120000D02*
G75*
G03*
X10380000Y-14120000I-200000J0D01*
G01*
X17520000Y-14360000D02*
G75*
G03*
X17520000Y-14360000I-200000J0D01*
G01*
X15140000Y-18880000D02*
G75*
G03*
X15140000Y-18880000I-200000J0D01*
G01*
X12760000Y-11500000D02*
G75*
G03*
X12760000Y-11500000I-200000J0D01*
G01*
X17520000Y-11980000D02*
G75*
G03*
X17520000Y-11980000I-200000J0D01*
G01*
X18460030Y-20570041D02*
G75*
G03*
X18460030Y-20570041I-200000J0D01*
G01*
X16560000Y-6740000D02*
G75*
G03*
X16560000Y-6740000I-200000J0D01*
G01*
X17520000Y-16720000D02*
G75*
G03*
X17520000Y-16720000I-200000J0D01*
G01*
X5140000Y-14600000D02*
G75*
G03*
X5140000Y-14600000I-200000J0D01*
G01*
X19900000Y-16740000D02*
G75*
G03*
X19900000Y-16740000I-200000J0D01*
G01*
X15140000Y-14120000D02*
G75*
G03*
X15140000Y-14120000I-200000J0D01*
G01*
X22280000Y-16260000D02*
G75*
G03*
X22280000Y-16260000I-200000J0D01*
G01*
X10380000Y-16500000D02*
G75*
G03*
X10380000Y-16500000I-200000J0D01*
G01*
X5120000Y-6760000D02*
G75*
G03*
X5120000Y-6760000I-200000J0D01*
G01*
X17520000Y-9600000D02*
G75*
G03*
X17520000Y-9600000I-200000J0D01*
G01*
X5640000Y-19360000D02*
G75*
G03*
X5640000Y-19360000I-200000J0D01*
G01*
X5140000Y-9840000D02*
G75*
G03*
X5140000Y-9840000I-200000J0D01*
G01*
X12760000Y-18640000D02*
G75*
G03*
X12760000Y-18640000I-200000J0D01*
G01*
X12760000Y-9120000D02*
G75*
G03*
X12760000Y-9120000I-200000J0D01*
G01*
X19900000Y-11960000D02*
G75*
G03*
X19900000Y-11960000I-200000J0D01*
G01*
X15160000Y-16500000D02*
G75*
G03*
X15160000Y-16500000I-200000J0D01*
G01*
X22280000Y-12920000D02*
G75*
G03*
X22280000Y-12920000I-200000J0D01*
G01*
X10380000Y-11740000D02*
G75*
G03*
X10380000Y-11740000I-200000J0D01*
G01*
X22590029Y-22940041D02*
G75*
G03*
X22590029Y-22940041I-200000J0D01*
G01*
X8000000Y-16980000D02*
G75*
G03*
X8000000Y-16980000I-200000J0D01*
G01*
X13700000Y-6740000D02*
G75*
G03*
X13700000Y-6740000I-200000J0D01*
G01*
X5140000Y-12220000D02*
G75*
G03*
X5140000Y-12220000I-200000J0D01*
G01*
X8000000Y-12220000D02*
G75*
G03*
X8000000Y-12220000I-200000J0D01*
G01*
X12760000Y-13880000D02*
G75*
G03*
X12760000Y-13880000I-200000J0D01*
G01*
X7980000Y-6740000D02*
G75*
G03*
X7980000Y-6740000I-200000J0D01*
G01*
X19900000Y-9600000D02*
G75*
G03*
X19900000Y-9600000I-200000J0D01*
G01*
X8000000Y-9840000D02*
G75*
G03*
X8000000Y-9840000I-200000J0D01*
G01*
X15140000Y-11740000D02*
G75*
G03*
X15140000Y-11740000I-200000J0D01*
G01*
X8000000Y-14600000D02*
G75*
G03*
X8000000Y-14600000I-200000J0D01*
G01*
X22280000Y-9580000D02*
G75*
G03*
X22280000Y-9580000I-200000J0D01*
G01*
X10380000Y-9360000D02*
G75*
G03*
X10380000Y-9360000I-200000J0D01*
G01*
X20530030Y-21760041D02*
G75*
G03*
X20530030Y-21760041I-200000J0D01*
G01*
X21710030Y-19700041D02*
G75*
G03*
X21710030Y-19700041I-200000J0D01*
G01*
X8000000Y-19360000D02*
G75*
G03*
X8000000Y-19360000I-200000J0D01*
G01*
X10380000Y-18880000D02*
G75*
G03*
X10380000Y-18880000I-200000J0D01*
G01*
X22260000Y-6740000D02*
G75*
G03*
X22260000Y-6740000I-200000J0D01*
G01*
X12760000Y-16260000D02*
G75*
G03*
X12760000Y-16260000I-200000J0D01*
G01*
X10840000Y-6740000D02*
G75*
G03*
X10840000Y-6740000I-200000J0D01*
G01*
X15140000Y-9380000D02*
G75*
G03*
X15140000Y-9380000I-200000J0D01*
G01*
X19900000Y-14360000D02*
G75*
G03*
X19900000Y-14360000I-200000J0D01*
G01*
X5140000Y-16980000D02*
G75*
G03*
X5140000Y-16980000I-200000J0D01*
G01*
D12*
X1936428Y-27918299D02*
X1936428Y-27618299D01*
X2007857Y-27618299D01*
X2050714Y-27632584D01*
X2079286Y-27661156D01*
X2093571Y-27689727D01*
X2107857Y-27746870D01*
X2107857Y-27789727D01*
X2093571Y-27846870D01*
X2079286Y-27875441D01*
X2050714Y-27904013D01*
X2007857Y-27918299D01*
X1936428Y-27918299D01*
X2236429Y-27918299D02*
X2236429Y-27718299D01*
X2236429Y-27775441D02*
X2250714Y-27746870D01*
X2265000Y-27732584D01*
X2293571Y-27718299D01*
X2322143Y-27718299D01*
X2422143Y-27918299D02*
X2422143Y-27718299D01*
X2422143Y-27618299D02*
X2407857Y-27632584D01*
X2422143Y-27646870D01*
X2436429Y-27632584D01*
X2422143Y-27618299D01*
X2422143Y-27646870D01*
X2607857Y-27918299D02*
X2579286Y-27904013D01*
X2565000Y-27875441D01*
X2565000Y-27618299D01*
X2765000Y-27918299D02*
X2736429Y-27904013D01*
X2722143Y-27875441D01*
X2722143Y-27618299D01*
X3107857Y-27918299D02*
X3107857Y-27618299D01*
X3207857Y-27832584D01*
X3307857Y-27618299D01*
X3307857Y-27918299D01*
X3579286Y-27918299D02*
X3579286Y-27761156D01*
X3565000Y-27732584D01*
X3536428Y-27718299D01*
X3479286Y-27718299D01*
X3450714Y-27732584D01*
X3579286Y-27904013D02*
X3550714Y-27918299D01*
X3479286Y-27918299D01*
X3450714Y-27904013D01*
X3436428Y-27875441D01*
X3436428Y-27846870D01*
X3450714Y-27818299D01*
X3479286Y-27804013D01*
X3550714Y-27804013D01*
X3579286Y-27789727D01*
X3722143Y-27718299D02*
X3722143Y-28018299D01*
X3722143Y-27732584D02*
X3750714Y-27718299D01*
X3807857Y-27718299D01*
X3836428Y-27732584D01*
X3850714Y-27746870D01*
X3865000Y-27775441D01*
X3865000Y-27861156D01*
X3850714Y-27889727D01*
X3836428Y-27904013D01*
X3807857Y-27918299D01*
X3750714Y-27918299D01*
X3722143Y-27904013D01*
X3993571Y-27889727D02*
X4007857Y-27904013D01*
X3993571Y-27918299D01*
X3979286Y-27904013D01*
X3993571Y-27889727D01*
X3993571Y-27918299D01*
X3993571Y-27732584D02*
X4007857Y-27746870D01*
X3993571Y-27761156D01*
X3979286Y-27746870D01*
X3993571Y-27732584D01*
X3993571Y-27761156D01*
X1480000Y-28327584D02*
X1650000Y-28497584D01*
X1650000Y-28327584D02*
X1480000Y-28497584D01*
X2093571Y-28548299D02*
X1922143Y-28548299D01*
X2007857Y-28548299D02*
X2007857Y-28248299D01*
X1979286Y-28291156D01*
X1950714Y-28319727D01*
X1922143Y-28334013D01*
X2222143Y-28519727D02*
X2236429Y-28534013D01*
X2222143Y-28548299D01*
X2207857Y-28534013D01*
X2222143Y-28519727D01*
X2222143Y-28548299D01*
X2336429Y-28248299D02*
X2536429Y-28248299D01*
X2407857Y-28548299D01*
X2707857Y-28248299D02*
X2736429Y-28248299D01*
X2765000Y-28262584D01*
X2779286Y-28276870D01*
X2793571Y-28305441D01*
X2807857Y-28362584D01*
X2807857Y-28434013D01*
X2793571Y-28491156D01*
X2779286Y-28519727D01*
X2765000Y-28534013D01*
X2736429Y-28548299D01*
X2707857Y-28548299D01*
X2679286Y-28534013D01*
X2665000Y-28519727D01*
X2650714Y-28491156D01*
X2636429Y-28434013D01*
X2636429Y-28362584D01*
X2650714Y-28305441D01*
X2665000Y-28276870D01*
X2679286Y-28262584D01*
X2707857Y-28248299D01*
X2936428Y-28548299D02*
X2936428Y-28348299D01*
X2936428Y-28376870D02*
X2950714Y-28362584D01*
X2979286Y-28348299D01*
X3022143Y-28348299D01*
X3050714Y-28362584D01*
X3065000Y-28391156D01*
X3065000Y-28548299D01*
X3065000Y-28391156D02*
X3079286Y-28362584D01*
X3107857Y-28348299D01*
X3150714Y-28348299D01*
X3179286Y-28362584D01*
X3193571Y-28391156D01*
X3193571Y-28548299D01*
X3336428Y-28548299D02*
X3336428Y-28348299D01*
X3336428Y-28376870D02*
X3350714Y-28362584D01*
X3379286Y-28348299D01*
X3422143Y-28348299D01*
X3450714Y-28362584D01*
X3465000Y-28391156D01*
X3465000Y-28548299D01*
X3465000Y-28391156D02*
X3479286Y-28362584D01*
X3507857Y-28348299D01*
X3550714Y-28348299D01*
X3579286Y-28362584D01*
X3593571Y-28391156D01*
X3593571Y-28548299D01*
X4179286Y-28234013D02*
X3922143Y-28619727D01*
X4565000Y-28248299D02*
X4593571Y-28248299D01*
X4622143Y-28262584D01*
X4636429Y-28276870D01*
X4650714Y-28305441D01*
X4665000Y-28362584D01*
X4665000Y-28434013D01*
X4650714Y-28491156D01*
X4636429Y-28519727D01*
X4622143Y-28534013D01*
X4593571Y-28548299D01*
X4565000Y-28548299D01*
X4536429Y-28534013D01*
X4522143Y-28519727D01*
X4507857Y-28491156D01*
X4493571Y-28434013D01*
X4493571Y-28362584D01*
X4507857Y-28305441D01*
X4522143Y-28276870D01*
X4536429Y-28262584D01*
X4565000Y-28248299D01*
X4793571Y-28519727D02*
X4807857Y-28534013D01*
X4793571Y-28548299D01*
X4779286Y-28534013D01*
X4793571Y-28519727D01*
X4793571Y-28548299D01*
X4993571Y-28248299D02*
X5022143Y-28248299D01*
X5050714Y-28262584D01*
X5065000Y-28276870D01*
X5079286Y-28305441D01*
X5093571Y-28362584D01*
X5093571Y-28434013D01*
X5079286Y-28491156D01*
X5065000Y-28519727D01*
X5050714Y-28534013D01*
X5022143Y-28548299D01*
X4993571Y-28548299D01*
X4965000Y-28534013D01*
X4950714Y-28519727D01*
X4936429Y-28491156D01*
X4922143Y-28434013D01*
X4922143Y-28362584D01*
X4936429Y-28305441D01*
X4950714Y-28276870D01*
X4965000Y-28262584D01*
X4993571Y-28248299D01*
X5350714Y-28248299D02*
X5293571Y-28248299D01*
X5265000Y-28262584D01*
X5250714Y-28276870D01*
X5222143Y-28319727D01*
X5207857Y-28376870D01*
X5207857Y-28491156D01*
X5222143Y-28519727D01*
X5236429Y-28534013D01*
X5265000Y-28548299D01*
X5322143Y-28548299D01*
X5350714Y-28534013D01*
X5365000Y-28519727D01*
X5379286Y-28491156D01*
X5379286Y-28419727D01*
X5365000Y-28391156D01*
X5350714Y-28376870D01*
X5322143Y-28362584D01*
X5265000Y-28362584D01*
X5236429Y-28376870D01*
X5222143Y-28391156D01*
X5207857Y-28419727D01*
X5479286Y-28248299D02*
X5679286Y-28248299D01*
X5550714Y-28548299D01*
X5779286Y-28248299D02*
X5779286Y-28305441D01*
X5893571Y-28248299D02*
X5893571Y-28305441D01*
X6336428Y-28662584D02*
X6322143Y-28648299D01*
X6293571Y-28605441D01*
X6279286Y-28576870D01*
X6265000Y-28534013D01*
X6250714Y-28462584D01*
X6250714Y-28405441D01*
X6265000Y-28334013D01*
X6279286Y-28291156D01*
X6293571Y-28262584D01*
X6322143Y-28219727D01*
X6336428Y-28205441D01*
X6465000Y-28548299D02*
X6522143Y-28548299D01*
X6550714Y-28534013D01*
X6565000Y-28519727D01*
X6593571Y-28476870D01*
X6607857Y-28419727D01*
X6607857Y-28305441D01*
X6593571Y-28276870D01*
X6579286Y-28262584D01*
X6550714Y-28248299D01*
X6493571Y-28248299D01*
X6465000Y-28262584D01*
X6450714Y-28276870D01*
X6436428Y-28305441D01*
X6436428Y-28376870D01*
X6450714Y-28405441D01*
X6465000Y-28419727D01*
X6493571Y-28434013D01*
X6550714Y-28434013D01*
X6579286Y-28419727D01*
X6593571Y-28405441D01*
X6607857Y-28376870D01*
X6865000Y-28348299D02*
X6865000Y-28548299D01*
X6793571Y-28234013D02*
X6722143Y-28448299D01*
X6907857Y-28448299D01*
X7250714Y-28548299D02*
X7250714Y-28248299D01*
X7379286Y-28548299D02*
X7379286Y-28391156D01*
X7365000Y-28362584D01*
X7336428Y-28348299D01*
X7293571Y-28348299D01*
X7265000Y-28362584D01*
X7250714Y-28376870D01*
X7565000Y-28548299D02*
X7536428Y-28534013D01*
X7522143Y-28519727D01*
X7507857Y-28491156D01*
X7507857Y-28405441D01*
X7522143Y-28376870D01*
X7536428Y-28362584D01*
X7565000Y-28348299D01*
X7607857Y-28348299D01*
X7636428Y-28362584D01*
X7650714Y-28376870D01*
X7665000Y-28405441D01*
X7665000Y-28491156D01*
X7650714Y-28519727D01*
X7636428Y-28534013D01*
X7607857Y-28548299D01*
X7565000Y-28548299D01*
X7836428Y-28548299D02*
X7807857Y-28534013D01*
X7793571Y-28505441D01*
X7793571Y-28248299D01*
X8065000Y-28534013D02*
X8036428Y-28548299D01*
X7979286Y-28548299D01*
X7950714Y-28534013D01*
X7936428Y-28505441D01*
X7936428Y-28391156D01*
X7950714Y-28362584D01*
X7979286Y-28348299D01*
X8036428Y-28348299D01*
X8065000Y-28362584D01*
X8079286Y-28391156D01*
X8079286Y-28419727D01*
X7936428Y-28448299D01*
X8193571Y-28534013D02*
X8222143Y-28548299D01*
X8279286Y-28548299D01*
X8307857Y-28534013D01*
X8322143Y-28505441D01*
X8322143Y-28491156D01*
X8307857Y-28462584D01*
X8279286Y-28448299D01*
X8236428Y-28448299D01*
X8207857Y-28434013D01*
X8193571Y-28405441D01*
X8193571Y-28391156D01*
X8207857Y-28362584D01*
X8236428Y-28348299D01*
X8279286Y-28348299D01*
X8307857Y-28362584D01*
X8422143Y-28662584D02*
X8436429Y-28648299D01*
X8465000Y-28605441D01*
X8479286Y-28576870D01*
X8493571Y-28534013D01*
X8507857Y-28462584D01*
X8507857Y-28405441D01*
X8493571Y-28334013D01*
X8479286Y-28291156D01*
X8465000Y-28262584D01*
X8436429Y-28219727D01*
X8422143Y-28205441D01*
X8965000Y-28662584D02*
X8950714Y-28648299D01*
X8922143Y-28605441D01*
X8907857Y-28576870D01*
X8893571Y-28534013D01*
X8879286Y-28462584D01*
X8879286Y-28405441D01*
X8893571Y-28334013D01*
X8907857Y-28291156D01*
X8922143Y-28262584D01*
X8950714Y-28219727D01*
X8965000Y-28205441D01*
X9079286Y-28348299D02*
X9079286Y-28548299D01*
X9079286Y-28376870D02*
X9093571Y-28362584D01*
X9122143Y-28348299D01*
X9165000Y-28348299D01*
X9193571Y-28362584D01*
X9207857Y-28391156D01*
X9207857Y-28548299D01*
X9393571Y-28548299D02*
X9365000Y-28534013D01*
X9350714Y-28519727D01*
X9336429Y-28491156D01*
X9336429Y-28405441D01*
X9350714Y-28376870D01*
X9365000Y-28362584D01*
X9393571Y-28348299D01*
X9436429Y-28348299D01*
X9465000Y-28362584D01*
X9479286Y-28376870D01*
X9493571Y-28405441D01*
X9493571Y-28491156D01*
X9479286Y-28519727D01*
X9465000Y-28534013D01*
X9436429Y-28548299D01*
X9393571Y-28548299D01*
X9579286Y-28348299D02*
X9693571Y-28348299D01*
X9622143Y-28248299D02*
X9622143Y-28505441D01*
X9636429Y-28534013D01*
X9665000Y-28548299D01*
X9693571Y-28548299D01*
X10022143Y-28348299D02*
X10022143Y-28648299D01*
X10022143Y-28362584D02*
X10050714Y-28348299D01*
X10107857Y-28348299D01*
X10136429Y-28362584D01*
X10150714Y-28376870D01*
X10165000Y-28405441D01*
X10165000Y-28491156D01*
X10150714Y-28519727D01*
X10136429Y-28534013D01*
X10107857Y-28548299D01*
X10050714Y-28548299D01*
X10022143Y-28534013D01*
X10336429Y-28548299D02*
X10307857Y-28534013D01*
X10293571Y-28505441D01*
X10293571Y-28248299D01*
X10579286Y-28548299D02*
X10579286Y-28391156D01*
X10565000Y-28362584D01*
X10536429Y-28348299D01*
X10479286Y-28348299D01*
X10450714Y-28362584D01*
X10579286Y-28534013D02*
X10550714Y-28548299D01*
X10479286Y-28548299D01*
X10450714Y-28534013D01*
X10436429Y-28505441D01*
X10436429Y-28476870D01*
X10450714Y-28448299D01*
X10479286Y-28434013D01*
X10550714Y-28434013D01*
X10579286Y-28419727D01*
X10679286Y-28348299D02*
X10793571Y-28348299D01*
X10722143Y-28248299D02*
X10722143Y-28505441D01*
X10736429Y-28534013D01*
X10765000Y-28548299D01*
X10793571Y-28548299D01*
X11007857Y-28534013D02*
X10979286Y-28548299D01*
X10922143Y-28548299D01*
X10893571Y-28534013D01*
X10879286Y-28505441D01*
X10879286Y-28391156D01*
X10893571Y-28362584D01*
X10922143Y-28348299D01*
X10979286Y-28348299D01*
X11007857Y-28362584D01*
X11022143Y-28391156D01*
X11022143Y-28419727D01*
X10879286Y-28448299D01*
X11279286Y-28548299D02*
X11279286Y-28248299D01*
X11279286Y-28534013D02*
X11250714Y-28548299D01*
X11193571Y-28548299D01*
X11165000Y-28534013D01*
X11150714Y-28519727D01*
X11136429Y-28491156D01*
X11136429Y-28405441D01*
X11150714Y-28376870D01*
X11165000Y-28362584D01*
X11193571Y-28348299D01*
X11250714Y-28348299D01*
X11279286Y-28362584D01*
X11393571Y-28662584D02*
X11407857Y-28648299D01*
X11436428Y-28605441D01*
X11450714Y-28576870D01*
X11465000Y-28534013D01*
X11479286Y-28462584D01*
X11479286Y-28405441D01*
X11465000Y-28334013D01*
X11450714Y-28291156D01*
X11436428Y-28262584D01*
X11407857Y-28219727D01*
X11393571Y-28205441D01*
X1650000Y-28808584D02*
G75*
G03*
X1650000Y-28808584I-200000J0D01*
G01*
X2065000Y-28744299D02*
X2065000Y-28944299D01*
X1993571Y-28630013D02*
X1922143Y-28844299D01*
X2107857Y-28844299D01*
X2222143Y-28915727D02*
X2236429Y-28930013D01*
X2222143Y-28944299D01*
X2207857Y-28930013D01*
X2222143Y-28915727D01*
X2222143Y-28944299D01*
X2422143Y-28644299D02*
X2450714Y-28644299D01*
X2479286Y-28658584D01*
X2493571Y-28672870D01*
X2507857Y-28701441D01*
X2522143Y-28758584D01*
X2522143Y-28830013D01*
X2507857Y-28887156D01*
X2493571Y-28915727D01*
X2479286Y-28930013D01*
X2450714Y-28944299D01*
X2422143Y-28944299D01*
X2393571Y-28930013D01*
X2379286Y-28915727D01*
X2365000Y-28887156D01*
X2350714Y-28830013D01*
X2350714Y-28758584D01*
X2365000Y-28701441D01*
X2379286Y-28672870D01*
X2393571Y-28658584D01*
X2422143Y-28644299D01*
X2707857Y-28644299D02*
X2736429Y-28644299D01*
X2765000Y-28658584D01*
X2779286Y-28672870D01*
X2793571Y-28701441D01*
X2807857Y-28758584D01*
X2807857Y-28830013D01*
X2793571Y-28887156D01*
X2779286Y-28915727D01*
X2765000Y-28930013D01*
X2736429Y-28944299D01*
X2707857Y-28944299D01*
X2679286Y-28930013D01*
X2665000Y-28915727D01*
X2650714Y-28887156D01*
X2636429Y-28830013D01*
X2636429Y-28758584D01*
X2650714Y-28701441D01*
X2665000Y-28672870D01*
X2679286Y-28658584D01*
X2707857Y-28644299D01*
X2936428Y-28944299D02*
X2936428Y-28744299D01*
X2936428Y-28772870D02*
X2950714Y-28758584D01*
X2979286Y-28744299D01*
X3022143Y-28744299D01*
X3050714Y-28758584D01*
X3065000Y-28787156D01*
X3065000Y-28944299D01*
X3065000Y-28787156D02*
X3079286Y-28758584D01*
X3107857Y-28744299D01*
X3150714Y-28744299D01*
X3179286Y-28758584D01*
X3193571Y-28787156D01*
X3193571Y-28944299D01*
X3336428Y-28944299D02*
X3336428Y-28744299D01*
X3336428Y-28772870D02*
X3350714Y-28758584D01*
X3379286Y-28744299D01*
X3422143Y-28744299D01*
X3450714Y-28758584D01*
X3465000Y-28787156D01*
X3465000Y-28944299D01*
X3465000Y-28787156D02*
X3479286Y-28758584D01*
X3507857Y-28744299D01*
X3550714Y-28744299D01*
X3579286Y-28758584D01*
X3593571Y-28787156D01*
X3593571Y-28944299D01*
X4179286Y-28630013D02*
X3922143Y-29015727D01*
X4565000Y-28644299D02*
X4593571Y-28644299D01*
X4622143Y-28658584D01*
X4636429Y-28672870D01*
X4650714Y-28701441D01*
X4665000Y-28758584D01*
X4665000Y-28830013D01*
X4650714Y-28887156D01*
X4636429Y-28915727D01*
X4622143Y-28930013D01*
X4593571Y-28944299D01*
X4565000Y-28944299D01*
X4536429Y-28930013D01*
X4522143Y-28915727D01*
X4507857Y-28887156D01*
X4493571Y-28830013D01*
X4493571Y-28758584D01*
X4507857Y-28701441D01*
X4522143Y-28672870D01*
X4536429Y-28658584D01*
X4565000Y-28644299D01*
X4793571Y-28915727D02*
X4807857Y-28930013D01*
X4793571Y-28944299D01*
X4779286Y-28930013D01*
X4793571Y-28915727D01*
X4793571Y-28944299D01*
X5093571Y-28944299D02*
X4922143Y-28944299D01*
X5007857Y-28944299D02*
X5007857Y-28644299D01*
X4979286Y-28687156D01*
X4950714Y-28715727D01*
X4922143Y-28730013D01*
X5365000Y-28644299D02*
X5222143Y-28644299D01*
X5207857Y-28787156D01*
X5222143Y-28772870D01*
X5250714Y-28758584D01*
X5322143Y-28758584D01*
X5350714Y-28772870D01*
X5365000Y-28787156D01*
X5379286Y-28815727D01*
X5379286Y-28887156D01*
X5365000Y-28915727D01*
X5350714Y-28930013D01*
X5322143Y-28944299D01*
X5250714Y-28944299D01*
X5222143Y-28930013D01*
X5207857Y-28915727D01*
X5479286Y-28644299D02*
X5679286Y-28644299D01*
X5550714Y-28944299D01*
X5779286Y-28644299D02*
X5779286Y-28701441D01*
X5893571Y-28644299D02*
X5893571Y-28701441D01*
X6336428Y-29058584D02*
X6322143Y-29044299D01*
X6293571Y-29001441D01*
X6279286Y-28972870D01*
X6265000Y-28930013D01*
X6250714Y-28858584D01*
X6250714Y-28801441D01*
X6265000Y-28730013D01*
X6279286Y-28687156D01*
X6293571Y-28658584D01*
X6322143Y-28615727D01*
X6336428Y-28601441D01*
X6579286Y-28744299D02*
X6579286Y-28944299D01*
X6507857Y-28630013D02*
X6436428Y-28844299D01*
X6622143Y-28844299D01*
X6707857Y-28644299D02*
X6907857Y-28644299D01*
X6779286Y-28944299D01*
X7250714Y-28944299D02*
X7250714Y-28644299D01*
X7379286Y-28944299D02*
X7379286Y-28787156D01*
X7365000Y-28758584D01*
X7336428Y-28744299D01*
X7293571Y-28744299D01*
X7265000Y-28758584D01*
X7250714Y-28772870D01*
X7565000Y-28944299D02*
X7536428Y-28930013D01*
X7522143Y-28915727D01*
X7507857Y-28887156D01*
X7507857Y-28801441D01*
X7522143Y-28772870D01*
X7536428Y-28758584D01*
X7565000Y-28744299D01*
X7607857Y-28744299D01*
X7636428Y-28758584D01*
X7650714Y-28772870D01*
X7665000Y-28801441D01*
X7665000Y-28887156D01*
X7650714Y-28915727D01*
X7636428Y-28930013D01*
X7607857Y-28944299D01*
X7565000Y-28944299D01*
X7836428Y-28944299D02*
X7807857Y-28930013D01*
X7793571Y-28901441D01*
X7793571Y-28644299D01*
X8065000Y-28930013D02*
X8036428Y-28944299D01*
X7979286Y-28944299D01*
X7950714Y-28930013D01*
X7936428Y-28901441D01*
X7936428Y-28787156D01*
X7950714Y-28758584D01*
X7979286Y-28744299D01*
X8036428Y-28744299D01*
X8065000Y-28758584D01*
X8079286Y-28787156D01*
X8079286Y-28815727D01*
X7936428Y-28844299D01*
X8193571Y-28930013D02*
X8222143Y-28944299D01*
X8279286Y-28944299D01*
X8307857Y-28930013D01*
X8322143Y-28901441D01*
X8322143Y-28887156D01*
X8307857Y-28858584D01*
X8279286Y-28844299D01*
X8236428Y-28844299D01*
X8207857Y-28830013D01*
X8193571Y-28801441D01*
X8193571Y-28787156D01*
X8207857Y-28758584D01*
X8236428Y-28744299D01*
X8279286Y-28744299D01*
X8307857Y-28758584D01*
X8422143Y-29058584D02*
X8436429Y-29044299D01*
X8465000Y-29001441D01*
X8479286Y-28972870D01*
X8493571Y-28930013D01*
X8507857Y-28858584D01*
X8507857Y-28801441D01*
X8493571Y-28730013D01*
X8479286Y-28687156D01*
X8465000Y-28658584D01*
X8436429Y-28615727D01*
X8422143Y-28601441D01*
X8965000Y-29058584D02*
X8950714Y-29044299D01*
X8922143Y-29001441D01*
X8907857Y-28972870D01*
X8893571Y-28930013D01*
X8879286Y-28858584D01*
X8879286Y-28801441D01*
X8893571Y-28730013D01*
X8907857Y-28687156D01*
X8922143Y-28658584D01*
X8950714Y-28615727D01*
X8965000Y-28601441D01*
X9079286Y-28744299D02*
X9079286Y-28944299D01*
X9079286Y-28772870D02*
X9093571Y-28758584D01*
X9122143Y-28744299D01*
X9165000Y-28744299D01*
X9193571Y-28758584D01*
X9207857Y-28787156D01*
X9207857Y-28944299D01*
X9393571Y-28944299D02*
X9365000Y-28930013D01*
X9350714Y-28915727D01*
X9336429Y-28887156D01*
X9336429Y-28801441D01*
X9350714Y-28772870D01*
X9365000Y-28758584D01*
X9393571Y-28744299D01*
X9436429Y-28744299D01*
X9465000Y-28758584D01*
X9479286Y-28772870D01*
X9493571Y-28801441D01*
X9493571Y-28887156D01*
X9479286Y-28915727D01*
X9465000Y-28930013D01*
X9436429Y-28944299D01*
X9393571Y-28944299D01*
X9579286Y-28744299D02*
X9693571Y-28744299D01*
X9622143Y-28644299D02*
X9622143Y-28901441D01*
X9636429Y-28930013D01*
X9665000Y-28944299D01*
X9693571Y-28944299D01*
X10022143Y-28744299D02*
X10022143Y-29044299D01*
X10022143Y-28758584D02*
X10050714Y-28744299D01*
X10107857Y-28744299D01*
X10136429Y-28758584D01*
X10150714Y-28772870D01*
X10165000Y-28801441D01*
X10165000Y-28887156D01*
X10150714Y-28915727D01*
X10136429Y-28930013D01*
X10107857Y-28944299D01*
X10050714Y-28944299D01*
X10022143Y-28930013D01*
X10336429Y-28944299D02*
X10307857Y-28930013D01*
X10293571Y-28901441D01*
X10293571Y-28644299D01*
X10579286Y-28944299D02*
X10579286Y-28787156D01*
X10565000Y-28758584D01*
X10536429Y-28744299D01*
X10479286Y-28744299D01*
X10450714Y-28758584D01*
X10579286Y-28930013D02*
X10550714Y-28944299D01*
X10479286Y-28944299D01*
X10450714Y-28930013D01*
X10436429Y-28901441D01*
X10436429Y-28872870D01*
X10450714Y-28844299D01*
X10479286Y-28830013D01*
X10550714Y-28830013D01*
X10579286Y-28815727D01*
X10679286Y-28744299D02*
X10793571Y-28744299D01*
X10722143Y-28644299D02*
X10722143Y-28901441D01*
X10736429Y-28930013D01*
X10765000Y-28944299D01*
X10793571Y-28944299D01*
X11007857Y-28930013D02*
X10979286Y-28944299D01*
X10922143Y-28944299D01*
X10893571Y-28930013D01*
X10879286Y-28901441D01*
X10879286Y-28787156D01*
X10893571Y-28758584D01*
X10922143Y-28744299D01*
X10979286Y-28744299D01*
X11007857Y-28758584D01*
X11022143Y-28787156D01*
X11022143Y-28815727D01*
X10879286Y-28844299D01*
X11279286Y-28944299D02*
X11279286Y-28644299D01*
X11279286Y-28930013D02*
X11250714Y-28944299D01*
X11193571Y-28944299D01*
X11165000Y-28930013D01*
X11150714Y-28915727D01*
X11136429Y-28887156D01*
X11136429Y-28801441D01*
X11150714Y-28772870D01*
X11165000Y-28758584D01*
X11193571Y-28744299D01*
X11250714Y-28744299D01*
X11279286Y-28758584D01*
X11393571Y-29058584D02*
X11407857Y-29044299D01*
X11436428Y-29001441D01*
X11450714Y-28972870D01*
X11465000Y-28930013D01*
X11479286Y-28858584D01*
X11479286Y-28801441D01*
X11465000Y-28730013D01*
X11450714Y-28687156D01*
X11436428Y-28658584D01*
X11407857Y-28615727D01*
X11393571Y-28601441D01*
M02*
