M48
; DRILL file {KiCad 5.1.6-c6e7f7d~87~ubuntu20.04.1} date Wed Sep  9 12:41:03 2020
; FORMAT={-:-/ absolute / metric / decimal}
; #@! TF.CreationDate,2020-09-09T12:41:03+02:00
; #@! TF.GenerationSoftware,Kicad,Pcbnew,5.1.6-c6e7f7d~87~ubuntu20.04.1
; #@! TF.FileFunction,NonPlated,1,2,NPTH
FMAT,2
METRIC
T1C1.700
T2C4.000
%
G90
G05
T1
X72.92Y-98.4
X83.08Y-98.4
X144.32Y-93.8
X154.48Y-93.8
X49.32Y-193.6
X59.48Y-193.6
X96.72Y-141.2
X106.88Y-141.2
X191.92Y-143.6
X202.08Y-143.6
X144.32Y-188.8
X154.48Y-188.8
X120.52Y-115.0
X130.68Y-115.0
X72.92Y-193.6
X83.08Y-193.6
X168.12Y-143.6
X178.28Y-143.6
X158.52Y-67.4
X168.68Y-67.4
X44.12Y-67.6
X54.28Y-67.6
X168.12Y-119.8
X178.28Y-119.8
X178.201Y-203.16
X187.0Y-208.24
X144.32Y-141.2
X154.48Y-141.2
X168.12Y-167.2
X178.28Y-167.2
X44.32Y-98.4
X54.48Y-98.4
X96.72Y-165.0
X106.88Y-165.0
X191.92Y-167.4
X202.08Y-167.4
X72.92Y-146.0
X83.08Y-146.0
X220.8Y-157.52
X220.8Y-167.68
X120.52Y-186.4
X130.68Y-186.4
X168.12Y-96.0
X178.28Y-96.0
X120.52Y-91.2
X130.68Y-91.2
X144.52Y-165.0
X154.68Y-165.0
X44.32Y-122.2
X54.48Y-122.2
X72.92Y-169.8
X83.08Y-169.8
X96.72Y-117.4
X106.88Y-117.4
X191.92Y-119.6
X202.08Y-119.6
X129.92Y-67.4
X140.08Y-67.4
X44.32Y-169.8
X54.48Y-169.8
X220.8Y-124.12
X220.8Y-134.28
X219.501Y-226.86
X228.3Y-231.94
X187.12Y-67.4
X197.28Y-67.4
X120.52Y-138.8
X130.68Y-138.8
X144.32Y-117.4
X154.48Y-117.4
X96.72Y-93.6
X106.88Y-93.6
X191.92Y-96.0
X202.08Y-96.0
X44.32Y-146.0
X54.48Y-146.0
X96.72Y-188.8
X106.88Y-188.8
X215.72Y-95.8
X225.88Y-95.8
X198.901Y-215.06
X207.7Y-220.14
X72.92Y-122.2
X83.08Y-122.2
X120.52Y-162.6
X130.68Y-162.6
X72.72Y-67.4
X82.88Y-67.4
X101.32Y-67.4
X111.48Y-67.4
X210.701Y-194.46
X219.5Y-199.54
X215.52Y-67.4
X225.68Y-67.4
T2
X101.8Y-141.2
X197.0Y-143.6
X149.4Y-188.8
X125.6Y-115.0
X78.0Y-193.6
X173.2Y-143.6
X163.6Y-67.4
X49.2Y-67.6
X173.2Y-119.8
X182.6Y-205.7
X149.4Y-141.2
X173.2Y-167.2
X49.4Y-98.4
X101.8Y-165.0
X197.0Y-167.4
X78.0Y-146.0
X220.8Y-162.6
X125.6Y-186.4
X173.2Y-96.0
X125.6Y-91.2
X149.6Y-165.0
X49.4Y-122.2
X78.0Y-169.8
X101.8Y-117.4
X197.0Y-119.6
X135.0Y-67.4
X49.4Y-169.8
X220.8Y-129.2
X223.9Y-229.4
X192.2Y-67.4
X125.6Y-138.8
X149.4Y-117.4
X101.8Y-93.6
X197.0Y-96.0
X49.4Y-146.0
X101.8Y-188.8
X220.8Y-95.8
X203.3Y-217.6
X78.0Y-122.2
X125.6Y-162.6
X77.8Y-67.4
X106.4Y-67.4
X215.1Y-197.0
X220.6Y-67.4
X78.0Y-98.4
X149.4Y-93.8
X54.4Y-193.6
T0
M30
