%FSLAX45Y45*%
G04 Gerber Fmt 4.5, Leading zero omitted, Abs format (unit mm)*
G04 Created by KiCad (PCBNEW 5.1.6-c6e7f7d~87~ubuntu20.04.1) date 2020-09-08 11:47:34*
%MOMM*%
%LPD*%
G01*
G04 APERTURE LIST*
%TA.AperFunction,Profile*%
%ADD10C,0.200000*%
%TD*%
%ADD11C,0.200000*%
%ADD12C,0.300000*%
G04 APERTURE END LIST*
D10*
X2047289Y-4717200D02*
X2057900Y-4679400D01*
X24138100Y-27436383D02*
X24099100Y-27441068D01*
X24286900Y-27388014D02*
X24251200Y-27404550D01*
X2455190Y-27436383D02*
X2416740Y-27428666D01*
X24505300Y-4607000D02*
X24521700Y-4642700D01*
X24559900Y-26942493D02*
X24558400Y-26981768D01*
X2087941Y-4607000D02*
X2107096Y-4572700D01*
X24546100Y-4717200D02*
X24553700Y-4755700D01*
X2033508Y-26942493D02*
X2033508Y-4834100D01*
X2087941Y-27169595D02*
X2071542Y-27133904D01*
X2039710Y-27020768D02*
X2035024Y-26981768D01*
X2179994Y-27296099D02*
X2153260Y-27267160D01*
X24559900Y-4834100D02*
X24559900Y-26942493D01*
X24535300Y-27096971D02*
X24521700Y-27133904D01*
X24251200Y-27404550D02*
X24214400Y-27418055D01*
X2035024Y-26981768D02*
X2033508Y-26942493D01*
X2494186Y-4335500D02*
X2533598Y-4334000D01*
X2057900Y-4679400D02*
X2071542Y-4642700D01*
X24059800Y-4334000D02*
X24099100Y-4335500D01*
X2239663Y-27347086D02*
X2208795Y-27322695D01*
X24353700Y-27347086D02*
X24321100Y-27368859D01*
X2071542Y-27133904D02*
X2057900Y-27096971D01*
X2153260Y-27267160D02*
X2129006Y-27236430D01*
X2239663Y-4429500D02*
X2272185Y-4407600D01*
X2342189Y-4372000D02*
X2378983Y-4358400D01*
X24413400Y-27296099D02*
X24384600Y-27322695D01*
X2057900Y-27096971D02*
X2047289Y-27059213D01*
X2033508Y-4834100D02*
X2035024Y-4794700D01*
X2035024Y-4794700D02*
X2039710Y-4755700D01*
X2455190Y-4340200D02*
X2494186Y-4335500D01*
X24546100Y-27059213D02*
X24535300Y-27096971D01*
X24176500Y-27428666D02*
X24138100Y-27436383D01*
X24553700Y-27020768D02*
X24546100Y-27059213D01*
X24464400Y-4540100D02*
X24486200Y-4572700D01*
X24321100Y-27368859D02*
X24286900Y-27388014D01*
X24505300Y-27169595D02*
X24486200Y-27203770D01*
X2153260Y-4509300D02*
X2179994Y-4480500D01*
X2533598Y-4334000D02*
X24059800Y-4334000D01*
X2047289Y-27059213D02*
X2039710Y-27020768D01*
X24553700Y-4755700D02*
X24558400Y-4794700D01*
X2494186Y-27441068D02*
X2455190Y-27436383D01*
X24214400Y-27418055D02*
X24176500Y-27428666D01*
X2107096Y-27203770D02*
X2087941Y-27169595D01*
X24486200Y-4572700D02*
X24505300Y-4607000D01*
X24521700Y-4642700D02*
X24535300Y-4679400D01*
X24558400Y-26981768D02*
X24553700Y-27020768D01*
X2039710Y-4755700D02*
X2047289Y-4717200D01*
X24214400Y-4358400D02*
X24251200Y-4372000D01*
X2107096Y-4572700D02*
X2129006Y-4540100D01*
X2378983Y-4358400D02*
X2416740Y-4347800D01*
X24384600Y-4453700D02*
X24413400Y-4480500D01*
X24384600Y-27322695D02*
X24353700Y-27347086D01*
X24464400Y-27236430D02*
X24440000Y-27267160D01*
X24521700Y-27133904D02*
X24505300Y-27169595D01*
X2208795Y-27322695D02*
X2179994Y-27296099D01*
X24286900Y-4388400D02*
X24321100Y-4407600D01*
X24558400Y-4794700D02*
X24559900Y-4834100D01*
X2272185Y-4407600D02*
X2306498Y-4388400D01*
X2306498Y-4388400D02*
X2342189Y-4372000D01*
X2071542Y-4642700D02*
X2087941Y-4607000D01*
X24440000Y-27267160D02*
X24413400Y-27296099D01*
X2416740Y-4347800D02*
X2455190Y-4340200D01*
X24138100Y-4340200D02*
X24176500Y-4347800D01*
X24486200Y-27203770D02*
X24464400Y-27236430D01*
X24059800Y-27442584D02*
X2533598Y-27442584D01*
X24251200Y-4372000D02*
X24286900Y-4388400D01*
X2129006Y-4540100D02*
X2153260Y-4509300D01*
X24353700Y-4429500D02*
X24384600Y-4453700D01*
X24535300Y-4679400D02*
X24546100Y-4717200D01*
X2378983Y-27418055D02*
X2342189Y-27404550D01*
X2208795Y-4453700D02*
X2239663Y-4429500D01*
X24176500Y-4347800D02*
X24214400Y-4358400D01*
X2533598Y-27442584D02*
X2494186Y-27441068D01*
X2272185Y-27368859D02*
X2239663Y-27347086D01*
X24099100Y-27441068D02*
X24059800Y-27442584D01*
X24440000Y-4509300D02*
X24464400Y-4540100D01*
X2129006Y-27236430D02*
X2107096Y-27203770D01*
X24321100Y-4407600D02*
X24353700Y-4429500D01*
X24099100Y-4335500D02*
X24138100Y-4340200D01*
X2179994Y-4480500D02*
X2208795Y-4453700D01*
X2342189Y-27404550D02*
X2306498Y-27388014D01*
X24413400Y-4480500D02*
X24440000Y-4509300D01*
X2306498Y-27388014D02*
X2272185Y-27368859D01*
X2416740Y-27428666D02*
X2378983Y-27418055D01*
D11*
X20935089Y-24241041D02*
X21105089Y-24411041D01*
X21105089Y-24241041D02*
X20935089Y-24411041D01*
X21814971Y-24749041D02*
X21984971Y-24919041D01*
X21984971Y-24749041D02*
X21814971Y-24919041D01*
X7207000Y-9755000D02*
X7377000Y-9925000D01*
X7377000Y-9755000D02*
X7207000Y-9925000D01*
X8223000Y-9755000D02*
X8393000Y-9925000D01*
X8393000Y-9755000D02*
X8223000Y-9925000D01*
X16727000Y-14275000D02*
X16897000Y-14445000D01*
X16897000Y-14275000D02*
X16727000Y-14445000D01*
X17743000Y-14275000D02*
X17913000Y-14445000D01*
X17913000Y-14275000D02*
X17743000Y-14445000D01*
X21995000Y-15667000D02*
X22165000Y-15837000D01*
X22165000Y-15667000D02*
X21995000Y-15837000D01*
X21995000Y-16683000D02*
X22165000Y-16853000D01*
X22165000Y-16683000D02*
X21995000Y-16853000D01*
X19107000Y-16655000D02*
X19277000Y-16825000D01*
X19277000Y-16655000D02*
X19107000Y-16825000D01*
X20123000Y-16655000D02*
X20293000Y-16825000D01*
X20293000Y-16655000D02*
X20123000Y-16825000D01*
X11967000Y-11415000D02*
X12137000Y-11585000D01*
X12137000Y-11415000D02*
X11967000Y-11585000D01*
X12983000Y-11415000D02*
X13153000Y-11585000D01*
X13153000Y-11415000D02*
X12983000Y-11585000D01*
X7207000Y-14515000D02*
X7377000Y-14685000D01*
X7377000Y-14515000D02*
X7207000Y-14685000D01*
X8223000Y-14515000D02*
X8393000Y-14685000D01*
X8393000Y-14515000D02*
X8223000Y-14685000D01*
X9587000Y-16415000D02*
X9757000Y-16585000D01*
X9757000Y-16415000D02*
X9587000Y-16585000D01*
X10603000Y-16415000D02*
X10773000Y-16585000D01*
X10773000Y-16415000D02*
X10603000Y-16585000D01*
X16727000Y-11895000D02*
X16897000Y-12065000D01*
X16897000Y-11895000D02*
X16727000Y-12065000D01*
X17743000Y-11895000D02*
X17913000Y-12065000D01*
X17913000Y-11895000D02*
X17743000Y-12065000D01*
X14347000Y-14035000D02*
X14517000Y-14205000D01*
X14517000Y-14035000D02*
X14347000Y-14205000D01*
X15363000Y-14035000D02*
X15533000Y-14205000D01*
X15533000Y-14035000D02*
X15363000Y-14205000D01*
X18875089Y-23061041D02*
X19045089Y-23231041D01*
X19045089Y-23061041D02*
X18875089Y-23231041D01*
X19754971Y-23569041D02*
X19924971Y-23739041D01*
X19924971Y-23569041D02*
X19754971Y-23739041D01*
X15767000Y-6655000D02*
X15937000Y-6825000D01*
X15937000Y-6655000D02*
X15767000Y-6825000D01*
X16783000Y-6655000D02*
X16953000Y-6825000D01*
X16953000Y-6655000D02*
X16783000Y-6825000D01*
X7207000Y-16895000D02*
X7377000Y-17065000D01*
X7377000Y-16895000D02*
X7207000Y-17065000D01*
X8223000Y-16895000D02*
X8393000Y-17065000D01*
X8393000Y-16895000D02*
X8223000Y-17065000D01*
X21995000Y-12327000D02*
X22165000Y-12497000D01*
X22165000Y-12327000D02*
X21995000Y-12497000D01*
X21995000Y-13343000D02*
X22165000Y-13513000D01*
X22165000Y-13343000D02*
X21995000Y-13513000D01*
X9587000Y-11655000D02*
X9757000Y-11825000D01*
X9757000Y-11655000D02*
X9587000Y-11825000D01*
X10603000Y-11655000D02*
X10773000Y-11825000D01*
X10773000Y-11655000D02*
X10603000Y-11825000D01*
X19107000Y-11875000D02*
X19277000Y-12045000D01*
X19277000Y-11875000D02*
X19107000Y-12045000D01*
X20123000Y-11875000D02*
X20293000Y-12045000D01*
X20293000Y-11875000D02*
X20123000Y-12045000D01*
X11967000Y-9035000D02*
X12137000Y-9205000D01*
X12137000Y-9035000D02*
X11967000Y-9205000D01*
X12983000Y-9035000D02*
X13153000Y-9205000D01*
X13153000Y-9035000D02*
X12983000Y-9205000D01*
X4347000Y-14515000D02*
X4517000Y-14685000D01*
X4517000Y-14515000D02*
X4347000Y-14685000D01*
X5363000Y-14515000D02*
X5533000Y-14685000D01*
X5533000Y-14515000D02*
X5363000Y-14685000D01*
X16727000Y-9515000D02*
X16897000Y-9685000D01*
X16897000Y-9515000D02*
X16727000Y-9685000D01*
X17743000Y-9515000D02*
X17913000Y-9685000D01*
X17913000Y-9515000D02*
X17743000Y-9685000D01*
X9587000Y-9275000D02*
X9757000Y-9445000D01*
X9757000Y-9275000D02*
X9587000Y-9445000D01*
X10603000Y-9275000D02*
X10773000Y-9445000D01*
X10773000Y-9275000D02*
X10603000Y-9445000D01*
X4347000Y-16895000D02*
X4517000Y-17065000D01*
X4517000Y-16895000D02*
X4347000Y-17065000D01*
X5363000Y-16895000D02*
X5533000Y-17065000D01*
X5533000Y-16895000D02*
X5363000Y-17065000D01*
X14367000Y-16415000D02*
X14537000Y-16585000D01*
X14537000Y-16415000D02*
X14367000Y-16585000D01*
X15383000Y-16415000D02*
X15553000Y-16585000D01*
X15553000Y-16415000D02*
X15383000Y-16585000D01*
X4347000Y-12135000D02*
X4517000Y-12305000D01*
X4517000Y-12135000D02*
X4347000Y-12305000D01*
X5363000Y-12135000D02*
X5533000Y-12305000D01*
X5533000Y-12135000D02*
X5363000Y-12305000D01*
X12907000Y-6655000D02*
X13077000Y-6825000D01*
X13077000Y-6655000D02*
X12907000Y-6825000D01*
X13923000Y-6655000D02*
X14093000Y-6825000D01*
X14093000Y-6655000D02*
X13923000Y-6825000D01*
X4327000Y-6675000D02*
X4497000Y-6845000D01*
X4497000Y-6675000D02*
X4327000Y-6845000D01*
X5343000Y-6675000D02*
X5513000Y-6845000D01*
X5513000Y-6675000D02*
X5343000Y-6845000D01*
X7187000Y-6655000D02*
X7357000Y-6825000D01*
X7357000Y-6655000D02*
X7187000Y-6825000D01*
X8203000Y-6655000D02*
X8373000Y-6825000D01*
X8373000Y-6655000D02*
X8203000Y-6825000D01*
X11967000Y-18555000D02*
X12137000Y-18725000D01*
X12137000Y-18555000D02*
X11967000Y-18725000D01*
X12983000Y-18555000D02*
X13153000Y-18725000D01*
X13153000Y-18555000D02*
X12983000Y-18725000D01*
X21487000Y-9495000D02*
X21657000Y-9665000D01*
X21657000Y-9495000D02*
X21487000Y-9665000D01*
X22503000Y-9495000D02*
X22673000Y-9665000D01*
X22673000Y-9495000D02*
X22503000Y-9665000D01*
X19107000Y-9515000D02*
X19277000Y-9685000D01*
X19277000Y-9515000D02*
X19107000Y-9685000D01*
X20123000Y-9515000D02*
X20293000Y-9685000D01*
X20293000Y-9515000D02*
X20123000Y-9685000D01*
X20055089Y-21001041D02*
X20225089Y-21171041D01*
X20225089Y-21001041D02*
X20055089Y-21171041D01*
X20934971Y-21509041D02*
X21104971Y-21679041D01*
X21104971Y-21509041D02*
X20934971Y-21679041D01*
X4847000Y-19275000D02*
X5017000Y-19445000D01*
X5017000Y-19275000D02*
X4847000Y-19445000D01*
X5863000Y-19275000D02*
X6033000Y-19445000D01*
X6033000Y-19275000D02*
X5863000Y-19445000D01*
X7207000Y-12135000D02*
X7377000Y-12305000D01*
X7377000Y-12135000D02*
X7207000Y-12305000D01*
X8223000Y-12135000D02*
X8393000Y-12305000D01*
X8393000Y-12135000D02*
X8223000Y-12305000D01*
X4347000Y-9755000D02*
X4517000Y-9925000D01*
X4517000Y-9755000D02*
X4347000Y-9925000D01*
X5363000Y-9755000D02*
X5533000Y-9925000D01*
X5533000Y-9755000D02*
X5363000Y-9925000D01*
X10047000Y-6655000D02*
X10217000Y-6825000D01*
X10217000Y-6655000D02*
X10047000Y-6825000D01*
X11063000Y-6655000D02*
X11233000Y-6825000D01*
X11233000Y-6655000D02*
X11063000Y-6825000D01*
X21467000Y-6655000D02*
X21637000Y-6825000D01*
X21637000Y-6655000D02*
X21467000Y-6825000D01*
X22483000Y-6655000D02*
X22653000Y-6825000D01*
X22653000Y-6655000D02*
X22483000Y-6825000D01*
X14347000Y-11655000D02*
X14517000Y-11825000D01*
X14517000Y-11655000D02*
X14347000Y-11825000D01*
X15363000Y-11655000D02*
X15533000Y-11825000D01*
X15533000Y-11655000D02*
X15363000Y-11825000D01*
X9587000Y-18795000D02*
X9757000Y-18965000D01*
X9757000Y-18795000D02*
X9587000Y-18965000D01*
X10603000Y-18795000D02*
X10773000Y-18965000D01*
X10773000Y-18795000D02*
X10603000Y-18965000D01*
X11967000Y-13795000D02*
X12137000Y-13965000D01*
X12137000Y-13795000D02*
X11967000Y-13965000D01*
X12983000Y-13795000D02*
X13153000Y-13965000D01*
X13153000Y-13795000D02*
X12983000Y-13965000D01*
X18627000Y-6655000D02*
X18797000Y-6825000D01*
X18797000Y-6655000D02*
X18627000Y-6825000D01*
X19643000Y-6655000D02*
X19813000Y-6825000D01*
X19813000Y-6655000D02*
X19643000Y-6825000D01*
X16815089Y-21861041D02*
X16985089Y-22031041D01*
X16985089Y-21861041D02*
X16815089Y-22031041D01*
X17694971Y-22369041D02*
X17864971Y-22539041D01*
X17864971Y-22369041D02*
X17694971Y-22539041D01*
X19107000Y-14275000D02*
X19277000Y-14445000D01*
X19277000Y-14275000D02*
X19107000Y-14445000D01*
X20123000Y-14275000D02*
X20293000Y-14445000D01*
X20293000Y-14275000D02*
X20123000Y-14445000D01*
X11967000Y-16175000D02*
X12137000Y-16345000D01*
X12137000Y-16175000D02*
X11967000Y-16345000D01*
X12983000Y-16175000D02*
X13153000Y-16345000D01*
X13153000Y-16175000D02*
X12983000Y-16345000D01*
X7207000Y-19275000D02*
X7377000Y-19445000D01*
X7377000Y-19275000D02*
X7207000Y-19445000D01*
X8223000Y-19275000D02*
X8393000Y-19445000D01*
X8393000Y-19275000D02*
X8223000Y-19445000D01*
X14347000Y-9295000D02*
X14517000Y-9465000D01*
X14517000Y-9295000D02*
X14347000Y-9465000D01*
X15363000Y-9295000D02*
X15533000Y-9465000D01*
X15533000Y-9295000D02*
X15363000Y-9465000D01*
X9587000Y-14035000D02*
X9757000Y-14205000D01*
X9757000Y-14035000D02*
X9587000Y-14205000D01*
X10603000Y-14035000D02*
X10773000Y-14205000D01*
X10773000Y-14035000D02*
X10603000Y-14205000D01*
X16727000Y-16635000D02*
X16897000Y-16805000D01*
X16897000Y-16635000D02*
X16727000Y-16805000D01*
X17743000Y-16635000D02*
X17913000Y-16805000D01*
X17913000Y-16635000D02*
X17743000Y-16805000D01*
X14347000Y-18795000D02*
X14517000Y-18965000D01*
X14517000Y-18795000D02*
X14347000Y-18965000D01*
X15363000Y-18795000D02*
X15533000Y-18965000D01*
X15533000Y-18795000D02*
X15363000Y-18965000D01*
X10380000Y-16500000D02*
G75*
G03*
X10380000Y-16500000I-200000J0D01*
G01*
X17520000Y-11980000D02*
G75*
G03*
X17520000Y-11980000I-200000J0D01*
G01*
X15140000Y-14120000D02*
G75*
G03*
X15140000Y-14120000I-200000J0D01*
G01*
X19600030Y-23400041D02*
G75*
G03*
X19600030Y-23400041I-200000J0D01*
G01*
X16560000Y-6740000D02*
G75*
G03*
X16560000Y-6740000I-200000J0D01*
G01*
X8000000Y-16980000D02*
G75*
G03*
X8000000Y-16980000I-200000J0D01*
G01*
X22280000Y-12920000D02*
G75*
G03*
X22280000Y-12920000I-200000J0D01*
G01*
X10380000Y-11740000D02*
G75*
G03*
X10380000Y-11740000I-200000J0D01*
G01*
X19900000Y-11960000D02*
G75*
G03*
X19900000Y-11960000I-200000J0D01*
G01*
X12760000Y-9120000D02*
G75*
G03*
X12760000Y-9120000I-200000J0D01*
G01*
X5140000Y-14600000D02*
G75*
G03*
X5140000Y-14600000I-200000J0D01*
G01*
X17520000Y-9600000D02*
G75*
G03*
X17520000Y-9600000I-200000J0D01*
G01*
X10380000Y-9360000D02*
G75*
G03*
X10380000Y-9360000I-200000J0D01*
G01*
X5140000Y-16980000D02*
G75*
G03*
X5140000Y-16980000I-200000J0D01*
G01*
X15160000Y-16500000D02*
G75*
G03*
X15160000Y-16500000I-200000J0D01*
G01*
X5140000Y-12220000D02*
G75*
G03*
X5140000Y-12220000I-200000J0D01*
G01*
X13700000Y-6740000D02*
G75*
G03*
X13700000Y-6740000I-200000J0D01*
G01*
X5120000Y-6760000D02*
G75*
G03*
X5120000Y-6760000I-200000J0D01*
G01*
X7980000Y-6740000D02*
G75*
G03*
X7980000Y-6740000I-200000J0D01*
G01*
X12760000Y-18640000D02*
G75*
G03*
X12760000Y-18640000I-200000J0D01*
G01*
X22280000Y-9580000D02*
G75*
G03*
X22280000Y-9580000I-200000J0D01*
G01*
X19900000Y-9600000D02*
G75*
G03*
X19900000Y-9600000I-200000J0D01*
G01*
X20780030Y-21340041D02*
G75*
G03*
X20780030Y-21340041I-200000J0D01*
G01*
X5640000Y-19360000D02*
G75*
G03*
X5640000Y-19360000I-200000J0D01*
G01*
X8000000Y-12220000D02*
G75*
G03*
X8000000Y-12220000I-200000J0D01*
G01*
X5140000Y-9840000D02*
G75*
G03*
X5140000Y-9840000I-200000J0D01*
G01*
X10840000Y-6740000D02*
G75*
G03*
X10840000Y-6740000I-200000J0D01*
G01*
X22260000Y-6740000D02*
G75*
G03*
X22260000Y-6740000I-200000J0D01*
G01*
X15140000Y-11740000D02*
G75*
G03*
X15140000Y-11740000I-200000J0D01*
G01*
X10380000Y-18880000D02*
G75*
G03*
X10380000Y-18880000I-200000J0D01*
G01*
X12760000Y-13880000D02*
G75*
G03*
X12760000Y-13880000I-200000J0D01*
G01*
X19420000Y-6740000D02*
G75*
G03*
X19420000Y-6740000I-200000J0D01*
G01*
X17540030Y-22200041D02*
G75*
G03*
X17540030Y-22200041I-200000J0D01*
G01*
X19900000Y-14360000D02*
G75*
G03*
X19900000Y-14360000I-200000J0D01*
G01*
X12760000Y-16260000D02*
G75*
G03*
X12760000Y-16260000I-200000J0D01*
G01*
X8000000Y-19360000D02*
G75*
G03*
X8000000Y-19360000I-200000J0D01*
G01*
X15140000Y-9380000D02*
G75*
G03*
X15140000Y-9380000I-200000J0D01*
G01*
X10380000Y-14120000D02*
G75*
G03*
X10380000Y-14120000I-200000J0D01*
G01*
X17520000Y-16720000D02*
G75*
G03*
X17520000Y-16720000I-200000J0D01*
G01*
X15140000Y-18880000D02*
G75*
G03*
X15140000Y-18880000I-200000J0D01*
G01*
X21660030Y-24580041D02*
G75*
G03*
X21660030Y-24580041I-200000J0D01*
G01*
X8000000Y-9840000D02*
G75*
G03*
X8000000Y-9840000I-200000J0D01*
G01*
X17520000Y-14360000D02*
G75*
G03*
X17520000Y-14360000I-200000J0D01*
G01*
X22280000Y-16260000D02*
G75*
G03*
X22280000Y-16260000I-200000J0D01*
G01*
X19900000Y-16740000D02*
G75*
G03*
X19900000Y-16740000I-200000J0D01*
G01*
X12760000Y-11500000D02*
G75*
G03*
X12760000Y-11500000I-200000J0D01*
G01*
X8000000Y-14600000D02*
G75*
G03*
X8000000Y-14600000I-200000J0D01*
G01*
D12*
X2309937Y-27918299D02*
X2309937Y-27618299D01*
X2381365Y-27618299D01*
X2424223Y-27632584D01*
X2452794Y-27661156D01*
X2467080Y-27689727D01*
X2481365Y-27746870D01*
X2481365Y-27789727D01*
X2467080Y-27846870D01*
X2452794Y-27875441D01*
X2424223Y-27904013D01*
X2381365Y-27918299D01*
X2309937Y-27918299D01*
X2609937Y-27918299D02*
X2609937Y-27718299D01*
X2609937Y-27775441D02*
X2624223Y-27746870D01*
X2638508Y-27732584D01*
X2667080Y-27718299D01*
X2695651Y-27718299D01*
X2795651Y-27918299D02*
X2795651Y-27718299D01*
X2795651Y-27618299D02*
X2781365Y-27632584D01*
X2795651Y-27646870D01*
X2809937Y-27632584D01*
X2795651Y-27618299D01*
X2795651Y-27646870D01*
X2981365Y-27918299D02*
X2952794Y-27904013D01*
X2938508Y-27875441D01*
X2938508Y-27618299D01*
X3138508Y-27918299D02*
X3109937Y-27904013D01*
X3095651Y-27875441D01*
X3095651Y-27618299D01*
X3481365Y-27918299D02*
X3481365Y-27618299D01*
X3581365Y-27832584D01*
X3681365Y-27618299D01*
X3681365Y-27918299D01*
X3952794Y-27918299D02*
X3952794Y-27761156D01*
X3938508Y-27732584D01*
X3909937Y-27718299D01*
X3852794Y-27718299D01*
X3824222Y-27732584D01*
X3952794Y-27904013D02*
X3924222Y-27918299D01*
X3852794Y-27918299D01*
X3824222Y-27904013D01*
X3809937Y-27875441D01*
X3809937Y-27846870D01*
X3824222Y-27818299D01*
X3852794Y-27804013D01*
X3924222Y-27804013D01*
X3952794Y-27789727D01*
X4095651Y-27718299D02*
X4095651Y-28018299D01*
X4095651Y-27732584D02*
X4124222Y-27718299D01*
X4181365Y-27718299D01*
X4209937Y-27732584D01*
X4224223Y-27746870D01*
X4238508Y-27775441D01*
X4238508Y-27861156D01*
X4224223Y-27889727D01*
X4209937Y-27904013D01*
X4181365Y-27918299D01*
X4124222Y-27918299D01*
X4095651Y-27904013D01*
X4367080Y-27889727D02*
X4381365Y-27904013D01*
X4367080Y-27918299D01*
X4352794Y-27904013D01*
X4367080Y-27889727D01*
X4367080Y-27918299D01*
X4367080Y-27732584D02*
X4381365Y-27746870D01*
X4367080Y-27761156D01*
X4352794Y-27746870D01*
X4367080Y-27732584D01*
X4367080Y-27761156D01*
X1853508Y-28327584D02*
X2023508Y-28497584D01*
X2023508Y-28327584D02*
X1853508Y-28497584D01*
X2467080Y-28548299D02*
X2295651Y-28548299D01*
X2381365Y-28548299D02*
X2381365Y-28248299D01*
X2352794Y-28291156D01*
X2324223Y-28319727D01*
X2295651Y-28334013D01*
X2595651Y-28519727D02*
X2609937Y-28534013D01*
X2595651Y-28548299D01*
X2581365Y-28534013D01*
X2595651Y-28519727D01*
X2595651Y-28548299D01*
X2709937Y-28248299D02*
X2909937Y-28248299D01*
X2781365Y-28548299D01*
X3081365Y-28248299D02*
X3109937Y-28248299D01*
X3138508Y-28262584D01*
X3152794Y-28276870D01*
X3167080Y-28305441D01*
X3181365Y-28362584D01*
X3181365Y-28434013D01*
X3167080Y-28491156D01*
X3152794Y-28519727D01*
X3138508Y-28534013D01*
X3109937Y-28548299D01*
X3081365Y-28548299D01*
X3052794Y-28534013D01*
X3038508Y-28519727D01*
X3024222Y-28491156D01*
X3009937Y-28434013D01*
X3009937Y-28362584D01*
X3024222Y-28305441D01*
X3038508Y-28276870D01*
X3052794Y-28262584D01*
X3081365Y-28248299D01*
X3309937Y-28548299D02*
X3309937Y-28348299D01*
X3309937Y-28376870D02*
X3324222Y-28362584D01*
X3352794Y-28348299D01*
X3395651Y-28348299D01*
X3424222Y-28362584D01*
X3438508Y-28391156D01*
X3438508Y-28548299D01*
X3438508Y-28391156D02*
X3452794Y-28362584D01*
X3481365Y-28348299D01*
X3524222Y-28348299D01*
X3552794Y-28362584D01*
X3567080Y-28391156D01*
X3567080Y-28548299D01*
X3709937Y-28548299D02*
X3709937Y-28348299D01*
X3709937Y-28376870D02*
X3724222Y-28362584D01*
X3752794Y-28348299D01*
X3795651Y-28348299D01*
X3824222Y-28362584D01*
X3838508Y-28391156D01*
X3838508Y-28548299D01*
X3838508Y-28391156D02*
X3852794Y-28362584D01*
X3881365Y-28348299D01*
X3924222Y-28348299D01*
X3952794Y-28362584D01*
X3967080Y-28391156D01*
X3967080Y-28548299D01*
X4552794Y-28234013D02*
X4295651Y-28619727D01*
X4938508Y-28248299D02*
X4967080Y-28248299D01*
X4995651Y-28262584D01*
X5009937Y-28276870D01*
X5024223Y-28305441D01*
X5038508Y-28362584D01*
X5038508Y-28434013D01*
X5024223Y-28491156D01*
X5009937Y-28519727D01*
X4995651Y-28534013D01*
X4967080Y-28548299D01*
X4938508Y-28548299D01*
X4909937Y-28534013D01*
X4895651Y-28519727D01*
X4881365Y-28491156D01*
X4867080Y-28434013D01*
X4867080Y-28362584D01*
X4881365Y-28305441D01*
X4895651Y-28276870D01*
X4909937Y-28262584D01*
X4938508Y-28248299D01*
X5167080Y-28519727D02*
X5181365Y-28534013D01*
X5167080Y-28548299D01*
X5152794Y-28534013D01*
X5167080Y-28519727D01*
X5167080Y-28548299D01*
X5367080Y-28248299D02*
X5395651Y-28248299D01*
X5424223Y-28262584D01*
X5438508Y-28276870D01*
X5452794Y-28305441D01*
X5467080Y-28362584D01*
X5467080Y-28434013D01*
X5452794Y-28491156D01*
X5438508Y-28519727D01*
X5424223Y-28534013D01*
X5395651Y-28548299D01*
X5367080Y-28548299D01*
X5338508Y-28534013D01*
X5324223Y-28519727D01*
X5309937Y-28491156D01*
X5295651Y-28434013D01*
X5295651Y-28362584D01*
X5309937Y-28305441D01*
X5324223Y-28276870D01*
X5338508Y-28262584D01*
X5367080Y-28248299D01*
X5724222Y-28248299D02*
X5667080Y-28248299D01*
X5638508Y-28262584D01*
X5624222Y-28276870D01*
X5595651Y-28319727D01*
X5581365Y-28376870D01*
X5581365Y-28491156D01*
X5595651Y-28519727D01*
X5609937Y-28534013D01*
X5638508Y-28548299D01*
X5695651Y-28548299D01*
X5724222Y-28534013D01*
X5738508Y-28519727D01*
X5752794Y-28491156D01*
X5752794Y-28419727D01*
X5738508Y-28391156D01*
X5724222Y-28376870D01*
X5695651Y-28362584D01*
X5638508Y-28362584D01*
X5609937Y-28376870D01*
X5595651Y-28391156D01*
X5581365Y-28419727D01*
X5852794Y-28248299D02*
X6052794Y-28248299D01*
X5924222Y-28548299D01*
X6152794Y-28248299D02*
X6152794Y-28305441D01*
X6267080Y-28248299D02*
X6267080Y-28305441D01*
X6709937Y-28662584D02*
X6695651Y-28648299D01*
X6667080Y-28605441D01*
X6652794Y-28576870D01*
X6638508Y-28534013D01*
X6624222Y-28462584D01*
X6624222Y-28405441D01*
X6638508Y-28334013D01*
X6652794Y-28291156D01*
X6667080Y-28262584D01*
X6695651Y-28219727D01*
X6709937Y-28205441D01*
X6838508Y-28548299D02*
X6895651Y-28548299D01*
X6924222Y-28534013D01*
X6938508Y-28519727D01*
X6967080Y-28476870D01*
X6981365Y-28419727D01*
X6981365Y-28305441D01*
X6967080Y-28276870D01*
X6952794Y-28262584D01*
X6924222Y-28248299D01*
X6867080Y-28248299D01*
X6838508Y-28262584D01*
X6824222Y-28276870D01*
X6809937Y-28305441D01*
X6809937Y-28376870D01*
X6824222Y-28405441D01*
X6838508Y-28419727D01*
X6867080Y-28434013D01*
X6924222Y-28434013D01*
X6952794Y-28419727D01*
X6967080Y-28405441D01*
X6981365Y-28376870D01*
X7238508Y-28348299D02*
X7238508Y-28548299D01*
X7167080Y-28234013D02*
X7095651Y-28448299D01*
X7281365Y-28448299D01*
X7624222Y-28548299D02*
X7624222Y-28248299D01*
X7752794Y-28548299D02*
X7752794Y-28391156D01*
X7738508Y-28362584D01*
X7709937Y-28348299D01*
X7667080Y-28348299D01*
X7638508Y-28362584D01*
X7624222Y-28376870D01*
X7938508Y-28548299D02*
X7909937Y-28534013D01*
X7895651Y-28519727D01*
X7881365Y-28491156D01*
X7881365Y-28405441D01*
X7895651Y-28376870D01*
X7909937Y-28362584D01*
X7938508Y-28348299D01*
X7981365Y-28348299D01*
X8009937Y-28362584D01*
X8024222Y-28376870D01*
X8038508Y-28405441D01*
X8038508Y-28491156D01*
X8024222Y-28519727D01*
X8009937Y-28534013D01*
X7981365Y-28548299D01*
X7938508Y-28548299D01*
X8209937Y-28548299D02*
X8181365Y-28534013D01*
X8167080Y-28505441D01*
X8167080Y-28248299D01*
X8438508Y-28534013D02*
X8409937Y-28548299D01*
X8352794Y-28548299D01*
X8324222Y-28534013D01*
X8309937Y-28505441D01*
X8309937Y-28391156D01*
X8324222Y-28362584D01*
X8352794Y-28348299D01*
X8409937Y-28348299D01*
X8438508Y-28362584D01*
X8452794Y-28391156D01*
X8452794Y-28419727D01*
X8309937Y-28448299D01*
X8567080Y-28534013D02*
X8595651Y-28548299D01*
X8652794Y-28548299D01*
X8681365Y-28534013D01*
X8695651Y-28505441D01*
X8695651Y-28491156D01*
X8681365Y-28462584D01*
X8652794Y-28448299D01*
X8609937Y-28448299D01*
X8581365Y-28434013D01*
X8567080Y-28405441D01*
X8567080Y-28391156D01*
X8581365Y-28362584D01*
X8609937Y-28348299D01*
X8652794Y-28348299D01*
X8681365Y-28362584D01*
X8795651Y-28662584D02*
X8809937Y-28648299D01*
X8838508Y-28605441D01*
X8852794Y-28576870D01*
X8867080Y-28534013D01*
X8881365Y-28462584D01*
X8881365Y-28405441D01*
X8867080Y-28334013D01*
X8852794Y-28291156D01*
X8838508Y-28262584D01*
X8809937Y-28219727D01*
X8795651Y-28205441D01*
X9338508Y-28662584D02*
X9324223Y-28648299D01*
X9295651Y-28605441D01*
X9281365Y-28576870D01*
X9267080Y-28534013D01*
X9252794Y-28462584D01*
X9252794Y-28405441D01*
X9267080Y-28334013D01*
X9281365Y-28291156D01*
X9295651Y-28262584D01*
X9324223Y-28219727D01*
X9338508Y-28205441D01*
X9452794Y-28348299D02*
X9452794Y-28548299D01*
X9452794Y-28376870D02*
X9467080Y-28362584D01*
X9495651Y-28348299D01*
X9538508Y-28348299D01*
X9567080Y-28362584D01*
X9581365Y-28391156D01*
X9581365Y-28548299D01*
X9767080Y-28548299D02*
X9738508Y-28534013D01*
X9724223Y-28519727D01*
X9709937Y-28491156D01*
X9709937Y-28405441D01*
X9724223Y-28376870D01*
X9738508Y-28362584D01*
X9767080Y-28348299D01*
X9809937Y-28348299D01*
X9838508Y-28362584D01*
X9852794Y-28376870D01*
X9867080Y-28405441D01*
X9867080Y-28491156D01*
X9852794Y-28519727D01*
X9838508Y-28534013D01*
X9809937Y-28548299D01*
X9767080Y-28548299D01*
X9952794Y-28348299D02*
X10067080Y-28348299D01*
X9995651Y-28248299D02*
X9995651Y-28505441D01*
X10009937Y-28534013D01*
X10038508Y-28548299D01*
X10067080Y-28548299D01*
X10395651Y-28348299D02*
X10395651Y-28648299D01*
X10395651Y-28362584D02*
X10424223Y-28348299D01*
X10481365Y-28348299D01*
X10509937Y-28362584D01*
X10524223Y-28376870D01*
X10538508Y-28405441D01*
X10538508Y-28491156D01*
X10524223Y-28519727D01*
X10509937Y-28534013D01*
X10481365Y-28548299D01*
X10424223Y-28548299D01*
X10395651Y-28534013D01*
X10709937Y-28548299D02*
X10681365Y-28534013D01*
X10667080Y-28505441D01*
X10667080Y-28248299D01*
X10952794Y-28548299D02*
X10952794Y-28391156D01*
X10938508Y-28362584D01*
X10909937Y-28348299D01*
X10852794Y-28348299D01*
X10824223Y-28362584D01*
X10952794Y-28534013D02*
X10924223Y-28548299D01*
X10852794Y-28548299D01*
X10824223Y-28534013D01*
X10809937Y-28505441D01*
X10809937Y-28476870D01*
X10824223Y-28448299D01*
X10852794Y-28434013D01*
X10924223Y-28434013D01*
X10952794Y-28419727D01*
X11052794Y-28348299D02*
X11167080Y-28348299D01*
X11095651Y-28248299D02*
X11095651Y-28505441D01*
X11109937Y-28534013D01*
X11138508Y-28548299D01*
X11167080Y-28548299D01*
X11381365Y-28534013D02*
X11352794Y-28548299D01*
X11295651Y-28548299D01*
X11267080Y-28534013D01*
X11252794Y-28505441D01*
X11252794Y-28391156D01*
X11267080Y-28362584D01*
X11295651Y-28348299D01*
X11352794Y-28348299D01*
X11381365Y-28362584D01*
X11395651Y-28391156D01*
X11395651Y-28419727D01*
X11252794Y-28448299D01*
X11652794Y-28548299D02*
X11652794Y-28248299D01*
X11652794Y-28534013D02*
X11624222Y-28548299D01*
X11567080Y-28548299D01*
X11538508Y-28534013D01*
X11524222Y-28519727D01*
X11509937Y-28491156D01*
X11509937Y-28405441D01*
X11524222Y-28376870D01*
X11538508Y-28362584D01*
X11567080Y-28348299D01*
X11624222Y-28348299D01*
X11652794Y-28362584D01*
X11767080Y-28662584D02*
X11781365Y-28648299D01*
X11809937Y-28605441D01*
X11824222Y-28576870D01*
X11838508Y-28534013D01*
X11852794Y-28462584D01*
X11852794Y-28405441D01*
X11838508Y-28334013D01*
X11824222Y-28291156D01*
X11809937Y-28262584D01*
X11781365Y-28219727D01*
X11767080Y-28205441D01*
X2023508Y-28808584D02*
G75*
G03*
X2023508Y-28808584I-200000J0D01*
G01*
X2438508Y-28744299D02*
X2438508Y-28944299D01*
X2367080Y-28630013D02*
X2295651Y-28844299D01*
X2481365Y-28844299D01*
X2595651Y-28915727D02*
X2609937Y-28930013D01*
X2595651Y-28944299D01*
X2581365Y-28930013D01*
X2595651Y-28915727D01*
X2595651Y-28944299D01*
X2795651Y-28644299D02*
X2824222Y-28644299D01*
X2852794Y-28658584D01*
X2867080Y-28672870D01*
X2881365Y-28701441D01*
X2895651Y-28758584D01*
X2895651Y-28830013D01*
X2881365Y-28887156D01*
X2867080Y-28915727D01*
X2852794Y-28930013D01*
X2824222Y-28944299D01*
X2795651Y-28944299D01*
X2767080Y-28930013D01*
X2752794Y-28915727D01*
X2738508Y-28887156D01*
X2724223Y-28830013D01*
X2724223Y-28758584D01*
X2738508Y-28701441D01*
X2752794Y-28672870D01*
X2767080Y-28658584D01*
X2795651Y-28644299D01*
X3081365Y-28644299D02*
X3109937Y-28644299D01*
X3138508Y-28658584D01*
X3152794Y-28672870D01*
X3167080Y-28701441D01*
X3181365Y-28758584D01*
X3181365Y-28830013D01*
X3167080Y-28887156D01*
X3152794Y-28915727D01*
X3138508Y-28930013D01*
X3109937Y-28944299D01*
X3081365Y-28944299D01*
X3052794Y-28930013D01*
X3038508Y-28915727D01*
X3024222Y-28887156D01*
X3009937Y-28830013D01*
X3009937Y-28758584D01*
X3024222Y-28701441D01*
X3038508Y-28672870D01*
X3052794Y-28658584D01*
X3081365Y-28644299D01*
X3309937Y-28944299D02*
X3309937Y-28744299D01*
X3309937Y-28772870D02*
X3324222Y-28758584D01*
X3352794Y-28744299D01*
X3395651Y-28744299D01*
X3424222Y-28758584D01*
X3438508Y-28787156D01*
X3438508Y-28944299D01*
X3438508Y-28787156D02*
X3452794Y-28758584D01*
X3481365Y-28744299D01*
X3524222Y-28744299D01*
X3552794Y-28758584D01*
X3567080Y-28787156D01*
X3567080Y-28944299D01*
X3709937Y-28944299D02*
X3709937Y-28744299D01*
X3709937Y-28772870D02*
X3724222Y-28758584D01*
X3752794Y-28744299D01*
X3795651Y-28744299D01*
X3824222Y-28758584D01*
X3838508Y-28787156D01*
X3838508Y-28944299D01*
X3838508Y-28787156D02*
X3852794Y-28758584D01*
X3881365Y-28744299D01*
X3924222Y-28744299D01*
X3952794Y-28758584D01*
X3967080Y-28787156D01*
X3967080Y-28944299D01*
X4552794Y-28630013D02*
X4295651Y-29015727D01*
X4938508Y-28644299D02*
X4967080Y-28644299D01*
X4995651Y-28658584D01*
X5009937Y-28672870D01*
X5024223Y-28701441D01*
X5038508Y-28758584D01*
X5038508Y-28830013D01*
X5024223Y-28887156D01*
X5009937Y-28915727D01*
X4995651Y-28930013D01*
X4967080Y-28944299D01*
X4938508Y-28944299D01*
X4909937Y-28930013D01*
X4895651Y-28915727D01*
X4881365Y-28887156D01*
X4867080Y-28830013D01*
X4867080Y-28758584D01*
X4881365Y-28701441D01*
X4895651Y-28672870D01*
X4909937Y-28658584D01*
X4938508Y-28644299D01*
X5167080Y-28915727D02*
X5181365Y-28930013D01*
X5167080Y-28944299D01*
X5152794Y-28930013D01*
X5167080Y-28915727D01*
X5167080Y-28944299D01*
X5467080Y-28944299D02*
X5295651Y-28944299D01*
X5381365Y-28944299D02*
X5381365Y-28644299D01*
X5352794Y-28687156D01*
X5324223Y-28715727D01*
X5295651Y-28730013D01*
X5738508Y-28644299D02*
X5595651Y-28644299D01*
X5581365Y-28787156D01*
X5595651Y-28772870D01*
X5624222Y-28758584D01*
X5695651Y-28758584D01*
X5724222Y-28772870D01*
X5738508Y-28787156D01*
X5752794Y-28815727D01*
X5752794Y-28887156D01*
X5738508Y-28915727D01*
X5724222Y-28930013D01*
X5695651Y-28944299D01*
X5624222Y-28944299D01*
X5595651Y-28930013D01*
X5581365Y-28915727D01*
X5852794Y-28644299D02*
X6052794Y-28644299D01*
X5924222Y-28944299D01*
X6152794Y-28644299D02*
X6152794Y-28701441D01*
X6267080Y-28644299D02*
X6267080Y-28701441D01*
X6709937Y-29058584D02*
X6695651Y-29044299D01*
X6667080Y-29001441D01*
X6652794Y-28972870D01*
X6638508Y-28930013D01*
X6624222Y-28858584D01*
X6624222Y-28801441D01*
X6638508Y-28730013D01*
X6652794Y-28687156D01*
X6667080Y-28658584D01*
X6695651Y-28615727D01*
X6709937Y-28601441D01*
X6952794Y-28744299D02*
X6952794Y-28944299D01*
X6881365Y-28630013D02*
X6809937Y-28844299D01*
X6995651Y-28844299D01*
X7081365Y-28644299D02*
X7281365Y-28644299D01*
X7152794Y-28944299D01*
X7624222Y-28944299D02*
X7624222Y-28644299D01*
X7752794Y-28944299D02*
X7752794Y-28787156D01*
X7738508Y-28758584D01*
X7709937Y-28744299D01*
X7667080Y-28744299D01*
X7638508Y-28758584D01*
X7624222Y-28772870D01*
X7938508Y-28944299D02*
X7909937Y-28930013D01*
X7895651Y-28915727D01*
X7881365Y-28887156D01*
X7881365Y-28801441D01*
X7895651Y-28772870D01*
X7909937Y-28758584D01*
X7938508Y-28744299D01*
X7981365Y-28744299D01*
X8009937Y-28758584D01*
X8024222Y-28772870D01*
X8038508Y-28801441D01*
X8038508Y-28887156D01*
X8024222Y-28915727D01*
X8009937Y-28930013D01*
X7981365Y-28944299D01*
X7938508Y-28944299D01*
X8209937Y-28944299D02*
X8181365Y-28930013D01*
X8167080Y-28901441D01*
X8167080Y-28644299D01*
X8438508Y-28930013D02*
X8409937Y-28944299D01*
X8352794Y-28944299D01*
X8324222Y-28930013D01*
X8309937Y-28901441D01*
X8309937Y-28787156D01*
X8324222Y-28758584D01*
X8352794Y-28744299D01*
X8409937Y-28744299D01*
X8438508Y-28758584D01*
X8452794Y-28787156D01*
X8452794Y-28815727D01*
X8309937Y-28844299D01*
X8567080Y-28930013D02*
X8595651Y-28944299D01*
X8652794Y-28944299D01*
X8681365Y-28930013D01*
X8695651Y-28901441D01*
X8695651Y-28887156D01*
X8681365Y-28858584D01*
X8652794Y-28844299D01*
X8609937Y-28844299D01*
X8581365Y-28830013D01*
X8567080Y-28801441D01*
X8567080Y-28787156D01*
X8581365Y-28758584D01*
X8609937Y-28744299D01*
X8652794Y-28744299D01*
X8681365Y-28758584D01*
X8795651Y-29058584D02*
X8809937Y-29044299D01*
X8838508Y-29001441D01*
X8852794Y-28972870D01*
X8867080Y-28930013D01*
X8881365Y-28858584D01*
X8881365Y-28801441D01*
X8867080Y-28730013D01*
X8852794Y-28687156D01*
X8838508Y-28658584D01*
X8809937Y-28615727D01*
X8795651Y-28601441D01*
X9338508Y-29058584D02*
X9324223Y-29044299D01*
X9295651Y-29001441D01*
X9281365Y-28972870D01*
X9267080Y-28930013D01*
X9252794Y-28858584D01*
X9252794Y-28801441D01*
X9267080Y-28730013D01*
X9281365Y-28687156D01*
X9295651Y-28658584D01*
X9324223Y-28615727D01*
X9338508Y-28601441D01*
X9452794Y-28744299D02*
X9452794Y-28944299D01*
X9452794Y-28772870D02*
X9467080Y-28758584D01*
X9495651Y-28744299D01*
X9538508Y-28744299D01*
X9567080Y-28758584D01*
X9581365Y-28787156D01*
X9581365Y-28944299D01*
X9767080Y-28944299D02*
X9738508Y-28930013D01*
X9724223Y-28915727D01*
X9709937Y-28887156D01*
X9709937Y-28801441D01*
X9724223Y-28772870D01*
X9738508Y-28758584D01*
X9767080Y-28744299D01*
X9809937Y-28744299D01*
X9838508Y-28758584D01*
X9852794Y-28772870D01*
X9867080Y-28801441D01*
X9867080Y-28887156D01*
X9852794Y-28915727D01*
X9838508Y-28930013D01*
X9809937Y-28944299D01*
X9767080Y-28944299D01*
X9952794Y-28744299D02*
X10067080Y-28744299D01*
X9995651Y-28644299D02*
X9995651Y-28901441D01*
X10009937Y-28930013D01*
X10038508Y-28944299D01*
X10067080Y-28944299D01*
X10395651Y-28744299D02*
X10395651Y-29044299D01*
X10395651Y-28758584D02*
X10424223Y-28744299D01*
X10481365Y-28744299D01*
X10509937Y-28758584D01*
X10524223Y-28772870D01*
X10538508Y-28801441D01*
X10538508Y-28887156D01*
X10524223Y-28915727D01*
X10509937Y-28930013D01*
X10481365Y-28944299D01*
X10424223Y-28944299D01*
X10395651Y-28930013D01*
X10709937Y-28944299D02*
X10681365Y-28930013D01*
X10667080Y-28901441D01*
X10667080Y-28644299D01*
X10952794Y-28944299D02*
X10952794Y-28787156D01*
X10938508Y-28758584D01*
X10909937Y-28744299D01*
X10852794Y-28744299D01*
X10824223Y-28758584D01*
X10952794Y-28930013D02*
X10924223Y-28944299D01*
X10852794Y-28944299D01*
X10824223Y-28930013D01*
X10809937Y-28901441D01*
X10809937Y-28872870D01*
X10824223Y-28844299D01*
X10852794Y-28830013D01*
X10924223Y-28830013D01*
X10952794Y-28815727D01*
X11052794Y-28744299D02*
X11167080Y-28744299D01*
X11095651Y-28644299D02*
X11095651Y-28901441D01*
X11109937Y-28930013D01*
X11138508Y-28944299D01*
X11167080Y-28944299D01*
X11381365Y-28930013D02*
X11352794Y-28944299D01*
X11295651Y-28944299D01*
X11267080Y-28930013D01*
X11252794Y-28901441D01*
X11252794Y-28787156D01*
X11267080Y-28758584D01*
X11295651Y-28744299D01*
X11352794Y-28744299D01*
X11381365Y-28758584D01*
X11395651Y-28787156D01*
X11395651Y-28815727D01*
X11252794Y-28844299D01*
X11652794Y-28944299D02*
X11652794Y-28644299D01*
X11652794Y-28930013D02*
X11624222Y-28944299D01*
X11567080Y-28944299D01*
X11538508Y-28930013D01*
X11524222Y-28915727D01*
X11509937Y-28887156D01*
X11509937Y-28801441D01*
X11524222Y-28772870D01*
X11538508Y-28758584D01*
X11567080Y-28744299D01*
X11624222Y-28744299D01*
X11652794Y-28758584D01*
X11767080Y-29058584D02*
X11781365Y-29044299D01*
X11809937Y-29001441D01*
X11824222Y-28972870D01*
X11838508Y-28930013D01*
X11852794Y-28858584D01*
X11852794Y-28801441D01*
X11838508Y-28730013D01*
X11824222Y-28687156D01*
X11809937Y-28658584D01*
X11781365Y-28615727D01*
X11767080Y-28601441D01*
M02*
