%TF.GenerationSoftware,KiCad,Pcbnew,5.1.6-c6e7f7d~87~ubuntu20.04.1*%
%TF.CreationDate,2020-09-12T13:52:12+02:00*%
%TF.ProjectId,pcb-flat-left,7063622d-666c-4617-942d-6c6566742e6b,rev?*%
%TF.SameCoordinates,Original*%
%TF.FileFunction,Soldermask,Top*%
%TF.FilePolarity,Negative*%
%FSLAX46Y46*%
G04 Gerber Fmt 4.6, Leading zero omitted, Abs format (unit mm)*
G04 Created by KiCad (PCBNEW 5.1.6-c6e7f7d~87~ubuntu20.04.1) date 2020-09-12 13:52:12*
%MOMM*%
%LPD*%
G01*
G04 APERTURE LIST*
%ADD10C,1.500000*%
%ADD11O,1.500000X1.500000*%
%ADD12C,7.600000*%
%ADD13R,1.700000X1.700000*%
%ADD14O,1.700000X1.700000*%
%ADD15C,0.100000*%
%ADD16C,1.800000*%
%ADD17C,4.100000*%
%ADD18C,2.300000*%
%ADD19O,1.900000X1.900000*%
%ADD20R,1.900000X1.900000*%
%ADD21C,1.700000*%
G04 APERTURE END LIST*
D10*
%TO.C,R1*%
X232400000Y-59100000D03*
D11*
X232400000Y-64180000D03*
%TD*%
D12*
%TO.C,H3*%
X237500000Y-50500000D03*
%TD*%
%TO.C,H8*%
X237500000Y-266500000D03*
%TD*%
%TO.C,H7*%
X132500000Y-266500000D03*
%TD*%
%TO.C,H6*%
X27500000Y-266500000D03*
%TD*%
%TO.C,H5*%
X237500000Y-158500000D03*
%TD*%
%TO.C,H4*%
X27500000Y-158500000D03*
%TD*%
%TO.C,H2*%
X132500000Y-50500000D03*
%TD*%
D13*
%TO.C,D1*%
X38200000Y-71400000D03*
D14*
X38200000Y-63780000D03*
%TD*%
D13*
%TO.C,D2*%
X53200000Y-109400000D03*
D14*
X45580000Y-109400000D03*
%TD*%
D13*
%TO.C,D3*%
X53400000Y-133000000D03*
D14*
X45780000Y-133000000D03*
%TD*%
D13*
%TO.C,D4*%
X53200000Y-156800000D03*
D14*
X45580000Y-156800000D03*
%TD*%
D13*
%TO.C,D5*%
X53000000Y-180600000D03*
D14*
X45380000Y-180600000D03*
%TD*%
%TO.C,D6*%
X43500000Y-190000000D03*
D13*
X43500000Y-197620000D03*
%TD*%
D14*
%TO.C,D7*%
X66800000Y-63580000D03*
D13*
X66800000Y-71200000D03*
%TD*%
D14*
%TO.C,D8*%
X67000000Y-94780000D03*
D13*
X67000000Y-102400000D03*
%TD*%
D14*
%TO.C,D9*%
X67200000Y-118400000D03*
D13*
X67200000Y-126020000D03*
%TD*%
D14*
%TO.C,D10*%
X67000000Y-142380000D03*
D13*
X67000000Y-150000000D03*
%TD*%
D14*
%TO.C,D11*%
X67200000Y-165980000D03*
D13*
X67200000Y-173600000D03*
%TD*%
D14*
%TO.C,D12*%
X67000000Y-190380000D03*
D13*
X67000000Y-198000000D03*
%TD*%
%TO.C,D14*%
X95400000Y-71200000D03*
D14*
X95400000Y-63580000D03*
%TD*%
%TO.C,D15*%
X91000000Y-89980000D03*
D13*
X91000000Y-97600000D03*
%TD*%
%TO.C,D16*%
X91000000Y-121400000D03*
D14*
X91000000Y-113780000D03*
%TD*%
D13*
%TO.C,D17*%
X91000000Y-168800000D03*
D14*
X91000000Y-161180000D03*
%TD*%
%TO.C,D18*%
X91200000Y-138400000D03*
D13*
X91200000Y-146020000D03*
%TD*%
D14*
%TO.C,D19*%
X91000000Y-185180000D03*
D13*
X91000000Y-192800000D03*
%TD*%
D14*
%TO.C,D20*%
X124000000Y-63580000D03*
D13*
X124000000Y-71200000D03*
%TD*%
%TO.C,D21*%
X114800000Y-95020000D03*
D14*
X114800000Y-87400000D03*
%TD*%
D13*
%TO.C,D22*%
X114800000Y-118800000D03*
D14*
X114800000Y-111180000D03*
%TD*%
%TO.C,D23*%
X114800000Y-134980000D03*
D13*
X114800000Y-142600000D03*
%TD*%
%TO.C,D24*%
X114800000Y-166400000D03*
D14*
X114800000Y-158780000D03*
%TD*%
%TO.C,D25*%
X114800000Y-182780000D03*
D13*
X114800000Y-190400000D03*
%TD*%
%TO.C,D26*%
X152600000Y-71400000D03*
D14*
X152600000Y-63780000D03*
%TD*%
D13*
%TO.C,D27*%
X138600000Y-121200000D03*
D14*
X138600000Y-113580000D03*
%TD*%
%TO.C,D28*%
X138600000Y-89780000D03*
D13*
X138600000Y-97400000D03*
%TD*%
%TO.C,D29*%
X138400000Y-145000000D03*
D14*
X138400000Y-137380000D03*
%TD*%
%TO.C,D30*%
X139200000Y-160780000D03*
D13*
X139200000Y-168400000D03*
%TD*%
%TO.C,D31*%
X138600000Y-192820000D03*
D14*
X138600000Y-185200000D03*
%TD*%
%TO.C,D32*%
X181400000Y-63780000D03*
D13*
X181400000Y-71400000D03*
%TD*%
%TO.C,D33*%
X162400000Y-99800000D03*
D14*
X162400000Y-92180000D03*
%TD*%
%TO.C,D34*%
X162500000Y-115880000D03*
D13*
X162500000Y-123500000D03*
%TD*%
%TO.C,D35*%
X162400000Y-147400000D03*
D14*
X162400000Y-139780000D03*
%TD*%
%TO.C,D36*%
X162400000Y-163580000D03*
D13*
X162400000Y-171200000D03*
%TD*%
%TO.C,D37*%
X209800000Y-71400000D03*
D14*
X209800000Y-63780000D03*
%TD*%
%TO.C,D38*%
X186200000Y-92180000D03*
D13*
X186200000Y-99800000D03*
%TD*%
%TO.C,D39*%
X186200000Y-171200000D03*
D14*
X186200000Y-163580000D03*
%TD*%
D13*
%TO.C,D40*%
X186000000Y-123600000D03*
D14*
X186000000Y-115980000D03*
%TD*%
%TO.C,D41*%
X186200000Y-139800000D03*
D13*
X186200000Y-147420000D03*
%TD*%
D14*
%TO.C,D42*%
X210000000Y-92180000D03*
D13*
X210000000Y-99800000D03*
%TD*%
%TO.C,D43*%
X217200000Y-144800000D03*
D14*
X224820000Y-144800000D03*
%TD*%
%TO.C,D44*%
X217000000Y-178200000D03*
D13*
X224620000Y-178200000D03*
%TD*%
%TO.C,D45*%
G36*
G01*
X174037008Y-213615000D02*
X174037008Y-213615000D01*
G75*
G02*
X172875886Y-213926122I-736122J425000D01*
G01*
X172875886Y-213926122D01*
G75*
G02*
X172564764Y-212765000I425000J736122D01*
G01*
X172564764Y-212765000D01*
G75*
G02*
X173725886Y-212453878I736122J-425000D01*
G01*
X173725886Y-212453878D01*
G75*
G02*
X174037008Y-213615000I-425000J-736122D01*
G01*
G37*
D15*
G36*
X181061122Y-216688878D02*
G01*
X180211122Y-218161122D01*
X178738878Y-217311122D01*
X179588878Y-215838878D01*
X181061122Y-216688878D01*
G37*
%TD*%
%TO.C,D46*%
G36*
X204938878Y-204711122D02*
G01*
X205788878Y-203238878D01*
X207261122Y-204088878D01*
X206411122Y-205561122D01*
X204938878Y-204711122D01*
G37*
G36*
G01*
X211962992Y-207785000D02*
X211962992Y-207785000D01*
G75*
G02*
X213124114Y-207473878I736122J-425000D01*
G01*
X213124114Y-207473878D01*
G75*
G02*
X213435236Y-208635000I-425000J-736122D01*
G01*
X213435236Y-208635000D01*
G75*
G02*
X212274114Y-208946122I-736122J425000D01*
G01*
X212274114Y-208946122D01*
G75*
G02*
X211962992Y-207785000I425000J736122D01*
G01*
G37*
%TD*%
%TO.C,D47*%
G36*
X201860122Y-228498878D02*
G01*
X201010122Y-229971122D01*
X199537878Y-229121122D01*
X200387878Y-227648878D01*
X201860122Y-228498878D01*
G37*
G36*
G01*
X194836008Y-225425000D02*
X194836008Y-225425000D01*
G75*
G02*
X193674886Y-225736122I-736122J425000D01*
G01*
X193674886Y-225736122D01*
G75*
G02*
X193363764Y-224575000I425000J736122D01*
G01*
X193363764Y-224575000D01*
G75*
G02*
X194524886Y-224263878I736122J-425000D01*
G01*
X194524886Y-224263878D01*
G75*
G02*
X194836008Y-225425000I-425000J-736122D01*
G01*
G37*
%TD*%
%TO.C,D48*%
G36*
G01*
X215637008Y-237315000D02*
X215637008Y-237315000D01*
G75*
G02*
X214475886Y-237626122I-736122J425000D01*
G01*
X214475886Y-237626122D01*
G75*
G02*
X214164764Y-236465000I425000J736122D01*
G01*
X214164764Y-236465000D01*
G75*
G02*
X215325886Y-236153878I736122J-425000D01*
G01*
X215325886Y-236153878D01*
G75*
G02*
X215637008Y-237315000I-425000J-736122D01*
G01*
G37*
G36*
X222661122Y-240388878D02*
G01*
X221811122Y-241861122D01*
X220338878Y-241011122D01*
X221188878Y-239538878D01*
X222661122Y-240388878D01*
G37*
%TD*%
D11*
%TO.C,R2*%
X232400000Y-74100000D03*
D10*
X232400000Y-69020000D03*
%TD*%
D11*
%TO.C,R3*%
X232400000Y-94100000D03*
D10*
X232400000Y-89020000D03*
%TD*%
D16*
%TO.C,SW1*%
X54280000Y-67600000D03*
X44120000Y-67600000D03*
D17*
X49200000Y-67600000D03*
D18*
X45390000Y-65060000D03*
X51740000Y-62520000D03*
%TD*%
%TO.C,SW2*%
X51940000Y-93320000D03*
X45590000Y-95860000D03*
D17*
X49400000Y-98400000D03*
D16*
X44320000Y-98400000D03*
X54480000Y-98400000D03*
%TD*%
D18*
%TO.C,SW3*%
X51940000Y-117120000D03*
X45590000Y-119660000D03*
D17*
X49400000Y-122200000D03*
D16*
X44320000Y-122200000D03*
X54480000Y-122200000D03*
%TD*%
%TO.C,SW4*%
X54480000Y-169800000D03*
X44320000Y-169800000D03*
D17*
X49400000Y-169800000D03*
D18*
X45590000Y-167260000D03*
X51940000Y-164720000D03*
%TD*%
D16*
%TO.C,SW5*%
X54480000Y-146000000D03*
X44320000Y-146000000D03*
D17*
X49400000Y-146000000D03*
D18*
X45590000Y-143460000D03*
X51940000Y-140920000D03*
%TD*%
%TO.C,SW6*%
X56940000Y-188520000D03*
X50590000Y-191060000D03*
D17*
X54400000Y-193600000D03*
D16*
X49320000Y-193600000D03*
X59480000Y-193600000D03*
%TD*%
D18*
%TO.C,SW7*%
X80340000Y-62320000D03*
X73990000Y-64860000D03*
D17*
X77800000Y-67400000D03*
D16*
X72720000Y-67400000D03*
X82880000Y-67400000D03*
%TD*%
D18*
%TO.C,SW8*%
X80540000Y-93320000D03*
X74190000Y-95860000D03*
D17*
X78000000Y-98400000D03*
D16*
X72920000Y-98400000D03*
X83080000Y-98400000D03*
%TD*%
%TO.C,SW9*%
X83080000Y-122200000D03*
X72920000Y-122200000D03*
D17*
X78000000Y-122200000D03*
D18*
X74190000Y-119660000D03*
X80540000Y-117120000D03*
%TD*%
%TO.C,SW10*%
X80540000Y-164720000D03*
X74190000Y-167260000D03*
D17*
X78000000Y-169800000D03*
D16*
X72920000Y-169800000D03*
X83080000Y-169800000D03*
%TD*%
D18*
%TO.C,SW11*%
X80540000Y-140920000D03*
X74190000Y-143460000D03*
D17*
X78000000Y-146000000D03*
D16*
X72920000Y-146000000D03*
X83080000Y-146000000D03*
%TD*%
%TO.C,SW12*%
X83080000Y-193600000D03*
X72920000Y-193600000D03*
D17*
X78000000Y-193600000D03*
D18*
X74190000Y-191060000D03*
X80540000Y-188520000D03*
%TD*%
D16*
%TO.C,SW13*%
X111480000Y-67400000D03*
X101320000Y-67400000D03*
D17*
X106400000Y-67400000D03*
D18*
X102590000Y-64860000D03*
X108940000Y-62320000D03*
%TD*%
D16*
%TO.C,SW14*%
X106880000Y-93600000D03*
X96720000Y-93600000D03*
D17*
X101800000Y-93600000D03*
D18*
X97990000Y-91060000D03*
X104340000Y-88520000D03*
%TD*%
%TO.C,SW15*%
X104340000Y-112320000D03*
X97990000Y-114860000D03*
D17*
X101800000Y-117400000D03*
D16*
X96720000Y-117400000D03*
X106880000Y-117400000D03*
%TD*%
%TO.C,SW16*%
X106880000Y-165000000D03*
X96720000Y-165000000D03*
D17*
X101800000Y-165000000D03*
D18*
X97990000Y-162460000D03*
X104340000Y-159920000D03*
%TD*%
D16*
%TO.C,SW17*%
X106880000Y-141200000D03*
X96720000Y-141200000D03*
D17*
X101800000Y-141200000D03*
D18*
X97990000Y-138660000D03*
X104340000Y-136120000D03*
%TD*%
%TO.C,SW18*%
X104340000Y-183720000D03*
X97990000Y-186260000D03*
D17*
X101800000Y-188800000D03*
D16*
X96720000Y-188800000D03*
X106880000Y-188800000D03*
%TD*%
D18*
%TO.C,SW19*%
X137540000Y-62320000D03*
X131190000Y-64860000D03*
D17*
X135000000Y-67400000D03*
D16*
X129920000Y-67400000D03*
X140080000Y-67400000D03*
%TD*%
D18*
%TO.C,SW20*%
X128140000Y-86120000D03*
X121790000Y-88660000D03*
D17*
X125600000Y-91200000D03*
D16*
X120520000Y-91200000D03*
X130680000Y-91200000D03*
%TD*%
%TO.C,SW21*%
X130680000Y-115000000D03*
X120520000Y-115000000D03*
D17*
X125600000Y-115000000D03*
D18*
X121790000Y-112460000D03*
X128140000Y-109920000D03*
%TD*%
%TO.C,SW22*%
X128140000Y-157520000D03*
X121790000Y-160060000D03*
D17*
X125600000Y-162600000D03*
D16*
X120520000Y-162600000D03*
X130680000Y-162600000D03*
%TD*%
D18*
%TO.C,SW23*%
X128140000Y-133720000D03*
X121790000Y-136260000D03*
D17*
X125600000Y-138800000D03*
D16*
X120520000Y-138800000D03*
X130680000Y-138800000D03*
%TD*%
%TO.C,SW24*%
X130680000Y-186400000D03*
X120520000Y-186400000D03*
D17*
X125600000Y-186400000D03*
D18*
X121790000Y-183860000D03*
X128140000Y-181320000D03*
%TD*%
D16*
%TO.C,SW25*%
X168680000Y-67400000D03*
X158520000Y-67400000D03*
D17*
X163600000Y-67400000D03*
D18*
X159790000Y-64860000D03*
X166140000Y-62320000D03*
%TD*%
%TO.C,SW26*%
X151940000Y-88720000D03*
X145590000Y-91260000D03*
D17*
X149400000Y-93800000D03*
D16*
X144320000Y-93800000D03*
X154480000Y-93800000D03*
%TD*%
D18*
%TO.C,SW27*%
X151940000Y-112320000D03*
X145590000Y-114860000D03*
D17*
X149400000Y-117400000D03*
D16*
X144320000Y-117400000D03*
X154480000Y-117400000D03*
%TD*%
D18*
%TO.C,SW28*%
X152140000Y-159920000D03*
X145790000Y-162460000D03*
D17*
X149600000Y-165000000D03*
D16*
X144520000Y-165000000D03*
X154680000Y-165000000D03*
%TD*%
%TO.C,SW29*%
X154480000Y-141200000D03*
X144320000Y-141200000D03*
D17*
X149400000Y-141200000D03*
D18*
X145590000Y-138660000D03*
X151940000Y-136120000D03*
%TD*%
%TO.C,SW30*%
X151940000Y-183720000D03*
X145590000Y-186260000D03*
D17*
X149400000Y-188800000D03*
D16*
X144320000Y-188800000D03*
X154480000Y-188800000D03*
%TD*%
D18*
%TO.C,SW31*%
X194740000Y-62320000D03*
X188390000Y-64860000D03*
D17*
X192200000Y-67400000D03*
D16*
X187120000Y-67400000D03*
X197280000Y-67400000D03*
%TD*%
D18*
%TO.C,SW32*%
X175740000Y-90920000D03*
X169390000Y-93460000D03*
D17*
X173200000Y-96000000D03*
D16*
X168120000Y-96000000D03*
X178280000Y-96000000D03*
%TD*%
%TO.C,SW33*%
X178280000Y-119800000D03*
X168120000Y-119800000D03*
D17*
X173200000Y-119800000D03*
D18*
X169390000Y-117260000D03*
X175740000Y-114720000D03*
%TD*%
%TO.C,SW34*%
X175740000Y-162120000D03*
X169390000Y-164660000D03*
D17*
X173200000Y-167200000D03*
D16*
X168120000Y-167200000D03*
X178280000Y-167200000D03*
%TD*%
D18*
%TO.C,SW35*%
X175740000Y-138520000D03*
X169390000Y-141060000D03*
D17*
X173200000Y-143600000D03*
D16*
X168120000Y-143600000D03*
X178280000Y-143600000D03*
%TD*%
%TO.C,SW36*%
X225680000Y-67400000D03*
X215520000Y-67400000D03*
D17*
X220600000Y-67400000D03*
D18*
X216790000Y-64860000D03*
X223140000Y-62320000D03*
%TD*%
D16*
%TO.C,SW37*%
X202080000Y-96000000D03*
X191920000Y-96000000D03*
D17*
X197000000Y-96000000D03*
D18*
X193190000Y-93460000D03*
X199540000Y-90920000D03*
%TD*%
D16*
%TO.C,SW38*%
X202080000Y-119600000D03*
X191920000Y-119600000D03*
D17*
X197000000Y-119600000D03*
D18*
X193190000Y-117060000D03*
X199540000Y-114520000D03*
%TD*%
D16*
%TO.C,SW39*%
X202080000Y-167400000D03*
X191920000Y-167400000D03*
D17*
X197000000Y-167400000D03*
D18*
X193190000Y-164860000D03*
X199540000Y-162320000D03*
%TD*%
D16*
%TO.C,SW40*%
X202080000Y-143600000D03*
X191920000Y-143600000D03*
D17*
X197000000Y-143600000D03*
D18*
X193190000Y-141060000D03*
X199540000Y-138520000D03*
%TD*%
%TO.C,SW41*%
X223340000Y-90720000D03*
X216990000Y-93260000D03*
D17*
X220800000Y-95800000D03*
D16*
X215720000Y-95800000D03*
X225880000Y-95800000D03*
%TD*%
D18*
%TO.C,SW42*%
X215720000Y-126660000D03*
X218260000Y-133010000D03*
D17*
X220800000Y-129200000D03*
D16*
X220800000Y-134280000D03*
X220800000Y-124120000D03*
%TD*%
%TO.C,SW43*%
X220800000Y-157520000D03*
X220800000Y-167680000D03*
D17*
X220800000Y-162600000D03*
D18*
X218260000Y-166410000D03*
X215720000Y-160060000D03*
%TD*%
D16*
%TO.C,SW44*%
X186999705Y-208240409D03*
X178200886Y-203160409D03*
D17*
X182600295Y-205700409D03*
D18*
X180570739Y-201595705D03*
X187340000Y-202571000D03*
%TD*%
D16*
%TO.C,SW45*%
X219499705Y-199540409D03*
X210700886Y-194460409D03*
D17*
X215100295Y-197000409D03*
D18*
X213070739Y-192895705D03*
X219840000Y-193871000D03*
%TD*%
%TO.C,SW46*%
X208040000Y-214471000D03*
X201270739Y-213495705D03*
D17*
X203300295Y-217600409D03*
D16*
X198900886Y-215060409D03*
X207699705Y-220140409D03*
%TD*%
%TO.C,SW47*%
X228299705Y-231940409D03*
X219500886Y-226860409D03*
D17*
X223900295Y-229400409D03*
D18*
X221870739Y-225295705D03*
X228640000Y-226271000D03*
%TD*%
D12*
%TO.C,H1*%
X27500000Y-50500000D03*
%TD*%
D19*
%TO.C,D13*%
X237500000Y-62640000D03*
D20*
X237500000Y-60100000D03*
%TD*%
%TO.C,D49*%
X237500000Y-70100000D03*
D19*
X237500000Y-72640000D03*
%TD*%
D20*
%TO.C,D50*%
X237500000Y-80100000D03*
D19*
X237500000Y-82640000D03*
%TD*%
D20*
%TO.C,D51*%
X237500000Y-90100000D03*
D19*
X237500000Y-92640000D03*
%TD*%
D10*
%TO.C,R4*%
X232400000Y-79020000D03*
D11*
X232400000Y-84100000D03*
%TD*%
D21*
%TO.C,U1*%
X42190000Y-221380000D03*
X44730000Y-221380000D03*
X47270000Y-221380000D03*
X39650000Y-221380000D03*
X37110000Y-221380000D03*
X34570000Y-221380000D03*
X32030000Y-221380000D03*
X29490000Y-221380000D03*
X26950000Y-221380000D03*
X24410000Y-221380000D03*
D13*
X21870000Y-221380000D03*
D21*
X49810000Y-221380000D03*
X52350000Y-221380000D03*
X54890000Y-221380000D03*
X57430000Y-221380000D03*
X59970000Y-221380000D03*
X62510000Y-221380000D03*
X65050000Y-221380000D03*
X67590000Y-221380000D03*
X70130000Y-221380000D03*
X70130000Y-226460000D03*
X70130000Y-229000000D03*
X70130000Y-231540000D03*
X70130000Y-236620000D03*
X67590000Y-236620000D03*
X65050000Y-236620000D03*
X62510000Y-236620000D03*
X59970000Y-236620000D03*
X57430000Y-236620000D03*
X54890000Y-236620000D03*
X52350000Y-236620000D03*
X49810000Y-236620000D03*
X47270000Y-236620000D03*
X44730000Y-236620000D03*
X42190000Y-236620000D03*
X39650000Y-236620000D03*
X37110000Y-236620000D03*
X34570000Y-236620000D03*
X32030000Y-236620000D03*
X29490000Y-236620000D03*
X26950000Y-236620000D03*
X24410000Y-236620000D03*
X21870000Y-236620000D03*
X57430000Y-229000000D03*
X54890000Y-229000000D03*
X62510000Y-231540000D03*
X62510000Y-226460000D03*
X62510000Y-229000000D03*
X59970000Y-229000000D03*
X54890000Y-231540000D03*
X59970000Y-231540000D03*
X57430000Y-231540000D03*
%TD*%
D13*
%TO.C,J1*%
X235300000Y-210300000D03*
D21*
X235300000Y-207530000D03*
X235300000Y-204760000D03*
X235300000Y-201990000D03*
X235300000Y-199220000D03*
X235300000Y-196450000D03*
X235300000Y-193680000D03*
X235300000Y-190910000D03*
X235300000Y-188140000D03*
X235300000Y-185370000D03*
X235300000Y-182600000D03*
X235300000Y-179830000D03*
X235300000Y-177060000D03*
X238140000Y-208915000D03*
X238140000Y-206145000D03*
X238140000Y-203375000D03*
X238140000Y-200605000D03*
X238140000Y-197835000D03*
X238140000Y-195065000D03*
X238140000Y-192295000D03*
X238140000Y-189525000D03*
X238140000Y-186755000D03*
X238140000Y-183985000D03*
X238140000Y-181215000D03*
X238140000Y-178445000D03*
D17*
X236720000Y-170130000D03*
X236720000Y-217230000D03*
%TD*%
M02*
