M48
; DRILL file {KiCad 5.1.6-c6e7f7d~87~ubuntu20.04.1} date Sat Sep 12 12:36:26 2020
; FORMAT={-:-/ absolute / metric / decimal}
; #@! TF.CreationDate,2020-09-12T12:36:26+02:00
; #@! TF.GenerationSoftware,Kicad,Pcbnew,5.1.6-c6e7f7d~87~ubuntu20.04.1
; #@! TF.FileFunction,Plated,1,2,PTH
FMAT,2
METRIC
T1C0.400
T2C0.700
T3C0.800
T4C0.900
T5C1.000
T6C1.100
T7C1.500
T8C3.200
T9C4.300
%
G90
G05
T1
X44.2Y-233.6
X45.6Y-159.3
X52.1Y-159.3
X54.7Y-213.6
X60.7Y-211.5
X65.0Y-158.4
X65.1Y-231.5
X66.3Y-211.6
X79.9Y-212.0
X100.0Y-129.2
X109.236Y-180.008
X112.407Y-180.008
X125.4Y-127.0
X131.8Y-68.7
X133.7Y-216.3
X147.4Y-231.5
X154.1Y-234.5
X154.2Y-217.2
X183.4Y-171.1
X189.6Y-231.5
X196.021Y-203.25
X196.4Y-231.5
X199.6Y-232.6
X200.7Y-202.3
X205.531Y-201.601
X205.6Y-61.6
X208.938Y-225.508
X211.4Y-198.4
X211.409Y-217.989
X212.81Y-217.155
X215.929Y-216.542
X225.076Y-205.885
X228.0Y-216.0
X228.5Y-199.6
X231.968Y-201.452
X234.4Y-103.4
X237.5Y-86.1
T2
X232.4Y-59.1
X232.4Y-64.18
X232.4Y-69.02
X232.4Y-74.1
X232.4Y-89.02
X232.4Y-94.1
X232.4Y-79.02
X232.4Y-84.1
T3
X45.38Y-180.6
X53.0Y-180.6
X114.8Y-182.78
X114.8Y-190.4
X67.0Y-142.38
X67.0Y-150.0
X138.6Y-89.78
X138.6Y-97.4
X181.4Y-63.78
X181.4Y-71.4
X217.0Y-178.2
X224.62Y-178.2
X186.2Y-139.8
X186.2Y-147.42
X67.0Y-190.38
X67.0Y-198.0
X138.6Y-113.58
X138.6Y-121.2
X194.1Y-225.0
X200.699Y-228.81
X209.8Y-63.78
X209.8Y-71.4
X162.4Y-163.58
X162.4Y-171.2
X45.78Y-133.0
X53.4Y-133.0
X66.8Y-63.58
X66.8Y-71.2
X138.6Y-185.2
X138.6Y-192.82
X152.6Y-63.78
X152.6Y-71.4
X162.4Y-92.18
X162.4Y-99.8
X114.8Y-134.98
X114.8Y-142.6
X45.58Y-109.4
X53.2Y-109.4
X217.2Y-144.8
X224.82Y-144.8
X43.5Y-190.0
X43.5Y-197.62
X206.1Y-204.4
X212.699Y-208.21
X91.0Y-161.18
X91.0Y-168.8
X186.0Y-115.98
X186.0Y-123.6
X114.8Y-111.18
X114.8Y-118.8
X91.0Y-113.78
X91.0Y-121.4
X91.0Y-89.98
X91.0Y-97.6
X91.2Y-138.4
X91.2Y-146.02
X38.2Y-63.78
X38.2Y-71.4
X45.58Y-156.8
X53.2Y-156.8
X162.4Y-139.78
X162.4Y-147.4
X91.0Y-185.18
X91.0Y-192.8
X139.2Y-160.78
X139.2Y-168.4
X114.8Y-87.4
X114.8Y-95.02
X67.2Y-165.98
X67.2Y-173.6
X186.2Y-92.18
X186.2Y-99.8
X67.0Y-94.78
X67.0Y-102.4
X95.4Y-63.58
X95.4Y-71.2
X210.0Y-92.18
X210.0Y-99.8
X162.5Y-115.88
X162.5Y-123.5
X67.2Y-118.4
X67.2Y-126.02
X214.901Y-236.89
X221.5Y-240.7
X138.4Y-137.38
X138.4Y-145.0
X173.301Y-213.19
X179.9Y-217.0
X124.0Y-63.58
X124.0Y-71.2
X114.8Y-158.78
X114.8Y-166.4
X186.2Y-163.58
X186.2Y-171.2
T4
X237.5Y-90.1
X237.5Y-92.64
X237.5Y-60.1
X237.5Y-62.64
X237.5Y-70.1
X237.5Y-72.64
X237.5Y-80.1
X237.5Y-82.64
T5
X235.3Y-177.06
X235.3Y-179.83
X235.3Y-182.6
X235.3Y-185.37
X235.3Y-188.14
X235.3Y-190.91
X235.3Y-193.68
X235.3Y-196.45
X235.3Y-199.22
X235.3Y-201.99
X235.3Y-204.76
X235.3Y-207.53
X235.3Y-210.3
X238.14Y-178.445
X238.14Y-181.215
X238.14Y-183.985
X238.14Y-186.755
X238.14Y-189.525
X238.14Y-192.295
X238.14Y-195.065
X238.14Y-197.835
X238.14Y-200.605
X238.14Y-203.375
X238.14Y-206.145
X238.14Y-208.915
T6
X21.87Y-221.38
X21.87Y-236.62
X24.41Y-221.38
X24.41Y-236.62
X26.95Y-221.38
X26.95Y-236.62
X29.49Y-221.38
X29.49Y-236.62
X32.03Y-221.38
X32.03Y-236.62
X34.57Y-221.38
X34.57Y-236.62
X37.11Y-221.38
X37.11Y-236.62
X39.65Y-221.38
X39.65Y-236.62
X42.19Y-221.38
X42.19Y-236.62
X44.73Y-221.38
X44.73Y-236.62
X47.27Y-221.38
X47.27Y-236.62
X49.81Y-221.38
X49.81Y-236.62
X52.35Y-221.38
X52.35Y-236.62
X54.89Y-221.38
X54.89Y-229.0
X54.89Y-231.54
X54.89Y-236.62
X57.43Y-221.38
X57.43Y-229.0
X57.43Y-231.54
X57.43Y-236.62
X59.97Y-221.38
X59.97Y-229.0
X59.97Y-231.54
X59.97Y-236.62
X62.51Y-221.38
X62.51Y-226.46
X62.51Y-229.0
X62.51Y-231.54
X62.51Y-236.62
X65.05Y-221.38
X65.05Y-236.62
X67.59Y-221.38
X67.59Y-236.62
X70.13Y-221.38
X70.13Y-226.46
X70.13Y-229.0
X70.13Y-231.54
X70.13Y-236.62
T7
X215.72Y-160.06
X218.26Y-166.41
X97.99Y-162.46
X104.34Y-159.92
X45.39Y-65.06
X51.74Y-62.52
X169.39Y-93.46
X175.74Y-90.92
X50.59Y-191.06
X56.94Y-188.52
X45.59Y-95.86
X51.94Y-93.32
X121.79Y-183.86
X128.14Y-181.32
X121.79Y-88.66
X128.14Y-86.12
X193.19Y-117.06
X199.54Y-114.52
X145.79Y-162.46
X152.14Y-159.92
X215.72Y-126.66
X218.26Y-133.01
X97.99Y-114.86
X104.34Y-112.32
X221.871Y-225.296
X228.64Y-226.271
X74.19Y-167.26
X80.54Y-164.72
X131.19Y-64.86
X137.54Y-62.32
X45.59Y-119.66
X51.94Y-117.12
X74.19Y-119.66
X80.54Y-117.12
X121.79Y-136.26
X128.14Y-133.72
X73.99Y-64.86
X80.34Y-62.32
X193.19Y-93.46
X199.54Y-90.92
X74.19Y-95.86
X80.54Y-93.32
X145.59Y-114.86
X151.94Y-112.32
X74.19Y-143.46
X80.54Y-140.92
X216.99Y-93.26
X223.34Y-90.72
X97.99Y-91.06
X104.34Y-88.52
X201.271Y-213.496
X208.04Y-214.471
X213.071Y-192.896
X219.84Y-193.871
X74.19Y-191.06
X80.54Y-188.52
X97.99Y-186.26
X104.34Y-183.72
X216.79Y-64.86
X223.14Y-62.32
X121.79Y-160.06
X128.14Y-157.52
X102.59Y-64.86
X108.94Y-62.32
X145.59Y-91.26
X151.94Y-88.72
X193.19Y-141.06
X199.54Y-138.52
X45.59Y-167.26
X51.94Y-164.72
X188.39Y-64.86
X194.74Y-62.32
X97.99Y-138.66
X104.34Y-136.12
X169.39Y-141.06
X175.74Y-138.52
X145.59Y-186.26
X151.94Y-183.72
X121.79Y-112.46
X128.14Y-109.92
X169.39Y-117.26
X175.74Y-114.72
X180.571Y-201.596
X187.34Y-202.571
X159.79Y-64.86
X166.14Y-62.32
X169.39Y-164.66
X175.74Y-162.12
X45.59Y-143.46
X51.94Y-140.92
X193.19Y-164.86
X199.54Y-162.32
X145.59Y-138.66
X151.94Y-136.12
T8
X236.72Y-170.13
X236.72Y-217.23
T9
X132.5Y-266.5
X237.5Y-158.5
X27.5Y-50.5
X27.5Y-266.5
X27.5Y-158.5
X237.5Y-50.5
X132.5Y-50.5
X237.5Y-266.5
T0
M30
