%FSLAX45Y45*%
G04 Gerber Fmt 4.5, Leading zero omitted, Abs format (unit mm)*
G04 Created by KiCad (PCBNEW 5.1.6-c6e7f7d~87~ubuntu20.04.1) date 2020-09-12 12:36:25*
%MOMM*%
%LPD*%
G01*
G04 APERTURE LIST*
%TA.AperFunction,Profile*%
%ADD10C,0.200000*%
%TD*%
%ADD11C,0.200000*%
%ADD12C,0.300000*%
G04 APERTURE END LIST*
D10*
X2047289Y-4717200D02*
X2057900Y-4679400D01*
X24138100Y-27436383D02*
X24099100Y-27441068D01*
X24286900Y-27388014D02*
X24251200Y-27404550D01*
X2455190Y-27436383D02*
X2416740Y-27428666D01*
X24505300Y-4607000D02*
X24521700Y-4642700D01*
X24559900Y-26942493D02*
X24558400Y-26981768D01*
X2087941Y-4607000D02*
X2107096Y-4572700D01*
X24546100Y-4717200D02*
X24553700Y-4755700D01*
X2033508Y-26942493D02*
X2033508Y-4834100D01*
X2087941Y-27169595D02*
X2071542Y-27133904D01*
X2039710Y-27020768D02*
X2035024Y-26981768D01*
X2179994Y-27296099D02*
X2153260Y-27267160D01*
X24559900Y-4834100D02*
X24559900Y-26942493D01*
X24535300Y-27096971D02*
X24521700Y-27133904D01*
X24251200Y-27404550D02*
X24214400Y-27418055D01*
X2035024Y-26981768D02*
X2033508Y-26942493D01*
X2494186Y-4335500D02*
X2533598Y-4334000D01*
X2057900Y-4679400D02*
X2071542Y-4642700D01*
X24059800Y-4334000D02*
X24099100Y-4335500D01*
X2239663Y-27347086D02*
X2208795Y-27322695D01*
X24353700Y-27347086D02*
X24321100Y-27368859D01*
X2071542Y-27133904D02*
X2057900Y-27096971D01*
X2153260Y-27267160D02*
X2129006Y-27236430D01*
X2239663Y-4429500D02*
X2272185Y-4407600D01*
X2342189Y-4372000D02*
X2378983Y-4358400D01*
X24413400Y-27296099D02*
X24384600Y-27322695D01*
X2057900Y-27096971D02*
X2047289Y-27059213D01*
X2033508Y-4834100D02*
X2035024Y-4794700D01*
X2035024Y-4794700D02*
X2039710Y-4755700D01*
X2455190Y-4340200D02*
X2494186Y-4335500D01*
X24546100Y-27059213D02*
X24535300Y-27096971D01*
X24176500Y-27428666D02*
X24138100Y-27436383D01*
X24553700Y-27020768D02*
X24546100Y-27059213D01*
X24464400Y-4540100D02*
X24486200Y-4572700D01*
X24321100Y-27368859D02*
X24286900Y-27388014D01*
X24505300Y-27169595D02*
X24486200Y-27203770D01*
X2153260Y-4509300D02*
X2179994Y-4480500D01*
X2533598Y-4334000D02*
X24059800Y-4334000D01*
X2047289Y-27059213D02*
X2039710Y-27020768D01*
X24553700Y-4755700D02*
X24558400Y-4794700D01*
X2494186Y-27441068D02*
X2455190Y-27436383D01*
X24214400Y-27418055D02*
X24176500Y-27428666D01*
X2107096Y-27203770D02*
X2087941Y-27169595D01*
X24486200Y-4572700D02*
X24505300Y-4607000D01*
X24521700Y-4642700D02*
X24535300Y-4679400D01*
X24558400Y-26981768D02*
X24553700Y-27020768D01*
X2039710Y-4755700D02*
X2047289Y-4717200D01*
X24214400Y-4358400D02*
X24251200Y-4372000D01*
X2107096Y-4572700D02*
X2129006Y-4540100D01*
X2378983Y-4358400D02*
X2416740Y-4347800D01*
X24384600Y-4453700D02*
X24413400Y-4480500D01*
X24384600Y-27322695D02*
X24353700Y-27347086D01*
X24464400Y-27236430D02*
X24440000Y-27267160D01*
X24521700Y-27133904D02*
X24505300Y-27169595D01*
X2208795Y-27322695D02*
X2179994Y-27296099D01*
X24286900Y-4388400D02*
X24321100Y-4407600D01*
X24558400Y-4794700D02*
X24559900Y-4834100D01*
X2272185Y-4407600D02*
X2306498Y-4388400D01*
X2306498Y-4388400D02*
X2342189Y-4372000D01*
X2071542Y-4642700D02*
X2087941Y-4607000D01*
X24440000Y-27267160D02*
X24413400Y-27296099D01*
X2416740Y-4347800D02*
X2455190Y-4340200D01*
X24138100Y-4340200D02*
X24176500Y-4347800D01*
X24486200Y-27203770D02*
X24464400Y-27236430D01*
X24059800Y-27442584D02*
X2533598Y-27442584D01*
X24251200Y-4372000D02*
X24286900Y-4388400D01*
X2129006Y-4540100D02*
X2153260Y-4509300D01*
X24353700Y-4429500D02*
X24384600Y-4453700D01*
X24535300Y-4679400D02*
X24546100Y-4717200D01*
X2378983Y-27418055D02*
X2342189Y-27404550D01*
X2208795Y-4453700D02*
X2239663Y-4429500D01*
X24176500Y-4347800D02*
X24214400Y-4358400D01*
X2533598Y-27442584D02*
X2494186Y-27441068D01*
X2272185Y-27368859D02*
X2239663Y-27347086D01*
X24099100Y-27441068D02*
X24059800Y-27442584D01*
X24440000Y-4509300D02*
X24464400Y-4540100D01*
X2129006Y-27236430D02*
X2107096Y-27203770D01*
X24321100Y-4407600D02*
X24353700Y-4429500D01*
X24099100Y-4335500D02*
X24138100Y-4340200D01*
X2179994Y-4480500D02*
X2208795Y-4453700D01*
X2342189Y-27404550D02*
X2306498Y-27388014D01*
X24413400Y-4480500D02*
X24440000Y-4509300D01*
X2306498Y-27388014D02*
X2272185Y-27368859D01*
X2416740Y-27428666D02*
X2378983Y-27418055D01*
D11*
X4400000Y-23340000D02*
X4440000Y-23380000D01*
X4440000Y-23340000D02*
X4400000Y-23380000D01*
X4540000Y-15910000D02*
X4580000Y-15950000D01*
X4580000Y-15910000D02*
X4540000Y-15950000D01*
X5190000Y-15910000D02*
X5230000Y-15950000D01*
X5230000Y-15910000D02*
X5190000Y-15950000D01*
X5450000Y-21340000D02*
X5490000Y-21380000D01*
X5490000Y-21340000D02*
X5450000Y-21380000D01*
X6050000Y-21130000D02*
X6090000Y-21170000D01*
X6090000Y-21130000D02*
X6050000Y-21170000D01*
X6480000Y-15820000D02*
X6520000Y-15860000D01*
X6520000Y-15820000D02*
X6480000Y-15860000D01*
X6490000Y-23130000D02*
X6530000Y-23170000D01*
X6530000Y-23130000D02*
X6490000Y-23170000D01*
X6610000Y-21140000D02*
X6650000Y-21180000D01*
X6650000Y-21140000D02*
X6610000Y-21180000D01*
X7970000Y-21180000D02*
X8010000Y-21220000D01*
X8010000Y-21180000D02*
X7970000Y-21220000D01*
X9980000Y-12900000D02*
X10020000Y-12940000D01*
X10020000Y-12900000D02*
X9980000Y-12940000D01*
X10903610Y-17980810D02*
X10943610Y-18020810D01*
X10943610Y-17980810D02*
X10903610Y-18020810D01*
X11220680Y-17980810D02*
X11260680Y-18020810D01*
X11260680Y-17980810D02*
X11220680Y-18020810D01*
X12520000Y-12680000D02*
X12560000Y-12720000D01*
X12560000Y-12680000D02*
X12520000Y-12720000D01*
X13160000Y-6850000D02*
X13200000Y-6890000D01*
X13200000Y-6850000D02*
X13160000Y-6890000D01*
X13350000Y-21610000D02*
X13390000Y-21650000D01*
X13390000Y-21610000D02*
X13350000Y-21650000D01*
X14720000Y-23130000D02*
X14760000Y-23170000D01*
X14760000Y-23130000D02*
X14720000Y-23170000D01*
X15390000Y-23430000D02*
X15430000Y-23470000D01*
X15430000Y-23430000D02*
X15390000Y-23470000D01*
X15400000Y-21700000D02*
X15440000Y-21740000D01*
X15440000Y-21700000D02*
X15400000Y-21740000D01*
X18320000Y-17090000D02*
X18360000Y-17130000D01*
X18360000Y-17090000D02*
X18320000Y-17130000D01*
X18940000Y-23130000D02*
X18980000Y-23170000D01*
X18980000Y-23130000D02*
X18940000Y-23170000D01*
X19582060Y-20304970D02*
X19622060Y-20344970D01*
X19622060Y-20304970D02*
X19582060Y-20344970D01*
X19620000Y-23130000D02*
X19660000Y-23170000D01*
X19660000Y-23130000D02*
X19620000Y-23170000D01*
X19940000Y-23240000D02*
X19980000Y-23280000D01*
X19980000Y-23240000D02*
X19940000Y-23280000D01*
X20050000Y-20210000D02*
X20090000Y-20250000D01*
X20090000Y-20210000D02*
X20050000Y-20250000D01*
X20533110Y-20140090D02*
X20573110Y-20180090D01*
X20573110Y-20140090D02*
X20533110Y-20180090D01*
X20540000Y-6140000D02*
X20580000Y-6180000D01*
X20580000Y-6140000D02*
X20540000Y-6180000D01*
X20873810Y-22530780D02*
X20913810Y-22570780D01*
X20913810Y-22530780D02*
X20873810Y-22570780D01*
X21120000Y-19820000D02*
X21160000Y-19860000D01*
X21160000Y-19820000D02*
X21120000Y-19860000D01*
X21120940Y-21778890D02*
X21160940Y-21818890D01*
X21160940Y-21778890D02*
X21120940Y-21818890D01*
X21260980Y-21695460D02*
X21300980Y-21735460D01*
X21300980Y-21695460D02*
X21260980Y-21735460D01*
X21572900Y-21634250D02*
X21612900Y-21674250D01*
X21612900Y-21634250D02*
X21572900Y-21674250D01*
X22487610Y-20568490D02*
X22527610Y-20608490D01*
X22527610Y-20568490D02*
X22487610Y-20608490D01*
X22780000Y-21580000D02*
X22820000Y-21620000D01*
X22820000Y-21580000D02*
X22780000Y-21620000D01*
X22830000Y-19940000D02*
X22870000Y-19980000D01*
X22870000Y-19940000D02*
X22830000Y-19980000D01*
X23176820Y-20125190D02*
X23216820Y-20165190D01*
X23216820Y-20125190D02*
X23176820Y-20165190D01*
X23420000Y-10320000D02*
X23460000Y-10360000D01*
X23460000Y-10320000D02*
X23420000Y-10360000D01*
X23730000Y-8590000D02*
X23770000Y-8630000D01*
X23770000Y-8590000D02*
X23730000Y-8630000D01*
X23275000Y-5910000D02*
G75*
G03*
X23275000Y-5910000I-35000J0D01*
G01*
X23275000Y-6418000D02*
G75*
G03*
X23275000Y-6418000I-35000J0D01*
G01*
X23275000Y-6902000D02*
G75*
G03*
X23275000Y-6902000I-35000J0D01*
G01*
X23275000Y-7410000D02*
G75*
G03*
X23275000Y-7410000I-35000J0D01*
G01*
X23275000Y-8902000D02*
G75*
G03*
X23275000Y-8902000I-35000J0D01*
G01*
X23275000Y-9410000D02*
G75*
G03*
X23275000Y-9410000I-35000J0D01*
G01*
X23275000Y-7902000D02*
G75*
G03*
X23275000Y-7902000I-35000J0D01*
G01*
X23275000Y-8410000D02*
G75*
G03*
X23275000Y-8410000I-35000J0D01*
G01*
X4538000Y-18020000D02*
X4538000Y-18100000D01*
X4498000Y-18060000D02*
X4578000Y-18060000D01*
X5300000Y-18020000D02*
X5300000Y-18100000D01*
X5260000Y-18060000D02*
X5340000Y-18060000D01*
X11480000Y-18238000D02*
X11480000Y-18318000D01*
X11440000Y-18278000D02*
X11520000Y-18278000D01*
X11480000Y-19000000D02*
X11480000Y-19080000D01*
X11440000Y-19040000D02*
X11520000Y-19040000D01*
X6700000Y-14198000D02*
X6700000Y-14278000D01*
X6660000Y-14238000D02*
X6740000Y-14238000D01*
X6700000Y-14960000D02*
X6700000Y-15040000D01*
X6660000Y-15000000D02*
X6740000Y-15000000D01*
X13860000Y-8938000D02*
X13860000Y-9018000D01*
X13820000Y-8978000D02*
X13900000Y-8978000D01*
X13860000Y-9700000D02*
X13860000Y-9780000D01*
X13820000Y-9740000D02*
X13900000Y-9740000D01*
X18140000Y-6338000D02*
X18140000Y-6418000D01*
X18100000Y-6378000D02*
X18180000Y-6378000D01*
X18140000Y-7100000D02*
X18140000Y-7180000D01*
X18100000Y-7140000D02*
X18180000Y-7140000D01*
X21700000Y-17780000D02*
X21700000Y-17860000D01*
X21660000Y-17820000D02*
X21740000Y-17820000D01*
X22462000Y-17780000D02*
X22462000Y-17860000D01*
X22422000Y-17820000D02*
X22502000Y-17820000D01*
X18620000Y-13940000D02*
X18620000Y-14020000D01*
X18580000Y-13980000D02*
X18660000Y-13980000D01*
X18620000Y-14702000D02*
X18620000Y-14782000D01*
X18580000Y-14742000D02*
X18660000Y-14742000D01*
X6700000Y-18998000D02*
X6700000Y-19078000D01*
X6660000Y-19038000D02*
X6740000Y-19038000D01*
X6700000Y-19760000D02*
X6700000Y-19840000D01*
X6660000Y-19800000D02*
X6740000Y-19800000D01*
X13860000Y-11318000D02*
X13860000Y-11398000D01*
X13820000Y-11358000D02*
X13900000Y-11358000D01*
X13860000Y-12080000D02*
X13860000Y-12160000D01*
X13820000Y-12120000D02*
X13900000Y-12120000D01*
X19409989Y-22460000D02*
X19409989Y-22540000D01*
X19369989Y-22500000D02*
X19449989Y-22500000D01*
X20069900Y-22841000D02*
X20069900Y-22921000D01*
X20029900Y-22881000D02*
X20109900Y-22881000D01*
X20980000Y-6338000D02*
X20980000Y-6418000D01*
X20940000Y-6378000D02*
X21020000Y-6378000D01*
X20980000Y-7100000D02*
X20980000Y-7180000D01*
X20940000Y-7140000D02*
X21020000Y-7140000D01*
X16240000Y-16318000D02*
X16240000Y-16398000D01*
X16200000Y-16358000D02*
X16280000Y-16358000D01*
X16240000Y-17080000D02*
X16240000Y-17160000D01*
X16200000Y-17120000D02*
X16280000Y-17120000D01*
X4578000Y-13260000D02*
X4578000Y-13340000D01*
X4538000Y-13300000D02*
X4618000Y-13300000D01*
X5340000Y-13260000D02*
X5340000Y-13340000D01*
X5300000Y-13300000D02*
X5380000Y-13300000D01*
X6680000Y-6318000D02*
X6680000Y-6398000D01*
X6640000Y-6358000D02*
X6720000Y-6358000D01*
X6680000Y-7080000D02*
X6680000Y-7160000D01*
X6640000Y-7120000D02*
X6720000Y-7120000D01*
X13860000Y-18480000D02*
X13860000Y-18560000D01*
X13820000Y-18520000D02*
X13900000Y-18520000D01*
X13860000Y-19242000D02*
X13860000Y-19322000D01*
X13820000Y-19282000D02*
X13900000Y-19282000D01*
X15260000Y-6338000D02*
X15260000Y-6418000D01*
X15220000Y-6378000D02*
X15300000Y-6378000D01*
X15260000Y-7100000D02*
X15260000Y-7180000D01*
X15220000Y-7140000D02*
X15300000Y-7140000D01*
X16240000Y-9178000D02*
X16240000Y-9258000D01*
X16200000Y-9218000D02*
X16280000Y-9218000D01*
X16240000Y-9940000D02*
X16240000Y-10020000D01*
X16200000Y-9980000D02*
X16280000Y-9980000D01*
X11480000Y-13458000D02*
X11480000Y-13538000D01*
X11440000Y-13498000D02*
X11520000Y-13498000D01*
X11480000Y-14220000D02*
X11480000Y-14300000D01*
X11440000Y-14260000D02*
X11520000Y-14260000D01*
X4558000Y-10900000D02*
X4558000Y-10980000D01*
X4518000Y-10940000D02*
X4598000Y-10940000D01*
X5320000Y-10900000D02*
X5320000Y-10980000D01*
X5280000Y-10940000D02*
X5360000Y-10940000D01*
X21720000Y-14440000D02*
X21720000Y-14520000D01*
X21680000Y-14480000D02*
X21760000Y-14480000D01*
X22482000Y-14440000D02*
X22482000Y-14520000D01*
X22442000Y-14480000D02*
X22522000Y-14480000D01*
X4350000Y-18960000D02*
X4350000Y-19040000D01*
X4310000Y-19000000D02*
X4390000Y-19000000D01*
X4350000Y-19722000D02*
X4350000Y-19802000D01*
X4310000Y-19762000D02*
X4390000Y-19762000D01*
X20610000Y-20400000D02*
X20610000Y-20480000D01*
X20570000Y-20440000D02*
X20650000Y-20440000D01*
X21269911Y-20781000D02*
X21269911Y-20861000D01*
X21229911Y-20821000D02*
X21309911Y-20821000D01*
X9100000Y-16078000D02*
X9100000Y-16158000D01*
X9060000Y-16118000D02*
X9140000Y-16118000D01*
X9100000Y-16840000D02*
X9100000Y-16920000D01*
X9060000Y-16880000D02*
X9140000Y-16880000D01*
X18600000Y-11558000D02*
X18600000Y-11638000D01*
X18560000Y-11598000D02*
X18640000Y-11598000D01*
X18600000Y-12320000D02*
X18600000Y-12400000D01*
X18560000Y-12360000D02*
X18640000Y-12360000D01*
X11480000Y-11078000D02*
X11480000Y-11158000D01*
X11440000Y-11118000D02*
X11520000Y-11118000D01*
X11480000Y-11840000D02*
X11480000Y-11920000D01*
X11440000Y-11880000D02*
X11520000Y-11880000D01*
X9100000Y-11338000D02*
X9100000Y-11418000D01*
X9060000Y-11378000D02*
X9140000Y-11378000D01*
X9100000Y-12100000D02*
X9100000Y-12180000D01*
X9060000Y-12140000D02*
X9140000Y-12140000D01*
X9100000Y-8958000D02*
X9100000Y-9038000D01*
X9060000Y-8998000D02*
X9140000Y-8998000D01*
X9100000Y-9720000D02*
X9100000Y-9800000D01*
X9060000Y-9760000D02*
X9140000Y-9760000D01*
X9120000Y-13800000D02*
X9120000Y-13880000D01*
X9080000Y-13840000D02*
X9160000Y-13840000D01*
X9120000Y-14562000D02*
X9120000Y-14642000D01*
X9080000Y-14602000D02*
X9160000Y-14602000D01*
X3820000Y-6338000D02*
X3820000Y-6418000D01*
X3780000Y-6378000D02*
X3860000Y-6378000D01*
X3820000Y-7100000D02*
X3820000Y-7180000D01*
X3780000Y-7140000D02*
X3860000Y-7140000D01*
X4558000Y-15640000D02*
X4558000Y-15720000D01*
X4518000Y-15680000D02*
X4598000Y-15680000D01*
X5320000Y-15640000D02*
X5320000Y-15720000D01*
X5280000Y-15680000D02*
X5360000Y-15680000D01*
X16240000Y-13938000D02*
X16240000Y-14018000D01*
X16200000Y-13978000D02*
X16280000Y-13978000D01*
X16240000Y-14700000D02*
X16240000Y-14780000D01*
X16200000Y-14740000D02*
X16280000Y-14740000D01*
X9100000Y-18478000D02*
X9100000Y-18558000D01*
X9060000Y-18518000D02*
X9140000Y-18518000D01*
X9100000Y-19240000D02*
X9100000Y-19320000D01*
X9060000Y-19280000D02*
X9140000Y-19280000D01*
X13920000Y-16038000D02*
X13920000Y-16118000D01*
X13880000Y-16078000D02*
X13960000Y-16078000D01*
X13920000Y-16800000D02*
X13920000Y-16880000D01*
X13880000Y-16840000D02*
X13960000Y-16840000D01*
X11480000Y-8700000D02*
X11480000Y-8780000D01*
X11440000Y-8740000D02*
X11520000Y-8740000D01*
X11480000Y-9462000D02*
X11480000Y-9542000D01*
X11440000Y-9502000D02*
X11520000Y-9502000D01*
X6720000Y-16558000D02*
X6720000Y-16638000D01*
X6680000Y-16598000D02*
X6760000Y-16598000D01*
X6720000Y-17320000D02*
X6720000Y-17400000D01*
X6680000Y-17360000D02*
X6760000Y-17360000D01*
X18620000Y-9178000D02*
X18620000Y-9258000D01*
X18580000Y-9218000D02*
X18660000Y-9218000D01*
X18620000Y-9940000D02*
X18620000Y-10020000D01*
X18580000Y-9980000D02*
X18660000Y-9980000D01*
X6700000Y-9438000D02*
X6700000Y-9518000D01*
X6660000Y-9478000D02*
X6740000Y-9478000D01*
X6700000Y-10200000D02*
X6700000Y-10280000D01*
X6660000Y-10240000D02*
X6740000Y-10240000D01*
X9540000Y-6318000D02*
X9540000Y-6398000D01*
X9500000Y-6358000D02*
X9580000Y-6358000D01*
X9540000Y-7080000D02*
X9540000Y-7160000D01*
X9500000Y-7120000D02*
X9580000Y-7120000D01*
X21000000Y-9178000D02*
X21000000Y-9258000D01*
X20960000Y-9218000D02*
X21040000Y-9218000D01*
X21000000Y-9940000D02*
X21000000Y-10020000D01*
X20960000Y-9980000D02*
X21040000Y-9980000D01*
X16250000Y-11548000D02*
X16250000Y-11628000D01*
X16210000Y-11588000D02*
X16290000Y-11588000D01*
X16250000Y-12310000D02*
X16250000Y-12390000D01*
X16210000Y-12350000D02*
X16290000Y-12350000D01*
X6720000Y-11800000D02*
X6720000Y-11880000D01*
X6680000Y-11840000D02*
X6760000Y-11840000D01*
X6720000Y-12562000D02*
X6720000Y-12642000D01*
X6680000Y-12602000D02*
X6760000Y-12602000D01*
X21490089Y-23649000D02*
X21490089Y-23729000D01*
X21450089Y-23689000D02*
X21530089Y-23689000D01*
X22150000Y-24030000D02*
X22150000Y-24110000D01*
X22110000Y-24070000D02*
X22190000Y-24070000D01*
X13840000Y-13698000D02*
X13840000Y-13778000D01*
X13800000Y-13738000D02*
X13880000Y-13738000D01*
X13840000Y-14460000D02*
X13840000Y-14540000D01*
X13800000Y-14500000D02*
X13880000Y-14500000D01*
X17330089Y-21279000D02*
X17330089Y-21359000D01*
X17290089Y-21319000D02*
X17370089Y-21319000D01*
X17990000Y-21660000D02*
X17990000Y-21740000D01*
X17950000Y-21700000D02*
X18030000Y-21700000D01*
X12400000Y-6318000D02*
X12400000Y-6398000D01*
X12360000Y-6358000D02*
X12440000Y-6358000D01*
X12400000Y-7080000D02*
X12400000Y-7160000D01*
X12360000Y-7120000D02*
X12440000Y-7120000D01*
X11480000Y-15838000D02*
X11480000Y-15918000D01*
X11440000Y-15878000D02*
X11520000Y-15878000D01*
X11480000Y-16600000D02*
X11480000Y-16680000D01*
X11440000Y-16640000D02*
X11520000Y-16640000D01*
X18620000Y-16318000D02*
X18620000Y-16398000D01*
X18580000Y-16358000D02*
X18660000Y-16358000D01*
X18620000Y-17080000D02*
X18620000Y-17160000D01*
X18580000Y-17120000D02*
X18660000Y-17120000D01*
X23781820Y-9041820D02*
X23781820Y-8978180D01*
X23718180Y-8978180D01*
X23718180Y-9041820D01*
X23781820Y-9041820D01*
X23781820Y-9295820D02*
X23781820Y-9232180D01*
X23718180Y-9232180D01*
X23718180Y-9295820D01*
X23781820Y-9295820D01*
X23781820Y-6041820D02*
X23781820Y-5978180D01*
X23718180Y-5978180D01*
X23718180Y-6041820D01*
X23781820Y-6041820D01*
X23781820Y-6295820D02*
X23781820Y-6232180D01*
X23718180Y-6232180D01*
X23718180Y-6295820D01*
X23781820Y-6295820D01*
X23781820Y-7041820D02*
X23781820Y-6978180D01*
X23718180Y-6978180D01*
X23718180Y-7041820D01*
X23781820Y-7041820D01*
X23781820Y-7295820D02*
X23781820Y-7232180D01*
X23718180Y-7232180D01*
X23718180Y-7295820D01*
X23781820Y-7295820D01*
X23781820Y-8041820D02*
X23781820Y-7978180D01*
X23718180Y-7978180D01*
X23718180Y-8041820D01*
X23781820Y-8041820D01*
X23781820Y-8295820D02*
X23781820Y-8232180D01*
X23718180Y-8232180D01*
X23718180Y-8295820D01*
X23781820Y-8295820D01*
X23530000Y-17756000D02*
X23580000Y-17706000D01*
X23530000Y-17656000D01*
X23480000Y-17706000D01*
X23530000Y-17756000D01*
X23530000Y-18033000D02*
X23580000Y-17983000D01*
X23530000Y-17933000D01*
X23480000Y-17983000D01*
X23530000Y-18033000D01*
X23530000Y-18310000D02*
X23580000Y-18260000D01*
X23530000Y-18210000D01*
X23480000Y-18260000D01*
X23530000Y-18310000D01*
X23530000Y-18587000D02*
X23580000Y-18537000D01*
X23530000Y-18487000D01*
X23480000Y-18537000D01*
X23530000Y-18587000D01*
X23530000Y-18864000D02*
X23580000Y-18814000D01*
X23530000Y-18764000D01*
X23480000Y-18814000D01*
X23530000Y-18864000D01*
X23530000Y-19141000D02*
X23580000Y-19091000D01*
X23530000Y-19041000D01*
X23480000Y-19091000D01*
X23530000Y-19141000D01*
X23530000Y-19418000D02*
X23580000Y-19368000D01*
X23530000Y-19318000D01*
X23480000Y-19368000D01*
X23530000Y-19418000D01*
X23530000Y-19695000D02*
X23580000Y-19645000D01*
X23530000Y-19595000D01*
X23480000Y-19645000D01*
X23530000Y-19695000D01*
X23530000Y-19972000D02*
X23580000Y-19922000D01*
X23530000Y-19872000D01*
X23480000Y-19922000D01*
X23530000Y-19972000D01*
X23530000Y-20249000D02*
X23580000Y-20199000D01*
X23530000Y-20149000D01*
X23480000Y-20199000D01*
X23530000Y-20249000D01*
X23530000Y-20526000D02*
X23580000Y-20476000D01*
X23530000Y-20426000D01*
X23480000Y-20476000D01*
X23530000Y-20526000D01*
X23530000Y-20803000D02*
X23580000Y-20753000D01*
X23530000Y-20703000D01*
X23480000Y-20753000D01*
X23530000Y-20803000D01*
X23530000Y-21080000D02*
X23580000Y-21030000D01*
X23530000Y-20980000D01*
X23480000Y-21030000D01*
X23530000Y-21080000D01*
X23814000Y-17894500D02*
X23864000Y-17844500D01*
X23814000Y-17794500D01*
X23764000Y-17844500D01*
X23814000Y-17894500D01*
X23814000Y-18171500D02*
X23864000Y-18121500D01*
X23814000Y-18071500D01*
X23764000Y-18121500D01*
X23814000Y-18171500D01*
X23814000Y-18448500D02*
X23864000Y-18398500D01*
X23814000Y-18348500D01*
X23764000Y-18398500D01*
X23814000Y-18448500D01*
X23814000Y-18725500D02*
X23864000Y-18675500D01*
X23814000Y-18625500D01*
X23764000Y-18675500D01*
X23814000Y-18725500D01*
X23814000Y-19002500D02*
X23864000Y-18952500D01*
X23814000Y-18902500D01*
X23764000Y-18952500D01*
X23814000Y-19002500D01*
X23814000Y-19279500D02*
X23864000Y-19229500D01*
X23814000Y-19179500D01*
X23764000Y-19229500D01*
X23814000Y-19279500D01*
X23814000Y-19556500D02*
X23864000Y-19506500D01*
X23814000Y-19456500D01*
X23764000Y-19506500D01*
X23814000Y-19556500D01*
X23814000Y-19833500D02*
X23864000Y-19783500D01*
X23814000Y-19733500D01*
X23764000Y-19783500D01*
X23814000Y-19833500D01*
X23814000Y-20110500D02*
X23864000Y-20060500D01*
X23814000Y-20010500D01*
X23764000Y-20060500D01*
X23814000Y-20110500D01*
X23814000Y-20387500D02*
X23864000Y-20337500D01*
X23814000Y-20287500D01*
X23764000Y-20337500D01*
X23814000Y-20387500D01*
X23814000Y-20664500D02*
X23864000Y-20614500D01*
X23814000Y-20564500D01*
X23764000Y-20614500D01*
X23814000Y-20664500D01*
X23814000Y-20941500D02*
X23864000Y-20891500D01*
X23814000Y-20841500D01*
X23764000Y-20891500D01*
X23814000Y-20941500D01*
X2132000Y-22083000D02*
X2242000Y-22193000D01*
X2242000Y-22083000D02*
X2132000Y-22193000D01*
X2242000Y-22138000D02*
G75*
G03*
X2242000Y-22138000I-55000J0D01*
G01*
X2132000Y-23607000D02*
X2242000Y-23717000D01*
X2242000Y-23607000D02*
X2132000Y-23717000D01*
X2242000Y-23662000D02*
G75*
G03*
X2242000Y-23662000I-55000J0D01*
G01*
X2386000Y-22083000D02*
X2496000Y-22193000D01*
X2496000Y-22083000D02*
X2386000Y-22193000D01*
X2496000Y-22138000D02*
G75*
G03*
X2496000Y-22138000I-55000J0D01*
G01*
X2386000Y-23607000D02*
X2496000Y-23717000D01*
X2496000Y-23607000D02*
X2386000Y-23717000D01*
X2496000Y-23662000D02*
G75*
G03*
X2496000Y-23662000I-55000J0D01*
G01*
X2640000Y-22083000D02*
X2750000Y-22193000D01*
X2750000Y-22083000D02*
X2640000Y-22193000D01*
X2750000Y-22138000D02*
G75*
G03*
X2750000Y-22138000I-55000J0D01*
G01*
X2640000Y-23607000D02*
X2750000Y-23717000D01*
X2750000Y-23607000D02*
X2640000Y-23717000D01*
X2750000Y-23662000D02*
G75*
G03*
X2750000Y-23662000I-55000J0D01*
G01*
X2894000Y-22083000D02*
X3004000Y-22193000D01*
X3004000Y-22083000D02*
X2894000Y-22193000D01*
X3004000Y-22138000D02*
G75*
G03*
X3004000Y-22138000I-55000J0D01*
G01*
X2894000Y-23607000D02*
X3004000Y-23717000D01*
X3004000Y-23607000D02*
X2894000Y-23717000D01*
X3004000Y-23662000D02*
G75*
G03*
X3004000Y-23662000I-55000J0D01*
G01*
X3148000Y-22083000D02*
X3258000Y-22193000D01*
X3258000Y-22083000D02*
X3148000Y-22193000D01*
X3258000Y-22138000D02*
G75*
G03*
X3258000Y-22138000I-55000J0D01*
G01*
X3148000Y-23607000D02*
X3258000Y-23717000D01*
X3258000Y-23607000D02*
X3148000Y-23717000D01*
X3258000Y-23662000D02*
G75*
G03*
X3258000Y-23662000I-55000J0D01*
G01*
X3402000Y-22083000D02*
X3512000Y-22193000D01*
X3512000Y-22083000D02*
X3402000Y-22193000D01*
X3512000Y-22138000D02*
G75*
G03*
X3512000Y-22138000I-55000J0D01*
G01*
X3402000Y-23607000D02*
X3512000Y-23717000D01*
X3512000Y-23607000D02*
X3402000Y-23717000D01*
X3512000Y-23662000D02*
G75*
G03*
X3512000Y-23662000I-55000J0D01*
G01*
X3656000Y-22083000D02*
X3766000Y-22193000D01*
X3766000Y-22083000D02*
X3656000Y-22193000D01*
X3766000Y-22138000D02*
G75*
G03*
X3766000Y-22138000I-55000J0D01*
G01*
X3656000Y-23607000D02*
X3766000Y-23717000D01*
X3766000Y-23607000D02*
X3656000Y-23717000D01*
X3766000Y-23662000D02*
G75*
G03*
X3766000Y-23662000I-55000J0D01*
G01*
X3910000Y-22083000D02*
X4020000Y-22193000D01*
X4020000Y-22083000D02*
X3910000Y-22193000D01*
X4020000Y-22138000D02*
G75*
G03*
X4020000Y-22138000I-55000J0D01*
G01*
X3910000Y-23607000D02*
X4020000Y-23717000D01*
X4020000Y-23607000D02*
X3910000Y-23717000D01*
X4020000Y-23662000D02*
G75*
G03*
X4020000Y-23662000I-55000J0D01*
G01*
X4164000Y-22083000D02*
X4274000Y-22193000D01*
X4274000Y-22083000D02*
X4164000Y-22193000D01*
X4274000Y-22138000D02*
G75*
G03*
X4274000Y-22138000I-55000J0D01*
G01*
X4164000Y-23607000D02*
X4274000Y-23717000D01*
X4274000Y-23607000D02*
X4164000Y-23717000D01*
X4274000Y-23662000D02*
G75*
G03*
X4274000Y-23662000I-55000J0D01*
G01*
X4418000Y-22083000D02*
X4528000Y-22193000D01*
X4528000Y-22083000D02*
X4418000Y-22193000D01*
X4528000Y-22138000D02*
G75*
G03*
X4528000Y-22138000I-55000J0D01*
G01*
X4418000Y-23607000D02*
X4528000Y-23717000D01*
X4528000Y-23607000D02*
X4418000Y-23717000D01*
X4528000Y-23662000D02*
G75*
G03*
X4528000Y-23662000I-55000J0D01*
G01*
X4672000Y-22083000D02*
X4782000Y-22193000D01*
X4782000Y-22083000D02*
X4672000Y-22193000D01*
X4782000Y-22138000D02*
G75*
G03*
X4782000Y-22138000I-55000J0D01*
G01*
X4672000Y-23607000D02*
X4782000Y-23717000D01*
X4782000Y-23607000D02*
X4672000Y-23717000D01*
X4782000Y-23662000D02*
G75*
G03*
X4782000Y-23662000I-55000J0D01*
G01*
X4926000Y-22083000D02*
X5036000Y-22193000D01*
X5036000Y-22083000D02*
X4926000Y-22193000D01*
X5036000Y-22138000D02*
G75*
G03*
X5036000Y-22138000I-55000J0D01*
G01*
X4926000Y-23607000D02*
X5036000Y-23717000D01*
X5036000Y-23607000D02*
X4926000Y-23717000D01*
X5036000Y-23662000D02*
G75*
G03*
X5036000Y-23662000I-55000J0D01*
G01*
X5180000Y-22083000D02*
X5290000Y-22193000D01*
X5290000Y-22083000D02*
X5180000Y-22193000D01*
X5290000Y-22138000D02*
G75*
G03*
X5290000Y-22138000I-55000J0D01*
G01*
X5180000Y-23607000D02*
X5290000Y-23717000D01*
X5290000Y-23607000D02*
X5180000Y-23717000D01*
X5290000Y-23662000D02*
G75*
G03*
X5290000Y-23662000I-55000J0D01*
G01*
X5434000Y-22083000D02*
X5544000Y-22193000D01*
X5544000Y-22083000D02*
X5434000Y-22193000D01*
X5544000Y-22138000D02*
G75*
G03*
X5544000Y-22138000I-55000J0D01*
G01*
X5434000Y-22845000D02*
X5544000Y-22955000D01*
X5544000Y-22845000D02*
X5434000Y-22955000D01*
X5544000Y-22900000D02*
G75*
G03*
X5544000Y-22900000I-55000J0D01*
G01*
X5434000Y-23099000D02*
X5544000Y-23209000D01*
X5544000Y-23099000D02*
X5434000Y-23209000D01*
X5544000Y-23154000D02*
G75*
G03*
X5544000Y-23154000I-55000J0D01*
G01*
X5434000Y-23607000D02*
X5544000Y-23717000D01*
X5544000Y-23607000D02*
X5434000Y-23717000D01*
X5544000Y-23662000D02*
G75*
G03*
X5544000Y-23662000I-55000J0D01*
G01*
X5688000Y-22083000D02*
X5798000Y-22193000D01*
X5798000Y-22083000D02*
X5688000Y-22193000D01*
X5798000Y-22138000D02*
G75*
G03*
X5798000Y-22138000I-55000J0D01*
G01*
X5688000Y-22845000D02*
X5798000Y-22955000D01*
X5798000Y-22845000D02*
X5688000Y-22955000D01*
X5798000Y-22900000D02*
G75*
G03*
X5798000Y-22900000I-55000J0D01*
G01*
X5688000Y-23099000D02*
X5798000Y-23209000D01*
X5798000Y-23099000D02*
X5688000Y-23209000D01*
X5798000Y-23154000D02*
G75*
G03*
X5798000Y-23154000I-55000J0D01*
G01*
X5688000Y-23607000D02*
X5798000Y-23717000D01*
X5798000Y-23607000D02*
X5688000Y-23717000D01*
X5798000Y-23662000D02*
G75*
G03*
X5798000Y-23662000I-55000J0D01*
G01*
X5942000Y-22083000D02*
X6052000Y-22193000D01*
X6052000Y-22083000D02*
X5942000Y-22193000D01*
X6052000Y-22138000D02*
G75*
G03*
X6052000Y-22138000I-55000J0D01*
G01*
X5942000Y-22845000D02*
X6052000Y-22955000D01*
X6052000Y-22845000D02*
X5942000Y-22955000D01*
X6052000Y-22900000D02*
G75*
G03*
X6052000Y-22900000I-55000J0D01*
G01*
X5942000Y-23099000D02*
X6052000Y-23209000D01*
X6052000Y-23099000D02*
X5942000Y-23209000D01*
X6052000Y-23154000D02*
G75*
G03*
X6052000Y-23154000I-55000J0D01*
G01*
X5942000Y-23607000D02*
X6052000Y-23717000D01*
X6052000Y-23607000D02*
X5942000Y-23717000D01*
X6052000Y-23662000D02*
G75*
G03*
X6052000Y-23662000I-55000J0D01*
G01*
X6196000Y-22083000D02*
X6306000Y-22193000D01*
X6306000Y-22083000D02*
X6196000Y-22193000D01*
X6306000Y-22138000D02*
G75*
G03*
X6306000Y-22138000I-55000J0D01*
G01*
X6196000Y-22591000D02*
X6306000Y-22701000D01*
X6306000Y-22591000D02*
X6196000Y-22701000D01*
X6306000Y-22646000D02*
G75*
G03*
X6306000Y-22646000I-55000J0D01*
G01*
X6196000Y-22845000D02*
X6306000Y-22955000D01*
X6306000Y-22845000D02*
X6196000Y-22955000D01*
X6306000Y-22900000D02*
G75*
G03*
X6306000Y-22900000I-55000J0D01*
G01*
X6196000Y-23099000D02*
X6306000Y-23209000D01*
X6306000Y-23099000D02*
X6196000Y-23209000D01*
X6306000Y-23154000D02*
G75*
G03*
X6306000Y-23154000I-55000J0D01*
G01*
X6196000Y-23607000D02*
X6306000Y-23717000D01*
X6306000Y-23607000D02*
X6196000Y-23717000D01*
X6306000Y-23662000D02*
G75*
G03*
X6306000Y-23662000I-55000J0D01*
G01*
X6450000Y-22083000D02*
X6560000Y-22193000D01*
X6560000Y-22083000D02*
X6450000Y-22193000D01*
X6560000Y-22138000D02*
G75*
G03*
X6560000Y-22138000I-55000J0D01*
G01*
X6450000Y-23607000D02*
X6560000Y-23717000D01*
X6560000Y-23607000D02*
X6450000Y-23717000D01*
X6560000Y-23662000D02*
G75*
G03*
X6560000Y-23662000I-55000J0D01*
G01*
X6704000Y-22083000D02*
X6814000Y-22193000D01*
X6814000Y-22083000D02*
X6704000Y-22193000D01*
X6814000Y-22138000D02*
G75*
G03*
X6814000Y-22138000I-55000J0D01*
G01*
X6704000Y-23607000D02*
X6814000Y-23717000D01*
X6814000Y-23607000D02*
X6704000Y-23717000D01*
X6814000Y-23662000D02*
G75*
G03*
X6814000Y-23662000I-55000J0D01*
G01*
X6958000Y-22083000D02*
X7068000Y-22193000D01*
X7068000Y-22083000D02*
X6958000Y-22193000D01*
X7068000Y-22138000D02*
G75*
G03*
X7068000Y-22138000I-55000J0D01*
G01*
X6958000Y-22591000D02*
X7068000Y-22701000D01*
X7068000Y-22591000D02*
X6958000Y-22701000D01*
X7068000Y-22646000D02*
G75*
G03*
X7068000Y-22646000I-55000J0D01*
G01*
X6958000Y-22845000D02*
X7068000Y-22955000D01*
X7068000Y-22845000D02*
X6958000Y-22955000D01*
X7068000Y-22900000D02*
G75*
G03*
X7068000Y-22900000I-55000J0D01*
G01*
X6958000Y-23099000D02*
X7068000Y-23209000D01*
X7068000Y-23099000D02*
X6958000Y-23209000D01*
X7068000Y-23154000D02*
G75*
G03*
X7068000Y-23154000I-55000J0D01*
G01*
X6958000Y-23607000D02*
X7068000Y-23717000D01*
X7068000Y-23607000D02*
X6958000Y-23717000D01*
X7068000Y-23662000D02*
G75*
G03*
X7068000Y-23662000I-55000J0D01*
G01*
X21497000Y-15931000D02*
X21647000Y-16081000D01*
X21647000Y-15931000D02*
X21497000Y-16081000D01*
X21572000Y-15931000D02*
X21572000Y-16081000D01*
X21497000Y-16006000D02*
X21647000Y-16006000D01*
X21751000Y-16566000D02*
X21901000Y-16716000D01*
X21901000Y-16566000D02*
X21751000Y-16716000D01*
X21826000Y-16566000D02*
X21826000Y-16716000D01*
X21751000Y-16641000D02*
X21901000Y-16641000D01*
X9724000Y-16171000D02*
X9874000Y-16321000D01*
X9874000Y-16171000D02*
X9724000Y-16321000D01*
X9799000Y-16171000D02*
X9799000Y-16321000D01*
X9724000Y-16246000D02*
X9874000Y-16246000D01*
X10359000Y-15917000D02*
X10509000Y-16067000D01*
X10509000Y-15917000D02*
X10359000Y-16067000D01*
X10434000Y-15917000D02*
X10434000Y-16067000D01*
X10359000Y-15992000D02*
X10509000Y-15992000D01*
X4464000Y-6431000D02*
X4614000Y-6581000D01*
X4614000Y-6431000D02*
X4464000Y-6581000D01*
X4539000Y-6431000D02*
X4539000Y-6581000D01*
X4464000Y-6506000D02*
X4614000Y-6506000D01*
X5099000Y-6177000D02*
X5249000Y-6327000D01*
X5249000Y-6177000D02*
X5099000Y-6327000D01*
X5174000Y-6177000D02*
X5174000Y-6327000D01*
X5099000Y-6252000D02*
X5249000Y-6252000D01*
X16864000Y-9271000D02*
X17014000Y-9421000D01*
X17014000Y-9271000D02*
X16864000Y-9421000D01*
X16939000Y-9271000D02*
X16939000Y-9421000D01*
X16864000Y-9346000D02*
X17014000Y-9346000D01*
X17499000Y-9017000D02*
X17649000Y-9167000D01*
X17649000Y-9017000D02*
X17499000Y-9167000D01*
X17574000Y-9017000D02*
X17574000Y-9167000D01*
X17499000Y-9092000D02*
X17649000Y-9092000D01*
X4984000Y-19031000D02*
X5134000Y-19181000D01*
X5134000Y-19031000D02*
X4984000Y-19181000D01*
X5059000Y-19031000D02*
X5059000Y-19181000D01*
X4984000Y-19106000D02*
X5134000Y-19106000D01*
X5619000Y-18777000D02*
X5769000Y-18927000D01*
X5769000Y-18777000D02*
X5619000Y-18927000D01*
X5694000Y-18777000D02*
X5694000Y-18927000D01*
X5619000Y-18852000D02*
X5769000Y-18852000D01*
X4484000Y-9511000D02*
X4634000Y-9661000D01*
X4634000Y-9511000D02*
X4484000Y-9661000D01*
X4559000Y-9511000D02*
X4559000Y-9661000D01*
X4484000Y-9586000D02*
X4634000Y-9586000D01*
X5119000Y-9257000D02*
X5269000Y-9407000D01*
X5269000Y-9257000D02*
X5119000Y-9407000D01*
X5194000Y-9257000D02*
X5194000Y-9407000D01*
X5119000Y-9332000D02*
X5269000Y-9332000D01*
X12104000Y-18311000D02*
X12254000Y-18461000D01*
X12254000Y-18311000D02*
X12104000Y-18461000D01*
X12179000Y-18311000D02*
X12179000Y-18461000D01*
X12104000Y-18386000D02*
X12254000Y-18386000D01*
X12739000Y-18057000D02*
X12889000Y-18207000D01*
X12889000Y-18057000D02*
X12739000Y-18207000D01*
X12814000Y-18057000D02*
X12814000Y-18207000D01*
X12739000Y-18132000D02*
X12889000Y-18132000D01*
X12104000Y-8791000D02*
X12254000Y-8941000D01*
X12254000Y-8791000D02*
X12104000Y-8941000D01*
X12179000Y-8791000D02*
X12179000Y-8941000D01*
X12104000Y-8866000D02*
X12254000Y-8866000D01*
X12739000Y-8537000D02*
X12889000Y-8687000D01*
X12889000Y-8537000D02*
X12739000Y-8687000D01*
X12814000Y-8537000D02*
X12814000Y-8687000D01*
X12739000Y-8612000D02*
X12889000Y-8612000D01*
X19244000Y-11631000D02*
X19394000Y-11781000D01*
X19394000Y-11631000D02*
X19244000Y-11781000D01*
X19319000Y-11631000D02*
X19319000Y-11781000D01*
X19244000Y-11706000D02*
X19394000Y-11706000D01*
X19879000Y-11377000D02*
X20029000Y-11527000D01*
X20029000Y-11377000D02*
X19879000Y-11527000D01*
X19954000Y-11377000D02*
X19954000Y-11527000D01*
X19879000Y-11452000D02*
X20029000Y-11452000D01*
X14504000Y-16171000D02*
X14654000Y-16321000D01*
X14654000Y-16171000D02*
X14504000Y-16321000D01*
X14579000Y-16171000D02*
X14579000Y-16321000D01*
X14504000Y-16246000D02*
X14654000Y-16246000D01*
X15139000Y-15917000D02*
X15289000Y-16067000D01*
X15289000Y-15917000D02*
X15139000Y-16067000D01*
X15214000Y-15917000D02*
X15214000Y-16067000D01*
X15139000Y-15992000D02*
X15289000Y-15992000D01*
X21497000Y-12591000D02*
X21647000Y-12741000D01*
X21647000Y-12591000D02*
X21497000Y-12741000D01*
X21572000Y-12591000D02*
X21572000Y-12741000D01*
X21497000Y-12666000D02*
X21647000Y-12666000D01*
X21751000Y-13226000D02*
X21901000Y-13376000D01*
X21901000Y-13226000D02*
X21751000Y-13376000D01*
X21826000Y-13226000D02*
X21826000Y-13376000D01*
X21751000Y-13301000D02*
X21901000Y-13301000D01*
X9724000Y-11411000D02*
X9874000Y-11561000D01*
X9874000Y-11411000D02*
X9724000Y-11561000D01*
X9799000Y-11411000D02*
X9799000Y-11561000D01*
X9724000Y-11486000D02*
X9874000Y-11486000D01*
X10359000Y-11157000D02*
X10509000Y-11307000D01*
X10509000Y-11157000D02*
X10359000Y-11307000D01*
X10434000Y-11157000D02*
X10434000Y-11307000D01*
X10359000Y-11232000D02*
X10509000Y-11232000D01*
X22112074Y-22454570D02*
X22262074Y-22604570D01*
X22262074Y-22454570D02*
X22112074Y-22604570D01*
X22187074Y-22454570D02*
X22187074Y-22604570D01*
X22112074Y-22529570D02*
X22262074Y-22529570D01*
X22789000Y-22552100D02*
X22939000Y-22702100D01*
X22939000Y-22552100D02*
X22789000Y-22702100D01*
X22864000Y-22552100D02*
X22864000Y-22702100D01*
X22789000Y-22627100D02*
X22939000Y-22627100D01*
X7344000Y-16651000D02*
X7494000Y-16801000D01*
X7494000Y-16651000D02*
X7344000Y-16801000D01*
X7419000Y-16651000D02*
X7419000Y-16801000D01*
X7344000Y-16726000D02*
X7494000Y-16726000D01*
X7979000Y-16397000D02*
X8129000Y-16547000D01*
X8129000Y-16397000D02*
X7979000Y-16547000D01*
X8054000Y-16397000D02*
X8054000Y-16547000D01*
X7979000Y-16472000D02*
X8129000Y-16472000D01*
X13044000Y-6411000D02*
X13194000Y-6561000D01*
X13194000Y-6411000D02*
X13044000Y-6561000D01*
X13119000Y-6411000D02*
X13119000Y-6561000D01*
X13044000Y-6486000D02*
X13194000Y-6486000D01*
X13679000Y-6157000D02*
X13829000Y-6307000D01*
X13829000Y-6157000D02*
X13679000Y-6307000D01*
X13754000Y-6157000D02*
X13754000Y-6307000D01*
X13679000Y-6232000D02*
X13829000Y-6232000D01*
X4484000Y-11891000D02*
X4634000Y-12041000D01*
X4634000Y-11891000D02*
X4484000Y-12041000D01*
X4559000Y-11891000D02*
X4559000Y-12041000D01*
X4484000Y-11966000D02*
X4634000Y-11966000D01*
X5119000Y-11637000D02*
X5269000Y-11787000D01*
X5269000Y-11637000D02*
X5119000Y-11787000D01*
X5194000Y-11637000D02*
X5194000Y-11787000D01*
X5119000Y-11712000D02*
X5269000Y-11712000D01*
X7344000Y-11891000D02*
X7494000Y-12041000D01*
X7494000Y-11891000D02*
X7344000Y-12041000D01*
X7419000Y-11891000D02*
X7419000Y-12041000D01*
X7344000Y-11966000D02*
X7494000Y-11966000D01*
X7979000Y-11637000D02*
X8129000Y-11787000D01*
X8129000Y-11637000D02*
X7979000Y-11787000D01*
X8054000Y-11637000D02*
X8054000Y-11787000D01*
X7979000Y-11712000D02*
X8129000Y-11712000D01*
X12104000Y-13551000D02*
X12254000Y-13701000D01*
X12254000Y-13551000D02*
X12104000Y-13701000D01*
X12179000Y-13551000D02*
X12179000Y-13701000D01*
X12104000Y-13626000D02*
X12254000Y-13626000D01*
X12739000Y-13297000D02*
X12889000Y-13447000D01*
X12889000Y-13297000D02*
X12739000Y-13447000D01*
X12814000Y-13297000D02*
X12814000Y-13447000D01*
X12739000Y-13372000D02*
X12889000Y-13372000D01*
X7324000Y-6411000D02*
X7474000Y-6561000D01*
X7474000Y-6411000D02*
X7324000Y-6561000D01*
X7399000Y-6411000D02*
X7399000Y-6561000D01*
X7324000Y-6486000D02*
X7474000Y-6486000D01*
X7959000Y-6157000D02*
X8109000Y-6307000D01*
X8109000Y-6157000D02*
X7959000Y-6307000D01*
X8034000Y-6157000D02*
X8034000Y-6307000D01*
X7959000Y-6232000D02*
X8109000Y-6232000D01*
X19244000Y-9271000D02*
X19394000Y-9421000D01*
X19394000Y-9271000D02*
X19244000Y-9421000D01*
X19319000Y-9271000D02*
X19319000Y-9421000D01*
X19244000Y-9346000D02*
X19394000Y-9346000D01*
X19879000Y-9017000D02*
X20029000Y-9167000D01*
X20029000Y-9017000D02*
X19879000Y-9167000D01*
X19954000Y-9017000D02*
X19954000Y-9167000D01*
X19879000Y-9092000D02*
X20029000Y-9092000D01*
X7344000Y-9511000D02*
X7494000Y-9661000D01*
X7494000Y-9511000D02*
X7344000Y-9661000D01*
X7419000Y-9511000D02*
X7419000Y-9661000D01*
X7344000Y-9586000D02*
X7494000Y-9586000D01*
X7979000Y-9257000D02*
X8129000Y-9407000D01*
X8129000Y-9257000D02*
X7979000Y-9407000D01*
X8054000Y-9257000D02*
X8054000Y-9407000D01*
X7979000Y-9332000D02*
X8129000Y-9332000D01*
X14484000Y-11411000D02*
X14634000Y-11561000D01*
X14634000Y-11411000D02*
X14484000Y-11561000D01*
X14559000Y-11411000D02*
X14559000Y-11561000D01*
X14484000Y-11486000D02*
X14634000Y-11486000D01*
X15119000Y-11157000D02*
X15269000Y-11307000D01*
X15269000Y-11157000D02*
X15119000Y-11307000D01*
X15194000Y-11157000D02*
X15194000Y-11307000D01*
X15119000Y-11232000D02*
X15269000Y-11232000D01*
X7344000Y-14271000D02*
X7494000Y-14421000D01*
X7494000Y-14271000D02*
X7344000Y-14421000D01*
X7419000Y-14271000D02*
X7419000Y-14421000D01*
X7344000Y-14346000D02*
X7494000Y-14346000D01*
X7979000Y-14017000D02*
X8129000Y-14167000D01*
X8129000Y-14017000D02*
X7979000Y-14167000D01*
X8054000Y-14017000D02*
X8054000Y-14167000D01*
X7979000Y-14092000D02*
X8129000Y-14092000D01*
X21624000Y-9251000D02*
X21774000Y-9401000D01*
X21774000Y-9251000D02*
X21624000Y-9401000D01*
X21699000Y-9251000D02*
X21699000Y-9401000D01*
X21624000Y-9326000D02*
X21774000Y-9326000D01*
X22259000Y-8997000D02*
X22409000Y-9147000D01*
X22409000Y-8997000D02*
X22259000Y-9147000D01*
X22334000Y-8997000D02*
X22334000Y-9147000D01*
X22259000Y-9072000D02*
X22409000Y-9072000D01*
X9724000Y-9031000D02*
X9874000Y-9181000D01*
X9874000Y-9031000D02*
X9724000Y-9181000D01*
X9799000Y-9031000D02*
X9799000Y-9181000D01*
X9724000Y-9106000D02*
X9874000Y-9106000D01*
X10359000Y-8777000D02*
X10509000Y-8927000D01*
X10509000Y-8777000D02*
X10359000Y-8927000D01*
X10434000Y-8777000D02*
X10434000Y-8927000D01*
X10359000Y-8852000D02*
X10509000Y-8852000D01*
X20052074Y-21274571D02*
X20202074Y-21424571D01*
X20202074Y-21274571D02*
X20052074Y-21424571D01*
X20127074Y-21274571D02*
X20127074Y-21424571D01*
X20052074Y-21349571D02*
X20202074Y-21349571D01*
X20729000Y-21372100D02*
X20879000Y-21522100D01*
X20879000Y-21372100D02*
X20729000Y-21522100D01*
X20804000Y-21372100D02*
X20804000Y-21522100D01*
X20729000Y-21447100D02*
X20879000Y-21447100D01*
X21232074Y-19214571D02*
X21382074Y-19364571D01*
X21382074Y-19214571D02*
X21232074Y-19364571D01*
X21307074Y-19214571D02*
X21307074Y-19364571D01*
X21232074Y-19289571D02*
X21382074Y-19289571D01*
X21909000Y-19312100D02*
X22059000Y-19462100D01*
X22059000Y-19312100D02*
X21909000Y-19462100D01*
X21984000Y-19312100D02*
X21984000Y-19462100D01*
X21909000Y-19387100D02*
X22059000Y-19387100D01*
X7344000Y-19031000D02*
X7494000Y-19181000D01*
X7494000Y-19031000D02*
X7344000Y-19181000D01*
X7419000Y-19031000D02*
X7419000Y-19181000D01*
X7344000Y-19106000D02*
X7494000Y-19106000D01*
X7979000Y-18777000D02*
X8129000Y-18927000D01*
X8129000Y-18777000D02*
X7979000Y-18927000D01*
X8054000Y-18777000D02*
X8054000Y-18927000D01*
X7979000Y-18852000D02*
X8129000Y-18852000D01*
X9724000Y-18551000D02*
X9874000Y-18701000D01*
X9874000Y-18551000D02*
X9724000Y-18701000D01*
X9799000Y-18551000D02*
X9799000Y-18701000D01*
X9724000Y-18626000D02*
X9874000Y-18626000D01*
X10359000Y-18297000D02*
X10509000Y-18447000D01*
X10509000Y-18297000D02*
X10359000Y-18447000D01*
X10434000Y-18297000D02*
X10434000Y-18447000D01*
X10359000Y-18372000D02*
X10509000Y-18372000D01*
X21604000Y-6411000D02*
X21754000Y-6561000D01*
X21754000Y-6411000D02*
X21604000Y-6561000D01*
X21679000Y-6411000D02*
X21679000Y-6561000D01*
X21604000Y-6486000D02*
X21754000Y-6486000D01*
X22239000Y-6157000D02*
X22389000Y-6307000D01*
X22389000Y-6157000D02*
X22239000Y-6307000D01*
X22314000Y-6157000D02*
X22314000Y-6307000D01*
X22239000Y-6232000D02*
X22389000Y-6232000D01*
X12104000Y-15931000D02*
X12254000Y-16081000D01*
X12254000Y-15931000D02*
X12104000Y-16081000D01*
X12179000Y-15931000D02*
X12179000Y-16081000D01*
X12104000Y-16006000D02*
X12254000Y-16006000D01*
X12739000Y-15677000D02*
X12889000Y-15827000D01*
X12889000Y-15677000D02*
X12739000Y-15827000D01*
X12814000Y-15677000D02*
X12814000Y-15827000D01*
X12739000Y-15752000D02*
X12889000Y-15752000D01*
X10184000Y-6411000D02*
X10334000Y-6561000D01*
X10334000Y-6411000D02*
X10184000Y-6561000D01*
X10259000Y-6411000D02*
X10259000Y-6561000D01*
X10184000Y-6486000D02*
X10334000Y-6486000D01*
X10819000Y-6157000D02*
X10969000Y-6307000D01*
X10969000Y-6157000D02*
X10819000Y-6307000D01*
X10894000Y-6157000D02*
X10894000Y-6307000D01*
X10819000Y-6232000D02*
X10969000Y-6232000D01*
X14484000Y-9051000D02*
X14634000Y-9201000D01*
X14634000Y-9051000D02*
X14484000Y-9201000D01*
X14559000Y-9051000D02*
X14559000Y-9201000D01*
X14484000Y-9126000D02*
X14634000Y-9126000D01*
X15119000Y-8797000D02*
X15269000Y-8947000D01*
X15269000Y-8797000D02*
X15119000Y-8947000D01*
X15194000Y-8797000D02*
X15194000Y-8947000D01*
X15119000Y-8872000D02*
X15269000Y-8872000D01*
X19244000Y-14031000D02*
X19394000Y-14181000D01*
X19394000Y-14031000D02*
X19244000Y-14181000D01*
X19319000Y-14031000D02*
X19319000Y-14181000D01*
X19244000Y-14106000D02*
X19394000Y-14106000D01*
X19879000Y-13777000D02*
X20029000Y-13927000D01*
X20029000Y-13777000D02*
X19879000Y-13927000D01*
X19954000Y-13777000D02*
X19954000Y-13927000D01*
X19879000Y-13852000D02*
X20029000Y-13852000D01*
X4484000Y-16651000D02*
X4634000Y-16801000D01*
X4634000Y-16651000D02*
X4484000Y-16801000D01*
X4559000Y-16651000D02*
X4559000Y-16801000D01*
X4484000Y-16726000D02*
X4634000Y-16726000D01*
X5119000Y-16397000D02*
X5269000Y-16547000D01*
X5269000Y-16397000D02*
X5119000Y-16547000D01*
X5194000Y-16397000D02*
X5194000Y-16547000D01*
X5119000Y-16472000D02*
X5269000Y-16472000D01*
X18764000Y-6411000D02*
X18914000Y-6561000D01*
X18914000Y-6411000D02*
X18764000Y-6561000D01*
X18839000Y-6411000D02*
X18839000Y-6561000D01*
X18764000Y-6486000D02*
X18914000Y-6486000D01*
X19399000Y-6157000D02*
X19549000Y-6307000D01*
X19549000Y-6157000D02*
X19399000Y-6307000D01*
X19474000Y-6157000D02*
X19474000Y-6307000D01*
X19399000Y-6232000D02*
X19549000Y-6232000D01*
X9724000Y-13791000D02*
X9874000Y-13941000D01*
X9874000Y-13791000D02*
X9724000Y-13941000D01*
X9799000Y-13791000D02*
X9799000Y-13941000D01*
X9724000Y-13866000D02*
X9874000Y-13866000D01*
X10359000Y-13537000D02*
X10509000Y-13687000D01*
X10509000Y-13537000D02*
X10359000Y-13687000D01*
X10434000Y-13537000D02*
X10434000Y-13687000D01*
X10359000Y-13612000D02*
X10509000Y-13612000D01*
X16864000Y-14031000D02*
X17014000Y-14181000D01*
X17014000Y-14031000D02*
X16864000Y-14181000D01*
X16939000Y-14031000D02*
X16939000Y-14181000D01*
X16864000Y-14106000D02*
X17014000Y-14106000D01*
X17499000Y-13777000D02*
X17649000Y-13927000D01*
X17649000Y-13777000D02*
X17499000Y-13927000D01*
X17574000Y-13777000D02*
X17574000Y-13927000D01*
X17499000Y-13852000D02*
X17649000Y-13852000D01*
X14484000Y-18551000D02*
X14634000Y-18701000D01*
X14634000Y-18551000D02*
X14484000Y-18701000D01*
X14559000Y-18551000D02*
X14559000Y-18701000D01*
X14484000Y-18626000D02*
X14634000Y-18626000D01*
X15119000Y-18297000D02*
X15269000Y-18447000D01*
X15269000Y-18297000D02*
X15119000Y-18447000D01*
X15194000Y-18297000D02*
X15194000Y-18447000D01*
X15119000Y-18372000D02*
X15269000Y-18372000D01*
X12104000Y-11171000D02*
X12254000Y-11321000D01*
X12254000Y-11171000D02*
X12104000Y-11321000D01*
X12179000Y-11171000D02*
X12179000Y-11321000D01*
X12104000Y-11246000D02*
X12254000Y-11246000D01*
X12739000Y-10917000D02*
X12889000Y-11067000D01*
X12889000Y-10917000D02*
X12739000Y-11067000D01*
X12814000Y-10917000D02*
X12814000Y-11067000D01*
X12739000Y-10992000D02*
X12889000Y-10992000D01*
X16864000Y-11651000D02*
X17014000Y-11801000D01*
X17014000Y-11651000D02*
X16864000Y-11801000D01*
X16939000Y-11651000D02*
X16939000Y-11801000D01*
X16864000Y-11726000D02*
X17014000Y-11726000D01*
X17499000Y-11397000D02*
X17649000Y-11547000D01*
X17649000Y-11397000D02*
X17499000Y-11547000D01*
X17574000Y-11397000D02*
X17574000Y-11547000D01*
X17499000Y-11472000D02*
X17649000Y-11472000D01*
X17982074Y-20084571D02*
X18132074Y-20234571D01*
X18132074Y-20084571D02*
X17982074Y-20234571D01*
X18057074Y-20084571D02*
X18057074Y-20234571D01*
X17982074Y-20159571D02*
X18132074Y-20159571D01*
X18659000Y-20182100D02*
X18809000Y-20332100D01*
X18809000Y-20182100D02*
X18659000Y-20332100D01*
X18734000Y-20182100D02*
X18734000Y-20332100D01*
X18659000Y-20257100D02*
X18809000Y-20257100D01*
X15904000Y-6411000D02*
X16054000Y-6561000D01*
X16054000Y-6411000D02*
X15904000Y-6561000D01*
X15979000Y-6411000D02*
X15979000Y-6561000D01*
X15904000Y-6486000D02*
X16054000Y-6486000D01*
X16539000Y-6157000D02*
X16689000Y-6307000D01*
X16689000Y-6157000D02*
X16539000Y-6307000D01*
X16614000Y-6157000D02*
X16614000Y-6307000D01*
X16539000Y-6232000D02*
X16689000Y-6232000D01*
X16864000Y-16391000D02*
X17014000Y-16541000D01*
X17014000Y-16391000D02*
X16864000Y-16541000D01*
X16939000Y-16391000D02*
X16939000Y-16541000D01*
X16864000Y-16466000D02*
X17014000Y-16466000D01*
X17499000Y-16137000D02*
X17649000Y-16287000D01*
X17649000Y-16137000D02*
X17499000Y-16287000D01*
X17574000Y-16137000D02*
X17574000Y-16287000D01*
X17499000Y-16212000D02*
X17649000Y-16212000D01*
X4484000Y-14271000D02*
X4634000Y-14421000D01*
X4634000Y-14271000D02*
X4484000Y-14421000D01*
X4559000Y-14271000D02*
X4559000Y-14421000D01*
X4484000Y-14346000D02*
X4634000Y-14346000D01*
X5119000Y-14017000D02*
X5269000Y-14167000D01*
X5269000Y-14017000D02*
X5119000Y-14167000D01*
X5194000Y-14017000D02*
X5194000Y-14167000D01*
X5119000Y-14092000D02*
X5269000Y-14092000D01*
X19244000Y-16411000D02*
X19394000Y-16561000D01*
X19394000Y-16411000D02*
X19244000Y-16561000D01*
X19319000Y-16411000D02*
X19319000Y-16561000D01*
X19244000Y-16486000D02*
X19394000Y-16486000D01*
X19879000Y-16157000D02*
X20029000Y-16307000D01*
X20029000Y-16157000D02*
X19879000Y-16307000D01*
X19954000Y-16157000D02*
X19954000Y-16307000D01*
X19879000Y-16232000D02*
X20029000Y-16232000D01*
X14484000Y-13791000D02*
X14634000Y-13941000D01*
X14634000Y-13791000D02*
X14484000Y-13941000D01*
X14559000Y-13791000D02*
X14559000Y-13941000D01*
X14484000Y-13866000D02*
X14634000Y-13866000D01*
X15119000Y-13537000D02*
X15269000Y-13687000D01*
X15269000Y-13537000D02*
X15119000Y-13687000D01*
X15194000Y-13537000D02*
X15194000Y-13687000D01*
X15119000Y-13612000D02*
X15269000Y-13612000D01*
X23512000Y-16853000D02*
X23832000Y-17173000D01*
X23832000Y-16853000D02*
X23512000Y-17173000D01*
X23785138Y-17126138D02*
X23785138Y-16899862D01*
X23558862Y-16899862D01*
X23558862Y-17126138D01*
X23785138Y-17126138D01*
X23512000Y-21563000D02*
X23832000Y-21883000D01*
X23832000Y-21563000D02*
X23512000Y-21883000D01*
X23785138Y-21836138D02*
X23785138Y-21609862D01*
X23558862Y-21609862D01*
X23558862Y-21836138D01*
X23785138Y-21836138D01*
X13035000Y-26435000D02*
X13465000Y-26865000D01*
X13465000Y-26435000D02*
X13035000Y-26865000D01*
X13250000Y-26865000D02*
X13465000Y-26650000D01*
X13250000Y-26435000D01*
X13035000Y-26650000D01*
X13250000Y-26865000D01*
X23535000Y-15635000D02*
X23965000Y-16065000D01*
X23965000Y-15635000D02*
X23535000Y-16065000D01*
X23750000Y-16065000D02*
X23965000Y-15850000D01*
X23750000Y-15635000D01*
X23535000Y-15850000D01*
X23750000Y-16065000D01*
X2535000Y-4835000D02*
X2965000Y-5265000D01*
X2965000Y-4835000D02*
X2535000Y-5265000D01*
X2750000Y-5265000D02*
X2965000Y-5050000D01*
X2750000Y-4835000D01*
X2535000Y-5050000D01*
X2750000Y-5265000D01*
X2535000Y-26435000D02*
X2965000Y-26865000D01*
X2965000Y-26435000D02*
X2535000Y-26865000D01*
X2750000Y-26865000D02*
X2965000Y-26650000D01*
X2750000Y-26435000D01*
X2535000Y-26650000D01*
X2750000Y-26865000D01*
X2535000Y-15635000D02*
X2965000Y-16065000D01*
X2965000Y-15635000D02*
X2535000Y-16065000D01*
X2750000Y-16065000D02*
X2965000Y-15850000D01*
X2750000Y-15635000D01*
X2535000Y-15850000D01*
X2750000Y-16065000D01*
X23535000Y-4835000D02*
X23965000Y-5265000D01*
X23965000Y-4835000D02*
X23535000Y-5265000D01*
X23750000Y-5265000D02*
X23965000Y-5050000D01*
X23750000Y-4835000D01*
X23535000Y-5050000D01*
X23750000Y-5265000D01*
X13035000Y-4835000D02*
X13465000Y-5265000D01*
X13465000Y-4835000D02*
X13035000Y-5265000D01*
X13250000Y-5265000D02*
X13465000Y-5050000D01*
X13250000Y-4835000D01*
X13035000Y-5050000D01*
X13250000Y-5265000D01*
X23535000Y-26435000D02*
X23965000Y-26865000D01*
X23965000Y-26435000D02*
X23535000Y-26865000D01*
X23750000Y-26865000D02*
X23965000Y-26650000D01*
X23750000Y-26435000D01*
X23535000Y-26650000D01*
X23750000Y-26865000D01*
D12*
X1936428Y-27918299D02*
X1936428Y-27618299D01*
X2007857Y-27618299D01*
X2050714Y-27632584D01*
X2079286Y-27661156D01*
X2093571Y-27689727D01*
X2107857Y-27746870D01*
X2107857Y-27789727D01*
X2093571Y-27846870D01*
X2079286Y-27875441D01*
X2050714Y-27904013D01*
X2007857Y-27918299D01*
X1936428Y-27918299D01*
X2236429Y-27918299D02*
X2236429Y-27718299D01*
X2236429Y-27775441D02*
X2250714Y-27746870D01*
X2265000Y-27732584D01*
X2293571Y-27718299D01*
X2322143Y-27718299D01*
X2422143Y-27918299D02*
X2422143Y-27718299D01*
X2422143Y-27618299D02*
X2407857Y-27632584D01*
X2422143Y-27646870D01*
X2436429Y-27632584D01*
X2422143Y-27618299D01*
X2422143Y-27646870D01*
X2607857Y-27918299D02*
X2579286Y-27904013D01*
X2565000Y-27875441D01*
X2565000Y-27618299D01*
X2765000Y-27918299D02*
X2736429Y-27904013D01*
X2722143Y-27875441D01*
X2722143Y-27618299D01*
X3107857Y-27918299D02*
X3107857Y-27618299D01*
X3207857Y-27832584D01*
X3307857Y-27618299D01*
X3307857Y-27918299D01*
X3579286Y-27918299D02*
X3579286Y-27761156D01*
X3565000Y-27732584D01*
X3536428Y-27718299D01*
X3479286Y-27718299D01*
X3450714Y-27732584D01*
X3579286Y-27904013D02*
X3550714Y-27918299D01*
X3479286Y-27918299D01*
X3450714Y-27904013D01*
X3436428Y-27875441D01*
X3436428Y-27846870D01*
X3450714Y-27818299D01*
X3479286Y-27804013D01*
X3550714Y-27804013D01*
X3579286Y-27789727D01*
X3722143Y-27718299D02*
X3722143Y-28018299D01*
X3722143Y-27732584D02*
X3750714Y-27718299D01*
X3807857Y-27718299D01*
X3836428Y-27732584D01*
X3850714Y-27746870D01*
X3865000Y-27775441D01*
X3865000Y-27861156D01*
X3850714Y-27889727D01*
X3836428Y-27904013D01*
X3807857Y-27918299D01*
X3750714Y-27918299D01*
X3722143Y-27904013D01*
X3993571Y-27889727D02*
X4007857Y-27904013D01*
X3993571Y-27918299D01*
X3979286Y-27904013D01*
X3993571Y-27889727D01*
X3993571Y-27918299D01*
X3993571Y-27732584D02*
X4007857Y-27746870D01*
X3993571Y-27761156D01*
X3979286Y-27746870D01*
X3993571Y-27732584D01*
X3993571Y-27761156D01*
X1610000Y-28392584D02*
X1650000Y-28432584D01*
X1650000Y-28392584D02*
X1610000Y-28432584D01*
X1993571Y-28248299D02*
X2022143Y-28248299D01*
X2050714Y-28262584D01*
X2065000Y-28276870D01*
X2079286Y-28305441D01*
X2093571Y-28362584D01*
X2093571Y-28434013D01*
X2079286Y-28491156D01*
X2065000Y-28519727D01*
X2050714Y-28534013D01*
X2022143Y-28548299D01*
X1993571Y-28548299D01*
X1965000Y-28534013D01*
X1950714Y-28519727D01*
X1936428Y-28491156D01*
X1922143Y-28434013D01*
X1922143Y-28362584D01*
X1936428Y-28305441D01*
X1950714Y-28276870D01*
X1965000Y-28262584D01*
X1993571Y-28248299D01*
X2222143Y-28519727D02*
X2236429Y-28534013D01*
X2222143Y-28548299D01*
X2207857Y-28534013D01*
X2222143Y-28519727D01*
X2222143Y-28548299D01*
X2493571Y-28348299D02*
X2493571Y-28548299D01*
X2422143Y-28234013D02*
X2350714Y-28448299D01*
X2536429Y-28448299D01*
X2707857Y-28248299D02*
X2736429Y-28248299D01*
X2765000Y-28262584D01*
X2779286Y-28276870D01*
X2793571Y-28305441D01*
X2807857Y-28362584D01*
X2807857Y-28434013D01*
X2793571Y-28491156D01*
X2779286Y-28519727D01*
X2765000Y-28534013D01*
X2736429Y-28548299D01*
X2707857Y-28548299D01*
X2679286Y-28534013D01*
X2665000Y-28519727D01*
X2650714Y-28491156D01*
X2636429Y-28434013D01*
X2636429Y-28362584D01*
X2650714Y-28305441D01*
X2665000Y-28276870D01*
X2679286Y-28262584D01*
X2707857Y-28248299D01*
X2936428Y-28548299D02*
X2936428Y-28348299D01*
X2936428Y-28376870D02*
X2950714Y-28362584D01*
X2979286Y-28348299D01*
X3022143Y-28348299D01*
X3050714Y-28362584D01*
X3065000Y-28391156D01*
X3065000Y-28548299D01*
X3065000Y-28391156D02*
X3079286Y-28362584D01*
X3107857Y-28348299D01*
X3150714Y-28348299D01*
X3179286Y-28362584D01*
X3193571Y-28391156D01*
X3193571Y-28548299D01*
X3336428Y-28548299D02*
X3336428Y-28348299D01*
X3336428Y-28376870D02*
X3350714Y-28362584D01*
X3379286Y-28348299D01*
X3422143Y-28348299D01*
X3450714Y-28362584D01*
X3465000Y-28391156D01*
X3465000Y-28548299D01*
X3465000Y-28391156D02*
X3479286Y-28362584D01*
X3507857Y-28348299D01*
X3550714Y-28348299D01*
X3579286Y-28362584D01*
X3593571Y-28391156D01*
X3593571Y-28548299D01*
X4179286Y-28234013D02*
X3922143Y-28619727D01*
X4565000Y-28248299D02*
X4593571Y-28248299D01*
X4622143Y-28262584D01*
X4636429Y-28276870D01*
X4650714Y-28305441D01*
X4665000Y-28362584D01*
X4665000Y-28434013D01*
X4650714Y-28491156D01*
X4636429Y-28519727D01*
X4622143Y-28534013D01*
X4593571Y-28548299D01*
X4565000Y-28548299D01*
X4536429Y-28534013D01*
X4522143Y-28519727D01*
X4507857Y-28491156D01*
X4493571Y-28434013D01*
X4493571Y-28362584D01*
X4507857Y-28305441D01*
X4522143Y-28276870D01*
X4536429Y-28262584D01*
X4565000Y-28248299D01*
X4793571Y-28519727D02*
X4807857Y-28534013D01*
X4793571Y-28548299D01*
X4779286Y-28534013D01*
X4793571Y-28519727D01*
X4793571Y-28548299D01*
X4993571Y-28248299D02*
X5022143Y-28248299D01*
X5050714Y-28262584D01*
X5065000Y-28276870D01*
X5079286Y-28305441D01*
X5093571Y-28362584D01*
X5093571Y-28434013D01*
X5079286Y-28491156D01*
X5065000Y-28519727D01*
X5050714Y-28534013D01*
X5022143Y-28548299D01*
X4993571Y-28548299D01*
X4965000Y-28534013D01*
X4950714Y-28519727D01*
X4936429Y-28491156D01*
X4922143Y-28434013D01*
X4922143Y-28362584D01*
X4936429Y-28305441D01*
X4950714Y-28276870D01*
X4965000Y-28262584D01*
X4993571Y-28248299D01*
X5379286Y-28548299D02*
X5207857Y-28548299D01*
X5293571Y-28548299D02*
X5293571Y-28248299D01*
X5265000Y-28291156D01*
X5236429Y-28319727D01*
X5207857Y-28334013D01*
X5636428Y-28248299D02*
X5579286Y-28248299D01*
X5550714Y-28262584D01*
X5536429Y-28276870D01*
X5507857Y-28319727D01*
X5493571Y-28376870D01*
X5493571Y-28491156D01*
X5507857Y-28519727D01*
X5522143Y-28534013D01*
X5550714Y-28548299D01*
X5607857Y-28548299D01*
X5636428Y-28534013D01*
X5650714Y-28519727D01*
X5665000Y-28491156D01*
X5665000Y-28419727D01*
X5650714Y-28391156D01*
X5636428Y-28376870D01*
X5607857Y-28362584D01*
X5550714Y-28362584D01*
X5522143Y-28376870D01*
X5507857Y-28391156D01*
X5493571Y-28419727D01*
X5779286Y-28248299D02*
X5779286Y-28305441D01*
X5893571Y-28248299D02*
X5893571Y-28305441D01*
X6336428Y-28662584D02*
X6322143Y-28648299D01*
X6293571Y-28605441D01*
X6279286Y-28576870D01*
X6265000Y-28534013D01*
X6250714Y-28462584D01*
X6250714Y-28405441D01*
X6265000Y-28334013D01*
X6279286Y-28291156D01*
X6293571Y-28262584D01*
X6322143Y-28219727D01*
X6336428Y-28205441D01*
X6422143Y-28248299D02*
X6607857Y-28248299D01*
X6507857Y-28362584D01*
X6550714Y-28362584D01*
X6579286Y-28376870D01*
X6593571Y-28391156D01*
X6607857Y-28419727D01*
X6607857Y-28491156D01*
X6593571Y-28519727D01*
X6579286Y-28534013D01*
X6550714Y-28548299D01*
X6465000Y-28548299D01*
X6436428Y-28534013D01*
X6422143Y-28519727D01*
X6707857Y-28248299D02*
X6907857Y-28248299D01*
X6779286Y-28548299D01*
X7250714Y-28548299D02*
X7250714Y-28248299D01*
X7379286Y-28548299D02*
X7379286Y-28391156D01*
X7365000Y-28362584D01*
X7336428Y-28348299D01*
X7293571Y-28348299D01*
X7265000Y-28362584D01*
X7250714Y-28376870D01*
X7565000Y-28548299D02*
X7536428Y-28534013D01*
X7522143Y-28519727D01*
X7507857Y-28491156D01*
X7507857Y-28405441D01*
X7522143Y-28376870D01*
X7536428Y-28362584D01*
X7565000Y-28348299D01*
X7607857Y-28348299D01*
X7636428Y-28362584D01*
X7650714Y-28376870D01*
X7665000Y-28405441D01*
X7665000Y-28491156D01*
X7650714Y-28519727D01*
X7636428Y-28534013D01*
X7607857Y-28548299D01*
X7565000Y-28548299D01*
X7836428Y-28548299D02*
X7807857Y-28534013D01*
X7793571Y-28505441D01*
X7793571Y-28248299D01*
X8065000Y-28534013D02*
X8036428Y-28548299D01*
X7979286Y-28548299D01*
X7950714Y-28534013D01*
X7936428Y-28505441D01*
X7936428Y-28391156D01*
X7950714Y-28362584D01*
X7979286Y-28348299D01*
X8036428Y-28348299D01*
X8065000Y-28362584D01*
X8079286Y-28391156D01*
X8079286Y-28419727D01*
X7936428Y-28448299D01*
X8193571Y-28534013D02*
X8222143Y-28548299D01*
X8279286Y-28548299D01*
X8307857Y-28534013D01*
X8322143Y-28505441D01*
X8322143Y-28491156D01*
X8307857Y-28462584D01*
X8279286Y-28448299D01*
X8236428Y-28448299D01*
X8207857Y-28434013D01*
X8193571Y-28405441D01*
X8193571Y-28391156D01*
X8207857Y-28362584D01*
X8236428Y-28348299D01*
X8279286Y-28348299D01*
X8307857Y-28362584D01*
X8422143Y-28662584D02*
X8436429Y-28648299D01*
X8465000Y-28605441D01*
X8479286Y-28576870D01*
X8493571Y-28534013D01*
X8507857Y-28462584D01*
X8507857Y-28405441D01*
X8493571Y-28334013D01*
X8479286Y-28291156D01*
X8465000Y-28262584D01*
X8436429Y-28219727D01*
X8422143Y-28205441D01*
X1650000Y-28808584D02*
G75*
G03*
X1650000Y-28808584I-35000J0D01*
G01*
X1993571Y-28644299D02*
X2022143Y-28644299D01*
X2050714Y-28658584D01*
X2065000Y-28672870D01*
X2079286Y-28701441D01*
X2093571Y-28758584D01*
X2093571Y-28830013D01*
X2079286Y-28887156D01*
X2065000Y-28915727D01*
X2050714Y-28930013D01*
X2022143Y-28944299D01*
X1993571Y-28944299D01*
X1965000Y-28930013D01*
X1950714Y-28915727D01*
X1936428Y-28887156D01*
X1922143Y-28830013D01*
X1922143Y-28758584D01*
X1936428Y-28701441D01*
X1950714Y-28672870D01*
X1965000Y-28658584D01*
X1993571Y-28644299D01*
X2222143Y-28915727D02*
X2236429Y-28930013D01*
X2222143Y-28944299D01*
X2207857Y-28930013D01*
X2222143Y-28915727D01*
X2222143Y-28944299D01*
X2336429Y-28644299D02*
X2536429Y-28644299D01*
X2407857Y-28944299D01*
X2707857Y-28644299D02*
X2736429Y-28644299D01*
X2765000Y-28658584D01*
X2779286Y-28672870D01*
X2793571Y-28701441D01*
X2807857Y-28758584D01*
X2807857Y-28830013D01*
X2793571Y-28887156D01*
X2779286Y-28915727D01*
X2765000Y-28930013D01*
X2736429Y-28944299D01*
X2707857Y-28944299D01*
X2679286Y-28930013D01*
X2665000Y-28915727D01*
X2650714Y-28887156D01*
X2636429Y-28830013D01*
X2636429Y-28758584D01*
X2650714Y-28701441D01*
X2665000Y-28672870D01*
X2679286Y-28658584D01*
X2707857Y-28644299D01*
X2936428Y-28944299D02*
X2936428Y-28744299D01*
X2936428Y-28772870D02*
X2950714Y-28758584D01*
X2979286Y-28744299D01*
X3022143Y-28744299D01*
X3050714Y-28758584D01*
X3065000Y-28787156D01*
X3065000Y-28944299D01*
X3065000Y-28787156D02*
X3079286Y-28758584D01*
X3107857Y-28744299D01*
X3150714Y-28744299D01*
X3179286Y-28758584D01*
X3193571Y-28787156D01*
X3193571Y-28944299D01*
X3336428Y-28944299D02*
X3336428Y-28744299D01*
X3336428Y-28772870D02*
X3350714Y-28758584D01*
X3379286Y-28744299D01*
X3422143Y-28744299D01*
X3450714Y-28758584D01*
X3465000Y-28787156D01*
X3465000Y-28944299D01*
X3465000Y-28787156D02*
X3479286Y-28758584D01*
X3507857Y-28744299D01*
X3550714Y-28744299D01*
X3579286Y-28758584D01*
X3593571Y-28787156D01*
X3593571Y-28944299D01*
X4179286Y-28630013D02*
X3922143Y-29015727D01*
X4565000Y-28644299D02*
X4593571Y-28644299D01*
X4622143Y-28658584D01*
X4636429Y-28672870D01*
X4650714Y-28701441D01*
X4665000Y-28758584D01*
X4665000Y-28830013D01*
X4650714Y-28887156D01*
X4636429Y-28915727D01*
X4622143Y-28930013D01*
X4593571Y-28944299D01*
X4565000Y-28944299D01*
X4536429Y-28930013D01*
X4522143Y-28915727D01*
X4507857Y-28887156D01*
X4493571Y-28830013D01*
X4493571Y-28758584D01*
X4507857Y-28701441D01*
X4522143Y-28672870D01*
X4536429Y-28658584D01*
X4565000Y-28644299D01*
X4793571Y-28915727D02*
X4807857Y-28930013D01*
X4793571Y-28944299D01*
X4779286Y-28930013D01*
X4793571Y-28915727D01*
X4793571Y-28944299D01*
X4993571Y-28644299D02*
X5022143Y-28644299D01*
X5050714Y-28658584D01*
X5065000Y-28672870D01*
X5079286Y-28701441D01*
X5093571Y-28758584D01*
X5093571Y-28830013D01*
X5079286Y-28887156D01*
X5065000Y-28915727D01*
X5050714Y-28930013D01*
X5022143Y-28944299D01*
X4993571Y-28944299D01*
X4965000Y-28930013D01*
X4950714Y-28915727D01*
X4936429Y-28887156D01*
X4922143Y-28830013D01*
X4922143Y-28758584D01*
X4936429Y-28701441D01*
X4950714Y-28672870D01*
X4965000Y-28658584D01*
X4993571Y-28644299D01*
X5207857Y-28672870D02*
X5222143Y-28658584D01*
X5250714Y-28644299D01*
X5322143Y-28644299D01*
X5350714Y-28658584D01*
X5365000Y-28672870D01*
X5379286Y-28701441D01*
X5379286Y-28730013D01*
X5365000Y-28772870D01*
X5193571Y-28944299D01*
X5379286Y-28944299D01*
X5550714Y-28772870D02*
X5522143Y-28758584D01*
X5507857Y-28744299D01*
X5493571Y-28715727D01*
X5493571Y-28701441D01*
X5507857Y-28672870D01*
X5522143Y-28658584D01*
X5550714Y-28644299D01*
X5607857Y-28644299D01*
X5636428Y-28658584D01*
X5650714Y-28672870D01*
X5665000Y-28701441D01*
X5665000Y-28715727D01*
X5650714Y-28744299D01*
X5636428Y-28758584D01*
X5607857Y-28772870D01*
X5550714Y-28772870D01*
X5522143Y-28787156D01*
X5507857Y-28801441D01*
X5493571Y-28830013D01*
X5493571Y-28887156D01*
X5507857Y-28915727D01*
X5522143Y-28930013D01*
X5550714Y-28944299D01*
X5607857Y-28944299D01*
X5636428Y-28930013D01*
X5650714Y-28915727D01*
X5665000Y-28887156D01*
X5665000Y-28830013D01*
X5650714Y-28801441D01*
X5636428Y-28787156D01*
X5607857Y-28772870D01*
X5779286Y-28644299D02*
X5779286Y-28701441D01*
X5893571Y-28644299D02*
X5893571Y-28701441D01*
X6336428Y-29058584D02*
X6322143Y-29044299D01*
X6293571Y-29001441D01*
X6279286Y-28972870D01*
X6265000Y-28930013D01*
X6250714Y-28858584D01*
X6250714Y-28801441D01*
X6265000Y-28730013D01*
X6279286Y-28687156D01*
X6293571Y-28658584D01*
X6322143Y-28615727D01*
X6336428Y-28601441D01*
X6493571Y-28772870D02*
X6465000Y-28758584D01*
X6450714Y-28744299D01*
X6436428Y-28715727D01*
X6436428Y-28701441D01*
X6450714Y-28672870D01*
X6465000Y-28658584D01*
X6493571Y-28644299D01*
X6550714Y-28644299D01*
X6579286Y-28658584D01*
X6593571Y-28672870D01*
X6607857Y-28701441D01*
X6607857Y-28715727D01*
X6593571Y-28744299D01*
X6579286Y-28758584D01*
X6550714Y-28772870D01*
X6493571Y-28772870D01*
X6465000Y-28787156D01*
X6450714Y-28801441D01*
X6436428Y-28830013D01*
X6436428Y-28887156D01*
X6450714Y-28915727D01*
X6465000Y-28930013D01*
X6493571Y-28944299D01*
X6550714Y-28944299D01*
X6579286Y-28930013D01*
X6593571Y-28915727D01*
X6607857Y-28887156D01*
X6607857Y-28830013D01*
X6593571Y-28801441D01*
X6579286Y-28787156D01*
X6550714Y-28772870D01*
X6965000Y-28944299D02*
X6965000Y-28644299D01*
X7093571Y-28944299D02*
X7093571Y-28787156D01*
X7079286Y-28758584D01*
X7050714Y-28744299D01*
X7007857Y-28744299D01*
X6979286Y-28758584D01*
X6965000Y-28772870D01*
X7279286Y-28944299D02*
X7250714Y-28930013D01*
X7236428Y-28915727D01*
X7222143Y-28887156D01*
X7222143Y-28801441D01*
X7236428Y-28772870D01*
X7250714Y-28758584D01*
X7279286Y-28744299D01*
X7322143Y-28744299D01*
X7350714Y-28758584D01*
X7365000Y-28772870D01*
X7379286Y-28801441D01*
X7379286Y-28887156D01*
X7365000Y-28915727D01*
X7350714Y-28930013D01*
X7322143Y-28944299D01*
X7279286Y-28944299D01*
X7550714Y-28944299D02*
X7522143Y-28930013D01*
X7507857Y-28901441D01*
X7507857Y-28644299D01*
X7779286Y-28930013D02*
X7750714Y-28944299D01*
X7693571Y-28944299D01*
X7665000Y-28930013D01*
X7650714Y-28901441D01*
X7650714Y-28787156D01*
X7665000Y-28758584D01*
X7693571Y-28744299D01*
X7750714Y-28744299D01*
X7779286Y-28758584D01*
X7793571Y-28787156D01*
X7793571Y-28815727D01*
X7650714Y-28844299D01*
X7907857Y-28930013D02*
X7936428Y-28944299D01*
X7993571Y-28944299D01*
X8022143Y-28930013D01*
X8036428Y-28901441D01*
X8036428Y-28887156D01*
X8022143Y-28858584D01*
X7993571Y-28844299D01*
X7950714Y-28844299D01*
X7922143Y-28830013D01*
X7907857Y-28801441D01*
X7907857Y-28787156D01*
X7922143Y-28758584D01*
X7950714Y-28744299D01*
X7993571Y-28744299D01*
X8022143Y-28758584D01*
X8136428Y-29058584D02*
X8150714Y-29044299D01*
X8179286Y-29001441D01*
X8193571Y-28972870D01*
X8207857Y-28930013D01*
X8222143Y-28858584D01*
X8222143Y-28801441D01*
X8207857Y-28730013D01*
X8193571Y-28687156D01*
X8179286Y-28658584D01*
X8150714Y-28615727D01*
X8136428Y-28601441D01*
X1610000Y-29164584D02*
X1610000Y-29244584D01*
X1570000Y-29204584D02*
X1650000Y-29204584D01*
X1993571Y-29040299D02*
X2022143Y-29040299D01*
X2050714Y-29054584D01*
X2065000Y-29068870D01*
X2079286Y-29097441D01*
X2093571Y-29154584D01*
X2093571Y-29226013D01*
X2079286Y-29283156D01*
X2065000Y-29311727D01*
X2050714Y-29326013D01*
X2022143Y-29340299D01*
X1993571Y-29340299D01*
X1965000Y-29326013D01*
X1950714Y-29311727D01*
X1936428Y-29283156D01*
X1922143Y-29226013D01*
X1922143Y-29154584D01*
X1936428Y-29097441D01*
X1950714Y-29068870D01*
X1965000Y-29054584D01*
X1993571Y-29040299D01*
X2222143Y-29311727D02*
X2236429Y-29326013D01*
X2222143Y-29340299D01*
X2207857Y-29326013D01*
X2222143Y-29311727D01*
X2222143Y-29340299D01*
X2407857Y-29168870D02*
X2379286Y-29154584D01*
X2365000Y-29140299D01*
X2350714Y-29111727D01*
X2350714Y-29097441D01*
X2365000Y-29068870D01*
X2379286Y-29054584D01*
X2407857Y-29040299D01*
X2465000Y-29040299D01*
X2493571Y-29054584D01*
X2507857Y-29068870D01*
X2522143Y-29097441D01*
X2522143Y-29111727D01*
X2507857Y-29140299D01*
X2493571Y-29154584D01*
X2465000Y-29168870D01*
X2407857Y-29168870D01*
X2379286Y-29183156D01*
X2365000Y-29197441D01*
X2350714Y-29226013D01*
X2350714Y-29283156D01*
X2365000Y-29311727D01*
X2379286Y-29326013D01*
X2407857Y-29340299D01*
X2465000Y-29340299D01*
X2493571Y-29326013D01*
X2507857Y-29311727D01*
X2522143Y-29283156D01*
X2522143Y-29226013D01*
X2507857Y-29197441D01*
X2493571Y-29183156D01*
X2465000Y-29168870D01*
X2707857Y-29040299D02*
X2736429Y-29040299D01*
X2765000Y-29054584D01*
X2779286Y-29068870D01*
X2793571Y-29097441D01*
X2807857Y-29154584D01*
X2807857Y-29226013D01*
X2793571Y-29283156D01*
X2779286Y-29311727D01*
X2765000Y-29326013D01*
X2736429Y-29340299D01*
X2707857Y-29340299D01*
X2679286Y-29326013D01*
X2665000Y-29311727D01*
X2650714Y-29283156D01*
X2636429Y-29226013D01*
X2636429Y-29154584D01*
X2650714Y-29097441D01*
X2665000Y-29068870D01*
X2679286Y-29054584D01*
X2707857Y-29040299D01*
X2936428Y-29340299D02*
X2936428Y-29140299D01*
X2936428Y-29168870D02*
X2950714Y-29154584D01*
X2979286Y-29140299D01*
X3022143Y-29140299D01*
X3050714Y-29154584D01*
X3065000Y-29183156D01*
X3065000Y-29340299D01*
X3065000Y-29183156D02*
X3079286Y-29154584D01*
X3107857Y-29140299D01*
X3150714Y-29140299D01*
X3179286Y-29154584D01*
X3193571Y-29183156D01*
X3193571Y-29340299D01*
X3336428Y-29340299D02*
X3336428Y-29140299D01*
X3336428Y-29168870D02*
X3350714Y-29154584D01*
X3379286Y-29140299D01*
X3422143Y-29140299D01*
X3450714Y-29154584D01*
X3465000Y-29183156D01*
X3465000Y-29340299D01*
X3465000Y-29183156D02*
X3479286Y-29154584D01*
X3507857Y-29140299D01*
X3550714Y-29140299D01*
X3579286Y-29154584D01*
X3593571Y-29183156D01*
X3593571Y-29340299D01*
X4179286Y-29026013D02*
X3922143Y-29411727D01*
X4565000Y-29040299D02*
X4593571Y-29040299D01*
X4622143Y-29054584D01*
X4636429Y-29068870D01*
X4650714Y-29097441D01*
X4665000Y-29154584D01*
X4665000Y-29226013D01*
X4650714Y-29283156D01*
X4636429Y-29311727D01*
X4622143Y-29326013D01*
X4593571Y-29340299D01*
X4565000Y-29340299D01*
X4536429Y-29326013D01*
X4522143Y-29311727D01*
X4507857Y-29283156D01*
X4493571Y-29226013D01*
X4493571Y-29154584D01*
X4507857Y-29097441D01*
X4522143Y-29068870D01*
X4536429Y-29054584D01*
X4565000Y-29040299D01*
X4793571Y-29311727D02*
X4807857Y-29326013D01*
X4793571Y-29340299D01*
X4779286Y-29326013D01*
X4793571Y-29311727D01*
X4793571Y-29340299D01*
X4993571Y-29040299D02*
X5022143Y-29040299D01*
X5050714Y-29054584D01*
X5065000Y-29068870D01*
X5079286Y-29097441D01*
X5093571Y-29154584D01*
X5093571Y-29226013D01*
X5079286Y-29283156D01*
X5065000Y-29311727D01*
X5050714Y-29326013D01*
X5022143Y-29340299D01*
X4993571Y-29340299D01*
X4965000Y-29326013D01*
X4950714Y-29311727D01*
X4936429Y-29283156D01*
X4922143Y-29226013D01*
X4922143Y-29154584D01*
X4936429Y-29097441D01*
X4950714Y-29068870D01*
X4965000Y-29054584D01*
X4993571Y-29040299D01*
X5193571Y-29040299D02*
X5379286Y-29040299D01*
X5279286Y-29154584D01*
X5322143Y-29154584D01*
X5350714Y-29168870D01*
X5365000Y-29183156D01*
X5379286Y-29211727D01*
X5379286Y-29283156D01*
X5365000Y-29311727D01*
X5350714Y-29326013D01*
X5322143Y-29340299D01*
X5236429Y-29340299D01*
X5207857Y-29326013D01*
X5193571Y-29311727D01*
X5665000Y-29340299D02*
X5493571Y-29340299D01*
X5579286Y-29340299D02*
X5579286Y-29040299D01*
X5550714Y-29083156D01*
X5522143Y-29111727D01*
X5493571Y-29126013D01*
X5779286Y-29040299D02*
X5779286Y-29097441D01*
X5893571Y-29040299D02*
X5893571Y-29097441D01*
X6336428Y-29454584D02*
X6322143Y-29440299D01*
X6293571Y-29397441D01*
X6279286Y-29368870D01*
X6265000Y-29326013D01*
X6250714Y-29254584D01*
X6250714Y-29197441D01*
X6265000Y-29126013D01*
X6279286Y-29083156D01*
X6293571Y-29054584D01*
X6322143Y-29011727D01*
X6336428Y-28997441D01*
X6465000Y-29340299D02*
X6522143Y-29340299D01*
X6550714Y-29326013D01*
X6565000Y-29311727D01*
X6593571Y-29268870D01*
X6607857Y-29211727D01*
X6607857Y-29097441D01*
X6593571Y-29068870D01*
X6579286Y-29054584D01*
X6550714Y-29040299D01*
X6493571Y-29040299D01*
X6465000Y-29054584D01*
X6450714Y-29068870D01*
X6436428Y-29097441D01*
X6436428Y-29168870D01*
X6450714Y-29197441D01*
X6465000Y-29211727D01*
X6493571Y-29226013D01*
X6550714Y-29226013D01*
X6579286Y-29211727D01*
X6593571Y-29197441D01*
X6607857Y-29168870D01*
X6865000Y-29140299D02*
X6865000Y-29340299D01*
X6793571Y-29026013D02*
X6722143Y-29240299D01*
X6907857Y-29240299D01*
X7250714Y-29340299D02*
X7250714Y-29040299D01*
X7379286Y-29340299D02*
X7379286Y-29183156D01*
X7365000Y-29154584D01*
X7336428Y-29140299D01*
X7293571Y-29140299D01*
X7265000Y-29154584D01*
X7250714Y-29168870D01*
X7565000Y-29340299D02*
X7536428Y-29326013D01*
X7522143Y-29311727D01*
X7507857Y-29283156D01*
X7507857Y-29197441D01*
X7522143Y-29168870D01*
X7536428Y-29154584D01*
X7565000Y-29140299D01*
X7607857Y-29140299D01*
X7636428Y-29154584D01*
X7650714Y-29168870D01*
X7665000Y-29197441D01*
X7665000Y-29283156D01*
X7650714Y-29311727D01*
X7636428Y-29326013D01*
X7607857Y-29340299D01*
X7565000Y-29340299D01*
X7836428Y-29340299D02*
X7807857Y-29326013D01*
X7793571Y-29297441D01*
X7793571Y-29040299D01*
X8065000Y-29326013D02*
X8036428Y-29340299D01*
X7979286Y-29340299D01*
X7950714Y-29326013D01*
X7936428Y-29297441D01*
X7936428Y-29183156D01*
X7950714Y-29154584D01*
X7979286Y-29140299D01*
X8036428Y-29140299D01*
X8065000Y-29154584D01*
X8079286Y-29183156D01*
X8079286Y-29211727D01*
X7936428Y-29240299D01*
X8193571Y-29326013D02*
X8222143Y-29340299D01*
X8279286Y-29340299D01*
X8307857Y-29326013D01*
X8322143Y-29297441D01*
X8322143Y-29283156D01*
X8307857Y-29254584D01*
X8279286Y-29240299D01*
X8236428Y-29240299D01*
X8207857Y-29226013D01*
X8193571Y-29197441D01*
X8193571Y-29183156D01*
X8207857Y-29154584D01*
X8236428Y-29140299D01*
X8279286Y-29140299D01*
X8307857Y-29154584D01*
X8422143Y-29454584D02*
X8436429Y-29440299D01*
X8465000Y-29397441D01*
X8479286Y-29368870D01*
X8493571Y-29326013D01*
X8507857Y-29254584D01*
X8507857Y-29197441D01*
X8493571Y-29126013D01*
X8479286Y-29083156D01*
X8465000Y-29054584D01*
X8436429Y-29011727D01*
X8422143Y-28997441D01*
X1636820Y-29632404D02*
X1636820Y-29568764D01*
X1573180Y-29568764D01*
X1573180Y-29632404D01*
X1636820Y-29632404D01*
X1993571Y-29436299D02*
X2022143Y-29436299D01*
X2050714Y-29450584D01*
X2065000Y-29464870D01*
X2079286Y-29493441D01*
X2093571Y-29550584D01*
X2093571Y-29622013D01*
X2079286Y-29679156D01*
X2065000Y-29707727D01*
X2050714Y-29722013D01*
X2022143Y-29736299D01*
X1993571Y-29736299D01*
X1965000Y-29722013D01*
X1950714Y-29707727D01*
X1936428Y-29679156D01*
X1922143Y-29622013D01*
X1922143Y-29550584D01*
X1936428Y-29493441D01*
X1950714Y-29464870D01*
X1965000Y-29450584D01*
X1993571Y-29436299D01*
X2222143Y-29707727D02*
X2236429Y-29722013D01*
X2222143Y-29736299D01*
X2207857Y-29722013D01*
X2222143Y-29707727D01*
X2222143Y-29736299D01*
X2379286Y-29736299D02*
X2436429Y-29736299D01*
X2465000Y-29722013D01*
X2479286Y-29707727D01*
X2507857Y-29664870D01*
X2522143Y-29607727D01*
X2522143Y-29493441D01*
X2507857Y-29464870D01*
X2493571Y-29450584D01*
X2465000Y-29436299D01*
X2407857Y-29436299D01*
X2379286Y-29450584D01*
X2365000Y-29464870D01*
X2350714Y-29493441D01*
X2350714Y-29564870D01*
X2365000Y-29593441D01*
X2379286Y-29607727D01*
X2407857Y-29622013D01*
X2465000Y-29622013D01*
X2493571Y-29607727D01*
X2507857Y-29593441D01*
X2522143Y-29564870D01*
X2707857Y-29436299D02*
X2736429Y-29436299D01*
X2765000Y-29450584D01*
X2779286Y-29464870D01*
X2793571Y-29493441D01*
X2807857Y-29550584D01*
X2807857Y-29622013D01*
X2793571Y-29679156D01*
X2779286Y-29707727D01*
X2765000Y-29722013D01*
X2736429Y-29736299D01*
X2707857Y-29736299D01*
X2679286Y-29722013D01*
X2665000Y-29707727D01*
X2650714Y-29679156D01*
X2636429Y-29622013D01*
X2636429Y-29550584D01*
X2650714Y-29493441D01*
X2665000Y-29464870D01*
X2679286Y-29450584D01*
X2707857Y-29436299D01*
X2936428Y-29736299D02*
X2936428Y-29536299D01*
X2936428Y-29564870D02*
X2950714Y-29550584D01*
X2979286Y-29536299D01*
X3022143Y-29536299D01*
X3050714Y-29550584D01*
X3065000Y-29579156D01*
X3065000Y-29736299D01*
X3065000Y-29579156D02*
X3079286Y-29550584D01*
X3107857Y-29536299D01*
X3150714Y-29536299D01*
X3179286Y-29550584D01*
X3193571Y-29579156D01*
X3193571Y-29736299D01*
X3336428Y-29736299D02*
X3336428Y-29536299D01*
X3336428Y-29564870D02*
X3350714Y-29550584D01*
X3379286Y-29536299D01*
X3422143Y-29536299D01*
X3450714Y-29550584D01*
X3465000Y-29579156D01*
X3465000Y-29736299D01*
X3465000Y-29579156D02*
X3479286Y-29550584D01*
X3507857Y-29536299D01*
X3550714Y-29536299D01*
X3579286Y-29550584D01*
X3593571Y-29579156D01*
X3593571Y-29736299D01*
X4179286Y-29422013D02*
X3922143Y-29807727D01*
X4565000Y-29436299D02*
X4593571Y-29436299D01*
X4622143Y-29450584D01*
X4636429Y-29464870D01*
X4650714Y-29493441D01*
X4665000Y-29550584D01*
X4665000Y-29622013D01*
X4650714Y-29679156D01*
X4636429Y-29707727D01*
X4622143Y-29722013D01*
X4593571Y-29736299D01*
X4565000Y-29736299D01*
X4536429Y-29722013D01*
X4522143Y-29707727D01*
X4507857Y-29679156D01*
X4493571Y-29622013D01*
X4493571Y-29550584D01*
X4507857Y-29493441D01*
X4522143Y-29464870D01*
X4536429Y-29450584D01*
X4565000Y-29436299D01*
X4793571Y-29707727D02*
X4807857Y-29722013D01*
X4793571Y-29736299D01*
X4779286Y-29722013D01*
X4793571Y-29707727D01*
X4793571Y-29736299D01*
X4993571Y-29436299D02*
X5022143Y-29436299D01*
X5050714Y-29450584D01*
X5065000Y-29464870D01*
X5079286Y-29493441D01*
X5093571Y-29550584D01*
X5093571Y-29622013D01*
X5079286Y-29679156D01*
X5065000Y-29707727D01*
X5050714Y-29722013D01*
X5022143Y-29736299D01*
X4993571Y-29736299D01*
X4965000Y-29722013D01*
X4950714Y-29707727D01*
X4936429Y-29679156D01*
X4922143Y-29622013D01*
X4922143Y-29550584D01*
X4936429Y-29493441D01*
X4950714Y-29464870D01*
X4965000Y-29450584D01*
X4993571Y-29436299D01*
X5193571Y-29436299D02*
X5379286Y-29436299D01*
X5279286Y-29550584D01*
X5322143Y-29550584D01*
X5350714Y-29564870D01*
X5365000Y-29579156D01*
X5379286Y-29607727D01*
X5379286Y-29679156D01*
X5365000Y-29707727D01*
X5350714Y-29722013D01*
X5322143Y-29736299D01*
X5236429Y-29736299D01*
X5207857Y-29722013D01*
X5193571Y-29707727D01*
X5650714Y-29436299D02*
X5507857Y-29436299D01*
X5493571Y-29579156D01*
X5507857Y-29564870D01*
X5536429Y-29550584D01*
X5607857Y-29550584D01*
X5636428Y-29564870D01*
X5650714Y-29579156D01*
X5665000Y-29607727D01*
X5665000Y-29679156D01*
X5650714Y-29707727D01*
X5636428Y-29722013D01*
X5607857Y-29736299D01*
X5536429Y-29736299D01*
X5507857Y-29722013D01*
X5493571Y-29707727D01*
X5779286Y-29436299D02*
X5779286Y-29493441D01*
X5893571Y-29436299D02*
X5893571Y-29493441D01*
X6336428Y-29850584D02*
X6322143Y-29836299D01*
X6293571Y-29793441D01*
X6279286Y-29764870D01*
X6265000Y-29722013D01*
X6250714Y-29650584D01*
X6250714Y-29593441D01*
X6265000Y-29522013D01*
X6279286Y-29479156D01*
X6293571Y-29450584D01*
X6322143Y-29407727D01*
X6336428Y-29393441D01*
X6493571Y-29564870D02*
X6465000Y-29550584D01*
X6450714Y-29536299D01*
X6436428Y-29507727D01*
X6436428Y-29493441D01*
X6450714Y-29464870D01*
X6465000Y-29450584D01*
X6493571Y-29436299D01*
X6550714Y-29436299D01*
X6579286Y-29450584D01*
X6593571Y-29464870D01*
X6607857Y-29493441D01*
X6607857Y-29507727D01*
X6593571Y-29536299D01*
X6579286Y-29550584D01*
X6550714Y-29564870D01*
X6493571Y-29564870D01*
X6465000Y-29579156D01*
X6450714Y-29593441D01*
X6436428Y-29622013D01*
X6436428Y-29679156D01*
X6450714Y-29707727D01*
X6465000Y-29722013D01*
X6493571Y-29736299D01*
X6550714Y-29736299D01*
X6579286Y-29722013D01*
X6593571Y-29707727D01*
X6607857Y-29679156D01*
X6607857Y-29622013D01*
X6593571Y-29593441D01*
X6579286Y-29579156D01*
X6550714Y-29564870D01*
X6965000Y-29736299D02*
X6965000Y-29436299D01*
X7093571Y-29736299D02*
X7093571Y-29579156D01*
X7079286Y-29550584D01*
X7050714Y-29536299D01*
X7007857Y-29536299D01*
X6979286Y-29550584D01*
X6965000Y-29564870D01*
X7279286Y-29736299D02*
X7250714Y-29722013D01*
X7236428Y-29707727D01*
X7222143Y-29679156D01*
X7222143Y-29593441D01*
X7236428Y-29564870D01*
X7250714Y-29550584D01*
X7279286Y-29536299D01*
X7322143Y-29536299D01*
X7350714Y-29550584D01*
X7365000Y-29564870D01*
X7379286Y-29593441D01*
X7379286Y-29679156D01*
X7365000Y-29707727D01*
X7350714Y-29722013D01*
X7322143Y-29736299D01*
X7279286Y-29736299D01*
X7550714Y-29736299D02*
X7522143Y-29722013D01*
X7507857Y-29693441D01*
X7507857Y-29436299D01*
X7779286Y-29722013D02*
X7750714Y-29736299D01*
X7693571Y-29736299D01*
X7665000Y-29722013D01*
X7650714Y-29693441D01*
X7650714Y-29579156D01*
X7665000Y-29550584D01*
X7693571Y-29536299D01*
X7750714Y-29536299D01*
X7779286Y-29550584D01*
X7793571Y-29579156D01*
X7793571Y-29607727D01*
X7650714Y-29636299D01*
X7907857Y-29722013D02*
X7936428Y-29736299D01*
X7993571Y-29736299D01*
X8022143Y-29722013D01*
X8036428Y-29693441D01*
X8036428Y-29679156D01*
X8022143Y-29650584D01*
X7993571Y-29636299D01*
X7950714Y-29636299D01*
X7922143Y-29622013D01*
X7907857Y-29593441D01*
X7907857Y-29579156D01*
X7922143Y-29550584D01*
X7950714Y-29536299D01*
X7993571Y-29536299D01*
X8022143Y-29550584D01*
X8136428Y-29850584D02*
X8150714Y-29836299D01*
X8179286Y-29793441D01*
X8193571Y-29764870D01*
X8207857Y-29722013D01*
X8222143Y-29650584D01*
X8222143Y-29593441D01*
X8207857Y-29522013D01*
X8193571Y-29479156D01*
X8179286Y-29450584D01*
X8150714Y-29407727D01*
X8136428Y-29393441D01*
X1600000Y-30046584D02*
X1650000Y-29996584D01*
X1600000Y-29946584D01*
X1550000Y-29996584D01*
X1600000Y-30046584D01*
X2093571Y-30132299D02*
X1922143Y-30132299D01*
X2007857Y-30132299D02*
X2007857Y-29832299D01*
X1979286Y-29875156D01*
X1950714Y-29903727D01*
X1922143Y-29918013D01*
X2222143Y-30103727D02*
X2236429Y-30118013D01*
X2222143Y-30132299D01*
X2207857Y-30118013D01*
X2222143Y-30103727D01*
X2222143Y-30132299D01*
X2422143Y-29832299D02*
X2450714Y-29832299D01*
X2479286Y-29846584D01*
X2493571Y-29860870D01*
X2507857Y-29889441D01*
X2522143Y-29946584D01*
X2522143Y-30018013D01*
X2507857Y-30075156D01*
X2493571Y-30103727D01*
X2479286Y-30118013D01*
X2450714Y-30132299D01*
X2422143Y-30132299D01*
X2393571Y-30118013D01*
X2379286Y-30103727D01*
X2365000Y-30075156D01*
X2350714Y-30018013D01*
X2350714Y-29946584D01*
X2365000Y-29889441D01*
X2379286Y-29860870D01*
X2393571Y-29846584D01*
X2422143Y-29832299D01*
X2707857Y-29832299D02*
X2736429Y-29832299D01*
X2765000Y-29846584D01*
X2779286Y-29860870D01*
X2793571Y-29889441D01*
X2807857Y-29946584D01*
X2807857Y-30018013D01*
X2793571Y-30075156D01*
X2779286Y-30103727D01*
X2765000Y-30118013D01*
X2736429Y-30132299D01*
X2707857Y-30132299D01*
X2679286Y-30118013D01*
X2665000Y-30103727D01*
X2650714Y-30075156D01*
X2636429Y-30018013D01*
X2636429Y-29946584D01*
X2650714Y-29889441D01*
X2665000Y-29860870D01*
X2679286Y-29846584D01*
X2707857Y-29832299D01*
X2936428Y-30132299D02*
X2936428Y-29932299D01*
X2936428Y-29960870D02*
X2950714Y-29946584D01*
X2979286Y-29932299D01*
X3022143Y-29932299D01*
X3050714Y-29946584D01*
X3065000Y-29975156D01*
X3065000Y-30132299D01*
X3065000Y-29975156D02*
X3079286Y-29946584D01*
X3107857Y-29932299D01*
X3150714Y-29932299D01*
X3179286Y-29946584D01*
X3193571Y-29975156D01*
X3193571Y-30132299D01*
X3336428Y-30132299D02*
X3336428Y-29932299D01*
X3336428Y-29960870D02*
X3350714Y-29946584D01*
X3379286Y-29932299D01*
X3422143Y-29932299D01*
X3450714Y-29946584D01*
X3465000Y-29975156D01*
X3465000Y-30132299D01*
X3465000Y-29975156D02*
X3479286Y-29946584D01*
X3507857Y-29932299D01*
X3550714Y-29932299D01*
X3579286Y-29946584D01*
X3593571Y-29975156D01*
X3593571Y-30132299D01*
X4179286Y-29818013D02*
X3922143Y-30203727D01*
X4565000Y-29832299D02*
X4593571Y-29832299D01*
X4622143Y-29846584D01*
X4636429Y-29860870D01*
X4650714Y-29889441D01*
X4665000Y-29946584D01*
X4665000Y-30018013D01*
X4650714Y-30075156D01*
X4636429Y-30103727D01*
X4622143Y-30118013D01*
X4593571Y-30132299D01*
X4565000Y-30132299D01*
X4536429Y-30118013D01*
X4522143Y-30103727D01*
X4507857Y-30075156D01*
X4493571Y-30018013D01*
X4493571Y-29946584D01*
X4507857Y-29889441D01*
X4522143Y-29860870D01*
X4536429Y-29846584D01*
X4565000Y-29832299D01*
X4793571Y-30103727D02*
X4807857Y-30118013D01*
X4793571Y-30132299D01*
X4779286Y-30118013D01*
X4793571Y-30103727D01*
X4793571Y-30132299D01*
X4993571Y-29832299D02*
X5022143Y-29832299D01*
X5050714Y-29846584D01*
X5065000Y-29860870D01*
X5079286Y-29889441D01*
X5093571Y-29946584D01*
X5093571Y-30018013D01*
X5079286Y-30075156D01*
X5065000Y-30103727D01*
X5050714Y-30118013D01*
X5022143Y-30132299D01*
X4993571Y-30132299D01*
X4965000Y-30118013D01*
X4950714Y-30103727D01*
X4936429Y-30075156D01*
X4922143Y-30018013D01*
X4922143Y-29946584D01*
X4936429Y-29889441D01*
X4950714Y-29860870D01*
X4965000Y-29846584D01*
X4993571Y-29832299D01*
X5193571Y-29832299D02*
X5379286Y-29832299D01*
X5279286Y-29946584D01*
X5322143Y-29946584D01*
X5350714Y-29960870D01*
X5365000Y-29975156D01*
X5379286Y-30003727D01*
X5379286Y-30075156D01*
X5365000Y-30103727D01*
X5350714Y-30118013D01*
X5322143Y-30132299D01*
X5236429Y-30132299D01*
X5207857Y-30118013D01*
X5193571Y-30103727D01*
X5522143Y-30132299D02*
X5579286Y-30132299D01*
X5607857Y-30118013D01*
X5622143Y-30103727D01*
X5650714Y-30060870D01*
X5665000Y-30003727D01*
X5665000Y-29889441D01*
X5650714Y-29860870D01*
X5636428Y-29846584D01*
X5607857Y-29832299D01*
X5550714Y-29832299D01*
X5522143Y-29846584D01*
X5507857Y-29860870D01*
X5493571Y-29889441D01*
X5493571Y-29960870D01*
X5507857Y-29989441D01*
X5522143Y-30003727D01*
X5550714Y-30018013D01*
X5607857Y-30018013D01*
X5636428Y-30003727D01*
X5650714Y-29989441D01*
X5665000Y-29960870D01*
X5779286Y-29832299D02*
X5779286Y-29889441D01*
X5893571Y-29832299D02*
X5893571Y-29889441D01*
X6336428Y-30246584D02*
X6322143Y-30232299D01*
X6293571Y-30189441D01*
X6279286Y-30160870D01*
X6265000Y-30118013D01*
X6250714Y-30046584D01*
X6250714Y-29989441D01*
X6265000Y-29918013D01*
X6279286Y-29875156D01*
X6293571Y-29846584D01*
X6322143Y-29803727D01*
X6336428Y-29789441D01*
X6436428Y-29860870D02*
X6450714Y-29846584D01*
X6479286Y-29832299D01*
X6550714Y-29832299D01*
X6579286Y-29846584D01*
X6593571Y-29860870D01*
X6607857Y-29889441D01*
X6607857Y-29918013D01*
X6593571Y-29960870D01*
X6422143Y-30132299D01*
X6607857Y-30132299D01*
X6879286Y-29832299D02*
X6736428Y-29832299D01*
X6722143Y-29975156D01*
X6736428Y-29960870D01*
X6765000Y-29946584D01*
X6836428Y-29946584D01*
X6865000Y-29960870D01*
X6879286Y-29975156D01*
X6893571Y-30003727D01*
X6893571Y-30075156D01*
X6879286Y-30103727D01*
X6865000Y-30118013D01*
X6836428Y-30132299D01*
X6765000Y-30132299D01*
X6736428Y-30118013D01*
X6722143Y-30103727D01*
X7250714Y-30132299D02*
X7250714Y-29832299D01*
X7379286Y-30132299D02*
X7379286Y-29975156D01*
X7365000Y-29946584D01*
X7336428Y-29932299D01*
X7293571Y-29932299D01*
X7265000Y-29946584D01*
X7250714Y-29960870D01*
X7565000Y-30132299D02*
X7536428Y-30118013D01*
X7522143Y-30103727D01*
X7507857Y-30075156D01*
X7507857Y-29989441D01*
X7522143Y-29960870D01*
X7536428Y-29946584D01*
X7565000Y-29932299D01*
X7607857Y-29932299D01*
X7636428Y-29946584D01*
X7650714Y-29960870D01*
X7665000Y-29989441D01*
X7665000Y-30075156D01*
X7650714Y-30103727D01*
X7636428Y-30118013D01*
X7607857Y-30132299D01*
X7565000Y-30132299D01*
X7836428Y-30132299D02*
X7807857Y-30118013D01*
X7793571Y-30089441D01*
X7793571Y-29832299D01*
X8065000Y-30118013D02*
X8036428Y-30132299D01*
X7979286Y-30132299D01*
X7950714Y-30118013D01*
X7936428Y-30089441D01*
X7936428Y-29975156D01*
X7950714Y-29946584D01*
X7979286Y-29932299D01*
X8036428Y-29932299D01*
X8065000Y-29946584D01*
X8079286Y-29975156D01*
X8079286Y-30003727D01*
X7936428Y-30032299D01*
X8193571Y-30118013D02*
X8222143Y-30132299D01*
X8279286Y-30132299D01*
X8307857Y-30118013D01*
X8322143Y-30089441D01*
X8322143Y-30075156D01*
X8307857Y-30046584D01*
X8279286Y-30032299D01*
X8236428Y-30032299D01*
X8207857Y-30018013D01*
X8193571Y-29989441D01*
X8193571Y-29975156D01*
X8207857Y-29946584D01*
X8236428Y-29932299D01*
X8279286Y-29932299D01*
X8307857Y-29946584D01*
X8422143Y-30246584D02*
X8436429Y-30232299D01*
X8465000Y-30189441D01*
X8479286Y-30160870D01*
X8493571Y-30118013D01*
X8507857Y-30046584D01*
X8507857Y-29989441D01*
X8493571Y-29918013D01*
X8479286Y-29875156D01*
X8465000Y-29846584D01*
X8436429Y-29803727D01*
X8422143Y-29789441D01*
X1540000Y-30337584D02*
X1650000Y-30447584D01*
X1650000Y-30337584D02*
X1540000Y-30447584D01*
X1650000Y-30392584D02*
G75*
G03*
X1650000Y-30392584I-55000J0D01*
G01*
X2093571Y-30528299D02*
X1922143Y-30528299D01*
X2007857Y-30528299D02*
X2007857Y-30228299D01*
X1979286Y-30271156D01*
X1950714Y-30299727D01*
X1922143Y-30314013D01*
X2222143Y-30499727D02*
X2236429Y-30514013D01*
X2222143Y-30528299D01*
X2207857Y-30514013D01*
X2222143Y-30499727D01*
X2222143Y-30528299D01*
X2522143Y-30528299D02*
X2350714Y-30528299D01*
X2436429Y-30528299D02*
X2436429Y-30228299D01*
X2407857Y-30271156D01*
X2379286Y-30299727D01*
X2350714Y-30314013D01*
X2707857Y-30228299D02*
X2736429Y-30228299D01*
X2765000Y-30242584D01*
X2779286Y-30256870D01*
X2793571Y-30285441D01*
X2807857Y-30342584D01*
X2807857Y-30414013D01*
X2793571Y-30471156D01*
X2779286Y-30499727D01*
X2765000Y-30514013D01*
X2736429Y-30528299D01*
X2707857Y-30528299D01*
X2679286Y-30514013D01*
X2665000Y-30499727D01*
X2650714Y-30471156D01*
X2636429Y-30414013D01*
X2636429Y-30342584D01*
X2650714Y-30285441D01*
X2665000Y-30256870D01*
X2679286Y-30242584D01*
X2707857Y-30228299D01*
X2936428Y-30528299D02*
X2936428Y-30328299D01*
X2936428Y-30356870D02*
X2950714Y-30342584D01*
X2979286Y-30328299D01*
X3022143Y-30328299D01*
X3050714Y-30342584D01*
X3065000Y-30371156D01*
X3065000Y-30528299D01*
X3065000Y-30371156D02*
X3079286Y-30342584D01*
X3107857Y-30328299D01*
X3150714Y-30328299D01*
X3179286Y-30342584D01*
X3193571Y-30371156D01*
X3193571Y-30528299D01*
X3336428Y-30528299D02*
X3336428Y-30328299D01*
X3336428Y-30356870D02*
X3350714Y-30342584D01*
X3379286Y-30328299D01*
X3422143Y-30328299D01*
X3450714Y-30342584D01*
X3465000Y-30371156D01*
X3465000Y-30528299D01*
X3465000Y-30371156D02*
X3479286Y-30342584D01*
X3507857Y-30328299D01*
X3550714Y-30328299D01*
X3579286Y-30342584D01*
X3593571Y-30371156D01*
X3593571Y-30528299D01*
X4179286Y-30214013D02*
X3922143Y-30599727D01*
X4565000Y-30228299D02*
X4593571Y-30228299D01*
X4622143Y-30242584D01*
X4636429Y-30256870D01*
X4650714Y-30285441D01*
X4665000Y-30342584D01*
X4665000Y-30414013D01*
X4650714Y-30471156D01*
X4636429Y-30499727D01*
X4622143Y-30514013D01*
X4593571Y-30528299D01*
X4565000Y-30528299D01*
X4536429Y-30514013D01*
X4522143Y-30499727D01*
X4507857Y-30471156D01*
X4493571Y-30414013D01*
X4493571Y-30342584D01*
X4507857Y-30285441D01*
X4522143Y-30256870D01*
X4536429Y-30242584D01*
X4565000Y-30228299D01*
X4793571Y-30499727D02*
X4807857Y-30514013D01*
X4793571Y-30528299D01*
X4779286Y-30514013D01*
X4793571Y-30499727D01*
X4793571Y-30528299D01*
X4993571Y-30228299D02*
X5022143Y-30228299D01*
X5050714Y-30242584D01*
X5065000Y-30256870D01*
X5079286Y-30285441D01*
X5093571Y-30342584D01*
X5093571Y-30414013D01*
X5079286Y-30471156D01*
X5065000Y-30499727D01*
X5050714Y-30514013D01*
X5022143Y-30528299D01*
X4993571Y-30528299D01*
X4965000Y-30514013D01*
X4950714Y-30499727D01*
X4936429Y-30471156D01*
X4922143Y-30414013D01*
X4922143Y-30342584D01*
X4936429Y-30285441D01*
X4950714Y-30256870D01*
X4965000Y-30242584D01*
X4993571Y-30228299D01*
X5350714Y-30328299D02*
X5350714Y-30528299D01*
X5279286Y-30214013D02*
X5207857Y-30428299D01*
X5393571Y-30428299D01*
X5479286Y-30228299D02*
X5665000Y-30228299D01*
X5565000Y-30342584D01*
X5607857Y-30342584D01*
X5636428Y-30356870D01*
X5650714Y-30371156D01*
X5665000Y-30399727D01*
X5665000Y-30471156D01*
X5650714Y-30499727D01*
X5636428Y-30514013D01*
X5607857Y-30528299D01*
X5522143Y-30528299D01*
X5493571Y-30514013D01*
X5479286Y-30499727D01*
X5779286Y-30228299D02*
X5779286Y-30285441D01*
X5893571Y-30228299D02*
X5893571Y-30285441D01*
X6336428Y-30642584D02*
X6322143Y-30628299D01*
X6293571Y-30585441D01*
X6279286Y-30556870D01*
X6265000Y-30514013D01*
X6250714Y-30442584D01*
X6250714Y-30385441D01*
X6265000Y-30314013D01*
X6279286Y-30271156D01*
X6293571Y-30242584D01*
X6322143Y-30199727D01*
X6336428Y-30185441D01*
X6593571Y-30228299D02*
X6450714Y-30228299D01*
X6436428Y-30371156D01*
X6450714Y-30356870D01*
X6479286Y-30342584D01*
X6550714Y-30342584D01*
X6579286Y-30356870D01*
X6593571Y-30371156D01*
X6607857Y-30399727D01*
X6607857Y-30471156D01*
X6593571Y-30499727D01*
X6579286Y-30514013D01*
X6550714Y-30528299D01*
X6479286Y-30528299D01*
X6450714Y-30514013D01*
X6436428Y-30499727D01*
X6722143Y-30256870D02*
X6736428Y-30242584D01*
X6765000Y-30228299D01*
X6836428Y-30228299D01*
X6865000Y-30242584D01*
X6879286Y-30256870D01*
X6893571Y-30285441D01*
X6893571Y-30314013D01*
X6879286Y-30356870D01*
X6707857Y-30528299D01*
X6893571Y-30528299D01*
X7250714Y-30528299D02*
X7250714Y-30228299D01*
X7379286Y-30528299D02*
X7379286Y-30371156D01*
X7365000Y-30342584D01*
X7336428Y-30328299D01*
X7293571Y-30328299D01*
X7265000Y-30342584D01*
X7250714Y-30356870D01*
X7565000Y-30528299D02*
X7536428Y-30514013D01*
X7522143Y-30499727D01*
X7507857Y-30471156D01*
X7507857Y-30385441D01*
X7522143Y-30356870D01*
X7536428Y-30342584D01*
X7565000Y-30328299D01*
X7607857Y-30328299D01*
X7636428Y-30342584D01*
X7650714Y-30356870D01*
X7665000Y-30385441D01*
X7665000Y-30471156D01*
X7650714Y-30499727D01*
X7636428Y-30514013D01*
X7607857Y-30528299D01*
X7565000Y-30528299D01*
X7836428Y-30528299D02*
X7807857Y-30514013D01*
X7793571Y-30485441D01*
X7793571Y-30228299D01*
X8065000Y-30514013D02*
X8036428Y-30528299D01*
X7979286Y-30528299D01*
X7950714Y-30514013D01*
X7936428Y-30485441D01*
X7936428Y-30371156D01*
X7950714Y-30342584D01*
X7979286Y-30328299D01*
X8036428Y-30328299D01*
X8065000Y-30342584D01*
X8079286Y-30371156D01*
X8079286Y-30399727D01*
X7936428Y-30428299D01*
X8193571Y-30514013D02*
X8222143Y-30528299D01*
X8279286Y-30528299D01*
X8307857Y-30514013D01*
X8322143Y-30485441D01*
X8322143Y-30471156D01*
X8307857Y-30442584D01*
X8279286Y-30428299D01*
X8236428Y-30428299D01*
X8207857Y-30414013D01*
X8193571Y-30385441D01*
X8193571Y-30371156D01*
X8207857Y-30342584D01*
X8236428Y-30328299D01*
X8279286Y-30328299D01*
X8307857Y-30342584D01*
X8422143Y-30642584D02*
X8436429Y-30628299D01*
X8465000Y-30585441D01*
X8479286Y-30556870D01*
X8493571Y-30514013D01*
X8507857Y-30442584D01*
X8507857Y-30385441D01*
X8493571Y-30314013D01*
X8479286Y-30271156D01*
X8465000Y-30242584D01*
X8436429Y-30199727D01*
X8422143Y-30185441D01*
X1500000Y-30713584D02*
X1650000Y-30863584D01*
X1650000Y-30713584D02*
X1500000Y-30863584D01*
X1575000Y-30713584D02*
X1575000Y-30863584D01*
X1500000Y-30788584D02*
X1650000Y-30788584D01*
X2093571Y-30924299D02*
X1922143Y-30924299D01*
X2007857Y-30924299D02*
X2007857Y-30624299D01*
X1979286Y-30667156D01*
X1950714Y-30695727D01*
X1922143Y-30710013D01*
X2222143Y-30895727D02*
X2236429Y-30910013D01*
X2222143Y-30924299D01*
X2207857Y-30910013D01*
X2222143Y-30895727D01*
X2222143Y-30924299D01*
X2507857Y-30624299D02*
X2365000Y-30624299D01*
X2350714Y-30767156D01*
X2365000Y-30752870D01*
X2393571Y-30738584D01*
X2465000Y-30738584D01*
X2493571Y-30752870D01*
X2507857Y-30767156D01*
X2522143Y-30795727D01*
X2522143Y-30867156D01*
X2507857Y-30895727D01*
X2493571Y-30910013D01*
X2465000Y-30924299D01*
X2393571Y-30924299D01*
X2365000Y-30910013D01*
X2350714Y-30895727D01*
X2707857Y-30624299D02*
X2736429Y-30624299D01*
X2765000Y-30638584D01*
X2779286Y-30652870D01*
X2793571Y-30681441D01*
X2807857Y-30738584D01*
X2807857Y-30810013D01*
X2793571Y-30867156D01*
X2779286Y-30895727D01*
X2765000Y-30910013D01*
X2736429Y-30924299D01*
X2707857Y-30924299D01*
X2679286Y-30910013D01*
X2665000Y-30895727D01*
X2650714Y-30867156D01*
X2636429Y-30810013D01*
X2636429Y-30738584D01*
X2650714Y-30681441D01*
X2665000Y-30652870D01*
X2679286Y-30638584D01*
X2707857Y-30624299D01*
X2936428Y-30924299D02*
X2936428Y-30724299D01*
X2936428Y-30752870D02*
X2950714Y-30738584D01*
X2979286Y-30724299D01*
X3022143Y-30724299D01*
X3050714Y-30738584D01*
X3065000Y-30767156D01*
X3065000Y-30924299D01*
X3065000Y-30767156D02*
X3079286Y-30738584D01*
X3107857Y-30724299D01*
X3150714Y-30724299D01*
X3179286Y-30738584D01*
X3193571Y-30767156D01*
X3193571Y-30924299D01*
X3336428Y-30924299D02*
X3336428Y-30724299D01*
X3336428Y-30752870D02*
X3350714Y-30738584D01*
X3379286Y-30724299D01*
X3422143Y-30724299D01*
X3450714Y-30738584D01*
X3465000Y-30767156D01*
X3465000Y-30924299D01*
X3465000Y-30767156D02*
X3479286Y-30738584D01*
X3507857Y-30724299D01*
X3550714Y-30724299D01*
X3579286Y-30738584D01*
X3593571Y-30767156D01*
X3593571Y-30924299D01*
X4179286Y-30610013D02*
X3922143Y-30995727D01*
X4565000Y-30624299D02*
X4593571Y-30624299D01*
X4622143Y-30638584D01*
X4636429Y-30652870D01*
X4650714Y-30681441D01*
X4665000Y-30738584D01*
X4665000Y-30810013D01*
X4650714Y-30867156D01*
X4636429Y-30895727D01*
X4622143Y-30910013D01*
X4593571Y-30924299D01*
X4565000Y-30924299D01*
X4536429Y-30910013D01*
X4522143Y-30895727D01*
X4507857Y-30867156D01*
X4493571Y-30810013D01*
X4493571Y-30738584D01*
X4507857Y-30681441D01*
X4522143Y-30652870D01*
X4536429Y-30638584D01*
X4565000Y-30624299D01*
X4793571Y-30895727D02*
X4807857Y-30910013D01*
X4793571Y-30924299D01*
X4779286Y-30910013D01*
X4793571Y-30895727D01*
X4793571Y-30924299D01*
X4993571Y-30624299D02*
X5022143Y-30624299D01*
X5050714Y-30638584D01*
X5065000Y-30652870D01*
X5079286Y-30681441D01*
X5093571Y-30738584D01*
X5093571Y-30810013D01*
X5079286Y-30867156D01*
X5065000Y-30895727D01*
X5050714Y-30910013D01*
X5022143Y-30924299D01*
X4993571Y-30924299D01*
X4965000Y-30910013D01*
X4950714Y-30895727D01*
X4936429Y-30867156D01*
X4922143Y-30810013D01*
X4922143Y-30738584D01*
X4936429Y-30681441D01*
X4950714Y-30652870D01*
X4965000Y-30638584D01*
X4993571Y-30624299D01*
X5365000Y-30624299D02*
X5222143Y-30624299D01*
X5207857Y-30767156D01*
X5222143Y-30752870D01*
X5250714Y-30738584D01*
X5322143Y-30738584D01*
X5350714Y-30752870D01*
X5365000Y-30767156D01*
X5379286Y-30795727D01*
X5379286Y-30867156D01*
X5365000Y-30895727D01*
X5350714Y-30910013D01*
X5322143Y-30924299D01*
X5250714Y-30924299D01*
X5222143Y-30910013D01*
X5207857Y-30895727D01*
X5522143Y-30924299D02*
X5579286Y-30924299D01*
X5607857Y-30910013D01*
X5622143Y-30895727D01*
X5650714Y-30852870D01*
X5665000Y-30795727D01*
X5665000Y-30681441D01*
X5650714Y-30652870D01*
X5636428Y-30638584D01*
X5607857Y-30624299D01*
X5550714Y-30624299D01*
X5522143Y-30638584D01*
X5507857Y-30652870D01*
X5493571Y-30681441D01*
X5493571Y-30752870D01*
X5507857Y-30781441D01*
X5522143Y-30795727D01*
X5550714Y-30810013D01*
X5607857Y-30810013D01*
X5636428Y-30795727D01*
X5650714Y-30781441D01*
X5665000Y-30752870D01*
X5779286Y-30624299D02*
X5779286Y-30681441D01*
X5893571Y-30624299D02*
X5893571Y-30681441D01*
X6336428Y-31038584D02*
X6322143Y-31024299D01*
X6293571Y-30981441D01*
X6279286Y-30952870D01*
X6265000Y-30910013D01*
X6250714Y-30838584D01*
X6250714Y-30781441D01*
X6265000Y-30710013D01*
X6279286Y-30667156D01*
X6293571Y-30638584D01*
X6322143Y-30595727D01*
X6336428Y-30581441D01*
X6465000Y-30924299D02*
X6522143Y-30924299D01*
X6550714Y-30910013D01*
X6565000Y-30895727D01*
X6593571Y-30852870D01*
X6607857Y-30795727D01*
X6607857Y-30681441D01*
X6593571Y-30652870D01*
X6579286Y-30638584D01*
X6550714Y-30624299D01*
X6493571Y-30624299D01*
X6465000Y-30638584D01*
X6450714Y-30652870D01*
X6436428Y-30681441D01*
X6436428Y-30752870D01*
X6450714Y-30781441D01*
X6465000Y-30795727D01*
X6493571Y-30810013D01*
X6550714Y-30810013D01*
X6579286Y-30795727D01*
X6593571Y-30781441D01*
X6607857Y-30752870D01*
X6865000Y-30724299D02*
X6865000Y-30924299D01*
X6793571Y-30610013D02*
X6722143Y-30824299D01*
X6907857Y-30824299D01*
X7250714Y-30924299D02*
X7250714Y-30624299D01*
X7379286Y-30924299D02*
X7379286Y-30767156D01*
X7365000Y-30738584D01*
X7336428Y-30724299D01*
X7293571Y-30724299D01*
X7265000Y-30738584D01*
X7250714Y-30752870D01*
X7565000Y-30924299D02*
X7536428Y-30910013D01*
X7522143Y-30895727D01*
X7507857Y-30867156D01*
X7507857Y-30781441D01*
X7522143Y-30752870D01*
X7536428Y-30738584D01*
X7565000Y-30724299D01*
X7607857Y-30724299D01*
X7636428Y-30738584D01*
X7650714Y-30752870D01*
X7665000Y-30781441D01*
X7665000Y-30867156D01*
X7650714Y-30895727D01*
X7636428Y-30910013D01*
X7607857Y-30924299D01*
X7565000Y-30924299D01*
X7836428Y-30924299D02*
X7807857Y-30910013D01*
X7793571Y-30881441D01*
X7793571Y-30624299D01*
X8065000Y-30910013D02*
X8036428Y-30924299D01*
X7979286Y-30924299D01*
X7950714Y-30910013D01*
X7936428Y-30881441D01*
X7936428Y-30767156D01*
X7950714Y-30738584D01*
X7979286Y-30724299D01*
X8036428Y-30724299D01*
X8065000Y-30738584D01*
X8079286Y-30767156D01*
X8079286Y-30795727D01*
X7936428Y-30824299D01*
X8193571Y-30910013D02*
X8222143Y-30924299D01*
X8279286Y-30924299D01*
X8307857Y-30910013D01*
X8322143Y-30881441D01*
X8322143Y-30867156D01*
X8307857Y-30838584D01*
X8279286Y-30824299D01*
X8236428Y-30824299D01*
X8207857Y-30810013D01*
X8193571Y-30781441D01*
X8193571Y-30767156D01*
X8207857Y-30738584D01*
X8236428Y-30724299D01*
X8279286Y-30724299D01*
X8307857Y-30738584D01*
X8422143Y-31038584D02*
X8436429Y-31024299D01*
X8465000Y-30981441D01*
X8479286Y-30952870D01*
X8493571Y-30910013D01*
X8507857Y-30838584D01*
X8507857Y-30781441D01*
X8493571Y-30710013D01*
X8479286Y-30667156D01*
X8465000Y-30638584D01*
X8436429Y-30595727D01*
X8422143Y-30581441D01*
X1330000Y-31024584D02*
X1650000Y-31344584D01*
X1650000Y-31024584D02*
X1330000Y-31344584D01*
X1603138Y-31297723D02*
X1603138Y-31071446D01*
X1376862Y-31071446D01*
X1376862Y-31297723D01*
X1603138Y-31297723D01*
X1907857Y-31020299D02*
X2093571Y-31020299D01*
X1993571Y-31134584D01*
X2036428Y-31134584D01*
X2065000Y-31148870D01*
X2079286Y-31163156D01*
X2093571Y-31191727D01*
X2093571Y-31263156D01*
X2079286Y-31291727D01*
X2065000Y-31306013D01*
X2036428Y-31320299D01*
X1950714Y-31320299D01*
X1922143Y-31306013D01*
X1907857Y-31291727D01*
X2222143Y-31291727D02*
X2236429Y-31306013D01*
X2222143Y-31320299D01*
X2207857Y-31306013D01*
X2222143Y-31291727D01*
X2222143Y-31320299D01*
X2350714Y-31048870D02*
X2365000Y-31034584D01*
X2393571Y-31020299D01*
X2465000Y-31020299D01*
X2493571Y-31034584D01*
X2507857Y-31048870D01*
X2522143Y-31077441D01*
X2522143Y-31106013D01*
X2507857Y-31148870D01*
X2336429Y-31320299D01*
X2522143Y-31320299D01*
X2707857Y-31020299D02*
X2736429Y-31020299D01*
X2765000Y-31034584D01*
X2779286Y-31048870D01*
X2793571Y-31077441D01*
X2807857Y-31134584D01*
X2807857Y-31206013D01*
X2793571Y-31263156D01*
X2779286Y-31291727D01*
X2765000Y-31306013D01*
X2736429Y-31320299D01*
X2707857Y-31320299D01*
X2679286Y-31306013D01*
X2665000Y-31291727D01*
X2650714Y-31263156D01*
X2636429Y-31206013D01*
X2636429Y-31134584D01*
X2650714Y-31077441D01*
X2665000Y-31048870D01*
X2679286Y-31034584D01*
X2707857Y-31020299D01*
X2936428Y-31320299D02*
X2936428Y-31120299D01*
X2936428Y-31148870D02*
X2950714Y-31134584D01*
X2979286Y-31120299D01*
X3022143Y-31120299D01*
X3050714Y-31134584D01*
X3065000Y-31163156D01*
X3065000Y-31320299D01*
X3065000Y-31163156D02*
X3079286Y-31134584D01*
X3107857Y-31120299D01*
X3150714Y-31120299D01*
X3179286Y-31134584D01*
X3193571Y-31163156D01*
X3193571Y-31320299D01*
X3336428Y-31320299D02*
X3336428Y-31120299D01*
X3336428Y-31148870D02*
X3350714Y-31134584D01*
X3379286Y-31120299D01*
X3422143Y-31120299D01*
X3450714Y-31134584D01*
X3465000Y-31163156D01*
X3465000Y-31320299D01*
X3465000Y-31163156D02*
X3479286Y-31134584D01*
X3507857Y-31120299D01*
X3550714Y-31120299D01*
X3579286Y-31134584D01*
X3593571Y-31163156D01*
X3593571Y-31320299D01*
X4179286Y-31006013D02*
X3922143Y-31391727D01*
X4565000Y-31020299D02*
X4593571Y-31020299D01*
X4622143Y-31034584D01*
X4636429Y-31048870D01*
X4650714Y-31077441D01*
X4665000Y-31134584D01*
X4665000Y-31206013D01*
X4650714Y-31263156D01*
X4636429Y-31291727D01*
X4622143Y-31306013D01*
X4593571Y-31320299D01*
X4565000Y-31320299D01*
X4536429Y-31306013D01*
X4522143Y-31291727D01*
X4507857Y-31263156D01*
X4493571Y-31206013D01*
X4493571Y-31134584D01*
X4507857Y-31077441D01*
X4522143Y-31048870D01*
X4536429Y-31034584D01*
X4565000Y-31020299D01*
X4793571Y-31291727D02*
X4807857Y-31306013D01*
X4793571Y-31320299D01*
X4779286Y-31306013D01*
X4793571Y-31291727D01*
X4793571Y-31320299D01*
X5093571Y-31320299D02*
X4922143Y-31320299D01*
X5007857Y-31320299D02*
X5007857Y-31020299D01*
X4979286Y-31063156D01*
X4950714Y-31091727D01*
X4922143Y-31106013D01*
X5207857Y-31048870D02*
X5222143Y-31034584D01*
X5250714Y-31020299D01*
X5322143Y-31020299D01*
X5350714Y-31034584D01*
X5365000Y-31048870D01*
X5379286Y-31077441D01*
X5379286Y-31106013D01*
X5365000Y-31148870D01*
X5193571Y-31320299D01*
X5379286Y-31320299D01*
X5636428Y-31020299D02*
X5579286Y-31020299D01*
X5550714Y-31034584D01*
X5536429Y-31048870D01*
X5507857Y-31091727D01*
X5493571Y-31148870D01*
X5493571Y-31263156D01*
X5507857Y-31291727D01*
X5522143Y-31306013D01*
X5550714Y-31320299D01*
X5607857Y-31320299D01*
X5636428Y-31306013D01*
X5650714Y-31291727D01*
X5665000Y-31263156D01*
X5665000Y-31191727D01*
X5650714Y-31163156D01*
X5636428Y-31148870D01*
X5607857Y-31134584D01*
X5550714Y-31134584D01*
X5522143Y-31148870D01*
X5507857Y-31163156D01*
X5493571Y-31191727D01*
X5779286Y-31020299D02*
X5779286Y-31077441D01*
X5893571Y-31020299D02*
X5893571Y-31077441D01*
X6336428Y-31434584D02*
X6322143Y-31420299D01*
X6293571Y-31377441D01*
X6279286Y-31348870D01*
X6265000Y-31306013D01*
X6250714Y-31234584D01*
X6250714Y-31177441D01*
X6265000Y-31106013D01*
X6279286Y-31063156D01*
X6293571Y-31034584D01*
X6322143Y-30991727D01*
X6336428Y-30977441D01*
X6436428Y-31048870D02*
X6450714Y-31034584D01*
X6479286Y-31020299D01*
X6550714Y-31020299D01*
X6579286Y-31034584D01*
X6593571Y-31048870D01*
X6607857Y-31077441D01*
X6607857Y-31106013D01*
X6593571Y-31148870D01*
X6422143Y-31320299D01*
X6607857Y-31320299D01*
X6965000Y-31320299D02*
X6965000Y-31020299D01*
X7093571Y-31320299D02*
X7093571Y-31163156D01*
X7079286Y-31134584D01*
X7050714Y-31120299D01*
X7007857Y-31120299D01*
X6979286Y-31134584D01*
X6965000Y-31148870D01*
X7279286Y-31320299D02*
X7250714Y-31306013D01*
X7236428Y-31291727D01*
X7222143Y-31263156D01*
X7222143Y-31177441D01*
X7236428Y-31148870D01*
X7250714Y-31134584D01*
X7279286Y-31120299D01*
X7322143Y-31120299D01*
X7350714Y-31134584D01*
X7365000Y-31148870D01*
X7379286Y-31177441D01*
X7379286Y-31263156D01*
X7365000Y-31291727D01*
X7350714Y-31306013D01*
X7322143Y-31320299D01*
X7279286Y-31320299D01*
X7550714Y-31320299D02*
X7522143Y-31306013D01*
X7507857Y-31277441D01*
X7507857Y-31020299D01*
X7779286Y-31306013D02*
X7750714Y-31320299D01*
X7693571Y-31320299D01*
X7665000Y-31306013D01*
X7650714Y-31277441D01*
X7650714Y-31163156D01*
X7665000Y-31134584D01*
X7693571Y-31120299D01*
X7750714Y-31120299D01*
X7779286Y-31134584D01*
X7793571Y-31163156D01*
X7793571Y-31191727D01*
X7650714Y-31220299D01*
X7907857Y-31306013D02*
X7936428Y-31320299D01*
X7993571Y-31320299D01*
X8022143Y-31306013D01*
X8036428Y-31277441D01*
X8036428Y-31263156D01*
X8022143Y-31234584D01*
X7993571Y-31220299D01*
X7950714Y-31220299D01*
X7922143Y-31206013D01*
X7907857Y-31177441D01*
X7907857Y-31163156D01*
X7922143Y-31134584D01*
X7950714Y-31120299D01*
X7993571Y-31120299D01*
X8022143Y-31134584D01*
X8136428Y-31434584D02*
X8150714Y-31420299D01*
X8179286Y-31377441D01*
X8193571Y-31348870D01*
X8207857Y-31306013D01*
X8222143Y-31234584D01*
X8222143Y-31177441D01*
X8207857Y-31106013D01*
X8193571Y-31063156D01*
X8179286Y-31034584D01*
X8150714Y-30991727D01*
X8136428Y-30977441D01*
X1220000Y-31419584D02*
X1650000Y-31849584D01*
X1650000Y-31419584D02*
X1220000Y-31849584D01*
X1435000Y-31849584D02*
X1650000Y-31634584D01*
X1435000Y-31419584D01*
X1220000Y-31634584D01*
X1435000Y-31849584D01*
X2065000Y-31570299D02*
X2065000Y-31770299D01*
X1993571Y-31456013D02*
X1922143Y-31670299D01*
X2107857Y-31670299D01*
X2222143Y-31741727D02*
X2236429Y-31756013D01*
X2222143Y-31770299D01*
X2207857Y-31756013D01*
X2222143Y-31741727D01*
X2222143Y-31770299D01*
X2336429Y-31470299D02*
X2522143Y-31470299D01*
X2422143Y-31584584D01*
X2465000Y-31584584D01*
X2493571Y-31598870D01*
X2507857Y-31613156D01*
X2522143Y-31641727D01*
X2522143Y-31713156D01*
X2507857Y-31741727D01*
X2493571Y-31756013D01*
X2465000Y-31770299D01*
X2379286Y-31770299D01*
X2350714Y-31756013D01*
X2336429Y-31741727D01*
X2707857Y-31470299D02*
X2736429Y-31470299D01*
X2765000Y-31484584D01*
X2779286Y-31498870D01*
X2793571Y-31527441D01*
X2807857Y-31584584D01*
X2807857Y-31656013D01*
X2793571Y-31713156D01*
X2779286Y-31741727D01*
X2765000Y-31756013D01*
X2736429Y-31770299D01*
X2707857Y-31770299D01*
X2679286Y-31756013D01*
X2665000Y-31741727D01*
X2650714Y-31713156D01*
X2636429Y-31656013D01*
X2636429Y-31584584D01*
X2650714Y-31527441D01*
X2665000Y-31498870D01*
X2679286Y-31484584D01*
X2707857Y-31470299D01*
X2936428Y-31770299D02*
X2936428Y-31570299D01*
X2936428Y-31598870D02*
X2950714Y-31584584D01*
X2979286Y-31570299D01*
X3022143Y-31570299D01*
X3050714Y-31584584D01*
X3065000Y-31613156D01*
X3065000Y-31770299D01*
X3065000Y-31613156D02*
X3079286Y-31584584D01*
X3107857Y-31570299D01*
X3150714Y-31570299D01*
X3179286Y-31584584D01*
X3193571Y-31613156D01*
X3193571Y-31770299D01*
X3336428Y-31770299D02*
X3336428Y-31570299D01*
X3336428Y-31598870D02*
X3350714Y-31584584D01*
X3379286Y-31570299D01*
X3422143Y-31570299D01*
X3450714Y-31584584D01*
X3465000Y-31613156D01*
X3465000Y-31770299D01*
X3465000Y-31613156D02*
X3479286Y-31584584D01*
X3507857Y-31570299D01*
X3550714Y-31570299D01*
X3579286Y-31584584D01*
X3593571Y-31613156D01*
X3593571Y-31770299D01*
X4179286Y-31456013D02*
X3922143Y-31841727D01*
X4565000Y-31470299D02*
X4593571Y-31470299D01*
X4622143Y-31484584D01*
X4636429Y-31498870D01*
X4650714Y-31527441D01*
X4665000Y-31584584D01*
X4665000Y-31656013D01*
X4650714Y-31713156D01*
X4636429Y-31741727D01*
X4622143Y-31756013D01*
X4593571Y-31770299D01*
X4565000Y-31770299D01*
X4536429Y-31756013D01*
X4522143Y-31741727D01*
X4507857Y-31713156D01*
X4493571Y-31656013D01*
X4493571Y-31584584D01*
X4507857Y-31527441D01*
X4522143Y-31498870D01*
X4536429Y-31484584D01*
X4565000Y-31470299D01*
X4793571Y-31741727D02*
X4807857Y-31756013D01*
X4793571Y-31770299D01*
X4779286Y-31756013D01*
X4793571Y-31741727D01*
X4793571Y-31770299D01*
X5093571Y-31770299D02*
X4922143Y-31770299D01*
X5007857Y-31770299D02*
X5007857Y-31470299D01*
X4979286Y-31513156D01*
X4950714Y-31541727D01*
X4922143Y-31556013D01*
X5350714Y-31470299D02*
X5293571Y-31470299D01*
X5265000Y-31484584D01*
X5250714Y-31498870D01*
X5222143Y-31541727D01*
X5207857Y-31598870D01*
X5207857Y-31713156D01*
X5222143Y-31741727D01*
X5236429Y-31756013D01*
X5265000Y-31770299D01*
X5322143Y-31770299D01*
X5350714Y-31756013D01*
X5365000Y-31741727D01*
X5379286Y-31713156D01*
X5379286Y-31641727D01*
X5365000Y-31613156D01*
X5350714Y-31598870D01*
X5322143Y-31584584D01*
X5265000Y-31584584D01*
X5236429Y-31598870D01*
X5222143Y-31613156D01*
X5207857Y-31641727D01*
X5522143Y-31770299D02*
X5579286Y-31770299D01*
X5607857Y-31756013D01*
X5622143Y-31741727D01*
X5650714Y-31698870D01*
X5665000Y-31641727D01*
X5665000Y-31527441D01*
X5650714Y-31498870D01*
X5636428Y-31484584D01*
X5607857Y-31470299D01*
X5550714Y-31470299D01*
X5522143Y-31484584D01*
X5507857Y-31498870D01*
X5493571Y-31527441D01*
X5493571Y-31598870D01*
X5507857Y-31627441D01*
X5522143Y-31641727D01*
X5550714Y-31656013D01*
X5607857Y-31656013D01*
X5636428Y-31641727D01*
X5650714Y-31627441D01*
X5665000Y-31598870D01*
X5779286Y-31470299D02*
X5779286Y-31527441D01*
X5893571Y-31470299D02*
X5893571Y-31527441D01*
X6336428Y-31884584D02*
X6322143Y-31870299D01*
X6293571Y-31827441D01*
X6279286Y-31798870D01*
X6265000Y-31756013D01*
X6250714Y-31684584D01*
X6250714Y-31627441D01*
X6265000Y-31556013D01*
X6279286Y-31513156D01*
X6293571Y-31484584D01*
X6322143Y-31441727D01*
X6336428Y-31427441D01*
X6493571Y-31598870D02*
X6465000Y-31584584D01*
X6450714Y-31570299D01*
X6436428Y-31541727D01*
X6436428Y-31527441D01*
X6450714Y-31498870D01*
X6465000Y-31484584D01*
X6493571Y-31470299D01*
X6550714Y-31470299D01*
X6579286Y-31484584D01*
X6593571Y-31498870D01*
X6607857Y-31527441D01*
X6607857Y-31541727D01*
X6593571Y-31570299D01*
X6579286Y-31584584D01*
X6550714Y-31598870D01*
X6493571Y-31598870D01*
X6465000Y-31613156D01*
X6450714Y-31627441D01*
X6436428Y-31656013D01*
X6436428Y-31713156D01*
X6450714Y-31741727D01*
X6465000Y-31756013D01*
X6493571Y-31770299D01*
X6550714Y-31770299D01*
X6579286Y-31756013D01*
X6593571Y-31741727D01*
X6607857Y-31713156D01*
X6607857Y-31656013D01*
X6593571Y-31627441D01*
X6579286Y-31613156D01*
X6550714Y-31598870D01*
X6965000Y-31770299D02*
X6965000Y-31470299D01*
X7093571Y-31770299D02*
X7093571Y-31613156D01*
X7079286Y-31584584D01*
X7050714Y-31570299D01*
X7007857Y-31570299D01*
X6979286Y-31584584D01*
X6965000Y-31598870D01*
X7279286Y-31770299D02*
X7250714Y-31756013D01*
X7236428Y-31741727D01*
X7222143Y-31713156D01*
X7222143Y-31627441D01*
X7236428Y-31598870D01*
X7250714Y-31584584D01*
X7279286Y-31570299D01*
X7322143Y-31570299D01*
X7350714Y-31584584D01*
X7365000Y-31598870D01*
X7379286Y-31627441D01*
X7379286Y-31713156D01*
X7365000Y-31741727D01*
X7350714Y-31756013D01*
X7322143Y-31770299D01*
X7279286Y-31770299D01*
X7550714Y-31770299D02*
X7522143Y-31756013D01*
X7507857Y-31727441D01*
X7507857Y-31470299D01*
X7779286Y-31756013D02*
X7750714Y-31770299D01*
X7693571Y-31770299D01*
X7665000Y-31756013D01*
X7650714Y-31727441D01*
X7650714Y-31613156D01*
X7665000Y-31584584D01*
X7693571Y-31570299D01*
X7750714Y-31570299D01*
X7779286Y-31584584D01*
X7793571Y-31613156D01*
X7793571Y-31641727D01*
X7650714Y-31670299D01*
X7907857Y-31756013D02*
X7936428Y-31770299D01*
X7993571Y-31770299D01*
X8022143Y-31756013D01*
X8036428Y-31727441D01*
X8036428Y-31713156D01*
X8022143Y-31684584D01*
X7993571Y-31670299D01*
X7950714Y-31670299D01*
X7922143Y-31656013D01*
X7907857Y-31627441D01*
X7907857Y-31613156D01*
X7922143Y-31584584D01*
X7950714Y-31570299D01*
X7993571Y-31570299D01*
X8022143Y-31584584D01*
X8136428Y-31884584D02*
X8150714Y-31870299D01*
X8179286Y-31827441D01*
X8193571Y-31798870D01*
X8207857Y-31756013D01*
X8222143Y-31684584D01*
X8222143Y-31627441D01*
X8207857Y-31556013D01*
X8193571Y-31513156D01*
X8179286Y-31484584D01*
X8150714Y-31441727D01*
X8136428Y-31427441D01*
M02*
