M48
; DRILL file {KiCad 5.1.6-c6e7f7d~87~ubuntu20.04.1} date Tue Sep  8 11:47:35 2020
; FORMAT={-:-/ absolute / metric / decimal}
; #@! TF.CreationDate,2020-09-08T11:47:35+02:00
; #@! TF.GenerationSoftware,Kicad,Pcbnew,5.1.6-c6e7f7d~87~ubuntu20.04.1
; #@! TF.FileFunction,Plated,1,2,PTH
FMAT,2
METRIC
T1C0.400
T2C0.700
T3C0.800
T4C0.900
T5C1.000
T6C1.100
T7C1.500
T8C4.300
%
G90
G05
T1
X48.6Y-164.8
X49.3Y-141.1
X49.9Y-233.1
X51.5Y-226.0
X54.9Y-209.2
X54.9Y-233.4
X55.1Y-226.0
X55.3Y-182.9
X55.7Y-230.3
X65.1Y-228.9
X92.445Y-185.89
X94.4Y-213.3
X94.8Y-200.6
X98.2Y-204.5
X155.8Y-187.6
X164.506Y-216.596
X176.0Y-205.0
X181.3Y-202.4
X181.9Y-206.4
X191.4Y-190.2
X196.7Y-211.7
T2
X235.0Y-68.92
X235.0Y-74.0
X235.0Y-78.92
X235.0Y-84.0
X235.0Y-59.0
X235.0Y-64.08
X235.0Y-88.92
X235.0Y-94.0
T3
X114.8Y-87.4
X114.8Y-95.02
X91.0Y-161.18
X91.0Y-168.8
X138.4Y-137.38
X138.4Y-145.0
X114.8Y-134.98
X114.8Y-142.6
X138.6Y-185.2
X138.6Y-192.82
X210.0Y-92.18
X210.0Y-99.8
X186.2Y-163.58
X186.2Y-171.2
X67.2Y-118.4
X67.2Y-126.02
X162.5Y-115.88
X162.5Y-123.5
X67.0Y-94.78
X67.0Y-102.4
X162.4Y-92.18
X162.4Y-99.8
X91.0Y-113.78
X91.0Y-121.4
X45.78Y-133.0
X53.4Y-133.0
X43.5Y-190.0
X43.5Y-197.62
X67.0Y-142.38
X67.0Y-150.0
X205.601Y-253.19
X212.2Y-257.0
X164.4Y-229.2
X170.999Y-233.01
X91.0Y-185.18
X91.0Y-192.8
X124.0Y-63.58
X124.0Y-71.2
X67.2Y-165.98
X67.2Y-173.6
X162.4Y-139.78
X162.4Y-147.4
X114.8Y-182.78
X114.8Y-190.4
X186.2Y-139.8
X186.2Y-147.42
X162.4Y-163.58
X162.4Y-171.2
X38.2Y-63.78
X38.2Y-71.4
X114.8Y-158.78
X114.8Y-166.4
X181.4Y-63.78
X181.4Y-71.4
X66.8Y-63.58
X66.8Y-71.2
X217.0Y-178.2
X224.62Y-178.2
X91.2Y-138.4
X91.2Y-146.02
X184.8Y-241.4
X191.399Y-245.21
X138.6Y-113.58
X138.6Y-121.2
X186.2Y-92.18
X186.2Y-99.8
X186.0Y-115.98
X186.0Y-123.6
X114.8Y-111.18
X114.8Y-118.8
X138.6Y-89.78
X138.6Y-97.4
X45.58Y-156.8
X53.2Y-156.8
X217.2Y-144.8
X224.82Y-144.8
X139.2Y-160.78
X139.2Y-168.4
X152.6Y-63.78
X152.6Y-71.4
X95.4Y-63.58
X95.4Y-71.2
X196.8Y-220.8
X203.399Y-224.61
X67.0Y-190.38
X67.0Y-198.0
X45.38Y-180.6
X53.0Y-180.6
X209.8Y-63.78
X209.8Y-71.4
X91.0Y-89.98
X91.0Y-97.6
X45.58Y-109.4
X53.2Y-109.4
T4
X240.0Y-90.0
X240.0Y-92.54
X240.0Y-60.0
X240.0Y-62.54
X240.0Y-70.0
X240.0Y-72.54
X240.0Y-80.0
X240.0Y-82.54
T5
X231.0Y-187.84
X231.0Y-190.13
X231.0Y-192.42
X231.0Y-194.71
X231.0Y-197.0
X232.98Y-188.985
X232.98Y-191.275
X232.98Y-193.565
X232.98Y-195.855
X232.98Y-198.145
X234.96Y-187.84
X234.96Y-190.13
X234.96Y-192.42
X234.96Y-194.71
X234.96Y-197.0
T6
X21.87Y-221.38
X21.87Y-236.62
X24.41Y-221.38
X24.41Y-236.62
X26.95Y-221.38
X26.95Y-236.62
X29.49Y-221.38
X29.49Y-236.62
X32.03Y-221.38
X32.03Y-236.62
X34.57Y-221.38
X34.57Y-236.62
X37.11Y-221.38
X37.11Y-236.62
X39.65Y-221.38
X39.65Y-236.62
X42.19Y-221.38
X42.19Y-236.62
X44.73Y-221.38
X44.73Y-236.62
X47.27Y-221.38
X47.27Y-236.62
X49.81Y-221.38
X49.81Y-236.62
X52.35Y-221.38
X52.35Y-236.62
X54.89Y-221.38
X54.89Y-229.0
X54.89Y-231.54
X54.89Y-236.62
X57.43Y-221.38
X57.43Y-229.0
X57.43Y-231.54
X57.43Y-236.62
X59.97Y-221.38
X59.97Y-229.0
X59.97Y-231.54
X59.97Y-236.62
X62.51Y-221.38
X62.51Y-226.46
X62.51Y-229.0
X62.51Y-231.54
X62.51Y-236.62
X65.05Y-221.38
X65.05Y-236.62
X67.59Y-221.38
X67.59Y-236.62
X70.13Y-221.38
X70.13Y-226.46
X70.13Y-229.0
X70.13Y-231.54
X70.13Y-236.62
T7
X145.59Y-138.66
X151.94Y-136.12
X191.971Y-229.896
X198.74Y-230.871
X159.79Y-64.86
X166.14Y-62.32
X74.19Y-167.26
X80.54Y-164.72
X215.72Y-126.66
X218.26Y-133.01
X97.99Y-114.86
X104.34Y-112.32
X193.19Y-117.06
X199.54Y-114.52
X121.79Y-88.66
X128.14Y-86.12
X45.59Y-143.46
X51.94Y-140.92
X169.39Y-93.46
X175.74Y-90.92
X97.99Y-91.06
X104.34Y-88.52
X45.59Y-167.26
X51.94Y-164.72
X145.79Y-162.46
X152.14Y-159.92
X45.59Y-119.66
X51.94Y-117.12
X131.19Y-64.86
X137.54Y-62.32
X45.39Y-65.06
X51.74Y-62.52
X73.99Y-64.86
X80.34Y-62.32
X121.79Y-183.86
X128.14Y-181.32
X216.99Y-93.26
X223.34Y-90.72
X193.19Y-93.46
X199.54Y-90.92
X203.771Y-209.296
X210.54Y-210.271
X50.59Y-191.06
X56.94Y-188.52
X74.19Y-119.66
X80.54Y-117.12
X45.59Y-95.86
X51.94Y-93.32
X102.59Y-64.86
X108.94Y-62.32
X216.79Y-64.86
X223.14Y-62.32
X145.59Y-114.86
X151.94Y-112.32
X97.99Y-186.26
X104.34Y-183.72
X121.79Y-136.26
X128.14Y-133.72
X188.39Y-64.86
X194.74Y-62.32
X171.371Y-217.896
X178.14Y-218.871
X193.19Y-141.06
X199.54Y-138.52
X121.79Y-160.06
X128.14Y-157.52
X74.19Y-191.06
X80.54Y-188.52
X145.59Y-91.26
X151.94Y-88.72
X97.99Y-138.66
X104.34Y-136.12
X169.39Y-164.66
X175.74Y-162.12
X145.59Y-186.26
X151.94Y-183.72
X212.571Y-241.696
X219.34Y-242.671
X74.19Y-95.86
X80.54Y-93.32
X169.39Y-141.06
X175.74Y-138.52
X215.72Y-160.06
X218.26Y-166.41
X193.19Y-164.86
X199.54Y-162.32
X121.79Y-112.46
X128.14Y-109.92
X74.19Y-143.46
X80.54Y-140.92
X97.99Y-162.46
X104.34Y-159.92
X169.39Y-117.26
X175.74Y-114.72
T8
X27.5Y-158.5
X132.5Y-50.5
X132.5Y-266.5
X237.5Y-266.5
X237.5Y-158.5
X27.5Y-266.5
X27.5Y-50.5
X237.5Y-50.5
T0
M30
