%TF.GenerationSoftware,KiCad,Pcbnew,5.1.6-c6e7f7d~87~ubuntu20.04.1*%
%TF.CreationDate,2020-09-09T12:41:04+02:00*%
%TF.ProjectId,pcb-flat-left,7063622d-666c-4617-942d-6c6566742e6b,rev?*%
%TF.SameCoordinates,Original*%
%TF.FileFunction,Profile,NP*%
%FSLAX46Y46*%
G04 Gerber Fmt 4.6, Leading zero omitted, Abs format (unit mm)*
G04 Created by KiCad (PCBNEW 5.1.6-c6e7f7d~87~ubuntu20.04.1) date 2020-09-09 12:41:04*
%MOMM*%
%LPD*%
G01*
G04 APERTURE LIST*
%TA.AperFunction,Profile*%
%ADD10C,0.050000*%
%TD*%
%TA.AperFunction,Profile*%
%ADD11C,0.200000*%
%TD*%
G04 APERTURE END LIST*
D10*
X20666666Y-42000000D02*
G75*
G03*
X20666666Y-42000000I-1666666J0D01*
G01*
X16500000Y-42000000D02*
X21500000Y-42000000D01*
X19000000Y-39500000D02*
X19000000Y-44500000D01*
D11*
X20472888Y-47172000D02*
X20578998Y-46794000D01*
X241381000Y-274363832D02*
X240991000Y-274410685D01*
X242869000Y-273880140D02*
X242512000Y-274045504D01*
X24551900Y-274363832D02*
X24167400Y-274286660D01*
X245053000Y-46070000D02*
X245217000Y-46427000D01*
X245599000Y-269424930D02*
X245584000Y-269817680D01*
X20879410Y-46070000D02*
X21070957Y-45727000D01*
X245461000Y-47172000D02*
X245537000Y-47557000D01*
X20335084Y-269424930D02*
X20335084Y-48341000D01*
X20879410Y-271695950D02*
X20715424Y-271339040D01*
X20397097Y-270207680D02*
X20350243Y-269817680D01*
X21799940Y-272960990D02*
X21532600Y-272671600D01*
X245599000Y-48341000D02*
X245599000Y-269424930D01*
X245353000Y-270969710D02*
X245217000Y-271339040D01*
X242512000Y-274045504D02*
X242144000Y-274180551D01*
X20350243Y-269817680D02*
X20335084Y-269424930D01*
X24941860Y-43355000D02*
X25335980Y-43340000D01*
X20578998Y-46794000D02*
X20715424Y-46427000D01*
X240598000Y-43340000D02*
X240991000Y-43355000D01*
X22396630Y-273470860D02*
X22087950Y-273226950D01*
X243537000Y-273470860D02*
X243211000Y-273688592D01*
X20715424Y-271339040D02*
X20578998Y-270969710D01*
X21532600Y-272671600D02*
X21290060Y-272364300D01*
X22396630Y-44295000D02*
X22721850Y-44076000D01*
X23421890Y-43720000D02*
X23789830Y-43584000D01*
X244134000Y-272960990D02*
X243846000Y-273226950D01*
X20578998Y-270969710D02*
X20472888Y-270592130D01*
X20335084Y-48341000D02*
X20350243Y-47947000D01*
X20350243Y-47947000D02*
X20397097Y-47557000D01*
X24551900Y-43402000D02*
X24941860Y-43355000D01*
X245461000Y-270592130D02*
X245353000Y-270969710D01*
X241765000Y-274286660D02*
X241381000Y-274363832D01*
X245537000Y-270207680D02*
X245461000Y-270592130D01*
X244644000Y-45401000D02*
X244862000Y-45727000D01*
X243211000Y-273688592D02*
X242869000Y-273880140D01*
X245053000Y-271695950D02*
X244862000Y-272037700D01*
X21532600Y-45093000D02*
X21799940Y-44805000D01*
X25335980Y-43340000D02*
X240598000Y-43340000D01*
X20472888Y-270592130D02*
X20397097Y-270207680D01*
X245537000Y-47557000D02*
X245584000Y-47947000D01*
X24941860Y-274410685D02*
X24551900Y-274363832D01*
X242144000Y-274180551D02*
X241765000Y-274286660D01*
X21070957Y-272037700D02*
X20879410Y-271695950D01*
X244862000Y-45727000D02*
X245053000Y-46070000D01*
X245217000Y-46427000D02*
X245353000Y-46794000D01*
X245584000Y-269817680D02*
X245537000Y-270207680D01*
X20397097Y-47557000D02*
X20472888Y-47172000D01*
X242144000Y-43584000D02*
X242512000Y-43720000D01*
X21070957Y-45727000D02*
X21290060Y-45401000D01*
X23789830Y-43584000D02*
X24167400Y-43478000D01*
X243846000Y-44537000D02*
X244134000Y-44805000D01*
X243846000Y-273226950D02*
X243537000Y-273470860D01*
X244644000Y-272364300D02*
X244400000Y-272671600D01*
X245217000Y-271339040D02*
X245053000Y-271695950D01*
X22087950Y-273226950D02*
X21799940Y-272960990D01*
X242869000Y-43884000D02*
X243211000Y-44076000D01*
X245584000Y-47947000D02*
X245599000Y-48341000D01*
X22721850Y-44076000D02*
X23064980Y-43884000D01*
X23064980Y-43884000D02*
X23421890Y-43720000D01*
X20715424Y-46427000D02*
X20879410Y-46070000D01*
X244400000Y-272671600D02*
X244134000Y-272960990D01*
X24167400Y-43478000D02*
X24551900Y-43402000D01*
X241381000Y-43402000D02*
X241765000Y-43478000D01*
X244862000Y-272037700D02*
X244644000Y-272364300D01*
X240598000Y-274425843D02*
X25335980Y-274425843D01*
X242512000Y-43720000D02*
X242869000Y-43884000D01*
X21290060Y-45401000D02*
X21532600Y-45093000D01*
X243537000Y-44295000D02*
X243846000Y-44537000D01*
X245353000Y-46794000D02*
X245461000Y-47172000D01*
X23789830Y-274180551D02*
X23421890Y-274045504D01*
X22087950Y-44537000D02*
X22396630Y-44295000D01*
X241765000Y-43478000D02*
X242144000Y-43584000D01*
X25335980Y-274425843D02*
X24941860Y-274410685D01*
X22721850Y-273688592D02*
X22396630Y-273470860D01*
X240991000Y-274410685D02*
X240598000Y-274425843D01*
X244400000Y-45093000D02*
X244644000Y-45401000D01*
X21290060Y-272364300D02*
X21070957Y-272037700D01*
X243211000Y-44076000D02*
X243537000Y-44295000D01*
X240991000Y-43355000D02*
X241381000Y-43402000D01*
X21799940Y-44805000D02*
X22087950Y-44537000D01*
X23421890Y-274045504D02*
X23064980Y-273880140D01*
X244134000Y-44805000D02*
X244400000Y-45093000D01*
X23064980Y-273880140D02*
X22721850Y-273688592D01*
X24167400Y-274286660D02*
X23789830Y-274180551D01*
M02*
