<svg width="409.2875mm" height="178.429322mm" viewBox="0 0 409.2875 178.429322" xmlns="http://www.w3.org/2000/svg"><g id="svgGroup" stroke-linecap="round" fill-rule="evenodd" font-size="9pt" stroke="#000" stroke-width="0.25mm" fill="none" style="stroke:#000;stroke-width:0.25mm;fill:none"><path d="M 0 13.5 A 0.5 0.5 0 0 0 0.5 14 L 13.5 14 A 0.5 0.5 0 0 0 14 13.5 L 14 0.5 A 0.5 0.5 0 0 0 13.5 0 L 0.5 0 A 0.5 0.5 0 0 0 0 0.5 L 0 13.5 Z M 28.575 13.5 A 0.5 0.5 0 0 0 29.075 14 L 42.075 14 A 0.5 0.5 0 0 0 42.575 13.5 L 42.575 0.5 A 0.5 0.5 0 0 0 42.075 0 L 29.075 0 A 0.5 0.5 0 0 0 28.575 0.5 L 28.575 13.5 Z M 57.15 13.5 A 0.5 0.5 0 0 0 57.65 14 L 70.65 14 A 0.5 0.5 0 0 0 71.15 13.5 L 71.15 0.5 A 0.5 0.5 0 0 0 70.65 0 L 57.65 0 A 0.5 0.5 0 0 0 57.15 0.5 L 57.15 13.5 Z M 85.725 13.5 A 0.5 0.5 0 0 0 86.225 14 L 99.225 14 A 0.5 0.5 0 0 0 99.725 13.5 L 99.725 0.5 A 0.5 0.5 0 0 0 99.225 0 L 86.225 0 A 0.5 0.5 0 0 0 85.725 0.5 L 85.725 13.5 Z M 114.3 13.5 A 0.5 0.5 0 0 0 114.8 14 L 127.8 14 A 0.5 0.5 0 0 0 128.3 13.5 L 128.3 0.5 A 0.5 0.5 0 0 0 127.8 0 L 114.8 0 A 0.5 0.5 0 0 0 114.3 0.5 L 114.3 13.5 Z M 142.875 13.5 A 0.5 0.5 0 0 0 143.375 14 L 156.375 14 A 0.5 0.5 0 0 0 156.875 13.5 L 156.875 0.5 A 0.5 0.5 0 0 0 156.375 0 L 143.375 0 A 0.5 0.5 0 0 0 142.875 0.5 L 142.875 13.5 Z M 171.45 13.5 A 0.5 0.5 0 0 0 171.95 14 L 184.95 14 A 0.5 0.5 0 0 0 185.45 13.5 L 185.45 0.5 A 0.5 0.5 0 0 0 184.95 0 L 171.95 0 A 0.5 0.5 0 0 0 171.45 0.5 L 171.45 13.5 Z M 223.8375 13.5 A 0.5 0.5 0 0 0 224.3375 14 L 237.3375 14 A 0.5 0.5 0 0 0 237.8375 13.5 L 237.8375 0.5 A 0.5 0.5 0 0 0 237.3375 0 L 224.3375 0 A 0.5 0.5 0 0 0 223.8375 0.5 L 223.8375 13.5 Z M 252.4125 13.5 A 0.5 0.5 0 0 0 252.9125 14 L 265.9125 14 A 0.5 0.5 0 0 0 266.4125 13.5 L 266.4125 0.5 A 0.5 0.5 0 0 0 265.9125 0 L 252.9125 0 A 0.5 0.5 0 0 0 252.4125 0.5 L 252.4125 13.5 Z M 280.9875 13.5 A 0.5 0.5 0 0 0 281.4875 14 L 294.4875 14 A 0.5 0.5 0 0 0 294.9875 13.5 L 294.9875 0.5 A 0.5 0.5 0 0 0 294.4875 0 L 281.4875 0 A 0.5 0.5 0 0 0 280.9875 0.5 L 280.9875 13.5 Z M 309.5625 13.5 A 0.5 0.5 0 0 0 310.0625 14 L 323.0625 14 A 0.5 0.5 0 0 0 323.5625 13.5 L 323.5625 0.5 A 0.5 0.5 0 0 0 323.0625 0 L 310.0625 0 A 0.5 0.5 0 0 0 309.5625 0.5 L 309.5625 13.5 Z M 338.1375 13.5 A 0.5 0.5 0 0 0 338.6375 14 L 351.6375 14 A 0.5 0.5 0 0 0 352.1375 13.5 L 352.1375 0.5 A 0.5 0.5 0 0 0 351.6375 0 L 338.6375 0 A 0.5 0.5 0 0 0 338.1375 0.5 L 338.1375 13.5 Z M 366.7125 13.5 A 0.5 0.5 0 0 0 367.2125 14 L 380.2125 14 A 0.5 0.5 0 0 0 380.7125 13.5 L 380.7125 0.5 A 0.5 0.5 0 0 0 380.2125 0 L 367.2125 0 A 0.5 0.5 0 0 0 366.7125 0.5 L 366.7125 13.5 Z M 395.2875 13.5 A 0.5 0.5 0 0 0 395.7875 14 L 408.7875 14 A 0.5 0.5 0 0 0 409.2875 13.5 L 409.2875 0.5 A 0.5 0.5 0 0 0 408.7875 0 L 395.7875 0 A 0.5 0.5 0 0 0 395.2875 0.5 L 395.2875 13.5 Z M 52.3875 39.789 A 0.5 0.5 0 0 0 52.8875 40.289 L 65.8875 40.289 A 0.5 0.5 0 0 0 66.3875 39.789 L 66.3875 26.789 A 0.5 0.5 0 0 0 65.8875 26.289 L 52.8875 26.289 A 0.5 0.5 0 0 0 52.3875 26.789 L 52.3875 39.789 Z M 342.9 42.075 A 0.5 0.5 0 0 0 343.4 42.575 L 356.4 42.575 A 0.5 0.5 0 0 0 356.9 42.075 L 356.9 29.075 A 0.5 0.5 0 0 0 356.4 28.575 L 343.4 28.575 A 0.5 0.5 0 0 0 342.9 29.075 L 342.9 42.075 Z M 0 44.5515 A 0.5 0.5 0 0 0 0.5 45.0515 L 13.5 45.0515 A 0.5 0.5 0 0 0 14 44.5515 L 14 31.5515 A 0.5 0.5 0 0 0 13.5 31.0515 L 0.5 31.0515 A 0.5 0.5 0 0 0 0 31.5515 L 0 44.5515 Z M 28.575 44.5515 A 0.5 0.5 0 0 0 29.075 45.0515 L 42.075 45.0515 A 0.5 0.5 0 0 0 42.575 44.5515 L 42.575 31.5515 A 0.5 0.5 0 0 0 42.075 31.0515 L 29.075 31.0515 A 0.5 0.5 0 0 0 28.575 31.5515 L 28.575 44.5515 Z M 366.7125 44.5515 A 0.5 0.5 0 0 0 367.2125 45.0515 L 380.2125 45.0515 A 0.5 0.5 0 0 0 380.7125 44.5515 L 380.7125 31.5515 A 0.5 0.5 0 0 0 380.2125 31.0515 L 367.2125 31.0515 A 0.5 0.5 0 0 0 366.7125 31.5515 L 366.7125 44.5515 Z M 395.2875 44.5515 A 0.5 0.5 0 0 0 395.7875 45.0515 L 408.7875 45.0515 A 0.5 0.5 0 0 0 409.2875 44.5515 L 409.2875 31.5515 A 0.5 0.5 0 0 0 408.7875 31.0515 L 395.7875 31.0515 A 0.5 0.5 0 0 0 395.2875 31.5515 L 395.2875 44.5515 Z M 52.3875 63.6015 A 0.5 0.5 0 0 0 52.8875 64.1015 L 65.8875 64.1015 A 0.5 0.5 0 0 0 66.3875 63.6015 L 66.3875 50.6015 A 0.5 0.5 0 0 0 65.8875 50.1015 L 52.8875 50.1015 A 0.5 0.5 0 0 0 52.3875 50.6015 L 52.3875 63.6015 Z M 342.9 65.8875 A 0.5 0.5 0 0 0 343.4 66.3875 L 356.4 66.3875 A 0.5 0.5 0 0 0 356.9 65.8875 L 356.9 52.8875 A 0.5 0.5 0 0 0 356.4 52.3875 L 343.4 52.3875 A 0.5 0.5 0 0 0 342.9 52.8875 L 342.9 65.8875 Z M 0 68.364 A 0.5 0.5 0 0 0 0.5 68.864 L 13.5 68.864 A 0.5 0.5 0 0 0 14 68.364 L 14 55.364 A 0.5 0.5 0 0 0 13.5 54.864 L 0.5 54.864 A 0.5 0.5 0 0 0 0 55.364 L 0 68.364 Z M 28.575 68.364 A 0.5 0.5 0 0 0 29.075 68.864 L 42.075 68.864 A 0.5 0.5 0 0 0 42.575 68.364 L 42.575 55.364 A 0.5 0.5 0 0 0 42.075 54.864 L 29.075 54.864 A 0.5 0.5 0 0 0 28.575 55.364 L 28.575 68.364 Z M 366.7125 68.364 A 0.5 0.5 0 0 0 367.2125 68.864 L 380.2125 68.864 A 0.5 0.5 0 0 0 380.7125 68.364 L 380.7125 55.364 A 0.5 0.5 0 0 0 380.2125 54.864 L 367.2125 54.864 A 0.5 0.5 0 0 0 366.7125 55.364 L 366.7125 68.364 Z M 395.2875 68.364 A 0.5 0.5 0 0 0 395.7875 68.864 L 408.7875 68.864 A 0.5 0.5 0 0 0 409.2875 68.364 L 409.2875 55.364 A 0.5 0.5 0 0 0 408.7875 54.864 L 395.7875 54.864 A 0.5 0.5 0 0 0 395.2875 55.364 L 395.2875 68.364 Z M 52.3875 87.414 A 0.5 0.5 0 0 0 52.8875 87.914 L 65.8875 87.914 A 0.5 0.5 0 0 0 66.3875 87.414 L 66.3875 74.414 A 0.5 0.5 0 0 0 65.8875 73.914 L 52.8875 73.914 A 0.5 0.5 0 0 0 52.3875 74.414 L 52.3875 87.414 Z M 342.9 87.414 A 0.5 0.5 0 0 0 343.4 87.914 L 356.4 87.914 A 0.5 0.5 0 0 0 356.9 87.414 L 356.9 74.414 A 0.5 0.5 0 0 0 356.4 73.914 L 343.4 73.914 A 0.5 0.5 0 0 0 342.9 74.414 L 342.9 87.414 Z M 0 92.1765 A 0.5 0.5 0 0 0 0.5 92.6765 L 13.5 92.6765 A 0.5 0.5 0 0 0 14 92.1765 L 14 79.1765 A 0.5 0.5 0 0 0 13.5 78.6765 L 0.5 78.6765 A 0.5 0.5 0 0 0 0 79.1765 L 0 92.1765 Z M 28.575 92.1765 A 0.5 0.5 0 0 0 29.075 92.6765 L 42.075 92.6765 A 0.5 0.5 0 0 0 42.575 92.1765 L 42.575 79.1765 A 0.5 0.5 0 0 0 42.075 78.6765 L 29.075 78.6765 A 0.5 0.5 0 0 0 28.575 79.1765 L 28.575 92.1765 Z M 366.7125 92.1765 A 0.5 0.5 0 0 0 367.2125 92.6765 L 380.2125 92.6765 A 0.5 0.5 0 0 0 380.7125 92.1765 L 380.7125 79.1765 A 0.5 0.5 0 0 0 380.2125 78.6765 L 367.2125 78.6765 A 0.5 0.5 0 0 0 366.7125 79.1765 L 366.7125 92.1765 Z M 395.2875 92.1765 A 0.5 0.5 0 0 0 395.7875 92.6765 L 408.7875 92.6765 A 0.5 0.5 0 0 0 409.2875 92.1765 L 409.2875 79.1765 A 0.5 0.5 0 0 0 408.7875 78.6765 L 395.7875 78.6765 A 0.5 0.5 0 0 0 395.2875 79.1765 L 395.2875 92.1765 Z M 52.3875 111.2265 A 0.5 0.5 0 0 0 52.8875 111.7265 L 65.8875 111.7265 A 0.5 0.5 0 0 0 66.3875 111.2265 L 66.3875 98.2265 A 0.5 0.5 0 0 0 65.8875 97.7265 L 52.8875 97.7265 A 0.5 0.5 0 0 0 52.3875 98.2265 L 52.3875 111.2265 Z M 342.9 111.2265 A 0.5 0.5 0 0 0 343.4 111.7265 L 356.4 111.7265 A 0.5 0.5 0 0 0 356.9 111.2265 L 356.9 98.2265 A 0.5 0.5 0 0 0 356.4 97.7265 L 343.4 97.7265 A 0.5 0.5 0 0 0 342.9 98.2265 L 342.9 111.2265 Z M 0 115.989 A 0.5 0.5 0 0 0 0.5 116.489 L 13.5 116.489 A 0.5 0.5 0 0 0 14 115.989 L 14 102.989 A 0.5 0.5 0 0 0 13.5 102.489 L 0.5 102.489 A 0.5 0.5 0 0 0 0 102.989 L 0 115.989 Z M 28.575 115.989 A 0.5 0.5 0 0 0 29.075 116.489 L 42.075 116.489 A 0.5 0.5 0 0 0 42.575 115.989 L 42.575 102.989 A 0.5 0.5 0 0 0 42.075 102.489 L 29.075 102.489 A 0.5 0.5 0 0 0 28.575 102.989 L 28.575 115.989 Z M 366.7125 115.989 A 0.5 0.5 0 0 0 367.2125 116.489 L 380.2125 116.489 A 0.5 0.5 0 0 0 380.7125 115.989 L 380.7125 102.989 A 0.5 0.5 0 0 0 380.2125 102.489 L 367.2125 102.489 A 0.5 0.5 0 0 0 366.7125 102.989 L 366.7125 115.989 Z M 395.2875 115.989 A 0.5 0.5 0 0 0 395.7875 116.489 L 408.7875 116.489 A 0.5 0.5 0 0 0 409.2875 115.989 L 409.2875 102.989 A 0.5 0.5 0 0 0 408.7875 102.489 L 395.7875 102.489 A 0.5 0.5 0 0 0 395.2875 102.989 L 395.2875 115.989 Z M 52.3875 135.039 A 0.5 0.5 0 0 0 52.8875 135.539 L 65.8875 135.539 A 0.5 0.5 0 0 0 66.3875 135.039 L 66.3875 122.039 A 0.5 0.5 0 0 0 65.8875 121.539 L 52.8875 121.539 A 0.5 0.5 0 0 0 52.3875 122.039 L 52.3875 135.039 Z M 342.9 135.039 A 0.5 0.5 0 0 0 343.4 135.539 L 356.4 135.539 A 0.5 0.5 0 0 0 356.9 135.039 L 356.9 122.039 A 0.5 0.5 0 0 0 356.4 121.539 L 343.4 121.539 A 0.5 0.5 0 0 0 342.9 122.039 L 342.9 135.039 Z M 4.7625 139.8015 A 0.5 0.5 0 0 0 5.2625 140.3015 L 18.2625 140.3015 A 0.5 0.5 0 0 0 18.7625 139.8015 L 18.7625 126.8015 A 0.5 0.5 0 0 0 18.2625 126.3015 L 5.2625 126.3015 A 0.5 0.5 0 0 0 4.7625 126.8015 L 4.7625 139.8015 Z M 28.575 139.8015 A 0.5 0.5 0 0 0 29.075 140.3015 L 42.075 140.3015 A 0.5 0.5 0 0 0 42.575 139.8015 L 42.575 126.8015 A 0.5 0.5 0 0 0 42.075 126.3015 L 29.075 126.3015 A 0.5 0.5 0 0 0 28.575 126.8015 L 28.575 139.8015 Z M 366.7125 139.8015 A 0.5 0.5 0 0 0 367.2125 140.3015 L 380.2125 140.3015 A 0.5 0.5 0 0 0 380.7125 139.8015 L 380.7125 126.8015 A 0.5 0.5 0 0 0 380.2125 126.3015 L 367.2125 126.3015 A 0.5 0.5 0 0 0 366.7125 126.8015 L 366.7125 139.8015 Z M 390.525 139.8015 A 0.5 0.5 0 0 0 391.025 140.3015 L 404.025 140.3015 A 0.5 0.5 0 0 0 404.525 139.8015 L 404.525 126.8015 A 0.5 0.5 0 0 0 404.025 126.3015 L 391.025 126.3015 A 0.5 0.5 0 0 0 390.525 126.8015 L 390.525 139.8015 Z M 76.2 37.3125 A 0.5 0.5 0 0 0 76.7 37.8125 L 89.7 37.8125 A 0.5 0.5 0 0 0 90.2 37.3125 L 90.2 24.3125 A 0.5 0.5 0 0 0 89.7 23.8125 L 76.7 23.8125 A 0.5 0.5 0 0 0 76.2 24.3125 L 76.2 37.3125 Z M 319.0875 37.3125 A 0.5 0.5 0 0 0 319.5875 37.8125 L 332.5875 37.8125 A 0.5 0.5 0 0 0 333.0875 37.3125 L 333.0875 24.3125 A 0.5 0.5 0 0 0 332.5875 23.8125 L 319.5875 23.8125 A 0.5 0.5 0 0 0 319.0875 24.3125 L 319.0875 37.3125 Z M 100.0125 39.789 A 0.5 0.5 0 0 0 100.5125 40.289 L 113.5125 40.289 A 0.5 0.5 0 0 0 114.0125 39.789 L 114.0125 26.789 A 0.5 0.5 0 0 0 113.5125 26.289 L 100.5125 26.289 A 0.5 0.5 0 0 0 100.0125 26.789 L 100.0125 39.789 Z M 295.275 39.789 A 0.5 0.5 0 0 0 295.775 40.289 L 308.775 40.289 A 0.5 0.5 0 0 0 309.275 39.789 L 309.275 26.789 A 0.5 0.5 0 0 0 308.775 26.289 L 295.775 26.289 A 0.5 0.5 0 0 0 295.275 26.789 L 295.275 39.789 Z M 123.825 42.075 A 0.5 0.5 0 0 0 124.325 42.575 L 137.325 42.575 A 0.5 0.5 0 0 0 137.825 42.075 L 137.825 29.075 A 0.5 0.5 0 0 0 137.325 28.575 L 124.325 28.575 A 0.5 0.5 0 0 0 123.825 29.075 L 123.825 42.075 Z M 147.6375 42.075 A 0.5 0.5 0 0 0 148.1375 42.575 L 161.1375 42.575 A 0.5 0.5 0 0 0 161.6375 42.075 L 161.6375 29.075 A 0.5 0.5 0 0 0 161.1375 28.575 L 148.1375 28.575 A 0.5 0.5 0 0 0 147.6375 29.075 L 147.6375 42.075 Z M 171.45 42.075 A 0.5 0.5 0 0 0 171.95 42.575 L 184.95 42.575 A 0.5 0.5 0 0 0 185.45 42.075 L 185.45 29.075 A 0.5 0.5 0 0 0 184.95 28.575 L 171.95 28.575 A 0.5 0.5 0 0 0 171.45 29.075 L 171.45 42.075 Z M 223.8375 42.075 A 0.5 0.5 0 0 0 224.3375 42.575 L 237.3375 42.575 A 0.5 0.5 0 0 0 237.8375 42.075 L 237.8375 29.075 A 0.5 0.5 0 0 0 237.3375 28.575 L 224.3375 28.575 A 0.5 0.5 0 0 0 223.8375 29.075 L 223.8375 42.075 Z M 247.65 42.075 A 0.5 0.5 0 0 0 248.15 42.575 L 261.15 42.575 A 0.5 0.5 0 0 0 261.65 42.075 L 261.65 29.075 A 0.5 0.5 0 0 0 261.15 28.575 L 248.15 28.575 A 0.5 0.5 0 0 0 247.65 29.075 L 247.65 42.075 Z M 271.4625 42.075 A 0.5 0.5 0 0 0 271.9625 42.575 L 284.9625 42.575 A 0.5 0.5 0 0 0 285.4625 42.075 L 285.4625 29.075 A 0.5 0.5 0 0 0 284.9625 28.575 L 271.9625 28.575 A 0.5 0.5 0 0 0 271.4625 29.075 L 271.4625 42.075 Z M 76.2 61.125 A 0.5 0.5 0 0 0 76.7 61.625 L 89.7 61.625 A 0.5 0.5 0 0 0 90.2 61.125 L 90.2 48.125 A 0.5 0.5 0 0 0 89.7 47.625 L 76.7 47.625 A 0.5 0.5 0 0 0 76.2 48.125 L 76.2 61.125 Z M 319.0875 61.125 A 0.5 0.5 0 0 0 319.5875 61.625 L 332.5875 61.625 A 0.5 0.5 0 0 0 333.0875 61.125 L 333.0875 48.125 A 0.5 0.5 0 0 0 332.5875 47.625 L 319.5875 47.625 A 0.5 0.5 0 0 0 319.0875 48.125 L 319.0875 61.125 Z M 100.0125 63.6015 A 0.5 0.5 0 0 0 100.5125 64.1015 L 113.5125 64.1015 A 0.5 0.5 0 0 0 114.0125 63.6015 L 114.0125 50.6015 A 0.5 0.5 0 0 0 113.5125 50.1015 L 100.5125 50.1015 A 0.5 0.5 0 0 0 100.0125 50.6015 L 100.0125 63.6015 Z M 295.275 63.6015 A 0.5 0.5 0 0 0 295.775 64.1015 L 308.775 64.1015 A 0.5 0.5 0 0 0 309.275 63.6015 L 309.275 50.6015 A 0.5 0.5 0 0 0 308.775 50.1015 L 295.775 50.1015 A 0.5 0.5 0 0 0 295.275 50.6015 L 295.275 63.6015 Z M 123.825 65.8875 A 0.5 0.5 0 0 0 124.325 66.3875 L 137.325 66.3875 A 0.5 0.5 0 0 0 137.825 65.8875 L 137.825 52.8875 A 0.5 0.5 0 0 0 137.325 52.3875 L 124.325 52.3875 A 0.5 0.5 0 0 0 123.825 52.8875 L 123.825 65.8875 Z M 147.6375 65.8875 A 0.5 0.5 0 0 0 148.1375 66.3875 L 161.1375 66.3875 A 0.5 0.5 0 0 0 161.6375 65.8875 L 161.6375 52.8875 A 0.5 0.5 0 0 0 161.1375 52.3875 L 148.1375 52.3875 A 0.5 0.5 0 0 0 147.6375 52.8875 L 147.6375 65.8875 Z M 247.65 65.8875 A 0.5 0.5 0 0 0 248.15 66.3875 L 261.15 66.3875 A 0.5 0.5 0 0 0 261.65 65.8875 L 261.65 52.8875 A 0.5 0.5 0 0 0 261.15 52.3875 L 248.15 52.3875 A 0.5 0.5 0 0 0 247.65 52.8875 L 247.65 65.8875 Z M 271.4625 65.8875 A 0.5 0.5 0 0 0 271.9625 66.3875 L 284.9625 66.3875 A 0.5 0.5 0 0 0 285.4625 65.8875 L 285.4625 52.8875 A 0.5 0.5 0 0 0 284.9625 52.3875 L 271.9625 52.3875 A 0.5 0.5 0 0 0 271.4625 52.8875 L 271.4625 65.8875 Z M 171.45 75.4125 A 0.5 0.5 0 0 0 171.95 75.9125 L 184.95 75.9125 A 0.5 0.5 0 0 0 185.45 75.4125 L 185.45 62.4125 A 0.5 0.5 0 0 0 184.95 61.9125 L 171.95 61.9125 A 0.5 0.5 0 0 0 171.45 62.4125 L 171.45 75.4125 Z M 223.8375 75.4125 A 0.5 0.5 0 0 0 224.3375 75.9125 L 237.3375 75.9125 A 0.5 0.5 0 0 0 237.8375 75.4125 L 237.8375 62.4125 A 0.5 0.5 0 0 0 237.3375 61.9125 L 224.3375 61.9125 A 0.5 0.5 0 0 0 223.8375 62.4125 L 223.8375 75.4125 Z M 76.2 84.9375 A 0.5 0.5 0 0 0 76.7 85.4375 L 89.7 85.4375 A 0.5 0.5 0 0 0 90.2 84.9375 L 90.2 71.9375 A 0.5 0.5 0 0 0 89.7 71.4375 L 76.7 71.4375 A 0.5 0.5 0 0 0 76.2 71.9375 L 76.2 84.9375 Z M 319.0875 84.9375 A 0.5 0.5 0 0 0 319.5875 85.4375 L 332.5875 85.4375 A 0.5 0.5 0 0 0 333.0875 84.9375 L 333.0875 71.9375 A 0.5 0.5 0 0 0 332.5875 71.4375 L 319.5875 71.4375 A 0.5 0.5 0 0 0 319.0875 71.9375 L 319.0875 84.9375 Z M 100.0125 87.414 A 0.5 0.5 0 0 0 100.5125 87.914 L 113.5125 87.914 A 0.5 0.5 0 0 0 114.0125 87.414 L 114.0125 74.414 A 0.5 0.5 0 0 0 113.5125 73.914 L 100.5125 73.914 A 0.5 0.5 0 0 0 100.0125 74.414 L 100.0125 87.414 Z M 295.275 87.414 A 0.5 0.5 0 0 0 295.775 87.914 L 308.775 87.914 A 0.5 0.5 0 0 0 309.275 87.414 L 309.275 74.414 A 0.5 0.5 0 0 0 308.775 73.914 L 295.775 73.914 A 0.5 0.5 0 0 0 295.275 74.414 L 295.275 87.414 Z M 123.825 89.7 A 0.5 0.5 0 0 0 124.325 90.2 L 137.325 90.2 A 0.5 0.5 0 0 0 137.825 89.7 L 137.825 76.7 A 0.5 0.5 0 0 0 137.325 76.2 L 124.325 76.2 A 0.5 0.5 0 0 0 123.825 76.7 L 123.825 89.7 Z M 147.6375 89.7 A 0.5 0.5 0 0 0 148.1375 90.2 L 161.1375 90.2 A 0.5 0.5 0 0 0 161.6375 89.7 L 161.6375 76.7 A 0.5 0.5 0 0 0 161.1375 76.2 L 148.1375 76.2 A 0.5 0.5 0 0 0 147.6375 76.7 L 147.6375 89.7 Z M 247.65 89.7 A 0.5 0.5 0 0 0 248.15 90.2 L 261.15 90.2 A 0.5 0.5 0 0 0 261.65 89.7 L 261.65 76.7 A 0.5 0.5 0 0 0 261.15 76.2 L 248.15 76.2 A 0.5 0.5 0 0 0 247.65 76.7 L 247.65 89.7 Z M 271.4625 89.7 A 0.5 0.5 0 0 0 271.9625 90.2 L 284.9625 90.2 A 0.5 0.5 0 0 0 285.4625 89.7 L 285.4625 76.7 A 0.5 0.5 0 0 0 284.9625 76.2 L 271.9625 76.2 A 0.5 0.5 0 0 0 271.4625 76.7 L 271.4625 89.7 Z M 171.45 108.75 A 0.5 0.5 0 0 0 171.95 109.25 L 184.95 109.25 A 0.5 0.5 0 0 0 185.45 108.75 L 185.45 95.75 A 0.5 0.5 0 0 0 184.95 95.25 L 171.95 95.25 A 0.5 0.5 0 0 0 171.45 95.75 L 171.45 108.75 Z M 223.8375 108.75 A 0.5 0.5 0 0 0 224.3375 109.25 L 237.3375 109.25 A 0.5 0.5 0 0 0 237.8375 108.75 L 237.8375 95.75 A 0.5 0.5 0 0 0 237.3375 95.25 L 224.3375 95.25 A 0.5 0.5 0 0 0 223.8375 95.75 L 223.8375 108.75 Z M 76.2 108.75 A 0.5 0.5 0 0 0 76.7 109.25 L 89.7 109.25 A 0.5 0.5 0 0 0 90.2 108.75 L 90.2 95.75 A 0.5 0.5 0 0 0 89.7 95.25 L 76.7 95.25 A 0.5 0.5 0 0 0 76.2 95.75 L 76.2 108.75 Z M 319.0875 108.75 A 0.5 0.5 0 0 0 319.5875 109.25 L 332.5875 109.25 A 0.5 0.5 0 0 0 333.0875 108.75 L 333.0875 95.75 A 0.5 0.5 0 0 0 332.5875 95.25 L 319.5875 95.25 A 0.5 0.5 0 0 0 319.0875 95.75 L 319.0875 108.75 Z M 100.0125 111.2265 A 0.5 0.5 0 0 0 100.5125 111.7265 L 113.5125 111.7265 A 0.5 0.5 0 0 0 114.0125 111.2265 L 114.0125 98.2265 A 0.5 0.5 0 0 0 113.5125 97.7265 L 100.5125 97.7265 A 0.5 0.5 0 0 0 100.0125 98.2265 L 100.0125 111.2265 Z M 295.275 111.2265 A 0.5 0.5 0 0 0 295.775 111.7265 L 308.775 111.7265 A 0.5 0.5 0 0 0 309.275 111.2265 L 309.275 98.2265 A 0.5 0.5 0 0 0 308.775 97.7265 L 295.775 97.7265 A 0.5 0.5 0 0 0 295.275 98.2265 L 295.275 111.2265 Z M 123.825 113.5125 A 0.5 0.5 0 0 0 124.325 114.0125 L 137.325 114.0125 A 0.5 0.5 0 0 0 137.825 113.5125 L 137.825 100.5125 A 0.5 0.5 0 0 0 137.325 100.0125 L 124.325 100.0125 A 0.5 0.5 0 0 0 123.825 100.5125 L 123.825 113.5125 Z M 147.6375 113.5125 A 0.5 0.5 0 0 0 148.1375 114.0125 L 161.1375 114.0125 A 0.5 0.5 0 0 0 161.6375 113.5125 L 161.6375 100.5125 A 0.5 0.5 0 0 0 161.1375 100.0125 L 148.1375 100.0125 A 0.5 0.5 0 0 0 147.6375 100.5125 L 147.6375 113.5125 Z M 247.65 113.5125 A 0.5 0.5 0 0 0 248.15 114.0125 L 261.15 114.0125 A 0.5 0.5 0 0 0 261.65 113.5125 L 261.65 100.5125 A 0.5 0.5 0 0 0 261.15 100.0125 L 248.15 100.0125 A 0.5 0.5 0 0 0 247.65 100.5125 L 247.65 113.5125 Z M 271.4625 113.5125 A 0.5 0.5 0 0 0 271.9625 114.0125 L 284.9625 114.0125 A 0.5 0.5 0 0 0 285.4625 113.5125 L 285.4625 100.5125 A 0.5 0.5 0 0 0 284.9625 100.0125 L 271.9625 100.0125 A 0.5 0.5 0 0 0 271.4625 100.5125 L 271.4625 113.5125 Z M 76.2 132.5625 A 0.5 0.5 0 0 0 76.7 133.0625 L 89.7 133.0625 A 0.5 0.5 0 0 0 90.2 132.5625 L 90.2 119.5625 A 0.5 0.5 0 0 0 89.7 119.0625 L 76.7 119.0625 A 0.5 0.5 0 0 0 76.2 119.5625 L 76.2 132.5625 Z M 319.0875 132.5625 A 0.5 0.5 0 0 0 319.5875 133.0625 L 332.5875 133.0625 A 0.5 0.5 0 0 0 333.0875 132.5625 L 333.0875 119.5625 A 0.5 0.5 0 0 0 332.5875 119.0625 L 319.5875 119.0625 A 0.5 0.5 0 0 0 319.0875 119.5625 L 319.0875 132.5625 Z M 100.0125 135.039 A 0.5 0.5 0 0 0 100.5125 135.539 L 113.5125 135.539 A 0.5 0.5 0 0 0 114.0125 135.039 L 114.0125 122.039 A 0.5 0.5 0 0 0 113.5125 121.539 L 100.5125 121.539 A 0.5 0.5 0 0 0 100.0125 122.039 L 100.0125 135.039 Z M 295.275 135.039 A 0.5 0.5 0 0 0 295.775 135.539 L 308.775 135.539 A 0.5 0.5 0 0 0 309.275 135.039 L 309.275 122.039 A 0.5 0.5 0 0 0 308.775 121.539 L 295.775 121.539 A 0.5 0.5 0 0 0 295.275 122.039 L 295.275 135.039 Z M 235.077451 145.51341 A 0.5 0.5 0 0 0 235.760464 145.696423 L 247.018794 139.196423 A 0.5 0.5 0 0 0 247.201807 138.51341 L 240.701807 127.25508 A 0.5 0.5 0 0 0 240.018794 127.072067 L 228.760464 133.572067 A 0.5 0.5 0 0 0 228.577451 134.25508 L 235.077451 145.51341 Z M 226.361472 178.041891 A 0.5 0.5 0 0 0 227.044485 178.224904 L 238.302815 171.724904 A 0.5 0.5 0 0 0 238.485828 171.041891 L 231.985828 159.783561 A 0.5 0.5 0 0 0 231.302815 159.600548 L 220.044485 166.100548 A 0.5 0.5 0 0 0 219.861472 166.783561 L 226.361472 178.041891 Z M 246.983701 166.135641 A 0.5 0.5 0 0 0 247.666714 166.318654 L 258.925044 159.818654 A 0.5 0.5 0 0 0 259.108057 159.135641 L 252.608057 147.877311 A 0.5 0.5 0 0 0 251.925044 147.694298 L 240.666714 154.194298 A 0.5 0.5 0 0 0 240.483701 154.877311 L 246.983701 166.135641 Z M 267.605932 154.229391 A 0.5 0.5 0 0 0 268.288945 154.412404 L 279.547275 147.912404 A 0.5 0.5 0 0 0 279.730288 147.229391 L 273.230288 135.971061 A 0.5 0.5 0 0 0 272.547275 135.788048 L 261.288945 142.288048 A 0.5 0.5 0 0 0 261.105932 142.971061 L 267.605932 154.229391 Z M 163.691458 138.650841 A 0.5 0.5 0 0 0 163.87447 139.333854 L 175.132801 145.833854 A 0.5 0.5 0 0 0 175.815813 145.650841 L 182.315813 134.392511 A 0.5 0.5 0 0 0 182.132801 133.709498 L 170.87447 127.209498 A 0.5 0.5 0 0 0 170.191458 127.392511 L 163.691458 138.650841 Z M 131.162979 147.366822 A 0.5 0.5 0 0 0 131.345991 148.049834 L 142.604322 154.549834 A 0.5 0.5 0 0 0 143.287334 154.366822 L 149.787334 143.108491 A 0.5 0.5 0 0 0 149.604322 142.425479 L 138.345991 135.925479 A 0.5 0.5 0 0 0 137.662979 136.108491 L 131.162979 147.366822 Z M 151.785208 159.273072 A 0.5 0.5 0 0 0 151.96822 159.956084 L 163.226551 166.456084 A 0.5 0.5 0 0 0 163.909563 166.273072 L 170.409563 155.014741 A 0.5 0.5 0 0 0 170.226551 154.331729 L 158.96822 147.831729 A 0.5 0.5 0 0 0 158.285208 148.014741 L 151.785208 159.273072 Z M 172.407438 171.179322 A 0.5 0.5 0 0 0 172.590451 171.862334 L 183.848781 178.362334 A 0.5 0.5 0 0 0 184.531794 178.179322 L 191.031794 166.920991 A 0.5 0.5 0 0 0 190.848781 166.237979 L 179.590451 159.737979 A 0.5 0.5 0 0 0 178.907438 159.920991 L 172.407438 171.179322 Z" vector-effect="non-scaling-stroke"/></g></svg>